<?xml version="1.0" standalone="no"?>
<!DOCTYPE svg PUBLIC "-//W3C//DTD SVG 1.1//EN" "http://www.w3.org/Graphics/SVG/1.1/DTD/svg11.dtd">
<svg stroke="black" width="1114.0" viewBox="0 0 2228.0 480.0" id="b1-c25-m1" version="1.1"
    xmlns="http://www.w3.org/2000/svg"
    xmlns:xlink="http://www.w3.org/1999/xlink"><rect width="100%" height="100%" fill="white"/><defs><g id="flat-2"><line x1="2.5" y1="35.0" x2="27.5" y2="35.0" stroke-width="4.5" stroke-linecap="round"/><line x1="2.5" y1="75.0" x2="27.5" y2="75.0" stroke-width="4.5" stroke-linecap="round"/><line x1="2.5" y1="115.0" x2="27.5" y2="115.0" stroke-width="4.5" stroke-linecap="round"/><line x1="2.5" y1="155.0" x2="27.5" y2="155.0" stroke-width="4.5" stroke-linecap="round"/><line x1="2.5" y1="195.0" x2="27.5" y2="195.0" stroke-width="4.5" stroke-linecap="round"/><path stroke="black" fill="none" stroke-width="3.25" stroke-linecap="round" d="M2.1999998 187.8 A15.360001 15.360001 0 1 0 2.1999998 162.2 " /><path fill="black" d="M0.9499998 187.8 L3.4499998 187.8 L3.5749998 59.800003 L-0.5500002 59.800003 z" /></g><g id="sharp-3"><line x1="2.5" y1="35.0" x2="45.5" y2="35.0" stroke-width="4.5" stroke-linecap="round"/><line x1="2.5" y1="75.0" x2="45.5" y2="75.0" stroke-width="4.5" stroke-linecap="round"/><line x1="2.5" y1="115.0" x2="45.5" y2="115.0" stroke-width="4.5" stroke-linecap="round"/><line x1="2.5" y1="155.0" x2="45.5" y2="155.0" stroke-width="4.5" stroke-linecap="round"/><line x1="2.5" y1="195.0" x2="45.5" y2="195.0" stroke-width="4.5" stroke-linecap="round"/><line x1="41.3" y1="168.8" x2="13.700001" y2="141.2" stroke-width="2.5" stroke-linecap="round"/><line x1="41.3" y1="141.2" x2="13.700001" y2="168.8" stroke-width="2.5" stroke-linecap="round"/><line x1="34.3" y1="168.8" x2="6.700001" y2="141.2" stroke-width="2.5" stroke-linecap="round"/><line x1="34.3" y1="141.2" x2="6.700001" y2="168.8" stroke-width="2.5" stroke-linecap="round"/></g><g id="blank-38"><line x1="2.5" y1="35.0" x2="35.5" y2="35.0" stroke-width="4.5" stroke-linecap="round"/><line x1="2.5" y1="75.0" x2="35.5" y2="75.0" stroke-width="4.5" stroke-linecap="round"/><line x1="2.5" y1="115.0" x2="35.5" y2="115.0" stroke-width="4.5" stroke-linecap="round"/><line x1="2.5" y1="155.0" x2="35.5" y2="155.0" stroke-width="4.5" stroke-linecap="round"/><line x1="2.5" y1="195.0" x2="35.5" y2="195.0" stroke-width="4.5" stroke-linecap="round"/></g><g id="semibrevis-5"><line x1="2.5" y1="35.0" x2="50.5" y2="35.0" stroke-width="4.5" stroke-linecap="round"/><line x1="2.5" y1="75.0" x2="50.5" y2="75.0" stroke-width="4.5" stroke-linecap="round"/><line x1="2.5" y1="115.0" x2="50.5" y2="115.0" stroke-width="4.5" stroke-linecap="round"/><line x1="2.5" y1="155.0" x2="50.5" y2="155.0" stroke-width="4.5" stroke-linecap="round"/><line x1="2.5" y1="195.0" x2="50.5" y2="195.0" stroke-width="4.5" stroke-linecap="round"/><path fill-rule="evenodd" fill="black" d="M26.5 141.0 L3.1000004 115.0 L26.5 89.0 L49.9 115.0 zM33.022408 129.66476 L13.301713 107.752884 L19.977592 100.335236 L39.698288 122.247116 z" /></g><g id="sharp-5"><line x1="2.5" y1="35.0" x2="45.5" y2="35.0" stroke-width="4.5" stroke-linecap="round"/><line x1="2.5" y1="75.0" x2="45.5" y2="75.0" stroke-width="4.5" stroke-linecap="round"/><line x1="2.5" y1="115.0" x2="45.5" y2="115.0" stroke-width="4.5" stroke-linecap="round"/><line x1="2.5" y1="155.0" x2="45.5" y2="155.0" stroke-width="4.5" stroke-linecap="round"/><line x1="2.5" y1="195.0" x2="45.5" y2="195.0" stroke-width="4.5" stroke-linecap="round"/><line x1="41.3" y1="128.8" x2="13.700001" y2="101.2" stroke-width="2.5" stroke-linecap="round"/><line x1="41.3" y1="101.2" x2="13.700001" y2="128.8" stroke-width="2.5" stroke-linecap="round"/><line x1="34.3" y1="128.8" x2="6.700001" y2="101.2" stroke-width="2.5" stroke-linecap="round"/><line x1="34.3" y1="101.2" x2="6.700001" y2="128.8" stroke-width="2.5" stroke-linecap="round"/></g><g id="sharp-4"><line x1="2.5" y1="35.0" x2="45.5" y2="35.0" stroke-width="4.5" stroke-linecap="round"/><line x1="2.5" y1="75.0" x2="45.5" y2="75.0" stroke-width="4.5" stroke-linecap="round"/><line x1="2.5" y1="115.0" x2="45.5" y2="115.0" stroke-width="4.5" stroke-linecap="round"/><line x1="2.5" y1="155.0" x2="45.5" y2="155.0" stroke-width="4.5" stroke-linecap="round"/><line x1="2.5" y1="195.0" x2="45.5" y2="195.0" stroke-width="4.5" stroke-linecap="round"/><line x1="49.0" y1="155.0" x2="9.0" y2="115.0" stroke-width="2.5" stroke-linecap="round"/><line x1="49.0" y1="115.0" x2="9.0" y2="155.0" stroke-width="2.5" stroke-linecap="round"/><line x1="39.0" y1="155.0" x2="-1.0" y2="115.0" stroke-width="2.5" stroke-linecap="round"/><line x1="39.0" y1="115.0" x2="-1.0" y2="155.0" stroke-width="2.5" stroke-linecap="round"/></g><g id="semibrevis-4"><line x1="2.5" y1="35.0" x2="50.5" y2="35.0" stroke-width="4.5" stroke-linecap="round"/><line x1="2.5" y1="75.0" x2="50.5" y2="75.0" stroke-width="4.5" stroke-linecap="round"/><line x1="2.5" y1="115.0" x2="50.5" y2="115.0" stroke-width="4.5" stroke-linecap="round"/><line x1="2.5" y1="155.0" x2="50.5" y2="155.0" stroke-width="4.5" stroke-linecap="round"/><line x1="2.5" y1="195.0" x2="50.5" y2="195.0" stroke-width="4.5" stroke-linecap="round"/><path fill-rule="evenodd" fill="black" d="M26.5 161.0 L3.1000004 135.0 L26.5 109.0 L49.9 135.0 zM33.022408 149.66476 L13.301713 127.752884 L19.977592 120.335236 L39.698288 142.24712 z" /></g><g id="semibrevis-3"><line x1="2.5" y1="35.0" x2="50.5" y2="35.0" stroke-width="4.5" stroke-linecap="round"/><line x1="2.5" y1="75.0" x2="50.5" y2="75.0" stroke-width="4.5" stroke-linecap="round"/><line x1="2.5" y1="115.0" x2="50.5" y2="115.0" stroke-width="4.5" stroke-linecap="round"/><line x1="2.5" y1="155.0" x2="50.5" y2="155.0" stroke-width="4.5" stroke-linecap="round"/><line x1="2.5" y1="195.0" x2="50.5" y2="195.0" stroke-width="4.5" stroke-linecap="round"/><path fill-rule="evenodd" fill="black" d="M26.5 181.0 L3.1000004 155.0 L26.5 129.0 L49.9 155.0 zM33.022408 169.66476 L13.301713 147.75288 L19.977592 140.33524 L39.698288 162.24712 z" /></g><g id="simple-barline"><line x1="2.5" y1="35.0" x2="41.5" y2="35.0" stroke-width="4.5" stroke-linecap="round"/><line x1="2.5" y1="75.0" x2="41.5" y2="75.0" stroke-width="4.5" stroke-linecap="round"/><line x1="2.5" y1="115.0" x2="41.5" y2="115.0" stroke-width="4.5" stroke-linecap="round"/><line x1="2.5" y1="155.0" x2="41.5" y2="155.0" stroke-width="4.5" stroke-linecap="round"/><line x1="2.5" y1="195.0" x2="41.5" y2="195.0" stroke-width="4.5" stroke-linecap="round"/><line x1="22.0" y1="203.0" x2="22.0" y2="27.0" stroke-width="4.75" stroke-linecap="square"/></g><g id="semibrevis-2"><line x1="2.5" y1="35.0" x2="50.5" y2="35.0" stroke-width="4.5" stroke-linecap="round"/><line x1="2.5" y1="75.0" x2="50.5" y2="75.0" stroke-width="4.5" stroke-linecap="round"/><line x1="2.5" y1="115.0" x2="50.5" y2="115.0" stroke-width="4.5" stroke-linecap="round"/><line x1="2.5" y1="155.0" x2="50.5" y2="155.0" stroke-width="4.5" stroke-linecap="round"/><line x1="2.5" y1="195.0" x2="50.5" y2="195.0" stroke-width="4.5" stroke-linecap="round"/><path fill-rule="evenodd" fill="black" d="M26.5 201.0 L3.1000004 175.0 L26.5 149.0 L49.9 175.0 zM33.022408 189.66476 L13.301713 167.75288 L19.977592 160.33524 L39.698288 182.24712 z" /></g><g id="sharp-2"><line x1="2.5" y1="35.0" x2="45.5" y2="35.0" stroke-width="4.5" stroke-linecap="round"/><line x1="2.5" y1="75.0" x2="45.5" y2="75.0" stroke-width="4.5" stroke-linecap="round"/><line x1="2.5" y1="115.0" x2="45.5" y2="115.0" stroke-width="4.5" stroke-linecap="round"/><line x1="2.5" y1="155.0" x2="45.5" y2="155.0" stroke-width="4.5" stroke-linecap="round"/><line x1="2.5" y1="195.0" x2="45.5" y2="195.0" stroke-width="4.5" stroke-linecap="round"/><line x1="49.0" y1="195.0" x2="9.0" y2="155.0" stroke-width="2.5" stroke-linecap="round"/><line x1="49.0" y1="155.0" x2="9.0" y2="195.0" stroke-width="2.5" stroke-linecap="round"/><line x1="39.0" y1="195.0" x2="-1.0" y2="155.0" stroke-width="2.5" stroke-linecap="round"/><line x1="39.0" y1="155.0" x2="-1.0" y2="195.0" stroke-width="2.5" stroke-linecap="round"/></g><g id="semibrevis-1"><line x1="2.5" y1="35.0" x2="50.5" y2="35.0" stroke-width="4.5" stroke-linecap="round"/><line x1="2.5" y1="75.0" x2="50.5" y2="75.0" stroke-width="4.5" stroke-linecap="round"/><line x1="2.5" y1="115.0" x2="50.5" y2="115.0" stroke-width="4.5" stroke-linecap="round"/><line x1="2.5" y1="155.0" x2="50.5" y2="155.0" stroke-width="4.5" stroke-linecap="round"/><line x1="2.5" y1="195.0" x2="50.5" y2="195.0" stroke-width="4.5" stroke-linecap="round"/><path fill-rule="evenodd" fill="black" d="M26.5 221.0 L3.1000004 195.0 L26.5 169.0 L49.9 195.0 zM33.022408 209.66476 L13.301713 187.75288 L19.977592 180.33524 L39.698288 202.24712 z" /></g><g id="blank-22"><line x1="2.5" y1="35.0" x2="19.5" y2="35.0" stroke-width="4.5" stroke-linecap="round"/><line x1="2.5" y1="75.0" x2="19.5" y2="75.0" stroke-width="4.5" stroke-linecap="round"/><line x1="2.5" y1="115.0" x2="19.5" y2="115.0" stroke-width="4.5" stroke-linecap="round"/><line x1="2.5" y1="155.0" x2="19.5" y2="155.0" stroke-width="4.5" stroke-linecap="round"/><line x1="2.5" y1="195.0" x2="19.5" y2="195.0" stroke-width="4.5" stroke-linecap="round"/></g><g id="c-clef-7"><line x1="2.5" y1="35.0" x2="63.5" y2="35.0" stroke-width="4.5" stroke-linecap="round"/><line x1="2.5" y1="75.0" x2="63.5" y2="75.0" stroke-width="4.5" stroke-linecap="round"/><line x1="2.5" y1="115.0" x2="63.5" y2="115.0" stroke-width="4.5" stroke-linecap="round"/><line x1="2.5" y1="155.0" x2="63.5" y2="155.0" stroke-width="4.5" stroke-linecap="round"/><line x1="2.5" y1="195.0" x2="63.5" y2="195.0" stroke-width="4.5" stroke-linecap="round"/><path fill-rule="evenodd" color="black" d="M11.049999 -5.0 L11.049999 203.0 L16.55 203.0 L16.55 115.0 L51.45 115.0 L51.45 139.0 L54.95 139.0 L54.95 83.0 L16.55 83.0 L16.55 67.0 L54.95 67.0 L54.95 11.0 L51.45 11.0 L51.45 35.0 L16.55 35.0 L16.55 -5.0 zM16.55 104.5 L51.45 104.5 L51.45 93.5 L16.55 93.5 zM16.55 56.5 L51.45 56.5 L51.45 45.5 L16.55 45.5 z" /></g></defs><text x="1921" y="458" font-size="58" text-anchor="left" alignment-baseline="hanging" font-weight="normal" font-family="Times, serif" font-style="normal" stroke="black" fill="black">mini.incom.</text><text x="1551" y="458" font-size="58" text-anchor="left" alignment-baseline="hanging" font-weight="normal" font-family="Times, serif" font-style="normal" stroke="black" fill="black">mini.comp.</text><text x="1255" y="458" font-size="58" text-anchor="left" alignment-baseline="hanging" font-weight="normal" font-family="Times, serif" font-style="normal" stroke="black" fill="black">mini.incom.</text><text x="944" y="458" font-size="58" text-anchor="left" alignment-baseline="hanging" font-weight="normal" font-family="Times, serif" font-style="normal" stroke="black" fill="black">mini.comp.</text><text x="649" y="458" font-size="58" text-anchor="left" alignment-baseline="hanging" font-weight="normal" font-family="Times, serif" font-style="normal" stroke="black" fill="black">mini.incom.</text><text x="346" y="458" font-size="58" text-anchor="left" alignment-baseline="hanging" font-weight="normal" font-family="Times, serif" font-style="normal" stroke="black" fill="black">mini.comp.</text><text x="60" y="458" font-size="58" text-anchor="left" alignment-baseline="hanging" font-weight="normal" font-family="Times, serif" font-style="normal" stroke="black" fill="black">mini.incom.</text><text x="1913" y="388" font-size="58" text-anchor="left" alignment-baseline="hanging" font-weight="normal" font-family="Times, serif" font-style="normal" stroke="black" fill="black">grado di 3.</text><text x="1551" y="388" font-size="58" text-anchor="left" alignment-baseline="hanging" font-weight="normal" font-family="Times, serif" font-style="normal" stroke="black" fill="black">grado di terza</text><text x="1247" y="388" font-size="58" text-anchor="left" alignment-baseline="hanging" font-weight="normal" font-family="Times, serif" font-style="normal" stroke="black" fill="black">grado di 3.</text><text x="938" y="388" font-size="58" text-anchor="left" alignment-baseline="hanging" font-weight="normal" font-family="Times, serif" font-style="normal" stroke="black" fill="black">grado di 3.</text><text x="651" y="388" font-size="58" text-anchor="left" alignment-baseline="hanging" font-weight="normal" font-family="Times, serif" font-style="normal" stroke="black" fill="black">grado di 3.</text><text x="345" y="388" font-size="58" text-anchor="left" alignment-baseline="hanging" font-weight="normal" font-family="Times, serif" font-style="normal" stroke="black" fill="black">grado di 3.</text><text x="54" y="388" font-size="58" text-anchor="left" alignment-baseline="hanging" font-weight="normal" font-family="Times, serif" font-style="normal" stroke="black" fill="black">grado di 3.</text><use xlink:href="#simple-barline" x="2174.5361" y="100"/><use xlink:href="#semibrevis-1" x="2122.0706" y="100"/><use xlink:href="#blank-38" x="2084.605" y="100"/><use xlink:href="#semibrevis-2" x="2032.1395" y="100"/><use xlink:href="#blank-38" x="1994.674" y="100"/><use xlink:href="#sharp-2" x="1947.2084" y="100"/><use xlink:href="#blank-22" x="1925.7428" y="100"/><use xlink:href="#simple-barline" x="1882.2772" y="100"/><use xlink:href="#semibrevis-2" x="1829.8116" y="100"/><use xlink:href="#blank-22" x="1808.3461" y="100"/><use xlink:href="#flat-2" x="1778.8805" y="100"/><use xlink:href="#blank-22" x="1757.4149" y="100"/><use xlink:href="#semibrevis-3" x="1704.9493" y="100"/><use xlink:href="#blank-22" x="1683.4838" y="100"/><use xlink:href="#semibrevis-3" x="1631.0182" y="100"/><use xlink:href="#blank-22" x="1609.5526" y="100"/><use xlink:href="#sharp-3" x="1562.087" y="100"/><use xlink:href="#simple-barline" x="1518.6215" y="100"/><use xlink:href="#blank-22" x="1497.1559" y="100"/><use xlink:href="#semibrevis-3" x="1444.6903" y="100"/><use xlink:href="#blank-22" x="1423.2247" y="100"/><use xlink:href="#semibrevis-4" x="1370.7592" y="100"/><use xlink:href="#blank-22" x="1349.2936" y="100"/><use xlink:href="#sharp-4" x="1301.828" y="100"/><use xlink:href="#blank-22" x="1280.3624" y="100"/><use xlink:href="#simple-barline" x="1236.8969" y="100"/><use xlink:href="#semibrevis-4" x="1184.4313" y="100"/><use xlink:href="#blank-22" x="1162.9657" y="100"/><use xlink:href="#semibrevis-5" x="1110.5001" y="100"/><use xlink:href="#blank-22" x="1089.0345" y="100"/><use xlink:href="#semibrevis-5" x="1036.569" y="100"/><use xlink:href="#blank-22" x="1015.1034" y="100"/><use xlink:href="#sharp-5" x="967.6379" y="100"/><use xlink:href="#simple-barline" x="924.17236" y="100"/><use xlink:href="#blank-38" x="886.70685" y="100"/><use xlink:href="#semibrevis-5" x="834.24133" y="100"/><use xlink:href="#blank-22" x="812.7758" y="100"/><use xlink:href="#sharp-5" x="765.3103" y="100"/><use xlink:href="#blank-22" x="743.8448" y="100"/><use xlink:href="#semibrevis-4" x="691.3793" y="100"/><use xlink:href="#blank-22" x="669.91376" y="100"/><use xlink:href="#simple-barline" x="626.44824" y="100"/><use xlink:href="#semibrevis-4" x="573.9827" y="100"/><use xlink:href="#blank-22" x="552.5172" y="100"/><use xlink:href="#sharp-4" x="505.0517" y="100"/><use xlink:href="#blank-22" x="483.58618" y="100"/><use xlink:href="#semibrevis-4" x="431.12067" y="100"/><use xlink:href="#blank-22" x="409.65515" y="100"/><use xlink:href="#semibrevis-3" x="357.18964" y="100"/><use xlink:href="#simple-barline" x="313.72412" y="100"/><use xlink:href="#blank-22" x="292.2586" y="100"/><use xlink:href="#semibrevis-2" x="239.79309" y="100"/><use xlink:href="#blank-22" x="218.32758" y="100"/><use xlink:href="#sharp-2" x="170.86206" y="100"/><use xlink:href="#blank-22" x="149.39655" y="100"/><use xlink:href="#semibrevis-1" x="96.93103" y="100"/><use xlink:href="#blank-22" x="75.465515" y="100"/><use xlink:href="#c-clef-7" x="10" y="100"/><text x="10" y="68" font-size="58" text-anchor="left" alignment-baseline="hanging" textLength="2201"  font-weight="normal" font-family="Times, serif" font-style="normal" stroke="black" fill="black">ᴇſſempio del grado ò ſalto della ᴛerza manco di minore, ouero minima compoſto &amp; incompoſto.</text></svg>