<?xml version="1.0" standalone="no"?>
<!DOCTYPE svg PUBLIC "-//W3C//DTD SVG 1.1//EN" "http://www.w3.org/Graphics/SVG/1.1/DTD/svg11.dtd">
<svg stroke="black" width="1113.0" viewBox="0 0 2226.0 390.0" id="b1-c18-m1-a" version="1.1"
    xmlns="http://www.w3.org/2000/svg"
    xmlns:xlink="http://www.w3.org/1999/xlink"><rect width="100%" height="100%" fill="white" stroke-width="0"/><defs><g id="flat-6"><line x1="2.5" y1="35.0" x2="27.5" y2="35.0" stroke-width="4.5" stroke-linecap="round"/><line x1="2.5" y1="75.0" x2="27.5" y2="75.0" stroke-width="4.5" stroke-linecap="round"/><line x1="2.5" y1="115.0" x2="27.5" y2="115.0" stroke-width="4.5" stroke-linecap="round"/><line x1="2.5" y1="155.0" x2="27.5" y2="155.0" stroke-width="4.5" stroke-linecap="round"/><line x1="2.5" y1="195.0" x2="27.5" y2="195.0" stroke-width="4.5" stroke-linecap="round"/><path stroke="black" fill="none" stroke-width="3.25" stroke-linecap="round" d="M2.1999998 107.8 A15.360001 15.360001 0 1 0 2.1999998 82.200005 " /><path fill="black" d="M0.9499998 107.8 L3.4499998 107.8 L3.5749998 19.800003 L-0.5500002 19.800003 z" /></g><g id="semibrevis-6"><line x1="2.5" y1="35.0" x2="50.5" y2="35.0" stroke-width="4.5" stroke-linecap="round"/><line x1="2.5" y1="75.0" x2="50.5" y2="75.0" stroke-width="4.5" stroke-linecap="round"/><line x1="2.5" y1="115.0" x2="50.5" y2="115.0" stroke-width="4.5" stroke-linecap="round"/><line x1="2.5" y1="155.0" x2="50.5" y2="155.0" stroke-width="4.5" stroke-linecap="round"/><line x1="2.5" y1="195.0" x2="50.5" y2="195.0" stroke-width="4.5" stroke-linecap="round"/><path fill-rule="evenodd" fill="black" d="M26.5 121.0 L3.1000004 95.0 L26.5 69.0 L49.9 95.0 zM33.022408 109.664764 L13.301713 87.752884 L19.977592 80.335236 L39.698288 102.247116 z" /></g><g id="semibrevis-dot-6"><line x1="2.5" y1="35.0" x2="50.5" y2="35.0" stroke-width="4.5" stroke-linecap="round"/><line x1="2.5" y1="75.0" x2="50.5" y2="75.0" stroke-width="4.5" stroke-linecap="round"/><line x1="2.5" y1="115.0" x2="50.5" y2="115.0" stroke-width="4.5" stroke-linecap="round"/><line x1="2.5" y1="155.0" x2="50.5" y2="155.0" stroke-width="4.5" stroke-linecap="round"/><line x1="2.5" y1="195.0" x2="50.5" y2="195.0" stroke-width="4.5" stroke-linecap="round"/><path fill-rule="evenodd" fill="black" d="M26.5 121.0 L3.1000004 95.0 L26.5 69.0 L49.9 95.0 zM33.022408 109.664764 L13.301713 87.752884 L19.977592 80.335236 L39.698288 102.247116 z" /><path fill="black" d="M26.5 61.0 L20.5 55.0 L26.5 49.0 L32.5 55.0 z" /></g><g id="semibrevis-7"><line x1="2.5" y1="35.0" x2="50.5" y2="35.0" stroke-width="4.5" stroke-linecap="round"/><line x1="2.5" y1="75.0" x2="50.5" y2="75.0" stroke-width="4.5" stroke-linecap="round"/><line x1="2.5" y1="115.0" x2="50.5" y2="115.0" stroke-width="4.5" stroke-linecap="round"/><line x1="2.5" y1="155.0" x2="50.5" y2="155.0" stroke-width="4.5" stroke-linecap="round"/><line x1="2.5" y1="195.0" x2="50.5" y2="195.0" stroke-width="4.5" stroke-linecap="round"/><path fill-rule="evenodd" fill="black" d="M26.5 101.0 L3.1000004 75.0 L26.5 49.0 L49.9 75.0 zM33.022408 89.664764 L13.301713 67.752884 L19.977592 60.335236 L39.698288 82.247116 z" /></g><g id="semibrevis-8"><line x1="2.5" y1="35.0" x2="50.5" y2="35.0" stroke-width="4.5" stroke-linecap="round"/><line x1="2.5" y1="75.0" x2="50.5" y2="75.0" stroke-width="4.5" stroke-linecap="round"/><line x1="2.5" y1="115.0" x2="50.5" y2="115.0" stroke-width="4.5" stroke-linecap="round"/><line x1="2.5" y1="155.0" x2="50.5" y2="155.0" stroke-width="4.5" stroke-linecap="round"/><line x1="2.5" y1="195.0" x2="50.5" y2="195.0" stroke-width="4.5" stroke-linecap="round"/><path fill-rule="evenodd" fill="black" d="M26.5 81.0 L3.1000004 55.0 L26.5 29.0 L49.9 55.0 zM33.022408 69.664764 L13.301713 47.752884 L19.977592 40.335236 L39.698288 62.247116 z" /></g><g id="flat-8"><line x1="2.5" y1="35.0" x2="27.5" y2="35.0" stroke-width="4.5" stroke-linecap="round"/><line x1="2.5" y1="75.0" x2="27.5" y2="75.0" stroke-width="4.5" stroke-linecap="round"/><line x1="2.5" y1="115.0" x2="27.5" y2="115.0" stroke-width="4.5" stroke-linecap="round"/><line x1="2.5" y1="155.0" x2="27.5" y2="155.0" stroke-width="4.5" stroke-linecap="round"/><line x1="2.5" y1="195.0" x2="27.5" y2="195.0" stroke-width="4.5" stroke-linecap="round"/><path stroke="black" fill="none" stroke-width="3.25" stroke-linecap="round" d="M2.1999998 67.8 A15.360001 15.360001 0 1 0 2.1999998 42.200005 " /><path fill="black" d="M0.9499998 67.8 L3.4499998 67.8 L3.5749998 -20.199997 L-0.5500002 -20.199997 z" /></g><g id="semibrevis-9"><line x1="2.5" y1="35.0" x2="50.5" y2="35.0" stroke-width="4.5" stroke-linecap="round"/><line x1="2.5" y1="75.0" x2="50.5" y2="75.0" stroke-width="4.5" stroke-linecap="round"/><line x1="2.5" y1="115.0" x2="50.5" y2="115.0" stroke-width="4.5" stroke-linecap="round"/><line x1="2.5" y1="155.0" x2="50.5" y2="155.0" stroke-width="4.5" stroke-linecap="round"/><line x1="2.5" y1="195.0" x2="50.5" y2="195.0" stroke-width="4.5" stroke-linecap="round"/><path fill-rule="evenodd" fill="black" d="M26.5 61.0 L3.1000004 35.0 L26.5 9.0 L49.9 35.0 zM33.022408 49.664764 L13.301713 27.752882 L19.977592 20.335236 L39.698288 42.247116 z" /></g><g id="sharp-5"><line x1="2.5" y1="35.0" x2="45.5" y2="35.0" stroke-width="4.5" stroke-linecap="round"/><line x1="2.5" y1="75.0" x2="45.5" y2="75.0" stroke-width="4.5" stroke-linecap="round"/><line x1="2.5" y1="115.0" x2="45.5" y2="115.0" stroke-width="4.5" stroke-linecap="round"/><line x1="2.5" y1="155.0" x2="45.5" y2="155.0" stroke-width="4.5" stroke-linecap="round"/><line x1="2.5" y1="195.0" x2="45.5" y2="195.0" stroke-width="4.5" stroke-linecap="round"/><line x1="41.3" y1="128.8" x2="13.700001" y2="101.2" stroke-width="2.5" stroke-linecap="round"/><line x1="41.3" y1="101.2" x2="13.700001" y2="128.8" stroke-width="2.5" stroke-linecap="round"/><line x1="34.3" y1="128.8" x2="6.700001" y2="101.2" stroke-width="2.5" stroke-linecap="round"/><line x1="34.3" y1="101.2" x2="6.700001" y2="128.8" stroke-width="2.5" stroke-linecap="round"/></g><g id="semibrevis-5"><line x1="2.5" y1="35.0" x2="50.5" y2="35.0" stroke-width="4.5" stroke-linecap="round"/><line x1="2.5" y1="75.0" x2="50.5" y2="75.0" stroke-width="4.5" stroke-linecap="round"/><line x1="2.5" y1="115.0" x2="50.5" y2="115.0" stroke-width="4.5" stroke-linecap="round"/><line x1="2.5" y1="155.0" x2="50.5" y2="155.0" stroke-width="4.5" stroke-linecap="round"/><line x1="2.5" y1="195.0" x2="50.5" y2="195.0" stroke-width="4.5" stroke-linecap="round"/><path fill-rule="evenodd" fill="black" d="M26.5 141.0 L3.1000004 115.0 L26.5 89.0 L49.9 115.0 zM33.022408 129.66476 L13.301713 107.752884 L19.977592 100.335236 L39.698288 122.247116 z" /></g><g id="sharp-4"><line x1="2.5" y1="35.0" x2="45.5" y2="35.0" stroke-width="4.5" stroke-linecap="round"/><line x1="2.5" y1="75.0" x2="45.5" y2="75.0" stroke-width="4.5" stroke-linecap="round"/><line x1="2.5" y1="115.0" x2="45.5" y2="115.0" stroke-width="4.5" stroke-linecap="round"/><line x1="2.5" y1="155.0" x2="45.5" y2="155.0" stroke-width="4.5" stroke-linecap="round"/><line x1="2.5" y1="195.0" x2="45.5" y2="195.0" stroke-width="4.5" stroke-linecap="round"/><line x1="49.0" y1="155.0" x2="9.0" y2="115.0" stroke-width="2.5" stroke-linecap="round"/><line x1="49.0" y1="115.0" x2="9.0" y2="155.0" stroke-width="2.5" stroke-linecap="round"/><line x1="39.0" y1="155.0" x2="-1.0" y2="115.0" stroke-width="2.5" stroke-linecap="round"/><line x1="39.0" y1="115.0" x2="-1.0" y2="155.0" stroke-width="2.5" stroke-linecap="round"/></g><g id="semibrevis-dot-4"><line x1="2.5" y1="35.0" x2="50.5" y2="35.0" stroke-width="4.5" stroke-linecap="round"/><line x1="2.5" y1="75.0" x2="50.5" y2="75.0" stroke-width="4.5" stroke-linecap="round"/><line x1="2.5" y1="115.0" x2="50.5" y2="115.0" stroke-width="4.5" stroke-linecap="round"/><line x1="2.5" y1="155.0" x2="50.5" y2="155.0" stroke-width="4.5" stroke-linecap="round"/><line x1="2.5" y1="195.0" x2="50.5" y2="195.0" stroke-width="4.5" stroke-linecap="round"/><path fill-rule="evenodd" fill="black" d="M26.5 161.0 L3.1000004 135.0 L26.5 109.0 L49.9 135.0 zM33.022408 149.66476 L13.301713 127.752884 L19.977592 120.335236 L39.698288 142.24712 z" /><path fill="black" d="M26.5 101.0 L20.5 95.0 L26.5 89.0 L32.5 95.0 z" /></g><g id="semibrevis-4"><line x1="2.5" y1="35.0" x2="50.5" y2="35.0" stroke-width="4.5" stroke-linecap="round"/><line x1="2.5" y1="75.0" x2="50.5" y2="75.0" stroke-width="4.5" stroke-linecap="round"/><line x1="2.5" y1="115.0" x2="50.5" y2="115.0" stroke-width="4.5" stroke-linecap="round"/><line x1="2.5" y1="155.0" x2="50.5" y2="155.0" stroke-width="4.5" stroke-linecap="round"/><line x1="2.5" y1="195.0" x2="50.5" y2="195.0" stroke-width="4.5" stroke-linecap="round"/><path fill-rule="evenodd" fill="black" d="M26.5 161.0 L3.1000004 135.0 L26.5 109.0 L49.9 135.0 zM33.022408 149.66476 L13.301713 127.752884 L19.977592 120.335236 L39.698288 142.24712 z" /></g><g id="flat-4"><line x1="2.5" y1="35.0" x2="27.5" y2="35.0" stroke-width="4.5" stroke-linecap="round"/><line x1="2.5" y1="75.0" x2="27.5" y2="75.0" stroke-width="4.5" stroke-linecap="round"/><line x1="2.5" y1="115.0" x2="27.5" y2="115.0" stroke-width="4.5" stroke-linecap="round"/><line x1="2.5" y1="155.0" x2="27.5" y2="155.0" stroke-width="4.5" stroke-linecap="round"/><line x1="2.5" y1="195.0" x2="27.5" y2="195.0" stroke-width="4.5" stroke-linecap="round"/><path stroke="black" fill="none" stroke-width="3.25" stroke-linecap="round" d="M2.1999998 147.8 A15.360001 15.360001 0 1 0 2.1999998 122.200005 " /><path fill="black" d="M0.9499998 147.8 L3.4499998 147.8 L3.5749998 19.800003 L-0.5500002 19.800003 z" /></g><g id="semibrevis-dot-2"><line x1="2.5" y1="35.0" x2="50.5" y2="35.0" stroke-width="4.5" stroke-linecap="round"/><line x1="2.5" y1="75.0" x2="50.5" y2="75.0" stroke-width="4.5" stroke-linecap="round"/><line x1="2.5" y1="115.0" x2="50.5" y2="115.0" stroke-width="4.5" stroke-linecap="round"/><line x1="2.5" y1="155.0" x2="50.5" y2="155.0" stroke-width="4.5" stroke-linecap="round"/><line x1="2.5" y1="195.0" x2="50.5" y2="195.0" stroke-width="4.5" stroke-linecap="round"/><path fill-rule="evenodd" fill="black" d="M26.5 201.0 L3.1000004 175.0 L26.5 149.0 L49.9 175.0 zM33.022408 189.66476 L13.301713 167.75288 L19.977592 160.33524 L39.698288 182.24712 z" /><path fill="black" d="M26.5 141.0 L20.5 135.0 L26.5 129.0 L32.5 135.0 z" /></g><g id="semibrevis-2"><line x1="2.5" y1="35.0" x2="50.5" y2="35.0" stroke-width="4.5" stroke-linecap="round"/><line x1="2.5" y1="75.0" x2="50.5" y2="75.0" stroke-width="4.5" stroke-linecap="round"/><line x1="2.5" y1="115.0" x2="50.5" y2="115.0" stroke-width="4.5" stroke-linecap="round"/><line x1="2.5" y1="155.0" x2="50.5" y2="155.0" stroke-width="4.5" stroke-linecap="round"/><line x1="2.5" y1="195.0" x2="50.5" y2="195.0" stroke-width="4.5" stroke-linecap="round"/><path fill-rule="evenodd" fill="black" d="M26.5 201.0 L3.1000004 175.0 L26.5 149.0 L49.9 175.0 zM33.022408 189.66476 L13.301713 167.75288 L19.977592 160.33524 L39.698288 182.24712 z" /></g><g id="flat-2"><line x1="2.5" y1="35.0" x2="27.5" y2="35.0" stroke-width="4.5" stroke-linecap="round"/><line x1="2.5" y1="75.0" x2="27.5" y2="75.0" stroke-width="4.5" stroke-linecap="round"/><line x1="2.5" y1="115.0" x2="27.5" y2="115.0" stroke-width="4.5" stroke-linecap="round"/><line x1="2.5" y1="155.0" x2="27.5" y2="155.0" stroke-width="4.5" stroke-linecap="round"/><line x1="2.5" y1="195.0" x2="27.5" y2="195.0" stroke-width="4.5" stroke-linecap="round"/><path stroke="black" fill="none" stroke-width="3.25" stroke-linecap="round" d="M2.1999998 187.8 A15.360001 15.360001 0 1 0 2.1999998 162.2 " /><path fill="black" d="M0.9499998 187.8 L3.4499998 187.8 L3.5749998 59.800003 L-0.5500002 59.800003 z" /></g><g id="simple-barline"><line x1="2.5" y1="35.0" x2="41.5" y2="35.0" stroke-width="4.5" stroke-linecap="round"/><line x1="2.5" y1="75.0" x2="41.5" y2="75.0" stroke-width="4.5" stroke-linecap="round"/><line x1="2.5" y1="115.0" x2="41.5" y2="115.0" stroke-width="4.5" stroke-linecap="round"/><line x1="2.5" y1="155.0" x2="41.5" y2="155.0" stroke-width="4.5" stroke-linecap="round"/><line x1="2.5" y1="195.0" x2="41.5" y2="195.0" stroke-width="4.5" stroke-linecap="round"/><line x1="22.0" y1="203.0" x2="22.0" y2="27.0" stroke-width="4.75" stroke-linecap="square"/></g><g id="semibrevis-dot-1"><line x1="2.5" y1="35.0" x2="50.5" y2="35.0" stroke-width="4.5" stroke-linecap="round"/><line x1="2.5" y1="75.0" x2="50.5" y2="75.0" stroke-width="4.5" stroke-linecap="round"/><line x1="2.5" y1="115.0" x2="50.5" y2="115.0" stroke-width="4.5" stroke-linecap="round"/><line x1="2.5" y1="155.0" x2="50.5" y2="155.0" stroke-width="4.5" stroke-linecap="round"/><line x1="2.5" y1="195.0" x2="50.5" y2="195.0" stroke-width="4.5" stroke-linecap="round"/><path fill-rule="evenodd" fill="black" d="M26.5 221.0 L3.1000004 195.0 L26.5 169.0 L49.9 195.0 zM33.022408 209.66476 L13.301713 187.75288 L19.977592 180.33524 L39.698288 202.24712 z" /><path fill="black" d="M26.5 141.0 L20.5 135.0 L26.5 129.0 L32.5 135.0 z" /></g><g id="semibrevis-1"><line x1="2.5" y1="35.0" x2="50.5" y2="35.0" stroke-width="4.5" stroke-linecap="round"/><line x1="2.5" y1="75.0" x2="50.5" y2="75.0" stroke-width="4.5" stroke-linecap="round"/><line x1="2.5" y1="115.0" x2="50.5" y2="115.0" stroke-width="4.5" stroke-linecap="round"/><line x1="2.5" y1="155.0" x2="50.5" y2="155.0" stroke-width="4.5" stroke-linecap="round"/><line x1="2.5" y1="195.0" x2="50.5" y2="195.0" stroke-width="4.5" stroke-linecap="round"/><path fill-rule="evenodd" fill="black" d="M26.5 221.0 L3.1000004 195.0 L26.5 169.0 L49.9 195.0 zM33.022408 209.66476 L13.301713 187.75288 L19.977592 180.33524 L39.698288 202.24712 z" /></g><g id="blank-22"><line x1="2.5" y1="35.0" x2="19.5" y2="35.0" stroke-width="4.5" stroke-linecap="round"/><line x1="2.5" y1="75.0" x2="19.5" y2="75.0" stroke-width="4.5" stroke-linecap="round"/><line x1="2.5" y1="115.0" x2="19.5" y2="115.0" stroke-width="4.5" stroke-linecap="round"/><line x1="2.5" y1="155.0" x2="19.5" y2="155.0" stroke-width="4.5" stroke-linecap="round"/><line x1="2.5" y1="195.0" x2="19.5" y2="195.0" stroke-width="4.5" stroke-linecap="round"/></g><g id="flat-1"><line x1="2.5" y1="35.0" x2="27.5" y2="35.0" stroke-width="4.5" stroke-linecap="round"/><line x1="2.5" y1="75.0" x2="27.5" y2="75.0" stroke-width="4.5" stroke-linecap="round"/><line x1="2.5" y1="115.0" x2="27.5" y2="115.0" stroke-width="4.5" stroke-linecap="round"/><line x1="2.5" y1="155.0" x2="27.5" y2="155.0" stroke-width="4.5" stroke-linecap="round"/><line x1="2.5" y1="195.0" x2="27.5" y2="195.0" stroke-width="4.5" stroke-linecap="round"/><path stroke="black" fill="none" stroke-width="3.25" stroke-linecap="round" d="M2.1999998 207.8 A15.360001 15.360001 0 1 0 2.1999998 182.2 " /><path fill="black" d="M0.9499998 207.8 L3.4499998 207.8 L3.5749998 79.8 L-0.5500002 79.8 z" /></g><g id="c-clef-7"><line x1="2.5" y1="35.0" x2="63.5" y2="35.0" stroke-width="4.5" stroke-linecap="round"/><line x1="2.5" y1="75.0" x2="63.5" y2="75.0" stroke-width="4.5" stroke-linecap="round"/><line x1="2.5" y1="115.0" x2="63.5" y2="115.0" stroke-width="4.5" stroke-linecap="round"/><line x1="2.5" y1="155.0" x2="63.5" y2="155.0" stroke-width="4.5" stroke-linecap="round"/><line x1="2.5" y1="195.0" x2="63.5" y2="195.0" stroke-width="4.5" stroke-linecap="round"/><path fill-rule="evenodd" color="black" d="M11.049999 -5.0 L11.049999 203.0 L16.55 203.0 L16.55 115.0 L51.45 115.0 L51.45 139.0 L54.95 139.0 L54.95 83.0 L16.55 83.0 L16.55 67.0 L54.95 67.0 L54.95 11.0 L51.45 11.0 L51.45 35.0 L16.55 35.0 L16.55 -5.0 zM16.55 104.5 L51.45 104.5 L51.45 93.5 L16.55 93.5 zM16.55 56.5 L51.45 56.5 L51.45 45.5 L16.55 45.5 z" /></g></defs><text x="2055" y="368" font-size="58" text-anchor="left" alignment-baseline="baseline" font-weight="normal" font-family="Times, serif" font-style="normal" stroke="black" fill="black">ᴇn.inc.</text><text x="1839" y="368" font-size="58" text-anchor="left" alignment-baseline="baseline" font-weight="normal" font-family="Times, serif" font-style="normal" stroke="black" fill="black">ꝑ ſe.mi.ī</text><text x="1630" y="368" font-size="58" text-anchor="left" alignment-baseline="baseline" font-weight="normal" font-family="Times, serif" font-style="normal" stroke="black" fill="black">incomp.</text><text x="2056" y="298" font-size="58" text-anchor="left" alignment-baseline="baseline" font-weight="normal" font-family="Times, serif" font-style="normal" stroke="black" fill="black">ſe.min.</text><text x="1844" y="298" font-size="58" text-anchor="left" alignment-baseline="baseline" font-weight="normal" font-family="Times, serif" font-style="normal" stroke="black" fill="black">di.mag.</text><text x="1617" y="298" font-size="58" text-anchor="left" alignment-baseline="baseline" font-weight="normal" font-family="Times, serif" font-style="normal" stroke="black" fill="black">ſem.min.</text><text x="1385" y="298" font-size="58" text-anchor="left" alignment-baseline="baseline" font-weight="normal" font-family="Times, serif" font-style="normal" stroke="black" fill="black">ſe.mi.inc.</text><text x="1128" y="298" font-size="58" text-anchor="left" alignment-baseline="baseline" font-weight="normal" font-family="Times, serif" font-style="normal" stroke="black" fill="black">ſe.mi.incō.</text><text x="787" y="298" font-size="58" text-anchor="left" alignment-baseline="baseline" font-weight="normal" font-family="Times, serif" font-style="normal" stroke="black" fill="black">ſem.mi.comp.</text><text x="424" y="298" font-size="58" text-anchor="left" alignment-baseline="baseline" font-weight="normal" font-family="Times, serif" font-style="normal" stroke="black" fill="black">ſe.mi.comp.</text><text x="46" y="298" font-size="58" text-anchor="left" alignment-baseline="baseline" font-weight="normal" font-family="Times, serif" font-style="normal" stroke="black" fill="black">ſemit.mi.comp.</text><use xlink:href="#simple-barline" x="2171.5251" y="10"/><use xlink:href="#semibrevis-6" x="2118.0515" y="10"/><use xlink:href="#flat-6" x="2087.578" y="10"/><use xlink:href="#semibrevis-6" x="2034.1041" y="10"/><use xlink:href="#simple-barline" x="1989.6305" y="10"/><use xlink:href="#semibrevis-dot-6" x="1936.1569" y="10"/><use xlink:href="#blank-22" x="1913.6832" y="10"/><use xlink:href="#semibrevis-7" x="1860.2096" y="10"/><use xlink:href="#simple-barline" x="1815.736" y="10"/><use xlink:href="#semibrevis-8" x="1762.2623" y="10"/><use xlink:href="#blank-22" x="1739.7887" y="10"/><use xlink:href="#flat-8" x="1709.3151" y="10"/><use xlink:href="#blank-22" x="1686.8414" y="10"/><use xlink:href="#semibrevis-9" x="1633.3678" y="10"/><use xlink:href="#simple-barline" x="1588.8942" y="10"/><use xlink:href="#semibrevis-5" x="1535.4205" y="10"/><use xlink:href="#blank-22" x="1512.9469" y="10"/><use xlink:href="#sharp-5" x="1464.4733" y="10"/><use xlink:href="#blank-22" x="1441.9996" y="10"/><use xlink:href="#semibrevis-5" x="1388.526" y="10"/><use xlink:href="#simple-barline" x="1344.0524" y="10"/><use xlink:href="#semibrevis-4" x="1290.5787" y="10"/><use xlink:href="#blank-22" x="1268.1051" y="10"/><use xlink:href="#sharp-4" x="1219.6315" y="10"/><use xlink:href="#blank-22" x="1197.1578" y="10"/><use xlink:href="#semibrevis-4" x="1143.6842" y="10"/><use xlink:href="#simple-barline" x="1099.2106" y="10"/><use xlink:href="#semibrevis-4" x="1045.7369" y="10"/><use xlink:href="#blank-22" x="1023.2633" y="10"/><use xlink:href="#semibrevis-dot-4" x="969.7896" y="10"/><use xlink:href="#blank-22" x="947.3159" y="10"/><use xlink:href="#flat-4" x="916.8422" y="10"/><use xlink:href="#blank-22" x="894.3685" y="10"/><use xlink:href="#semibrevis-4" x="840.89484" y="10"/><use xlink:href="#blank-22" x="818.42114" y="10"/><use xlink:href="#flat-4" x="787.94745" y="10"/><use xlink:href="#simple-barline" x="743.47375" y="10"/><use xlink:href="#semibrevis-2" x="690.00006" y="10"/><use xlink:href="#blank-22" x="667.52637" y="10"/><use xlink:href="#semibrevis-dot-2" x="614.0527" y="10"/><use xlink:href="#blank-22" x="591.579" y="10"/><use xlink:href="#flat-2" x="561.1053" y="10"/><use xlink:href="#blank-22" x="538.6316" y="10"/><use xlink:href="#semibrevis-2" x="485.15793" y="10"/><use xlink:href="#blank-22" x="462.68423" y="10"/><use xlink:href="#flat-2" x="432.21054" y="10"/><use xlink:href="#simple-barline" x="387.73685" y="10"/><use xlink:href="#semibrevis-1" x="334.26315" y="10"/><use xlink:href="#blank-22" x="311.78946" y="10"/><use xlink:href="#semibrevis-dot-1" x="258.31577" y="10"/><use xlink:href="#blank-22" x="235.84209" y="10"/><use xlink:href="#flat-1" x="205.36841" y="10"/><use xlink:href="#blank-22" x="182.89473" y="10"/><use xlink:href="#semibrevis-1" x="129.42105" y="10"/><use xlink:href="#blank-22" x="106.94737" y="10"/><use xlink:href="#flat-1" x="76.47369" y="10"/><use xlink:href="#c-clef-7" x="10" y="10"/></svg>