<?xml version="1.0" standalone="no"?>
<!DOCTYPE svg PUBLIC "-//W3C//DTD SVG 1.1//EN" "http://www.w3.org/Graphics/SVG/1.1/DTD/svg11.dtd">
<svg stroke="black" width="1116.5" viewBox="0 0 2233.0 470.0" id="b1-c29-m1-a" version="1.1"
    xmlns="http://www.w3.org/2000/svg"
    xmlns:xlink="http://www.w3.org/1999/xlink"><rect width="100%" height="100%" fill="#e3f3ff" stroke-width="0"/><defs><g id="semibrevis-8"><line x1="2.5" y1="35.0" x2="50.5" y2="35.0" stroke-width="4.5" stroke-linecap="round"/><line x1="2.5" y1="75.0" x2="50.5" y2="75.0" stroke-width="4.5" stroke-linecap="round"/><line x1="2.5" y1="115.0" x2="50.5" y2="115.0" stroke-width="4.5" stroke-linecap="round"/><line x1="2.5" y1="155.0" x2="50.5" y2="155.0" stroke-width="4.5" stroke-linecap="round"/><line x1="2.5" y1="195.0" x2="50.5" y2="195.0" stroke-width="4.5" stroke-linecap="round"/><path fill-rule="evenodd" fill="black" d="M26.5 81.0 L3.1000004 55.0 L26.5 29.0 L49.9 55.0 zM33.022408 69.664764 L13.301713 47.752884 L19.977592 40.335236 L39.698288 62.247116 z" /></g><g id="blank-22"><line x1="2.5" y1="35.0" x2="19.5" y2="35.0" stroke-width="4.5" stroke-linecap="round"/><line x1="2.5" y1="75.0" x2="19.5" y2="75.0" stroke-width="4.5" stroke-linecap="round"/><line x1="2.5" y1="115.0" x2="19.5" y2="115.0" stroke-width="4.5" stroke-linecap="round"/><line x1="2.5" y1="155.0" x2="19.5" y2="155.0" stroke-width="4.5" stroke-linecap="round"/><line x1="2.5" y1="195.0" x2="19.5" y2="195.0" stroke-width="4.5" stroke-linecap="round"/></g><g id="semibrevis-1"><line x1="2.5" y1="35.0" x2="50.5" y2="35.0" stroke-width="4.5" stroke-linecap="round"/><line x1="2.5" y1="75.0" x2="50.5" y2="75.0" stroke-width="4.5" stroke-linecap="round"/><line x1="2.5" y1="115.0" x2="50.5" y2="115.0" stroke-width="4.5" stroke-linecap="round"/><line x1="2.5" y1="155.0" x2="50.5" y2="155.0" stroke-width="4.5" stroke-linecap="round"/><line x1="2.5" y1="195.0" x2="50.5" y2="195.0" stroke-width="4.5" stroke-linecap="round"/><path fill-rule="evenodd" fill="black" d="M26.5 221.0 L3.1000004 195.0 L26.5 169.0 L49.9 195.0 zM33.022408 209.66476 L13.301713 187.75288 L19.977592 180.33524 L39.698288 202.24712 z" /></g><g id="blank-27"><line x1="2.5" y1="35.0" x2="24.5" y2="35.0" stroke-width="4.5" stroke-linecap="round"/><line x1="2.5" y1="75.0" x2="24.5" y2="75.0" stroke-width="4.5" stroke-linecap="round"/><line x1="2.5" y1="115.0" x2="24.5" y2="115.0" stroke-width="4.5" stroke-linecap="round"/><line x1="2.5" y1="155.0" x2="24.5" y2="155.0" stroke-width="4.5" stroke-linecap="round"/><line x1="2.5" y1="195.0" x2="24.5" y2="195.0" stroke-width="4.5" stroke-linecap="round"/></g><g id="semibrevis-4"><line x1="2.5" y1="35.0" x2="50.5" y2="35.0" stroke-width="4.5" stroke-linecap="round"/><line x1="2.5" y1="75.0" x2="50.5" y2="75.0" stroke-width="4.5" stroke-linecap="round"/><line x1="2.5" y1="115.0" x2="50.5" y2="115.0" stroke-width="4.5" stroke-linecap="round"/><line x1="2.5" y1="155.0" x2="50.5" y2="155.0" stroke-width="4.5" stroke-linecap="round"/><line x1="2.5" y1="195.0" x2="50.5" y2="195.0" stroke-width="4.5" stroke-linecap="round"/><path fill-rule="evenodd" fill="black" d="M26.5 161.0 L3.1000004 135.0 L26.5 109.0 L49.9 135.0 zM33.022408 149.66476 L13.301713 127.752884 L19.977592 120.335236 L39.698288 142.24712 z" /></g><g id="semibrevis-6"><line x1="2.5" y1="35.0" x2="50.5" y2="35.0" stroke-width="4.5" stroke-linecap="round"/><line x1="2.5" y1="75.0" x2="50.5" y2="75.0" stroke-width="4.5" stroke-linecap="round"/><line x1="2.5" y1="115.0" x2="50.5" y2="115.0" stroke-width="4.5" stroke-linecap="round"/><line x1="2.5" y1="155.0" x2="50.5" y2="155.0" stroke-width="4.5" stroke-linecap="round"/><line x1="2.5" y1="195.0" x2="50.5" y2="195.0" stroke-width="4.5" stroke-linecap="round"/><path fill-rule="evenodd" fill="black" d="M26.5 121.0 L3.1000004 95.0 L26.5 69.0 L49.9 95.0 zM33.022408 109.664764 L13.301713 87.752884 L19.977592 80.335236 L39.698288 102.247116 z" /></g><g id="semibrevis-7"><line x1="2.5" y1="35.0" x2="50.5" y2="35.0" stroke-width="4.5" stroke-linecap="round"/><line x1="2.5" y1="75.0" x2="50.5" y2="75.0" stroke-width="4.5" stroke-linecap="round"/><line x1="2.5" y1="115.0" x2="50.5" y2="115.0" stroke-width="4.5" stroke-linecap="round"/><line x1="2.5" y1="155.0" x2="50.5" y2="155.0" stroke-width="4.5" stroke-linecap="round"/><line x1="2.5" y1="195.0" x2="50.5" y2="195.0" stroke-width="4.5" stroke-linecap="round"/><path fill-rule="evenodd" fill="black" d="M26.5 101.0 L3.1000004 75.0 L26.5 49.0 L49.9 75.0 zM33.022408 89.664764 L13.301713 67.752884 L19.977592 60.335236 L39.698288 82.247116 z" /></g><g id="semibrevis-9"><line x1="2.5" y1="35.0" x2="50.5" y2="35.0" stroke-width="4.5" stroke-linecap="round"/><line x1="2.5" y1="75.0" x2="50.5" y2="75.0" stroke-width="4.5" stroke-linecap="round"/><line x1="2.5" y1="115.0" x2="50.5" y2="115.0" stroke-width="4.5" stroke-linecap="round"/><line x1="2.5" y1="155.0" x2="50.5" y2="155.0" stroke-width="4.5" stroke-linecap="round"/><line x1="2.5" y1="195.0" x2="50.5" y2="195.0" stroke-width="4.5" stroke-linecap="round"/><path fill-rule="evenodd" fill="black" d="M26.5 61.0 L3.1000004 35.0 L26.5 9.0 L49.9 35.0 zM33.022408 49.664764 L13.301713 27.752882 L19.977592 20.335236 L39.698288 42.247116 z" /></g><g id="semibrevis-5"><line x1="2.5" y1="35.0" x2="50.5" y2="35.0" stroke-width="4.5" stroke-linecap="round"/><line x1="2.5" y1="75.0" x2="50.5" y2="75.0" stroke-width="4.5" stroke-linecap="round"/><line x1="2.5" y1="115.0" x2="50.5" y2="115.0" stroke-width="4.5" stroke-linecap="round"/><line x1="2.5" y1="155.0" x2="50.5" y2="155.0" stroke-width="4.5" stroke-linecap="round"/><line x1="2.5" y1="195.0" x2="50.5" y2="195.0" stroke-width="4.5" stroke-linecap="round"/><path fill-rule="evenodd" fill="black" d="M26.5 141.0 L3.1000004 115.0 L26.5 89.0 L49.9 115.0 zM33.022408 129.66476 L13.301713 107.752884 L19.977592 100.335236 L39.698288 122.247116 z" /></g><g id="semibrevis-3"><line x1="2.5" y1="35.0" x2="50.5" y2="35.0" stroke-width="4.5" stroke-linecap="round"/><line x1="2.5" y1="75.0" x2="50.5" y2="75.0" stroke-width="4.5" stroke-linecap="round"/><line x1="2.5" y1="115.0" x2="50.5" y2="115.0" stroke-width="4.5" stroke-linecap="round"/><line x1="2.5" y1="155.0" x2="50.5" y2="155.0" stroke-width="4.5" stroke-linecap="round"/><line x1="2.5" y1="195.0" x2="50.5" y2="195.0" stroke-width="4.5" stroke-linecap="round"/><path fill-rule="evenodd" fill="black" d="M26.5 181.0 L3.1000004 155.0 L26.5 129.0 L49.9 155.0 zM33.022408 169.66476 L13.301713 147.75288 L19.977592 140.33524 L39.698288 162.24712 z" /></g><g id="simple-barline"><line x1="2.5" y1="35.0" x2="41.5" y2="35.0" stroke-width="4.5" stroke-linecap="round"/><line x1="2.5" y1="75.0" x2="41.5" y2="75.0" stroke-width="4.5" stroke-linecap="round"/><line x1="2.5" y1="115.0" x2="41.5" y2="115.0" stroke-width="4.5" stroke-linecap="round"/><line x1="2.5" y1="155.0" x2="41.5" y2="155.0" stroke-width="4.5" stroke-linecap="round"/><line x1="2.5" y1="195.0" x2="41.5" y2="195.0" stroke-width="4.5" stroke-linecap="round"/><line x1="22.0" y1="203.0" x2="22.0" y2="27.0" stroke-width="4.75" stroke-linecap="square"/></g><g id="semibrevis-2"><line x1="2.5" y1="35.0" x2="50.5" y2="35.0" stroke-width="4.5" stroke-linecap="round"/><line x1="2.5" y1="75.0" x2="50.5" y2="75.0" stroke-width="4.5" stroke-linecap="round"/><line x1="2.5" y1="115.0" x2="50.5" y2="115.0" stroke-width="4.5" stroke-linecap="round"/><line x1="2.5" y1="155.0" x2="50.5" y2="155.0" stroke-width="4.5" stroke-linecap="round"/><line x1="2.5" y1="195.0" x2="50.5" y2="195.0" stroke-width="4.5" stroke-linecap="round"/><path fill-rule="evenodd" fill="black" d="M26.5 201.0 L3.1000004 175.0 L26.5 149.0 L49.9 175.0 zM33.022408 189.66476 L13.301713 167.75288 L19.977592 160.33524 L39.698288 182.24712 z" /></g><g id="semibrevis-0"><line x1="2.5" y1="35.0" x2="50.5" y2="35.0" stroke-width="4.5" stroke-linecap="round"/><line x1="2.5" y1="75.0" x2="50.5" y2="75.0" stroke-width="4.5" stroke-linecap="round"/><line x1="2.5" y1="115.0" x2="50.5" y2="115.0" stroke-width="4.5" stroke-linecap="round"/><line x1="2.5" y1="155.0" x2="50.5" y2="155.0" stroke-width="4.5" stroke-linecap="round"/><line x1="2.5" y1="195.0" x2="50.5" y2="195.0" stroke-width="4.5" stroke-linecap="round"/><path fill-rule="evenodd" fill="black" d="M26.5 241.0 L3.1000004 215.0 L26.5 189.0 L49.9 215.0 zM33.022408 229.66476 L13.301713 207.75288 L19.977592 200.33524 L39.698288 222.24712 z" /></g><g id="blank-38"><line x1="2.5" y1="35.0" x2="35.5" y2="35.0" stroke-width="4.5" stroke-linecap="round"/><line x1="2.5" y1="75.0" x2="35.5" y2="75.0" stroke-width="4.5" stroke-linecap="round"/><line x1="2.5" y1="115.0" x2="35.5" y2="115.0" stroke-width="4.5" stroke-linecap="round"/><line x1="2.5" y1="155.0" x2="35.5" y2="155.0" stroke-width="4.5" stroke-linecap="round"/><line x1="2.5" y1="195.0" x2="35.5" y2="195.0" stroke-width="4.5" stroke-linecap="round"/></g><g id="c-clef-7"><line x1="2.5" y1="35.0" x2="63.5" y2="35.0" stroke-width="4.5" stroke-linecap="round"/><line x1="2.5" y1="75.0" x2="63.5" y2="75.0" stroke-width="4.5" stroke-linecap="round"/><line x1="2.5" y1="115.0" x2="63.5" y2="115.0" stroke-width="4.5" stroke-linecap="round"/><line x1="2.5" y1="155.0" x2="63.5" y2="155.0" stroke-width="4.5" stroke-linecap="round"/><line x1="2.5" y1="195.0" x2="63.5" y2="195.0" stroke-width="4.5" stroke-linecap="round"/><path fill-rule="evenodd" color="black" d="M11.049999 -5.0 L11.049999 203.0 L16.55 203.0 L16.55 115.0 L51.45 115.0 L51.45 139.0 L54.95 139.0 L54.95 83.0 L16.55 83.0 L16.55 67.0 L54.95 67.0 L54.95 11.0 L51.45 11.0 L51.45 35.0 L16.55 35.0 L16.55 -5.0 zM16.55 104.5 L51.45 104.5 L51.45 93.5 L16.55 93.5 zM16.55 56.5 L51.45 56.5 L51.45 45.5 L16.55 45.5 z" /></g></defs><text x="1944" y="448" font-size="58" text-anchor="left" alignment-baseline="baseline" font-weight="normal" font-family="Times, serif" font-style="normal" stroke="black" fill="black">comp.nat.</text><text x="1662" y="448" font-size="58" text-anchor="left" alignment-baseline="baseline" font-weight="normal" font-family="Times, serif" font-style="normal" stroke="black" fill="black">comp. nat.</text><text x="1371" y="448" font-size="58" text-anchor="left" alignment-baseline="baseline" font-weight="normal" font-family="Times, serif" font-style="normal" stroke="black" fill="black">comp.nat.</text><text x="1078" y="448" font-size="58" text-anchor="left" alignment-baseline="baseline" font-weight="normal" font-family="Times, serif" font-style="normal" stroke="black" fill="black">comp.nat.</text><text x="823" y="448" font-size="58" text-anchor="left" alignment-baseline="baseline" font-weight="normal" font-family="Times, serif" font-style="normal" stroke="black" fill="black">mag.nat.</text><text x="566" y="448" font-size="58" text-anchor="left" alignment-baseline="baseline" font-weight="normal" font-family="Times, serif" font-style="normal" stroke="black" fill="black">mag.nat.</text><text x="310" y="448" font-size="58" text-anchor="left" alignment-baseline="baseline" font-weight="normal" font-family="Times, serif" font-style="normal" stroke="black" fill="black">mag.nat.</text><text x="10" y="448" font-size="58" text-anchor="left" alignment-baseline="baseline" font-weight="normal" font-family="Times, serif" font-style="normal" stroke="black" fill="black">mag. nat.</text><text x="1947" y="368" font-size="58" text-anchor="left" alignment-baseline="baseline" font-weight="normal" font-family="Times, serif" font-style="normal" stroke="black" fill="black">terza mag.</text><text x="1658" y="368" font-size="58" text-anchor="left" alignment-baseline="baseline" font-weight="normal" font-family="Times, serif" font-style="normal" stroke="black" fill="black">terza mag.</text><text x="1377" y="368" font-size="58" text-anchor="left" alignment-baseline="baseline" font-weight="normal" font-family="Times, serif" font-style="normal" stroke="black" fill="black">terza mag.</text><text x="1088" y="368" font-size="58" text-anchor="left" alignment-baseline="baseline" font-weight="normal" font-family="Times, serif" font-style="normal" stroke="black" fill="black">terza mag.</text><text x="827" y="368" font-size="58" text-anchor="left" alignment-baseline="baseline" font-weight="normal" font-family="Times, serif" font-style="normal" stroke="black" fill="black">grad.di 3.</text><text x="565" y="368" font-size="58" text-anchor="left" alignment-baseline="baseline" font-weight="normal" font-family="Times, serif" font-style="normal" stroke="black" fill="black">grad. di. 3.</text><text x="320" y="368" font-size="58" text-anchor="left" alignment-baseline="baseline" font-weight="normal" font-family="Times, serif" font-style="normal" stroke="black" fill="black">gra.di 3.</text><text x="10" y="368" font-size="58" text-anchor="left" alignment-baseline="baseline" font-weight="normal" font-family="Times, serif" font-style="normal" stroke="black" fill="black">grado di 3.</text><use xlink:href="#simple-barline" x="2180.2913" y="80"/><use xlink:href="#blank-22" x="2159.5823" y="80"/><use xlink:href="#semibrevis-4" x="2107.8733" y="80"/><use xlink:href="#blank-22" x="2087.1643" y="80"/><use xlink:href="#semibrevis-5" x="2035.4552" y="80"/><use xlink:href="#blank-22" x="2014.7461" y="80"/><use xlink:href="#semibrevis-6" x="1963.037" y="80"/><use xlink:href="#simple-barline" x="1920.3279" y="80"/><use xlink:href="#blank-22" x="1899.6188" y="80"/><use xlink:href="#semibrevis-7" x="1847.9097" y="80"/><use xlink:href="#blank-22" x="1827.2006" y="80"/><use xlink:href="#semibrevis-8" x="1775.4915" y="80"/><use xlink:href="#blank-22" x="1754.7823" y="80"/><use xlink:href="#semibrevis-9" x="1703.0732" y="80"/><use xlink:href="#blank-22" x="1682.3641" y="80"/><use xlink:href="#simple-barline" x="1639.655" y="80"/><use xlink:href="#semibrevis-5" x="1587.9459" y="80"/><use xlink:href="#blank-22" x="1567.2368" y="80"/><use xlink:href="#semibrevis-4" x="1515.5277" y="80"/><use xlink:href="#blank-22" x="1494.8186" y="80"/><use xlink:href="#semibrevis-3" x="1443.1095" y="80"/><use xlink:href="#blank-27" x="1417.4004" y="80"/><use xlink:href="#simple-barline" x="1374.6913" y="80"/><use xlink:href="#blank-22" x="1353.9822" y="80"/><use xlink:href="#semibrevis-2" x="1302.2731" y="80"/><use xlink:href="#blank-38" x="1265.564" y="80"/><use xlink:href="#semibrevis-1" x="1213.8549" y="80"/><use xlink:href="#blank-38" x="1177.1458" y="80"/><use xlink:href="#semibrevis-0" x="1125.4366" y="80"/><use xlink:href="#blank-27" x="1099.7275" y="80"/><use xlink:href="#simple-barline" x="1057.0184" y="80"/><use xlink:href="#blank-38" x="1020.3093" y="80"/><use xlink:href="#semibrevis-4" x="968.6002" y="80"/><use xlink:href="#blank-38" x="931.8911" y="80"/><use xlink:href="#semibrevis-6" x="880.182" y="80"/><use xlink:href="#blank-38" x="843.4729" y="80"/><use xlink:href="#simple-barline" x="800.7638" y="80"/><use xlink:href="#blank-38" x="764.0547" y="80"/><use xlink:href="#semibrevis-7" x="712.3456" y="80"/><use xlink:href="#blank-38" x="675.6365" y="80"/><use xlink:href="#semibrevis-9" x="623.92737" y="80"/><use xlink:href="#blank-38" x="587.21826" y="80"/><use xlink:href="#simple-barline" x="544.50916" y="80"/><use xlink:href="#blank-38" x="507.80005" y="80"/><use xlink:href="#semibrevis-5" x="456.09094" y="80"/><use xlink:href="#blank-38" x="419.38184" y="80"/><use xlink:href="#semibrevis-3" x="367.67273" y="80"/><use xlink:href="#blank-38" x="330.96362" y="80"/><use xlink:href="#simple-barline" x="288.25455" y="80"/><use xlink:href="#blank-38" x="251.54546" y="80"/><use xlink:href="#semibrevis-2" x="199.83636" y="80"/><use xlink:href="#blank-38" x="163.12727" y="80"/><use xlink:href="#semibrevis-0" x="111.41818" y="80"/><use xlink:href="#blank-38" x="74.70909" y="80"/><use xlink:href="#c-clef-7" x="10" y="80"/><text x="240" y="68" font-size="58" text-anchor="left" alignment-baseline="baseline" textLength="1732"  font-weight="normal" font-family="Times, serif" font-style="normal" stroke="black" fill="black">ᴇſſempio del grado di ᴛerza maggiore naturale, incompoﬆo &amp; compoſto.</text></svg>