<?xml version="1.0" standalone="no"?>
<!DOCTYPE svg PUBLIC "-//W3C//DTD SVG 1.1//EN" "http://www.w3.org/Graphics/SVG/1.1/DTD/svg11.dtd">
<svg stroke="black" width="1108.0" viewBox="0 0 2216.0 1150.0" id="b1-c5-m5-a" version="1.1"
    xmlns="http://www.w3.org/2000/svg"
    xmlns:xlink="http://www.w3.org/1999/xlink"><rect width="100%" height="100%" fill="white" stroke-width="0"/><defs><g id="semibrevis-9"><line x1="2.5" y1="35.0" x2="50.5" y2="35.0" stroke-width="4.5" stroke-linecap="round"/><line x1="2.5" y1="75.0" x2="50.5" y2="75.0" stroke-width="4.5" stroke-linecap="round"/><line x1="2.5" y1="115.0" x2="50.5" y2="115.0" stroke-width="4.5" stroke-linecap="round"/><line x1="2.5" y1="155.0" x2="50.5" y2="155.0" stroke-width="4.5" stroke-linecap="round"/><line x1="2.5" y1="195.0" x2="50.5" y2="195.0" stroke-width="4.5" stroke-linecap="round"/><path fill-rule="evenodd" fill="black" d="M26.5 61.0 L3.1000004 35.0 L26.5 9.0 L49.9 35.0 zM33.022408 49.664764 L13.301713 27.752882 L19.977592 20.335236 L39.698288 42.247116 z" /></g><g id="semibrevis-dot-9"><line x1="2.5" y1="35.0" x2="50.5" y2="35.0" stroke-width="4.5" stroke-linecap="round"/><line x1="2.5" y1="75.0" x2="50.5" y2="75.0" stroke-width="4.5" stroke-linecap="round"/><line x1="2.5" y1="115.0" x2="50.5" y2="115.0" stroke-width="4.5" stroke-linecap="round"/><line x1="2.5" y1="155.0" x2="50.5" y2="155.0" stroke-width="4.5" stroke-linecap="round"/><line x1="2.5" y1="195.0" x2="50.5" y2="195.0" stroke-width="4.5" stroke-linecap="round"/><path fill-rule="evenodd" fill="black" d="M26.5 61.0 L3.1000004 35.0 L26.5 9.0 L49.9 35.0 zM33.022408 49.664764 L13.301713 27.752882 L19.977592 20.335236 L39.698288 42.247116 z" /><path fill="black" d="M26.5 1.0 L20.5 -5.0 L26.5 -11.0 L32.5 -5.0 z" /></g><g id="flat-9"><line x1="2.5" y1="35.0" x2="27.5" y2="35.0" stroke-width="4.5" stroke-linecap="round"/><line x1="2.5" y1="75.0" x2="27.5" y2="75.0" stroke-width="4.5" stroke-linecap="round"/><line x1="2.5" y1="115.0" x2="27.5" y2="115.0" stroke-width="4.5" stroke-linecap="round"/><line x1="2.5" y1="155.0" x2="27.5" y2="155.0" stroke-width="4.5" stroke-linecap="round"/><line x1="2.5" y1="195.0" x2="27.5" y2="195.0" stroke-width="4.5" stroke-linecap="round"/><path stroke="black" fill="none" stroke-width="3.25" stroke-linecap="round" d="M2.1999998 47.8 A15.360001 15.360001 0 1 0 2.1999998 22.199999 " /><path fill="black" d="M0.9499998 47.8 L3.4499998 47.8 L3.5749998 -24.2 L-0.5500002 -24.2 z" /></g><g id="sharp-8"><line x1="2.5" y1="35.0" x2="45.5" y2="35.0" stroke-width="4.5" stroke-linecap="round"/><line x1="2.5" y1="75.0" x2="45.5" y2="75.0" stroke-width="4.5" stroke-linecap="round"/><line x1="2.5" y1="115.0" x2="45.5" y2="115.0" stroke-width="4.5" stroke-linecap="round"/><line x1="2.5" y1="155.0" x2="45.5" y2="155.0" stroke-width="4.5" stroke-linecap="round"/><line x1="2.5" y1="195.0" x2="45.5" y2="195.0" stroke-width="4.5" stroke-linecap="round"/><line x1="49.0" y1="75.0" x2="9.0" y2="35.0" stroke-width="2.5" stroke-linecap="round"/><line x1="49.0" y1="35.0" x2="9.0" y2="75.0" stroke-width="2.5" stroke-linecap="round"/><line x1="39.0" y1="75.0" x2="-1.0" y2="35.0" stroke-width="2.5" stroke-linecap="round"/><line x1="39.0" y1="35.0" x2="-1.0" y2="75.0" stroke-width="2.5" stroke-linecap="round"/></g><g id="blank-38"><line x1="2.5" y1="35.0" x2="35.5" y2="35.0" stroke-width="4.5" stroke-linecap="round"/><line x1="2.5" y1="75.0" x2="35.5" y2="75.0" stroke-width="4.5" stroke-linecap="round"/><line x1="2.5" y1="115.0" x2="35.5" y2="115.0" stroke-width="4.5" stroke-linecap="round"/><line x1="2.5" y1="155.0" x2="35.5" y2="155.0" stroke-width="4.5" stroke-linecap="round"/><line x1="2.5" y1="195.0" x2="35.5" y2="195.0" stroke-width="4.5" stroke-linecap="round"/></g><g id="semibrevis-8"><line x1="2.5" y1="35.0" x2="50.5" y2="35.0" stroke-width="4.5" stroke-linecap="round"/><line x1="2.5" y1="75.0" x2="50.5" y2="75.0" stroke-width="4.5" stroke-linecap="round"/><line x1="2.5" y1="115.0" x2="50.5" y2="115.0" stroke-width="4.5" stroke-linecap="round"/><line x1="2.5" y1="155.0" x2="50.5" y2="155.0" stroke-width="4.5" stroke-linecap="round"/><line x1="2.5" y1="195.0" x2="50.5" y2="195.0" stroke-width="4.5" stroke-linecap="round"/><path fill-rule="evenodd" fill="black" d="M26.5 81.0 L3.1000004 55.0 L26.5 29.0 L49.9 55.0 zM33.022408 69.664764 L13.301713 47.752884 L19.977592 40.335236 L39.698288 62.247116 z" /></g><g id="semibrevis-dot-8"><line x1="2.5" y1="35.0" x2="50.5" y2="35.0" stroke-width="4.5" stroke-linecap="round"/><line x1="2.5" y1="75.0" x2="50.5" y2="75.0" stroke-width="4.5" stroke-linecap="round"/><line x1="2.5" y1="115.0" x2="50.5" y2="115.0" stroke-width="4.5" stroke-linecap="round"/><line x1="2.5" y1="155.0" x2="50.5" y2="155.0" stroke-width="4.5" stroke-linecap="round"/><line x1="2.5" y1="195.0" x2="50.5" y2="195.0" stroke-width="4.5" stroke-linecap="round"/><path fill-rule="evenodd" fill="black" d="M26.5 81.0 L3.1000004 55.0 L26.5 29.0 L49.9 55.0 zM33.022408 69.664764 L13.301713 47.752884 L19.977592 40.335236 L39.698288 62.247116 z" /><path fill="black" d="M26.5 21.0 L20.5 15.0 L26.5 9.0 L32.5 15.0 z" /></g><g id="flat-8"><line x1="2.5" y1="35.0" x2="27.5" y2="35.0" stroke-width="4.5" stroke-linecap="round"/><line x1="2.5" y1="75.0" x2="27.5" y2="75.0" stroke-width="4.5" stroke-linecap="round"/><line x1="2.5" y1="115.0" x2="27.5" y2="115.0" stroke-width="4.5" stroke-linecap="round"/><line x1="2.5" y1="155.0" x2="27.5" y2="155.0" stroke-width="4.5" stroke-linecap="round"/><line x1="2.5" y1="195.0" x2="27.5" y2="195.0" stroke-width="4.5" stroke-linecap="round"/><path stroke="black" fill="none" stroke-width="3.25" stroke-linecap="round" d="M2.1999998 67.8 A15.360001 15.360001 0 1 0 2.1999998 42.200005 " /><path fill="black" d="M0.9499998 67.8 L3.4499998 67.8 L3.5749998 -20.199997 L-0.5500002 -20.199997 z" /></g><g id="sharp-7"><line x1="2.5" y1="35.0" x2="45.5" y2="35.0" stroke-width="4.5" stroke-linecap="round"/><line x1="2.5" y1="75.0" x2="45.5" y2="75.0" stroke-width="4.5" stroke-linecap="round"/><line x1="2.5" y1="115.0" x2="45.5" y2="115.0" stroke-width="4.5" stroke-linecap="round"/><line x1="2.5" y1="155.0" x2="45.5" y2="155.0" stroke-width="4.5" stroke-linecap="round"/><line x1="2.5" y1="195.0" x2="45.5" y2="195.0" stroke-width="4.5" stroke-linecap="round"/><line x1="41.3" y1="88.8" x2="13.700001" y2="61.2" stroke-width="2.5" stroke-linecap="round"/><line x1="41.3" y1="61.2" x2="13.700001" y2="88.8" stroke-width="2.5" stroke-linecap="round"/><line x1="34.3" y1="88.8" x2="6.700001" y2="61.2" stroke-width="2.5" stroke-linecap="round"/><line x1="34.3" y1="61.2" x2="6.700001" y2="88.8" stroke-width="2.5" stroke-linecap="round"/></g><g id="semibrevis-dot-7"><line x1="2.5" y1="35.0" x2="50.5" y2="35.0" stroke-width="4.5" stroke-linecap="round"/><line x1="2.5" y1="75.0" x2="50.5" y2="75.0" stroke-width="4.5" stroke-linecap="round"/><line x1="2.5" y1="115.0" x2="50.5" y2="115.0" stroke-width="4.5" stroke-linecap="round"/><line x1="2.5" y1="155.0" x2="50.5" y2="155.0" stroke-width="4.5" stroke-linecap="round"/><line x1="2.5" y1="195.0" x2="50.5" y2="195.0" stroke-width="4.5" stroke-linecap="round"/><path fill-rule="evenodd" fill="black" d="M26.5 101.0 L3.1000004 75.0 L26.5 49.0 L49.9 75.0 zM33.022408 89.664764 L13.301713 67.752884 L19.977592 60.335236 L39.698288 82.247116 z" /><path fill="black" d="M26.5 21.0 L20.5 15.0 L26.5 9.0 L32.5 15.0 z" /></g><g id="semibrevis-7"><line x1="2.5" y1="35.0" x2="50.5" y2="35.0" stroke-width="4.5" stroke-linecap="round"/><line x1="2.5" y1="75.0" x2="50.5" y2="75.0" stroke-width="4.5" stroke-linecap="round"/><line x1="2.5" y1="115.0" x2="50.5" y2="115.0" stroke-width="4.5" stroke-linecap="round"/><line x1="2.5" y1="155.0" x2="50.5" y2="155.0" stroke-width="4.5" stroke-linecap="round"/><line x1="2.5" y1="195.0" x2="50.5" y2="195.0" stroke-width="4.5" stroke-linecap="round"/><path fill-rule="evenodd" fill="black" d="M26.5 101.0 L3.1000004 75.0 L26.5 49.0 L49.9 75.0 zM33.022408 89.664764 L13.301713 67.752884 L19.977592 60.335236 L39.698288 82.247116 z" /></g><g id="semibrevis-6"><line x1="2.5" y1="35.0" x2="50.5" y2="35.0" stroke-width="4.5" stroke-linecap="round"/><line x1="2.5" y1="75.0" x2="50.5" y2="75.0" stroke-width="4.5" stroke-linecap="round"/><line x1="2.5" y1="115.0" x2="50.5" y2="115.0" stroke-width="4.5" stroke-linecap="round"/><line x1="2.5" y1="155.0" x2="50.5" y2="155.0" stroke-width="4.5" stroke-linecap="round"/><line x1="2.5" y1="195.0" x2="50.5" y2="195.0" stroke-width="4.5" stroke-linecap="round"/><path fill-rule="evenodd" fill="black" d="M26.5 121.0 L3.1000004 95.0 L26.5 69.0 L49.9 95.0 zM33.022408 109.664764 L13.301713 87.752884 L19.977592 80.335236 L39.698288 102.247116 z" /></g><g id="semibrevis-dot-6"><line x1="2.5" y1="35.0" x2="50.5" y2="35.0" stroke-width="4.5" stroke-linecap="round"/><line x1="2.5" y1="75.0" x2="50.5" y2="75.0" stroke-width="4.5" stroke-linecap="round"/><line x1="2.5" y1="115.0" x2="50.5" y2="115.0" stroke-width="4.5" stroke-linecap="round"/><line x1="2.5" y1="155.0" x2="50.5" y2="155.0" stroke-width="4.5" stroke-linecap="round"/><line x1="2.5" y1="195.0" x2="50.5" y2="195.0" stroke-width="4.5" stroke-linecap="round"/><path fill-rule="evenodd" fill="black" d="M26.5 121.0 L3.1000004 95.0 L26.5 69.0 L49.9 95.0 zM33.022408 109.664764 L13.301713 87.752884 L19.977592 80.335236 L39.698288 102.247116 z" /><path fill="black" d="M26.5 61.0 L20.5 55.0 L26.5 49.0 L32.5 55.0 z" /></g><g id="flat-6"><line x1="2.5" y1="35.0" x2="27.5" y2="35.0" stroke-width="4.5" stroke-linecap="round"/><line x1="2.5" y1="75.0" x2="27.5" y2="75.0" stroke-width="4.5" stroke-linecap="round"/><line x1="2.5" y1="115.0" x2="27.5" y2="115.0" stroke-width="4.5" stroke-linecap="round"/><line x1="2.5" y1="155.0" x2="27.5" y2="155.0" stroke-width="4.5" stroke-linecap="round"/><line x1="2.5" y1="195.0" x2="27.5" y2="195.0" stroke-width="4.5" stroke-linecap="round"/><path stroke="black" fill="none" stroke-width="3.25" stroke-linecap="round" d="M2.1999998 107.8 A15.360001 15.360001 0 1 0 2.1999998 82.200005 " /><path fill="black" d="M0.9499998 107.8 L3.4499998 107.8 L3.5749998 19.800003 L-0.5500002 19.800003 z" /></g><g id="sharp-5"><line x1="2.5" y1="35.0" x2="45.5" y2="35.0" stroke-width="4.5" stroke-linecap="round"/><line x1="2.5" y1="75.0" x2="45.5" y2="75.0" stroke-width="4.5" stroke-linecap="round"/><line x1="2.5" y1="115.0" x2="45.5" y2="115.0" stroke-width="4.5" stroke-linecap="round"/><line x1="2.5" y1="155.0" x2="45.5" y2="155.0" stroke-width="4.5" stroke-linecap="round"/><line x1="2.5" y1="195.0" x2="45.5" y2="195.0" stroke-width="4.5" stroke-linecap="round"/><line x1="41.3" y1="128.8" x2="13.700001" y2="101.2" stroke-width="2.5" stroke-linecap="round"/><line x1="41.3" y1="101.2" x2="13.700001" y2="128.8" stroke-width="2.5" stroke-linecap="round"/><line x1="34.3" y1="128.8" x2="6.700001" y2="101.2" stroke-width="2.5" stroke-linecap="round"/><line x1="34.3" y1="101.2" x2="6.700001" y2="128.8" stroke-width="2.5" stroke-linecap="round"/></g><g id="semibrevis-5"><line x1="2.5" y1="35.0" x2="50.5" y2="35.0" stroke-width="4.5" stroke-linecap="round"/><line x1="2.5" y1="75.0" x2="50.5" y2="75.0" stroke-width="4.5" stroke-linecap="round"/><line x1="2.5" y1="115.0" x2="50.5" y2="115.0" stroke-width="4.5" stroke-linecap="round"/><line x1="2.5" y1="155.0" x2="50.5" y2="155.0" stroke-width="4.5" stroke-linecap="round"/><line x1="2.5" y1="195.0" x2="50.5" y2="195.0" stroke-width="4.5" stroke-linecap="round"/><path fill-rule="evenodd" fill="black" d="M26.5 141.0 L3.1000004 115.0 L26.5 89.0 L49.9 115.0 zM33.022408 129.66476 L13.301713 107.752884 L19.977592 100.335236 L39.698288 122.247116 z" /></g><g id="semibrevis-dot-5"><line x1="2.5" y1="35.0" x2="50.5" y2="35.0" stroke-width="4.5" stroke-linecap="round"/><line x1="2.5" y1="75.0" x2="50.5" y2="75.0" stroke-width="4.5" stroke-linecap="round"/><line x1="2.5" y1="115.0" x2="50.5" y2="115.0" stroke-width="4.5" stroke-linecap="round"/><line x1="2.5" y1="155.0" x2="50.5" y2="155.0" stroke-width="4.5" stroke-linecap="round"/><line x1="2.5" y1="195.0" x2="50.5" y2="195.0" stroke-width="4.5" stroke-linecap="round"/><path fill-rule="evenodd" fill="black" d="M26.5 141.0 L3.1000004 115.0 L26.5 89.0 L49.9 115.0 zM33.022408 129.66476 L13.301713 107.752884 L19.977592 100.335236 L39.698288 122.247116 z" /><path fill="black" d="M26.5 61.0 L20.5 55.0 L26.5 49.0 L32.5 55.0 z" /></g><g id="flat-5"><line x1="2.5" y1="35.0" x2="27.5" y2="35.0" stroke-width="4.5" stroke-linecap="round"/><line x1="2.5" y1="75.0" x2="27.5" y2="75.0" stroke-width="4.5" stroke-linecap="round"/><line x1="2.5" y1="115.0" x2="27.5" y2="115.0" stroke-width="4.5" stroke-linecap="round"/><line x1="2.5" y1="155.0" x2="27.5" y2="155.0" stroke-width="4.5" stroke-linecap="round"/><line x1="2.5" y1="195.0" x2="27.5" y2="195.0" stroke-width="4.5" stroke-linecap="round"/><path stroke="black" fill="none" stroke-width="3.25" stroke-linecap="round" d="M2.1999998 127.8 A15.360001 15.360001 0 1 0 2.1999998 102.200005 " /><path fill="black" d="M0.9499998 127.8 L3.4499998 127.8 L3.5749998 -0.19999695 L-0.5500002 -0.19999695 z" /></g><g id="sharp-4"><line x1="2.5" y1="35.0" x2="45.5" y2="35.0" stroke-width="4.5" stroke-linecap="round"/><line x1="2.5" y1="75.0" x2="45.5" y2="75.0" stroke-width="4.5" stroke-linecap="round"/><line x1="2.5" y1="115.0" x2="45.5" y2="115.0" stroke-width="4.5" stroke-linecap="round"/><line x1="2.5" y1="155.0" x2="45.5" y2="155.0" stroke-width="4.5" stroke-linecap="round"/><line x1="2.5" y1="195.0" x2="45.5" y2="195.0" stroke-width="4.5" stroke-linecap="round"/><line x1="49.0" y1="155.0" x2="9.0" y2="115.0" stroke-width="2.5" stroke-linecap="round"/><line x1="49.0" y1="115.0" x2="9.0" y2="155.0" stroke-width="2.5" stroke-linecap="round"/><line x1="39.0" y1="155.0" x2="-1.0" y2="115.0" stroke-width="2.5" stroke-linecap="round"/><line x1="39.0" y1="115.0" x2="-1.0" y2="155.0" stroke-width="2.5" stroke-linecap="round"/></g><g id="bequadro-3"><line x1="2.5" y1="35.0" x2="44.5" y2="35.0" stroke-width="4.5" stroke-linecap="round"/><line x1="2.5" y1="75.0" x2="44.5" y2="75.0" stroke-width="4.5" stroke-linecap="round"/><line x1="2.5" y1="115.0" x2="44.5" y2="115.0" stroke-width="4.5" stroke-linecap="round"/><line x1="2.5" y1="155.0" x2="44.5" y2="155.0" stroke-width="4.5" stroke-linecap="round"/><line x1="2.5" y1="195.0" x2="44.5" y2="195.0" stroke-width="4.5" stroke-linecap="round"/><line x1="13.5" y1="166.25" x2="13.5" y2="82.25" stroke-width="3.25" stroke-linecap="round"/><line x1="13.5" y1="166.25" x2="33.5" y2="166.25" stroke-width="3.25" stroke-linecap="round"/><line x1="13.5" y1="143.75" x2="33.5" y2="143.75" stroke-width="3.25" stroke-linecap="round"/><line x1="33.5" y1="143.75" x2="33.5" y2="227.75" stroke-width="3.25" stroke-linecap="round"/></g><g id="semibrevis-4"><line x1="2.5" y1="35.0" x2="50.5" y2="35.0" stroke-width="4.5" stroke-linecap="round"/><line x1="2.5" y1="75.0" x2="50.5" y2="75.0" stroke-width="4.5" stroke-linecap="round"/><line x1="2.5" y1="115.0" x2="50.5" y2="115.0" stroke-width="4.5" stroke-linecap="round"/><line x1="2.5" y1="155.0" x2="50.5" y2="155.0" stroke-width="4.5" stroke-linecap="round"/><line x1="2.5" y1="195.0" x2="50.5" y2="195.0" stroke-width="4.5" stroke-linecap="round"/><path fill-rule="evenodd" fill="black" d="M26.5 161.0 L3.1000004 135.0 L26.5 109.0 L49.9 135.0 zM33.022408 149.66476 L13.301713 127.752884 L19.977592 120.335236 L39.698288 142.24712 z" /></g><g id="semibrevis-dot-4"><line x1="2.5" y1="35.0" x2="50.5" y2="35.0" stroke-width="4.5" stroke-linecap="round"/><line x1="2.5" y1="75.0" x2="50.5" y2="75.0" stroke-width="4.5" stroke-linecap="round"/><line x1="2.5" y1="115.0" x2="50.5" y2="115.0" stroke-width="4.5" stroke-linecap="round"/><line x1="2.5" y1="155.0" x2="50.5" y2="155.0" stroke-width="4.5" stroke-linecap="round"/><line x1="2.5" y1="195.0" x2="50.5" y2="195.0" stroke-width="4.5" stroke-linecap="round"/><path fill-rule="evenodd" fill="black" d="M26.5 161.0 L3.1000004 135.0 L26.5 109.0 L49.9 135.0 zM33.022408 149.66476 L13.301713 127.752884 L19.977592 120.335236 L39.698288 142.24712 z" /><path fill="black" d="M26.5 101.0 L20.5 95.0 L26.5 89.0 L32.5 95.0 z" /></g><g id="flat-4"><line x1="2.5" y1="35.0" x2="27.5" y2="35.0" stroke-width="4.5" stroke-linecap="round"/><line x1="2.5" y1="75.0" x2="27.5" y2="75.0" stroke-width="4.5" stroke-linecap="round"/><line x1="2.5" y1="115.0" x2="27.5" y2="115.0" stroke-width="4.5" stroke-linecap="round"/><line x1="2.5" y1="155.0" x2="27.5" y2="155.0" stroke-width="4.5" stroke-linecap="round"/><line x1="2.5" y1="195.0" x2="27.5" y2="195.0" stroke-width="4.5" stroke-linecap="round"/><path stroke="black" fill="none" stroke-width="3.25" stroke-linecap="round" d="M2.1999998 147.8 A15.360001 15.360001 0 1 0 2.1999998 122.200005 " /><path fill="black" d="M0.9499998 147.8 L3.4499998 147.8 L3.5749998 19.800003 L-0.5500002 19.800003 z" /></g><g id="sharp-3"><line x1="2.5" y1="35.0" x2="45.5" y2="35.0" stroke-width="4.5" stroke-linecap="round"/><line x1="2.5" y1="75.0" x2="45.5" y2="75.0" stroke-width="4.5" stroke-linecap="round"/><line x1="2.5" y1="115.0" x2="45.5" y2="115.0" stroke-width="4.5" stroke-linecap="round"/><line x1="2.5" y1="155.0" x2="45.5" y2="155.0" stroke-width="4.5" stroke-linecap="round"/><line x1="2.5" y1="195.0" x2="45.5" y2="195.0" stroke-width="4.5" stroke-linecap="round"/><line x1="41.3" y1="168.8" x2="13.700001" y2="141.2" stroke-width="2.5" stroke-linecap="round"/><line x1="41.3" y1="141.2" x2="13.700001" y2="168.8" stroke-width="2.5" stroke-linecap="round"/><line x1="34.3" y1="168.8" x2="6.700001" y2="141.2" stroke-width="2.5" stroke-linecap="round"/><line x1="34.3" y1="141.2" x2="6.700001" y2="168.8" stroke-width="2.5" stroke-linecap="round"/></g><g id="simple-barline"><line x1="2.5" y1="35.0" x2="41.5" y2="35.0" stroke-width="4.5" stroke-linecap="round"/><line x1="2.5" y1="75.0" x2="41.5" y2="75.0" stroke-width="4.5" stroke-linecap="round"/><line x1="2.5" y1="115.0" x2="41.5" y2="115.0" stroke-width="4.5" stroke-linecap="round"/><line x1="2.5" y1="155.0" x2="41.5" y2="155.0" stroke-width="4.5" stroke-linecap="round"/><line x1="2.5" y1="195.0" x2="41.5" y2="195.0" stroke-width="4.5" stroke-linecap="round"/><line x1="22.0" y1="203.0" x2="22.0" y2="27.0" stroke-width="4.75" stroke-linecap="square"/></g><g id="semibrevis-3"><line x1="2.5" y1="35.0" x2="50.5" y2="35.0" stroke-width="4.5" stroke-linecap="round"/><line x1="2.5" y1="75.0" x2="50.5" y2="75.0" stroke-width="4.5" stroke-linecap="round"/><line x1="2.5" y1="115.0" x2="50.5" y2="115.0" stroke-width="4.5" stroke-linecap="round"/><line x1="2.5" y1="155.0" x2="50.5" y2="155.0" stroke-width="4.5" stroke-linecap="round"/><line x1="2.5" y1="195.0" x2="50.5" y2="195.0" stroke-width="4.5" stroke-linecap="round"/><path fill-rule="evenodd" fill="black" d="M26.5 181.0 L3.1000004 155.0 L26.5 129.0 L49.9 155.0 zM33.022408 169.66476 L13.301713 147.75288 L19.977592 140.33524 L39.698288 162.24712 z" /></g><g id="semibrevis-dot-3"><line x1="2.5" y1="35.0" x2="50.5" y2="35.0" stroke-width="4.5" stroke-linecap="round"/><line x1="2.5" y1="75.0" x2="50.5" y2="75.0" stroke-width="4.5" stroke-linecap="round"/><line x1="2.5" y1="115.0" x2="50.5" y2="115.0" stroke-width="4.5" stroke-linecap="round"/><line x1="2.5" y1="155.0" x2="50.5" y2="155.0" stroke-width="4.5" stroke-linecap="round"/><line x1="2.5" y1="195.0" x2="50.5" y2="195.0" stroke-width="4.5" stroke-linecap="round"/><path fill-rule="evenodd" fill="black" d="M26.5 181.0 L3.1000004 155.0 L26.5 129.0 L49.9 155.0 zM33.022408 169.66476 L13.301713 147.75288 L19.977592 140.33524 L39.698288 162.24712 z" /><path fill="black" d="M26.5 101.0 L20.5 95.0 L26.5 89.0 L32.5 95.0 z" /></g><g id="flat-3"><line x1="2.5" y1="35.0" x2="27.5" y2="35.0" stroke-width="4.5" stroke-linecap="round"/><line x1="2.5" y1="75.0" x2="27.5" y2="75.0" stroke-width="4.5" stroke-linecap="round"/><line x1="2.5" y1="115.0" x2="27.5" y2="115.0" stroke-width="4.5" stroke-linecap="round"/><line x1="2.5" y1="155.0" x2="27.5" y2="155.0" stroke-width="4.5" stroke-linecap="round"/><line x1="2.5" y1="195.0" x2="27.5" y2="195.0" stroke-width="4.5" stroke-linecap="round"/><path stroke="black" fill="none" stroke-width="3.25" stroke-linecap="round" d="M2.1999998 167.8 A15.360001 15.360001 0 1 0 2.1999998 142.2 " /><path fill="black" d="M0.9499998 167.8 L3.4499998 167.8 L3.5749998 39.800003 L-0.5500002 39.800003 z" /></g><g id="sharp-2"><line x1="2.5" y1="35.0" x2="45.5" y2="35.0" stroke-width="4.5" stroke-linecap="round"/><line x1="2.5" y1="75.0" x2="45.5" y2="75.0" stroke-width="4.5" stroke-linecap="round"/><line x1="2.5" y1="115.0" x2="45.5" y2="115.0" stroke-width="4.5" stroke-linecap="round"/><line x1="2.5" y1="155.0" x2="45.5" y2="155.0" stroke-width="4.5" stroke-linecap="round"/><line x1="2.5" y1="195.0" x2="45.5" y2="195.0" stroke-width="4.5" stroke-linecap="round"/><line x1="49.0" y1="195.0" x2="9.0" y2="155.0" stroke-width="2.5" stroke-linecap="round"/><line x1="49.0" y1="155.0" x2="9.0" y2="195.0" stroke-width="2.5" stroke-linecap="round"/><line x1="39.0" y1="195.0" x2="-1.0" y2="155.0" stroke-width="2.5" stroke-linecap="round"/><line x1="39.0" y1="155.0" x2="-1.0" y2="195.0" stroke-width="2.5" stroke-linecap="round"/></g><g id="semibrevis-dot-2"><line x1="2.5" y1="35.0" x2="50.5" y2="35.0" stroke-width="4.5" stroke-linecap="round"/><line x1="2.5" y1="75.0" x2="50.5" y2="75.0" stroke-width="4.5" stroke-linecap="round"/><line x1="2.5" y1="115.0" x2="50.5" y2="115.0" stroke-width="4.5" stroke-linecap="round"/><line x1="2.5" y1="155.0" x2="50.5" y2="155.0" stroke-width="4.5" stroke-linecap="round"/><line x1="2.5" y1="195.0" x2="50.5" y2="195.0" stroke-width="4.5" stroke-linecap="round"/><path fill-rule="evenodd" fill="black" d="M26.5 201.0 L3.1000004 175.0 L26.5 149.0 L49.9 175.0 zM33.022408 189.66476 L13.301713 167.75288 L19.977592 160.33524 L39.698288 182.24712 z" /><path fill="black" d="M26.5 141.0 L20.5 135.0 L26.5 129.0 L32.5 135.0 z" /></g><g id="blank-22"><line x1="2.5" y1="35.0" x2="19.5" y2="35.0" stroke-width="4.5" stroke-linecap="round"/><line x1="2.5" y1="75.0" x2="19.5" y2="75.0" stroke-width="4.5" stroke-linecap="round"/><line x1="2.5" y1="115.0" x2="19.5" y2="115.0" stroke-width="4.5" stroke-linecap="round"/><line x1="2.5" y1="155.0" x2="19.5" y2="155.0" stroke-width="4.5" stroke-linecap="round"/><line x1="2.5" y1="195.0" x2="19.5" y2="195.0" stroke-width="4.5" stroke-linecap="round"/></g><g id="semibrevis-2"><line x1="2.5" y1="35.0" x2="50.5" y2="35.0" stroke-width="4.5" stroke-linecap="round"/><line x1="2.5" y1="75.0" x2="50.5" y2="75.0" stroke-width="4.5" stroke-linecap="round"/><line x1="2.5" y1="115.0" x2="50.5" y2="115.0" stroke-width="4.5" stroke-linecap="round"/><line x1="2.5" y1="155.0" x2="50.5" y2="155.0" stroke-width="4.5" stroke-linecap="round"/><line x1="2.5" y1="195.0" x2="50.5" y2="195.0" stroke-width="4.5" stroke-linecap="round"/><path fill-rule="evenodd" fill="black" d="M26.5 201.0 L3.1000004 175.0 L26.5 149.0 L49.9 175.0 zM33.022408 189.66476 L13.301713 167.75288 L19.977592 160.33524 L39.698288 182.24712 z" /></g><g id="f-clef-part-7"><line x1="2.5" y1="35.0" x2="42.5" y2="35.0" stroke-width="4.5" stroke-linecap="round"/><line x1="2.5" y1="75.0" x2="42.5" y2="75.0" stroke-width="4.5" stroke-linecap="round"/><line x1="2.5" y1="115.0" x2="42.5" y2="115.0" stroke-width="4.5" stroke-linecap="round"/><line x1="2.5" y1="155.0" x2="42.5" y2="155.0" stroke-width="4.5" stroke-linecap="round"/><line x1="2.5" y1="195.0" x2="42.5" y2="195.0" stroke-width="4.5" stroke-linecap="round"/><path fill="black" d="M21.125 107.0 L23.875 107.0 L24.2875 191.0 L20.7125 191.0 z" /><path fill-rule="evenodd" fill="black" d="M22.5 121.0 L-0.8999996 95.0 L22.5 69.0 L45.9 95.0 zM29.022408 109.664764 L9.301713 87.752884 L15.977592 80.335236 L35.698288 102.247116 z" /><path fill-rule="evenodd" fill="black" d="M22.5 81.0 L-0.8999996 55.0 L22.5 29.0 L45.9 55.0 zM29.022408 69.664764 L9.301713 47.752884 L15.977592 40.335236 L35.698288 62.247116 z" /></g><g id="maxima-7"><line x1="2.5" y1="35.0" x2="65.5" y2="35.0" stroke-width="4.5" stroke-linecap="round"/><line x1="2.5" y1="75.0" x2="65.5" y2="75.0" stroke-width="4.5" stroke-linecap="round"/><line x1="2.5" y1="115.0" x2="65.5" y2="115.0" stroke-width="4.5" stroke-linecap="round"/><line x1="2.5" y1="155.0" x2="65.5" y2="155.0" stroke-width="4.5" stroke-linecap="round"/><line x1="2.5" y1="195.0" x2="65.5" y2="195.0" stroke-width="4.5" stroke-linecap="round"/><path fill-rule="evenodd" fill="black" d="M14.4 103.0 L14.4 47.0 L17.15 47.0 L17.15 95.0 L50.85 95.0 L50.85 47.0 L53.6 47.0 L53.6 103.0 L50.85 103.0 L50.85 55.0 L17.15 55.0 L17.15 103.0 zM17.15 67.5 L17.15 82.5 L50.85 82.5 L50.85 67.5 z" /><path fill="black" d="M50.85 103.0 L53.6 103.0 L54.012497 187.0 L50.4375 187.0 z" /></g></defs><text x="1562" y="1128" font-size="58" text-anchor="left" alignment-baseline="baseline" textLength="536"  font-weight="normal" font-family="Times, serif" font-style="normal" stroke="black" fill="black">per ♮.ut.re.mi.fa.re.</text><text x="1539" y="1048" font-size="58" text-anchor="left" alignment-baseline="baseline" textLength="557"  font-weight="normal" font-family="Times, serif" font-style="normal" stroke="black" fill="black">per ♭.re.mi.fa.re.mi.</text><text x="992" y="1048" font-size="58" text-anchor="left" alignment-baseline="baseline" textLength="527"  font-weight="normal" font-family="Times, serif" font-style="normal" stroke="black" fill="black">per ♭.fa.re.mi.fa.re.</text><text x="674" y="1048" font-size="58" text-anchor="left" alignment-baseline="baseline" textLength="243"  font-weight="normal" font-family="Times, serif" font-style="normal" stroke="black" fill="black">la diſcende</text><text x="178" y="1048" font-size="58" text-anchor="left" alignment-baseline="baseline" textLength="464"  font-weight="normal" font-family="Times, serif" font-style="normal" stroke="black" fill="black">la.&amp; ſol diſcendono</text><text x="1543" y="968" font-size="58" text-anchor="left" alignment-baseline="baseline" textLength="570"  font-weight="normal" font-family="Times, serif" font-style="normal" stroke="black" fill="black">per nat. ſol re. mi. fa re.</text><text x="983" y="968" font-size="58" text-anchor="left" alignment-baseline="baseline" textLength="527"  font-weight="normal" font-family="Times, serif" font-style="normal" stroke="black" fill="black">per n. fa. re. mi. fa ſol.</text><text x="664" y="968" font-size="58" text-anchor="left" alignment-baseline="baseline" textLength="310"  font-weight="normal" font-family="Times, serif" font-style="normal" stroke="black" fill="black">ꝑ n.mi.mi.fa.</text><text x="10" y="968" font-size="58" text-anchor="left" alignment-baseline="baseline" textLength="588"  font-weight="normal" font-family="Times, serif" font-style="normal" stroke="black" fill="black">per n. re. mi. fa. re. mi.</text><use xlink:href="#blank-22" x="2176.88" y="680"/><use xlink:href="#simple-barline" x="2131.7593" y="680"/><use xlink:href="#blank-22" x="2108.6387" y="680"/><use xlink:href="#semibrevis-9" x="2054.518" y="680"/><use xlink:href="#blank-22" x="2031.3973" y="680"/><use xlink:href="#semibrevis-dot-9" x="1977.2766" y="680"/><use xlink:href="#blank-22" x="1954.1559" y="680"/><use xlink:href="#flat-9" x="1923.0352" y="680"/><use xlink:href="#blank-22" x="1899.9144" y="680"/><use xlink:href="#semibrevis-8" x="1845.7937" y="680"/><use xlink:href="#sharp-8" x="1796.673" y="680"/><use xlink:href="#blank-38" x="1757.5522" y="680"/><use xlink:href="#semibrevis-dot-8" x="1703.4315" y="680"/><use xlink:href="#blank-38" x="1664.3108" y="680"/><use xlink:href="#semibrevis-8" x="1610.1901" y="680"/><use xlink:href="#blank-22" x="1587.0693" y="680"/><use xlink:href="#simple-barline" x="1541.9486" y="680"/><use xlink:href="#blank-22" x="1518.8279" y="680"/><use xlink:href="#semibrevis-8" x="1464.7072" y="680"/><use xlink:href="#blank-22" x="1441.5864" y="680"/><use xlink:href="#semibrevis-dot-8" x="1387.4657" y="680"/><use xlink:href="#blank-22" x="1364.345" y="680"/><use xlink:href="#flat-8" x="1333.2242" y="680"/><use xlink:href="#blank-22" x="1310.1035" y="680"/><use xlink:href="#semibrevis-7" x="1255.9828" y="680"/><use xlink:href="#blank-22" x="1232.862" y="680"/><use xlink:href="#sharp-7" x="1183.7413" y="680"/><use xlink:href="#blank-22" x="1160.6206" y="680"/><use xlink:href="#semibrevis-dot-7" x="1106.4999" y="680"/><use xlink:href="#blank-22" x="1083.3792" y="680"/><use xlink:href="#semibrevis-7" x="1029.2584" y="680"/><use xlink:href="#blank-22" x="1006.1377" y="680"/><use xlink:href="#simple-barline" x="961.017" y="680"/><use xlink:href="#blank-22" x="937.89636" y="680"/><use xlink:href="#semibrevis-7" x="883.7757" y="680"/><use xlink:href="#blank-22" x="860.655" y="680"/><use xlink:href="#semibrevis-dot-6" x="806.53436" y="680"/><use xlink:href="#blank-22" x="783.4137" y="680"/><use xlink:href="#semibrevis-6" x="729.293" y="680"/><use xlink:href="#blank-22" x="706.17236" y="680"/><use xlink:href="#simple-barline" x="661.0517" y="680"/><use xlink:href="#blank-22" x="637.931" y="680"/><use xlink:href="#semibrevis-dot-6" x="583.81036" y="680"/><use xlink:href="#blank-22" x="560.6897" y="680"/><use xlink:href="#semibrevis-dot-6" x="506.56903" y="680"/><use xlink:href="#blank-22" x="483.44833" y="680"/><use xlink:href="#flat-6" x="452.32764" y="680"/><use xlink:href="#blank-22" x="429.20694" y="680"/><use xlink:href="#semibrevis-5" x="375.08624" y="680"/><use xlink:href="#blank-22" x="351.96555" y="680"/><use xlink:href="#sharp-5" x="302.84485" y="680"/><use xlink:href="#blank-22" x="279.72415" y="680"/><use xlink:href="#semibrevis-dot-5" x="225.60345" y="680"/><use xlink:href="#blank-22" x="202.48276" y="680"/><use xlink:href="#semibrevis-5" x="148.36206" y="680"/><use xlink:href="#blank-22" x="125.24138" y="680"/><use xlink:href="#f-clef-part-7" x="79.12069" y="680"/><use xlink:href="#maxima-7" x="10" y="680"/><text x="1520" y="628" font-size="58" text-anchor="left" alignment-baseline="baseline" textLength="636"  font-weight="normal" font-family="Times, serif" font-style="normal" stroke="black" fill="black">da ɢ ſol re ut à ᴀ la mi re.</text><text x="1026" y="628" font-size="58" text-anchor="left" alignment-baseline="baseline" textLength="321"  font-weight="normal" font-family="Times, serif" font-style="normal" stroke="black" fill="black">da ꜰ faut à ɢ.</text><text x="652" y="628" font-size="58" text-anchor="left" alignment-baseline="baseline" textLength="318"  font-weight="normal" font-family="Times, serif" font-style="normal" stroke="black" fill="black">da ᴇlami a ꜰ .</text><text x="20" y="628" font-size="58" text-anchor="left" alignment-baseline="baseline" textLength="550"  font-weight="normal" font-family="Times, serif" font-style="normal" stroke="black" fill="black">da ᴅ la ſol re à ᴇ la mi</text><text x="1679" y="538" font-size="58" text-anchor="left" alignment-baseline="baseline" textLength="500"  font-weight="normal" font-family="Times, serif" font-style="normal" stroke="black" fill="black">ſol &amp; fa. diſcendono.</text><text x="35" y="538" font-size="58" text-anchor="left" alignment-baseline="baseline" textLength="575"  font-weight="normal" font-family="Times, serif" font-style="normal" stroke="black" fill="black">per ♭. mi. fa. ſol. re. mi.</text><text x="1679" y="468" font-size="58" text-anchor="left" alignment-baseline="baseline" textLength="523"  font-weight="normal" font-family="Times, serif" font-style="normal" stroke="black" fill="black">per n. ut. re. mi. fa.re.</text><text x="1133" y="468" font-size="58" text-anchor="left" alignment-baseline="baseline" textLength="514"  font-weight="normal" font-family="Times, serif" font-style="normal" stroke="black" fill="black">ꝑ b. fa. ſol. re. mi. fa.</text><text x="603" y="468" font-size="58" text-anchor="left" alignment-baseline="baseline" textLength="530"  font-weight="normal" font-family="Times, serif" font-style="normal" stroke="black" fill="black">per ♮. mi. fa. re. mi. fa.</text><text x="35" y="468" font-size="58" text-anchor="left" alignment-baseline="baseline" textLength="507"  font-weight="normal" font-family="Times, serif" font-style="normal" stroke="black" fill="black">ꝑ ♮. re. mi fa. re. mi.</text><use xlink:href="#semibrevis-5" x="2153.0" y="180"/><use xlink:href="#blank-22" x="2131.0" y="180"/><use xlink:href="#semibrevis-dot-5" x="2078.0" y="180"/><use xlink:href="#blank-22" x="2056.0" y="180"/><use xlink:href="#flat-5" x="2026.0" y="180"/><use xlink:href="#blank-22" x="2004.0" y="180"/><use xlink:href="#semibrevis-4" x="1951.0" y="180"/><use xlink:href="#blank-22" x="1929.0" y="180"/><use xlink:href="#sharp-4" x="1881.0" y="180"/><use xlink:href="#blank-22" x="1859.0" y="180"/><use xlink:href="#semibrevis-dot-4" x="1806.0" y="180"/><use xlink:href="#blank-22" x="1784.0" y="180"/><use xlink:href="#semibrevis-4" x="1731.0" y="180"/><use xlink:href="#simple-barline" x="1687.0" y="180"/><use xlink:href="#semibrevis-4" x="1634.0" y="180"/><use xlink:href="#blank-22" x="1612.0" y="180"/><use xlink:href="#semibrevis-dot-3" x="1559.0" y="180"/><use xlink:href="#blank-22" x="1537.0" y="180"/><use xlink:href="#semibrevis-3" x="1484.0" y="180"/><use xlink:href="#blank-22" x="1462.0" y="180"/><use xlink:href="#bequadro-3" x="1415.0" y="180"/><use xlink:href="#blank-22" x="1393.0" y="180"/><use xlink:href="#semibrevis-dot-3" x="1340.0" y="180"/><use xlink:href="#blank-22" x="1318.0" y="180"/><use xlink:href="#flat-3" x="1288.0" y="180"/><use xlink:href="#blank-22" x="1266.0" y="180"/><use xlink:href="#semibrevis-3" x="1213.0" y="180"/><use xlink:href="#blank-22" x="1191.0" y="180"/><use xlink:href="#flat-3" x="1161.0" y="180"/><use xlink:href="#simple-barline" x="1117.0" y="180"/><use xlink:href="#semibrevis-4" x="1064.0" y="180"/><use xlink:href="#blank-22" x="1042.0" y="180"/><use xlink:href="#semibrevis-dot-4" x="989.0" y="180"/><use xlink:href="#blank-22" x="967.0" y="180"/><use xlink:href="#flat-4" x="937.0" y="180"/><use xlink:href="#blank-22" x="915.0" y="180"/><use xlink:href="#semibrevis-3" x="862.0" y="180"/><use xlink:href="#blank-22" x="840.0" y="180"/><use xlink:href="#sharp-3" x="792.0" y="180"/><use xlink:href="#blank-22" x="770.0" y="180"/><use xlink:href="#semibrevis-dot-3" x="717.0" y="180"/><use xlink:href="#blank-22" x="695.0" y="180"/><use xlink:href="#semibrevis-3" x="642.0" y="180"/><use xlink:href="#simple-barline" x="598.0" y="180"/><use xlink:href="#semibrevis-3" x="545.0" y="180"/><use xlink:href="#blank-22" x="523.0" y="180"/><use xlink:href="#semibrevis-dot-3" x="470.0" y="180"/><use xlink:href="#blank-22" x="448.0" y="180"/><use xlink:href="#flat-3" x="418.0" y="180"/><use xlink:href="#blank-22" x="396.0" y="180"/><use xlink:href="#semibrevis-2" x="343.0" y="180"/><use xlink:href="#blank-22" x="321.0" y="180"/><use xlink:href="#sharp-2" x="273.0" y="180"/><use xlink:href="#blank-22" x="251.0" y="180"/><use xlink:href="#semibrevis-dot-2" x="198.0" y="180"/><use xlink:href="#blank-22" x="176.0" y="180"/><use xlink:href="#semibrevis-2" x="123.0" y="180"/><use xlink:href="#f-clef-part-7" x="78.0" y="180"/><use xlink:href="#maxima-7" x="10" y="180"/><text x="1683" y="138" font-size="58" text-anchor="left" alignment-baseline="baseline" font-weight="normal" font-family="Times, serif" font-style="normal" stroke="black" fill="black">da ᴄ ſol fa ut à ᴅ laſol</text><text x="1166" y="138" font-size="58" text-anchor="left" alignment-baseline="baseline" font-weight="normal" font-family="Times, serif" font-style="normal" stroke="black" fill="black">da ʙ fa à ᴄ ſol fa ut</text><text x="630" y="138" font-size="58" text-anchor="left" alignment-baseline="baseline" font-weight="normal" font-family="Times, serif" font-style="normal" stroke="black" fill="black">da ʙ mi à ᴄ ſol fa ut</text><text x="53" y="138" font-size="58" text-anchor="left" alignment-baseline="baseline" font-weight="normal" font-family="Times, serif" font-style="normal" stroke="black" fill="black">da ᴀlamire à ʙ mi</text><text x="125" y="68" font-size="58" text-anchor="left" alignment-baseline="baseline" textLength="1903"  font-weight="normal" font-family="Times, serif" font-style="normal" stroke="black" fill="black">ᴍano della diuiſione del tono in quattro ᴅieſis ᴇn. aſcendenti con lo ſemitono minore.</text></svg>