<?xml version="1.0" standalone="no"?>
<!DOCTYPE svg PUBLIC "-//W3C//DTD SVG 1.1//EN" "http://www.w3.org/Graphics/SVG/1.1/DTD/svg11.dtd">
<svg stroke="black" width="1117.0" viewBox="0 0 2234.0 690.0" id="b1-c39-m1-a" version="1.1"
    xmlns="http://www.w3.org/2000/svg"
    xmlns:xlink="http://www.w3.org/1999/xlink"><rect width="100%" height="100%" fill="#e3f3ff" stroke-width="0"/><defs><g id="semibrevis-8"><line x1="2.5" y1="35.0" x2="50.5" y2="35.0" stroke-width="4.5" stroke-linecap="round"/><line x1="2.5" y1="75.0" x2="50.5" y2="75.0" stroke-width="4.5" stroke-linecap="round"/><line x1="2.5" y1="115.0" x2="50.5" y2="115.0" stroke-width="4.5" stroke-linecap="round"/><line x1="2.5" y1="155.0" x2="50.5" y2="155.0" stroke-width="4.5" stroke-linecap="round"/><line x1="2.5" y1="195.0" x2="50.5" y2="195.0" stroke-width="4.5" stroke-linecap="round"/><path fill-rule="evenodd" fill="black" d="M26.5 81.0 L3.1000004 55.0 L26.5 29.0 L49.9 55.0 zM33.022408 69.664764 L13.301713 47.752884 L19.977592 40.335236 L39.698288 62.247116 z" /></g><g id="blank-27"><line x1="2.5" y1="35.0" x2="24.5" y2="35.0" stroke-width="4.5" stroke-linecap="round"/><line x1="2.5" y1="75.0" x2="24.5" y2="75.0" stroke-width="4.5" stroke-linecap="round"/><line x1="2.5" y1="115.0" x2="24.5" y2="115.0" stroke-width="4.5" stroke-linecap="round"/><line x1="2.5" y1="155.0" x2="24.5" y2="155.0" stroke-width="4.5" stroke-linecap="round"/><line x1="2.5" y1="195.0" x2="24.5" y2="195.0" stroke-width="4.5" stroke-linecap="round"/></g><g id="semibrevis-4"><line x1="2.5" y1="35.0" x2="50.5" y2="35.0" stroke-width="4.5" stroke-linecap="round"/><line x1="2.5" y1="75.0" x2="50.5" y2="75.0" stroke-width="4.5" stroke-linecap="round"/><line x1="2.5" y1="115.0" x2="50.5" y2="115.0" stroke-width="4.5" stroke-linecap="round"/><line x1="2.5" y1="155.0" x2="50.5" y2="155.0" stroke-width="4.5" stroke-linecap="round"/><line x1="2.5" y1="195.0" x2="50.5" y2="195.0" stroke-width="4.5" stroke-linecap="round"/><path fill-rule="evenodd" fill="black" d="M26.5 161.0 L3.1000004 135.0 L26.5 109.0 L49.9 135.0 zM33.022408 149.66476 L13.301713 127.752884 L19.977592 120.335236 L39.698288 142.24712 z" /></g><g id="semibrevis-7"><line x1="2.5" y1="35.0" x2="50.5" y2="35.0" stroke-width="4.5" stroke-linecap="round"/><line x1="2.5" y1="75.0" x2="50.5" y2="75.0" stroke-width="4.5" stroke-linecap="round"/><line x1="2.5" y1="115.0" x2="50.5" y2="115.0" stroke-width="4.5" stroke-linecap="round"/><line x1="2.5" y1="155.0" x2="50.5" y2="155.0" stroke-width="4.5" stroke-linecap="round"/><line x1="2.5" y1="195.0" x2="50.5" y2="195.0" stroke-width="4.5" stroke-linecap="round"/><path fill-rule="evenodd" fill="black" d="M26.5 101.0 L3.1000004 75.0 L26.5 49.0 L49.9 75.0 zM33.022408 89.664764 L13.301713 67.752884 L19.977592 60.335236 L39.698288 82.247116 z" /></g><g id="semibrevis-3"><line x1="2.5" y1="35.0" x2="50.5" y2="35.0" stroke-width="4.5" stroke-linecap="round"/><line x1="2.5" y1="75.0" x2="50.5" y2="75.0" stroke-width="4.5" stroke-linecap="round"/><line x1="2.5" y1="115.0" x2="50.5" y2="115.0" stroke-width="4.5" stroke-linecap="round"/><line x1="2.5" y1="155.0" x2="50.5" y2="155.0" stroke-width="4.5" stroke-linecap="round"/><line x1="2.5" y1="195.0" x2="50.5" y2="195.0" stroke-width="4.5" stroke-linecap="round"/><path fill-rule="evenodd" fill="black" d="M26.5 181.0 L3.1000004 155.0 L26.5 129.0 L49.9 155.0 zM33.022408 169.66476 L13.301713 147.75288 L19.977592 140.33524 L39.698288 162.24712 z" /></g><g id="semibrevis-6"><line x1="2.5" y1="35.0" x2="50.5" y2="35.0" stroke-width="4.5" stroke-linecap="round"/><line x1="2.5" y1="75.0" x2="50.5" y2="75.0" stroke-width="4.5" stroke-linecap="round"/><line x1="2.5" y1="115.0" x2="50.5" y2="115.0" stroke-width="4.5" stroke-linecap="round"/><line x1="2.5" y1="155.0" x2="50.5" y2="155.0" stroke-width="4.5" stroke-linecap="round"/><line x1="2.5" y1="195.0" x2="50.5" y2="195.0" stroke-width="4.5" stroke-linecap="round"/><path fill-rule="evenodd" fill="black" d="M26.5 121.0 L3.1000004 95.0 L26.5 69.0 L49.9 95.0 zM33.022408 109.664764 L13.301713 87.752884 L19.977592 80.335236 L39.698288 102.247116 z" /></g><g id="semibrevis-2"><line x1="2.5" y1="35.0" x2="50.5" y2="35.0" stroke-width="4.5" stroke-linecap="round"/><line x1="2.5" y1="75.0" x2="50.5" y2="75.0" stroke-width="4.5" stroke-linecap="round"/><line x1="2.5" y1="115.0" x2="50.5" y2="115.0" stroke-width="4.5" stroke-linecap="round"/><line x1="2.5" y1="155.0" x2="50.5" y2="155.0" stroke-width="4.5" stroke-linecap="round"/><line x1="2.5" y1="195.0" x2="50.5" y2="195.0" stroke-width="4.5" stroke-linecap="round"/><path fill-rule="evenodd" fill="black" d="M26.5 201.0 L3.1000004 175.0 L26.5 149.0 L49.9 175.0 zM33.022408 189.66476 L13.301713 167.75288 L19.977592 160.33524 L39.698288 182.24712 z" /></g><g id="simple-barline"><line x1="2.5" y1="35.0" x2="41.5" y2="35.0" stroke-width="4.5" stroke-linecap="round"/><line x1="2.5" y1="75.0" x2="41.5" y2="75.0" stroke-width="4.5" stroke-linecap="round"/><line x1="2.5" y1="115.0" x2="41.5" y2="115.0" stroke-width="4.5" stroke-linecap="round"/><line x1="2.5" y1="155.0" x2="41.5" y2="155.0" stroke-width="4.5" stroke-linecap="round"/><line x1="2.5" y1="195.0" x2="41.5" y2="195.0" stroke-width="4.5" stroke-linecap="round"/><line x1="22.0" y1="203.0" x2="22.0" y2="27.0" stroke-width="4.75" stroke-linecap="square"/></g><g id="semibrevis-5"><line x1="2.5" y1="35.0" x2="50.5" y2="35.0" stroke-width="4.5" stroke-linecap="round"/><line x1="2.5" y1="75.0" x2="50.5" y2="75.0" stroke-width="4.5" stroke-linecap="round"/><line x1="2.5" y1="115.0" x2="50.5" y2="115.0" stroke-width="4.5" stroke-linecap="round"/><line x1="2.5" y1="155.0" x2="50.5" y2="155.0" stroke-width="4.5" stroke-linecap="round"/><line x1="2.5" y1="195.0" x2="50.5" y2="195.0" stroke-width="4.5" stroke-linecap="round"/><path fill-rule="evenodd" fill="black" d="M26.5 141.0 L3.1000004 115.0 L26.5 89.0 L49.9 115.0 zM33.022408 129.66476 L13.301713 107.752884 L19.977592 100.335236 L39.698288 122.247116 z" /></g><g id="semibrevis-1"><line x1="2.5" y1="35.0" x2="50.5" y2="35.0" stroke-width="4.5" stroke-linecap="round"/><line x1="2.5" y1="75.0" x2="50.5" y2="75.0" stroke-width="4.5" stroke-linecap="round"/><line x1="2.5" y1="115.0" x2="50.5" y2="115.0" stroke-width="4.5" stroke-linecap="round"/><line x1="2.5" y1="155.0" x2="50.5" y2="155.0" stroke-width="4.5" stroke-linecap="round"/><line x1="2.5" y1="195.0" x2="50.5" y2="195.0" stroke-width="4.5" stroke-linecap="round"/><path fill-rule="evenodd" fill="black" d="M26.5 221.0 L3.1000004 195.0 L26.5 169.0 L49.9 195.0 zM33.022408 209.66476 L13.301713 187.75288 L19.977592 180.33524 L39.698288 202.24712 z" /></g><g id="blank-38"><line x1="2.5" y1="35.0" x2="35.5" y2="35.0" stroke-width="4.5" stroke-linecap="round"/><line x1="2.5" y1="75.0" x2="35.5" y2="75.0" stroke-width="4.5" stroke-linecap="round"/><line x1="2.5" y1="115.0" x2="35.5" y2="115.0" stroke-width="4.5" stroke-linecap="round"/><line x1="2.5" y1="155.0" x2="35.5" y2="155.0" stroke-width="4.5" stroke-linecap="round"/><line x1="2.5" y1="195.0" x2="35.5" y2="195.0" stroke-width="4.5" stroke-linecap="round"/></g><g id="c-clef-7"><line x1="2.5" y1="35.0" x2="63.5" y2="35.0" stroke-width="4.5" stroke-linecap="round"/><line x1="2.5" y1="75.0" x2="63.5" y2="75.0" stroke-width="4.5" stroke-linecap="round"/><line x1="2.5" y1="115.0" x2="63.5" y2="115.0" stroke-width="4.5" stroke-linecap="round"/><line x1="2.5" y1="155.0" x2="63.5" y2="155.0" stroke-width="4.5" stroke-linecap="round"/><line x1="2.5" y1="195.0" x2="63.5" y2="195.0" stroke-width="4.5" stroke-linecap="round"/><path fill-rule="evenodd" color="black" d="M11.049999 -5.0 L11.049999 203.0 L16.55 203.0 L16.55 115.0 L51.45 115.0 L51.45 139.0 L54.95 139.0 L54.95 83.0 L16.55 83.0 L16.55 67.0 L54.95 67.0 L54.95 11.0 L51.45 11.0 L51.45 35.0 L16.55 35.0 L16.55 -5.0 zM16.55 104.5 L51.45 104.5 L51.45 93.5 L16.55 93.5 zM16.55 56.5 L51.45 56.5 L51.45 45.5 L16.55 45.5 z" /></g></defs><text x="1972" y="668" font-size="58" text-anchor="left" alignment-baseline="baseline" font-weight="normal" font-family="Times, serif" font-style="normal" stroke="black" fill="black">incomp.</text><text x="1694" y="668" font-size="58" text-anchor="left" alignment-baseline="baseline" font-weight="normal" font-family="Times, serif" font-style="normal" stroke="black" fill="black">incomp.</text><text x="1449" y="668" font-size="58" text-anchor="left" alignment-baseline="baseline" font-weight="normal" font-family="Times, serif" font-style="normal" stroke="black" fill="black">incomp.</text><text x="1226" y="668" font-size="58" text-anchor="left" alignment-baseline="baseline" font-weight="normal" font-family="Times, serif" font-style="normal" stroke="black" fill="black">incomp.</text><text x="965" y="668" font-size="58" text-anchor="left" alignment-baseline="baseline" font-weight="normal" font-family="Times, serif" font-style="normal" stroke="black" fill="black">incomp.</text><text x="651" y="668" font-size="58" text-anchor="left" alignment-baseline="baseline" font-weight="normal" font-family="Times, serif" font-style="normal" stroke="black" fill="black">incomp.</text><text x="378" y="668" font-size="58" text-anchor="left" alignment-baseline="baseline" font-weight="normal" font-family="Times, serif" font-style="normal" stroke="black" fill="black">incomp.</text><text x="110" y="668" font-size="58" text-anchor="left" alignment-baseline="baseline" font-weight="normal" font-family="Times, serif" font-style="normal" stroke="black" fill="black">incomp.</text><text x="1969" y="598" font-size="58" text-anchor="left" alignment-baseline="baseline" font-weight="normal" font-family="Times, serif" font-style="normal" stroke="black" fill="black">ꝑfet.nat.</text><text x="1696" y="598" font-size="58" text-anchor="left" alignment-baseline="baseline" font-weight="normal" font-family="Times, serif" font-style="normal" stroke="black" fill="black">ꝑfet. nat.</text><text x="1456" y="598" font-size="58" text-anchor="left" alignment-baseline="baseline" font-weight="normal" font-family="Times, serif" font-style="normal" stroke="black" fill="black">ꝑfet.nat.</text><text x="1238" y="598" font-size="58" text-anchor="left" alignment-baseline="baseline" font-weight="normal" font-family="Times, serif" font-style="normal" stroke="black" fill="black">ꝑfet.na.</text><text x="965" y="598" font-size="58" text-anchor="left" alignment-baseline="baseline" font-weight="normal" font-family="Times, serif" font-style="normal" stroke="black" fill="black">ꝑſet. nat.</text><text x="662" y="598" font-size="58" text-anchor="left" alignment-baseline="baseline" font-weight="normal" font-family="Times, serif" font-style="normal" stroke="black" fill="black">perfet.nat.</text><text x="378" y="598" font-size="58" text-anchor="left" alignment-baseline="baseline" font-weight="normal" font-family="Times, serif" font-style="normal" stroke="black" fill="black">ꝑfet. nat.</text><text x="117" y="598" font-size="58" text-anchor="left" alignment-baseline="baseline" font-weight="normal" font-family="Times, serif" font-style="normal" stroke="black" fill="black">ꝑfet. nat.</text><text x="1963" y="528" font-size="58" text-anchor="left" alignment-baseline="baseline" font-weight="normal" font-family="Times, serif" font-style="normal" stroke="black" fill="black">ſalto di 5.</text><text x="1694" y="528" font-size="58" text-anchor="left" alignment-baseline="baseline" font-weight="normal" font-family="Times, serif" font-style="normal" stroke="black" fill="black">ſalto di 5.</text><text x="1454" y="528" font-size="58" text-anchor="left" alignment-baseline="baseline" font-weight="normal" font-family="Times, serif" font-style="normal" stroke="black" fill="black">ſal. di 5.</text><text x="1213" y="528" font-size="58" text-anchor="left" alignment-baseline="baseline" font-weight="normal" font-family="Times, serif" font-style="normal" stroke="black" fill="black">ſal. di 5.</text><text x="953" y="528" font-size="58" text-anchor="left" alignment-baseline="baseline" font-weight="normal" font-family="Times, serif" font-style="normal" stroke="black" fill="black">ſalto di 5.</text><text x="663" y="528" font-size="58" text-anchor="left" alignment-baseline="baseline" font-weight="normal" font-family="Times, serif" font-style="normal" stroke="black" fill="black">ſal. di quin.</text><text x="379" y="528" font-size="58" text-anchor="left" alignment-baseline="baseline" font-weight="normal" font-family="Times, serif" font-style="normal" stroke="black" fill="black">ſalto di 5.</text><text x="106" y="528" font-size="58" text-anchor="left" alignment-baseline="baseline" font-weight="normal" font-family="Times, serif" font-style="normal" stroke="black" fill="black">ſalto di 5.</text><use xlink:href="#simple-barline" x="2181.9822" y="240"/><use xlink:href="#blank-38" x="2145.9634" y="240"/><use xlink:href="#semibrevis-1" x="2094.9446" y="240"/><use xlink:href="#blank-38" x="2058.9258" y="240"/><use xlink:href="#semibrevis-5" x="2007.9069" y="240"/><use xlink:href="#blank-38" x="1971.888" y="240"/><use xlink:href="#simple-barline" x="1929.869" y="240"/><use xlink:href="#blank-38" x="1893.8501" y="240"/><use xlink:href="#semibrevis-2" x="1842.8312" y="240"/><use xlink:href="#blank-38" x="1806.8123" y="240"/><use xlink:href="#semibrevis-6" x="1755.7933" y="240"/><use xlink:href="#blank-38" x="1719.7744" y="240"/><use xlink:href="#simple-barline" x="1677.7555" y="240"/><use xlink:href="#blank-38" x="1641.7366" y="240"/><use xlink:href="#semibrevis-3" x="1590.7177" y="240"/><use xlink:href="#blank-38" x="1554.6987" y="240"/><use xlink:href="#semibrevis-7" x="1503.6798" y="240"/><use xlink:href="#blank-38" x="1467.6609" y="240"/><use xlink:href="#simple-barline" x="1425.642" y="240"/><use xlink:href="#blank-38" x="1389.623" y="240"/><use xlink:href="#semibrevis-4" x="1338.6041" y="240"/><use xlink:href="#blank-38" x="1302.5852" y="240"/><use xlink:href="#semibrevis-8" x="1251.5663" y="240"/><use xlink:href="#blank-38" x="1215.5474" y="240"/><use xlink:href="#simple-barline" x="1173.5284" y="240"/><use xlink:href="#blank-38" x="1137.5095" y="240"/><use xlink:href="#semibrevis-8" x="1086.4906" y="240"/><use xlink:href="#blank-27" x="1061.4717" y="240"/><use xlink:href="#blank-38" x="1025.4528" y="240"/><use xlink:href="#semibrevis-4" x="974.43384" y="240"/><use xlink:href="#blank-38" x="938.415" y="240"/><use xlink:href="#simple-barline" x="896.3961" y="240"/><use xlink:href="#blank-38" x="860.37726" y="240"/><use xlink:href="#semibrevis-7" x="809.3584" y="240"/><use xlink:href="#blank-38" x="773.33954" y="240"/><use xlink:href="#blank-38" x="737.3207" y="240"/><use xlink:href="#semibrevis-3" x="686.3018" y="240"/><use xlink:href="#blank-38" x="650.28296" y="240"/><use xlink:href="#simple-barline" x="608.2641" y="240"/><use xlink:href="#blank-38" x="572.24524" y="240"/><use xlink:href="#semibrevis-6" x="521.2264" y="240"/><use xlink:href="#blank-38" x="485.2075" y="240"/><use xlink:href="#blank-38" x="449.18863" y="240"/><use xlink:href="#semibrevis-2" x="398.16977" y="240"/><use xlink:href="#blank-38" x="362.1509" y="240"/><use xlink:href="#simple-barline" x="320.13205" y="240"/><use xlink:href="#blank-38" x="284.1132" y="240"/><use xlink:href="#semibrevis-5" x="233.09433" y="240"/><use xlink:href="#blank-38" x="197.07547" y="240"/><use xlink:href="#blank-38" x="161.05661" y="240"/><use xlink:href="#semibrevis-1" x="110.037735" y="240"/><use xlink:href="#blank-38" x="74.01887" y="240"/><use xlink:href="#c-clef-7" x="10" y="240"/><text x="1258" y="208" font-size="58" text-anchor="left" alignment-baseline="baseline" font-weight="normal" font-family="Times, serif" font-style="normal" stroke="black" fill="black">ʟe medeſime Ɋuinte diſcendenti.</text><text x="935" y="208" font-size="58" text-anchor="left" alignment-baseline="baseline" font-weight="normal" font-family="Times, serif" font-style="normal" stroke="black" fill="black">quarta 5.</text><text x="665" y="208" font-size="58" text-anchor="left" alignment-baseline="baseline" font-weight="normal" font-family="Times, serif" font-style="normal" stroke="black" fill="black">terza 5.</text><text x="366" y="208" font-size="58" text-anchor="left" alignment-baseline="baseline" font-weight="normal" font-family="Times, serif" font-style="normal" stroke="black" fill="black">ſeconda 5.</text><text x="97" y="208" font-size="58" text-anchor="left" alignment-baseline="baseline" font-weight="normal" font-family="Times, serif" font-style="normal" stroke="black" fill="black">prima 5.</text><text x="605" y="68" font-size="58" text-anchor="left" alignment-baseline="baseline" textLength="952"  font-weight="normal" font-family="Times, serif" font-style="normal" stroke="black" fill="black">ᴇſſempio della Quinta naturale incomp.</text></svg>