<?xml version="1.0" standalone="no"?>
<!DOCTYPE svg PUBLIC "-//W3C//DTD SVG 1.1//EN" "http://www.w3.org/Graphics/SVG/1.1/DTD/svg11.dtd">
<svg stroke="black" width="1111.0" viewBox="0 0 2222.0 410.0" id="b1-c16-m1-a" version="1.1"
    xmlns="http://www.w3.org/2000/svg"
    xmlns:xlink="http://www.w3.org/1999/xlink"><rect width="100%" height="100%" fill="white"/><defs><g id="semibrevis-dot-5"><line x1="2.5" y1="35.0" x2="50.5" y2="35.0" stroke-width="4.5" stroke-linecap="round"/><line x1="2.5" y1="75.0" x2="50.5" y2="75.0" stroke-width="4.5" stroke-linecap="round"/><line x1="2.5" y1="115.0" x2="50.5" y2="115.0" stroke-width="4.5" stroke-linecap="round"/><line x1="2.5" y1="155.0" x2="50.5" y2="155.0" stroke-width="4.5" stroke-linecap="round"/><line x1="2.5" y1="195.0" x2="50.5" y2="195.0" stroke-width="4.5" stroke-linecap="round"/><path fill-rule="evenodd" fill="black" d="M26.5 141.0 L3.1000004 115.0 L26.5 89.0 L49.9 115.0 zM33.022408 129.66476 L13.301713 107.752884 L19.977592 100.335236 L39.698288 122.247116 z" /><path fill="black" d="M26.5 61.0 L20.5 55.0 L26.5 49.0 L32.5 55.0 z" /></g><g id="semibrevis-dot-7"><line x1="2.5" y1="35.0" x2="50.5" y2="35.0" stroke-width="4.5" stroke-linecap="round"/><line x1="2.5" y1="75.0" x2="50.5" y2="75.0" stroke-width="4.5" stroke-linecap="round"/><line x1="2.5" y1="115.0" x2="50.5" y2="115.0" stroke-width="4.5" stroke-linecap="round"/><line x1="2.5" y1="155.0" x2="50.5" y2="155.0" stroke-width="4.5" stroke-linecap="round"/><line x1="2.5" y1="195.0" x2="50.5" y2="195.0" stroke-width="4.5" stroke-linecap="round"/><path fill-rule="evenodd" fill="black" d="M26.5 101.0 L3.1000004 75.0 L26.5 49.0 L49.9 75.0 zM33.022408 89.664764 L13.301713 67.752884 L19.977592 60.335236 L39.698288 82.247116 z" /><path fill="black" d="M26.5 21.0 L20.5 15.0 L26.5 9.0 L32.5 15.0 z" /></g><g id="semibrevis-8"><line x1="2.5" y1="35.0" x2="50.5" y2="35.0" stroke-width="4.5" stroke-linecap="round"/><line x1="2.5" y1="75.0" x2="50.5" y2="75.0" stroke-width="4.5" stroke-linecap="round"/><line x1="2.5" y1="115.0" x2="50.5" y2="115.0" stroke-width="4.5" stroke-linecap="round"/><line x1="2.5" y1="155.0" x2="50.5" y2="155.0" stroke-width="4.5" stroke-linecap="round"/><line x1="2.5" y1="195.0" x2="50.5" y2="195.0" stroke-width="4.5" stroke-linecap="round"/><path fill-rule="evenodd" fill="black" d="M26.5 81.0 L3.1000004 55.0 L26.5 29.0 L49.9 55.0 zM33.022408 69.664764 L13.301713 47.752884 L19.977592 40.335236 L39.698288 62.247116 z" /></g><g id="flat-8"><line x1="2.5" y1="35.0" x2="27.5" y2="35.0" stroke-width="4.5" stroke-linecap="round"/><line x1="2.5" y1="75.0" x2="27.5" y2="75.0" stroke-width="4.5" stroke-linecap="round"/><line x1="2.5" y1="115.0" x2="27.5" y2="115.0" stroke-width="4.5" stroke-linecap="round"/><line x1="2.5" y1="155.0" x2="27.5" y2="155.0" stroke-width="4.5" stroke-linecap="round"/><line x1="2.5" y1="195.0" x2="27.5" y2="195.0" stroke-width="4.5" stroke-linecap="round"/><path stroke="black" fill="none" stroke-width="3.25" stroke-linecap="round" d="M2.1999998 67.8 A15.360001 15.360001 0 1 0 2.1999998 42.200005 " /><path fill="black" d="M0.9499998 67.8 L3.4499998 67.8 L3.5749998 -20.199997 L-0.5500002 -20.199997 z" /></g><g id="semibrevis-9"><line x1="2.5" y1="35.0" x2="50.5" y2="35.0" stroke-width="4.5" stroke-linecap="round"/><line x1="2.5" y1="75.0" x2="50.5" y2="75.0" stroke-width="4.5" stroke-linecap="round"/><line x1="2.5" y1="115.0" x2="50.5" y2="115.0" stroke-width="4.5" stroke-linecap="round"/><line x1="2.5" y1="155.0" x2="50.5" y2="155.0" stroke-width="4.5" stroke-linecap="round"/><line x1="2.5" y1="195.0" x2="50.5" y2="195.0" stroke-width="4.5" stroke-linecap="round"/><path fill-rule="evenodd" fill="black" d="M26.5 61.0 L3.1000004 35.0 L26.5 9.0 L49.9 35.0 zM33.022408 49.664764 L13.301713 27.752882 L19.977592 20.335236 L39.698288 42.247116 z" /></g><g id="flat-9"><line x1="2.5" y1="35.0" x2="27.5" y2="35.0" stroke-width="4.5" stroke-linecap="round"/><line x1="2.5" y1="75.0" x2="27.5" y2="75.0" stroke-width="4.5" stroke-linecap="round"/><line x1="2.5" y1="115.0" x2="27.5" y2="115.0" stroke-width="4.5" stroke-linecap="round"/><line x1="2.5" y1="155.0" x2="27.5" y2="155.0" stroke-width="4.5" stroke-linecap="round"/><line x1="2.5" y1="195.0" x2="27.5" y2="195.0" stroke-width="4.5" stroke-linecap="round"/><path stroke="black" fill="none" stroke-width="3.25" stroke-linecap="round" d="M2.1999998 47.8 A15.360001 15.360001 0 1 0 2.1999998 22.199999 " /><path fill="black" d="M0.9499998 47.8 L3.4499998 47.8 L3.5749998 -24.2 L-0.5500002 -24.2 z" /></g><g id="semibrevis-dot-8"><line x1="2.5" y1="35.0" x2="50.5" y2="35.0" stroke-width="4.5" stroke-linecap="round"/><line x1="2.5" y1="75.0" x2="50.5" y2="75.0" stroke-width="4.5" stroke-linecap="round"/><line x1="2.5" y1="115.0" x2="50.5" y2="115.0" stroke-width="4.5" stroke-linecap="round"/><line x1="2.5" y1="155.0" x2="50.5" y2="155.0" stroke-width="4.5" stroke-linecap="round"/><line x1="2.5" y1="195.0" x2="50.5" y2="195.0" stroke-width="4.5" stroke-linecap="round"/><path fill-rule="evenodd" fill="black" d="M26.5 81.0 L3.1000004 55.0 L26.5 29.0 L49.9 55.0 zM33.022408 69.664764 L13.301713 47.752884 L19.977592 40.335236 L39.698288 62.247116 z" /><path fill="black" d="M26.5 21.0 L20.5 15.0 L26.5 9.0 L32.5 15.0 z" /></g><g id="semibrevis-7"><line x1="2.5" y1="35.0" x2="50.5" y2="35.0" stroke-width="4.5" stroke-linecap="round"/><line x1="2.5" y1="75.0" x2="50.5" y2="75.0" stroke-width="4.5" stroke-linecap="round"/><line x1="2.5" y1="115.0" x2="50.5" y2="115.0" stroke-width="4.5" stroke-linecap="round"/><line x1="2.5" y1="155.0" x2="50.5" y2="155.0" stroke-width="4.5" stroke-linecap="round"/><line x1="2.5" y1="195.0" x2="50.5" y2="195.0" stroke-width="4.5" stroke-linecap="round"/><path fill-rule="evenodd" fill="black" d="M26.5 101.0 L3.1000004 75.0 L26.5 49.0 L49.9 75.0 zM33.022408 89.664764 L13.301713 67.752884 L19.977592 60.335236 L39.698288 82.247116 z" /></g><g id="semibrevis-dot-6"><line x1="2.5" y1="35.0" x2="50.5" y2="35.0" stroke-width="4.5" stroke-linecap="round"/><line x1="2.5" y1="75.0" x2="50.5" y2="75.0" stroke-width="4.5" stroke-linecap="round"/><line x1="2.5" y1="115.0" x2="50.5" y2="115.0" stroke-width="4.5" stroke-linecap="round"/><line x1="2.5" y1="155.0" x2="50.5" y2="155.0" stroke-width="4.5" stroke-linecap="round"/><line x1="2.5" y1="195.0" x2="50.5" y2="195.0" stroke-width="4.5" stroke-linecap="round"/><path fill-rule="evenodd" fill="black" d="M26.5 121.0 L3.1000004 95.0 L26.5 69.0 L49.9 95.0 zM33.022408 109.664764 L13.301713 87.752884 L19.977592 80.335236 L39.698288 102.247116 z" /><path fill="black" d="M26.5 61.0 L20.5 55.0 L26.5 49.0 L32.5 55.0 z" /></g><g id="semibrevis-5"><line x1="2.5" y1="35.0" x2="50.5" y2="35.0" stroke-width="4.5" stroke-linecap="round"/><line x1="2.5" y1="75.0" x2="50.5" y2="75.0" stroke-width="4.5" stroke-linecap="round"/><line x1="2.5" y1="115.0" x2="50.5" y2="115.0" stroke-width="4.5" stroke-linecap="round"/><line x1="2.5" y1="155.0" x2="50.5" y2="155.0" stroke-width="4.5" stroke-linecap="round"/><line x1="2.5" y1="195.0" x2="50.5" y2="195.0" stroke-width="4.5" stroke-linecap="round"/><path fill-rule="evenodd" fill="black" d="M26.5 141.0 L3.1000004 115.0 L26.5 89.0 L49.9 115.0 zM33.022408 129.66476 L13.301713 107.752884 L19.977592 100.335236 L39.698288 122.247116 z" /></g><g id="blank-38"><line x1="2.5" y1="35.0" x2="35.5" y2="35.0" stroke-width="4.5" stroke-linecap="round"/><line x1="2.5" y1="75.0" x2="35.5" y2="75.0" stroke-width="4.5" stroke-linecap="round"/><line x1="2.5" y1="115.0" x2="35.5" y2="115.0" stroke-width="4.5" stroke-linecap="round"/><line x1="2.5" y1="155.0" x2="35.5" y2="155.0" stroke-width="4.5" stroke-linecap="round"/><line x1="2.5" y1="195.0" x2="35.5" y2="195.0" stroke-width="4.5" stroke-linecap="round"/></g><g id="flat-5"><line x1="2.5" y1="35.0" x2="27.5" y2="35.0" stroke-width="4.5" stroke-linecap="round"/><line x1="2.5" y1="75.0" x2="27.5" y2="75.0" stroke-width="4.5" stroke-linecap="round"/><line x1="2.5" y1="115.0" x2="27.5" y2="115.0" stroke-width="4.5" stroke-linecap="round"/><line x1="2.5" y1="155.0" x2="27.5" y2="155.0" stroke-width="4.5" stroke-linecap="round"/><line x1="2.5" y1="195.0" x2="27.5" y2="195.0" stroke-width="4.5" stroke-linecap="round"/><path stroke="black" fill="none" stroke-width="3.25" stroke-linecap="round" d="M2.1999998 127.8 A15.360001 15.360001 0 1 0 2.1999998 102.200005 " /><path fill="black" d="M0.9499998 127.8 L3.4499998 127.8 L3.5749998 -0.19999695 L-0.5500002 -0.19999695 z" /></g><g id="semibrevis-dot-4"><line x1="2.5" y1="35.0" x2="50.5" y2="35.0" stroke-width="4.5" stroke-linecap="round"/><line x1="2.5" y1="75.0" x2="50.5" y2="75.0" stroke-width="4.5" stroke-linecap="round"/><line x1="2.5" y1="115.0" x2="50.5" y2="115.0" stroke-width="4.5" stroke-linecap="round"/><line x1="2.5" y1="155.0" x2="50.5" y2="155.0" stroke-width="4.5" stroke-linecap="round"/><line x1="2.5" y1="195.0" x2="50.5" y2="195.0" stroke-width="4.5" stroke-linecap="round"/><path fill-rule="evenodd" fill="black" d="M26.5 161.0 L3.1000004 135.0 L26.5 109.0 L49.9 135.0 zM33.022408 149.66476 L13.301713 127.752884 L19.977592 120.335236 L39.698288 142.24712 z" /><path fill="black" d="M26.5 101.0 L20.5 95.0 L26.5 89.0 L32.5 95.0 z" /></g><g id="simple-barline"><line x1="2.5" y1="35.0" x2="41.5" y2="35.0" stroke-width="4.5" stroke-linecap="round"/><line x1="2.5" y1="75.0" x2="41.5" y2="75.0" stroke-width="4.5" stroke-linecap="round"/><line x1="2.5" y1="115.0" x2="41.5" y2="115.0" stroke-width="4.5" stroke-linecap="round"/><line x1="2.5" y1="155.0" x2="41.5" y2="155.0" stroke-width="4.5" stroke-linecap="round"/><line x1="2.5" y1="195.0" x2="41.5" y2="195.0" stroke-width="4.5" stroke-linecap="round"/><line x1="22.0" y1="203.0" x2="22.0" y2="27.0" stroke-width="4.75" stroke-linecap="square"/></g><g id="semibrevis-3"><line x1="2.5" y1="35.0" x2="50.5" y2="35.0" stroke-width="4.5" stroke-linecap="round"/><line x1="2.5" y1="75.0" x2="50.5" y2="75.0" stroke-width="4.5" stroke-linecap="round"/><line x1="2.5" y1="115.0" x2="50.5" y2="115.0" stroke-width="4.5" stroke-linecap="round"/><line x1="2.5" y1="155.0" x2="50.5" y2="155.0" stroke-width="4.5" stroke-linecap="round"/><line x1="2.5" y1="195.0" x2="50.5" y2="195.0" stroke-width="4.5" stroke-linecap="round"/><path fill-rule="evenodd" fill="black" d="M26.5 181.0 L3.1000004 155.0 L26.5 129.0 L49.9 155.0 zM33.022408 169.66476 L13.301713 147.75288 L19.977592 140.33524 L39.698288 162.24712 z" /></g><g id="blank-27"><line x1="2.5" y1="35.0" x2="24.5" y2="35.0" stroke-width="4.5" stroke-linecap="round"/><line x1="2.5" y1="75.0" x2="24.5" y2="75.0" stroke-width="4.5" stroke-linecap="round"/><line x1="2.5" y1="115.0" x2="24.5" y2="115.0" stroke-width="4.5" stroke-linecap="round"/><line x1="2.5" y1="155.0" x2="24.5" y2="155.0" stroke-width="4.5" stroke-linecap="round"/><line x1="2.5" y1="195.0" x2="24.5" y2="195.0" stroke-width="4.5" stroke-linecap="round"/></g><g id="semibrevis-dot-2"><line x1="2.5" y1="35.0" x2="50.5" y2="35.0" stroke-width="4.5" stroke-linecap="round"/><line x1="2.5" y1="75.0" x2="50.5" y2="75.0" stroke-width="4.5" stroke-linecap="round"/><line x1="2.5" y1="115.0" x2="50.5" y2="115.0" stroke-width="4.5" stroke-linecap="round"/><line x1="2.5" y1="155.0" x2="50.5" y2="155.0" stroke-width="4.5" stroke-linecap="round"/><line x1="2.5" y1="195.0" x2="50.5" y2="195.0" stroke-width="4.5" stroke-linecap="round"/><path fill-rule="evenodd" fill="black" d="M26.5 201.0 L3.1000004 175.0 L26.5 149.0 L49.9 175.0 zM33.022408 189.66476 L13.301713 167.75288 L19.977592 160.33524 L39.698288 182.24712 z" /><path fill="black" d="M26.5 141.0 L20.5 135.0 L26.5 129.0 L32.5 135.0 z" /></g><g id="blank-22"><line x1="2.5" y1="35.0" x2="19.5" y2="35.0" stroke-width="4.5" stroke-linecap="round"/><line x1="2.5" y1="75.0" x2="19.5" y2="75.0" stroke-width="4.5" stroke-linecap="round"/><line x1="2.5" y1="115.0" x2="19.5" y2="115.0" stroke-width="4.5" stroke-linecap="round"/><line x1="2.5" y1="155.0" x2="19.5" y2="155.0" stroke-width="4.5" stroke-linecap="round"/><line x1="2.5" y1="195.0" x2="19.5" y2="195.0" stroke-width="4.5" stroke-linecap="round"/></g><g id="c-clef-7"><line x1="2.5" y1="35.0" x2="63.5" y2="35.0" stroke-width="4.5" stroke-linecap="round"/><line x1="2.5" y1="75.0" x2="63.5" y2="75.0" stroke-width="4.5" stroke-linecap="round"/><line x1="2.5" y1="115.0" x2="63.5" y2="115.0" stroke-width="4.5" stroke-linecap="round"/><line x1="2.5" y1="155.0" x2="63.5" y2="155.0" stroke-width="4.5" stroke-linecap="round"/><line x1="2.5" y1="195.0" x2="63.5" y2="195.0" stroke-width="4.5" stroke-linecap="round"/><path fill-rule="evenodd" color="black" d="M11.049999 -5.0 L11.049999 203.0 L16.55 203.0 L16.55 115.0 L51.45 115.0 L51.45 139.0 L54.95 139.0 L54.95 83.0 L16.55 83.0 L16.55 67.0 L54.95 67.0 L54.95 11.0 L51.45 11.0 L51.45 35.0 L16.55 35.0 L16.55 -5.0 zM16.55 104.5 L51.45 104.5 L51.45 93.5 L16.55 93.5 zM16.55 56.5 L51.45 56.5 L51.45 45.5 L16.55 45.5 z" /></g></defs><text x="1939" y="388" font-size="58" text-anchor="left" alignment-baseline="hanging" font-weight="normal" font-family="Times, serif" font-style="normal" stroke="black" fill="black">ᴅies. mag.</text><text x="1710" y="388" font-size="58" text-anchor="left" alignment-baseline="hanging" font-weight="normal" font-family="Times, serif" font-style="normal" stroke="black" fill="black">ᴅies.ma.</text><text x="1421" y="388" font-size="58" text-anchor="left" alignment-baseline="hanging" font-weight="normal" font-family="Times, serif" font-style="normal" stroke="black" fill="black">ᴅies.mag.</text><text x="1110" y="388" font-size="58" text-anchor="left" alignment-baseline="hanging" font-weight="normal" font-family="Times, serif" font-style="normal" stroke="black" fill="black">ᴅies.mag.</text><text x="816" y="388" font-size="58" text-anchor="left" alignment-baseline="hanging" font-weight="normal" font-family="Times, serif" font-style="normal" stroke="black" fill="black">ᴅies.mag.</text><text x="560" y="388" font-size="58" text-anchor="left" alignment-baseline="hanging" font-weight="normal" font-family="Times, serif" font-style="normal" stroke="black" fill="black">ᴅies.mag.</text><text x="300" y="388" font-size="58" text-anchor="left" alignment-baseline="hanging" font-weight="normal" font-family="Times, serif" font-style="normal" stroke="black" fill="black">ᴅies.mag.</text><text x="10" y="388" font-size="58" text-anchor="left" alignment-baseline="hanging" font-weight="normal" font-family="Times, serif" font-style="normal" stroke="black" fill="black">ᴅieſis mag.</text><use xlink:href="#simple-barline" x="2168.583" y="100"/><use xlink:href="#semibrevis-5" x="2116.1648" y="100"/><use xlink:href="#semibrevis-5" x="2063.7466" y="100"/><use xlink:href="#blank-27" x="2037.3285" y="100"/><use xlink:href="#flat-5" x="2007.9103" y="100"/><use xlink:href="#blank-38" x="1970.4921" y="100"/><use xlink:href="#semibrevis-dot-5" x="1918.0739" y="100"/><use xlink:href="#simple-barline" x="1874.6556" y="100"/><use xlink:href="#semibrevis-dot-6" x="1822.2374" y="100"/><use xlink:href="#blank-27" x="1795.8192" y="100"/><use xlink:href="#semibrevis-7" x="1743.401" y="100"/><use xlink:href="#blank-27" x="1716.9828" y="100"/><use xlink:href="#simple-barline" x="1673.5646" y="100"/><use xlink:href="#semibrevis-dot-7" x="1621.1464" y="100"/><use xlink:href="#blank-27" x="1594.7281" y="100"/><use xlink:href="#semibrevis-8" x="1542.3099" y="100"/><use xlink:href="#blank-38" x="1504.8917" y="100"/><use xlink:href="#flat-8" x="1475.4735" y="100"/><use xlink:href="#blank-38" x="1438.0553" y="100"/><use xlink:href="#simple-barline" x="1394.6371" y="100"/><use xlink:href="#blank-38" x="1357.2189" y="100"/><use xlink:href="#semibrevis-dot-8" x="1304.8007" y="100"/><use xlink:href="#blank-27" x="1278.3824" y="100"/><use xlink:href="#semibrevis-9" x="1225.9642" y="100"/><use xlink:href="#blank-27" x="1199.546" y="100"/><use xlink:href="#flat-9" x="1170.1278" y="100"/><use xlink:href="#blank-38" x="1132.7096" y="100"/><use xlink:href="#simple-barline" x="1089.2914" y="100"/><use xlink:href="#blank-38" x="1051.8732" y="100"/><use xlink:href="#semibrevis-9" x="999.45496" y="100"/><use xlink:href="#blank-27" x="973.03674" y="100"/><use xlink:href="#flat-9" x="943.6185" y="100"/><use xlink:href="#blank-38" x="906.2003" y="100"/><use xlink:href="#semibrevis-dot-8" x="853.7821" y="100"/><use xlink:href="#blank-38" x="816.3639" y="100"/><use xlink:href="#simple-barline" x="772.9457" y="100"/><use xlink:href="#blank-38" x="735.52747" y="100"/><use xlink:href="#semibrevis-7" x="683.10925" y="100"/><use xlink:href="#blank-38" x="645.69104" y="100"/><use xlink:href="#semibrevis-dot-6" x="593.2728" y="100"/><use xlink:href="#blank-38" x="555.8546" y="100"/><use xlink:href="#simple-barline" x="512.4364" y="100"/><use xlink:href="#blank-22" x="491.0182" y="100"/><use xlink:href="#semibrevis-5" x="438.6" y="100"/><use xlink:href="#blank-38" x="401.18182" y="100"/><use xlink:href="#flat-5" x="371.76364" y="100"/><use xlink:href="#blank-27" x="345.34546" y="100"/><use xlink:href="#semibrevis-dot-4" x="292.92728" y="100"/><use xlink:href="#simple-barline" x="249.5091" y="100"/><use xlink:href="#blank-22" x="228.09091" y="100"/><use xlink:href="#semibrevis-3" x="175.67273" y="100"/><use xlink:href="#blank-27" x="149.25455" y="100"/><use xlink:href="#semibrevis-dot-2" x="96.836365" y="100"/><use xlink:href="#blank-22" x="75.41818" y="100"/><use xlink:href="#c-clef-7" x="10" y="100"/><text x="176" y="68" font-size="58" text-anchor="left" alignment-baseline="hanging" textLength="1861"  font-weight="normal" font-family="Times, serif" font-style="normal" stroke="black" fill="black">ᴇſſempio delli gradi,delli ᴅieſis maggiori ᴇnarmonici,aſcendenti &amp; diſcendenti.</text></svg>