<?xml version="1.0" standalone="no"?>
<!DOCTYPE svg PUBLIC "-//W3C//DTD SVG 1.1//EN" "http://www.w3.org/Graphics/SVG/1.1/DTD/svg11.dtd">
<svg stroke="black" width="1113.5" viewBox="0 0 2227.0 545.0" id="b1-c35-m1" version="1.1"
    xmlns="http://www.w3.org/2000/svg"
    xmlns:xlink="http://www.w3.org/1999/xlink"><rect width="100%" height="100%" fill="white"/><defs><g id="semibrevis-5"><line x1="2.5" y1="35.0" x2="50.5" y2="35.0" stroke-width="4.5" stroke-linecap="round"/><line x1="2.5" y1="75.0" x2="50.5" y2="75.0" stroke-width="4.5" stroke-linecap="round"/><line x1="2.5" y1="115.0" x2="50.5" y2="115.0" stroke-width="4.5" stroke-linecap="round"/><line x1="2.5" y1="155.0" x2="50.5" y2="155.0" stroke-width="4.5" stroke-linecap="round"/><line x1="2.5" y1="195.0" x2="50.5" y2="195.0" stroke-width="4.5" stroke-linecap="round"/><path fill-rule="evenodd" fill="black" d="M26.5 141.0 L3.1000004 115.0 L26.5 89.0 L49.9 115.0 zM33.022408 129.66476 L13.301713 107.752884 L19.977592 100.335236 L39.698288 122.247116 z" /></g><g id="blank-22"><line x1="2.5" y1="35.0" x2="19.5" y2="35.0" stroke-width="4.5" stroke-linecap="round"/><line x1="2.5" y1="75.0" x2="19.5" y2="75.0" stroke-width="4.5" stroke-linecap="round"/><line x1="2.5" y1="115.0" x2="19.5" y2="115.0" stroke-width="4.5" stroke-linecap="round"/><line x1="2.5" y1="155.0" x2="19.5" y2="155.0" stroke-width="4.5" stroke-linecap="round"/><line x1="2.5" y1="195.0" x2="19.5" y2="195.0" stroke-width="4.5" stroke-linecap="round"/></g><g id="semibrevis-7"><line x1="2.5" y1="35.0" x2="50.5" y2="35.0" stroke-width="4.5" stroke-linecap="round"/><line x1="2.5" y1="75.0" x2="50.5" y2="75.0" stroke-width="4.5" stroke-linecap="round"/><line x1="2.5" y1="115.0" x2="50.5" y2="115.0" stroke-width="4.5" stroke-linecap="round"/><line x1="2.5" y1="155.0" x2="50.5" y2="155.0" stroke-width="4.5" stroke-linecap="round"/><line x1="2.5" y1="195.0" x2="50.5" y2="195.0" stroke-width="4.5" stroke-linecap="round"/><path fill-rule="evenodd" fill="black" d="M26.5 101.0 L3.1000004 75.0 L26.5 49.0 L49.9 75.0 zM33.022408 89.664764 L13.301713 67.752884 L19.977592 60.335236 L39.698288 82.247116 z" /></g><g id="semibrevis-4"><line x1="2.5" y1="35.0" x2="50.5" y2="35.0" stroke-width="4.5" stroke-linecap="round"/><line x1="2.5" y1="75.0" x2="50.5" y2="75.0" stroke-width="4.5" stroke-linecap="round"/><line x1="2.5" y1="115.0" x2="50.5" y2="115.0" stroke-width="4.5" stroke-linecap="round"/><line x1="2.5" y1="155.0" x2="50.5" y2="155.0" stroke-width="4.5" stroke-linecap="round"/><line x1="2.5" y1="195.0" x2="50.5" y2="195.0" stroke-width="4.5" stroke-linecap="round"/><path fill-rule="evenodd" fill="black" d="M26.5 161.0 L3.1000004 135.0 L26.5 109.0 L49.9 135.0 zM33.022408 149.66476 L13.301713 127.752884 L19.977592 120.335236 L39.698288 142.24712 z" /></g><g id="c-clef-1"><line x1="2.5" y1="35.0" x2="63.5" y2="35.0" stroke-width="4.5" stroke-linecap="round"/><line x1="2.5" y1="75.0" x2="63.5" y2="75.0" stroke-width="4.5" stroke-linecap="round"/><line x1="2.5" y1="115.0" x2="63.5" y2="115.0" stroke-width="4.5" stroke-linecap="round"/><line x1="2.5" y1="155.0" x2="63.5" y2="155.0" stroke-width="4.5" stroke-linecap="round"/><line x1="2.5" y1="195.0" x2="63.5" y2="195.0" stroke-width="4.5" stroke-linecap="round"/><path fill-rule="evenodd" color="black" d="M11.049999 107.0 L11.049999 283.0 L16.55 283.0 L16.55 235.0 L51.45 235.0 L51.45 259.0 L54.95 259.0 L54.95 203.0 L16.55 203.0 L16.55 187.0 L54.95 187.0 L54.95 131.0 L51.45 131.0 L51.45 155.0 L16.55 155.0 L16.55 107.0 zM16.55 224.5 L51.45 224.5 L51.45 213.5 L16.55 213.5 zM16.55 176.5 L51.45 176.5 L51.45 165.5 L16.55 165.5 z" /></g><g id="simple-barline"><line x1="2.5" y1="35.0" x2="41.5" y2="35.0" stroke-width="4.5" stroke-linecap="round"/><line x1="2.5" y1="75.0" x2="41.5" y2="75.0" stroke-width="4.5" stroke-linecap="round"/><line x1="2.5" y1="115.0" x2="41.5" y2="115.0" stroke-width="4.5" stroke-linecap="round"/><line x1="2.5" y1="155.0" x2="41.5" y2="155.0" stroke-width="4.5" stroke-linecap="round"/><line x1="2.5" y1="195.0" x2="41.5" y2="195.0" stroke-width="4.5" stroke-linecap="round"/><line x1="22.0" y1="203.0" x2="22.0" y2="27.0" stroke-width="4.75" stroke-linecap="square"/></g><g id="blank-27"><line x1="2.5" y1="35.0" x2="24.5" y2="35.0" stroke-width="4.5" stroke-linecap="round"/><line x1="2.5" y1="75.0" x2="24.5" y2="75.0" stroke-width="4.5" stroke-linecap="round"/><line x1="2.5" y1="115.0" x2="24.5" y2="115.0" stroke-width="4.5" stroke-linecap="round"/><line x1="2.5" y1="155.0" x2="24.5" y2="155.0" stroke-width="4.5" stroke-linecap="round"/><line x1="2.5" y1="195.0" x2="24.5" y2="195.0" stroke-width="4.5" stroke-linecap="round"/></g><g id="semibrevis-6"><line x1="2.5" y1="35.0" x2="50.5" y2="35.0" stroke-width="4.5" stroke-linecap="round"/><line x1="2.5" y1="75.0" x2="50.5" y2="75.0" stroke-width="4.5" stroke-linecap="round"/><line x1="2.5" y1="115.0" x2="50.5" y2="115.0" stroke-width="4.5" stroke-linecap="round"/><line x1="2.5" y1="155.0" x2="50.5" y2="155.0" stroke-width="4.5" stroke-linecap="round"/><line x1="2.5" y1="195.0" x2="50.5" y2="195.0" stroke-width="4.5" stroke-linecap="round"/><path fill-rule="evenodd" fill="black" d="M26.5 121.0 L3.1000004 95.0 L26.5 69.0 L49.9 95.0 zM33.022408 109.664764 L13.301713 87.752884 L19.977592 80.335236 L39.698288 102.247116 z" /></g><g id="semibrevis-3"><line x1="2.5" y1="35.0" x2="50.5" y2="35.0" stroke-width="4.5" stroke-linecap="round"/><line x1="2.5" y1="75.0" x2="50.5" y2="75.0" stroke-width="4.5" stroke-linecap="round"/><line x1="2.5" y1="115.0" x2="50.5" y2="115.0" stroke-width="4.5" stroke-linecap="round"/><line x1="2.5" y1="155.0" x2="50.5" y2="155.0" stroke-width="4.5" stroke-linecap="round"/><line x1="2.5" y1="195.0" x2="50.5" y2="195.0" stroke-width="4.5" stroke-linecap="round"/><path fill-rule="evenodd" fill="black" d="M26.5 181.0 L3.1000004 155.0 L26.5 129.0 L49.9 155.0 zM33.022408 169.66476 L13.301713 147.75288 L19.977592 140.33524 L39.698288 162.24712 z" /></g><g id="blank-38"><line x1="2.5" y1="35.0" x2="35.5" y2="35.0" stroke-width="4.5" stroke-linecap="round"/><line x1="2.5" y1="75.0" x2="35.5" y2="75.0" stroke-width="4.5" stroke-linecap="round"/><line x1="2.5" y1="115.0" x2="35.5" y2="115.0" stroke-width="4.5" stroke-linecap="round"/><line x1="2.5" y1="155.0" x2="35.5" y2="155.0" stroke-width="4.5" stroke-linecap="round"/><line x1="2.5" y1="195.0" x2="35.5" y2="195.0" stroke-width="4.5" stroke-linecap="round"/></g><g id="c-clef-7"><line x1="2.5" y1="35.0" x2="63.5" y2="35.0" stroke-width="4.5" stroke-linecap="round"/><line x1="2.5" y1="75.0" x2="63.5" y2="75.0" stroke-width="4.5" stroke-linecap="round"/><line x1="2.5" y1="115.0" x2="63.5" y2="115.0" stroke-width="4.5" stroke-linecap="round"/><line x1="2.5" y1="155.0" x2="63.5" y2="155.0" stroke-width="4.5" stroke-linecap="round"/><line x1="2.5" y1="195.0" x2="63.5" y2="195.0" stroke-width="4.5" stroke-linecap="round"/><path fill-rule="evenodd" color="black" d="M11.049999 -5.0 L11.049999 203.0 L16.55 203.0 L16.55 115.0 L51.45 115.0 L51.45 139.0 L54.95 139.0 L54.95 83.0 L16.55 83.0 L16.55 67.0 L54.95 67.0 L54.95 11.0 L51.45 11.0 L51.45 35.0 L16.55 35.0 L16.55 -5.0 zM16.55 104.5 L51.45 104.5 L51.45 93.5 L16.55 93.5 zM16.55 56.5 L51.45 56.5 L51.45 45.5 L16.55 45.5 z" /></g></defs><text x="1805" y="523" font-size="58" text-anchor="left" alignment-baseline="hanging" font-weight="normal" font-family="Times, serif" font-style="normal" stroke="black" fill="black">compoſto</text><text x="1415" y="523" font-size="58" text-anchor="left" alignment-baseline="hanging" font-weight="normal" font-family="Times, serif" font-style="normal" stroke="black" fill="black">compoſto</text><text x="1117" y="523" font-size="58" text-anchor="left" alignment-baseline="hanging" font-weight="normal" font-family="Times, serif" font-style="normal" stroke="black" fill="black">incompoſto</text><text x="819" y="523" font-size="58" text-anchor="left" alignment-baseline="hanging" font-weight="normal" font-family="Times, serif" font-style="normal" stroke="black" fill="black">incompoſto</text><text x="371" y="523" font-size="58" text-anchor="left" alignment-baseline="hanging" font-weight="normal" font-family="Times, serif" font-style="normal" stroke="black" fill="black">incompoſto</text><text x="67" y="523" font-size="58" text-anchor="left" alignment-baseline="hanging" font-weight="normal" font-family="Times, serif" font-style="normal" stroke="black" fill="black">incompoſto</text><text x="1811" y="455" font-size="58" text-anchor="left" alignment-baseline="hanging" font-weight="normal" font-family="Times, serif" font-style="normal" stroke="black" fill="black">gradi del ᴛrit.</text><text x="1425" y="455" font-size="58" text-anchor="left" alignment-baseline="hanging" font-weight="normal" font-family="Times, serif" font-style="normal" stroke="black" fill="black">gradi del Trit.</text><text x="1120" y="455" font-size="58" text-anchor="left" alignment-baseline="hanging" font-weight="normal" font-family="Times, serif" font-style="normal" stroke="black" fill="black">ſalto di ᴛri.</text><text x="822" y="455" font-size="58" text-anchor="left" alignment-baseline="hanging" font-weight="normal" font-family="Times, serif" font-style="normal" stroke="black" fill="black">ſalto di ᴛri.</text><text x="379" y="455" font-size="58" text-anchor="left" alignment-baseline="hanging" font-weight="normal" font-family="Times, serif" font-style="normal" stroke="black" fill="black">ſalto di ᴛri.</text><text x="68" y="455" font-size="58" text-anchor="left" alignment-baseline="hanging" font-weight="normal" font-family="Times, serif" font-style="normal" stroke="black" fill="black">ſalto di ᴛrit.</text><use xlink:href="#simple-barline" x="2174.094" y="135"/><use xlink:href="#semibrevis-4" x="2122.1882" y="135"/><use xlink:href="#blank-38" x="2085.2825" y="135"/><use xlink:href="#semibrevis-5" x="2033.3767" y="135"/><use xlink:href="#blank-38" x="1996.4711" y="135"/><use xlink:href="#semibrevis-6" x="1944.5654" y="135"/><use xlink:href="#blank-38" x="1907.6598" y="135"/><use xlink:href="#semibrevis-7" x="1855.7542" y="135"/><use xlink:href="#blank-38" x="1818.8485" y="135"/><use xlink:href="#simple-barline" x="1775.9429" y="135"/><use xlink:href="#blank-38" x="1739.0372" y="135"/><use xlink:href="#semibrevis-7" x="1687.1316" y="135"/><use xlink:href="#blank-22" x="1666.226" y="135"/><use xlink:href="#semibrevis-6" x="1614.3203" y="135"/><use xlink:href="#blank-22" x="1593.4147" y="135"/><use xlink:href="#semibrevis-5" x="1541.509" y="135"/><use xlink:href="#blank-22" x="1520.6034" y="135"/><use xlink:href="#semibrevis-4" x="1468.6978" y="135"/><use xlink:href="#blank-38" x="1431.7921" y="135"/><use xlink:href="#simple-barline" x="1388.8865" y="135"/><use xlink:href="#blank-38" x="1351.9808" y="135"/><use xlink:href="#semibrevis-4" x="1300.0752" y="135"/><use xlink:href="#blank-38" x="1263.1696" y="135"/><use xlink:href="#blank-38" x="1226.2639" y="135"/><use xlink:href="#semibrevis-7" x="1174.3583" y="135"/><use xlink:href="#blank-38" x="1137.4526" y="135"/><use xlink:href="#simple-barline" x="1094.547" y="135"/><use xlink:href="#blank-38" x="1057.6414" y="135"/><use xlink:href="#blank-27" x="1031.7357" y="135"/><use xlink:href="#semibrevis-7" x="979.83" y="135"/><use xlink:href="#blank-38" x="942.9244" y="135"/><use xlink:href="#blank-38" x="906.01874" y="135"/><use xlink:href="#semibrevis-4" x="854.1131" y="135"/><use xlink:href="#blank-27" x="828.20746" y="135"/><use xlink:href="#c-clef-1" x="763.3018" y="135"/><use xlink:href="#blank-38" x="726.3962" y="135"/><use xlink:href="#blank-38" x="689.49054" y="135"/><use xlink:href="#simple-barline" x="646.5849" y="135"/><use xlink:href="#blank-38" x="609.67926" y="135"/><use xlink:href="#semibrevis-3" x="557.7736" y="135"/><use xlink:href="#blank-38" x="520.868" y="135"/><use xlink:href="#blank-38" x="483.9623" y="135"/><use xlink:href="#semibrevis-6" x="432.05664" y="135"/><use xlink:href="#blank-38" x="395.15097" y="135"/><use xlink:href="#simple-barline" x="352.2453" y="135"/><use xlink:href="#blank-27" x="326.33963" y="135"/><use xlink:href="#blank-38" x="289.43396" y="135"/><use xlink:href="#semibrevis-6" x="237.52829" y="135"/><use xlink:href="#blank-38" x="200.62263" y="135"/><use xlink:href="#blank-38" x="163.71698" y="135"/><use xlink:href="#semibrevis-3" x="111.811325" y="135"/><use xlink:href="#blank-38" x="74.90566" y="135"/><use xlink:href="#c-clef-7" x="10" y="135"/><text x="469" y="68" font-size="58" text-anchor="left" alignment-baseline="hanging" textLength="1239"  font-weight="normal" font-family="Times, serif" font-style="normal" stroke="black" fill="black">ᴇſſempio del ᴛritono naturale,incompoſto et compoſto.</text></svg>