<?xml version="1.0" standalone="no"?>
<!DOCTYPE svg PUBLIC "-//W3C//DTD SVG 1.1//EN" "http://www.w3.org/Graphics/SVG/1.1/DTD/svg11.dtd">
<svg stroke="black" width="1110.0" viewBox="0 0 2220.0 640.0" id="b1-c32-m1-a" version="1.1"
    xmlns="http://www.w3.org/2000/svg"
    xmlns:xlink="http://www.w3.org/1999/xlink"><rect width="100%" height="100%" fill="white"/><defs><g id="semibrevis-7"><line x1="2.5" y1="35.0" x2="50.5" y2="35.0" stroke-width="4.5" stroke-linecap="round"/><line x1="2.5" y1="75.0" x2="50.5" y2="75.0" stroke-width="4.5" stroke-linecap="round"/><line x1="2.5" y1="115.0" x2="50.5" y2="115.0" stroke-width="4.5" stroke-linecap="round"/><line x1="2.5" y1="155.0" x2="50.5" y2="155.0" stroke-width="4.5" stroke-linecap="round"/><line x1="2.5" y1="195.0" x2="50.5" y2="195.0" stroke-width="4.5" stroke-linecap="round"/><path fill-rule="evenodd" fill="black" d="M26.5 101.0 L3.1000004 75.0 L26.5 49.0 L49.9 75.0 zM33.022408 89.664764 L13.301713 67.752884 L19.977592 60.335236 L39.698288 82.247116 z" /></g><g id="semibrevis-4"><line x1="2.5" y1="35.0" x2="50.5" y2="35.0" stroke-width="4.5" stroke-linecap="round"/><line x1="2.5" y1="75.0" x2="50.5" y2="75.0" stroke-width="4.5" stroke-linecap="round"/><line x1="2.5" y1="115.0" x2="50.5" y2="115.0" stroke-width="4.5" stroke-linecap="round"/><line x1="2.5" y1="155.0" x2="50.5" y2="155.0" stroke-width="4.5" stroke-linecap="round"/><line x1="2.5" y1="195.0" x2="50.5" y2="195.0" stroke-width="4.5" stroke-linecap="round"/><path fill-rule="evenodd" fill="black" d="M26.5 161.0 L3.1000004 135.0 L26.5 109.0 L49.9 135.0 zM33.022408 149.66476 L13.301713 127.752884 L19.977592 120.335236 L39.698288 142.24712 z" /></g><g id="semibrevis-6"><line x1="2.5" y1="35.0" x2="50.5" y2="35.0" stroke-width="4.5" stroke-linecap="round"/><line x1="2.5" y1="75.0" x2="50.5" y2="75.0" stroke-width="4.5" stroke-linecap="round"/><line x1="2.5" y1="115.0" x2="50.5" y2="115.0" stroke-width="4.5" stroke-linecap="round"/><line x1="2.5" y1="155.0" x2="50.5" y2="155.0" stroke-width="4.5" stroke-linecap="round"/><line x1="2.5" y1="195.0" x2="50.5" y2="195.0" stroke-width="4.5" stroke-linecap="round"/><path fill-rule="evenodd" fill="black" d="M26.5 121.0 L3.1000004 95.0 L26.5 69.0 L49.9 95.0 zM33.022408 109.664764 L13.301713 87.752884 L19.977592 80.335236 L39.698288 102.247116 z" /></g><g id="semibrevis-3"><line x1="2.5" y1="35.0" x2="50.5" y2="35.0" stroke-width="4.5" stroke-linecap="round"/><line x1="2.5" y1="75.0" x2="50.5" y2="75.0" stroke-width="4.5" stroke-linecap="round"/><line x1="2.5" y1="115.0" x2="50.5" y2="115.0" stroke-width="4.5" stroke-linecap="round"/><line x1="2.5" y1="155.0" x2="50.5" y2="155.0" stroke-width="4.5" stroke-linecap="round"/><line x1="2.5" y1="195.0" x2="50.5" y2="195.0" stroke-width="4.5" stroke-linecap="round"/><path fill-rule="evenodd" fill="black" d="M26.5 181.0 L3.1000004 155.0 L26.5 129.0 L49.9 155.0 zM33.022408 169.66476 L13.301713 147.75288 L19.977592 140.33524 L39.698288 162.24712 z" /></g><g id="simple-barline"><line x1="2.5" y1="35.0" x2="41.5" y2="35.0" stroke-width="4.5" stroke-linecap="round"/><line x1="2.5" y1="75.0" x2="41.5" y2="75.0" stroke-width="4.5" stroke-linecap="round"/><line x1="2.5" y1="115.0" x2="41.5" y2="115.0" stroke-width="4.5" stroke-linecap="round"/><line x1="2.5" y1="155.0" x2="41.5" y2="155.0" stroke-width="4.5" stroke-linecap="round"/><line x1="2.5" y1="195.0" x2="41.5" y2="195.0" stroke-width="4.5" stroke-linecap="round"/><line x1="22.0" y1="203.0" x2="22.0" y2="27.0" stroke-width="4.75" stroke-linecap="square"/></g><g id="blank-27"><line x1="2.5" y1="35.0" x2="24.5" y2="35.0" stroke-width="4.5" stroke-linecap="round"/><line x1="2.5" y1="75.0" x2="24.5" y2="75.0" stroke-width="4.5" stroke-linecap="round"/><line x1="2.5" y1="115.0" x2="24.5" y2="115.0" stroke-width="4.5" stroke-linecap="round"/><line x1="2.5" y1="155.0" x2="24.5" y2="155.0" stroke-width="4.5" stroke-linecap="round"/><line x1="2.5" y1="195.0" x2="24.5" y2="195.0" stroke-width="4.5" stroke-linecap="round"/></g><g id="semibrevis-5"><line x1="2.5" y1="35.0" x2="50.5" y2="35.0" stroke-width="4.5" stroke-linecap="round"/><line x1="2.5" y1="75.0" x2="50.5" y2="75.0" stroke-width="4.5" stroke-linecap="round"/><line x1="2.5" y1="115.0" x2="50.5" y2="115.0" stroke-width="4.5" stroke-linecap="round"/><line x1="2.5" y1="155.0" x2="50.5" y2="155.0" stroke-width="4.5" stroke-linecap="round"/><line x1="2.5" y1="195.0" x2="50.5" y2="195.0" stroke-width="4.5" stroke-linecap="round"/><path fill-rule="evenodd" fill="black" d="M26.5 141.0 L3.1000004 115.0 L26.5 89.0 L49.9 115.0 zM33.022408 129.66476 L13.301713 107.752884 L19.977592 100.335236 L39.698288 122.247116 z" /></g><g id="blank-38"><line x1="2.5" y1="35.0" x2="35.5" y2="35.0" stroke-width="4.5" stroke-linecap="round"/><line x1="2.5" y1="75.0" x2="35.5" y2="75.0" stroke-width="4.5" stroke-linecap="round"/><line x1="2.5" y1="115.0" x2="35.5" y2="115.0" stroke-width="4.5" stroke-linecap="round"/><line x1="2.5" y1="155.0" x2="35.5" y2="155.0" stroke-width="4.5" stroke-linecap="round"/><line x1="2.5" y1="195.0" x2="35.5" y2="195.0" stroke-width="4.5" stroke-linecap="round"/></g><g id="semibrevis-2"><line x1="2.5" y1="35.0" x2="50.5" y2="35.0" stroke-width="4.5" stroke-linecap="round"/><line x1="2.5" y1="75.0" x2="50.5" y2="75.0" stroke-width="4.5" stroke-linecap="round"/><line x1="2.5" y1="115.0" x2="50.5" y2="115.0" stroke-width="4.5" stroke-linecap="round"/><line x1="2.5" y1="155.0" x2="50.5" y2="155.0" stroke-width="4.5" stroke-linecap="round"/><line x1="2.5" y1="195.0" x2="50.5" y2="195.0" stroke-width="4.5" stroke-linecap="round"/><path fill-rule="evenodd" fill="black" d="M26.5 201.0 L3.1000004 175.0 L26.5 149.0 L49.9 175.0 zM33.022408 189.66476 L13.301713 167.75288 L19.977592 160.33524 L39.698288 182.24712 z" /></g><g id="blank-22"><line x1="2.5" y1="35.0" x2="19.5" y2="35.0" stroke-width="4.5" stroke-linecap="round"/><line x1="2.5" y1="75.0" x2="19.5" y2="75.0" stroke-width="4.5" stroke-linecap="round"/><line x1="2.5" y1="115.0" x2="19.5" y2="115.0" stroke-width="4.5" stroke-linecap="round"/><line x1="2.5" y1="155.0" x2="19.5" y2="155.0" stroke-width="4.5" stroke-linecap="round"/><line x1="2.5" y1="195.0" x2="19.5" y2="195.0" stroke-width="4.5" stroke-linecap="round"/></g><g id="f-clef-part-7"><line x1="2.5" y1="35.0" x2="42.5" y2="35.0" stroke-width="4.5" stroke-linecap="round"/><line x1="2.5" y1="75.0" x2="42.5" y2="75.0" stroke-width="4.5" stroke-linecap="round"/><line x1="2.5" y1="115.0" x2="42.5" y2="115.0" stroke-width="4.5" stroke-linecap="round"/><line x1="2.5" y1="155.0" x2="42.5" y2="155.0" stroke-width="4.5" stroke-linecap="round"/><line x1="2.5" y1="195.0" x2="42.5" y2="195.0" stroke-width="4.5" stroke-linecap="round"/><path fill="black" d="M21.125 107.0 L23.875 107.0 L24.2875 191.0 L20.7125 191.0 z" /><path fill-rule="evenodd" fill="black" d="M22.5 121.0 L-0.8999996 95.0 L22.5 69.0 L45.9 95.0 zM29.022408 109.664764 L9.301713 87.752884 L15.977592 80.335236 L35.698288 102.247116 z" /><path fill-rule="evenodd" fill="black" d="M22.5 81.0 L-0.8999996 55.0 L22.5 29.0 L45.9 55.0 zM29.022408 69.664764 L9.301713 47.752884 L15.977592 40.335236 L35.698288 62.247116 z" /></g><g id="maxima-7"><line x1="2.5" y1="35.0" x2="65.5" y2="35.0" stroke-width="4.5" stroke-linecap="round"/><line x1="2.5" y1="75.0" x2="65.5" y2="75.0" stroke-width="4.5" stroke-linecap="round"/><line x1="2.5" y1="115.0" x2="65.5" y2="115.0" stroke-width="4.5" stroke-linecap="round"/><line x1="2.5" y1="155.0" x2="65.5" y2="155.0" stroke-width="4.5" stroke-linecap="round"/><line x1="2.5" y1="195.0" x2="65.5" y2="195.0" stroke-width="4.5" stroke-linecap="round"/><path fill-rule="evenodd" fill="black" d="M14.4 103.0 L14.4 47.0 L17.15 47.0 L17.15 95.0 L50.85 95.0 L50.85 47.0 L53.6 47.0 L53.6 103.0 L50.85 103.0 L50.85 55.0 L17.15 55.0 L17.15 103.0 zM17.15 67.5 L17.15 82.5 L50.85 82.5 L50.85 67.5 z" /><path fill="black" d="M50.85 103.0 L53.6 103.0 L54.012497 187.0 L50.4375 187.0 z" /></g></defs><text x="1807" y="618" font-size="58" text-anchor="left" alignment-baseline="hanging" font-weight="normal" font-family="Times, serif" font-style="normal" stroke="black" fill="black">de gradi</text><text x="1432" y="618" font-size="58" text-anchor="left" alignment-baseline="hanging" font-weight="normal" font-family="Times, serif" font-style="normal" stroke="black" fill="black">de gradi</text><text x="1043" y="618" font-size="58" text-anchor="left" alignment-baseline="hanging" font-weight="normal" font-family="Times, serif" font-style="normal" stroke="black" fill="black">de gradi</text><text x="725" y="618" font-size="58" text-anchor="left" alignment-baseline="hanging" font-weight="normal" font-family="Times, serif" font-style="normal" stroke="black" fill="black">incomp.</text><text x="402" y="618" font-size="58" text-anchor="left" alignment-baseline="hanging" font-weight="normal" font-family="Times, serif" font-style="normal" stroke="black" fill="black">incomp.</text><text x="93" y="618" font-size="58" text-anchor="left" alignment-baseline="hanging" font-weight="normal" font-family="Times, serif" font-style="normal" stroke="black" fill="black">incompoſta</text><text x="1803" y="538" font-size="58" text-anchor="left" alignment-baseline="hanging" font-weight="normal" font-family="Times, serif" font-style="normal" stroke="black" fill="black">quarta compoſta</text><text x="1438" y="538" font-size="58" text-anchor="left" alignment-baseline="hanging" font-weight="normal" font-family="Times, serif" font-style="normal" stroke="black" fill="black">quarta comp.</text><text x="1049" y="538" font-size="58" text-anchor="left" alignment-baseline="hanging" font-weight="normal" font-family="Times, serif" font-style="normal" stroke="black" fill="black">quarta compò.</text><text x="745" y="538" font-size="58" text-anchor="left" alignment-baseline="hanging" font-weight="normal" font-family="Times, serif" font-style="normal" stroke="black" fill="black">ſalto di 4.</text><text x="404" y="538" font-size="58" text-anchor="left" alignment-baseline="hanging" font-weight="normal" font-family="Times, serif" font-style="normal" stroke="black" fill="black">ſalto di 4.</text><text x="99" y="538" font-size="58" text-anchor="left" alignment-baseline="hanging" font-weight="normal" font-family="Times, serif" font-style="normal" stroke="black" fill="black">ſalto di 4.</text><use xlink:href="#simple-barline" x="2167.5278" y="250"/><use xlink:href="#semibrevis-7" x="2116.0562" y="250"/><use xlink:href="#blank-38" x="2079.5845" y="250"/><use xlink:href="#semibrevis-6" x="2028.1127" y="250"/><use xlink:href="#blank-38" x="1991.641" y="250"/><use xlink:href="#semibrevis-5" x="1940.1693" y="250"/><use xlink:href="#blank-38" x="1903.6976" y="250"/><use xlink:href="#semibrevis-4" x="1852.226" y="250"/><use xlink:href="#blank-38" x="1815.7543" y="250"/><use xlink:href="#simple-barline" x="1773.2826" y="250"/><use xlink:href="#semibrevis-6" x="1721.8109" y="250"/><use xlink:href="#blank-38" x="1685.3392" y="250"/><use xlink:href="#semibrevis-5" x="1633.8676" y="250"/><use xlink:href="#blank-38" x="1597.3959" y="250"/><use xlink:href="#semibrevis-4" x="1545.9242" y="250"/><use xlink:href="#blank-38" x="1509.4525" y="250"/><use xlink:href="#semibrevis-3" x="1457.9808" y="250"/><use xlink:href="#simple-barline" x="1415.5092" y="250"/><use xlink:href="#semibrevis-5" x="1364.0375" y="250"/><use xlink:href="#blank-38" x="1327.5658" y="250"/><use xlink:href="#semibrevis-4" x="1276.0941" y="250"/><use xlink:href="#blank-38" x="1239.6224" y="250"/><use xlink:href="#semibrevis-3" x="1188.1508" y="250"/><use xlink:href="#blank-38" x="1151.6791" y="250"/><use xlink:href="#semibrevis-2" x="1100.2074" y="250"/><use xlink:href="#blank-38" x="1063.7357" y="250"/><use xlink:href="#simple-barline" x="1021.264" y="250"/><use xlink:href="#blank-38" x="984.7923" y="250"/><use xlink:href="#semibrevis-7" x="933.3206" y="250"/><use xlink:href="#blank-22" x="912.84894" y="250"/><use xlink:href="#blank-38" x="876.37726" y="250"/><use xlink:href="#blank-38" x="839.9056" y="250"/><use xlink:href="#semibrevis-4" x="788.4339" y="250"/><use xlink:href="#blank-38" x="751.9622" y="250"/><use xlink:href="#simple-barline" x="709.49054" y="250"/><use xlink:href="#blank-38" x="673.01886" y="250"/><use xlink:href="#blank-27" x="647.5472" y="250"/><use xlink:href="#semibrevis-6" x="596.0755" y="250"/><use xlink:href="#blank-38" x="559.6038" y="250"/><use xlink:href="#blank-38" x="523.13214" y="250"/><use xlink:href="#semibrevis-3" x="471.66043" y="250"/><use xlink:href="#blank-38" x="435.18872" y="250"/><use xlink:href="#blank-27" x="409.717" y="250"/><use xlink:href="#simple-barline" x="367.2453" y="250"/><use xlink:href="#blank-27" x="341.7736" y="250"/><use xlink:href="#blank-27" x="316.30188" y="250"/><use xlink:href="#semibrevis-5" x="264.83017" y="250"/><use xlink:href="#blank-38" x="228.35847" y="250"/><use xlink:href="#blank-38" x="191.88678" y="250"/><use xlink:href="#semibrevis-2" x="140.41508" y="250"/><use xlink:href="#blank-22" x="119.94339" y="250"/><use xlink:href="#f-clef-part-7" x="76.471695" y="250"/><use xlink:href="#maxima-7" x="10" y="250"/><text x="1832" y="208" font-size="58" text-anchor="left" alignment-baseline="hanging" font-weight="normal" font-family="Times, serif" font-style="normal" stroke="black" fill="black">ᴛerza Ɋuarta</text><text x="1439" y="208" font-size="58" text-anchor="left" alignment-baseline="hanging" font-weight="normal" font-family="Times, serif" font-style="normal" stroke="black" fill="black">ꜱecōda Ɋuarta</text><text x="1103" y="208" font-size="58" text-anchor="left" alignment-baseline="hanging" font-weight="normal" font-family="Times, serif" font-style="normal" stroke="black" fill="black">ᴘrima Ɋuarta</text><text x="769" y="208" font-size="58" text-anchor="left" alignment-baseline="hanging" font-weight="normal" font-family="Times, serif" font-style="normal" stroke="black" fill="black">ᴛerza Ɋuar.</text><text x="442" y="208" font-size="58" text-anchor="left" alignment-baseline="hanging" font-weight="normal" font-family="Times, serif" font-style="normal" stroke="black" fill="black">ꜱecōda Ɋuar.</text><text x="71" y="208" font-size="58" text-anchor="left" alignment-baseline="hanging" textLength="352"  font-weight="normal" font-family="Times, serif" font-style="normal" stroke="black" fill="black">ᴘrima Ɋuarta.</text><text x="182" y="68" font-size="58" text-anchor="left" alignment-baseline="hanging" textLength="1866"  font-weight="normal" font-family="Times, serif" font-style="normal" stroke="black" fill="black">ᴇſſempio del ꜱalto della Ɋuarta naturale,e du ſuoi gradi incompoſto et compoſto.</text></svg>