<?xml version="1.0" standalone="no"?>
<!DOCTYPE svg PUBLIC "-//W3C//DTD SVG 1.1//EN" "http://www.w3.org/Graphics/SVG/1.1/DTD/svg11.dtd">
<svg stroke="black" width="1114.0" viewBox="0 0 2228.0 710.0" id="b1-c5-m8-b" version="1.1"
    xmlns="http://www.w3.org/2000/svg"
    xmlns:xlink="http://www.w3.org/1999/xlink"><rect width="100%" height="100%" fill="#e3f3ff" stroke-width="0"/><defs><g id="semibrevis-2"><line x1="2.5" y1="35.0" x2="50.5" y2="35.0" stroke-width="4.5" stroke-linecap="round"/><line x1="2.5" y1="75.0" x2="50.5" y2="75.0" stroke-width="4.5" stroke-linecap="round"/><line x1="2.5" y1="115.0" x2="50.5" y2="115.0" stroke-width="4.5" stroke-linecap="round"/><line x1="2.5" y1="155.0" x2="50.5" y2="155.0" stroke-width="4.5" stroke-linecap="round"/><line x1="2.5" y1="195.0" x2="50.5" y2="195.0" stroke-width="4.5" stroke-linecap="round"/><path fill-rule="evenodd" fill="black" d="M26.5 201.0 L3.1000004 175.0 L26.5 149.0 L49.9 175.0 zM33.022408 189.66476 L13.301713 167.75288 L19.977592 160.33524 L39.698288 182.24712 z" /></g><g id="semibrevis-dot-2"><line x1="2.5" y1="35.0" x2="50.5" y2="35.0" stroke-width="4.5" stroke-linecap="round"/><line x1="2.5" y1="75.0" x2="50.5" y2="75.0" stroke-width="4.5" stroke-linecap="round"/><line x1="2.5" y1="115.0" x2="50.5" y2="115.0" stroke-width="4.5" stroke-linecap="round"/><line x1="2.5" y1="155.0" x2="50.5" y2="155.0" stroke-width="4.5" stroke-linecap="round"/><line x1="2.5" y1="195.0" x2="50.5" y2="195.0" stroke-width="4.5" stroke-linecap="round"/><path fill-rule="evenodd" fill="black" d="M26.5 201.0 L3.1000004 175.0 L26.5 149.0 L49.9 175.0 zM33.022408 189.66476 L13.301713 167.75288 L19.977592 160.33524 L39.698288 182.24712 z" /><path fill="black" d="M26.5 141.0 L20.5 135.0 L26.5 129.0 L32.5 135.0 z" /></g><g id="flat-3"><line x1="2.5" y1="35.0" x2="27.5" y2="35.0" stroke-width="4.5" stroke-linecap="round"/><line x1="2.5" y1="75.0" x2="27.5" y2="75.0" stroke-width="4.5" stroke-linecap="round"/><line x1="2.5" y1="115.0" x2="27.5" y2="115.0" stroke-width="4.5" stroke-linecap="round"/><line x1="2.5" y1="155.0" x2="27.5" y2="155.0" stroke-width="4.5" stroke-linecap="round"/><line x1="2.5" y1="195.0" x2="27.5" y2="195.0" stroke-width="4.5" stroke-linecap="round"/><path stroke="black" fill="none" stroke-width="3.25" stroke-linecap="round" d="M2.1999998 167.8 A15.360001 15.360001 0 1 0 2.1999998 142.2 " /><path fill="black" d="M0.9499998 167.8 L3.4499998 167.8 L3.5749998 39.800003 L-0.5500002 39.800003 z" /></g><g id="semibrevis-3"><line x1="2.5" y1="35.0" x2="50.5" y2="35.0" stroke-width="4.5" stroke-linecap="round"/><line x1="2.5" y1="75.0" x2="50.5" y2="75.0" stroke-width="4.5" stroke-linecap="round"/><line x1="2.5" y1="115.0" x2="50.5" y2="115.0" stroke-width="4.5" stroke-linecap="round"/><line x1="2.5" y1="155.0" x2="50.5" y2="155.0" stroke-width="4.5" stroke-linecap="round"/><line x1="2.5" y1="195.0" x2="50.5" y2="195.0" stroke-width="4.5" stroke-linecap="round"/><path fill-rule="evenodd" fill="black" d="M26.5 181.0 L3.1000004 155.0 L26.5 129.0 L49.9 155.0 zM33.022408 169.66476 L13.301713 147.75288 L19.977592 140.33524 L39.698288 162.24712 z" /></g><g id="semibrevis-dot-3"><line x1="2.5" y1="35.0" x2="50.5" y2="35.0" stroke-width="4.5" stroke-linecap="round"/><line x1="2.5" y1="75.0" x2="50.5" y2="75.0" stroke-width="4.5" stroke-linecap="round"/><line x1="2.5" y1="115.0" x2="50.5" y2="115.0" stroke-width="4.5" stroke-linecap="round"/><line x1="2.5" y1="155.0" x2="50.5" y2="155.0" stroke-width="4.5" stroke-linecap="round"/><line x1="2.5" y1="195.0" x2="50.5" y2="195.0" stroke-width="4.5" stroke-linecap="round"/><path fill-rule="evenodd" fill="black" d="M26.5 181.0 L3.1000004 155.0 L26.5 129.0 L49.9 155.0 zM33.022408 169.66476 L13.301713 147.75288 L19.977592 140.33524 L39.698288 162.24712 z" /><path fill="black" d="M26.5 101.0 L20.5 95.0 L26.5 89.0 L32.5 95.0 z" /></g><g id="semibrevis-dot-4"><line x1="2.5" y1="35.0" x2="50.5" y2="35.0" stroke-width="4.5" stroke-linecap="round"/><line x1="2.5" y1="75.0" x2="50.5" y2="75.0" stroke-width="4.5" stroke-linecap="round"/><line x1="2.5" y1="115.0" x2="50.5" y2="115.0" stroke-width="4.5" stroke-linecap="round"/><line x1="2.5" y1="155.0" x2="50.5" y2="155.0" stroke-width="4.5" stroke-linecap="round"/><line x1="2.5" y1="195.0" x2="50.5" y2="195.0" stroke-width="4.5" stroke-linecap="round"/><path fill-rule="evenodd" fill="black" d="M26.5 161.0 L3.1000004 135.0 L26.5 109.0 L49.9 135.0 zM33.022408 149.66476 L13.301713 127.752884 L19.977592 120.335236 L39.698288 142.24712 z" /><path fill="black" d="M26.5 101.0 L20.5 95.0 L26.5 89.0 L32.5 95.0 z" /></g><g id="semibrevis-4"><line x1="2.5" y1="35.0" x2="50.5" y2="35.0" stroke-width="4.5" stroke-linecap="round"/><line x1="2.5" y1="75.0" x2="50.5" y2="75.0" stroke-width="4.5" stroke-linecap="round"/><line x1="2.5" y1="115.0" x2="50.5" y2="115.0" stroke-width="4.5" stroke-linecap="round"/><line x1="2.5" y1="155.0" x2="50.5" y2="155.0" stroke-width="4.5" stroke-linecap="round"/><line x1="2.5" y1="195.0" x2="50.5" y2="195.0" stroke-width="4.5" stroke-linecap="round"/><path fill-rule="evenodd" fill="black" d="M26.5 161.0 L3.1000004 135.0 L26.5 109.0 L49.9 135.0 zM33.022408 149.66476 L13.301713 127.752884 L19.977592 120.335236 L39.698288 142.24712 z" /></g><g id="sharp-4"><line x1="2.5" y1="35.0" x2="45.5" y2="35.0" stroke-width="4.5" stroke-linecap="round"/><line x1="2.5" y1="75.0" x2="45.5" y2="75.0" stroke-width="4.5" stroke-linecap="round"/><line x1="2.5" y1="115.0" x2="45.5" y2="115.0" stroke-width="4.5" stroke-linecap="round"/><line x1="2.5" y1="155.0" x2="45.5" y2="155.0" stroke-width="4.5" stroke-linecap="round"/><line x1="2.5" y1="195.0" x2="45.5" y2="195.0" stroke-width="4.5" stroke-linecap="round"/><line x1="49.0" y1="155.0" x2="9.0" y2="115.0" stroke-width="2.5" stroke-linecap="round"/><line x1="49.0" y1="115.0" x2="9.0" y2="155.0" stroke-width="2.5" stroke-linecap="round"/><line x1="39.0" y1="155.0" x2="-1.0" y2="115.0" stroke-width="2.5" stroke-linecap="round"/><line x1="39.0" y1="115.0" x2="-1.0" y2="155.0" stroke-width="2.5" stroke-linecap="round"/></g><g id="flat-5"><line x1="2.5" y1="35.0" x2="27.5" y2="35.0" stroke-width="4.5" stroke-linecap="round"/><line x1="2.5" y1="75.0" x2="27.5" y2="75.0" stroke-width="4.5" stroke-linecap="round"/><line x1="2.5" y1="115.0" x2="27.5" y2="115.0" stroke-width="4.5" stroke-linecap="round"/><line x1="2.5" y1="155.0" x2="27.5" y2="155.0" stroke-width="4.5" stroke-linecap="round"/><line x1="2.5" y1="195.0" x2="27.5" y2="195.0" stroke-width="4.5" stroke-linecap="round"/><path stroke="black" fill="none" stroke-width="3.25" stroke-linecap="round" d="M2.1999998 127.8 A15.360001 15.360001 0 1 0 2.1999998 102.200005 " /><path fill="black" d="M0.9499998 127.8 L3.4499998 127.8 L3.5749998 -0.19999695 L-0.5500002 -0.19999695 z" /></g><g id="semibrevis-dot-5"><line x1="2.5" y1="35.0" x2="50.5" y2="35.0" stroke-width="4.5" stroke-linecap="round"/><line x1="2.5" y1="75.0" x2="50.5" y2="75.0" stroke-width="4.5" stroke-linecap="round"/><line x1="2.5" y1="115.0" x2="50.5" y2="115.0" stroke-width="4.5" stroke-linecap="round"/><line x1="2.5" y1="155.0" x2="50.5" y2="155.0" stroke-width="4.5" stroke-linecap="round"/><line x1="2.5" y1="195.0" x2="50.5" y2="195.0" stroke-width="4.5" stroke-linecap="round"/><path fill-rule="evenodd" fill="black" d="M26.5 141.0 L3.1000004 115.0 L26.5 89.0 L49.9 115.0 zM33.022408 129.66476 L13.301713 107.752884 L19.977592 100.335236 L39.698288 122.247116 z" /><path fill="black" d="M26.5 61.0 L20.5 55.0 L26.5 49.0 L32.5 55.0 z" /></g><g id="semibrevis-5"><line x1="2.5" y1="35.0" x2="50.5" y2="35.0" stroke-width="4.5" stroke-linecap="round"/><line x1="2.5" y1="75.0" x2="50.5" y2="75.0" stroke-width="4.5" stroke-linecap="round"/><line x1="2.5" y1="115.0" x2="50.5" y2="115.0" stroke-width="4.5" stroke-linecap="round"/><line x1="2.5" y1="155.0" x2="50.5" y2="155.0" stroke-width="4.5" stroke-linecap="round"/><line x1="2.5" y1="195.0" x2="50.5" y2="195.0" stroke-width="4.5" stroke-linecap="round"/><path fill-rule="evenodd" fill="black" d="M26.5 141.0 L3.1000004 115.0 L26.5 89.0 L49.9 115.0 zM33.022408 129.66476 L13.301713 107.752884 L19.977592 100.335236 L39.698288 122.247116 z" /></g><g id="sharp-5"><line x1="2.5" y1="35.0" x2="45.5" y2="35.0" stroke-width="4.5" stroke-linecap="round"/><line x1="2.5" y1="75.0" x2="45.5" y2="75.0" stroke-width="4.5" stroke-linecap="round"/><line x1="2.5" y1="115.0" x2="45.5" y2="115.0" stroke-width="4.5" stroke-linecap="round"/><line x1="2.5" y1="155.0" x2="45.5" y2="155.0" stroke-width="4.5" stroke-linecap="round"/><line x1="2.5" y1="195.0" x2="45.5" y2="195.0" stroke-width="4.5" stroke-linecap="round"/><line x1="41.3" y1="128.8" x2="13.700001" y2="101.2" stroke-width="2.5" stroke-linecap="round"/><line x1="41.3" y1="101.2" x2="13.700001" y2="128.8" stroke-width="2.5" stroke-linecap="round"/><line x1="34.3" y1="128.8" x2="6.700001" y2="101.2" stroke-width="2.5" stroke-linecap="round"/><line x1="34.3" y1="101.2" x2="6.700001" y2="128.8" stroke-width="2.5" stroke-linecap="round"/></g><g id="flat-6"><line x1="2.5" y1="35.0" x2="27.5" y2="35.0" stroke-width="4.5" stroke-linecap="round"/><line x1="2.5" y1="75.0" x2="27.5" y2="75.0" stroke-width="4.5" stroke-linecap="round"/><line x1="2.5" y1="115.0" x2="27.5" y2="115.0" stroke-width="4.5" stroke-linecap="round"/><line x1="2.5" y1="155.0" x2="27.5" y2="155.0" stroke-width="4.5" stroke-linecap="round"/><line x1="2.5" y1="195.0" x2="27.5" y2="195.0" stroke-width="4.5" stroke-linecap="round"/><path stroke="black" fill="none" stroke-width="3.25" stroke-linecap="round" d="M2.1999998 107.8 A15.360001 15.360001 0 1 0 2.1999998 82.200005 " /><path fill="black" d="M0.9499998 107.8 L3.4499998 107.8 L3.5749998 19.800003 L-0.5500002 19.800003 z" /></g><g id="semibrevis-6"><line x1="2.5" y1="35.0" x2="50.5" y2="35.0" stroke-width="4.5" stroke-linecap="round"/><line x1="2.5" y1="75.0" x2="50.5" y2="75.0" stroke-width="4.5" stroke-linecap="round"/><line x1="2.5" y1="115.0" x2="50.5" y2="115.0" stroke-width="4.5" stroke-linecap="round"/><line x1="2.5" y1="155.0" x2="50.5" y2="155.0" stroke-width="4.5" stroke-linecap="round"/><line x1="2.5" y1="195.0" x2="50.5" y2="195.0" stroke-width="4.5" stroke-linecap="round"/><path fill-rule="evenodd" fill="black" d="M26.5 121.0 L3.1000004 95.0 L26.5 69.0 L49.9 95.0 zM33.022408 109.664764 L13.301713 87.752884 L19.977592 80.335236 L39.698288 102.247116 z" /></g><g id="semibrevis-dot-6"><line x1="2.5" y1="35.0" x2="50.5" y2="35.0" stroke-width="4.5" stroke-linecap="round"/><line x1="2.5" y1="75.0" x2="50.5" y2="75.0" stroke-width="4.5" stroke-linecap="round"/><line x1="2.5" y1="115.0" x2="50.5" y2="115.0" stroke-width="4.5" stroke-linecap="round"/><line x1="2.5" y1="155.0" x2="50.5" y2="155.0" stroke-width="4.5" stroke-linecap="round"/><line x1="2.5" y1="195.0" x2="50.5" y2="195.0" stroke-width="4.5" stroke-linecap="round"/><path fill-rule="evenodd" fill="black" d="M26.5 121.0 L3.1000004 95.0 L26.5 69.0 L49.9 95.0 zM33.022408 109.664764 L13.301713 87.752884 L19.977592 80.335236 L39.698288 102.247116 z" /><path fill="black" d="M26.5 61.0 L20.5 55.0 L26.5 49.0 L32.5 55.0 z" /></g><g id="semibrevis-7"><line x1="2.5" y1="35.0" x2="50.5" y2="35.0" stroke-width="4.5" stroke-linecap="round"/><line x1="2.5" y1="75.0" x2="50.5" y2="75.0" stroke-width="4.5" stroke-linecap="round"/><line x1="2.5" y1="115.0" x2="50.5" y2="115.0" stroke-width="4.5" stroke-linecap="round"/><line x1="2.5" y1="155.0" x2="50.5" y2="155.0" stroke-width="4.5" stroke-linecap="round"/><line x1="2.5" y1="195.0" x2="50.5" y2="195.0" stroke-width="4.5" stroke-linecap="round"/><path fill-rule="evenodd" fill="black" d="M26.5 101.0 L3.1000004 75.0 L26.5 49.0 L49.9 75.0 zM33.022408 89.664764 L13.301713 67.752884 L19.977592 60.335236 L39.698288 82.247116 z" /></g><g id="simple-barline"><line x1="2.5" y1="35.0" x2="41.5" y2="35.0" stroke-width="4.5" stroke-linecap="round"/><line x1="2.5" y1="75.0" x2="41.5" y2="75.0" stroke-width="4.5" stroke-linecap="round"/><line x1="2.5" y1="115.0" x2="41.5" y2="115.0" stroke-width="4.5" stroke-linecap="round"/><line x1="2.5" y1="155.0" x2="41.5" y2="155.0" stroke-width="4.5" stroke-linecap="round"/><line x1="2.5" y1="195.0" x2="41.5" y2="195.0" stroke-width="4.5" stroke-linecap="round"/><line x1="22.0" y1="203.0" x2="22.0" y2="27.0" stroke-width="4.75" stroke-linecap="square"/></g><g id="semibrevis-dot-8"><line x1="2.5" y1="35.0" x2="50.5" y2="35.0" stroke-width="4.5" stroke-linecap="round"/><line x1="2.5" y1="75.0" x2="50.5" y2="75.0" stroke-width="4.5" stroke-linecap="round"/><line x1="2.5" y1="115.0" x2="50.5" y2="115.0" stroke-width="4.5" stroke-linecap="round"/><line x1="2.5" y1="155.0" x2="50.5" y2="155.0" stroke-width="4.5" stroke-linecap="round"/><line x1="2.5" y1="195.0" x2="50.5" y2="195.0" stroke-width="4.5" stroke-linecap="round"/><path fill-rule="evenodd" fill="black" d="M26.5 81.0 L3.1000004 55.0 L26.5 29.0 L49.9 55.0 zM33.022408 69.664764 L13.301713 47.752884 L19.977592 40.335236 L39.698288 62.247116 z" /><path fill="black" d="M26.5 21.0 L20.5 15.0 L26.5 9.0 L32.5 15.0 z" /></g><g id="semibrevis-8"><line x1="2.5" y1="35.0" x2="50.5" y2="35.0" stroke-width="4.5" stroke-linecap="round"/><line x1="2.5" y1="75.0" x2="50.5" y2="75.0" stroke-width="4.5" stroke-linecap="round"/><line x1="2.5" y1="115.0" x2="50.5" y2="115.0" stroke-width="4.5" stroke-linecap="round"/><line x1="2.5" y1="155.0" x2="50.5" y2="155.0" stroke-width="4.5" stroke-linecap="round"/><line x1="2.5" y1="195.0" x2="50.5" y2="195.0" stroke-width="4.5" stroke-linecap="round"/><path fill-rule="evenodd" fill="black" d="M26.5 81.0 L3.1000004 55.0 L26.5 29.0 L49.9 55.0 zM33.022408 69.664764 L13.301713 47.752884 L19.977592 40.335236 L39.698288 62.247116 z" /></g><g id="sharp-8"><line x1="2.5" y1="35.0" x2="45.5" y2="35.0" stroke-width="4.5" stroke-linecap="round"/><line x1="2.5" y1="75.0" x2="45.5" y2="75.0" stroke-width="4.5" stroke-linecap="round"/><line x1="2.5" y1="115.0" x2="45.5" y2="115.0" stroke-width="4.5" stroke-linecap="round"/><line x1="2.5" y1="155.0" x2="45.5" y2="155.0" stroke-width="4.5" stroke-linecap="round"/><line x1="2.5" y1="195.0" x2="45.5" y2="195.0" stroke-width="4.5" stroke-linecap="round"/><line x1="49.0" y1="75.0" x2="9.0" y2="35.0" stroke-width="2.5" stroke-linecap="round"/><line x1="49.0" y1="35.0" x2="9.0" y2="75.0" stroke-width="2.5" stroke-linecap="round"/><line x1="39.0" y1="75.0" x2="-1.0" y2="35.0" stroke-width="2.5" stroke-linecap="round"/><line x1="39.0" y1="35.0" x2="-1.0" y2="75.0" stroke-width="2.5" stroke-linecap="round"/></g><g id="semibrevis-dot-9"><line x1="2.5" y1="35.0" x2="50.5" y2="35.0" stroke-width="4.5" stroke-linecap="round"/><line x1="2.5" y1="75.0" x2="50.5" y2="75.0" stroke-width="4.5" stroke-linecap="round"/><line x1="2.5" y1="115.0" x2="50.5" y2="115.0" stroke-width="4.5" stroke-linecap="round"/><line x1="2.5" y1="155.0" x2="50.5" y2="155.0" stroke-width="4.5" stroke-linecap="round"/><line x1="2.5" y1="195.0" x2="50.5" y2="195.0" stroke-width="4.5" stroke-linecap="round"/><path fill-rule="evenodd" fill="black" d="M26.5 61.0 L3.1000004 35.0 L26.5 9.0 L49.9 35.0 zM33.022408 49.664764 L13.301713 27.752882 L19.977592 20.335236 L39.698288 42.247116 z" /><path fill="black" d="M26.5 1.0 L20.5 -5.0 L26.5 -11.0 L32.5 -5.0 z" /></g><g id="flat-9"><line x1="2.5" y1="35.0" x2="27.5" y2="35.0" stroke-width="4.5" stroke-linecap="round"/><line x1="2.5" y1="75.0" x2="27.5" y2="75.0" stroke-width="4.5" stroke-linecap="round"/><line x1="2.5" y1="115.0" x2="27.5" y2="115.0" stroke-width="4.5" stroke-linecap="round"/><line x1="2.5" y1="155.0" x2="27.5" y2="155.0" stroke-width="4.5" stroke-linecap="round"/><line x1="2.5" y1="195.0" x2="27.5" y2="195.0" stroke-width="4.5" stroke-linecap="round"/><path stroke="black" fill="none" stroke-width="3.25" stroke-linecap="round" d="M2.1999998 47.8 A15.360001 15.360001 0 1 0 2.1999998 22.199999 " /><path fill="black" d="M0.9499998 47.8 L3.4499998 47.8 L3.5749998 -24.2 L-0.5500002 -24.2 z" /></g><g id="semibrevis-9"><line x1="2.5" y1="35.0" x2="50.5" y2="35.0" stroke-width="4.5" stroke-linecap="round"/><line x1="2.5" y1="75.0" x2="50.5" y2="75.0" stroke-width="4.5" stroke-linecap="round"/><line x1="2.5" y1="115.0" x2="50.5" y2="115.0" stroke-width="4.5" stroke-linecap="round"/><line x1="2.5" y1="155.0" x2="50.5" y2="155.0" stroke-width="4.5" stroke-linecap="round"/><line x1="2.5" y1="195.0" x2="50.5" y2="195.0" stroke-width="4.5" stroke-linecap="round"/><path fill-rule="evenodd" fill="black" d="M26.5 61.0 L3.1000004 35.0 L26.5 9.0 L49.9 35.0 zM33.022408 49.664764 L13.301713 27.752882 L19.977592 20.335236 L39.698288 42.247116 z" /></g><g id="blank-22"><line x1="2.5" y1="35.0" x2="19.5" y2="35.0" stroke-width="4.5" stroke-linecap="round"/><line x1="2.5" y1="75.0" x2="19.5" y2="75.0" stroke-width="4.5" stroke-linecap="round"/><line x1="2.5" y1="115.0" x2="19.5" y2="115.0" stroke-width="4.5" stroke-linecap="round"/><line x1="2.5" y1="155.0" x2="19.5" y2="155.0" stroke-width="4.5" stroke-linecap="round"/><line x1="2.5" y1="195.0" x2="19.5" y2="195.0" stroke-width="4.5" stroke-linecap="round"/></g><g id="f-clef-part-7"><line x1="2.5" y1="35.0" x2="42.5" y2="35.0" stroke-width="4.5" stroke-linecap="round"/><line x1="2.5" y1="75.0" x2="42.5" y2="75.0" stroke-width="4.5" stroke-linecap="round"/><line x1="2.5" y1="115.0" x2="42.5" y2="115.0" stroke-width="4.5" stroke-linecap="round"/><line x1="2.5" y1="155.0" x2="42.5" y2="155.0" stroke-width="4.5" stroke-linecap="round"/><line x1="2.5" y1="195.0" x2="42.5" y2="195.0" stroke-width="4.5" stroke-linecap="round"/><path fill="black" d="M21.125 107.0 L23.875 107.0 L24.2875 191.0 L20.7125 191.0 z" /><path fill-rule="evenodd" fill="black" d="M22.5 121.0 L-0.8999996 95.0 L22.5 69.0 L45.9 95.0 zM29.022408 109.664764 L9.301713 87.752884 L15.977592 80.335236 L35.698288 102.247116 z" /><path fill-rule="evenodd" fill="black" d="M22.5 81.0 L-0.8999996 55.0 L22.5 29.0 L45.9 55.0 zM29.022408 69.664764 L9.301713 47.752884 L15.977592 40.335236 L35.698288 62.247116 z" /></g><g id="maxima-7"><line x1="2.5" y1="35.0" x2="65.5" y2="35.0" stroke-width="4.5" stroke-linecap="round"/><line x1="2.5" y1="75.0" x2="65.5" y2="75.0" stroke-width="4.5" stroke-linecap="round"/><line x1="2.5" y1="115.0" x2="65.5" y2="115.0" stroke-width="4.5" stroke-linecap="round"/><line x1="2.5" y1="155.0" x2="65.5" y2="155.0" stroke-width="4.5" stroke-linecap="round"/><line x1="2.5" y1="195.0" x2="65.5" y2="195.0" stroke-width="4.5" stroke-linecap="round"/><path fill-rule="evenodd" fill="black" d="M14.4 103.0 L14.4 47.0 L17.15 47.0 L17.15 95.0 L50.85 95.0 L50.85 47.0 L53.6 47.0 L53.6 103.0 L50.85 103.0 L50.85 55.0 L17.15 55.0 L17.15 103.0 zM17.15 67.5 L17.15 82.5 L50.85 82.5 L50.85 67.5 z" /><path fill="black" d="M50.85 103.0 L53.6 103.0 L54.012497 187.0 L50.4375 187.0 z" /></g></defs><text x="1274" y="688" font-size="58" text-anchor="left" alignment-baseline="baseline" textLength="294"  font-weight="normal" font-family="Times, serif" font-style="normal" stroke="black" fill="black">re. ꝑ aſcend.</text><text x="848" y="688" font-size="58" text-anchor="left" alignment-baseline="baseline" textLength="336"  font-weight="normal" font-family="Times, serif" font-style="normal" stroke="black" fill="black">mi. per aſcend.</text><text x="1982" y="618" font-size="58" text-anchor="left" alignment-baseline="baseline" textLength="218"  font-weight="normal" font-family="Times, serif" font-style="normal" stroke="black" fill="black">fa.mi.mi.</text><text x="1182" y="618" font-size="58" text-anchor="left" alignment-baseline="baseline" textLength="434"  font-weight="normal" font-family="Times, serif" font-style="normal" stroke="black" fill="black">ꝑ ♮.ſol.fa.la.ſol.fa.</text><text x="834" y="618" font-size="58" text-anchor="left" alignment-baseline="baseline" textLength="340"  font-weight="normal" font-family="Times, serif" font-style="normal" stroke="black" fill="black">la.ſol.fa.la.ſol.</text><text x="534" y="618" font-size="58" text-anchor="left" alignment-baseline="baseline" textLength="218"  font-weight="normal" font-family="Times, serif" font-style="normal" stroke="black" fill="black">fa.mi.mi.</text><text x="100" y="618" font-size="58" text-anchor="left" alignment-baseline="baseline" textLength="370"  font-weight="normal" font-family="Times, serif" font-style="normal" stroke="black" fill="black">mi.et re.ꝑ aſcen.</text><text x="1896" y="548" font-size="58" text-anchor="left" alignment-baseline="baseline" textLength="300"  font-weight="normal" font-family="Times, serif" font-style="normal" stroke="black" fill="black">ꝑ ♭.fa.mi.la.</text><text x="1610" y="548" font-size="58" text-anchor="left" alignment-baseline="baseline" textLength="288"  font-weight="normal" font-family="Times, serif" font-style="normal" stroke="black" fill="black">ꝑ n.fami.mi.</text><text x="1230" y="548" font-size="58" text-anchor="left" alignment-baseline="baseline" textLength="374"  font-weight="normal" font-family="Times, serif" font-style="normal" stroke="black" fill="black">ꝑ ♭.laſolfalaſol.</text><text x="792" y="548" font-size="58" text-anchor="left" alignment-baseline="baseline" textLength="430"  font-weight="normal" font-family="Times, serif" font-style="normal" stroke="black" fill="black">ꝑ ♮.la.ſol.fa.mi.re.</text><text x="504" y="548" font-size="58" text-anchor="left" alignment-baseline="baseline" textLength="284"  font-weight="normal" font-family="Times, serif" font-style="normal" stroke="black" fill="black">ꝑ n.fa.mi.la.</text><text x="20" y="548" font-size="58" text-anchor="left" alignment-baseline="baseline" textLength="440"  font-weight="normal" font-family="Times, serif" font-style="normal" stroke="black" fill="black">ꝑ n. la.ſol.fa.la.ſol.</text><use xlink:href="#simple-barline" x="2154.622" y="260"/><use xlink:href="#blank-22" x="2133.2446" y="260"/><use xlink:href="#semibrevis-2" x="2080.8672" y="260"/><use xlink:href="#blank-22" x="2059.4897" y="260"/><use xlink:href="#semibrevis-dot-2" x="2007.1124" y="260"/><use xlink:href="#blank-22" x="1985.7351" y="260"/><use xlink:href="#semibrevis-3" x="1933.3578" y="260"/><use xlink:href="#flat-3" x="1903.9805" y="260"/><use xlink:href="#simple-barline" x="1860.6031" y="260"/><use xlink:href="#semibrevis-3" x="1808.2258" y="260"/><use xlink:href="#blank-22" x="1786.8485" y="260"/><use xlink:href="#semibrevis-dot-3" x="1734.4712" y="260"/><use xlink:href="#blank-22" x="1713.0939" y="260"/><use xlink:href="#semibrevis-4" x="1660.7166" y="260"/><use xlink:href="#simple-barline" x="1617.3392" y="260"/><use xlink:href="#semibrevis-4" x="1564.9619" y="260"/><use xlink:href="#blank-22" x="1543.5846" y="260"/><use xlink:href="#semibrevis-dot-4" x="1491.2073" y="260"/><use xlink:href="#blank-22" x="1469.83" y="260"/><use xlink:href="#semibrevis-4" x="1417.4526" y="260"/><use xlink:href="#sharp-4" x="1370.0753" y="260"/><use xlink:href="#semibrevis-dot-5" x="1317.698" y="260"/><use xlink:href="#flat-5" x="1288.3207" y="260"/><use xlink:href="#semibrevis-5" x="1235.9434" y="260"/><use xlink:href="#simple-barline" x="1192.566" y="260"/><use xlink:href="#semibrevis-5" x="1140.1887" y="260"/><use xlink:href="#blank-22" x="1118.8114" y="260"/><use xlink:href="#semibrevis-dot-5" x="1066.4341" y="260"/><use xlink:href="#blank-22" x="1045.0568" y="260"/><use xlink:href="#semibrevis-5" x="992.67944" y="260"/><use xlink:href="#sharp-5" x="945.30206" y="260"/><use xlink:href="#semibrevis-dot-6" x="892.9247" y="260"/><use xlink:href="#flat-6" x="863.5473" y="260"/><use xlink:href="#semibrevis-6" x="811.1699" y="260"/><use xlink:href="#simple-barline" x="767.79254" y="260"/><use xlink:href="#semibrevis-6" x="715.41516" y="260"/><use xlink:href="#blank-22" x="694.0378" y="260"/><use xlink:href="#semibrevis-dot-6" x="641.6604" y="260"/><use xlink:href="#blank-22" x="620.283" y="260"/><use xlink:href="#semibrevis-7" x="567.90564" y="260"/><use xlink:href="#simple-barline" x="524.52826" y="260"/><use xlink:href="#semibrevis-8" x="472.1509" y="260"/><use xlink:href="#blank-22" x="450.77356" y="260"/><use xlink:href="#semibrevis-dot-8" x="398.3962" y="260"/><use xlink:href="#blank-22" x="377.01886" y="260"/><use xlink:href="#semibrevis-8" x="324.6415" y="260"/><use xlink:href="#sharp-8" x="277.26416" y="260"/><use xlink:href="#semibrevis-dot-9" x="224.8868" y="260"/><use xlink:href="#flat-9" x="195.50943" y="260"/><use xlink:href="#semibrevis-9" x="143.13208" y="260"/><use xlink:href="#blank-22" x="121.754715" y="260"/><use xlink:href="#f-clef-part-7" x="77.37736" y="260"/><use xlink:href="#maxima-7" x="10" y="260"/><text x="1926" y="208" font-size="58" text-anchor="left" alignment-baseline="baseline" textLength="238"  font-weight="normal" font-family="Times, serif" font-style="normal" stroke="black" fill="black">da ʙ. à ᴀ.</text><text x="1640" y="208" font-size="58" text-anchor="left" alignment-baseline="baseline" textLength="234"  font-weight="normal" font-family="Times, serif" font-style="normal" stroke="black" fill="black">da ᴄ. à ʙ.</text><text x="1488" y="208" font-size="58" text-anchor="left" alignment-baseline="baseline" font-weight="normal" font-family="Times, serif" font-style="normal" stroke="black" fill="black">à ᴄ.</text><text x="1244" y="208" font-size="58" text-anchor="left" alignment-baseline="baseline" font-weight="normal" font-family="Times, serif" font-style="normal" stroke="black" fill="black">da ᴅ.</text><text x="1020" y="208" font-size="58" text-anchor="left" alignment-baseline="baseline" font-weight="normal" font-family="Times, serif" font-style="normal" stroke="black" fill="black">à ᴅ.</text><text x="804" y="208" font-size="58" text-anchor="left" alignment-baseline="baseline" font-weight="normal" font-family="Times, serif" font-style="normal" stroke="black" fill="black">da ᴇ.</text><text x="670" y="208" font-size="58" text-anchor="left" alignment-baseline="baseline" font-weight="normal" font-family="Times, serif" font-style="normal" stroke="black" fill="black">à ᴇ.</text><text x="526" y="208" font-size="58" text-anchor="left" alignment-baseline="baseline" font-weight="normal" font-family="Times, serif" font-style="normal" stroke="black" fill="black">da ꜰ.</text><text x="374" y="208" font-size="58" text-anchor="left" alignment-baseline="baseline" font-weight="normal" font-family="Times, serif" font-style="normal" stroke="black" fill="black">à ɢ.</text><text x="140" y="208" font-size="58" text-anchor="left" alignment-baseline="baseline" font-weight="normal" font-family="Times, serif" font-style="normal" stroke="black" fill="black">da ᴀ.</text><text x="20" y="138" font-size="58" text-anchor="left" alignment-baseline="baseline" textLength="976"  font-weight="normal" font-family="Times, serif" font-style="normal" stroke="black" fill="black">parti diuiſo , per leſette lettere della ᴍano.</text><text x="20" y="68" font-size="58" text-anchor="left" alignment-baseline="baseline" textLength="2198"  font-weight="normal" font-family="Times, serif" font-style="normal" stroke="black" fill="black">ᴍano ᴇnarmonica , con ſemitoni maggiori diſcendenti nel principio del tono,con il tono, in quattro</text></svg>