<?xml version="1.0" standalone="no"?>
<!DOCTYPE svg PUBLIC "-//W3C//DTD SVG 1.1//EN" "http://www.w3.org/Graphics/SVG/1.1/DTD/svg11.dtd">
<svg stroke="black" width="1120.0" viewBox="0 0 2240.0 640.0" id="b2-c2-m1-a-modern" version="1.1"
    xmlns="http://www.w3.org/2000/svg"
    xmlns:xlink="http://www.w3.org/1999/xlink"><rect width="100%" height="100%" fill="#e3f3ff" stroke-width="0"/><defs><g id="semibrevis-1"><line x1="2.5" y1="35.0" x2="50.5" y2="35.0" stroke-width="4.5" stroke-linecap="round"/><line x1="2.5" y1="75.0" x2="50.5" y2="75.0" stroke-width="4.5" stroke-linecap="round"/><line x1="2.5" y1="115.0" x2="50.5" y2="115.0" stroke-width="4.5" stroke-linecap="round"/><line x1="2.5" y1="155.0" x2="50.5" y2="155.0" stroke-width="4.5" stroke-linecap="round"/><line x1="2.5" y1="195.0" x2="50.5" y2="195.0" stroke-width="4.5" stroke-linecap="round"/><path fill-rule="evenodd" fill="black" d="M26.5 221.0 L3.1000004 195.0 L26.5 169.0 L49.9 195.0 zM33.022408 209.66476 L13.301713 187.75288 L19.977592 180.33524 L39.698288 202.24712 z" /></g><g id="semibrevis-2"><line x1="2.5" y1="35.0" x2="50.5" y2="35.0" stroke-width="4.5" stroke-linecap="round"/><line x1="2.5" y1="75.0" x2="50.5" y2="75.0" stroke-width="4.5" stroke-linecap="round"/><line x1="2.5" y1="115.0" x2="50.5" y2="115.0" stroke-width="4.5" stroke-linecap="round"/><line x1="2.5" y1="155.0" x2="50.5" y2="155.0" stroke-width="4.5" stroke-linecap="round"/><line x1="2.5" y1="195.0" x2="50.5" y2="195.0" stroke-width="4.5" stroke-linecap="round"/><path fill-rule="evenodd" fill="black" d="M26.5 201.0 L3.1000004 175.0 L26.5 149.0 L49.9 175.0 zM33.022408 189.66476 L13.301713 167.75288 L19.977592 160.33524 L39.698288 182.24712 z" /></g><g id="semibrevis-8"><line x1="2.5" y1="35.0" x2="50.5" y2="35.0" stroke-width="4.5" stroke-linecap="round"/><line x1="2.5" y1="75.0" x2="50.5" y2="75.0" stroke-width="4.5" stroke-linecap="round"/><line x1="2.5" y1="115.0" x2="50.5" y2="115.0" stroke-width="4.5" stroke-linecap="round"/><line x1="2.5" y1="155.0" x2="50.5" y2="155.0" stroke-width="4.5" stroke-linecap="round"/><line x1="2.5" y1="195.0" x2="50.5" y2="195.0" stroke-width="4.5" stroke-linecap="round"/><path fill-rule="evenodd" fill="black" d="M26.5 81.0 L3.1000004 55.0 L26.5 29.0 L49.9 55.0 zM33.022408 69.664764 L13.301713 47.752884 L19.977592 40.335236 L39.698288 62.247116 z" /></g><g id="semibrevis-4"><line x1="2.5" y1="35.0" x2="50.5" y2="35.0" stroke-width="4.5" stroke-linecap="round"/><line x1="2.5" y1="75.0" x2="50.5" y2="75.0" stroke-width="4.5" stroke-linecap="round"/><line x1="2.5" y1="115.0" x2="50.5" y2="115.0" stroke-width="4.5" stroke-linecap="round"/><line x1="2.5" y1="155.0" x2="50.5" y2="155.0" stroke-width="4.5" stroke-linecap="round"/><line x1="2.5" y1="195.0" x2="50.5" y2="195.0" stroke-width="4.5" stroke-linecap="round"/><path fill-rule="evenodd" fill="black" d="M26.5 161.0 L3.1000004 135.0 L26.5 109.0 L49.9 135.0 zM33.022408 149.66476 L13.301713 127.752884 L19.977592 120.335236 L39.698288 142.24712 z" /></g><g id="blank-22"><line x1="2.5" y1="35.0" x2="19.5" y2="35.0" stroke-width="4.5" stroke-linecap="round"/><line x1="2.5" y1="75.0" x2="19.5" y2="75.0" stroke-width="4.5" stroke-linecap="round"/><line x1="2.5" y1="115.0" x2="19.5" y2="115.0" stroke-width="4.5" stroke-linecap="round"/><line x1="2.5" y1="155.0" x2="19.5" y2="155.0" stroke-width="4.5" stroke-linecap="round"/><line x1="2.5" y1="195.0" x2="19.5" y2="195.0" stroke-width="4.5" stroke-linecap="round"/></g><g id="semibrevis-5"><line x1="2.5" y1="35.0" x2="50.5" y2="35.0" stroke-width="4.5" stroke-linecap="round"/><line x1="2.5" y1="75.0" x2="50.5" y2="75.0" stroke-width="4.5" stroke-linecap="round"/><line x1="2.5" y1="115.0" x2="50.5" y2="115.0" stroke-width="4.5" stroke-linecap="round"/><line x1="2.5" y1="155.0" x2="50.5" y2="155.0" stroke-width="4.5" stroke-linecap="round"/><line x1="2.5" y1="195.0" x2="50.5" y2="195.0" stroke-width="4.5" stroke-linecap="round"/><path fill-rule="evenodd" fill="black" d="M26.5 141.0 L3.1000004 115.0 L26.5 89.0 L49.9 115.0 zM33.022408 129.66476 L13.301713 107.752884 L19.977592 100.335236 L39.698288 122.247116 z" /></g><g id="simple-barline"><line x1="2.5" y1="35.0" x2="41.5" y2="35.0" stroke-width="4.5" stroke-linecap="round"/><line x1="2.5" y1="75.0" x2="41.5" y2="75.0" stroke-width="4.5" stroke-linecap="round"/><line x1="2.5" y1="115.0" x2="41.5" y2="115.0" stroke-width="4.5" stroke-linecap="round"/><line x1="2.5" y1="155.0" x2="41.5" y2="155.0" stroke-width="4.5" stroke-linecap="round"/><line x1="2.5" y1="195.0" x2="41.5" y2="195.0" stroke-width="4.5" stroke-linecap="round"/><line x1="22.0" y1="203.0" x2="22.0" y2="27.0" stroke-width="4.75" stroke-linecap="square"/></g><g id="semibrevis-7"><line x1="2.5" y1="35.0" x2="50.5" y2="35.0" stroke-width="4.5" stroke-linecap="round"/><line x1="2.5" y1="75.0" x2="50.5" y2="75.0" stroke-width="4.5" stroke-linecap="round"/><line x1="2.5" y1="115.0" x2="50.5" y2="115.0" stroke-width="4.5" stroke-linecap="round"/><line x1="2.5" y1="155.0" x2="50.5" y2="155.0" stroke-width="4.5" stroke-linecap="round"/><line x1="2.5" y1="195.0" x2="50.5" y2="195.0" stroke-width="4.5" stroke-linecap="round"/><path fill-rule="evenodd" fill="black" d="M26.5 101.0 L3.1000004 75.0 L26.5 49.0 L49.9 75.0 zM33.022408 89.664764 L13.301713 67.752884 L19.977592 60.335236 L39.698288 82.247116 z" /></g><g id="semibrevis-6"><line x1="2.5" y1="35.0" x2="50.5" y2="35.0" stroke-width="4.5" stroke-linecap="round"/><line x1="2.5" y1="75.0" x2="50.5" y2="75.0" stroke-width="4.5" stroke-linecap="round"/><line x1="2.5" y1="115.0" x2="50.5" y2="115.0" stroke-width="4.5" stroke-linecap="round"/><line x1="2.5" y1="155.0" x2="50.5" y2="155.0" stroke-width="4.5" stroke-linecap="round"/><line x1="2.5" y1="195.0" x2="50.5" y2="195.0" stroke-width="4.5" stroke-linecap="round"/><path fill-rule="evenodd" fill="black" d="M26.5 121.0 L3.1000004 95.0 L26.5 69.0 L49.9 95.0 zM33.022408 109.664764 L13.301713 87.752884 L19.977592 80.335236 L39.698288 102.247116 z" /></g><g id="blank-38"><line x1="2.5" y1="35.0" x2="35.5" y2="35.0" stroke-width="4.5" stroke-linecap="round"/><line x1="2.5" y1="75.0" x2="35.5" y2="75.0" stroke-width="4.5" stroke-linecap="round"/><line x1="2.5" y1="115.0" x2="35.5" y2="115.0" stroke-width="4.5" stroke-linecap="round"/><line x1="2.5" y1="155.0" x2="35.5" y2="155.0" stroke-width="4.5" stroke-linecap="round"/><line x1="2.5" y1="195.0" x2="35.5" y2="195.0" stroke-width="4.5" stroke-linecap="round"/></g><g id="c-clef-7"><line x1="2.5" y1="35.0" x2="63.5" y2="35.0" stroke-width="4.5" stroke-linecap="round"/><line x1="2.5" y1="75.0" x2="63.5" y2="75.0" stroke-width="4.5" stroke-linecap="round"/><line x1="2.5" y1="115.0" x2="63.5" y2="115.0" stroke-width="4.5" stroke-linecap="round"/><line x1="2.5" y1="155.0" x2="63.5" y2="155.0" stroke-width="4.5" stroke-linecap="round"/><line x1="2.5" y1="195.0" x2="63.5" y2="195.0" stroke-width="4.5" stroke-linecap="round"/><path fill-rule="evenodd" color="black" d="M11.049999 -5.0 L11.049999 203.0 L16.55 203.0 L16.55 115.0 L51.45 115.0 L51.45 139.0 L54.95 139.0 L54.95 83.0 L16.55 83.0 L16.55 67.0 L54.95 67.0 L54.95 11.0 L51.45 11.0 L51.45 35.0 L16.55 35.0 L16.55 -5.0 zM16.55 104.5 L51.45 104.5 L51.45 93.5 L16.55 93.5 zM16.55 56.5 L51.45 56.5 L51.45 45.5 L16.55 45.5 z" /></g></defs><use xlink:href="#blank-22" x="2208.0" y="400"/><use xlink:href="#blank-22" x="2186.0" y="400"/><use xlink:href="#blank-22" x="2164.0" y="400"/><use xlink:href="#blank-22" x="2142.0" y="400"/><use xlink:href="#blank-22" x="2120.0" y="400"/><use xlink:href="#blank-22" x="2098.0" y="400"/><use xlink:href="#blank-22" x="2076.0" y="400"/><use xlink:href="#blank-22" x="2054.0" y="400"/><use xlink:href="#blank-22" x="2032.0" y="400"/><use xlink:href="#blank-22" x="2010.0" y="400"/><use xlink:href="#blank-22" x="1988.0" y="400"/><use xlink:href="#blank-22" x="1966.0" y="400"/><use xlink:href="#blank-22" x="1944.0" y="400"/><use xlink:href="#simple-barline" x="1900.0" y="400"/><use xlink:href="#blank-22" x="1878.0" y="400"/><use xlink:href="#semibrevis-1" x="1825.0" y="400"/><use xlink:href="#blank-22" x="1803.0" y="400"/><use xlink:href="#blank-22" x="1781.0" y="400"/><use xlink:href="#semibrevis-5" x="1728.0" y="400"/><use xlink:href="#blank-38" x="1690.0" y="400"/><use xlink:href="#simple-barline" x="1646.0" y="400"/><use xlink:href="#blank-38" x="1608.0" y="400"/><use xlink:href="#semibrevis-2" x="1555.0" y="400"/><use xlink:href="#blank-22" x="1533.0" y="400"/><use xlink:href="#blank-22" x="1511.0" y="400"/><use xlink:href="#semibrevis-5" x="1458.0" y="400"/><use xlink:href="#blank-38" x="1420.0" y="400"/><use xlink:href="#simple-barline" x="1376.0" y="400"/><use xlink:href="#blank-38" x="1338.0" y="400"/><use xlink:href="#semibrevis-4" x="1285.0" y="400"/><use xlink:href="#blank-38" x="1247.0" y="400"/><use xlink:href="#semibrevis-5" x="1194.0" y="400"/><use xlink:href="#blank-38" x="1156.0" y="400"/><use xlink:href="#simple-barline" x="1112.0" y="400"/><use xlink:href="#blank-38" x="1074.0" y="400"/><use xlink:href="#semibrevis-4" x="1021.0" y="400"/><use xlink:href="#blank-22" x="999.0" y="400"/><use xlink:href="#blank-22" x="977.0" y="400"/><use xlink:href="#semibrevis-4" x="924.0" y="400"/><use xlink:href="#blank-38" x="886.0" y="400"/><use xlink:href="#simple-barline" x="842.0" y="400"/><use xlink:href="#blank-38" x="804.0" y="400"/><use xlink:href="#semibrevis-5" x="751.0" y="400"/><use xlink:href="#blank-22" x="729.0" y="400"/><use xlink:href="#blank-22" x="707.0" y="400"/><use xlink:href="#semibrevis-5" x="654.0" y="400"/><use xlink:href="#blank-38" x="616.0" y="400"/><use xlink:href="#simple-barline" x="572.0" y="400"/><use xlink:href="#blank-38" x="534.0" y="400"/><use xlink:href="#semibrevis-4" x="481.0" y="400"/><use xlink:href="#blank-22" x="459.0" y="400"/><use xlink:href="#blank-22" x="437.0" y="400"/><use xlink:href="#semibrevis-5" x="384.0" y="400"/><use xlink:href="#blank-38" x="346.0" y="400"/><use xlink:href="#simple-barline" x="302.0" y="400"/><use xlink:href="#blank-38" x="264.0" y="400"/><use xlink:href="#semibrevis-5" x="211.0" y="400"/><use xlink:href="#blank-22" x="189.0" y="400"/><use xlink:href="#blank-22" x="167.0" y="400"/><use xlink:href="#semibrevis-6" x="114.0" y="400"/><use xlink:href="#blank-38" x="76.0" y="400"/><use xlink:href="#c-clef-7" x="10" y="400"/><text x="1697" y="388" font-size="58" text-anchor="left" alignment-baseline="baseline" font-weight="normal" font-family="Times, serif" font-style="normal" stroke="black" fill="black">à 7. et à piu uoci.</text><text x="1440" y="388" font-size="58" text-anchor="left" alignment-baseline="baseline" font-weight="normal" font-family="Times, serif" font-style="normal" stroke="black" fill="black">à 5.</text><text x="1190" y="388" font-size="58" text-anchor="left" alignment-baseline="baseline" font-weight="normal" font-family="Times, serif" font-style="normal" stroke="black" fill="black">à 3.</text><text x="928" y="388" font-size="58" text-anchor="left" alignment-baseline="baseline" font-weight="normal" font-family="Times, serif" font-style="normal" stroke="black" fill="black">à 2.</text><text x="651" y="388" font-size="58" text-anchor="left" alignment-baseline="baseline" font-weight="normal" font-family="Times, serif" font-style="normal" stroke="black" fill="black">à 2.</text><text x="394" y="388" font-size="58" text-anchor="left" alignment-baseline="baseline" font-weight="normal" font-family="Times, serif" font-style="normal" stroke="black" fill="black">à 2.</text><text x="128" y="388" font-size="58" text-anchor="left" alignment-baseline="baseline" font-weight="normal" font-family="Times, serif" font-style="normal" stroke="black" fill="black">à 2.</text><use xlink:href="#blank-22" x="2208.0" y="100"/><use xlink:href="#blank-22" x="2186.0" y="100"/><use xlink:href="#blank-22" x="2164.0" y="100"/><use xlink:href="#blank-22" x="2142.0" y="100"/><use xlink:href="#blank-22" x="2120.0" y="100"/><use xlink:href="#blank-22" x="2098.0" y="100"/><use xlink:href="#blank-22" x="2076.0" y="100"/><use xlink:href="#blank-22" x="2054.0" y="100"/><use xlink:href="#blank-22" x="2032.0" y="100"/><use xlink:href="#blank-22" x="2010.0" y="100"/><use xlink:href="#blank-22" x="1988.0" y="100"/><use xlink:href="#blank-22" x="1966.0" y="100"/><use xlink:href="#blank-22" x="1944.0" y="100"/><use xlink:href="#simple-barline" x="1900.0" y="100"/><use xlink:href="#blank-22" x="1878.0" y="100"/><use xlink:href="#semibrevis-8" x="1825.0" y="100"/><use xlink:href="#blank-22" x="1803.0" y="100"/><use xlink:href="#blank-22" x="1781.0" y="100"/><use xlink:href="#semibrevis-5" x="1728.0" y="100"/><use xlink:href="#blank-38" x="1690.0" y="100"/><use xlink:href="#simple-barline" x="1646.0" y="100"/><use xlink:href="#blank-38" x="1608.0" y="100"/><use xlink:href="#semibrevis-7" x="1555.0" y="100"/><use xlink:href="#blank-22" x="1533.0" y="100"/><use xlink:href="#blank-22" x="1511.0" y="100"/><use xlink:href="#semibrevis-5" x="1458.0" y="100"/><use xlink:href="#blank-38" x="1420.0" y="100"/><use xlink:href="#simple-barline" x="1376.0" y="100"/><use xlink:href="#blank-38" x="1338.0" y="100"/><use xlink:href="#semibrevis-8" x="1285.0" y="100"/><use xlink:href="#blank-22" x="1263.0" y="100"/><use xlink:href="#blank-22" x="1241.0" y="100"/><use xlink:href="#semibrevis-5" x="1188.0" y="100"/><use xlink:href="#blank-38" x="1150.0" y="100"/><use xlink:href="#simple-barline" x="1106.0" y="100"/><use xlink:href="#blank-38" x="1068.0" y="100"/><use xlink:href="#semibrevis-6" x="1015.0" y="100"/><use xlink:href="#blank-22" x="993.0" y="100"/><use xlink:href="#blank-22" x="971.0" y="100"/><use xlink:href="#semibrevis-4" x="918.0" y="100"/><use xlink:href="#blank-38" x="880.0" y="100"/><use xlink:href="#simple-barline" x="836.0" y="100"/><use xlink:href="#blank-38" x="798.0" y="100"/><use xlink:href="#semibrevis-7" x="745.0" y="100"/><use xlink:href="#blank-22" x="723.0" y="100"/><use xlink:href="#blank-22" x="701.0" y="100"/><use xlink:href="#semibrevis-5" x="648.0" y="100"/><use xlink:href="#blank-38" x="610.0" y="100"/><use xlink:href="#simple-barline" x="566.0" y="100"/><use xlink:href="#blank-38" x="528.0" y="100"/><use xlink:href="#semibrevis-6" x="475.0" y="100"/><use xlink:href="#blank-22" x="453.0" y="100"/><use xlink:href="#blank-22" x="431.0" y="100"/><use xlink:href="#semibrevis-5" x="378.0" y="100"/><use xlink:href="#blank-38" x="340.0" y="100"/><use xlink:href="#simple-barline" x="296.0" y="100"/><use xlink:href="#blank-38" x="258.0" y="100"/><use xlink:href="#semibrevis-7" x="205.0" y="100"/><use xlink:href="#blank-38" x="167.0" y="100"/><use xlink:href="#semibrevis-6" x="114.0" y="100"/><use xlink:href="#blank-38" x="76.0" y="100"/><use xlink:href="#c-clef-7" x="10" y="100"/><text x="516" y="68" font-size="58" text-anchor="left" alignment-baseline="baseline" textLength="1049"  font-weight="normal" font-family="Times, serif" font-style="normal" stroke="black" fill="black">Eſſempio dallʼVniſono ad altri gradi et ſalti.</text></svg>