<?xml version="1.0" standalone="no"?>
<!DOCTYPE svg PUBLIC "-//W3C//DTD SVG 1.1//EN" "http://www.w3.org/Graphics/SVG/1.1/DTD/svg11.dtd">
<svg stroke="black" width="1124.0" viewBox="0 0 2248.0 570.0" id="b2-c3-m1-a" version="1.1"
    xmlns="http://www.w3.org/2000/svg"
    xmlns:xlink="http://www.w3.org/1999/xlink"><rect width="100%" height="100%" fill="#e3f3ff" stroke-width="0"/><defs><g id="sharp-3"><line x1="2.5" y1="35.0" x2="45.5" y2="35.0" stroke-width="4.5" stroke-linecap="round"/><line x1="2.5" y1="75.0" x2="45.5" y2="75.0" stroke-width="4.5" stroke-linecap="round"/><line x1="2.5" y1="115.0" x2="45.5" y2="115.0" stroke-width="4.5" stroke-linecap="round"/><line x1="2.5" y1="155.0" x2="45.5" y2="155.0" stroke-width="4.5" stroke-linecap="round"/><line x1="2.5" y1="195.0" x2="45.5" y2="195.0" stroke-width="4.5" stroke-linecap="round"/><line x1="41.3" y1="168.8" x2="13.700001" y2="141.2" stroke-width="2.5" stroke-linecap="round"/><line x1="41.3" y1="141.2" x2="13.700001" y2="168.8" stroke-width="2.5" stroke-linecap="round"/><line x1="34.3" y1="168.8" x2="6.700001" y2="141.2" stroke-width="2.5" stroke-linecap="round"/><line x1="34.3" y1="141.2" x2="6.700001" y2="168.8" stroke-width="2.5" stroke-linecap="round"/></g><g id="semibrevis-1"><line x1="2.5" y1="35.0" x2="50.5" y2="35.0" stroke-width="4.5" stroke-linecap="round"/><line x1="2.5" y1="75.0" x2="50.5" y2="75.0" stroke-width="4.5" stroke-linecap="round"/><line x1="2.5" y1="115.0" x2="50.5" y2="115.0" stroke-width="4.5" stroke-linecap="round"/><line x1="2.5" y1="155.0" x2="50.5" y2="155.0" stroke-width="4.5" stroke-linecap="round"/><line x1="2.5" y1="195.0" x2="50.5" y2="195.0" stroke-width="4.5" stroke-linecap="round"/><path fill-rule="evenodd" fill="black" d="M26.5 221.0 L3.1000004 195.0 L26.5 169.0 L49.9 195.0 zM33.022408 209.66476 L13.301713 187.75288 L19.977592 180.33524 L39.698288 202.24712 z" /></g><g id="flat-2"><line x1="2.5" y1="35.0" x2="27.5" y2="35.0" stroke-width="4.5" stroke-linecap="round"/><line x1="2.5" y1="75.0" x2="27.5" y2="75.0" stroke-width="4.5" stroke-linecap="round"/><line x1="2.5" y1="115.0" x2="27.5" y2="115.0" stroke-width="4.5" stroke-linecap="round"/><line x1="2.5" y1="155.0" x2="27.5" y2="155.0" stroke-width="4.5" stroke-linecap="round"/><line x1="2.5" y1="195.0" x2="27.5" y2="195.0" stroke-width="4.5" stroke-linecap="round"/><path stroke="black" fill="none" stroke-width="3.25" stroke-linecap="round" d="M2.1999998 187.8 A15.360001 15.360001 0 1 0 2.1999998 162.2 " /><path fill="black" d="M0.9499998 187.8 L3.4499998 187.8 L3.5749998 59.800003 L-0.5500002 59.800003 z" /></g><g id="semibrevis-6"><line x1="2.5" y1="35.0" x2="50.5" y2="35.0" stroke-width="4.5" stroke-linecap="round"/><line x1="2.5" y1="75.0" x2="50.5" y2="75.0" stroke-width="4.5" stroke-linecap="round"/><line x1="2.5" y1="115.0" x2="50.5" y2="115.0" stroke-width="4.5" stroke-linecap="round"/><line x1="2.5" y1="155.0" x2="50.5" y2="155.0" stroke-width="4.5" stroke-linecap="round"/><line x1="2.5" y1="195.0" x2="50.5" y2="195.0" stroke-width="4.5" stroke-linecap="round"/><path fill-rule="evenodd" fill="black" d="M26.5 121.0 L3.1000004 95.0 L26.5 69.0 L49.9 95.0 zM33.022408 109.664764 L13.301713 87.752884 L19.977592 80.335236 L39.698288 102.247116 z" /></g><g id="semibrevis-8"><line x1="2.5" y1="35.0" x2="50.5" y2="35.0" stroke-width="4.5" stroke-linecap="round"/><line x1="2.5" y1="75.0" x2="50.5" y2="75.0" stroke-width="4.5" stroke-linecap="round"/><line x1="2.5" y1="115.0" x2="50.5" y2="115.0" stroke-width="4.5" stroke-linecap="round"/><line x1="2.5" y1="155.0" x2="50.5" y2="155.0" stroke-width="4.5" stroke-linecap="round"/><line x1="2.5" y1="195.0" x2="50.5" y2="195.0" stroke-width="4.5" stroke-linecap="round"/><path fill-rule="evenodd" fill="black" d="M26.5 81.0 L3.1000004 55.0 L26.5 29.0 L49.9 55.0 zM33.022408 69.664764 L13.301713 47.752884 L19.977592 40.335236 L39.698288 62.247116 z" /></g><g id="semibrevis-7"><line x1="2.5" y1="35.0" x2="50.5" y2="35.0" stroke-width="4.5" stroke-linecap="round"/><line x1="2.5" y1="75.0" x2="50.5" y2="75.0" stroke-width="4.5" stroke-linecap="round"/><line x1="2.5" y1="115.0" x2="50.5" y2="115.0" stroke-width="4.5" stroke-linecap="round"/><line x1="2.5" y1="155.0" x2="50.5" y2="155.0" stroke-width="4.5" stroke-linecap="round"/><line x1="2.5" y1="195.0" x2="50.5" y2="195.0" stroke-width="4.5" stroke-linecap="round"/><path fill-rule="evenodd" fill="black" d="M26.5 101.0 L3.1000004 75.0 L26.5 49.0 L49.9 75.0 zM33.022408 89.664764 L13.301713 67.752884 L19.977592 60.335236 L39.698288 82.247116 z" /></g><g id="semibrevis-2"><line x1="2.5" y1="35.0" x2="50.5" y2="35.0" stroke-width="4.5" stroke-linecap="round"/><line x1="2.5" y1="75.0" x2="50.5" y2="75.0" stroke-width="4.5" stroke-linecap="round"/><line x1="2.5" y1="115.0" x2="50.5" y2="115.0" stroke-width="4.5" stroke-linecap="round"/><line x1="2.5" y1="155.0" x2="50.5" y2="155.0" stroke-width="4.5" stroke-linecap="round"/><line x1="2.5" y1="195.0" x2="50.5" y2="195.0" stroke-width="4.5" stroke-linecap="round"/><path fill-rule="evenodd" fill="black" d="M26.5 201.0 L3.1000004 175.0 L26.5 149.0 L49.9 175.0 zM33.022408 189.66476 L13.301713 167.75288 L19.977592 160.33524 L39.698288 182.24712 z" /></g><g id="blank-22"><line x1="2.5" y1="35.0" x2="19.5" y2="35.0" stroke-width="4.5" stroke-linecap="round"/><line x1="2.5" y1="75.0" x2="19.5" y2="75.0" stroke-width="4.5" stroke-linecap="round"/><line x1="2.5" y1="115.0" x2="19.5" y2="115.0" stroke-width="4.5" stroke-linecap="round"/><line x1="2.5" y1="155.0" x2="19.5" y2="155.0" stroke-width="4.5" stroke-linecap="round"/><line x1="2.5" y1="195.0" x2="19.5" y2="195.0" stroke-width="4.5" stroke-linecap="round"/></g><g id="semibrevis-3"><line x1="2.5" y1="35.0" x2="50.5" y2="35.0" stroke-width="4.5" stroke-linecap="round"/><line x1="2.5" y1="75.0" x2="50.5" y2="75.0" stroke-width="4.5" stroke-linecap="round"/><line x1="2.5" y1="115.0" x2="50.5" y2="115.0" stroke-width="4.5" stroke-linecap="round"/><line x1="2.5" y1="155.0" x2="50.5" y2="155.0" stroke-width="4.5" stroke-linecap="round"/><line x1="2.5" y1="195.0" x2="50.5" y2="195.0" stroke-width="4.5" stroke-linecap="round"/><path fill-rule="evenodd" fill="black" d="M26.5 181.0 L3.1000004 155.0 L26.5 129.0 L49.9 155.0 zM33.022408 169.66476 L13.301713 147.75288 L19.977592 140.33524 L39.698288 162.24712 z" /></g><g id="simple-barline"><line x1="2.5" y1="35.0" x2="41.5" y2="35.0" stroke-width="4.5" stroke-linecap="round"/><line x1="2.5" y1="75.0" x2="41.5" y2="75.0" stroke-width="4.5" stroke-linecap="round"/><line x1="2.5" y1="115.0" x2="41.5" y2="115.0" stroke-width="4.5" stroke-linecap="round"/><line x1="2.5" y1="155.0" x2="41.5" y2="155.0" stroke-width="4.5" stroke-linecap="round"/><line x1="2.5" y1="195.0" x2="41.5" y2="195.0" stroke-width="4.5" stroke-linecap="round"/><line x1="22.0" y1="203.0" x2="22.0" y2="27.0" stroke-width="4.75" stroke-linecap="square"/></g><g id="semibrevis-4"><line x1="2.5" y1="35.0" x2="50.5" y2="35.0" stroke-width="4.5" stroke-linecap="round"/><line x1="2.5" y1="75.0" x2="50.5" y2="75.0" stroke-width="4.5" stroke-linecap="round"/><line x1="2.5" y1="115.0" x2="50.5" y2="115.0" stroke-width="4.5" stroke-linecap="round"/><line x1="2.5" y1="155.0" x2="50.5" y2="155.0" stroke-width="4.5" stroke-linecap="round"/><line x1="2.5" y1="195.0" x2="50.5" y2="195.0" stroke-width="4.5" stroke-linecap="round"/><path fill-rule="evenodd" fill="black" d="M26.5 161.0 L3.1000004 135.0 L26.5 109.0 L49.9 135.0 zM33.022408 149.66476 L13.301713 127.752884 L19.977592 120.335236 L39.698288 142.24712 z" /></g><g id="semibrevis-5"><line x1="2.5" y1="35.0" x2="50.5" y2="35.0" stroke-width="4.5" stroke-linecap="round"/><line x1="2.5" y1="75.0" x2="50.5" y2="75.0" stroke-width="4.5" stroke-linecap="round"/><line x1="2.5" y1="115.0" x2="50.5" y2="115.0" stroke-width="4.5" stroke-linecap="round"/><line x1="2.5" y1="155.0" x2="50.5" y2="155.0" stroke-width="4.5" stroke-linecap="round"/><line x1="2.5" y1="195.0" x2="50.5" y2="195.0" stroke-width="4.5" stroke-linecap="round"/><path fill-rule="evenodd" fill="black" d="M26.5 141.0 L3.1000004 115.0 L26.5 89.0 L49.9 115.0 zM33.022408 129.66476 L13.301713 107.752884 L19.977592 100.335236 L39.698288 122.247116 z" /></g><g id="blank-38"><line x1="2.5" y1="35.0" x2="35.5" y2="35.0" stroke-width="4.5" stroke-linecap="round"/><line x1="2.5" y1="75.0" x2="35.5" y2="75.0" stroke-width="4.5" stroke-linecap="round"/><line x1="2.5" y1="115.0" x2="35.5" y2="115.0" stroke-width="4.5" stroke-linecap="round"/><line x1="2.5" y1="155.0" x2="35.5" y2="155.0" stroke-width="4.5" stroke-linecap="round"/><line x1="2.5" y1="195.0" x2="35.5" y2="195.0" stroke-width="4.5" stroke-linecap="round"/></g><g id="c-clef-7"><line x1="2.5" y1="35.0" x2="63.5" y2="35.0" stroke-width="4.5" stroke-linecap="round"/><line x1="2.5" y1="75.0" x2="63.5" y2="75.0" stroke-width="4.5" stroke-linecap="round"/><line x1="2.5" y1="115.0" x2="63.5" y2="115.0" stroke-width="4.5" stroke-linecap="round"/><line x1="2.5" y1="155.0" x2="63.5" y2="155.0" stroke-width="4.5" stroke-linecap="round"/><line x1="2.5" y1="195.0" x2="63.5" y2="195.0" stroke-width="4.5" stroke-linecap="round"/><path fill-rule="evenodd" color="black" d="M11.049999 -5.0 L11.049999 203.0 L16.55 203.0 L16.55 115.0 L51.45 115.0 L51.45 139.0 L54.95 139.0 L54.95 83.0 L16.55 83.0 L16.55 67.0 L54.95 67.0 L54.95 11.0 L51.45 11.0 L51.45 35.0 L16.55 35.0 L16.55 -5.0 zM16.55 104.5 L51.45 104.5 L51.45 93.5 L16.55 93.5 zM16.55 56.5 L51.45 56.5 L51.45 45.5 L16.55 45.5 z" /></g></defs><use xlink:href="#blank-38" x="2200.9456" y="330"/><use xlink:href="#blank-38" x="2163.891" y="330"/><use xlink:href="#simple-barline" x="2120.8367" y="330"/><use xlink:href="#blank-22" x="2099.7822" y="330"/><use xlink:href="#blank-22" x="2078.7278" y="330"/><use xlink:href="#semibrevis-6" x="2026.6733" y="330"/><use xlink:href="#blank-38" x="1989.6188" y="330"/><use xlink:href="#semibrevis-4" x="1937.5642" y="330"/><use xlink:href="#blank-38" x="1900.5096" y="330"/><use xlink:href="#simple-barline" x="1857.4551" y="330"/><use xlink:href="#blank-38" x="1820.4005" y="330"/><use xlink:href="#semibrevis-8" x="1768.346" y="330"/><use xlink:href="#blank-38" x="1731.2914" y="330"/><use xlink:href="#semibrevis-6" x="1679.2368" y="330"/><use xlink:href="#blank-38" x="1642.1823" y="330"/><use xlink:href="#simple-barline" x="1599.1277" y="330"/><use xlink:href="#blank-38" x="1562.0731" y="330"/><use xlink:href="#semibrevis-7" x="1510.0186" y="330"/><use xlink:href="#blank-38" x="1472.964" y="330"/><use xlink:href="#semibrevis-5" x="1420.9094" y="330"/><use xlink:href="#blank-38" x="1383.8549" y="330"/><use xlink:href="#simple-barline" x="1340.8003" y="330"/><use xlink:href="#blank-22" x="1319.7457" y="330"/><use xlink:href="#semibrevis-4" x="1267.6912" y="330"/><use xlink:href="#blank-22" x="1246.6366" y="330"/><use xlink:href="#semibrevis-3" x="1194.582" y="330"/><use xlink:href="#blank-22" x="1173.5275" y="330"/><use xlink:href="#sharp-3" x="1126.4729" y="330"/><use xlink:href="#blank-22" x="1105.4183" y="330"/><use xlink:href="#simple-barline" x="1062.3638" y="330"/><use xlink:href="#blank-38" x="1025.3092" y="330"/><use xlink:href="#semibrevis-3" x="973.2547" y="330"/><use xlink:href="#blank-38" x="936.20013" y="330"/><use xlink:href="#semibrevis-2" x="884.14557" y="330"/><use xlink:href="#blank-38" x="847.091" y="330"/><use xlink:href="#simple-barline" x="804.03644" y="330"/><use xlink:href="#blank-38" x="766.9819" y="330"/><use xlink:href="#semibrevis-3" x="714.9273" y="330"/><use xlink:href="#blank-38" x="677.87274" y="330"/><use xlink:href="#semibrevis-1" x="625.8182" y="330"/><use xlink:href="#blank-38" x="588.7636" y="330"/><use xlink:href="#simple-barline" x="545.70905" y="330"/><use xlink:href="#semibrevis-3" x="493.65448" y="330"/><use xlink:href="#blank-22" x="472.59995" y="330"/><use xlink:href="#semibrevis-2" x="420.5454" y="330"/><use xlink:href="#blank-22" x="399.49088" y="330"/><use xlink:href="#flat-2" x="370.43634" y="330"/><use xlink:href="#blank-38" x="333.3818" y="330"/><use xlink:href="#simple-barline" x="290.32727" y="330"/><use xlink:href="#blank-38" x="253.27274" y="330"/><use xlink:href="#semibrevis-4" x="201.21819" y="330"/><use xlink:href="#blank-38" x="164.16364" y="330"/><use xlink:href="#semibrevis-3" x="112.109085" y="330"/><use xlink:href="#blank-38" x="75.05454" y="330"/><use xlink:href="#c-clef-7" x="10" y="330"/><use xlink:href="#blank-38" x="2191.1785" y="100"/><use xlink:href="#blank-38" x="2154.357" y="100"/><use xlink:href="#simple-barline" x="2111.5354" y="100"/><use xlink:href="#blank-22" x="2090.7139" y="100"/><use xlink:href="#blank-22" x="2069.8923" y="100"/><use xlink:href="#semibrevis-6" x="2018.0708" y="100"/><use xlink:href="#blank-38" x="1981.2494" y="100"/><use xlink:href="#semibrevis-6" x="1929.428" y="100"/><use xlink:href="#blank-38" x="1892.6066" y="100"/><use xlink:href="#simple-barline" x="1849.7852" y="100"/><use xlink:href="#blank-38" x="1812.9637" y="100"/><use xlink:href="#semibrevis-8" x="1761.1423" y="100"/><use xlink:href="#blank-22" x="1740.3209" y="100"/><use xlink:href="#blank-22" x="1719.4995" y="100"/><use xlink:href="#semibrevis-8" x="1667.6781" y="100"/><use xlink:href="#blank-38" x="1630.8567" y="100"/><use xlink:href="#simple-barline" x="1588.0353" y="100"/><use xlink:href="#blank-38" x="1551.2139" y="100"/><use xlink:href="#semibrevis-7" x="1499.3925" y="100"/><use xlink:href="#blank-38" x="1462.571" y="100"/><use xlink:href="#semibrevis-7" x="1410.7496" y="100"/><use xlink:href="#blank-38" x="1373.9282" y="100"/><use xlink:href="#simple-barline" x="1331.1068" y="100"/><use xlink:href="#blank-22" x="1310.2854" y="100"/><use xlink:href="#blank-22" x="1289.464" y="100"/><use xlink:href="#semibrevis-4" x="1237.6426" y="100"/><use xlink:href="#blank-38" x="1200.8212" y="100"/><use xlink:href="#semibrevis-5" x="1148.9998" y="100"/><use xlink:href="#blank-22" x="1128.1783" y="100"/><use xlink:href="#blank-22" x="1107.3569" y="100"/><use xlink:href="#simple-barline" x="1064.5355" y="100"/><use xlink:href="#blank-38" x="1027.7141" y="100"/><use xlink:href="#semibrevis-3" x="975.8927" y="100"/><use xlink:href="#blank-38" x="939.0713" y="100"/><use xlink:href="#semibrevis-4" x="887.2499" y="100"/><use xlink:href="#blank-38" x="850.42847" y="100"/><use xlink:href="#simple-barline" x="807.60706" y="100"/><use xlink:href="#blank-38" x="770.78564" y="100"/><use xlink:href="#semibrevis-2" x="718.96423" y="100"/><use xlink:href="#blank-38" x="682.1428" y="100"/><use xlink:href="#semibrevis-3" x="630.3214" y="100"/><use xlink:href="#blank-38" x="593.5" y="100"/><use xlink:href="#simple-barline" x="550.6786" y="100"/><use xlink:href="#blank-22" x="529.8572" y="100"/><use xlink:href="#blank-22" x="509.03577" y="100"/><use xlink:href="#semibrevis-3" x="457.21432" y="100"/><use xlink:href="#blank-38" x="420.39288" y="100"/><use xlink:href="#semibrevis-4" x="368.57144" y="100"/><use xlink:href="#blank-38" x="331.75" y="100"/><use xlink:href="#simple-barline" x="288.92856" y="100"/><use xlink:href="#blank-38" x="252.10713" y="100"/><use xlink:href="#semibrevis-4" x="200.2857" y="100"/><use xlink:href="#blank-38" x="163.46428" y="100"/><use xlink:href="#semibrevis-5" x="111.64285" y="100"/><use xlink:href="#blank-38" x="74.82143" y="100"/><use xlink:href="#c-clef-7" x="10" y="100"/><text x="503" y="68" font-size="58" text-anchor="left" alignment-baseline="baseline" textLength="1277"  font-weight="normal" font-family="Times, serif" font-style="normal" stroke="black" fill="black">Eſſempio dʼandare allʼᴠniſono con uarÿ gradi &amp; ſalti.</text></svg>