<?xml version="1.0" standalone="no"?>
<!DOCTYPE svg PUBLIC "-//W3C//DTD SVG 1.1//EN" "http://www.w3.org/Graphics/SVG/1.1/DTD/svg11.dtd">
<svg stroke="black" width="1134.0" viewBox="0 0 2268.0 930.0" id="b5-c9-m1-b" version="1.1"
    xmlns="http://www.w3.org/2000/svg"
    xmlns:xlink="http://www.w3.org/1999/xlink"><rect width="100%" height="100%" fill="#e3f3ff" stroke-width="0"/><defs><g id="semibrevis-1"><line x1="2.5" y1="35.0" x2="50.5" y2="35.0" stroke-width="4.5" stroke-linecap="round"/><line x1="2.5" y1="75.0" x2="50.5" y2="75.0" stroke-width="4.5" stroke-linecap="round"/><line x1="2.5" y1="115.0" x2="50.5" y2="115.0" stroke-width="4.5" stroke-linecap="round"/><line x1="2.5" y1="155.0" x2="50.5" y2="155.0" stroke-width="4.5" stroke-linecap="round"/><line x1="2.5" y1="195.0" x2="50.5" y2="195.0" stroke-width="4.5" stroke-linecap="round"/><path fill-rule="evenodd" fill="black" d="M26.5 221.0 L3.1000004 195.0 L26.5 169.0 L49.9 195.0 zM33.022408 209.66476 L13.301713 187.75288 L19.977592 180.33524 L39.698288 202.24712 z" /></g><g id="sharp-1"><line x1="2.5" y1="35.0" x2="45.5" y2="35.0" stroke-width="4.5" stroke-linecap="round"/><line x1="2.5" y1="75.0" x2="45.5" y2="75.0" stroke-width="4.5" stroke-linecap="round"/><line x1="2.5" y1="115.0" x2="45.5" y2="115.0" stroke-width="4.5" stroke-linecap="round"/><line x1="2.5" y1="155.0" x2="45.5" y2="155.0" stroke-width="4.5" stroke-linecap="round"/><line x1="2.5" y1="195.0" x2="45.5" y2="195.0" stroke-width="4.5" stroke-linecap="round"/><line x1="49.0" y1="215.0" x2="9.0" y2="175.0" stroke-width="2.5" stroke-linecap="round"/><line x1="49.0" y1="175.0" x2="9.0" y2="215.0" stroke-width="2.5" stroke-linecap="round"/><line x1="39.0" y1="215.0" x2="-1.0" y2="175.0" stroke-width="2.5" stroke-linecap="round"/><line x1="39.0" y1="175.0" x2="-1.0" y2="215.0" stroke-width="2.5" stroke-linecap="round"/></g><g id="flat-3"><line x1="2.5" y1="35.0" x2="27.5" y2="35.0" stroke-width="4.5" stroke-linecap="round"/><line x1="2.5" y1="75.0" x2="27.5" y2="75.0" stroke-width="4.5" stroke-linecap="round"/><line x1="2.5" y1="115.0" x2="27.5" y2="115.0" stroke-width="4.5" stroke-linecap="round"/><line x1="2.5" y1="155.0" x2="27.5" y2="155.0" stroke-width="4.5" stroke-linecap="round"/><line x1="2.5" y1="195.0" x2="27.5" y2="195.0" stroke-width="4.5" stroke-linecap="round"/><path stroke="black" fill="none" stroke-width="3.25" stroke-linecap="round" d="M2.1999998 167.8 A15.360001 15.360001 0 1 0 2.1999998 142.2 " /><path fill="black" d="M0.9499998 167.8 L3.4499998 167.8 L3.5749998 39.800003 L-0.5500002 39.800003 z" /></g><g id="semibrevis-dot-3"><line x1="2.5" y1="35.0" x2="50.5" y2="35.0" stroke-width="4.5" stroke-linecap="round"/><line x1="2.5" y1="75.0" x2="50.5" y2="75.0" stroke-width="4.5" stroke-linecap="round"/><line x1="2.5" y1="115.0" x2="50.5" y2="115.0" stroke-width="4.5" stroke-linecap="round"/><line x1="2.5" y1="155.0" x2="50.5" y2="155.0" stroke-width="4.5" stroke-linecap="round"/><line x1="2.5" y1="195.0" x2="50.5" y2="195.0" stroke-width="4.5" stroke-linecap="round"/><path fill-rule="evenodd" fill="black" d="M26.5 181.0 L3.1000004 155.0 L26.5 129.0 L49.9 155.0 zM33.022408 169.66476 L13.301713 147.75288 L19.977592 140.33524 L39.698288 162.24712 z" /><path fill="black" d="M26.5 101.0 L20.5 95.0 L26.5 89.0 L32.5 95.0 z" /></g><g id="semibrevis-3"><line x1="2.5" y1="35.0" x2="50.5" y2="35.0" stroke-width="4.5" stroke-linecap="round"/><line x1="2.5" y1="75.0" x2="50.5" y2="75.0" stroke-width="4.5" stroke-linecap="round"/><line x1="2.5" y1="115.0" x2="50.5" y2="115.0" stroke-width="4.5" stroke-linecap="round"/><line x1="2.5" y1="155.0" x2="50.5" y2="155.0" stroke-width="4.5" stroke-linecap="round"/><line x1="2.5" y1="195.0" x2="50.5" y2="195.0" stroke-width="4.5" stroke-linecap="round"/><path fill-rule="evenodd" fill="black" d="M26.5 181.0 L3.1000004 155.0 L26.5 129.0 L49.9 155.0 zM33.022408 169.66476 L13.301713 147.75288 L19.977592 140.33524 L39.698288 162.24712 z" /></g><g id="sharp-3"><line x1="2.5" y1="35.0" x2="45.5" y2="35.0" stroke-width="4.5" stroke-linecap="round"/><line x1="2.5" y1="75.0" x2="45.5" y2="75.0" stroke-width="4.5" stroke-linecap="round"/><line x1="2.5" y1="115.0" x2="45.5" y2="115.0" stroke-width="4.5" stroke-linecap="round"/><line x1="2.5" y1="155.0" x2="45.5" y2="155.0" stroke-width="4.5" stroke-linecap="round"/><line x1="2.5" y1="195.0" x2="45.5" y2="195.0" stroke-width="4.5" stroke-linecap="round"/><line x1="41.3" y1="168.8" x2="13.700001" y2="141.2" stroke-width="2.5" stroke-linecap="round"/><line x1="41.3" y1="141.2" x2="13.700001" y2="168.8" stroke-width="2.5" stroke-linecap="round"/><line x1="34.3" y1="168.8" x2="6.700001" y2="141.2" stroke-width="2.5" stroke-linecap="round"/><line x1="34.3" y1="141.2" x2="6.700001" y2="168.8" stroke-width="2.5" stroke-linecap="round"/></g><g id="flat-6"><line x1="2.5" y1="35.0" x2="27.5" y2="35.0" stroke-width="4.5" stroke-linecap="round"/><line x1="2.5" y1="75.0" x2="27.5" y2="75.0" stroke-width="4.5" stroke-linecap="round"/><line x1="2.5" y1="115.0" x2="27.5" y2="115.0" stroke-width="4.5" stroke-linecap="round"/><line x1="2.5" y1="155.0" x2="27.5" y2="155.0" stroke-width="4.5" stroke-linecap="round"/><line x1="2.5" y1="195.0" x2="27.5" y2="195.0" stroke-width="4.5" stroke-linecap="round"/><path stroke="black" fill="none" stroke-width="3.25" stroke-linecap="round" d="M2.1999998 107.8 A15.360001 15.360001 0 1 0 2.1999998 82.200005 " /><path fill="black" d="M0.9499998 107.8 L3.4499998 107.8 L3.5749998 19.800003 L-0.5500002 19.800003 z" /></g><g id="f-clef-part-7"><line x1="2.5" y1="35.0" x2="42.5" y2="35.0" stroke-width="4.5" stroke-linecap="round"/><line x1="2.5" y1="75.0" x2="42.5" y2="75.0" stroke-width="4.5" stroke-linecap="round"/><line x1="2.5" y1="115.0" x2="42.5" y2="115.0" stroke-width="4.5" stroke-linecap="round"/><line x1="2.5" y1="155.0" x2="42.5" y2="155.0" stroke-width="4.5" stroke-linecap="round"/><line x1="2.5" y1="195.0" x2="42.5" y2="195.0" stroke-width="4.5" stroke-linecap="round"/><path fill="black" d="M21.125 107.0 L23.875 107.0 L24.2875 191.0 L20.7125 191.0 z" /><path fill-rule="evenodd" fill="black" d="M22.5 121.0 L-0.8999996 95.0 L22.5 69.0 L45.9 95.0 zM29.022408 109.664764 L9.301713 87.752884 L15.977592 80.335236 L35.698288 102.247116 z" /><path fill-rule="evenodd" fill="black" d="M22.5 81.0 L-0.8999996 55.0 L22.5 29.0 L45.9 55.0 zM29.022408 69.664764 L9.301713 47.752884 L15.977592 40.335236 L35.698288 62.247116 z" /></g><g id="maxima-7"><line x1="2.5" y1="35.0" x2="65.5" y2="35.0" stroke-width="4.5" stroke-linecap="round"/><line x1="2.5" y1="75.0" x2="65.5" y2="75.0" stroke-width="4.5" stroke-linecap="round"/><line x1="2.5" y1="115.0" x2="65.5" y2="115.0" stroke-width="4.5" stroke-linecap="round"/><line x1="2.5" y1="155.0" x2="65.5" y2="155.0" stroke-width="4.5" stroke-linecap="round"/><line x1="2.5" y1="195.0" x2="65.5" y2="195.0" stroke-width="4.5" stroke-linecap="round"/><path fill-rule="evenodd" fill="black" d="M14.4 103.0 L14.4 47.0 L17.15 47.0 L17.15 95.0 L50.85 95.0 L50.85 47.0 L53.6 47.0 L53.6 103.0 L50.85 103.0 L50.85 55.0 L17.15 55.0 L17.15 103.0 zM17.15 67.5 L17.15 82.5 L50.85 82.5 L50.85 67.5 z" /><path fill="black" d="M50.85 103.0 L53.6 103.0 L54.012497 187.0 L50.4375 187.0 z" /></g><g id="c-clef-5"><line x1="2.5" y1="35.0" x2="63.5" y2="35.0" stroke-width="4.5" stroke-linecap="round"/><line x1="2.5" y1="75.0" x2="63.5" y2="75.0" stroke-width="4.5" stroke-linecap="round"/><line x1="2.5" y1="115.0" x2="63.5" y2="115.0" stroke-width="4.5" stroke-linecap="round"/><line x1="2.5" y1="155.0" x2="63.5" y2="155.0" stroke-width="4.5" stroke-linecap="round"/><line x1="2.5" y1="195.0" x2="63.5" y2="195.0" stroke-width="4.5" stroke-linecap="round"/><path fill-rule="evenodd" color="black" d="M11.049999 35.0 L11.049999 243.0 L16.55 243.0 L16.55 155.0 L51.45 155.0 L51.45 179.0 L54.95 179.0 L54.95 123.0 L16.55 123.0 L16.55 107.0 L54.95 107.0 L54.95 51.0 L51.45 51.0 L51.45 75.0 L16.55 75.0 L16.55 35.0 zM16.55 144.5 L51.45 144.5 L51.45 133.5 L16.55 133.5 zM16.55 96.5 L51.45 96.5 L51.45 85.5 L16.55 85.5 z" /></g><g id="semibrevis-10"><line x1="2.5" y1="35.0" x2="50.5" y2="35.0" stroke-width="4.5" stroke-linecap="round"/><line x1="2.5" y1="75.0" x2="50.5" y2="75.0" stroke-width="4.5" stroke-linecap="round"/><line x1="2.5" y1="115.0" x2="50.5" y2="115.0" stroke-width="4.5" stroke-linecap="round"/><line x1="2.5" y1="155.0" x2="50.5" y2="155.0" stroke-width="4.5" stroke-linecap="round"/><line x1="2.5" y1="195.0" x2="50.5" y2="195.0" stroke-width="4.5" stroke-linecap="round"/><path fill-rule="evenodd" fill="black" d="M26.5 41.0 L3.1000004 15.0 L26.5 -11.0 L49.9 15.0 zM33.022408 29.664764 L13.301713 7.752882 L19.977592 0.3352356 L39.698288 22.247118 z" /></g><g id="sharp-9"><line x1="2.5" y1="35.0" x2="45.5" y2="35.0" stroke-width="4.5" stroke-linecap="round"/><line x1="2.5" y1="75.0" x2="45.5" y2="75.0" stroke-width="4.5" stroke-linecap="round"/><line x1="2.5" y1="115.0" x2="45.5" y2="115.0" stroke-width="4.5" stroke-linecap="round"/><line x1="2.5" y1="155.0" x2="45.5" y2="155.0" stroke-width="4.5" stroke-linecap="round"/><line x1="2.5" y1="195.0" x2="45.5" y2="195.0" stroke-width="4.5" stroke-linecap="round"/><line x1="49.0" y1="55.0" x2="9.0" y2="15.0" stroke-width="2.5" stroke-linecap="round"/><line x1="49.0" y1="15.0" x2="9.0" y2="55.0" stroke-width="2.5" stroke-linecap="round"/><line x1="39.0" y1="55.0" x2="-1.0" y2="15.0" stroke-width="2.5" stroke-linecap="round"/><line x1="39.0" y1="15.0" x2="-1.0" y2="55.0" stroke-width="2.5" stroke-linecap="round"/></g><g id="semibrevis-dot-9"><line x1="2.5" y1="35.0" x2="50.5" y2="35.0" stroke-width="4.5" stroke-linecap="round"/><line x1="2.5" y1="75.0" x2="50.5" y2="75.0" stroke-width="4.5" stroke-linecap="round"/><line x1="2.5" y1="115.0" x2="50.5" y2="115.0" stroke-width="4.5" stroke-linecap="round"/><line x1="2.5" y1="155.0" x2="50.5" y2="155.0" stroke-width="4.5" stroke-linecap="round"/><line x1="2.5" y1="195.0" x2="50.5" y2="195.0" stroke-width="4.5" stroke-linecap="round"/><path fill-rule="evenodd" fill="black" d="M26.5 61.0 L3.1000004 35.0 L26.5 9.0 L49.9 35.0 zM33.022408 49.664764 L13.301713 27.752882 L19.977592 20.335236 L39.698288 42.247116 z" /><path fill="black" d="M26.5 1.0 L20.5 -5.0 L26.5 -11.0 L32.5 -5.0 z" /></g><g id="semibrevis-9"><line x1="2.5" y1="35.0" x2="50.5" y2="35.0" stroke-width="4.5" stroke-linecap="round"/><line x1="2.5" y1="75.0" x2="50.5" y2="75.0" stroke-width="4.5" stroke-linecap="round"/><line x1="2.5" y1="115.0" x2="50.5" y2="115.0" stroke-width="4.5" stroke-linecap="round"/><line x1="2.5" y1="155.0" x2="50.5" y2="155.0" stroke-width="4.5" stroke-linecap="round"/><line x1="2.5" y1="195.0" x2="50.5" y2="195.0" stroke-width="4.5" stroke-linecap="round"/><path fill-rule="evenodd" fill="black" d="M26.5 61.0 L3.1000004 35.0 L26.5 9.0 L49.9 35.0 zM33.022408 49.664764 L13.301713 27.752882 L19.977592 20.335236 L39.698288 42.247116 z" /></g><g id="semibrevis-8"><line x1="2.5" y1="35.0" x2="50.5" y2="35.0" stroke-width="4.5" stroke-linecap="round"/><line x1="2.5" y1="75.0" x2="50.5" y2="75.0" stroke-width="4.5" stroke-linecap="round"/><line x1="2.5" y1="115.0" x2="50.5" y2="115.0" stroke-width="4.5" stroke-linecap="round"/><line x1="2.5" y1="155.0" x2="50.5" y2="155.0" stroke-width="4.5" stroke-linecap="round"/><line x1="2.5" y1="195.0" x2="50.5" y2="195.0" stroke-width="4.5" stroke-linecap="round"/><path fill-rule="evenodd" fill="black" d="M26.5 81.0 L3.1000004 55.0 L26.5 29.0 L49.9 55.0 zM33.022408 69.664764 L13.301713 47.752884 L19.977592 40.335236 L39.698288 62.247116 z" /></g><g id="sharp-8"><line x1="2.5" y1="35.0" x2="45.5" y2="35.0" stroke-width="4.5" stroke-linecap="round"/><line x1="2.5" y1="75.0" x2="45.5" y2="75.0" stroke-width="4.5" stroke-linecap="round"/><line x1="2.5" y1="115.0" x2="45.5" y2="115.0" stroke-width="4.5" stroke-linecap="round"/><line x1="2.5" y1="155.0" x2="45.5" y2="155.0" stroke-width="4.5" stroke-linecap="round"/><line x1="2.5" y1="195.0" x2="45.5" y2="195.0" stroke-width="4.5" stroke-linecap="round"/><line x1="49.0" y1="75.0" x2="9.0" y2="35.0" stroke-width="2.5" stroke-linecap="round"/><line x1="49.0" y1="35.0" x2="9.0" y2="75.0" stroke-width="2.5" stroke-linecap="round"/><line x1="39.0" y1="75.0" x2="-1.0" y2="35.0" stroke-width="2.5" stroke-linecap="round"/><line x1="39.0" y1="35.0" x2="-1.0" y2="75.0" stroke-width="2.5" stroke-linecap="round"/></g><g id="semibrevis-7"><line x1="2.5" y1="35.0" x2="50.5" y2="35.0" stroke-width="4.5" stroke-linecap="round"/><line x1="2.5" y1="75.0" x2="50.5" y2="75.0" stroke-width="4.5" stroke-linecap="round"/><line x1="2.5" y1="115.0" x2="50.5" y2="115.0" stroke-width="4.5" stroke-linecap="round"/><line x1="2.5" y1="155.0" x2="50.5" y2="155.0" stroke-width="4.5" stroke-linecap="round"/><line x1="2.5" y1="195.0" x2="50.5" y2="195.0" stroke-width="4.5" stroke-linecap="round"/><path fill-rule="evenodd" fill="black" d="M26.5 101.0 L3.1000004 75.0 L26.5 49.0 L49.9 75.0 zM33.022408 89.664764 L13.301713 67.752884 L19.977592 60.335236 L39.698288 82.247116 z" /></g><g id="sharp-6"><line x1="2.5" y1="35.0" x2="45.5" y2="35.0" stroke-width="4.5" stroke-linecap="round"/><line x1="2.5" y1="75.0" x2="45.5" y2="75.0" stroke-width="4.5" stroke-linecap="round"/><line x1="2.5" y1="115.0" x2="45.5" y2="115.0" stroke-width="4.5" stroke-linecap="round"/><line x1="2.5" y1="155.0" x2="45.5" y2="155.0" stroke-width="4.5" stroke-linecap="round"/><line x1="2.5" y1="195.0" x2="45.5" y2="195.0" stroke-width="4.5" stroke-linecap="round"/><line x1="49.0" y1="115.0" x2="9.0" y2="75.0" stroke-width="2.5" stroke-linecap="round"/><line x1="49.0" y1="75.0" x2="9.0" y2="115.0" stroke-width="2.5" stroke-linecap="round"/><line x1="39.0" y1="115.0" x2="-1.0" y2="75.0" stroke-width="2.5" stroke-linecap="round"/><line x1="39.0" y1="75.0" x2="-1.0" y2="115.0" stroke-width="2.5" stroke-linecap="round"/></g><g id="semibrevis-dot-6"><line x1="2.5" y1="35.0" x2="50.5" y2="35.0" stroke-width="4.5" stroke-linecap="round"/><line x1="2.5" y1="75.0" x2="50.5" y2="75.0" stroke-width="4.5" stroke-linecap="round"/><line x1="2.5" y1="115.0" x2="50.5" y2="115.0" stroke-width="4.5" stroke-linecap="round"/><line x1="2.5" y1="155.0" x2="50.5" y2="155.0" stroke-width="4.5" stroke-linecap="round"/><line x1="2.5" y1="195.0" x2="50.5" y2="195.0" stroke-width="4.5" stroke-linecap="round"/><path fill-rule="evenodd" fill="black" d="M26.5 121.0 L3.1000004 95.0 L26.5 69.0 L49.9 95.0 zM33.022408 109.664764 L13.301713 87.752884 L19.977592 80.335236 L39.698288 102.247116 z" /><path fill="black" d="M26.5 61.0 L20.5 55.0 L26.5 49.0 L32.5 55.0 z" /></g><g id="semibrevis-6"><line x1="2.5" y1="35.0" x2="50.5" y2="35.0" stroke-width="4.5" stroke-linecap="round"/><line x1="2.5" y1="75.0" x2="50.5" y2="75.0" stroke-width="4.5" stroke-linecap="round"/><line x1="2.5" y1="115.0" x2="50.5" y2="115.0" stroke-width="4.5" stroke-linecap="round"/><line x1="2.5" y1="155.0" x2="50.5" y2="155.0" stroke-width="4.5" stroke-linecap="round"/><line x1="2.5" y1="195.0" x2="50.5" y2="195.0" stroke-width="4.5" stroke-linecap="round"/><path fill-rule="evenodd" fill="black" d="M26.5 121.0 L3.1000004 95.0 L26.5 69.0 L49.9 95.0 zM33.022408 109.664764 L13.301713 87.752884 L19.977592 80.335236 L39.698288 102.247116 z" /></g><g id="simple-barline"><line x1="2.5" y1="35.0" x2="41.5" y2="35.0" stroke-width="4.5" stroke-linecap="round"/><line x1="2.5" y1="75.0" x2="41.5" y2="75.0" stroke-width="4.5" stroke-linecap="round"/><line x1="2.5" y1="115.0" x2="41.5" y2="115.0" stroke-width="4.5" stroke-linecap="round"/><line x1="2.5" y1="155.0" x2="41.5" y2="155.0" stroke-width="4.5" stroke-linecap="round"/><line x1="2.5" y1="195.0" x2="41.5" y2="195.0" stroke-width="4.5" stroke-linecap="round"/><line x1="22.0" y1="203.0" x2="22.0" y2="27.0" stroke-width="4.75" stroke-linecap="square"/></g><g id="semibrevis-4"><line x1="2.5" y1="35.0" x2="50.5" y2="35.0" stroke-width="4.5" stroke-linecap="round"/><line x1="2.5" y1="75.0" x2="50.5" y2="75.0" stroke-width="4.5" stroke-linecap="round"/><line x1="2.5" y1="115.0" x2="50.5" y2="115.0" stroke-width="4.5" stroke-linecap="round"/><line x1="2.5" y1="155.0" x2="50.5" y2="155.0" stroke-width="4.5" stroke-linecap="round"/><line x1="2.5" y1="195.0" x2="50.5" y2="195.0" stroke-width="4.5" stroke-linecap="round"/><path fill-rule="evenodd" fill="black" d="M26.5 161.0 L3.1000004 135.0 L26.5 109.0 L49.9 135.0 zM33.022408 149.66476 L13.301713 127.752884 L19.977592 120.335236 L39.698288 142.24712 z" /></g><g id="blank-22"><line x1="2.5" y1="35.0" x2="19.5" y2="35.0" stroke-width="4.5" stroke-linecap="round"/><line x1="2.5" y1="75.0" x2="19.5" y2="75.0" stroke-width="4.5" stroke-linecap="round"/><line x1="2.5" y1="115.0" x2="19.5" y2="115.0" stroke-width="4.5" stroke-linecap="round"/><line x1="2.5" y1="155.0" x2="19.5" y2="155.0" stroke-width="4.5" stroke-linecap="round"/><line x1="2.5" y1="195.0" x2="19.5" y2="195.0" stroke-width="4.5" stroke-linecap="round"/></g><g id="sharp-4"><line x1="2.5" y1="35.0" x2="45.5" y2="35.0" stroke-width="4.5" stroke-linecap="round"/><line x1="2.5" y1="75.0" x2="45.5" y2="75.0" stroke-width="4.5" stroke-linecap="round"/><line x1="2.5" y1="115.0" x2="45.5" y2="115.0" stroke-width="4.5" stroke-linecap="round"/><line x1="2.5" y1="155.0" x2="45.5" y2="155.0" stroke-width="4.5" stroke-linecap="round"/><line x1="2.5" y1="195.0" x2="45.5" y2="195.0" stroke-width="4.5" stroke-linecap="round"/><line x1="49.0" y1="155.0" x2="9.0" y2="115.0" stroke-width="2.5" stroke-linecap="round"/><line x1="49.0" y1="115.0" x2="9.0" y2="155.0" stroke-width="2.5" stroke-linecap="round"/><line x1="39.0" y1="155.0" x2="-1.0" y2="115.0" stroke-width="2.5" stroke-linecap="round"/><line x1="39.0" y1="115.0" x2="-1.0" y2="155.0" stroke-width="2.5" stroke-linecap="round"/></g><g id="blank-38"><line x1="2.5" y1="35.0" x2="35.5" y2="35.0" stroke-width="4.5" stroke-linecap="round"/><line x1="2.5" y1="75.0" x2="35.5" y2="75.0" stroke-width="4.5" stroke-linecap="round"/><line x1="2.5" y1="115.0" x2="35.5" y2="115.0" stroke-width="4.5" stroke-linecap="round"/><line x1="2.5" y1="155.0" x2="35.5" y2="155.0" stroke-width="4.5" stroke-linecap="round"/><line x1="2.5" y1="195.0" x2="35.5" y2="195.0" stroke-width="4.5" stroke-linecap="round"/></g><g id="c-clef-7"><line x1="2.5" y1="35.0" x2="63.5" y2="35.0" stroke-width="4.5" stroke-linecap="round"/><line x1="2.5" y1="75.0" x2="63.5" y2="75.0" stroke-width="4.5" stroke-linecap="round"/><line x1="2.5" y1="115.0" x2="63.5" y2="115.0" stroke-width="4.5" stroke-linecap="round"/><line x1="2.5" y1="155.0" x2="63.5" y2="155.0" stroke-width="4.5" stroke-linecap="round"/><line x1="2.5" y1="195.0" x2="63.5" y2="195.0" stroke-width="4.5" stroke-linecap="round"/><path fill-rule="evenodd" color="black" d="M11.049999 -5.0 L11.049999 203.0 L16.55 203.0 L16.55 115.0 L51.45 115.0 L51.45 139.0 L54.95 139.0 L54.95 83.0 L16.55 83.0 L16.55 67.0 L54.95 67.0 L54.95 11.0 L51.45 11.0 L51.45 35.0 L16.55 35.0 L16.55 -5.0 zM16.55 104.5 L51.45 104.5 L51.45 93.5 L16.55 93.5 zM16.55 56.5 L51.45 56.5 L51.45 45.5 L16.55 45.5 z" /></g></defs><text x="1550" y="908" font-size="58" text-anchor="left" alignment-baseline="baseline" textLength="609"  font-weight="normal" font-family="Times, serif" font-style="normal" stroke="black" fill="black">di Ala mi. re. ſecondo.</text><text x="182" y="908" font-size="58" text-anchor="left" alignment-baseline="baseline" textLength="1205"  font-weight="normal" font-family="Times, serif" font-style="normal" stroke="black" fill="black">Tutte le conſonanze diſcendenti con le propinque.</text><text x="1551" y="798" font-size="58" text-anchor="left" alignment-baseline="baseline" font-weight="normal" font-family="Times, serif" font-style="normal" stroke="black" fill="black">ꜱeﬆa maggior.</text><text x="1211" y="798" font-size="58" text-anchor="left" alignment-baseline="baseline" font-weight="normal" font-family="Times, serif" font-style="normal" stroke="black" fill="black">Seﬆa minor.</text><text x="486" y="798" font-size="58" text-anchor="left" alignment-baseline="baseline" font-weight="normal" font-family="Times, serif" font-style="normal" stroke="black" fill="black">ᴛerza magg.</text><text x="106" y="798" font-size="58" text-anchor="left" alignment-baseline="baseline" font-weight="normal" font-family="Times, serif" font-style="normal" stroke="black" fill="black">ᴛerza minor.</text><use xlink:href="#simple-barline" x="2234.6262" y="510"/><use xlink:href="#blank-38" x="2217.2534" y="510"/><use xlink:href="#blank-38" x="2199.8806" y="510"/><use xlink:href="#semibrevis-4" x="2167.5078" y="510"/><use xlink:href="#blank-38" x="2150.135" y="510"/><use xlink:href="#sharp-4" x="2122.7622" y="510"/><use xlink:href="#blank-38" x="2105.3894" y="510"/><use xlink:href="#blank-22" x="2104.0166" y="510"/><use xlink:href="#simple-barline" x="2080.6438" y="510"/><use xlink:href="#blank-38" x="2063.271" y="510"/><use xlink:href="#semibrevis-4" x="2030.8982" y="510"/><use xlink:href="#blank-22" x="2029.5255" y="510"/><use xlink:href="#sharp-4" x="2002.1528" y="510"/><use xlink:href="#blank-38" x="1984.7802" y="510"/><use xlink:href="#semibrevis-4" x="1952.4075" y="510"/><use xlink:href="#blank-22" x="1951.0348" y="510"/><use xlink:href="#sharp-4" x="1923.6621" y="510"/><use xlink:href="#blank-38" x="1906.2894" y="510"/><use xlink:href="#simple-barline" x="1882.9167" y="510"/><use xlink:href="#blank-38" x="1865.5441" y="510"/><use xlink:href="#semibrevis-4" x="1833.1714" y="510"/><use xlink:href="#blank-38" x="1815.7987" y="510"/><use xlink:href="#sharp-4" x="1788.426" y="510"/><use xlink:href="#blank-22" x="1787.0533" y="510"/><use xlink:href="#semibrevis-4" x="1754.6807" y="510"/><use xlink:href="#blank-22" x="1753.308" y="510"/><use xlink:href="#sharp-4" x="1725.9353" y="510"/><use xlink:href="#blank-38" x="1708.5626" y="510"/><use xlink:href="#simple-barline" x="1685.19" y="510"/><use xlink:href="#blank-38" x="1667.8173" y="510"/><use xlink:href="#blank-38" x="1650.4446" y="510"/><use xlink:href="#semibrevis-4" x="1618.0719" y="510"/><use xlink:href="#blank-38" x="1600.6992" y="510"/><use xlink:href="#sharp-4" x="1573.3265" y="510"/><use xlink:href="#blank-38" x="1555.9539" y="510"/><use xlink:href="#blank-38" x="1538.5812" y="510"/><use xlink:href="#simple-barline" x="1515.2085" y="510"/><use xlink:href="#blank-22" x="1513.8358" y="510"/><use xlink:href="#semibrevis-4" x="1481.4631" y="510"/><use xlink:href="#blank-22" x="1480.0905" y="510"/><use xlink:href="#sharp-4" x="1452.7178" y="510"/><use xlink:href="#blank-22" x="1451.3451" y="510"/><use xlink:href="#semibrevis-4" x="1418.9724" y="510"/><use xlink:href="#blank-22" x="1417.5997" y="510"/><use xlink:href="#sharp-4" x="1390.227" y="510"/><use xlink:href="#blank-22" x="1388.8544" y="510"/><use xlink:href="#simple-barline" x="1365.4817" y="510"/><use xlink:href="#blank-38" x="1348.109" y="510"/><use xlink:href="#semibrevis-4" x="1315.7363" y="510"/><use xlink:href="#sharp-4" x="1288.3636" y="510"/><use xlink:href="#blank-38" x="1270.991" y="510"/><use xlink:href="#semibrevis-4" x="1238.6183" y="510"/><use xlink:href="#blank-22" x="1237.2456" y="510"/><use xlink:href="#sharp-4" x="1209.8729" y="510"/><use xlink:href="#blank-38" x="1192.5002" y="510"/><use xlink:href="#c-clef-7" x="1147.1276" y="510"/><use xlink:href="#simple-barline" x="1123.7549" y="510"/><use xlink:href="#blank-38" x="1106.3822" y="510"/><use xlink:href="#blank-38" x="1089.0095" y="510"/><use xlink:href="#semibrevis-1" x="1056.6368" y="510"/><use xlink:href="#blank-38" x="1039.2642" y="510"/><use xlink:href="#sharp-1" x="1011.8914" y="510"/><use xlink:href="#blank-38" x="994.5187" y="510"/><use xlink:href="#blank-38" x="977.14594" y="510"/><use xlink:href="#simple-barline" x="953.7732" y="510"/><use xlink:href="#blank-38" x="936.40045" y="510"/><use xlink:href="#blank-22" x="935.0277" y="510"/><use xlink:href="#semibrevis-dot-3" x="902.65497" y="510"/><use xlink:href="#blank-38" x="885.2822" y="510"/><use xlink:href="#flat-3" x="875.9095" y="510"/><use xlink:href="#blank-38" x="858.53674" y="510"/><use xlink:href="#semibrevis-3" x="826.164" y="510"/><use xlink:href="#blank-38" x="808.79126" y="510"/><use xlink:href="#simple-barline" x="785.4185" y="510"/><use xlink:href="#blank-38" x="768.0458" y="510"/><use xlink:href="#semibrevis-dot-3" x="735.67303" y="510"/><use xlink:href="#blank-38" x="718.3003" y="510"/><use xlink:href="#semibrevis-3" x="685.92755" y="510"/><use xlink:href="#blank-38" x="668.5548" y="510"/><use xlink:href="#sharp-3" x="641.18207" y="510"/><use xlink:href="#blank-38" x="623.8093" y="510"/><use xlink:href="#blank-38" x="606.4366" y="510"/><use xlink:href="#simple-barline" x="583.06384" y="510"/><use xlink:href="#blank-38" x="565.6911" y="510"/><use xlink:href="#blank-38" x="548.31836" y="510"/><use xlink:href="#semibrevis-4" x="515.9456" y="510"/><use xlink:href="#blank-38" x="498.57288" y="510"/><use xlink:href="#sharp-4" x="471.20013" y="510"/><use xlink:href="#blank-38" x="453.8274" y="510"/><use xlink:href="#blank-38" x="436.45465" y="510"/><use xlink:href="#simple-barline" x="413.0819" y="510"/><use xlink:href="#blank-38" x="395.70917" y="510"/><use xlink:href="#blank-38" x="378.33643" y="510"/><use xlink:href="#semibrevis-dot-6" x="345.96368" y="510"/><use xlink:href="#blank-38" x="328.59094" y="510"/><use xlink:href="#flat-6" x="319.2182" y="510"/><use xlink:href="#blank-38" x="301.84546" y="510"/><use xlink:href="#semibrevis-6" x="269.47272" y="510"/><use xlink:href="#blank-38" x="252.09999" y="510"/><use xlink:href="#simple-barline" x="228.72726" y="510"/><use xlink:href="#blank-38" x="211.35454" y="510"/><use xlink:href="#semibrevis-dot-6" x="178.98181" y="510"/><use xlink:href="#blank-22" x="177.60909" y="510"/><use xlink:href="#blank-38" x="160.23636" y="510"/><use xlink:href="#semibrevis-6" x="127.86363" y="510"/><use xlink:href="#blank-22" x="126.490906" y="510"/><use xlink:href="#sharp-6" x="99.11818" y="510"/><use xlink:href="#blank-38" x="81.74545" y="510"/><use xlink:href="#f-clef-part-7" x="57.372726" y="510"/><use xlink:href="#maxima-7" x="10" y="510"/><text x="1460" y="498" font-size="58" text-anchor="left" alignment-baseline="baseline" font-weight="normal" font-family="Times, serif" font-style="normal" stroke="black" fill="black">con le ſue propinque.</text><text x="314" y="498" font-size="58" text-anchor="left" alignment-baseline="baseline" font-weight="normal" font-family="Times, serif" font-style="normal" stroke="black" fill="black">con le ſue propinque.</text><use xlink:href="#simple-barline" x="2218.737" y="210"/><use xlink:href="#blank-38" x="2201.471" y="210"/><use xlink:href="#semibrevis-9" x="2169.2048" y="210"/><use xlink:href="#blank-38" x="2151.9387" y="210"/><use xlink:href="#sharp-9" x="2124.6726" y="210"/><use xlink:href="#blank-38" x="2107.4065" y="210"/><use xlink:href="#blank-38" x="2090.1404" y="210"/><use xlink:href="#c-clef-5" x="2044.8743" y="210"/><use xlink:href="#blank-22" x="2043.6082" y="210"/><use xlink:href="#blank-38" x="2026.342" y="210"/><use xlink:href="#semibrevis-10" x="1994.0759" y="210"/><use xlink:href="#blank-38" x="1976.8098" y="210"/><use xlink:href="#semibrevis-9" x="1944.5437" y="210"/><use xlink:href="#blank-38" x="1927.2776" y="210"/><use xlink:href="#sharp-9" x="1900.0115" y="210"/><use xlink:href="#blank-38" x="1882.7454" y="210"/><use xlink:href="#blank-38" x="1865.4792" y="210"/><use xlink:href="#simple-barline" x="1842.2131" y="210"/><use xlink:href="#blank-38" x="1824.947" y="210"/><use xlink:href="#blank-38" x="1807.6809" y="210"/><use xlink:href="#semibrevis-dot-9" x="1775.4148" y="210"/><use xlink:href="#blank-38" x="1758.1487" y="210"/><use xlink:href="#blank-38" x="1740.8826" y="210"/><use xlink:href="#semibrevis-9" x="1708.6165" y="210"/><use xlink:href="#blank-38" x="1691.3503" y="210"/><use xlink:href="#blank-38" x="1674.0842" y="210"/><use xlink:href="#simple-barline" x="1650.8181" y="210"/><use xlink:href="#blank-38" x="1633.552" y="210"/><use xlink:href="#blank-38" x="1616.2859" y="210"/><use xlink:href="#blank-38" x="1599.0198" y="210"/><use xlink:href="#semibrevis-8" x="1566.7537" y="210"/><use xlink:href="#blank-38" x="1549.4875" y="210"/><use xlink:href="#sharp-8" x="1522.2214" y="210"/><use xlink:href="#blank-38" x="1504.9553" y="210"/><use xlink:href="#blank-38" x="1487.6892" y="210"/><use xlink:href="#simple-barline" x="1464.4231" y="210"/><use xlink:href="#blank-38" x="1447.157" y="210"/><use xlink:href="#semibrevis-7" x="1414.8909" y="210"/><use xlink:href="#blank-38" x="1397.6248" y="210"/><use xlink:href="#semibrevis-6" x="1365.3586" y="210"/><use xlink:href="#blank-38" x="1348.0925" y="210"/><use xlink:href="#sharp-6" x="1320.8264" y="210"/><use xlink:href="#blank-38" x="1303.5603" y="210"/><use xlink:href="#simple-barline" x="1280.2942" y="210"/><use xlink:href="#blank-38" x="1263.0281" y="210"/><use xlink:href="#blank-38" x="1245.762" y="210"/><use xlink:href="#semibrevis-dot-6" x="1213.4958" y="210"/><use xlink:href="#blank-38" x="1196.2297" y="210"/><use xlink:href="#blank-38" x="1178.9636" y="210"/><use xlink:href="#semibrevis-6" x="1146.6975" y="210"/><use xlink:href="#blank-38" x="1129.4314" y="210"/><use xlink:href="#blank-38" x="1112.1653" y="210"/><use xlink:href="#c-clef-7" x="1066.8992" y="210"/><use xlink:href="#blank-38" x="1049.633" y="210"/><use xlink:href="#simple-barline" x="1026.367" y="210"/><use xlink:href="#blank-22" x="1025.1008" y="210"/><use xlink:href="#blank-38" x="1007.8347" y="210"/><use xlink:href="#semibrevis-4" x="975.56866" y="210"/><use xlink:href="#blank-38" x="958.3026" y="210"/><use xlink:href="#sharp-4" x="931.03656" y="210"/><use xlink:href="#blank-38" x="913.7705" y="210"/><use xlink:href="#simple-barline" x="890.50446" y="210"/><use xlink:href="#blank-38" x="873.2384" y="210"/><use xlink:href="#semibrevis-4" x="840.97235" y="210"/><use xlink:href="#blank-22" x="839.7063" y="210"/><use xlink:href="#sharp-4" x="812.44025" y="210"/><use xlink:href="#blank-22" x="811.1742" y="210"/><use xlink:href="#semibrevis-4" x="778.90814" y="210"/><use xlink:href="#blank-22" x="777.6421" y="210"/><use xlink:href="#sharp-4" x="750.37604" y="210"/><use xlink:href="#blank-38" x="733.11" y="210"/><use xlink:href="#simple-barline" x="709.84393" y="210"/><use xlink:href="#blank-38" x="692.5779" y="210"/><use xlink:href="#semibrevis-4" x="660.3118" y="210"/><use xlink:href="#blank-22" x="659.0458" y="210"/><use xlink:href="#sharp-4" x="631.7797" y="210"/><use xlink:href="#blank-22" x="630.5137" y="210"/><use xlink:href="#semibrevis-4" x="598.2476" y="210"/><use xlink:href="#sharp-4" x="570.98157" y="210"/><use xlink:href="#blank-38" x="553.7155" y="210"/><use xlink:href="#simple-barline" x="530.44946" y="210"/><use xlink:href="#blank-22" x="529.1834" y="210"/><use xlink:href="#blank-38" x="511.91736" y="210"/><use xlink:href="#semibrevis-4" x="479.6513" y="210"/><use xlink:href="#blank-38" x="462.38525" y="210"/><use xlink:href="#sharp-4" x="435.1192" y="210"/><use xlink:href="#blank-22" x="433.85315" y="210"/><use xlink:href="#blank-38" x="416.5871" y="210"/><use xlink:href="#simple-barline" x="393.32104" y="210"/><use xlink:href="#blank-38" x="376.055" y="210"/><use xlink:href="#semibrevis-4" x="343.78894" y="210"/><use xlink:href="#blank-22" x="342.5229" y="210"/><use xlink:href="#sharp-4" x="315.25684" y="210"/><use xlink:href="#blank-22" x="313.99078" y="210"/><use xlink:href="#semibrevis-4" x="281.72473" y="210"/><use xlink:href="#blank-22" x="280.45868" y="210"/><use xlink:href="#sharp-4" x="253.19263" y="210"/><use xlink:href="#blank-38" x="235.92657" y="210"/><use xlink:href="#simple-barline" x="212.66052" y="210"/><use xlink:href="#blank-38" x="195.39447" y="210"/><use xlink:href="#semibrevis-4" x="163.12842" y="210"/><use xlink:href="#blank-22" x="161.86237" y="210"/><use xlink:href="#sharp-4" x="134.59631" y="210"/><use xlink:href="#blank-22" x="133.33026" y="210"/><use xlink:href="#semibrevis-4" x="101.06421" y="210"/><use xlink:href="#blank-22" x="99.79816" y="210"/><use xlink:href="#sharp-4" x="72.532104" y="210"/><use xlink:href="#blank-38" x="55.266052" y="210"/><use xlink:href="#c-clef-7" x="10" y="210"/><text x="1960" y="178" font-size="58" text-anchor="left" alignment-baseline="baseline" font-weight="normal" font-family="Times, serif" font-style="normal" stroke="black" fill="black">ᴏttaua.</text><text x="1129" y="178" font-size="58" text-anchor="left" alignment-baseline="baseline" font-weight="normal" font-family="Times, serif" font-style="normal" stroke="black" fill="black">Le quattro seſte.</text><text x="847" y="178" font-size="58" text-anchor="left" alignment-baseline="baseline" font-weight="normal" font-family="Times, serif" font-style="normal" stroke="black" fill="black">Ɋuinta.</text><text x="172" y="178" font-size="58" text-anchor="left" alignment-baseline="baseline" font-weight="normal" font-family="Times, serif" font-style="normal" stroke="black" fill="black">Le quattro terze. diſcen.</text><text x="670" y="68" font-size="58" text-anchor="left" alignment-baseline="baseline" textLength="573"  font-weight="normal" font-family="Times, serif" font-style="normal" stroke="black" fill="black">ᴅel ſecondo ᴀla mi. re.</text></svg>