<?xml version="1.0" standalone="no"?>
<!DOCTYPE svg PUBLIC "-//W3C//DTD SVG 1.1//EN" "http://www.w3.org/Graphics/SVG/1.1/DTD/svg11.dtd">
<svg stroke="black" width="1131.5" viewBox="0 0 2263.0 640.0" id="b5-c8-m1-a" version="1.1"
    xmlns="http://www.w3.org/2000/svg"
    xmlns:xlink="http://www.w3.org/1999/xlink"><rect width="100%" height="100%" fill="#e3f3ff" stroke-width="0"/><defs><g id="semibrevis-9"><line x1="2.5" y1="35.0" x2="50.5" y2="35.0" stroke-width="4.5" stroke-linecap="round"/><line x1="2.5" y1="75.0" x2="50.5" y2="75.0" stroke-width="4.5" stroke-linecap="round"/><line x1="2.5" y1="115.0" x2="50.5" y2="115.0" stroke-width="4.5" stroke-linecap="round"/><line x1="2.5" y1="155.0" x2="50.5" y2="155.0" stroke-width="4.5" stroke-linecap="round"/><line x1="2.5" y1="195.0" x2="50.5" y2="195.0" stroke-width="4.5" stroke-linecap="round"/><path fill-rule="evenodd" fill="black" d="M26.5 61.0 L3.1000004 35.0 L26.5 9.0 L49.9 35.0 zM33.022408 49.664764 L13.301713 27.752882 L19.977592 20.335236 L39.698288 42.247116 z" /></g><g id="semibrevis-2"><line x1="2.5" y1="35.0" x2="50.5" y2="35.0" stroke-width="4.5" stroke-linecap="round"/><line x1="2.5" y1="75.0" x2="50.5" y2="75.0" stroke-width="4.5" stroke-linecap="round"/><line x1="2.5" y1="115.0" x2="50.5" y2="115.0" stroke-width="4.5" stroke-linecap="round"/><line x1="2.5" y1="155.0" x2="50.5" y2="155.0" stroke-width="4.5" stroke-linecap="round"/><line x1="2.5" y1="195.0" x2="50.5" y2="195.0" stroke-width="4.5" stroke-linecap="round"/><path fill-rule="evenodd" fill="black" d="M26.5 201.0 L3.1000004 175.0 L26.5 149.0 L49.9 175.0 zM33.022408 189.66476 L13.301713 167.75288 L19.977592 160.33524 L39.698288 182.24712 z" /></g><g id="semibrevis-dot-4"><line x1="2.5" y1="35.0" x2="50.5" y2="35.0" stroke-width="4.5" stroke-linecap="round"/><line x1="2.5" y1="75.0" x2="50.5" y2="75.0" stroke-width="4.5" stroke-linecap="round"/><line x1="2.5" y1="115.0" x2="50.5" y2="115.0" stroke-width="4.5" stroke-linecap="round"/><line x1="2.5" y1="155.0" x2="50.5" y2="155.0" stroke-width="4.5" stroke-linecap="round"/><line x1="2.5" y1="195.0" x2="50.5" y2="195.0" stroke-width="4.5" stroke-linecap="round"/><path fill-rule="evenodd" fill="black" d="M26.5 161.0 L3.1000004 135.0 L26.5 109.0 L49.9 135.0 zM33.022408 149.66476 L13.301713 127.752884 L19.977592 120.335236 L39.698288 142.24712 z" /><path fill="black" d="M26.5 101.0 L20.5 95.0 L26.5 89.0 L32.5 95.0 z" /></g><g id="sharp-4"><line x1="2.5" y1="35.0" x2="45.5" y2="35.0" stroke-width="4.5" stroke-linecap="round"/><line x1="2.5" y1="75.0" x2="45.5" y2="75.0" stroke-width="4.5" stroke-linecap="round"/><line x1="2.5" y1="115.0" x2="45.5" y2="115.0" stroke-width="4.5" stroke-linecap="round"/><line x1="2.5" y1="155.0" x2="45.5" y2="155.0" stroke-width="4.5" stroke-linecap="round"/><line x1="2.5" y1="195.0" x2="45.5" y2="195.0" stroke-width="4.5" stroke-linecap="round"/><line x1="49.0" y1="155.0" x2="9.0" y2="115.0" stroke-width="2.5" stroke-linecap="round"/><line x1="49.0" y1="115.0" x2="9.0" y2="155.0" stroke-width="2.5" stroke-linecap="round"/><line x1="39.0" y1="155.0" x2="-1.0" y2="115.0" stroke-width="2.5" stroke-linecap="round"/><line x1="39.0" y1="115.0" x2="-1.0" y2="155.0" stroke-width="2.5" stroke-linecap="round"/></g><g id="semibrevis-dot-7"><line x1="2.5" y1="35.0" x2="50.5" y2="35.0" stroke-width="4.5" stroke-linecap="round"/><line x1="2.5" y1="75.0" x2="50.5" y2="75.0" stroke-width="4.5" stroke-linecap="round"/><line x1="2.5" y1="115.0" x2="50.5" y2="115.0" stroke-width="4.5" stroke-linecap="round"/><line x1="2.5" y1="155.0" x2="50.5" y2="155.0" stroke-width="4.5" stroke-linecap="round"/><line x1="2.5" y1="195.0" x2="50.5" y2="195.0" stroke-width="4.5" stroke-linecap="round"/><path fill-rule="evenodd" fill="black" d="M26.5 101.0 L3.1000004 75.0 L26.5 49.0 L49.9 75.0 zM33.022408 89.664764 L13.301713 67.752884 L19.977592 60.335236 L39.698288 82.247116 z" /><path fill="black" d="M26.5 21.0 L20.5 15.0 L26.5 9.0 L32.5 15.0 z" /></g><g id="sharp-7"><line x1="2.5" y1="35.0" x2="45.5" y2="35.0" stroke-width="4.5" stroke-linecap="round"/><line x1="2.5" y1="75.0" x2="45.5" y2="75.0" stroke-width="4.5" stroke-linecap="round"/><line x1="2.5" y1="115.0" x2="45.5" y2="115.0" stroke-width="4.5" stroke-linecap="round"/><line x1="2.5" y1="155.0" x2="45.5" y2="155.0" stroke-width="4.5" stroke-linecap="round"/><line x1="2.5" y1="195.0" x2="45.5" y2="195.0" stroke-width="4.5" stroke-linecap="round"/><line x1="41.3" y1="88.8" x2="13.700001" y2="61.2" stroke-width="2.5" stroke-linecap="round"/><line x1="41.3" y1="61.2" x2="13.700001" y2="88.8" stroke-width="2.5" stroke-linecap="round"/><line x1="34.3" y1="88.8" x2="6.700001" y2="61.2" stroke-width="2.5" stroke-linecap="round"/><line x1="34.3" y1="61.2" x2="6.700001" y2="88.8" stroke-width="2.5" stroke-linecap="round"/></g><g id="f-clef-part-7"><line x1="2.5" y1="35.0" x2="42.5" y2="35.0" stroke-width="4.5" stroke-linecap="round"/><line x1="2.5" y1="75.0" x2="42.5" y2="75.0" stroke-width="4.5" stroke-linecap="round"/><line x1="2.5" y1="115.0" x2="42.5" y2="115.0" stroke-width="4.5" stroke-linecap="round"/><line x1="2.5" y1="155.0" x2="42.5" y2="155.0" stroke-width="4.5" stroke-linecap="round"/><line x1="2.5" y1="195.0" x2="42.5" y2="195.0" stroke-width="4.5" stroke-linecap="round"/><path fill="black" d="M21.125 107.0 L23.875 107.0 L24.2875 191.0 L20.7125 191.0 z" /><path fill-rule="evenodd" fill="black" d="M22.5 121.0 L-0.8999996 95.0 L22.5 69.0 L45.9 95.0 zM29.022408 109.664764 L9.301713 87.752884 L15.977592 80.335236 L35.698288 102.247116 z" /><path fill-rule="evenodd" fill="black" d="M22.5 81.0 L-0.8999996 55.0 L22.5 29.0 L45.9 55.0 zM29.022408 69.664764 L9.301713 47.752884 L15.977592 40.335236 L35.698288 62.247116 z" /></g><g id="maxima-7"><line x1="2.5" y1="35.0" x2="65.5" y2="35.0" stroke-width="4.5" stroke-linecap="round"/><line x1="2.5" y1="75.0" x2="65.5" y2="75.0" stroke-width="4.5" stroke-linecap="round"/><line x1="2.5" y1="115.0" x2="65.5" y2="115.0" stroke-width="4.5" stroke-linecap="round"/><line x1="2.5" y1="155.0" x2="65.5" y2="155.0" stroke-width="4.5" stroke-linecap="round"/><line x1="2.5" y1="195.0" x2="65.5" y2="195.0" stroke-width="4.5" stroke-linecap="round"/><path fill-rule="evenodd" fill="black" d="M14.4 103.0 L14.4 47.0 L17.15 47.0 L17.15 95.0 L50.85 95.0 L50.85 47.0 L53.6 47.0 L53.6 103.0 L50.85 103.0 L50.85 55.0 L17.15 55.0 L17.15 103.0 zM17.15 67.5 L17.15 82.5 L50.85 82.5 L50.85 67.5 z" /><path fill="black" d="M50.85 103.0 L53.6 103.0 L54.012497 187.0 L50.4375 187.0 z" /></g><g id="semibrevis-8"><line x1="2.5" y1="35.0" x2="50.5" y2="35.0" stroke-width="4.5" stroke-linecap="round"/><line x1="2.5" y1="75.0" x2="50.5" y2="75.0" stroke-width="4.5" stroke-linecap="round"/><line x1="2.5" y1="115.0" x2="50.5" y2="115.0" stroke-width="4.5" stroke-linecap="round"/><line x1="2.5" y1="155.0" x2="50.5" y2="155.0" stroke-width="4.5" stroke-linecap="round"/><line x1="2.5" y1="195.0" x2="50.5" y2="195.0" stroke-width="4.5" stroke-linecap="round"/><path fill-rule="evenodd" fill="black" d="M26.5 81.0 L3.1000004 55.0 L26.5 29.0 L49.9 55.0 zM33.022408 69.664764 L13.301713 47.752884 L19.977592 40.335236 L39.698288 62.247116 z" /></g><g id="semibrevis-7"><line x1="2.5" y1="35.0" x2="50.5" y2="35.0" stroke-width="4.5" stroke-linecap="round"/><line x1="2.5" y1="75.0" x2="50.5" y2="75.0" stroke-width="4.5" stroke-linecap="round"/><line x1="2.5" y1="115.0" x2="50.5" y2="115.0" stroke-width="4.5" stroke-linecap="round"/><line x1="2.5" y1="155.0" x2="50.5" y2="155.0" stroke-width="4.5" stroke-linecap="round"/><line x1="2.5" y1="195.0" x2="50.5" y2="195.0" stroke-width="4.5" stroke-linecap="round"/><path fill-rule="evenodd" fill="black" d="M26.5 101.0 L3.1000004 75.0 L26.5 49.0 L49.9 75.0 zM33.022408 89.664764 L13.301713 67.752884 L19.977592 60.335236 L39.698288 82.247116 z" /></g><g id="flat-7"><line x1="2.5" y1="35.0" x2="27.5" y2="35.0" stroke-width="4.5" stroke-linecap="round"/><line x1="2.5" y1="75.0" x2="27.5" y2="75.0" stroke-width="4.5" stroke-linecap="round"/><line x1="2.5" y1="115.0" x2="27.5" y2="115.0" stroke-width="4.5" stroke-linecap="round"/><line x1="2.5" y1="155.0" x2="27.5" y2="155.0" stroke-width="4.5" stroke-linecap="round"/><line x1="2.5" y1="195.0" x2="27.5" y2="195.0" stroke-width="4.5" stroke-linecap="round"/><path stroke="black" fill="none" stroke-width="3.25" stroke-linecap="round" d="M2.1999998 87.8 A15.360001 15.360001 0 1 0 2.1999998 62.200005 " /><path fill="black" d="M0.9499998 87.8 L3.4499998 87.8 L3.5749998 -0.19999695 L-0.5500002 -0.19999695 z" /></g><g id="sharp-6"><line x1="2.5" y1="35.0" x2="45.5" y2="35.0" stroke-width="4.5" stroke-linecap="round"/><line x1="2.5" y1="75.0" x2="45.5" y2="75.0" stroke-width="4.5" stroke-linecap="round"/><line x1="2.5" y1="115.0" x2="45.5" y2="115.0" stroke-width="4.5" stroke-linecap="round"/><line x1="2.5" y1="155.0" x2="45.5" y2="155.0" stroke-width="4.5" stroke-linecap="round"/><line x1="2.5" y1="195.0" x2="45.5" y2="195.0" stroke-width="4.5" stroke-linecap="round"/><line x1="49.0" y1="115.0" x2="9.0" y2="75.0" stroke-width="2.5" stroke-linecap="round"/><line x1="49.0" y1="75.0" x2="9.0" y2="115.0" stroke-width="2.5" stroke-linecap="round"/><line x1="39.0" y1="115.0" x2="-1.0" y2="75.0" stroke-width="2.5" stroke-linecap="round"/><line x1="39.0" y1="75.0" x2="-1.0" y2="115.0" stroke-width="2.5" stroke-linecap="round"/></g><g id="semibrevis-dot-6"><line x1="2.5" y1="35.0" x2="50.5" y2="35.0" stroke-width="4.5" stroke-linecap="round"/><line x1="2.5" y1="75.0" x2="50.5" y2="75.0" stroke-width="4.5" stroke-linecap="round"/><line x1="2.5" y1="115.0" x2="50.5" y2="115.0" stroke-width="4.5" stroke-linecap="round"/><line x1="2.5" y1="155.0" x2="50.5" y2="155.0" stroke-width="4.5" stroke-linecap="round"/><line x1="2.5" y1="195.0" x2="50.5" y2="195.0" stroke-width="4.5" stroke-linecap="round"/><path fill-rule="evenodd" fill="black" d="M26.5 121.0 L3.1000004 95.0 L26.5 69.0 L49.9 95.0 zM33.022408 109.664764 L13.301713 87.752884 L19.977592 80.335236 L39.698288 102.247116 z" /><path fill="black" d="M26.5 61.0 L20.5 55.0 L26.5 49.0 L32.5 55.0 z" /></g><g id="semibrevis-6"><line x1="2.5" y1="35.0" x2="50.5" y2="35.0" stroke-width="4.5" stroke-linecap="round"/><line x1="2.5" y1="75.0" x2="50.5" y2="75.0" stroke-width="4.5" stroke-linecap="round"/><line x1="2.5" y1="115.0" x2="50.5" y2="115.0" stroke-width="4.5" stroke-linecap="round"/><line x1="2.5" y1="155.0" x2="50.5" y2="155.0" stroke-width="4.5" stroke-linecap="round"/><line x1="2.5" y1="195.0" x2="50.5" y2="195.0" stroke-width="4.5" stroke-linecap="round"/><path fill-rule="evenodd" fill="black" d="M26.5 121.0 L3.1000004 95.0 L26.5 69.0 L49.9 95.0 zM33.022408 109.664764 L13.301713 87.752884 L19.977592 80.335236 L39.698288 102.247116 z" /></g><g id="semibrevis-4"><line x1="2.5" y1="35.0" x2="50.5" y2="35.0" stroke-width="4.5" stroke-linecap="round"/><line x1="2.5" y1="75.0" x2="50.5" y2="75.0" stroke-width="4.5" stroke-linecap="round"/><line x1="2.5" y1="115.0" x2="50.5" y2="115.0" stroke-width="4.5" stroke-linecap="round"/><line x1="2.5" y1="155.0" x2="50.5" y2="155.0" stroke-width="4.5" stroke-linecap="round"/><line x1="2.5" y1="195.0" x2="50.5" y2="195.0" stroke-width="4.5" stroke-linecap="round"/><path fill-rule="evenodd" fill="black" d="M26.5 161.0 L3.1000004 135.0 L26.5 109.0 L49.9 135.0 zM33.022408 149.66476 L13.301713 127.752884 L19.977592 120.335236 L39.698288 142.24712 z" /></g><g id="flat-4"><line x1="2.5" y1="35.0" x2="27.5" y2="35.0" stroke-width="4.5" stroke-linecap="round"/><line x1="2.5" y1="75.0" x2="27.5" y2="75.0" stroke-width="4.5" stroke-linecap="round"/><line x1="2.5" y1="115.0" x2="27.5" y2="115.0" stroke-width="4.5" stroke-linecap="round"/><line x1="2.5" y1="155.0" x2="27.5" y2="155.0" stroke-width="4.5" stroke-linecap="round"/><line x1="2.5" y1="195.0" x2="27.5" y2="195.0" stroke-width="4.5" stroke-linecap="round"/><path stroke="black" fill="none" stroke-width="3.25" stroke-linecap="round" d="M2.1999998 147.8 A15.360001 15.360001 0 1 0 2.1999998 122.200005 " /><path fill="black" d="M0.9499998 147.8 L3.4499998 147.8 L3.5749998 19.800003 L-0.5500002 19.800003 z" /></g><g id="sharp-3"><line x1="2.5" y1="35.0" x2="45.5" y2="35.0" stroke-width="4.5" stroke-linecap="round"/><line x1="2.5" y1="75.0" x2="45.5" y2="75.0" stroke-width="4.5" stroke-linecap="round"/><line x1="2.5" y1="115.0" x2="45.5" y2="115.0" stroke-width="4.5" stroke-linecap="round"/><line x1="2.5" y1="155.0" x2="45.5" y2="155.0" stroke-width="4.5" stroke-linecap="round"/><line x1="2.5" y1="195.0" x2="45.5" y2="195.0" stroke-width="4.5" stroke-linecap="round"/><line x1="41.3" y1="168.8" x2="13.700001" y2="141.2" stroke-width="2.5" stroke-linecap="round"/><line x1="41.3" y1="141.2" x2="13.700001" y2="168.8" stroke-width="2.5" stroke-linecap="round"/><line x1="34.3" y1="168.8" x2="6.700001" y2="141.2" stroke-width="2.5" stroke-linecap="round"/><line x1="34.3" y1="141.2" x2="6.700001" y2="168.8" stroke-width="2.5" stroke-linecap="round"/></g><g id="semibrevis-dot-3"><line x1="2.5" y1="35.0" x2="50.5" y2="35.0" stroke-width="4.5" stroke-linecap="round"/><line x1="2.5" y1="75.0" x2="50.5" y2="75.0" stroke-width="4.5" stroke-linecap="round"/><line x1="2.5" y1="115.0" x2="50.5" y2="115.0" stroke-width="4.5" stroke-linecap="round"/><line x1="2.5" y1="155.0" x2="50.5" y2="155.0" stroke-width="4.5" stroke-linecap="round"/><line x1="2.5" y1="195.0" x2="50.5" y2="195.0" stroke-width="4.5" stroke-linecap="round"/><path fill-rule="evenodd" fill="black" d="M26.5 181.0 L3.1000004 155.0 L26.5 129.0 L49.9 155.0 zM33.022408 169.66476 L13.301713 147.75288 L19.977592 140.33524 L39.698288 162.24712 z" /><path fill="black" d="M26.5 101.0 L20.5 95.0 L26.5 89.0 L32.5 95.0 z" /></g><g id="semibrevis-3"><line x1="2.5" y1="35.0" x2="50.5" y2="35.0" stroke-width="4.5" stroke-linecap="round"/><line x1="2.5" y1="75.0" x2="50.5" y2="75.0" stroke-width="4.5" stroke-linecap="round"/><line x1="2.5" y1="115.0" x2="50.5" y2="115.0" stroke-width="4.5" stroke-linecap="round"/><line x1="2.5" y1="155.0" x2="50.5" y2="155.0" stroke-width="4.5" stroke-linecap="round"/><line x1="2.5" y1="195.0" x2="50.5" y2="195.0" stroke-width="4.5" stroke-linecap="round"/><path fill-rule="evenodd" fill="black" d="M26.5 181.0 L3.1000004 155.0 L26.5 129.0 L49.9 155.0 zM33.022408 169.66476 L13.301713 147.75288 L19.977592 140.33524 L39.698288 162.24712 z" /></g><g id="c-clef-3"><line x1="2.5" y1="35.0" x2="63.5" y2="35.0" stroke-width="4.5" stroke-linecap="round"/><line x1="2.5" y1="75.0" x2="63.5" y2="75.0" stroke-width="4.5" stroke-linecap="round"/><line x1="2.5" y1="115.0" x2="63.5" y2="115.0" stroke-width="4.5" stroke-linecap="round"/><line x1="2.5" y1="155.0" x2="63.5" y2="155.0" stroke-width="4.5" stroke-linecap="round"/><line x1="2.5" y1="195.0" x2="63.5" y2="195.0" stroke-width="4.5" stroke-linecap="round"/><path fill-rule="evenodd" color="black" d="M11.049999 67.0 L11.049999 243.0 L16.55 243.0 L16.55 195.0 L51.45 195.0 L51.45 219.0 L54.95 219.0 L54.95 163.0 L16.55 163.0 L16.55 147.0 L54.95 147.0 L54.95 91.0 L51.45 91.0 L51.45 115.0 L16.55 115.0 L16.55 67.0 zM16.55 184.5 L51.45 184.5 L51.45 173.5 L16.55 173.5 zM16.55 136.5 L51.45 136.5 L51.45 125.5 L16.55 125.5 z" /></g><g id="simple-barline"><line x1="2.5" y1="35.0" x2="41.5" y2="35.0" stroke-width="4.5" stroke-linecap="round"/><line x1="2.5" y1="75.0" x2="41.5" y2="75.0" stroke-width="4.5" stroke-linecap="round"/><line x1="2.5" y1="115.0" x2="41.5" y2="115.0" stroke-width="4.5" stroke-linecap="round"/><line x1="2.5" y1="155.0" x2="41.5" y2="155.0" stroke-width="4.5" stroke-linecap="round"/><line x1="2.5" y1="195.0" x2="41.5" y2="195.0" stroke-width="4.5" stroke-linecap="round"/><line x1="22.0" y1="203.0" x2="22.0" y2="27.0" stroke-width="4.75" stroke-linecap="square"/></g><g id="blank-22"><line x1="2.5" y1="35.0" x2="19.5" y2="35.0" stroke-width="4.5" stroke-linecap="round"/><line x1="2.5" y1="75.0" x2="19.5" y2="75.0" stroke-width="4.5" stroke-linecap="round"/><line x1="2.5" y1="115.0" x2="19.5" y2="115.0" stroke-width="4.5" stroke-linecap="round"/><line x1="2.5" y1="155.0" x2="19.5" y2="155.0" stroke-width="4.5" stroke-linecap="round"/><line x1="2.5" y1="195.0" x2="19.5" y2="195.0" stroke-width="4.5" stroke-linecap="round"/></g><g id="semibrevis-5"><line x1="2.5" y1="35.0" x2="50.5" y2="35.0" stroke-width="4.5" stroke-linecap="round"/><line x1="2.5" y1="75.0" x2="50.5" y2="75.0" stroke-width="4.5" stroke-linecap="round"/><line x1="2.5" y1="115.0" x2="50.5" y2="115.0" stroke-width="4.5" stroke-linecap="round"/><line x1="2.5" y1="155.0" x2="50.5" y2="155.0" stroke-width="4.5" stroke-linecap="round"/><line x1="2.5" y1="195.0" x2="50.5" y2="195.0" stroke-width="4.5" stroke-linecap="round"/><path fill-rule="evenodd" fill="black" d="M26.5 141.0 L3.1000004 115.0 L26.5 89.0 L49.9 115.0 zM33.022408 129.66476 L13.301713 107.752884 L19.977592 100.335236 L39.698288 122.247116 z" /></g><g id="blank-38"><line x1="2.5" y1="35.0" x2="35.5" y2="35.0" stroke-width="4.5" stroke-linecap="round"/><line x1="2.5" y1="75.0" x2="35.5" y2="75.0" stroke-width="4.5" stroke-linecap="round"/><line x1="2.5" y1="115.0" x2="35.5" y2="115.0" stroke-width="4.5" stroke-linecap="round"/><line x1="2.5" y1="155.0" x2="35.5" y2="155.0" stroke-width="4.5" stroke-linecap="round"/><line x1="2.5" y1="195.0" x2="35.5" y2="195.0" stroke-width="4.5" stroke-linecap="round"/></g><g id="c-clef-7"><line x1="2.5" y1="35.0" x2="63.5" y2="35.0" stroke-width="4.5" stroke-linecap="round"/><line x1="2.5" y1="75.0" x2="63.5" y2="75.0" stroke-width="4.5" stroke-linecap="round"/><line x1="2.5" y1="115.0" x2="63.5" y2="115.0" stroke-width="4.5" stroke-linecap="round"/><line x1="2.5" y1="155.0" x2="63.5" y2="155.0" stroke-width="4.5" stroke-linecap="round"/><line x1="2.5" y1="195.0" x2="63.5" y2="195.0" stroke-width="4.5" stroke-linecap="round"/><path fill-rule="evenodd" color="black" d="M11.049999 -5.0 L11.049999 203.0 L16.55 203.0 L16.55 115.0 L51.45 115.0 L51.45 139.0 L54.95 139.0 L54.95 83.0 L16.55 83.0 L16.55 67.0 L54.95 67.0 L54.95 11.0 L51.45 11.0 L51.45 35.0 L16.55 35.0 L16.55 -5.0 zM16.55 104.5 L51.45 104.5 L51.45 93.5 L16.55 93.5 zM16.55 56.5 L51.45 56.5 L51.45 45.5 L16.55 45.5 z" /></g></defs><use xlink:href="#simple-barline" x="2202.7153" y="400"/><use xlink:href="#semibrevis-9" x="2150.4324" y="400"/><use xlink:href="#simple-barline" x="2107.1494" y="400"/><use xlink:href="#blank-22" x="2085.8665" y="400"/><use xlink:href="#semibrevis-9" x="2033.5835" y="400"/><use xlink:href="#blank-22" x="2012.3005" y="400"/><use xlink:href="#blank-22" x="1991.0176" y="400"/><use xlink:href="#semibrevis-9" x="1938.7346" y="400"/><use xlink:href="#blank-22" x="1917.4517" y="400"/><use xlink:href="#blank-22" x="1896.1687" y="400"/><use xlink:href="#simple-barline" x="1852.8857" y="400"/><use xlink:href="#blank-22" x="1831.6028" y="400"/><use xlink:href="#semibrevis-9" x="1779.3198" y="400"/><use xlink:href="#blank-22" x="1758.0369" y="400"/><use xlink:href="#semibrevis-9" x="1705.7539" y="400"/><use xlink:href="#simple-barline" x="1662.471" y="400"/><use xlink:href="#blank-38" x="1625.188" y="400"/><use xlink:href="#semibrevis-9" x="1572.905" y="400"/><use xlink:href="#blank-38" x="1535.6221" y="400"/><use xlink:href="#simple-barline" x="1492.3391" y="400"/><use xlink:href="#blank-22" x="1471.0562" y="400"/><use xlink:href="#semibrevis-9" x="1418.7732" y="400"/><use xlink:href="#semibrevis-9" x="1366.4902" y="400"/><use xlink:href="#semibrevis-9" x="1314.2073" y="400"/><use xlink:href="#semibrevis-9" x="1261.9243" y="400"/><use xlink:href="#blank-22" x="1240.6414" y="400"/><use xlink:href="#f-clef-part-7" x="1196.3584" y="400"/><use xlink:href="#maxima-7" x="1129.0754" y="400"/><use xlink:href="#blank-38" x="1091.7925" y="400"/><use xlink:href="#semibrevis-2" x="1039.5094" y="400"/><use xlink:href="#blank-22" x="1018.22644" y="400"/><use xlink:href="#simple-barline" x="974.9434" y="400"/><use xlink:href="#semibrevis-3" x="922.6604" y="400"/><use xlink:href="#sharp-3" x="875.3774" y="400"/><use xlink:href="#semibrevis-4" x="823.09436" y="400"/><use xlink:href="#simple-barline" x="779.81134" y="400"/><use xlink:href="#blank-22" x="758.5283" y="400"/><use xlink:href="#semibrevis-dot-4" x="706.2453" y="400"/><use xlink:href="#semibrevis-4" x="653.9623" y="400"/><use xlink:href="#sharp-4" x="606.67926" y="400"/><use xlink:href="#simple-barline" x="563.39624" y="400"/><use xlink:href="#blank-22" x="542.1132" y="400"/><use xlink:href="#semibrevis-5" x="489.8302" y="400"/><use xlink:href="#blank-22" x="468.54718" y="400"/><use xlink:href="#simple-barline" x="425.26416" y="400"/><use xlink:href="#semibrevis-6" x="372.98114" y="400"/><use xlink:href="#sharp-6" x="325.69812" y="400"/><use xlink:href="#semibrevis-7" x="273.4151" y="400"/><use xlink:href="#semibrevis-dot-7" x="221.13208" y="400"/><use xlink:href="#semibrevis-7" x="168.84906" y="400"/><use xlink:href="#sharp-7" x="121.56604" y="400"/><use xlink:href="#f-clef-part-7" x="77.28302" y="400"/><use xlink:href="#maxima-7" x="10" y="400"/><text x="1684" y="368" font-size="58" text-anchor="left" alignment-baseline="baseline" font-weight="normal" font-family="Times, serif" font-style="normal" stroke="black" fill="black">con le ſue propinque.</text><text x="1173" y="368" font-size="58" text-anchor="left" alignment-baseline="baseline" font-weight="normal" font-family="Times, serif" font-style="normal" stroke="black" fill="black">cō le propinque.</text><text x="794" y="368" font-size="58" text-anchor="left" alignment-baseline="baseline" font-weight="normal" font-family="Times, serif" font-style="normal" stroke="black" fill="black">propinq.</text><text x="560" y="368" font-size="58" text-anchor="left" alignment-baseline="baseline" font-weight="normal" font-family="Times, serif" font-style="normal" stroke="black" fill="black">propinq.</text><text x="15" y="368" font-size="58" text-anchor="left" alignment-baseline="baseline" font-weight="normal" font-family="Times, serif" font-style="normal" stroke="black" fill="black">con le ſue propinque.</text><use xlink:href="#simple-barline" x="2209.3813" y="80"/><use xlink:href="#semibrevis-8" x="2156.7632" y="80"/><use xlink:href="#simple-barline" x="2113.145" y="80"/><use xlink:href="#semibrevis-7" x="2060.5269" y="80"/><use xlink:href="#flat-7" x="2030.9086" y="80"/><use xlink:href="#semibrevis-6" x="1978.2904" y="80"/><use xlink:href="#sharp-6" x="1930.6722" y="80"/><use xlink:href="#blank-22" x="1909.0541" y="80"/><use xlink:href="#simple-barline" x="1865.4359" y="80"/><use xlink:href="#blank-22" x="1843.8177" y="80"/><use xlink:href="#semibrevis-dot-6" x="1791.1996" y="80"/><use xlink:href="#blank-38" x="1753.5814" y="80"/><use xlink:href="#semibrevis-6" x="1700.9633" y="80"/><use xlink:href="#simple-barline" x="1657.3451" y="80"/><use xlink:href="#blank-38" x="1619.7269" y="80"/><use xlink:href="#semibrevis-5" x="1567.1088" y="80"/><use xlink:href="#blank-38" x="1529.4906" y="80"/><use xlink:href="#simple-barline" x="1485.8724" y="80"/><use xlink:href="#semibrevis-4" x="1433.2543" y="80"/><use xlink:href="#flat-4" x="1403.6361" y="80"/><use xlink:href="#semibrevis-3" x="1351.018" y="80"/><use xlink:href="#sharp-3" x="1303.3998" y="80"/><use xlink:href="#semibrevis-dot-3" x="1250.7816" y="80"/><use xlink:href="#semibrevis-3" x="1198.1635" y="80"/><use xlink:href="#c-clef-3" x="1132.5453" y="80"/><use xlink:href="#blank-38" x="1094.9271" y="80"/><use xlink:href="#semibrevis-5" x="1042.309" y="80"/><use xlink:href="#blank-22" x="1020.69073" y="80"/><use xlink:href="#simple-barline" x="977.0726" y="80"/><use xlink:href="#blank-22" x="955.4544" y="80"/><use xlink:href="#semibrevis-5" x="902.83624" y="80"/><use xlink:href="#blank-22" x="881.2181" y="80"/><use xlink:href="#semibrevis-5" x="828.5999" y="80"/><use xlink:href="#blank-22" x="806.98175" y="80"/><use xlink:href="#simple-barline" x="763.3636" y="80"/><use xlink:href="#blank-22" x="741.7454" y="80"/><use xlink:href="#semibrevis-5" x="689.12726" y="80"/><use xlink:href="#blank-22" x="667.5091" y="80"/><use xlink:href="#semibrevis-5" x="614.8909" y="80"/><use xlink:href="#blank-22" x="593.27277" y="80"/><use xlink:href="#simple-barline" x="549.6546" y="80"/><use xlink:href="#blank-22" x="528.03644" y="80"/><use xlink:href="#semibrevis-5" x="475.41824" y="80"/><use xlink:href="#blank-22" x="453.80005" y="80"/><use xlink:href="#simple-barline" x="410.18185" y="80"/><use xlink:href="#blank-22" x="388.56366" y="80"/><use xlink:href="#semibrevis-5" x="335.94547" y="80"/><use xlink:href="#blank-22" x="314.32727" y="80"/><use xlink:href="#semibrevis-5" x="261.70908" y="80"/><use xlink:href="#blank-22" x="240.0909" y="80"/><use xlink:href="#semibrevis-5" x="187.47272" y="80"/><use xlink:href="#blank-22" x="165.85454" y="80"/><use xlink:href="#semibrevis-5" x="113.23636" y="80"/><use xlink:href="#blank-38" x="75.61818" y="80"/><use xlink:href="#c-clef-7" x="10" y="80"/><text x="2181" y="68" font-size="58" text-anchor="left" alignment-baseline="baseline" font-weight="normal" font-family="Times, serif" font-style="normal" stroke="black" fill="black">8.</text><text x="1686" y="68" font-size="58" text-anchor="left" alignment-baseline="baseline" font-weight="normal" font-family="Times, serif" font-style="normal" stroke="black" fill="black">ʟe 4.ſorti di ſeſte.</text><text x="1590" y="68" font-size="58" text-anchor="left" alignment-baseline="baseline" font-weight="normal" font-family="Times, serif" font-style="normal" stroke="black" fill="black">5.</text><text x="1161" y="68" font-size="58" text-anchor="left" alignment-baseline="baseline" font-weight="normal" font-family="Times, serif" font-style="normal" stroke="black" fill="black">Le 4.3.diſopra.</text><text x="1048" y="68" font-size="58" text-anchor="left" alignment-baseline="baseline" font-weight="normal" font-family="Times, serif" font-style="normal" stroke="black" fill="black">8.</text><text x="809" y="68" font-size="58" text-anchor="left" alignment-baseline="baseline" font-weight="normal" font-family="Times, serif" font-style="normal" stroke="black" fill="black">6.mag.</text><text x="584" y="68" font-size="58" text-anchor="left" alignment-baseline="baseline" font-weight="normal" font-family="Times, serif" font-style="normal" stroke="black" fill="black">.6.min.</text><text x="481" y="68" font-size="58" text-anchor="left" alignment-baseline="baseline" font-weight="normal" font-family="Times, serif" font-style="normal" stroke="black" fill="black">5.</text><text x="22" y="68" font-size="58" text-anchor="left" alignment-baseline="baseline" font-weight="normal" font-family="Times, serif" font-style="normal" stroke="black" fill="black">Le 4.3.di ſotto.</text></svg>