<?xml version="1.0" standalone="no"?>
<!DOCTYPE svg PUBLIC "-//W3C//DTD SVG 1.1//EN" "http://www.w3.org/Graphics/SVG/1.1/DTD/svg11.dtd">
<svg stroke="black" width="1360" height="850" id="clef-devel" version="1.1"
    xmlns="http://www.w3.org/2000/svg"
    xmlns:xlink="http://www.w3.org/1999/xlink"><rect width="100%" height="100%" fill="white"/><symbol id="blank-c"><line x1="8" y1="200.0" x2="442" y2="200.0" stroke-width="12" stroke-linecap="round"/><line x1="8" y1="300.0" x2="442" y2="300.0" stroke-width="12" stroke-linecap="round"/><line x1="8" y1="400.0" x2="442" y2="400.0" stroke-width="12" stroke-linecap="round"/><line x1="8" y1="500.0" x2="442" y2="500.0" stroke-width="12" stroke-linecap="round"/><line x1="8" y1="600.0" x2="442" y2="600.0" stroke-width="12" stroke-linecap="round"/></symbol><symbol id="c-clef-7"><line x1="8" y1="200.0" x2="142" y2="200.0" stroke-width="12" stroke-linecap="round"/><line x1="8" y1="300.0" x2="142" y2="300.0" stroke-width="12" stroke-linecap="round"/><line x1="8" y1="400.0" x2="142" y2="400.0" stroke-width="12" stroke-linecap="round"/><line x1="8" y1="500.0" x2="142" y2="500.0" stroke-width="12" stroke-linecap="round"/><line x1="8" y1="600.0" x2="142" y2="600.0" stroke-width="12" stroke-linecap="round"/><path fill-rule="evenodd" color="black" d="M14.5 100.0 L14.5 620.0 L39.5 620.0 L39.5 400.0 L120.5 400.0 L120.5 480.0 L135.5 480.0 L135.5 320.0 L39.5 320.0 L39.5 280.0 L135.5 280.0 L135.5 120.0 L120.5 120.0 L120.5 200.0 L39.5 200.0 L39.5 100.0 zM39.5 382.0 L120.5 382.0 L120.5 338.0 L39.5 338.0 zM39.5 262.0 L120.5 262.0 L120.5 218.0 L39.5 218.0 z" /></symbol><symbol id="blank-b"><line x1="8" y1="200.0" x2="142" y2="200.0" stroke-width="12" stroke-linecap="round"/><line x1="8" y1="300.0" x2="142" y2="300.0" stroke-width="12" stroke-linecap="round"/><line x1="8" y1="400.0" x2="142" y2="400.0" stroke-width="12" stroke-linecap="round"/><line x1="8" y1="500.0" x2="142" y2="500.0" stroke-width="12" stroke-linecap="round"/><line x1="8" y1="600.0" x2="142" y2="600.0" stroke-width="12" stroke-linecap="round"/></symbol><symbol id="f-clef-part-7"><line x1="8" y1="200.0" x2="172" y2="200.0" stroke-width="12" stroke-linecap="round"/><line x1="8" y1="300.0" x2="172" y2="300.0" stroke-width="12" stroke-linecap="round"/><line x1="8" y1="400.0" x2="172" y2="400.0" stroke-width="12" stroke-linecap="round"/><line x1="8" y1="500.0" x2="172" y2="500.0" stroke-width="12" stroke-linecap="round"/><line x1="8" y1="600.0" x2="172" y2="600.0" stroke-width="12" stroke-linecap="round"/><path fill="black" d="M83.0 394.0 L97.0 394.0 L102.6 644.0 L77.4 644.0 z" /><path fill-rule="evenodd" fill="black" d="M90.0 422.0 L18.0 350.0 L90.0 278.0 L162.0 350.0 zM104.142136 390.8873 L49.112698 335.85785 L75.857864 309.1127 L130.8873 364.14215 z" /><path fill-rule="evenodd" fill="black" d="M90.0 322.0 L18.0 250.0 L90.0 178.0 L162.0 250.0 zM104.142136 290.8873 L49.112698 235.85786 L75.857864 209.1127 L130.8873 264.14215 z" /></symbol><symbol id="maxima7"><line x1="8" y1="200.0" x2="172" y2="200.0" stroke-width="12" stroke-linecap="round"/><line x1="8" y1="300.0" x2="172" y2="300.0" stroke-width="12" stroke-linecap="round"/><line x1="8" y1="400.0" x2="172" y2="400.0" stroke-width="12" stroke-linecap="round"/><line x1="8" y1="500.0" x2="172" y2="500.0" stroke-width="12" stroke-linecap="round"/><line x1="8" y1="600.0" x2="172" y2="600.0" stroke-width="12" stroke-linecap="round"/><path fill-rule="evenodd" fill="black" d="M14.0 380.0 L14.0 220.0 L30.0 220.0 L30.0 350.0 L150.0 350.0 L150.0 220.0 L166.0 220.0 L166.0 380.0 L150.0 380.0 L150.0 250.0 L30.0 250.0 L30.0 380.0 zM30.0 278.0 L30.0 322.0 L150.0 322.0 L150.0 278.0 z" /><path fill="black" d="M151.0 380.0 L165.0 380.0 L170.6 630.0 L145.4 630.0 z" /></symbol><symbol id="blank-a"><line x1="8" y1="200.0" x2="42" y2="200.0" stroke-width="12" stroke-linecap="round"/><line x1="8" y1="300.0" x2="42" y2="300.0" stroke-width="12" stroke-linecap="round"/><line x1="8" y1="400.0" x2="42" y2="400.0" stroke-width="12" stroke-linecap="round"/><line x1="8" y1="500.0" x2="42" y2="500.0" stroke-width="12" stroke-linecap="round"/><line x1="8" y1="600.0" x2="42" y2="600.0" stroke-width="12" stroke-linecap="round"/></symbol><use href="#blank-c" x="810" y="50"/><use href="#c-clef-7" x="660" y="50"/><use href="#blank-b" x="510" y="50"/><use href="#f-clef-part-7" x="330" y="50"/><use href="#maxima7" x="150" y="50"/><use href="#blank-a" x="100" y="50"/></svg>