<?xml version="1.0" standalone="no"?>
<!DOCTYPE svg PUBLIC "-//W3C//DTD SVG 1.1//EN" "http://www.w3.org/Graphics/SVG/1.1/DTD/svg11.dtd">
<svg stroke="black" width="1119.0" viewBox="0 0 2238.0 560.0" id="l1c28m1" version="1.1"
    xmlns="http://www.w3.org/2000/svg"
    xmlns:xlink="http://www.w3.org/1999/xlink"><rect width="100%" height="100%" fill="white"/><defs><g id="flat-4"><line x1="2.5" y1="35.0" x2="27.5" y2="35.0" stroke-width="4.5" stroke-linecap="round"/><line x1="2.5" y1="75.0" x2="27.5" y2="75.0" stroke-width="4.5" stroke-linecap="round"/><line x1="2.5" y1="115.0" x2="27.5" y2="115.0" stroke-width="4.5" stroke-linecap="round"/><line x1="2.5" y1="155.0" x2="27.5" y2="155.0" stroke-width="4.5" stroke-linecap="round"/><line x1="2.5" y1="195.0" x2="27.5" y2="195.0" stroke-width="4.5" stroke-linecap="round"/><path stroke="black" fill="none" stroke-width="3.25" stroke-linecap="round" d="M2.1999998 147.8 A15.360001 15.360001 0 1 0 2.1999998 122.200005 " /><path fill="black" d="M0.9499998 147.8 L3.4499998 147.8 L3.5749998 19.800003 L-0.5500002 19.800003 z" /></g><g id="semibrevis-5"><line x1="2.5" y1="35.0" x2="50.5" y2="35.0" stroke-width="4.5" stroke-linecap="round"/><line x1="2.5" y1="75.0" x2="50.5" y2="75.0" stroke-width="4.5" stroke-linecap="round"/><line x1="2.5" y1="115.0" x2="50.5" y2="115.0" stroke-width="4.5" stroke-linecap="round"/><line x1="2.5" y1="155.0" x2="50.5" y2="155.0" stroke-width="4.5" stroke-linecap="round"/><line x1="2.5" y1="195.0" x2="50.5" y2="195.0" stroke-width="4.5" stroke-linecap="round"/><path fill-rule="evenodd" fill="black" d="M26.5 141.0 L3.1000004 115.0 L26.5 89.0 L49.9 115.0 zM33.022408 129.66476 L13.301713 107.752884 L19.977592 100.335236 L39.698288 122.247116 z" /></g><g id="semibrevis-6"><line x1="2.5" y1="35.0" x2="50.5" y2="35.0" stroke-width="4.5" stroke-linecap="round"/><line x1="2.5" y1="75.0" x2="50.5" y2="75.0" stroke-width="4.5" stroke-linecap="round"/><line x1="2.5" y1="115.0" x2="50.5" y2="115.0" stroke-width="4.5" stroke-linecap="round"/><line x1="2.5" y1="155.0" x2="50.5" y2="155.0" stroke-width="4.5" stroke-linecap="round"/><line x1="2.5" y1="195.0" x2="50.5" y2="195.0" stroke-width="4.5" stroke-linecap="round"/><path fill-rule="evenodd" fill="black" d="M26.5 121.0 L3.1000004 95.0 L26.5 69.0 L49.9 95.0 zM33.022408 109.664764 L13.301713 87.752884 L19.977592 80.335236 L39.698288 102.247116 z" /></g><g id="semibrevis-dot-7"><line x1="2.5" y1="35.0" x2="50.5" y2="35.0" stroke-width="4.5" stroke-linecap="round"/><line x1="2.5" y1="75.0" x2="50.5" y2="75.0" stroke-width="4.5" stroke-linecap="round"/><line x1="2.5" y1="115.0" x2="50.5" y2="115.0" stroke-width="4.5" stroke-linecap="round"/><line x1="2.5" y1="155.0" x2="50.5" y2="155.0" stroke-width="4.5" stroke-linecap="round"/><line x1="2.5" y1="195.0" x2="50.5" y2="195.0" stroke-width="4.5" stroke-linecap="round"/><path fill-rule="evenodd" fill="black" d="M26.5 101.0 L3.1000004 75.0 L26.5 49.0 L49.9 75.0 zM33.022408 89.664764 L13.301713 67.752884 L19.977592 60.335236 L39.698288 82.247116 z" /><path fill="black" d="M26.5 21.0 L20.5 15.0 L26.5 9.0 L32.5 15.0 z" /></g><g id="semibrevis-dot-9"><line x1="2.5" y1="35.0" x2="50.5" y2="35.0" stroke-width="4.5" stroke-linecap="round"/><line x1="2.5" y1="75.0" x2="50.5" y2="75.0" stroke-width="4.5" stroke-linecap="round"/><line x1="2.5" y1="115.0" x2="50.5" y2="115.0" stroke-width="4.5" stroke-linecap="round"/><line x1="2.5" y1="155.0" x2="50.5" y2="155.0" stroke-width="4.5" stroke-linecap="round"/><line x1="2.5" y1="195.0" x2="50.5" y2="195.0" stroke-width="4.5" stroke-linecap="round"/><path fill-rule="evenodd" fill="black" d="M26.5 61.0 L3.1000004 35.0 L26.5 9.0 L49.9 35.0 zM33.022408 49.664764 L13.301713 27.752882 L19.977592 20.335236 L39.698288 42.247116 z" /><path fill="black" d="M26.5 1.0 L20.5 -5.0 L26.5 -11.0 L32.5 -5.0 z" /></g><g id="flat-9"><line x1="2.5" y1="35.0" x2="27.5" y2="35.0" stroke-width="4.5" stroke-linecap="round"/><line x1="2.5" y1="75.0" x2="27.5" y2="75.0" stroke-width="4.5" stroke-linecap="round"/><line x1="2.5" y1="115.0" x2="27.5" y2="115.0" stroke-width="4.5" stroke-linecap="round"/><line x1="2.5" y1="155.0" x2="27.5" y2="155.0" stroke-width="4.5" stroke-linecap="round"/><line x1="2.5" y1="195.0" x2="27.5" y2="195.0" stroke-width="4.5" stroke-linecap="round"/><path stroke="black" fill="none" stroke-width="3.25" stroke-linecap="round" d="M2.1999998 47.8 A15.360001 15.360001 0 1 0 2.1999998 22.199999 " /><path fill="black" d="M0.9499998 47.8 L3.4499998 47.8 L3.5749998 -24.2 L-0.5500002 -24.2 z" /></g><g id="semibrevis-8"><line x1="2.5" y1="35.0" x2="50.5" y2="35.0" stroke-width="4.5" stroke-linecap="round"/><line x1="2.5" y1="75.0" x2="50.5" y2="75.0" stroke-width="4.5" stroke-linecap="round"/><line x1="2.5" y1="115.0" x2="50.5" y2="115.0" stroke-width="4.5" stroke-linecap="round"/><line x1="2.5" y1="155.0" x2="50.5" y2="155.0" stroke-width="4.5" stroke-linecap="round"/><line x1="2.5" y1="195.0" x2="50.5" y2="195.0" stroke-width="4.5" stroke-linecap="round"/><path fill-rule="evenodd" fill="black" d="M26.5 81.0 L3.1000004 55.0 L26.5 29.0 L49.9 55.0 zM33.022408 69.664764 L13.301713 47.752884 L19.977592 40.335236 L39.698288 62.247116 z" /></g><g id="semibrevis-7"><line x1="2.5" y1="35.0" x2="50.5" y2="35.0" stroke-width="4.5" stroke-linecap="round"/><line x1="2.5" y1="75.0" x2="50.5" y2="75.0" stroke-width="4.5" stroke-linecap="round"/><line x1="2.5" y1="115.0" x2="50.5" y2="115.0" stroke-width="4.5" stroke-linecap="round"/><line x1="2.5" y1="155.0" x2="50.5" y2="155.0" stroke-width="4.5" stroke-linecap="round"/><line x1="2.5" y1="195.0" x2="50.5" y2="195.0" stroke-width="4.5" stroke-linecap="round"/><path fill-rule="evenodd" fill="black" d="M26.5 101.0 L3.1000004 75.0 L26.5 49.0 L49.9 75.0 zM33.022408 89.664764 L13.301713 67.752884 L19.977592 60.335236 L39.698288 82.247116 z" /></g><g id="semibrevis-dot-6"><line x1="2.5" y1="35.0" x2="50.5" y2="35.0" stroke-width="4.5" stroke-linecap="round"/><line x1="2.5" y1="75.0" x2="50.5" y2="75.0" stroke-width="4.5" stroke-linecap="round"/><line x1="2.5" y1="115.0" x2="50.5" y2="115.0" stroke-width="4.5" stroke-linecap="round"/><line x1="2.5" y1="155.0" x2="50.5" y2="155.0" stroke-width="4.5" stroke-linecap="round"/><line x1="2.5" y1="195.0" x2="50.5" y2="195.0" stroke-width="4.5" stroke-linecap="round"/><path fill-rule="evenodd" fill="black" d="M26.5 121.0 L3.1000004 95.0 L26.5 69.0 L49.9 95.0 zM33.022408 109.664764 L13.301713 87.752884 L19.977592 80.335236 L39.698288 102.247116 z" /><path fill="black" d="M26.5 61.0 L20.5 55.0 L26.5 49.0 L32.5 55.0 z" /></g><g id="flat-6"><line x1="2.5" y1="35.0" x2="27.5" y2="35.0" stroke-width="4.5" stroke-linecap="round"/><line x1="2.5" y1="75.0" x2="27.5" y2="75.0" stroke-width="4.5" stroke-linecap="round"/><line x1="2.5" y1="115.0" x2="27.5" y2="115.0" stroke-width="4.5" stroke-linecap="round"/><line x1="2.5" y1="155.0" x2="27.5" y2="155.0" stroke-width="4.5" stroke-linecap="round"/><line x1="2.5" y1="195.0" x2="27.5" y2="195.0" stroke-width="4.5" stroke-linecap="round"/><path stroke="black" fill="none" stroke-width="3.25" stroke-linecap="round" d="M2.1999998 107.8 A15.360001 15.360001 0 1 0 2.1999998 82.200005 " /><path fill="black" d="M0.9499998 107.8 L3.4499998 107.8 L3.5749998 19.800003 L-0.5500002 19.800003 z" /></g><g id="semibrevis-4"><line x1="2.5" y1="35.0" x2="50.5" y2="35.0" stroke-width="4.5" stroke-linecap="round"/><line x1="2.5" y1="75.0" x2="50.5" y2="75.0" stroke-width="4.5" stroke-linecap="round"/><line x1="2.5" y1="115.0" x2="50.5" y2="115.0" stroke-width="4.5" stroke-linecap="round"/><line x1="2.5" y1="155.0" x2="50.5" y2="155.0" stroke-width="4.5" stroke-linecap="round"/><line x1="2.5" y1="195.0" x2="50.5" y2="195.0" stroke-width="4.5" stroke-linecap="round"/><path fill-rule="evenodd" fill="black" d="M26.5 161.0 L3.1000004 135.0 L26.5 109.0 L49.9 135.0 zM33.022408 149.66476 L13.301713 127.752884 L19.977592 120.335236 L39.698288 142.24712 z" /></g><g id="semibrevis-dot-4"><line x1="2.5" y1="35.0" x2="50.5" y2="35.0" stroke-width="4.5" stroke-linecap="round"/><line x1="2.5" y1="75.0" x2="50.5" y2="75.0" stroke-width="4.5" stroke-linecap="round"/><line x1="2.5" y1="115.0" x2="50.5" y2="115.0" stroke-width="4.5" stroke-linecap="round"/><line x1="2.5" y1="155.0" x2="50.5" y2="155.0" stroke-width="4.5" stroke-linecap="round"/><line x1="2.5" y1="195.0" x2="50.5" y2="195.0" stroke-width="4.5" stroke-linecap="round"/><path fill-rule="evenodd" fill="black" d="M26.5 161.0 L3.1000004 135.0 L26.5 109.0 L49.9 135.0 zM33.022408 149.66476 L13.301713 127.752884 L19.977592 120.335236 L39.698288 142.24712 z" /><path fill="black" d="M26.5 101.0 L20.5 95.0 L26.5 89.0 L32.5 95.0 z" /></g><g id="semibrevis-3"><line x1="2.5" y1="35.0" x2="50.5" y2="35.0" stroke-width="4.5" stroke-linecap="round"/><line x1="2.5" y1="75.0" x2="50.5" y2="75.0" stroke-width="4.5" stroke-linecap="round"/><line x1="2.5" y1="115.0" x2="50.5" y2="115.0" stroke-width="4.5" stroke-linecap="round"/><line x1="2.5" y1="155.0" x2="50.5" y2="155.0" stroke-width="4.5" stroke-linecap="round"/><line x1="2.5" y1="195.0" x2="50.5" y2="195.0" stroke-width="4.5" stroke-linecap="round"/><path fill-rule="evenodd" fill="black" d="M26.5 181.0 L3.1000004 155.0 L26.5 129.0 L49.9 155.0 zM33.022408 169.66476 L13.301713 147.75288 L19.977592 140.33524 L39.698288 162.24712 z" /></g><g id="semibrevis-2"><line x1="2.5" y1="35.0" x2="50.5" y2="35.0" stroke-width="4.5" stroke-linecap="round"/><line x1="2.5" y1="75.0" x2="50.5" y2="75.0" stroke-width="4.5" stroke-linecap="round"/><line x1="2.5" y1="115.0" x2="50.5" y2="115.0" stroke-width="4.5" stroke-linecap="round"/><line x1="2.5" y1="155.0" x2="50.5" y2="155.0" stroke-width="4.5" stroke-linecap="round"/><line x1="2.5" y1="195.0" x2="50.5" y2="195.0" stroke-width="4.5" stroke-linecap="round"/><path fill-rule="evenodd" fill="black" d="M26.5 201.0 L3.1000004 175.0 L26.5 149.0 L49.9 175.0 zM33.022408 189.66476 L13.301713 167.75288 L19.977592 160.33524 L39.698288 182.24712 z" /></g><g id="simple-barline"><line x1="2.5" y1="35.0" x2="41.5" y2="35.0" stroke-width="4.5" stroke-linecap="round"/><line x1="2.5" y1="75.0" x2="41.5" y2="75.0" stroke-width="4.5" stroke-linecap="round"/><line x1="2.5" y1="115.0" x2="41.5" y2="115.0" stroke-width="4.5" stroke-linecap="round"/><line x1="2.5" y1="155.0" x2="41.5" y2="155.0" stroke-width="4.5" stroke-linecap="round"/><line x1="2.5" y1="195.0" x2="41.5" y2="195.0" stroke-width="4.5" stroke-linecap="round"/><line x1="22.0" y1="203.0" x2="22.0" y2="27.0" stroke-width="4.75" stroke-linecap="square"/></g><g id="semibrevis-dot-3"><line x1="2.5" y1="35.0" x2="50.5" y2="35.0" stroke-width="4.5" stroke-linecap="round"/><line x1="2.5" y1="75.0" x2="50.5" y2="75.0" stroke-width="4.5" stroke-linecap="round"/><line x1="2.5" y1="115.0" x2="50.5" y2="115.0" stroke-width="4.5" stroke-linecap="round"/><line x1="2.5" y1="155.0" x2="50.5" y2="155.0" stroke-width="4.5" stroke-linecap="round"/><line x1="2.5" y1="195.0" x2="50.5" y2="195.0" stroke-width="4.5" stroke-linecap="round"/><path fill-rule="evenodd" fill="black" d="M26.5 181.0 L3.1000004 155.0 L26.5 129.0 L49.9 155.0 zM33.022408 169.66476 L13.301713 147.75288 L19.977592 140.33524 L39.698288 162.24712 z" /><path fill="black" d="M26.5 101.0 L20.5 95.0 L26.5 89.0 L32.5 95.0 z" /></g><g id="blank-22"><line x1="2.5" y1="35.0" x2="19.5" y2="35.0" stroke-width="4.5" stroke-linecap="round"/><line x1="2.5" y1="75.0" x2="19.5" y2="75.0" stroke-width="4.5" stroke-linecap="round"/><line x1="2.5" y1="115.0" x2="19.5" y2="115.0" stroke-width="4.5" stroke-linecap="round"/><line x1="2.5" y1="155.0" x2="19.5" y2="155.0" stroke-width="4.5" stroke-linecap="round"/><line x1="2.5" y1="195.0" x2="19.5" y2="195.0" stroke-width="4.5" stroke-linecap="round"/></g><g id="blank-38"><line x1="2.5" y1="35.0" x2="35.5" y2="35.0" stroke-width="4.5" stroke-linecap="round"/><line x1="2.5" y1="75.0" x2="35.5" y2="75.0" stroke-width="4.5" stroke-linecap="round"/><line x1="2.5" y1="115.0" x2="35.5" y2="115.0" stroke-width="4.5" stroke-linecap="round"/><line x1="2.5" y1="155.0" x2="35.5" y2="155.0" stroke-width="4.5" stroke-linecap="round"/><line x1="2.5" y1="195.0" x2="35.5" y2="195.0" stroke-width="4.5" stroke-linecap="round"/></g><g id="semibrevis-1"><line x1="2.5" y1="35.0" x2="50.5" y2="35.0" stroke-width="4.5" stroke-linecap="round"/><line x1="2.5" y1="75.0" x2="50.5" y2="75.0" stroke-width="4.5" stroke-linecap="round"/><line x1="2.5" y1="115.0" x2="50.5" y2="115.0" stroke-width="4.5" stroke-linecap="round"/><line x1="2.5" y1="155.0" x2="50.5" y2="155.0" stroke-width="4.5" stroke-linecap="round"/><line x1="2.5" y1="195.0" x2="50.5" y2="195.0" stroke-width="4.5" stroke-linecap="round"/><path fill-rule="evenodd" fill="black" d="M26.5 221.0 L3.1000004 195.0 L26.5 169.0 L49.9 195.0 zM33.022408 209.66476 L13.301713 187.75288 L19.977592 180.33524 L39.698288 202.24712 z" /></g><g id="blank-27"><line x1="2.5" y1="35.0" x2="24.5" y2="35.0" stroke-width="4.5" stroke-linecap="round"/><line x1="2.5" y1="75.0" x2="24.5" y2="75.0" stroke-width="4.5" stroke-linecap="round"/><line x1="2.5" y1="115.0" x2="24.5" y2="115.0" stroke-width="4.5" stroke-linecap="round"/><line x1="2.5" y1="155.0" x2="24.5" y2="155.0" stroke-width="4.5" stroke-linecap="round"/><line x1="2.5" y1="195.0" x2="24.5" y2="195.0" stroke-width="4.5" stroke-linecap="round"/></g><g id="c-clef-7"><line x1="2.5" y1="35.0" x2="63.5" y2="35.0" stroke-width="4.5" stroke-linecap="round"/><line x1="2.5" y1="75.0" x2="63.5" y2="75.0" stroke-width="4.5" stroke-linecap="round"/><line x1="2.5" y1="115.0" x2="63.5" y2="115.0" stroke-width="4.5" stroke-linecap="round"/><line x1="2.5" y1="155.0" x2="63.5" y2="155.0" stroke-width="4.5" stroke-linecap="round"/><line x1="2.5" y1="195.0" x2="63.5" y2="195.0" stroke-width="4.5" stroke-linecap="round"/><path fill-rule="evenodd" color="black" d="M11.049999 -5.0 L11.049999 203.0 L16.55 203.0 L16.55 115.0 L51.45 115.0 L51.45 139.0 L54.95 139.0 L54.95 83.0 L16.55 83.0 L16.55 67.0 L54.95 67.0 L54.95 11.0 L51.45 11.0 L51.45 35.0 L16.55 35.0 L16.55 -5.0 zM16.55 104.5 L51.45 104.5 L51.45 93.5 L16.55 93.5 zM16.55 56.5 L51.45 56.5 L51.45 45.5 L16.55 45.5 z" /></g></defs><text x="1948" y="538" font-size="58" text-anchor="left" alignment-baseline="hanging" font-weight="normal" font-family="Times, serif" font-style="normal" stroke="black" fill="black">compoſto.</text><text x="1675" y="538" font-size="58" text-anchor="left" alignment-baseline="hanging" font-weight="normal" font-family="Times, serif" font-style="normal" stroke="black" fill="black">incomp.</text><text x="1400" y="538" font-size="58" text-anchor="left" alignment-baseline="hanging" font-weight="normal" font-family="Times, serif" font-style="normal" stroke="black" fill="black">compoﬆo</text><text x="1159" y="538" font-size="58" text-anchor="left" alignment-baseline="hanging" font-weight="normal" font-family="Times, serif" font-style="normal" stroke="black" fill="black">incomp.</text><text x="871" y="538" font-size="58" text-anchor="left" alignment-baseline="hanging" font-weight="normal" font-family="Times, serif" font-style="normal" stroke="black" fill="black">compoſto</text><text x="626" y="538" font-size="58" text-anchor="left" alignment-baseline="hanging" font-weight="normal" font-family="Times, serif" font-style="normal" stroke="black" fill="black">incomp.</text><text x="334" y="538" font-size="58" text-anchor="left" alignment-baseline="hanging" font-weight="normal" font-family="Times, serif" font-style="normal" stroke="black" fill="black">compoſto</text><text x="67" y="538" font-size="58" text-anchor="left" alignment-baseline="hanging" font-weight="normal" font-family="Times, serif" font-style="normal" stroke="black" fill="black">incompoſto</text><text x="1958" y="468" font-size="58" text-anchor="left" alignment-baseline="hanging" font-weight="normal" font-family="Times, serif" font-style="normal" stroke="black" fill="black">più di min.</text><text x="1662" y="468" font-size="58" text-anchor="left" alignment-baseline="hanging" font-weight="normal" font-family="Times, serif" font-style="normal" stroke="black" fill="black">più di min.</text><text x="1411" y="468" font-size="58" text-anchor="left" alignment-baseline="hanging" font-weight="normal" font-family="Times, serif" font-style="normal" stroke="black" fill="black">più di min.</text><text x="1151" y="468" font-size="58" text-anchor="left" alignment-baseline="hanging" font-weight="normal" font-family="Times, serif" font-style="normal" stroke="black" fill="black">più di min.</text><text x="870" y="468" font-size="58" text-anchor="left" alignment-baseline="hanging" font-weight="normal" font-family="Times, serif" font-style="normal" stroke="black" fill="black">più di min.</text><text x="629" y="468" font-size="58" text-anchor="left" alignment-baseline="hanging" font-weight="normal" font-family="Times, serif" font-style="normal" stroke="black" fill="black">più di mi.</text><text x="329" y="468" font-size="58" text-anchor="left" alignment-baseline="hanging" font-weight="normal" font-family="Times, serif" font-style="normal" stroke="black" fill="black">più di min.</text><text x="60" y="468" font-size="58" text-anchor="left" alignment-baseline="hanging" font-weight="normal" font-family="Times, serif" font-style="normal" stroke="black" fill="black">più di min.</text><text x="1962" y="388" font-size="58" text-anchor="left" alignment-baseline="hanging" font-weight="normal" font-family="Times, serif" font-style="normal" stroke="black" fill="black">grad. di 3.</text><text x="1669" y="388" font-size="58" text-anchor="left" alignment-baseline="hanging" font-weight="normal" font-family="Times, serif" font-style="normal" stroke="black" fill="black">grad. di 3.</text><text x="1399" y="388" font-size="58" text-anchor="left" alignment-baseline="hanging" font-weight="normal" font-family="Times, serif" font-style="normal" stroke="black" fill="black">grad. di 3.</text><text x="1151" y="388" font-size="58" text-anchor="left" alignment-baseline="hanging" font-weight="normal" font-family="Times, serif" font-style="normal" stroke="black" fill="black">grad.di 3.</text><text x="871" y="388" font-size="58" text-anchor="left" alignment-baseline="hanging" font-weight="normal" font-family="Times, serif" font-style="normal" stroke="black" fill="black">grad. di 3.</text><text x="621" y="388" font-size="58" text-anchor="left" alignment-baseline="hanging" font-weight="normal" font-family="Times, serif" font-style="normal" stroke="black" fill="black">grad.di 3.</text><text x="331" y="388" font-size="58" text-anchor="left" alignment-baseline="hanging" font-weight="normal" font-family="Times, serif" font-style="normal" stroke="black" fill="black">grad. di 3.</text><text x="60" y="388" font-size="58" text-anchor="left" alignment-baseline="hanging" font-weight="normal" font-family="Times, serif" font-style="normal" stroke="black" fill="black">grad.di 3.</text><use xlink:href="#simple-barline" x="2184.38" y="100"/><use xlink:href="#semibrevis-2" x="2131.7593" y="100"/><use xlink:href="#blank-22" x="2110.1387" y="100"/><use xlink:href="#semibrevis-3" x="2057.518" y="100"/><use xlink:href="#blank-22" x="2035.8973" y="100"/><use xlink:href="#semibrevis-dot-4" x="1983.2766" y="100"/><use xlink:href="#simple-barline" x="1939.6559" y="100"/><use xlink:href="#semibrevis-dot-4" x="1887.0352" y="100"/><use xlink:href="#blank-22" x="1865.4144" y="100"/><use xlink:href="#flat-4" x="1835.7937" y="100"/><use xlink:href="#blank-22" x="1814.173" y="100"/><use xlink:href="#semibrevis-6" x="1761.5522" y="100"/><use xlink:href="#blank-27" x="1734.9315" y="100"/><use xlink:href="#flat-6" x="1705.3108" y="100"/><use xlink:href="#simple-barline" x="1661.6901" y="100"/><use xlink:href="#semibrevis-5" x="1609.0693" y="100"/><use xlink:href="#blank-38" x="1571.4486" y="100"/><use xlink:href="#semibrevis-6" x="1518.8279" y="100"/><use xlink:href="#blank-22" x="1497.2072" y="100"/><use xlink:href="#semibrevis-dot-7" x="1444.5864" y="100"/><use xlink:href="#simple-barline" x="1400.9657" y="100"/><use xlink:href="#blank-22" x="1379.345" y="100"/><use xlink:href="#semibrevis-dot-6" x="1326.7242" y="100"/><use xlink:href="#blank-22" x="1305.1035" y="100"/><use xlink:href="#flat-6" x="1275.4828" y="100"/><use xlink:href="#blank-22" x="1253.862" y="100"/><use xlink:href="#semibrevis-8" x="1201.2413" y="100"/><use xlink:href="#simple-barline" x="1157.6206" y="100"/><use xlink:href="#semibrevis-dot-9" x="1104.9999" y="100"/><use xlink:href="#flat-9" x="1075.3792" y="100"/><use xlink:href="#blank-22" x="1053.7584" y="100"/><use xlink:href="#semibrevis-8" x="1001.1377" y="100"/><use xlink:href="#blank-22" x="979.517" y="100"/><use xlink:href="#semibrevis-7" x="926.89636" y="100"/><use xlink:href="#simple-barline" x="883.2757" y="100"/><use xlink:href="#blank-22" x="861.655" y="100"/><use xlink:href="#semibrevis-dot-6" x="809.03436" y="100"/><use xlink:href="#blank-22" x="787.4137" y="100"/><use xlink:href="#flat-6" x="757.793" y="100"/><use xlink:href="#blank-38" x="720.17236" y="100"/><use xlink:href="#semibrevis-4" x="667.5517" y="100"/><use xlink:href="#simple-barline" x="623.931" y="100"/><use xlink:href="#blank-22" x="602.31036" y="100"/><use xlink:href="#semibrevis-dot-4" x="549.6897" y="100"/><use xlink:href="#blank-27" x="523.06903" y="100"/><use xlink:href="#semibrevis-3" x="470.44833" y="100"/><use xlink:href="#blank-22" x="448.82764" y="100"/><use xlink:href="#semibrevis-2" x="396.20694" y="100"/><use xlink:href="#blank-22" x="374.58624" y="100"/><use xlink:href="#simple-barline" x="330.96555" y="100"/><use xlink:href="#blank-38" x="293.34485" y="100"/><use xlink:href="#semibrevis-dot-3" x="240.72415" y="100"/><use xlink:href="#blank-22" x="219.10345" y="100"/><use xlink:href="#blank-38" x="181.48276" y="100"/><use xlink:href="#semibrevis-1" x="128.86206" y="100"/><use xlink:href="#blank-27" x="102.24138" y="100"/><use xlink:href="#blank-27" x="75.62069" y="100"/><use xlink:href="#c-clef-7" x="10" y="100"/><text x="337" y="68" font-size="58" text-anchor="left" alignment-baseline="hanging" textLength="1549"  font-weight="normal" font-family="Times, serif" font-style="normal" stroke="black" fill="black">ᴇſſempio de i gradi di ᴛerza più di minore compoﬆo &amp; incompoſto.</text></svg>