<?xml version="1.0" standalone="no"?>
<!DOCTYPE svg PUBLIC "-//W3C//DTD SVG 1.1//EN" "http://www.w3.org/Graphics/SVG/1.1/DTD/svg11.dtd">
<svg stroke="black" width="1111.0" viewBox="0 0 2222.0 550.0" id="l1c37m2" version="1.1"
    xmlns="http://www.w3.org/2000/svg"
    xmlns:xlink="http://www.w3.org/1999/xlink"><rect width="100%" height="100%" fill="white"/><defs><g id="semibrevis-1"><line x1="2.5" y1="35.0" x2="50.5" y2="35.0" stroke-width="4.5" stroke-linecap="round"/><line x1="2.5" y1="75.0" x2="50.5" y2="75.0" stroke-width="4.5" stroke-linecap="round"/><line x1="2.5" y1="115.0" x2="50.5" y2="115.0" stroke-width="4.5" stroke-linecap="round"/><line x1="2.5" y1="155.0" x2="50.5" y2="155.0" stroke-width="4.5" stroke-linecap="round"/><line x1="2.5" y1="195.0" x2="50.5" y2="195.0" stroke-width="4.5" stroke-linecap="round"/><path fill-rule="evenodd" fill="black" d="M26.5 221.0 L3.1000004 195.0 L26.5 169.0 L49.9 195.0 zM33.022408 209.66476 L13.301713 187.75288 L19.977592 180.33524 L39.698288 202.24712 z" /></g><g id="sharp-1"><line x1="2.5" y1="35.0" x2="45.5" y2="35.0" stroke-width="4.5" stroke-linecap="round"/><line x1="2.5" y1="75.0" x2="45.5" y2="75.0" stroke-width="4.5" stroke-linecap="round"/><line x1="2.5" y1="115.0" x2="45.5" y2="115.0" stroke-width="4.5" stroke-linecap="round"/><line x1="2.5" y1="155.0" x2="45.5" y2="155.0" stroke-width="4.5" stroke-linecap="round"/><line x1="2.5" y1="195.0" x2="45.5" y2="195.0" stroke-width="4.5" stroke-linecap="round"/><line x1="49.0" y1="215.0" x2="9.0" y2="175.0" stroke-width="2.5" stroke-linecap="round"/><line x1="49.0" y1="175.0" x2="9.0" y2="215.0" stroke-width="2.5" stroke-linecap="round"/><line x1="39.0" y1="215.0" x2="-1.0" y2="175.0" stroke-width="2.5" stroke-linecap="round"/><line x1="39.0" y1="175.0" x2="-1.0" y2="215.0" stroke-width="2.5" stroke-linecap="round"/></g><g id="flat-6"><line x1="2.5" y1="35.0" x2="27.5" y2="35.0" stroke-width="4.5" stroke-linecap="round"/><line x1="2.5" y1="75.0" x2="27.5" y2="75.0" stroke-width="4.5" stroke-linecap="round"/><line x1="2.5" y1="115.0" x2="27.5" y2="115.0" stroke-width="4.5" stroke-linecap="round"/><line x1="2.5" y1="155.0" x2="27.5" y2="155.0" stroke-width="4.5" stroke-linecap="round"/><line x1="2.5" y1="195.0" x2="27.5" y2="195.0" stroke-width="4.5" stroke-linecap="round"/><path stroke="black" fill="none" stroke-width="3.25" stroke-linecap="round" d="M2.1999998 107.8 A15.360001 15.360001 0 1 0 2.1999998 82.200005 " /><path fill="black" d="M0.9499998 107.8 L3.4499998 107.8 L3.5749998 19.800003 L-0.5500002 19.800003 z" /></g><g id="semibrevis-2"><line x1="2.5" y1="35.0" x2="50.5" y2="35.0" stroke-width="4.5" stroke-linecap="round"/><line x1="2.5" y1="75.0" x2="50.5" y2="75.0" stroke-width="4.5" stroke-linecap="round"/><line x1="2.5" y1="115.0" x2="50.5" y2="115.0" stroke-width="4.5" stroke-linecap="round"/><line x1="2.5" y1="155.0" x2="50.5" y2="155.0" stroke-width="4.5" stroke-linecap="round"/><line x1="2.5" y1="195.0" x2="50.5" y2="195.0" stroke-width="4.5" stroke-linecap="round"/><path fill-rule="evenodd" fill="black" d="M26.5 201.0 L3.1000004 175.0 L26.5 149.0 L49.9 175.0 zM33.022408 189.66476 L13.301713 167.75288 L19.977592 160.33524 L39.698288 182.24712 z" /></g><g id="simple-barline"><line x1="2.5" y1="35.0" x2="41.5" y2="35.0" stroke-width="4.5" stroke-linecap="round"/><line x1="2.5" y1="75.0" x2="41.5" y2="75.0" stroke-width="4.5" stroke-linecap="round"/><line x1="2.5" y1="115.0" x2="41.5" y2="115.0" stroke-width="4.5" stroke-linecap="round"/><line x1="2.5" y1="155.0" x2="41.5" y2="155.0" stroke-width="4.5" stroke-linecap="round"/><line x1="2.5" y1="195.0" x2="41.5" y2="195.0" stroke-width="4.5" stroke-linecap="round"/><line x1="22.0" y1="203.0" x2="22.0" y2="27.0" stroke-width="4.75" stroke-linecap="square"/></g><g id="semibrevis-dot-7"><line x1="2.5" y1="35.0" x2="50.5" y2="35.0" stroke-width="4.5" stroke-linecap="round"/><line x1="2.5" y1="75.0" x2="50.5" y2="75.0" stroke-width="4.5" stroke-linecap="round"/><line x1="2.5" y1="115.0" x2="50.5" y2="115.0" stroke-width="4.5" stroke-linecap="round"/><line x1="2.5" y1="155.0" x2="50.5" y2="155.0" stroke-width="4.5" stroke-linecap="round"/><line x1="2.5" y1="195.0" x2="50.5" y2="195.0" stroke-width="4.5" stroke-linecap="round"/><path fill-rule="evenodd" fill="black" d="M26.5 101.0 L3.1000004 75.0 L26.5 49.0 L49.9 75.0 zM33.022408 89.664764 L13.301713 67.752884 L19.977592 60.335236 L39.698288 82.247116 z" /><path fill="black" d="M26.5 21.0 L20.5 15.0 L26.5 9.0 L32.5 15.0 z" /></g><g id="flat-4"><line x1="2.5" y1="35.0" x2="27.5" y2="35.0" stroke-width="4.5" stroke-linecap="round"/><line x1="2.5" y1="75.0" x2="27.5" y2="75.0" stroke-width="4.5" stroke-linecap="round"/><line x1="2.5" y1="115.0" x2="27.5" y2="115.0" stroke-width="4.5" stroke-linecap="round"/><line x1="2.5" y1="155.0" x2="27.5" y2="155.0" stroke-width="4.5" stroke-linecap="round"/><line x1="2.5" y1="195.0" x2="27.5" y2="195.0" stroke-width="4.5" stroke-linecap="round"/><path stroke="black" fill="none" stroke-width="3.25" stroke-linecap="round" d="M2.1999998 147.8 A15.360001 15.360001 0 1 0 2.1999998 122.200005 " /><path fill="black" d="M0.9499998 147.8 L3.4499998 147.8 L3.5749998 19.800003 L-0.5500002 19.800003 z" /></g><g id="semibrevis-8"><line x1="2.5" y1="35.0" x2="50.5" y2="35.0" stroke-width="4.5" stroke-linecap="round"/><line x1="2.5" y1="75.0" x2="50.5" y2="75.0" stroke-width="4.5" stroke-linecap="round"/><line x1="2.5" y1="115.0" x2="50.5" y2="115.0" stroke-width="4.5" stroke-linecap="round"/><line x1="2.5" y1="155.0" x2="50.5" y2="155.0" stroke-width="4.5" stroke-linecap="round"/><line x1="2.5" y1="195.0" x2="50.5" y2="195.0" stroke-width="4.5" stroke-linecap="round"/><path fill-rule="evenodd" fill="black" d="M26.5 81.0 L3.1000004 55.0 L26.5 29.0 L49.9 55.0 zM33.022408 69.664764 L13.301713 47.752884 L19.977592 40.335236 L39.698288 62.247116 z" /></g><g id="c-clef-5"><line x1="2.5" y1="35.0" x2="63.5" y2="35.0" stroke-width="4.5" stroke-linecap="round"/><line x1="2.5" y1="75.0" x2="63.5" y2="75.0" stroke-width="4.5" stroke-linecap="round"/><line x1="2.5" y1="115.0" x2="63.5" y2="115.0" stroke-width="4.5" stroke-linecap="round"/><line x1="2.5" y1="155.0" x2="63.5" y2="155.0" stroke-width="4.5" stroke-linecap="round"/><line x1="2.5" y1="195.0" x2="63.5" y2="195.0" stroke-width="4.5" stroke-linecap="round"/><path fill-rule="evenodd" color="black" d="M11.049999 35.0 L11.049999 243.0 L16.55 243.0 L16.55 155.0 L51.45 155.0 L51.45 179.0 L54.95 179.0 L54.95 123.0 L16.55 123.0 L16.55 107.0 L54.95 107.0 L54.95 51.0 L51.45 51.0 L51.45 75.0 L16.55 75.0 L16.55 35.0 zM16.55 144.5 L51.45 144.5 L51.45 133.5 L16.55 133.5 zM16.55 96.5 L51.45 96.5 L51.45 85.5 L16.55 85.5 z" /></g><g id="semibrevis-7"><line x1="2.5" y1="35.0" x2="50.5" y2="35.0" stroke-width="4.5" stroke-linecap="round"/><line x1="2.5" y1="75.0" x2="50.5" y2="75.0" stroke-width="4.5" stroke-linecap="round"/><line x1="2.5" y1="115.0" x2="50.5" y2="115.0" stroke-width="4.5" stroke-linecap="round"/><line x1="2.5" y1="155.0" x2="50.5" y2="155.0" stroke-width="4.5" stroke-linecap="round"/><line x1="2.5" y1="195.0" x2="50.5" y2="195.0" stroke-width="4.5" stroke-linecap="round"/><path fill-rule="evenodd" fill="black" d="M26.5 101.0 L3.1000004 75.0 L26.5 49.0 L49.9 75.0 zM33.022408 89.664764 L13.301713 67.752884 L19.977592 60.335236 L39.698288 82.247116 z" /></g><g id="semibrevis-6"><line x1="2.5" y1="35.0" x2="50.5" y2="35.0" stroke-width="4.5" stroke-linecap="round"/><line x1="2.5" y1="75.0" x2="50.5" y2="75.0" stroke-width="4.5" stroke-linecap="round"/><line x1="2.5" y1="115.0" x2="50.5" y2="115.0" stroke-width="4.5" stroke-linecap="round"/><line x1="2.5" y1="155.0" x2="50.5" y2="155.0" stroke-width="4.5" stroke-linecap="round"/><line x1="2.5" y1="195.0" x2="50.5" y2="195.0" stroke-width="4.5" stroke-linecap="round"/><path fill-rule="evenodd" fill="black" d="M26.5 121.0 L3.1000004 95.0 L26.5 69.0 L49.9 95.0 zM33.022408 109.664764 L13.301713 87.752884 L19.977592 80.335236 L39.698288 102.247116 z" /></g><g id="semibrevis-5"><line x1="2.5" y1="35.0" x2="50.5" y2="35.0" stroke-width="4.5" stroke-linecap="round"/><line x1="2.5" y1="75.0" x2="50.5" y2="75.0" stroke-width="4.5" stroke-linecap="round"/><line x1="2.5" y1="115.0" x2="50.5" y2="115.0" stroke-width="4.5" stroke-linecap="round"/><line x1="2.5" y1="155.0" x2="50.5" y2="155.0" stroke-width="4.5" stroke-linecap="round"/><line x1="2.5" y1="195.0" x2="50.5" y2="195.0" stroke-width="4.5" stroke-linecap="round"/><path fill-rule="evenodd" fill="black" d="M26.5 141.0 L3.1000004 115.0 L26.5 89.0 L49.9 115.0 zM33.022408 129.66476 L13.301713 107.752884 L19.977592 100.335236 L39.698288 122.247116 z" /></g><g id="semibrevis-4"><line x1="2.5" y1="35.0" x2="50.5" y2="35.0" stroke-width="4.5" stroke-linecap="round"/><line x1="2.5" y1="75.0" x2="50.5" y2="75.0" stroke-width="4.5" stroke-linecap="round"/><line x1="2.5" y1="115.0" x2="50.5" y2="115.0" stroke-width="4.5" stroke-linecap="round"/><line x1="2.5" y1="155.0" x2="50.5" y2="155.0" stroke-width="4.5" stroke-linecap="round"/><line x1="2.5" y1="195.0" x2="50.5" y2="195.0" stroke-width="4.5" stroke-linecap="round"/><path fill-rule="evenodd" fill="black" d="M26.5 161.0 L3.1000004 135.0 L26.5 109.0 L49.9 135.0 zM33.022408 149.66476 L13.301713 127.752884 L19.977592 120.335236 L39.698288 142.24712 z" /></g><g id="blank-22"><line x1="2.5" y1="35.0" x2="19.5" y2="35.0" stroke-width="4.5" stroke-linecap="round"/><line x1="2.5" y1="75.0" x2="19.5" y2="75.0" stroke-width="4.5" stroke-linecap="round"/><line x1="2.5" y1="115.0" x2="19.5" y2="115.0" stroke-width="4.5" stroke-linecap="round"/><line x1="2.5" y1="155.0" x2="19.5" y2="155.0" stroke-width="4.5" stroke-linecap="round"/><line x1="2.5" y1="195.0" x2="19.5" y2="195.0" stroke-width="4.5" stroke-linecap="round"/></g><g id="semibrevis-3"><line x1="2.5" y1="35.0" x2="50.5" y2="35.0" stroke-width="4.5" stroke-linecap="round"/><line x1="2.5" y1="75.0" x2="50.5" y2="75.0" stroke-width="4.5" stroke-linecap="round"/><line x1="2.5" y1="115.0" x2="50.5" y2="115.0" stroke-width="4.5" stroke-linecap="round"/><line x1="2.5" y1="155.0" x2="50.5" y2="155.0" stroke-width="4.5" stroke-linecap="round"/><line x1="2.5" y1="195.0" x2="50.5" y2="195.0" stroke-width="4.5" stroke-linecap="round"/><path fill-rule="evenodd" fill="black" d="M26.5 181.0 L3.1000004 155.0 L26.5 129.0 L49.9 155.0 zM33.022408 169.66476 L13.301713 147.75288 L19.977592 140.33524 L39.698288 162.24712 z" /></g><g id="blank-38"><line x1="2.5" y1="35.0" x2="35.5" y2="35.0" stroke-width="4.5" stroke-linecap="round"/><line x1="2.5" y1="75.0" x2="35.5" y2="75.0" stroke-width="4.5" stroke-linecap="round"/><line x1="2.5" y1="115.0" x2="35.5" y2="115.0" stroke-width="4.5" stroke-linecap="round"/><line x1="2.5" y1="155.0" x2="35.5" y2="155.0" stroke-width="4.5" stroke-linecap="round"/><line x1="2.5" y1="195.0" x2="35.5" y2="195.0" stroke-width="4.5" stroke-linecap="round"/></g><g id="f-clef-part-7"><line x1="2.5" y1="35.0" x2="42.5" y2="35.0" stroke-width="4.5" stroke-linecap="round"/><line x1="2.5" y1="75.0" x2="42.5" y2="75.0" stroke-width="4.5" stroke-linecap="round"/><line x1="2.5" y1="115.0" x2="42.5" y2="115.0" stroke-width="4.5" stroke-linecap="round"/><line x1="2.5" y1="155.0" x2="42.5" y2="155.0" stroke-width="4.5" stroke-linecap="round"/><line x1="2.5" y1="195.0" x2="42.5" y2="195.0" stroke-width="4.5" stroke-linecap="round"/><path fill="black" d="M21.125 107.0 L23.875 107.0 L24.2875 191.0 L20.7125 191.0 z" /><path fill-rule="evenodd" fill="black" d="M22.5 121.0 L-0.8999996 95.0 L22.5 69.0 L45.9 95.0 zM29.022408 109.664764 L9.301713 87.752884 L15.977592 80.335236 L35.698288 102.247116 z" /><path fill-rule="evenodd" fill="black" d="M22.5 81.0 L-0.8999996 55.0 L22.5 29.0 L45.9 55.0 zM29.022408 69.664764 L9.301713 47.752884 L15.977592 40.335236 L35.698288 62.247116 z" /></g><g id="maxima-7"><line x1="2.5" y1="35.0" x2="65.5" y2="35.0" stroke-width="4.5" stroke-linecap="round"/><line x1="2.5" y1="75.0" x2="65.5" y2="75.0" stroke-width="4.5" stroke-linecap="round"/><line x1="2.5" y1="115.0" x2="65.5" y2="115.0" stroke-width="4.5" stroke-linecap="round"/><line x1="2.5" y1="155.0" x2="65.5" y2="155.0" stroke-width="4.5" stroke-linecap="round"/><line x1="2.5" y1="195.0" x2="65.5" y2="195.0" stroke-width="4.5" stroke-linecap="round"/><path fill-rule="evenodd" fill="black" d="M14.4 103.0 L14.4 47.0 L17.15 47.0 L17.15 95.0 L50.85 95.0 L50.85 47.0 L53.6 47.0 L53.6 103.0 L50.85 103.0 L50.85 55.0 L17.15 55.0 L17.15 103.0 zM17.15 67.5 L17.15 82.5 L50.85 82.5 L50.85 67.5 z" /><path fill="black" d="M50.85 103.0 L53.6 103.0 L54.012497 187.0 L50.4375 187.0 z" /></g></defs><text x="1832" y="528" font-size="58" text-anchor="left" alignment-baseline="hanging" font-weight="normal" font-family="Times, serif" font-style="normal" stroke="black" fill="black">accidentale</text><text x="1355" y="528" font-size="58" text-anchor="left" alignment-baseline="hanging" font-weight="normal" font-family="Times, serif" font-style="normal" stroke="black" fill="black">accidentale</text><text x="1003" y="528" font-size="58" text-anchor="left" alignment-baseline="hanging" font-weight="normal" font-family="Times, serif" font-style="normal" stroke="black" fill="black">accidentale</text><text x="621" y="528" font-size="58" text-anchor="left" alignment-baseline="hanging" font-weight="normal" font-family="Times, serif" font-style="normal" stroke="black" fill="black">naturale</text><text x="130" y="528" font-size="58" text-anchor="left" alignment-baseline="hanging" font-weight="normal" font-family="Times, serif" font-style="normal" stroke="black" fill="black">naturale</text><text x="1812" y="458" font-size="58" text-anchor="left" alignment-baseline="hanging" font-weight="normal" font-family="Times, serif" font-style="normal" stroke="black" fill="black">imp.compoſta</text><text x="1357" y="458" font-size="58" text-anchor="left" alignment-baseline="hanging" font-weight="normal" font-family="Times, serif" font-style="normal" stroke="black" fill="black">imp.compoſta</text><text x="1003" y="458" font-size="58" text-anchor="left" alignment-baseline="hanging" font-weight="normal" font-family="Times, serif" font-style="normal" stroke="black" fill="black">imp.compoſta</text><text x="607" y="458" font-size="58" text-anchor="left" alignment-baseline="hanging" font-weight="normal" font-family="Times, serif" font-style="normal" stroke="black" fill="black">imper. compo.</text><text x="137" y="458" font-size="58" text-anchor="left" alignment-baseline="hanging" font-weight="normal" font-family="Times, serif" font-style="normal" stroke="black" fill="black">imp.compoſta</text><text x="1814" y="388" font-size="58" text-anchor="left" alignment-baseline="hanging" font-weight="normal" font-family="Times, serif" font-style="normal" stroke="black" fill="black">gradi di quinta</text><text x="1348" y="388" font-size="58" text-anchor="left" alignment-baseline="hanging" font-weight="normal" font-family="Times, serif" font-style="normal" stroke="black" fill="black">gradi di quinta</text><text x="994" y="388" font-size="58" text-anchor="left" alignment-baseline="hanging" font-weight="normal" font-family="Times, serif" font-style="normal" stroke="black" fill="black">gradi di quin.</text><text x="601" y="388" font-size="58" text-anchor="left" alignment-baseline="hanging" font-weight="normal" font-family="Times, serif" font-style="normal" stroke="black" fill="black">gradi di quinta</text><text x="123" y="388" font-size="58" text-anchor="left" alignment-baseline="hanging" font-weight="normal" font-family="Times, serif" font-style="normal" stroke="black" fill="black">gradi di quinta</text><use xlink:href="#simple-barline" x="2168.86" y="100"/><use xlink:href="#semibrevis-1" x="2116.7202" y="100"/><use xlink:href="#blank-22" x="2095.5803" y="100"/><use xlink:href="#sharp-1" x="2048.4404" y="100"/><use xlink:href="#semibrevis-2" x="1996.3005" y="100"/><use xlink:href="#blank-22" x="1975.1605" y="100"/><use xlink:href="#semibrevis-3" x="1923.0205" y="100"/><use xlink:href="#semibrevis-4" x="1870.8805" y="100"/><use xlink:href="#semibrevis-5" x="1818.7405" y="100"/><use xlink:href="#simple-barline" x="1775.6005" y="100"/><use xlink:href="#semibrevis-6" x="1723.4604" y="100"/><use xlink:href="#blank-22" x="1702.3204" y="100"/><use xlink:href="#flat-6" x="1673.1804" y="100"/><use xlink:href="#blank-38" x="1636.0404" y="100"/><use xlink:href="#semibrevis-5" x="1583.9004" y="100"/><use xlink:href="#semibrevis-4" x="1531.7604" y="100"/><use xlink:href="#blank-38" x="1494.6204" y="100"/><use xlink:href="#flat-4" x="1465.4803" y="100"/><use xlink:href="#semibrevis-3" x="1413.3403" y="100"/><use xlink:href="#semibrevis-2" x="1361.2003" y="100"/><use xlink:href="#simple-barline" x="1318.0603" y="100"/><use xlink:href="#semibrevis-dot-7" x="1265.9203" y="100"/><use xlink:href="#semibrevis-6" x="1213.7803" y="100"/><use xlink:href="#semibrevis-5" x="1161.6403" y="100"/><use xlink:href="#semibrevis-4" x="1109.5002" y="100"/><use xlink:href="#blank-38" x="1072.3602" y="100"/><use xlink:href="#flat-4" x="1043.2202" y="100"/><use xlink:href="#blank-38" x="1006.0802" y="100"/><use xlink:href="#c-clef-5" x="940.9402" y="100"/><use xlink:href="#blank-38" x="903.8002" y="100"/><use xlink:href="#semibrevis-8" x="851.66016" y="100"/><use xlink:href="#semibrevis-7" x="799.52014" y="100"/><use xlink:href="#semibrevis-6" x="747.3801" y="100"/><use xlink:href="#semibrevis-5" x="695.2401" y="100"/><use xlink:href="#semibrevis-4" x="643.1001" y="100"/><use xlink:href="#blank-38" x="605.9601" y="100"/><use xlink:href="#c-clef-5" x="540.82007" y="100"/><use xlink:href="#blank-38" x="503.68005" y="100"/><use xlink:href="#semibrevis-7" x="451.54004" y="100"/><use xlink:href="#blank-22" x="430.40002" y="100"/><use xlink:href="#semibrevis-6" x="378.26" y="100"/><use xlink:href="#blank-22" x="357.12" y="100"/><use xlink:href="#semibrevis-5" x="304.97998" y="100"/><use xlink:href="#blank-22" x="283.84" y="100"/><use xlink:href="#semibrevis-4" x="231.7" y="100"/><use xlink:href="#blank-22" x="210.56" y="100"/><use xlink:href="#semibrevis-3" x="158.42" y="100"/><use xlink:href="#blank-38" x="121.28" y="100"/><use xlink:href="#f-clef-part-7" x="77.14" y="100"/><use xlink:href="#maxima-7" x="10" y="100"/><text x="264" y="68" font-size="58" text-anchor="left" alignment-baseline="hanging" textLength="1691"  font-weight="normal" font-family="Times, serif" font-style="normal" stroke="black" fill="black">ᴇſſempio de gradi di alcune Ɋuinte imperfette,naturali &amp; accidentali.</text></svg>