<?xml version="1.0" standalone="no"?>
<!DOCTYPE svg PUBLIC "-//W3C//DTD SVG 1.1//EN" "http://www.w3.org/Graphics/SVG/1.1/DTD/svg11.dtd">
<svg stroke="black" width="1108.5" viewBox="0 0 2217.0 470.0" id="l1c36m1" version="1.1"
    xmlns="http://www.w3.org/2000/svg"
    xmlns:xlink="http://www.w3.org/1999/xlink"><rect width="100%" height="100%" fill="white"/><defs><g id="semibrevis-7"><line x1="2.5" y1="35.0" x2="50.5" y2="35.0" stroke-width="4.5" stroke-linecap="round"/><line x1="2.5" y1="75.0" x2="50.5" y2="75.0" stroke-width="4.5" stroke-linecap="round"/><line x1="2.5" y1="115.0" x2="50.5" y2="115.0" stroke-width="4.5" stroke-linecap="round"/><line x1="2.5" y1="155.0" x2="50.5" y2="155.0" stroke-width="4.5" stroke-linecap="round"/><line x1="2.5" y1="195.0" x2="50.5" y2="195.0" stroke-width="4.5" stroke-linecap="round"/><path fill-rule="evenodd" fill="black" d="M26.5 101.0 L3.1000004 75.0 L26.5 49.0 L49.9 75.0 zM33.022408 89.664764 L13.301713 67.752884 L19.977592 60.335236 L39.698288 82.247116 z" /></g><g id="flat-6"><line x1="2.5" y1="35.0" x2="27.5" y2="35.0" stroke-width="4.5" stroke-linecap="round"/><line x1="2.5" y1="75.0" x2="27.5" y2="75.0" stroke-width="4.5" stroke-linecap="round"/><line x1="2.5" y1="115.0" x2="27.5" y2="115.0" stroke-width="4.5" stroke-linecap="round"/><line x1="2.5" y1="155.0" x2="27.5" y2="155.0" stroke-width="4.5" stroke-linecap="round"/><line x1="2.5" y1="195.0" x2="27.5" y2="195.0" stroke-width="4.5" stroke-linecap="round"/><path stroke="black" fill="none" stroke-width="3.25" stroke-linecap="round" d="M2.1999998 107.8 A15.360001 15.360001 0 1 0 2.1999998 82.200005 " /><path fill="black" d="M0.9499998 107.8 L3.4499998 107.8 L3.5749998 19.800003 L-0.5500002 19.800003 z" /></g><g id="flat-5"><line x1="2.5" y1="35.0" x2="27.5" y2="35.0" stroke-width="4.5" stroke-linecap="round"/><line x1="2.5" y1="75.0" x2="27.5" y2="75.0" stroke-width="4.5" stroke-linecap="round"/><line x1="2.5" y1="115.0" x2="27.5" y2="115.0" stroke-width="4.5" stroke-linecap="round"/><line x1="2.5" y1="155.0" x2="27.5" y2="155.0" stroke-width="4.5" stroke-linecap="round"/><line x1="2.5" y1="195.0" x2="27.5" y2="195.0" stroke-width="4.5" stroke-linecap="round"/><path stroke="black" fill="none" stroke-width="3.25" stroke-linecap="round" d="M2.1999998 127.8 A15.360001 15.360001 0 1 0 2.1999998 102.200005 " /><path fill="black" d="M0.9499998 127.8 L3.4499998 127.8 L3.5749998 -0.19999695 L-0.5500002 -0.19999695 z" /></g><g id="flat-4"><line x1="2.5" y1="35.0" x2="27.5" y2="35.0" stroke-width="4.5" stroke-linecap="round"/><line x1="2.5" y1="75.0" x2="27.5" y2="75.0" stroke-width="4.5" stroke-linecap="round"/><line x1="2.5" y1="115.0" x2="27.5" y2="115.0" stroke-width="4.5" stroke-linecap="round"/><line x1="2.5" y1="155.0" x2="27.5" y2="155.0" stroke-width="4.5" stroke-linecap="round"/><line x1="2.5" y1="195.0" x2="27.5" y2="195.0" stroke-width="4.5" stroke-linecap="round"/><path stroke="black" fill="none" stroke-width="3.25" stroke-linecap="round" d="M2.1999998 147.8 A15.360001 15.360001 0 1 0 2.1999998 122.200005 " /><path fill="black" d="M0.9499998 147.8 L3.4499998 147.8 L3.5749998 19.800003 L-0.5500002 19.800003 z" /></g><g id="semibrevis-6"><line x1="2.5" y1="35.0" x2="50.5" y2="35.0" stroke-width="4.5" stroke-linecap="round"/><line x1="2.5" y1="75.0" x2="50.5" y2="75.0" stroke-width="4.5" stroke-linecap="round"/><line x1="2.5" y1="115.0" x2="50.5" y2="115.0" stroke-width="4.5" stroke-linecap="round"/><line x1="2.5" y1="155.0" x2="50.5" y2="155.0" stroke-width="4.5" stroke-linecap="round"/><line x1="2.5" y1="195.0" x2="50.5" y2="195.0" stroke-width="4.5" stroke-linecap="round"/><path fill-rule="evenodd" fill="black" d="M26.5 121.0 L3.1000004 95.0 L26.5 69.0 L49.9 95.0 zM33.022408 109.664764 L13.301713 87.752884 L19.977592 80.335236 L39.698288 102.247116 z" /></g><g id="sharp-6"><line x1="2.5" y1="35.0" x2="45.5" y2="35.0" stroke-width="4.5" stroke-linecap="round"/><line x1="2.5" y1="75.0" x2="45.5" y2="75.0" stroke-width="4.5" stroke-linecap="round"/><line x1="2.5" y1="115.0" x2="45.5" y2="115.0" stroke-width="4.5" stroke-linecap="round"/><line x1="2.5" y1="155.0" x2="45.5" y2="155.0" stroke-width="4.5" stroke-linecap="round"/><line x1="2.5" y1="195.0" x2="45.5" y2="195.0" stroke-width="4.5" stroke-linecap="round"/><line x1="49.0" y1="115.0" x2="9.0" y2="75.0" stroke-width="2.5" stroke-linecap="round"/><line x1="49.0" y1="75.0" x2="9.0" y2="115.0" stroke-width="2.5" stroke-linecap="round"/><line x1="39.0" y1="115.0" x2="-1.0" y2="75.0" stroke-width="2.5" stroke-linecap="round"/><line x1="39.0" y1="75.0" x2="-1.0" y2="115.0" stroke-width="2.5" stroke-linecap="round"/></g><g id="semibrevis-5"><line x1="2.5" y1="35.0" x2="50.5" y2="35.0" stroke-width="4.5" stroke-linecap="round"/><line x1="2.5" y1="75.0" x2="50.5" y2="75.0" stroke-width="4.5" stroke-linecap="round"/><line x1="2.5" y1="115.0" x2="50.5" y2="115.0" stroke-width="4.5" stroke-linecap="round"/><line x1="2.5" y1="155.0" x2="50.5" y2="155.0" stroke-width="4.5" stroke-linecap="round"/><line x1="2.5" y1="195.0" x2="50.5" y2="195.0" stroke-width="4.5" stroke-linecap="round"/><path fill-rule="evenodd" fill="black" d="M26.5 141.0 L3.1000004 115.0 L26.5 89.0 L49.9 115.0 zM33.022408 129.66476 L13.301713 107.752884 L19.977592 100.335236 L39.698288 122.247116 z" /></g><g id="sharp-5"><line x1="2.5" y1="35.0" x2="45.5" y2="35.0" stroke-width="4.5" stroke-linecap="round"/><line x1="2.5" y1="75.0" x2="45.5" y2="75.0" stroke-width="4.5" stroke-linecap="round"/><line x1="2.5" y1="115.0" x2="45.5" y2="115.0" stroke-width="4.5" stroke-linecap="round"/><line x1="2.5" y1="155.0" x2="45.5" y2="155.0" stroke-width="4.5" stroke-linecap="round"/><line x1="2.5" y1="195.0" x2="45.5" y2="195.0" stroke-width="4.5" stroke-linecap="round"/><line x1="41.3" y1="128.8" x2="13.700001" y2="101.2" stroke-width="2.5" stroke-linecap="round"/><line x1="41.3" y1="101.2" x2="13.700001" y2="128.8" stroke-width="2.5" stroke-linecap="round"/><line x1="34.3" y1="128.8" x2="6.700001" y2="101.2" stroke-width="2.5" stroke-linecap="round"/><line x1="34.3" y1="101.2" x2="6.700001" y2="128.8" stroke-width="2.5" stroke-linecap="round"/></g><g id="semibrevis-2"><line x1="2.5" y1="35.0" x2="50.5" y2="35.0" stroke-width="4.5" stroke-linecap="round"/><line x1="2.5" y1="75.0" x2="50.5" y2="75.0" stroke-width="4.5" stroke-linecap="round"/><line x1="2.5" y1="115.0" x2="50.5" y2="115.0" stroke-width="4.5" stroke-linecap="round"/><line x1="2.5" y1="155.0" x2="50.5" y2="155.0" stroke-width="4.5" stroke-linecap="round"/><line x1="2.5" y1="195.0" x2="50.5" y2="195.0" stroke-width="4.5" stroke-linecap="round"/><path fill-rule="evenodd" fill="black" d="M26.5 201.0 L3.1000004 175.0 L26.5 149.0 L49.9 175.0 zM33.022408 189.66476 L13.301713 167.75288 L19.977592 160.33524 L39.698288 182.24712 z" /></g><g id="semibrevis-4"><line x1="2.5" y1="35.0" x2="50.5" y2="35.0" stroke-width="4.5" stroke-linecap="round"/><line x1="2.5" y1="75.0" x2="50.5" y2="75.0" stroke-width="4.5" stroke-linecap="round"/><line x1="2.5" y1="115.0" x2="50.5" y2="115.0" stroke-width="4.5" stroke-linecap="round"/><line x1="2.5" y1="155.0" x2="50.5" y2="155.0" stroke-width="4.5" stroke-linecap="round"/><line x1="2.5" y1="195.0" x2="50.5" y2="195.0" stroke-width="4.5" stroke-linecap="round"/><path fill-rule="evenodd" fill="black" d="M26.5 161.0 L3.1000004 135.0 L26.5 109.0 L49.9 135.0 zM33.022408 149.66476 L13.301713 127.752884 L19.977592 120.335236 L39.698288 142.24712 z" /></g><g id="sharp-4"><line x1="2.5" y1="35.0" x2="45.5" y2="35.0" stroke-width="4.5" stroke-linecap="round"/><line x1="2.5" y1="75.0" x2="45.5" y2="75.0" stroke-width="4.5" stroke-linecap="round"/><line x1="2.5" y1="115.0" x2="45.5" y2="115.0" stroke-width="4.5" stroke-linecap="round"/><line x1="2.5" y1="155.0" x2="45.5" y2="155.0" stroke-width="4.5" stroke-linecap="round"/><line x1="2.5" y1="195.0" x2="45.5" y2="195.0" stroke-width="4.5" stroke-linecap="round"/><line x1="49.0" y1="155.0" x2="9.0" y2="115.0" stroke-width="2.5" stroke-linecap="round"/><line x1="49.0" y1="115.0" x2="9.0" y2="155.0" stroke-width="2.5" stroke-linecap="round"/><line x1="39.0" y1="155.0" x2="-1.0" y2="115.0" stroke-width="2.5" stroke-linecap="round"/><line x1="39.0" y1="115.0" x2="-1.0" y2="155.0" stroke-width="2.5" stroke-linecap="round"/></g><g id="semibrevis-1"><line x1="2.5" y1="35.0" x2="50.5" y2="35.0" stroke-width="4.5" stroke-linecap="round"/><line x1="2.5" y1="75.0" x2="50.5" y2="75.0" stroke-width="4.5" stroke-linecap="round"/><line x1="2.5" y1="115.0" x2="50.5" y2="115.0" stroke-width="4.5" stroke-linecap="round"/><line x1="2.5" y1="155.0" x2="50.5" y2="155.0" stroke-width="4.5" stroke-linecap="round"/><line x1="2.5" y1="195.0" x2="50.5" y2="195.0" stroke-width="4.5" stroke-linecap="round"/><path fill-rule="evenodd" fill="black" d="M26.5 221.0 L3.1000004 195.0 L26.5 169.0 L49.9 195.0 zM33.022408 209.66476 L13.301713 187.75288 L19.977592 180.33524 L39.698288 202.24712 z" /></g><g id="blank-38"><line x1="2.5" y1="35.0" x2="35.5" y2="35.0" stroke-width="4.5" stroke-linecap="round"/><line x1="2.5" y1="75.0" x2="35.5" y2="75.0" stroke-width="4.5" stroke-linecap="round"/><line x1="2.5" y1="115.0" x2="35.5" y2="115.0" stroke-width="4.5" stroke-linecap="round"/><line x1="2.5" y1="155.0" x2="35.5" y2="155.0" stroke-width="4.5" stroke-linecap="round"/><line x1="2.5" y1="195.0" x2="35.5" y2="195.0" stroke-width="4.5" stroke-linecap="round"/></g><g id="simple-barline"><line x1="2.5" y1="35.0" x2="41.5" y2="35.0" stroke-width="4.5" stroke-linecap="round"/><line x1="2.5" y1="75.0" x2="41.5" y2="75.0" stroke-width="4.5" stroke-linecap="round"/><line x1="2.5" y1="115.0" x2="41.5" y2="115.0" stroke-width="4.5" stroke-linecap="round"/><line x1="2.5" y1="155.0" x2="41.5" y2="155.0" stroke-width="4.5" stroke-linecap="round"/><line x1="2.5" y1="195.0" x2="41.5" y2="195.0" stroke-width="4.5" stroke-linecap="round"/><line x1="22.0" y1="203.0" x2="22.0" y2="27.0" stroke-width="4.75" stroke-linecap="square"/></g><g id="semibrevis-3"><line x1="2.5" y1="35.0" x2="50.5" y2="35.0" stroke-width="4.5" stroke-linecap="round"/><line x1="2.5" y1="75.0" x2="50.5" y2="75.0" stroke-width="4.5" stroke-linecap="round"/><line x1="2.5" y1="115.0" x2="50.5" y2="115.0" stroke-width="4.5" stroke-linecap="round"/><line x1="2.5" y1="155.0" x2="50.5" y2="155.0" stroke-width="4.5" stroke-linecap="round"/><line x1="2.5" y1="195.0" x2="50.5" y2="195.0" stroke-width="4.5" stroke-linecap="round"/><path fill-rule="evenodd" fill="black" d="M26.5 181.0 L3.1000004 155.0 L26.5 129.0 L49.9 155.0 zM33.022408 169.66476 L13.301713 147.75288 L19.977592 140.33524 L39.698288 162.24712 z" /></g><g id="sharp-3"><line x1="2.5" y1="35.0" x2="45.5" y2="35.0" stroke-width="4.5" stroke-linecap="round"/><line x1="2.5" y1="75.0" x2="45.5" y2="75.0" stroke-width="4.5" stroke-linecap="round"/><line x1="2.5" y1="115.0" x2="45.5" y2="115.0" stroke-width="4.5" stroke-linecap="round"/><line x1="2.5" y1="155.0" x2="45.5" y2="155.0" stroke-width="4.5" stroke-linecap="round"/><line x1="2.5" y1="195.0" x2="45.5" y2="195.0" stroke-width="4.5" stroke-linecap="round"/><line x1="41.3" y1="168.8" x2="13.700001" y2="141.2" stroke-width="2.5" stroke-linecap="round"/><line x1="41.3" y1="141.2" x2="13.700001" y2="168.8" stroke-width="2.5" stroke-linecap="round"/><line x1="34.3" y1="168.8" x2="6.700001" y2="141.2" stroke-width="2.5" stroke-linecap="round"/><line x1="34.3" y1="141.2" x2="6.700001" y2="168.8" stroke-width="2.5" stroke-linecap="round"/></g><g id="semibrevis-0"><line x1="2.5" y1="35.0" x2="50.5" y2="35.0" stroke-width="4.5" stroke-linecap="round"/><line x1="2.5" y1="75.0" x2="50.5" y2="75.0" stroke-width="4.5" stroke-linecap="round"/><line x1="2.5" y1="115.0" x2="50.5" y2="115.0" stroke-width="4.5" stroke-linecap="round"/><line x1="2.5" y1="155.0" x2="50.5" y2="155.0" stroke-width="4.5" stroke-linecap="round"/><line x1="2.5" y1="195.0" x2="50.5" y2="195.0" stroke-width="4.5" stroke-linecap="round"/><path fill-rule="evenodd" fill="black" d="M26.5 241.0 L3.1000004 215.0 L26.5 189.0 L49.9 215.0 zM33.022408 229.66476 L13.301713 207.75288 L19.977592 200.33524 L39.698288 222.24712 z" /></g><g id="blank-22"><line x1="2.5" y1="35.0" x2="19.5" y2="35.0" stroke-width="4.5" stroke-linecap="round"/><line x1="2.5" y1="75.0" x2="19.5" y2="75.0" stroke-width="4.5" stroke-linecap="round"/><line x1="2.5" y1="115.0" x2="19.5" y2="115.0" stroke-width="4.5" stroke-linecap="round"/><line x1="2.5" y1="155.0" x2="19.5" y2="155.0" stroke-width="4.5" stroke-linecap="round"/><line x1="2.5" y1="195.0" x2="19.5" y2="195.0" stroke-width="4.5" stroke-linecap="round"/></g><g id="c-clef-7"><line x1="2.5" y1="35.0" x2="63.5" y2="35.0" stroke-width="4.5" stroke-linecap="round"/><line x1="2.5" y1="75.0" x2="63.5" y2="75.0" stroke-width="4.5" stroke-linecap="round"/><line x1="2.5" y1="115.0" x2="63.5" y2="115.0" stroke-width="4.5" stroke-linecap="round"/><line x1="2.5" y1="155.0" x2="63.5" y2="155.0" stroke-width="4.5" stroke-linecap="round"/><line x1="2.5" y1="195.0" x2="63.5" y2="195.0" stroke-width="4.5" stroke-linecap="round"/><path fill-rule="evenodd" color="black" d="M11.049999 -5.0 L11.049999 203.0 L16.55 203.0 L16.55 115.0 L51.45 115.0 L51.45 139.0 L54.95 139.0 L54.95 83.0 L16.55 83.0 L16.55 67.0 L54.95 67.0 L54.95 11.0 L51.45 11.0 L51.45 35.0 L16.55 35.0 L16.55 -5.0 zM16.55 104.5 L51.45 104.5 L51.45 93.5 L16.55 93.5 zM16.55 56.5 L51.45 56.5 L51.45 45.5 L16.55 45.5 z" /></g></defs><text x="1676" y="448" font-size="58" text-anchor="left" alignment-baseline="hanging" font-weight="normal" font-family="Times, serif" font-style="normal" stroke="black" fill="black">accidentale</text><text x="1237" y="448" font-size="58" text-anchor="left" alignment-baseline="hanging" font-weight="normal" font-family="Times, serif" font-style="normal" stroke="black" fill="black">accidentale</text><text x="942" y="448" font-size="58" text-anchor="left" alignment-baseline="hanging" font-weight="normal" font-family="Times, serif" font-style="normal" stroke="black" fill="black">accidentale</text><text x="637" y="448" font-size="58" text-anchor="left" alignment-baseline="hanging" font-weight="normal" font-family="Times, serif" font-style="normal" stroke="black" fill="black">accidentale</text><text x="316" y="448" font-size="58" text-anchor="left" alignment-baseline="hanging" font-weight="normal" font-family="Times, serif" font-style="normal" stroke="black" fill="black">accidentale</text><text x="60" y="448" font-size="58" text-anchor="left" alignment-baseline="hanging" font-weight="normal" font-family="Times, serif" font-style="normal" stroke="black" fill="black">accident.</text><text x="1682" y="378" font-size="58" text-anchor="left" alignment-baseline="hanging" font-weight="normal" font-family="Times, serif" font-style="normal" stroke="black" fill="black">ᴛritono compoſto</text><text x="1232" y="378" font-size="58" text-anchor="left" alignment-baseline="hanging" font-weight="normal" font-family="Times, serif" font-style="normal" stroke="black" fill="black">ᴛrit.compoſto</text><text x="932" y="378" font-size="58" text-anchor="left" alignment-baseline="hanging" font-weight="normal" font-family="Times, serif" font-style="normal" stroke="black" fill="black">ᴛrit.incom.</text><text x="642" y="378" font-size="58" text-anchor="left" alignment-baseline="hanging" font-weight="normal" font-family="Times, serif" font-style="normal" stroke="black" fill="black">ᴛrit.incom.</text><text x="323" y="378" font-size="58" text-anchor="left" alignment-baseline="hanging" font-weight="normal" font-family="Times, serif" font-style="normal" stroke="black" fill="black">ᴛrit.incom.</text><text x="60" y="378" font-size="58" text-anchor="left" alignment-baseline="hanging" font-weight="normal" font-family="Times, serif" font-style="normal" stroke="black" fill="black">ᴛrit.inco.</text><use xlink:href="#simple-barline" x="2163.1265" y="80"/><use xlink:href="#semibrevis-7" x="2110.2537" y="80"/><use xlink:href="#blank-22" x="2088.3809" y="80"/><use xlink:href="#semibrevis-6" x="2035.5082" y="80"/><use xlink:href="#blank-22" x="2013.6355" y="80"/><use xlink:href="#flat-6" x="1983.7628" y="80"/><use xlink:href="#blank-22" x="1961.8901" y="80"/><use xlink:href="#semibrevis-5" x="1909.0175" y="80"/><use xlink:href="#blank-22" x="1887.1448" y="80"/><use xlink:href="#flat-5" x="1857.2721" y="80"/><use xlink:href="#blank-22" x="1835.3994" y="80"/><use xlink:href="#semibrevis-4" x="1782.5267" y="80"/><use xlink:href="#blank-22" x="1760.654" y="80"/><use xlink:href="#blank-22" x="1738.7814" y="80"/><use xlink:href="#flat-4" x="1708.9087" y="80"/><use xlink:href="#simple-barline" x="1665.036" y="80"/><use xlink:href="#semibrevis-3" x="1612.1633" y="80"/><use xlink:href="#sharp-3" x="1564.2906" y="80"/><use xlink:href="#semibrevis-4" x="1511.418" y="80"/><use xlink:href="#sharp-4" x="1463.5453" y="80"/><use xlink:href="#semibrevis-5" x="1410.6726" y="80"/><use xlink:href="#sharp-5" x="1362.7999" y="80"/><use xlink:href="#semibrevis-6" x="1309.9272" y="80"/><use xlink:href="#sharp-6" x="1262.0546" y="80"/><use xlink:href="#simple-barline" x="1218.1819" y="80"/><use xlink:href="#semibrevis-6" x="1165.3092" y="80"/><use xlink:href="#blank-22" x="1143.4365" y="80"/><use xlink:href="#sharp-6" x="1095.5638" y="80"/><use xlink:href="#blank-22" x="1073.6912" y="80"/><use xlink:href="#semibrevis-3" x="1020.8184" y="80"/><use xlink:href="#blank-22" x="998.9457" y="80"/><use xlink:href="#sharp-3" x="951.07294" y="80"/><use xlink:href="#simple-barline" x="907.2002" y="80"/><use xlink:href="#blank-38" x="869.32745" y="80"/><use xlink:href="#semibrevis-5" x="816.4547" y="80"/><use xlink:href="#blank-38" x="778.582" y="80"/><use xlink:href="#sharp-5" x="730.7092" y="80"/><use xlink:href="#blank-22" x="708.8365" y="80"/><use xlink:href="#semibrevis-2" x="655.96375" y="80"/><use xlink:href="#simple-barline" x="612.091" y="80"/><use xlink:href="#blank-38" x="574.21826" y="80"/><use xlink:href="#semibrevis-4" x="521.3455" y="80"/><use xlink:href="#blank-22" x="499.47278" y="80"/><use xlink:href="#sharp-4" x="451.60004" y="80"/><use xlink:href="#blank-22" x="429.7273" y="80"/><use xlink:href="#semibrevis-1" x="376.85455" y="80"/><use xlink:href="#blank-38" x="338.9818" y="80"/><use xlink:href="#simple-barline" x="295.10907" y="80"/><use xlink:href="#semibrevis-3" x="242.23636" y="80"/><use xlink:href="#blank-22" x="220.36363" y="80"/><use xlink:href="#sharp-3" x="172.4909" y="80"/><use xlink:href="#blank-22" x="150.61818" y="80"/><use xlink:href="#semibrevis-0" x="97.74545" y="80"/><use xlink:href="#blank-22" x="75.87273" y="80"/><use xlink:href="#c-clef-7" x="10" y="80"/><text x="442" y="68" font-size="58" text-anchor="left" alignment-baseline="hanging" textLength="1372"  font-weight="normal" font-family="Times, serif" font-style="normal" stroke="black" fill="black">ᴇſſempio del ᴛritono accidentale,incompoſto &amp; compoſto.</text></svg>