<?xml version="1.0" standalone="no"?>
<!DOCTYPE svg PUBLIC "-//W3C//DTD SVG 1.1//EN" "http://www.w3.org/Graphics/SVG/1.1/DTD/svg11.dtd">
<svg stroke="black" width="1900" height="1650" id="sharp-devel" version="1.1"
    xmlns="http://www.w3.org/2000/svg"
    xmlns:xlink="http://www.w3.org/1999/xlink"><rect width="100%" height="100%" fill="white"/><symbol id="single-sharp-4"><line x1="8" y1="200.0" x2="112" y2="200.0" stroke-width="12" stroke-linecap="round"/><line x1="8" y1="300.0" x2="112" y2="300.0" stroke-width="12" stroke-linecap="round"/><line x1="8" y1="400.0" x2="112" y2="400.0" stroke-width="12" stroke-linecap="round"/><line x1="8" y1="500.0" x2="112" y2="500.0" stroke-width="12" stroke-linecap="round"/><line x1="8" y1="600.0" x2="112" y2="600.0" stroke-width="12" stroke-linecap="round"/><line x1="110.0" y1="500.0" x2="10.0" y2="400.0" stroke-width="9" stroke-linecap="round"/><line x1="110.0" y1="400.0" x2="10.0" y2="500.0" stroke-width="9" stroke-linecap="round"/></symbol><symbol id="single-sharp-5"><line x1="8" y1="200.0" x2="112" y2="200.0" stroke-width="12" stroke-linecap="round"/><line x1="8" y1="300.0" x2="112" y2="300.0" stroke-width="12" stroke-linecap="round"/><line x1="8" y1="400.0" x2="112" y2="400.0" stroke-width="12" stroke-linecap="round"/><line x1="8" y1="500.0" x2="112" y2="500.0" stroke-width="12" stroke-linecap="round"/><line x1="8" y1="600.0" x2="112" y2="600.0" stroke-width="12" stroke-linecap="round"/><line x1="110.0" y1="450.0" x2="10.0" y2="350.0" stroke-width="9" stroke-linecap="round"/><line x1="110.0" y1="350.0" x2="10.0" y2="450.0" stroke-width="9" stroke-linecap="round"/></symbol><symbol id="semibrevis-e"><line x1="8" y1="200.0" x2="172" y2="200.0" stroke-width="12" stroke-linecap="round"/><line x1="8" y1="300.0" x2="172" y2="300.0" stroke-width="12" stroke-linecap="round"/><line x1="8" y1="400.0" x2="172" y2="400.0" stroke-width="12" stroke-linecap="round"/><line x1="8" y1="500.0" x2="172" y2="500.0" stroke-width="12" stroke-linecap="round"/><line x1="8" y1="600.0" x2="172" y2="600.0" stroke-width="12" stroke-linecap="round"/><path fill-rule="evenodd" fill="black" d="M90.0 522.0 L18.0 450.0 L90.0 378.0 L162.0 450.0 zM104.142136 490.8873 L49.112698 435.85785 L75.857864 409.1127 L130.8873 464.14215 z" /></symbol><symbol id="sharp-4"><line x1="8" y1="200.0" x2="112" y2="200.0" stroke-width="12" stroke-linecap="round"/><line x1="8" y1="300.0" x2="112" y2="300.0" stroke-width="12" stroke-linecap="round"/><line x1="8" y1="400.0" x2="112" y2="400.0" stroke-width="12" stroke-linecap="round"/><line x1="8" y1="500.0" x2="112" y2="500.0" stroke-width="12" stroke-linecap="round"/><line x1="8" y1="600.0" x2="112" y2="600.0" stroke-width="12" stroke-linecap="round"/><line x1="123.5" y1="500.0" x2="23.5" y2="400.0" stroke-width="9" stroke-linecap="round"/><line x1="123.5" y1="400.0" x2="23.5" y2="500.0" stroke-width="9" stroke-linecap="round"/><line x1="96.5" y1="500.0" x2="-3.5" y2="400.0" stroke-width="9" stroke-linecap="round"/><line x1="96.5" y1="400.0" x2="-3.5" y2="500.0" stroke-width="9" stroke-linecap="round"/></symbol><symbol id="blank-a"><line x1="8" y1="200.0" x2="42" y2="200.0" stroke-width="12" stroke-linecap="round"/><line x1="8" y1="300.0" x2="42" y2="300.0" stroke-width="12" stroke-linecap="round"/><line x1="8" y1="400.0" x2="42" y2="400.0" stroke-width="12" stroke-linecap="round"/><line x1="8" y1="500.0" x2="42" y2="500.0" stroke-width="12" stroke-linecap="round"/><line x1="8" y1="600.0" x2="42" y2="600.0" stroke-width="12" stroke-linecap="round"/></symbol><symbol id="semibrevis-f"><line x1="8" y1="200.0" x2="172" y2="200.0" stroke-width="12" stroke-linecap="round"/><line x1="8" y1="300.0" x2="172" y2="300.0" stroke-width="12" stroke-linecap="round"/><line x1="8" y1="400.0" x2="172" y2="400.0" stroke-width="12" stroke-linecap="round"/><line x1="8" y1="500.0" x2="172" y2="500.0" stroke-width="12" stroke-linecap="round"/><line x1="8" y1="600.0" x2="172" y2="600.0" stroke-width="12" stroke-linecap="round"/><path fill-rule="evenodd" fill="black" d="M90.0 472.0 L18.0 400.0 L90.0 328.0 L162.0 400.0 zM104.142136 440.8873 L49.112698 385.85785 L75.857864 359.1127 L130.8873 414.14215 z" /></symbol><symbol id="sharp-5"><line x1="8" y1="200.0" x2="112" y2="200.0" stroke-width="12" stroke-linecap="round"/><line x1="8" y1="300.0" x2="112" y2="300.0" stroke-width="12" stroke-linecap="round"/><line x1="8" y1="400.0" x2="112" y2="400.0" stroke-width="12" stroke-linecap="round"/><line x1="8" y1="500.0" x2="112" y2="500.0" stroke-width="12" stroke-linecap="round"/><line x1="8" y1="600.0" x2="112" y2="600.0" stroke-width="12" stroke-linecap="round"/><line x1="123.5" y1="450.0" x2="23.5" y2="350.0" stroke-width="9" stroke-linecap="round"/><line x1="123.5" y1="350.0" x2="23.5" y2="450.0" stroke-width="9" stroke-linecap="round"/><line x1="96.5" y1="450.0" x2="-3.5" y2="350.0" stroke-width="9" stroke-linecap="round"/><line x1="96.5" y1="350.0" x2="-3.5" y2="450.0" stroke-width="9" stroke-linecap="round"/></symbol><symbol id="blank-b"><line x1="8" y1="200.0" x2="142" y2="200.0" stroke-width="12" stroke-linecap="round"/><line x1="8" y1="300.0" x2="142" y2="300.0" stroke-width="12" stroke-linecap="round"/><line x1="8" y1="400.0" x2="142" y2="400.0" stroke-width="12" stroke-linecap="round"/><line x1="8" y1="500.0" x2="142" y2="500.0" stroke-width="12" stroke-linecap="round"/><line x1="8" y1="600.0" x2="142" y2="600.0" stroke-width="12" stroke-linecap="round"/></symbol><symbol id="blank-c"><line x1="8" y1="200.0" x2="442" y2="200.0" stroke-width="12" stroke-linecap="round"/><line x1="8" y1="300.0" x2="442" y2="300.0" stroke-width="12" stroke-linecap="round"/><line x1="8" y1="400.0" x2="442" y2="400.0" stroke-width="12" stroke-linecap="round"/><line x1="8" y1="500.0" x2="442" y2="500.0" stroke-width="12" stroke-linecap="round"/><line x1="8" y1="600.0" x2="442" y2="600.0" stroke-width="12" stroke-linecap="round"/></symbol><use href="#blank-b" x="1650" y="850"/><use href="#blank-a" x="1600" y="850"/><use href="#semibrevis-e" x="1420" y="850"/><use href="#single-sharp-4" x="1300" y="850"/><use href="#blank-a" x="1250" y="850"/><use href="#semibrevis-f" x="1070" y="850"/><use href="#single-sharp-5" x="950" y="850"/><use href="#blank-a" x="900" y="850"/><use href="#semibrevis-e" x="720" y="850"/><use href="#sharp-4" x="600" y="850"/><use href="#blank-a" x="550" y="850"/><use href="#semibrevis-f" x="370" y="850"/><use href="#sharp-5" x="250" y="850"/><use href="#blank-b" x="100" y="850"/><use href="#blank-c" x="100" y="50"/></svg>