<svg xmlns="http://www.w3.org/2000/svg" xmlns:xlink="http://www.w3.org/1999/xlink" version="1.2" width="252.89mm" height="42.92mm" viewBox="0.0000 -2.3958 143.9093 24.4239">
<style type="text/css">
<![CDATA[
tspan { white-space: pre; }
]]>
</style>
<g transform="translate(17.6839, -0.0000)">
<text font-family="serif" font-size="3.1115" text-anchor="start" fill="currentColor">
<tspan>Essempio di più di quinta imperfetta accidentale, composto e incomposto</tspan>
</text>
</g>
<g transform="translate(0.0000, 8.0000)">
<line stroke-linejoin="round" stroke-linecap="round" stroke-width="0.1000" stroke="currentColor" x1="0.0500" y1="0" x2="21.5600" y2="0"/>
</g>
<g transform="translate(0.0000, 7.0000)">
<line stroke-linejoin="round" stroke-linecap="round" stroke-width="0.1000" stroke="currentColor" x1="0.0500" y1="0" x2="21.5600" y2="0"/>
</g>
<g transform="translate(0.0000, 6.0000)">
<line stroke-linejoin="round" stroke-linecap="round" stroke-width="0.1000" stroke="currentColor" x1="0.0500" y1="0" x2="21.5600" y2="0"/>
</g>
<g transform="translate(0.0000, 5.0000)">
<line stroke-linejoin="round" stroke-linecap="round" stroke-width="0.1000" stroke="currentColor" x1="0.0500" y1="0" x2="21.5600" y2="0"/>
</g>
<g transform="translate(0.0000, 4.0000)">
<line stroke-linejoin="round" stroke-linecap="round" stroke-width="0.1000" stroke="currentColor" x1="0.0500" y1="0" x2="21.5600" y2="0"/>
</g>
<a style="color:inherit;" xlink:href="textedit:///home/johannes/common-lisp/setzkasten/lilypond-export/b1-c38-m1-e.ly:38:56:57">
<g transform="translate(15.2860, 5.5000)">
<path transform="scale(0.0040, -0.0040)" d="M213 112c-50 0 -69 -43 -69 -88c0 -77 57 -136 134 -136c50 0 69 43 69 88c0 77 -57 136 -134 136zM491 0c0 -43 -34 -75 -72 -96c-53 -29 -114 -40 -174 -40s-120 11 -173 40c-38 21 -72 53 -72 96s34 75 72 96c53 29 113 40 173 40s121 -11 174 -40
c38 -21 72 -53 72 -96z" fill="currentColor"/>
</g>
</a>
<a style="color:inherit;" xlink:href="textedit:///home/johannes/common-lisp/setzkasten/lilypond-export/b1-c38-m1-e.ly:38:48:49">
<g transform="translate(8.9620, 6.5000)">
<path transform="scale(0.0040, -0.0040)" d="M213 112c-50 0 -69 -43 -69 -88c0 -77 57 -136 134 -136c50 0 69 43 69 88c0 77 -57 136 -134 136zM491 0c0 -43 -34 -75 -72 -96c-53 -29 -114 -40 -174 -40s-120 11 -173 40c-38 21 -72 53 -72 96s34 75 72 96c53 29 113 40 173 40s121 -11 174 -40
c38 -21 72 -53 72 -96z" fill="currentColor"/>
</g>
</a>
<a style="color:inherit;" xlink:href="textedit:///home/johannes/common-lisp/setzkasten/lilypond-export/b1-c38-m1-e.ly:38:52:53">
<g transform="translate(12.1240, 6.0000)">
<path transform="scale(0.0040, -0.0040)" d="M213 112c-50 0 -69 -43 -69 -88c0 -77 57 -136 134 -136c50 0 69 43 69 88c0 77 -57 136 -134 136zM491 0c0 -43 -34 -75 -72 -96c-53 -29 -114 -40 -174 -40s-120 11 -173 40c-38 21 -72 53 -72 96s34 75 72 96c53 29 113 40 173 40s121 -11 174 -40
c38 -21 72 -53 72 -96z" fill="currentColor"/>
</g>
</a>
<a style="color:inherit;" xlink:href="textedit:///home/johannes/common-lisp/setzkasten/lilypond-export/b1-c38-m1-e.ly:38:65:66">
<g transform="translate(18.4480, 5.0000)">
<path transform="scale(0.0040, -0.0040)" d="M213 112c-50 0 -69 -43 -69 -88c0 -77 57 -136 134 -136c50 0 69 43 69 88c0 77 -57 136 -134 136zM491 0c0 -43 -34 -75 -72 -96c-53 -29 -114 -40 -174 -40s-120 11 -173 40c-38 21 -72 53 -72 96s34 75 72 96c53 29 113 40 173 40s121 -11 174 -40
c38 -21 72 -53 72 -96z" fill="currentColor"/>
</g>
</a>
<a style="color:inherit;" xlink:href="textedit:///home/johannes/common-lisp/setzkasten/lilypond-export/b1-c38-m1-e.ly:38:67:68">
<g transform="translate(19.4290, 3.5000)">
<path transform="scale(0.0045, -0.0045)" d="M-50 0c0 28 22 50 50 50s50 -22 50 -50s-22 -50 -50 -50s-50 22 -50 50z" fill="currentColor"/>
</g>
</a>
<a style="color:inherit;" xlink:href="textedit:///home/johannes/common-lisp/setzkasten/lilypond-export/b1-c38-m1-e.ly:38:43:44">
<g transform="translate(5.8000, 7.0000)">
<path transform="scale(0.0040, -0.0040)" d="M213 112c-50 0 -69 -43 -69 -88c0 -77 57 -136 134 -136c50 0 69 43 69 88c0 77 -57 136 -134 136zM491 0c0 -43 -34 -75 -72 -96c-53 -29 -114 -40 -174 -40s-120 11 -173 40c-38 21 -72 53 -72 96s34 75 72 96c53 29 113 40 173 40s121 -11 174 -40
c38 -21 72 -53 72 -96z" fill="currentColor"/>
</g>
</a>
<g transform="translate(0.8000, 5.0000)">
<path transform="scale(0.0040, -0.0040)" d="M557 -125c0 28 23 51 51 51s51 -23 51 -51s-23 -51 -51 -51s-51 23 -51 51zM557 125c0 28 23 51 51 51s51 -23 51 -51s-23 -51 -51 -51s-51 23 -51 51zM232 263c172 0 293 -88 293 -251c0 -263 -263 -414 -516 -521c-3 -3 -6 -4 -9 -4c-7 0 -13 6 -13 13c0 3 1 6 4 9
c202 118 412 265 412 493c0 120 -63 235 -171 235c-74 0 -129 -54 -154 -126c11 5 22 8 34 8c55 0 100 -45 100 -100c0 -58 -44 -106 -100 -106c-60 0 -112 47 -112 106c0 133 102 244 232 244z" fill="currentColor"/>
</g>
<a style="color:inherit;" xlink:href="textedit:///home/johannes/common-lisp/setzkasten/lilypond-export/b1-c38-m1-e.ly:36:16:17">
</a>
<g transform="translate(3.9513, 12.0000)">
<text font-family="serif" font-size="2.2001" text-anchor="start" fill="currentColor">
<tspan>più di quinta</tspan>
</text>
</g>
<g transform="translate(5.2146, 15.0000)">
<text font-family="serif" font-size="2.2001" text-anchor="start" fill="currentColor">
<tspan>imperfetta</tspan>
</text>
</g>
<g transform="translate(6.3243, 18.0000)">
<text font-family="serif" font-size="2.2001" text-anchor="start" fill="currentColor">
<tspan>naturale</tspan>
</text>
</g>
<g transform="translate(5.7268, 21.0000)">
<text font-family="serif" font-size="2.2001" text-anchor="start" fill="currentColor">
<tspan>composto</tspan>
</text>
</g>
<g transform="translate(25.9517, 8.0000)">
<line stroke-linejoin="round" stroke-linecap="round" stroke-width="0.1000" stroke="currentColor" x1="0.0500" y1="0" x2="12.0740" y2="0"/>
</g>
<g transform="translate(25.9517, 7.0000)">
<line stroke-linejoin="round" stroke-linecap="round" stroke-width="0.1000" stroke="currentColor" x1="0.0500" y1="0" x2="12.0740" y2="0"/>
</g>
<g transform="translate(25.9517, 6.0000)">
<line stroke-linejoin="round" stroke-linecap="round" stroke-width="0.1000" stroke="currentColor" x1="0.0500" y1="0" x2="12.0740" y2="0"/>
</g>
<g transform="translate(25.9517, 5.0000)">
<line stroke-linejoin="round" stroke-linecap="round" stroke-width="0.1000" stroke="currentColor" x1="0.0500" y1="0" x2="12.0740" y2="0"/>
</g>
<g transform="translate(25.9517, 4.0000)">
<line stroke-linejoin="round" stroke-linecap="round" stroke-width="0.1000" stroke="currentColor" x1="0.0500" y1="0" x2="12.0740" y2="0"/>
</g>
<a style="color:inherit;" xlink:href="textedit:///home/johannes/common-lisp/setzkasten/lilypond-export/b1-c38-m1-e.ly:79:55:56">
<g transform="translate(35.8947, 3.5000)">
<path transform="scale(0.0045, -0.0045)" d="M-50 0c0 28 22 50 50 50s50 -22 50 -50s-22 -50 -50 -50s-50 22 -50 50z" fill="currentColor"/>
</g>
</a>
<a style="color:inherit;" xlink:href="textedit:///home/johannes/common-lisp/setzkasten/lilypond-export/b1-c38-m1-e.ly:79:52:53">
<g transform="translate(34.9137, 4.5000)">
<path transform="scale(0.0040, -0.0040)" d="M213 112c-50 0 -69 -43 -69 -88c0 -77 57 -136 134 -136c50 0 69 43 69 88c0 77 -57 136 -134 136zM491 0c0 -43 -34 -75 -72 -96c-53 -29 -114 -40 -174 -40s-120 11 -173 40c-38 21 -72 53 -72 96s34 75 72 96c53 29 113 40 173 40s121 -11 174 -40
c38 -21 72 -53 72 -96z" fill="currentColor"/>
</g>
</a>
<a style="color:inherit;" xlink:href="textedit:///home/johannes/common-lisp/setzkasten/lilypond-export/b1-c38-m1-e.ly:77:16:17">
</a>
<g transform="translate(26.7517, 6.0000)">
<path transform="scale(0.0040, -0.0040)" d="M318 0c0 -33 7 -73 45 -73c29 0 57 31 88 31c123 0 229 -89 229 -208c0 -169 -93 -250 -265 -250c-83 0 -152 61 -152 142c0 42 34 77 76 77s76 -35 76 -77c0 -39 -49 -37 -49 -76c0 -23 24 -38 49 -38c116 0 140 90 140 222c0 106 -12 180 -104 180
c-72 0 -119 -71 -119 -149c0 -9 -7 -14 -14 -14s-13 5 -13 14c0 76 -31 147 -84 200v-471c0 -6 -4 -10 -10 -10h-21c-6 0 -10 4 -10 10v980c0 6 4 10 10 10h21c6 0 10 -4 10 -10v-471c53 53 84 124 84 200c0 9 6 14 13 14s14 -5 14 -14c0 -78 47 -149 119 -149
c92 0 104 74 104 180c0 132 -24 222 -140 222c-25 0 -49 -15 -49 -38c0 -39 49 -37 49 -76c0 -42 -34 -77 -76 -77s-76 35 -76 77c0 81 69 142 152 142c172 0 265 -81 265 -250c0 -119 -106 -208 -229 -208c-31 0 -59 31 -88 31c-38 0 -45 -40 -45 -73zM129 -500h-119
c-6 0 -10 4 -10 10v980c0 6 4 10 10 10h119c6 0 10 -4 10 -10v-980c0 -6 -4 -10 -10 -10z" fill="currentColor"/>
</g>
<a style="color:inherit;" xlink:href="textedit:///home/johannes/common-lisp/setzkasten/lilypond-export/b1-c38-m1-e.ly:79:43:44">
<g transform="translate(31.7517, 6.5000)">
<path transform="scale(0.0040, -0.0040)" d="M213 112c-50 0 -69 -43 -69 -88c0 -77 57 -136 134 -136c50 0 69 43 69 88c0 77 -57 136 -134 136zM491 0c0 -43 -34 -75 -72 -96c-53 -29 -114 -40 -174 -40s-120 11 -173 40c-38 21 -72 53 -72 96s34 75 72 96c53 29 113 40 173 40s121 -11 174 -40
c38 -21 72 -53 72 -96z" fill="currentColor"/>
</g>
</a>
<g transform="translate(25.1600, 12.0000)">
<text font-family="serif" font-size="2.2001" text-anchor="start" fill="currentColor">
<tspan>più di quinta</tspan>
</text>
</g>
<g transform="translate(26.4233, 15.0000)">
<text font-family="serif" font-size="2.2001" text-anchor="start" fill="currentColor">
<tspan>imperfetta</tspan>
</text>
</g>
<g transform="translate(27.5330, 18.0000)">
<text font-family="serif" font-size="2.2001" text-anchor="start" fill="currentColor">
<tspan>naturale</tspan>
</text>
</g>
<g transform="translate(25.8599, 21.0000)">
<text font-family="serif" font-size="2.2001" text-anchor="start" fill="currentColor">
<tspan>incomposto</tspan>
</text>
</g>
<g transform="translate(43.2090, 8.0000)">
<line stroke-linejoin="round" stroke-linecap="round" stroke-width="0.1000" stroke="currentColor" x1="0.0500" y1="0" x2="12.0740" y2="0"/>
</g>
<g transform="translate(43.2090, 7.0000)">
<line stroke-linejoin="round" stroke-linecap="round" stroke-width="0.1000" stroke="currentColor" x1="0.0500" y1="0" x2="12.0740" y2="0"/>
</g>
<g transform="translate(43.2090, 6.0000)">
<line stroke-linejoin="round" stroke-linecap="round" stroke-width="0.1000" stroke="currentColor" x1="0.0500" y1="0" x2="12.0740" y2="0"/>
</g>
<g transform="translate(43.2090, 5.0000)">
<line stroke-linejoin="round" stroke-linecap="round" stroke-width="0.1000" stroke="currentColor" x1="0.0500" y1="0" x2="12.0740" y2="0"/>
</g>
<g transform="translate(43.2090, 4.0000)">
<line stroke-linejoin="round" stroke-linecap="round" stroke-width="0.1000" stroke="currentColor" x1="0.0500" y1="0" x2="12.0740" y2="0"/>
</g>
<a style="color:inherit;" xlink:href="textedit:///home/johannes/common-lisp/setzkasten/lilypond-export/b1-c38-m1-e.ly:120:57:58">
<g transform="translate(53.1520, 4.5000)">
<path transform="scale(0.0045, -0.0045)" d="M-50 0c0 28 22 50 50 50s50 -22 50 -50s-22 -50 -50 -50s-50 22 -50 50z" fill="currentColor"/>
</g>
</a>
<a style="color:inherit;" xlink:href="textedit:///home/johannes/common-lisp/setzkasten/lilypond-export/b1-c38-m1-e.ly:120:54:55">
<g transform="translate(52.1710, 6.0000)">
<path transform="scale(0.0040, -0.0040)" d="M213 112c-50 0 -69 -43 -69 -88c0 -77 57 -136 134 -136c50 0 69 43 69 88c0 77 -57 136 -134 136zM491 0c0 -43 -34 -75 -72 -96c-53 -29 -114 -40 -174 -40s-120 11 -173 40c-38 21 -72 53 -72 96s34 75 72 96c53 29 113 40 173 40s121 -11 174 -40
c38 -21 72 -53 72 -96z" fill="currentColor"/>
</g>
</a>
<g transform="translate(47.5590, 8.0000)">
<path transform="scale(0.0040, -0.0040)" d="M216 -312c0 -10 -8 -19 -18 -19s-19 9 -19 19v145l-83 -31v-158c0 -10 -9 -19 -19 -19s-18 9 -18 19v145l-32 -12c-2 -1 -5 -1 -7 -1c-11 0 -20 9 -20 20v60c0 8 5 16 13 19l46 16v160l-32 -11c-2 -1 -5 -1 -7 -1c-11 0 -20 9 -20 20v60c0 8 5 15 13 18l46 17v158
c0 10 8 19 18 19s19 -9 19 -19v-145l83 31v158c0 10 9 19 19 19s18 -9 18 -19v-145l32 12c2 1 5 1 7 1c11 0 20 -9 20 -20v-60c0 -8 -5 -16 -13 -19l-46 -16v-160l32 11c2 1 5 1 7 1c11 0 20 -9 20 -20v-60c0 -8 -5 -15 -13 -18l-46 -17v-158zM96 65v-160l83 30v160z" fill="currentColor"/>
</g>
<a style="color:inherit;" xlink:href="textedit:///home/johannes/common-lisp/setzkasten/lilypond-export/b1-c38-m1-e.ly:118:16:17">
</a>
<g transform="translate(44.0090, 6.0000)">
<path transform="scale(0.0040, -0.0040)" d="M318 0c0 -33 7 -73 45 -73c29 0 57 31 88 31c123 0 229 -89 229 -208c0 -169 -93 -250 -265 -250c-83 0 -152 61 -152 142c0 42 34 77 76 77s76 -35 76 -77c0 -39 -49 -37 -49 -76c0 -23 24 -38 49 -38c116 0 140 90 140 222c0 106 -12 180 -104 180
c-72 0 -119 -71 -119 -149c0 -9 -7 -14 -14 -14s-13 5 -13 14c0 76 -31 147 -84 200v-471c0 -6 -4 -10 -10 -10h-21c-6 0 -10 4 -10 10v980c0 6 4 10 10 10h21c6 0 10 -4 10 -10v-471c53 53 84 124 84 200c0 9 6 14 13 14s14 -5 14 -14c0 -78 47 -149 119 -149
c92 0 104 74 104 180c0 132 -24 222 -140 222c-25 0 -49 -15 -49 -38c0 -39 49 -37 49 -76c0 -42 -34 -77 -76 -77s-76 35 -76 77c0 81 69 142 152 142c172 0 265 -81 265 -250c0 -119 -106 -208 -229 -208c-31 0 -59 31 -88 31c-38 0 -45 -40 -45 -73zM129 -500h-119
c-6 0 -10 4 -10 10v980c0 6 4 10 10 10h119c6 0 10 -4 10 -10v-980c0 -6 -4 -10 -10 -10z" fill="currentColor"/>
</g>
<a style="color:inherit;" xlink:href="textedit:///home/johannes/common-lisp/setzkasten/lilypond-export/b1-c38-m1-e.ly:120:43:44">
<g transform="translate(49.0090, 8.0000)">
<path transform="scale(0.0040, -0.0040)" d="M213 112c-50 0 -69 -43 -69 -88c0 -77 57 -136 134 -136c50 0 69 43 69 88c0 77 -57 136 -134 136zM491 0c0 -43 -34 -75 -72 -96c-53 -29 -114 -40 -174 -40s-120 11 -173 40c-38 21 -72 53 -72 96s34 75 72 96c53 29 113 40 173 40s121 -11 174 -40
c38 -21 72 -53 72 -96z" fill="currentColor"/>
</g>
</a>
<g transform="translate(42.4173, 12.5000)">
<text font-family="serif" font-size="2.2001" text-anchor="start" fill="currentColor">
<tspan>più di quinta</tspan>
</text>
</g>
<g transform="translate(43.6806, 15.5000)">
<text font-family="serif" font-size="2.2001" text-anchor="start" fill="currentColor">
<tspan>imperfetta</tspan>
</text>
</g>
<g transform="translate(43.2709, 18.5000)">
<text font-family="serif" font-size="2.2001" text-anchor="start" fill="currentColor">
<tspan>accidentale</tspan>
</text>
</g>
<g transform="translate(43.1173, 21.5000)">
<text font-family="serif" font-size="2.2001" text-anchor="start" fill="currentColor">
<tspan>incomposto</tspan>
</text>
</g>
<g transform="translate(59.6747, 8.0000)">
<line stroke-linejoin="round" stroke-linecap="round" stroke-width="0.1000" stroke="currentColor" x1="0.0500" y1="0" x2="21.5600" y2="0"/>
</g>
<g transform="translate(59.6747, 7.0000)">
<line stroke-linejoin="round" stroke-linecap="round" stroke-width="0.1000" stroke="currentColor" x1="0.0500" y1="0" x2="21.5600" y2="0"/>
</g>
<g transform="translate(59.6747, 6.0000)">
<line stroke-linejoin="round" stroke-linecap="round" stroke-width="0.1000" stroke="currentColor" x1="0.0500" y1="0" x2="21.5600" y2="0"/>
</g>
<g transform="translate(59.6747, 5.0000)">
<line stroke-linejoin="round" stroke-linecap="round" stroke-width="0.1000" stroke="currentColor" x1="0.0500" y1="0" x2="21.5600" y2="0"/>
</g>
<g transform="translate(59.6747, 4.0000)">
<line stroke-linejoin="round" stroke-linecap="round" stroke-width="0.1000" stroke="currentColor" x1="0.0500" y1="0" x2="21.5600" y2="0"/>
</g>
<a style="color:inherit;" xlink:href="textedit:///home/johannes/common-lisp/setzkasten/lilypond-export/b1-c38-m1-e.ly:161:67:68">
<g transform="translate(78.1227, 5.5000)">
<path transform="scale(0.0040, -0.0040)" d="M213 112c-50 0 -69 -43 -69 -88c0 -77 57 -136 134 -136c50 0 69 43 69 88c0 77 -57 136 -134 136zM491 0c0 -43 -34 -75 -72 -96c-53 -29 -114 -40 -174 -40s-120 11 -173 40c-38 21 -72 53 -72 96s34 75 72 96c53 29 113 40 173 40s121 -11 174 -40
c38 -21 72 -53 72 -96z" fill="currentColor"/>
</g>
</a>
<a style="color:inherit;" xlink:href="textedit:///home/johannes/common-lisp/setzkasten/lilypond-export/b1-c38-m1-e.ly:161:49:50">
<g transform="translate(68.6367, 7.0000)">
<path transform="scale(0.0040, -0.0040)" d="M213 112c-50 0 -69 -43 -69 -88c0 -77 57 -136 134 -136c50 0 69 43 69 88c0 77 -57 136 -134 136zM491 0c0 -43 -34 -75 -72 -96c-53 -29 -114 -40 -174 -40s-120 11 -173 40c-38 21 -72 53 -72 96s34 75 72 96c53 29 113 40 173 40s121 -11 174 -40
c38 -21 72 -53 72 -96z" fill="currentColor"/>
</g>
</a>
<a style="color:inherit;" xlink:href="textedit:///home/johannes/common-lisp/setzkasten/lilypond-export/b1-c38-m1-e.ly:161:53:54">
<g transform="translate(71.7987, 6.5000)">
<path transform="scale(0.0040, -0.0040)" d="M213 112c-50 0 -69 -43 -69 -88c0 -77 57 -136 134 -136c50 0 69 43 69 88c0 77 -57 136 -134 136zM491 0c0 -43 -34 -75 -72 -96c-53 -29 -114 -40 -174 -40s-120 11 -173 40c-38 21 -72 53 -72 96s34 75 72 96c53 29 113 40 173 40s121 -11 174 -40
c38 -21 72 -53 72 -96z" fill="currentColor"/>
</g>
</a>
<a style="color:inherit;" xlink:href="textedit:///home/johannes/common-lisp/setzkasten/lilypond-export/b1-c38-m1-e.ly:161:57:58">
<g transform="translate(74.9607, 6.0000)">
<path transform="scale(0.0040, -0.0040)" d="M213 112c-50 0 -69 -43 -69 -88c0 -77 57 -136 134 -136c50 0 69 43 69 88c0 77 -57 136 -134 136zM491 0c0 -43 -34 -75 -72 -96c-53 -29 -114 -40 -174 -40s-120 11 -173 40c-38 21 -72 53 -72 96s34 75 72 96c53 29 113 40 173 40s121 -11 174 -40
c38 -21 72 -53 72 -96z" fill="currentColor"/>
</g>
</a>
<a style="color:inherit;" xlink:href="textedit:///home/johannes/common-lisp/setzkasten/lilypond-export/b1-c38-m1-e.ly:161:70:71">
<g transform="translate(79.1037, 4.5000)">
<path transform="scale(0.0045, -0.0045)" d="M-50 0c0 28 22 50 50 50s50 -22 50 -50s-22 -50 -50 -50s-50 22 -50 50z" fill="currentColor"/>
</g>
</a>
<a style="color:inherit;" xlink:href="textedit:///home/johannes/common-lisp/setzkasten/lilypond-export/b1-c38-m1-e.ly:161:43:44">
<g transform="translate(65.4747, 7.5000)">
<path transform="scale(0.0040, -0.0040)" d="M213 112c-50 0 -69 -43 -69 -88c0 -77 57 -136 134 -136c50 0 69 43 69 88c0 77 -57 136 -134 136zM491 0c0 -43 -34 -75 -72 -96c-53 -29 -114 -40 -174 -40s-120 11 -173 40c-38 21 -72 53 -72 96s34 75 72 96c53 29 113 40 173 40s121 -11 174 -40
c38 -21 72 -53 72 -96z" fill="currentColor"/>
</g>
</a>
<g transform="translate(60.4747, 6.0000)">
<path transform="scale(0.0040, -0.0040)" d="M318 0c0 -33 7 -73 45 -73c29 0 57 31 88 31c123 0 229 -89 229 -208c0 -169 -93 -250 -265 -250c-83 0 -152 61 -152 142c0 42 34 77 76 77s76 -35 76 -77c0 -39 -49 -37 -49 -76c0 -23 24 -38 49 -38c116 0 140 90 140 222c0 106 -12 180 -104 180
c-72 0 -119 -71 -119 -149c0 -9 -7 -14 -14 -14s-13 5 -13 14c0 76 -31 147 -84 200v-471c0 -6 -4 -10 -10 -10h-21c-6 0 -10 4 -10 10v980c0 6 4 10 10 10h21c6 0 10 -4 10 -10v-471c53 53 84 124 84 200c0 9 6 14 13 14s14 -5 14 -14c0 -78 47 -149 119 -149
c92 0 104 74 104 180c0 132 -24 222 -140 222c-25 0 -49 -15 -49 -38c0 -39 49 -37 49 -76c0 -42 -34 -77 -76 -77s-76 35 -76 77c0 81 69 142 152 142c172 0 265 -81 265 -250c0 -119 -106 -208 -229 -208c-31 0 -59 31 -88 31c-38 0 -45 -40 -45 -73zM129 -500h-119
c-6 0 -10 4 -10 10v980c0 6 4 10 10 10h119c6 0 10 -4 10 -10v-980c0 -6 -4 -10 -10 -10z" fill="currentColor"/>
</g>
<a style="color:inherit;" xlink:href="textedit:///home/johannes/common-lisp/setzkasten/lilypond-export/b1-c38-m1-e.ly:159:16:17">
</a>
<g transform="translate(64.0247, 7.5000)">
<path transform="scale(0.0040, -0.0040)" d="M216 -312c0 -10 -8 -19 -18 -19s-19 9 -19 19v145l-83 -31v-158c0 -10 -9 -19 -19 -19s-18 9 -18 19v145l-32 -12c-2 -1 -5 -1 -7 -1c-11 0 -20 9 -20 20v60c0 8 5 16 13 19l46 16v160l-32 -11c-2 -1 -5 -1 -7 -1c-11 0 -20 9 -20 20v60c0 8 5 15 13 18l46 17v158
c0 10 8 19 18 19s19 -9 19 -19v-145l83 31v158c0 10 9 19 19 19s18 -9 18 -19v-145l32 12c2 1 5 1 7 1c11 0 20 -9 20 -20v-60c0 -8 -5 -16 -13 -19l-46 -16v-160l32 11c2 1 5 1 7 1c11 0 20 -9 20 -20v-60c0 -8 -5 -15 -13 -18l-46 -17v-158zM96 65v-160l83 30v160z" fill="currentColor"/>
</g>
<g transform="translate(63.6260, 12.0000)">
<text font-family="serif" font-size="2.2001" text-anchor="start" fill="currentColor">
<tspan>più di quinta</tspan>
</text>
</g>
<g transform="translate(64.8893, 15.0000)">
<text font-family="serif" font-size="2.2001" text-anchor="start" fill="currentColor">
<tspan>imperfetta</tspan>
</text>
</g>
<g transform="translate(64.4796, 18.0000)">
<text font-family="serif" font-size="2.2001" text-anchor="start" fill="currentColor">
<tspan>accidentale</tspan>
</text>
</g>
<g transform="translate(65.4015, 21.0000)">
<text font-family="serif" font-size="2.2001" text-anchor="start" fill="currentColor">
<tspan>composto</tspan>
</text>
</g>
<g transform="translate(85.2913, 8.0000)">
<line stroke-linejoin="round" stroke-linecap="round" stroke-width="0.1000" stroke="currentColor" x1="0.0500" y1="0" x2="12.7440" y2="0"/>
</g>
<g transform="translate(85.2913, 7.0000)">
<line stroke-linejoin="round" stroke-linecap="round" stroke-width="0.1000" stroke="currentColor" x1="0.0500" y1="0" x2="12.7440" y2="0"/>
</g>
<g transform="translate(85.2913, 6.0000)">
<line stroke-linejoin="round" stroke-linecap="round" stroke-width="0.1000" stroke="currentColor" x1="0.0500" y1="0" x2="12.7440" y2="0"/>
</g>
<g transform="translate(85.2913, 5.0000)">
<line stroke-linejoin="round" stroke-linecap="round" stroke-width="0.1000" stroke="currentColor" x1="0.0500" y1="0" x2="12.7440" y2="0"/>
</g>
<g transform="translate(85.2913, 4.0000)">
<line stroke-linejoin="round" stroke-linecap="round" stroke-width="0.1000" stroke="currentColor" x1="0.0500" y1="0" x2="12.7440" y2="0"/>
</g>
<g transform="translate(93.7733, 6.5000)">
<path transform="scale(0.0040, -0.0040)" d="M27 41l-1 -66v-11c0 -22 1 -44 4 -66c45 38 93 80 93 139c0 33 -14 67 -43 67c-31 0 -52 -30 -53 -63zM-15 -138l-12 595c8 5 18 8 27 8s19 -3 27 -8l-7 -345c25 21 58 34 91 34c52 0 89 -48 89 -102c0 -80 -86 -117 -147 -169c-15 -13 -24 -38 -45 -38
c-13 0 -23 11 -23 25z" fill="currentColor"/>
</g>
<a style="color:inherit;" xlink:href="textedit:///home/johannes/common-lisp/setzkasten/lilypond-export/b1-c38-m1-e.ly:202:57:58">
<g transform="translate(95.9043, 5.5000)">
<path transform="scale(0.0045, -0.0045)" d="M-50 0c0 28 22 50 50 50s50 -22 50 -50s-22 -50 -50 -50s-50 22 -50 50z" fill="currentColor"/>
</g>
</a>
<a style="color:inherit;" xlink:href="textedit:///home/johannes/common-lisp/setzkasten/lilypond-export/b1-c38-m1-e.ly:202:53:54">
<g transform="translate(94.9233, 6.5000)">
<path transform="scale(0.0040, -0.0040)" d="M213 112c-50 0 -69 -43 -69 -88c0 -77 57 -136 134 -136c50 0 69 43 69 88c0 77 -57 136 -134 136zM491 0c0 -43 -34 -75 -72 -96c-53 -29 -114 -40 -174 -40s-120 11 -173 40c-38 21 -72 53 -72 96s34 75 72 96c53 29 113 40 173 40s121 -11 174 -40
c38 -21 72 -53 72 -96z" fill="currentColor"/>
</g>
</a>
<a style="color:inherit;" xlink:href="textedit:///home/johannes/common-lisp/setzkasten/lilypond-export/b1-c38-m1-e.ly:202:43:44">
<g transform="translate(91.0913, 4.5000)">
<path transform="scale(0.0040, -0.0040)" d="M213 112c-50 0 -69 -43 -69 -88c0 -77 57 -136 134 -136c50 0 69 43 69 88c0 77 -57 136 -134 136zM491 0c0 -43 -34 -75 -72 -96c-53 -29 -114 -40 -174 -40s-120 11 -173 40c-38 21 -72 53 -72 96s34 75 72 96c53 29 113 40 173 40s121 -11 174 -40
c38 -21 72 -53 72 -96z" fill="currentColor"/>
</g>
</a>
<g transform="translate(86.0913, 6.0000)">
<path transform="scale(0.0040, -0.0040)" d="M318 0c0 -33 7 -73 45 -73c29 0 57 31 88 31c123 0 229 -89 229 -208c0 -169 -93 -250 -265 -250c-83 0 -152 61 -152 142c0 42 34 77 76 77s76 -35 76 -77c0 -39 -49 -37 -49 -76c0 -23 24 -38 49 -38c116 0 140 90 140 222c0 106 -12 180 -104 180
c-72 0 -119 -71 -119 -149c0 -9 -7 -14 -14 -14s-13 5 -13 14c0 76 -31 147 -84 200v-471c0 -6 -4 -10 -10 -10h-21c-6 0 -10 4 -10 10v980c0 6 4 10 10 10h21c6 0 10 -4 10 -10v-471c53 53 84 124 84 200c0 9 6 14 13 14s14 -5 14 -14c0 -78 47 -149 119 -149
c92 0 104 74 104 180c0 132 -24 222 -140 222c-25 0 -49 -15 -49 -38c0 -39 49 -37 49 -76c0 -42 -34 -77 -76 -77s-76 35 -76 77c0 81 69 142 152 142c172 0 265 -81 265 -250c0 -119 -106 -208 -229 -208c-31 0 -59 31 -88 31c-38 0 -45 -40 -45 -73zM129 -500h-119
c-6 0 -10 4 -10 10v980c0 6 4 10 10 10h119c6 0 10 -4 10 -10v-980c0 -6 -4 -10 -10 -10z" fill="currentColor"/>
</g>
<a style="color:inherit;" xlink:href="textedit:///home/johannes/common-lisp/setzkasten/lilypond-export/b1-c38-m1-e.ly:200:16:17">
</a>
<g transform="translate(84.8347, 12.0000)">
<text font-family="serif" font-size="2.2001" text-anchor="start" fill="currentColor">
<tspan>più di quinta</tspan>
</text>
</g>
<g transform="translate(86.0980, 15.0000)">
<text font-family="serif" font-size="2.2001" text-anchor="start" fill="currentColor">
<tspan>imperfetta</tspan>
</text>
</g>
<g transform="translate(85.6882, 18.0000)">
<text font-family="serif" font-size="2.2001" text-anchor="start" fill="currentColor">
<tspan>accidentale</tspan>
</text>
</g>
<g transform="translate(85.5346, 21.0000)">
<text font-family="serif" font-size="2.2001" text-anchor="start" fill="currentColor">
<tspan>incomposto</tspan>
</text>
</g>
<g transform="translate(102.0920, 8.0000)">
<line stroke-linejoin="round" stroke-linecap="round" stroke-width="0.1000" stroke="currentColor" x1="0.0500" y1="0" x2="21.5600" y2="0"/>
</g>
<g transform="translate(102.0920, 7.0000)">
<line stroke-linejoin="round" stroke-linecap="round" stroke-width="0.1000" stroke="currentColor" x1="0.0500" y1="0" x2="21.5600" y2="0"/>
</g>
<g transform="translate(102.0920, 6.0000)">
<line stroke-linejoin="round" stroke-linecap="round" stroke-width="0.1000" stroke="currentColor" x1="0.0500" y1="0" x2="21.5600" y2="0"/>
</g>
<g transform="translate(102.0920, 5.0000)">
<line stroke-linejoin="round" stroke-linecap="round" stroke-width="0.1000" stroke="currentColor" x1="0.0500" y1="0" x2="21.5600" y2="0"/>
</g>
<g transform="translate(102.0920, 4.0000)">
<line stroke-linejoin="round" stroke-linecap="round" stroke-width="0.1000" stroke="currentColor" x1="0.0500" y1="0" x2="21.5600" y2="0"/>
</g>
<a style="color:inherit;" xlink:href="textedit:///home/johannes/common-lisp/setzkasten/lilypond-export/b1-c38-m1-e.ly:243:58:59">
<g transform="translate(117.3780, 6.5000)">
<path transform="scale(0.0040, -0.0040)" d="M213 112c-50 0 -69 -43 -69 -88c0 -77 57 -136 134 -136c50 0 69 43 69 88c0 77 -57 136 -134 136zM491 0c0 -43 -34 -75 -72 -96c-53 -29 -114 -40 -174 -40s-120 11 -173 40c-38 21 -72 53 -72 96s34 75 72 96c53 29 113 40 173 40s121 -11 174 -40
c38 -21 72 -53 72 -96z" fill="currentColor"/>
</g>
</a>
<a style="color:inherit;" xlink:href="textedit:///home/johannes/common-lisp/setzkasten/lilypond-export/b1-c38-m1-e.ly:243:48:49">
<g transform="translate(111.0540, 5.5000)">
<path transform="scale(0.0040, -0.0040)" d="M213 112c-50 0 -69 -43 -69 -88c0 -77 57 -136 134 -136c50 0 69 43 69 88c0 77 -57 136 -134 136zM491 0c0 -43 -34 -75 -72 -96c-53 -29 -114 -40 -174 -40s-120 11 -173 40c-38 21 -72 53 -72 96s34 75 72 96c53 29 113 40 173 40s121 -11 174 -40
c38 -21 72 -53 72 -96z" fill="currentColor"/>
</g>
</a>
<a style="color:inherit;" xlink:href="textedit:///home/johannes/common-lisp/setzkasten/lilypond-export/b1-c38-m1-e.ly:243:53:54">
<g transform="translate(114.2160, 6.0000)">
<path transform="scale(0.0040, -0.0040)" d="M213 112c-50 0 -69 -43 -69 -88c0 -77 57 -136 134 -136c50 0 69 43 69 88c0 77 -57 136 -134 136zM491 0c0 -43 -34 -75 -72 -96c-53 -29 -114 -40 -174 -40s-120 11 -173 40c-38 21 -72 53 -72 96s34 75 72 96c53 29 113 40 173 40s121 -11 174 -40
c38 -21 72 -53 72 -96z" fill="currentColor"/>
</g>
</a>
<a style="color:inherit;" xlink:href="textedit:///home/johannes/common-lisp/setzkasten/lilypond-export/b1-c38-m1-e.ly:243:67:68">
<g transform="translate(120.5400, 7.0000)">
<path transform="scale(0.0040, -0.0040)" d="M213 112c-50 0 -69 -43 -69 -88c0 -77 57 -136 134 -136c50 0 69 43 69 88c0 77 -57 136 -134 136zM491 0c0 -43 -34 -75 -72 -96c-53 -29 -114 -40 -174 -40s-120 11 -173 40c-38 21 -72 53 -72 96s34 75 72 96c53 29 113 40 173 40s121 -11 174 -40
c38 -21 72 -53 72 -96z" fill="currentColor"/>
</g>
</a>
<a style="color:inherit;" xlink:href="textedit:///home/johannes/common-lisp/setzkasten/lilypond-export/b1-c38-m1-e.ly:243:69:70">
<g transform="translate(121.5210, 5.5000)">
<path transform="scale(0.0045, -0.0045)" d="M-50 0c0 28 22 50 50 50s50 -22 50 -50s-22 -50 -50 -50s-50 22 -50 50z" fill="currentColor"/>
</g>
</a>
<a style="color:inherit;" xlink:href="textedit:///home/johannes/common-lisp/setzkasten/lilypond-export/b1-c38-m1-e.ly:243:43:44">
<g transform="translate(107.8920, 5.0000)">
<path transform="scale(0.0040, -0.0040)" d="M213 112c-50 0 -69 -43 -69 -88c0 -77 57 -136 134 -136c50 0 69 43 69 88c0 77 -57 136 -134 136zM491 0c0 -43 -34 -75 -72 -96c-53 -29 -114 -40 -174 -40s-120 11 -173 40c-38 21 -72 53 -72 96s34 75 72 96c53 29 113 40 173 40s121 -11 174 -40
c38 -21 72 -53 72 -96z" fill="currentColor"/>
</g>
</a>
<g transform="translate(102.8920, 6.0000)">
<path transform="scale(0.0040, -0.0040)" d="M318 0c0 -33 7 -73 45 -73c29 0 57 31 88 31c123 0 229 -89 229 -208c0 -169 -93 -250 -265 -250c-83 0 -152 61 -152 142c0 42 34 77 76 77s76 -35 76 -77c0 -39 -49 -37 -49 -76c0 -23 24 -38 49 -38c116 0 140 90 140 222c0 106 -12 180 -104 180
c-72 0 -119 -71 -119 -149c0 -9 -7 -14 -14 -14s-13 5 -13 14c0 76 -31 147 -84 200v-471c0 -6 -4 -10 -10 -10h-21c-6 0 -10 4 -10 10v980c0 6 4 10 10 10h21c6 0 10 -4 10 -10v-471c53 53 84 124 84 200c0 9 6 14 13 14s14 -5 14 -14c0 -78 47 -149 119 -149
c92 0 104 74 104 180c0 132 -24 222 -140 222c-25 0 -49 -15 -49 -38c0 -39 49 -37 49 -76c0 -42 -34 -77 -76 -77s-76 35 -76 77c0 81 69 142 152 142c172 0 265 -81 265 -250c0 -119 -106 -208 -229 -208c-31 0 -59 31 -88 31c-38 0 -45 -40 -45 -73zM129 -500h-119
c-6 0 -10 4 -10 10v980c0 6 4 10 10 10h119c6 0 10 -4 10 -10v-980c0 -6 -4 -10 -10 -10z" fill="currentColor"/>
</g>
<a style="color:inherit;" xlink:href="textedit:///home/johannes/common-lisp/setzkasten/lilypond-export/b1-c38-m1-e.ly:241:16:17">
</a>
<g transform="translate(106.0433, 12.0000)">
<text font-family="serif" font-size="2.2001" text-anchor="start" fill="currentColor">
<tspan>più di quinta</tspan>
</text>
</g>
<g transform="translate(107.3066, 15.0000)">
<text font-family="serif" font-size="2.2001" text-anchor="start" fill="currentColor">
<tspan>imperfetta</tspan>
</text>
</g>
<g transform="translate(106.8969, 18.0000)">
<text font-family="serif" font-size="2.2001" text-anchor="start" fill="currentColor">
<tspan>accidentale</tspan>
</text>
</g>
<g transform="translate(107.8188, 21.0000)">
<text font-family="serif" font-size="2.2001" text-anchor="start" fill="currentColor">
<tspan>composto</tspan>
</text>
</g>
<g transform="translate(128.0437, 8.0000)">
<line stroke-linejoin="round" stroke-linecap="round" stroke-width="0.1000" stroke="currentColor" x1="0.0500" y1="0" x2="12.0740" y2="0"/>
</g>
<g transform="translate(128.0437, 7.0000)">
<line stroke-linejoin="round" stroke-linecap="round" stroke-width="0.1000" stroke="currentColor" x1="0.0500" y1="0" x2="12.0740" y2="0"/>
</g>
<g transform="translate(128.0437, 6.0000)">
<line stroke-linejoin="round" stroke-linecap="round" stroke-width="0.1000" stroke="currentColor" x1="0.0500" y1="0" x2="12.0740" y2="0"/>
</g>
<g transform="translate(128.0437, 5.0000)">
<line stroke-linejoin="round" stroke-linecap="round" stroke-width="0.1000" stroke="currentColor" x1="0.0500" y1="0" x2="12.0740" y2="0"/>
</g>
<g transform="translate(128.0437, 4.0000)">
<line stroke-linejoin="round" stroke-linecap="round" stroke-width="0.1000" stroke="currentColor" x1="0.0500" y1="0" x2="12.0740" y2="0"/>
</g>
<a style="color:inherit;" xlink:href="textedit:///home/johannes/common-lisp/setzkasten/lilypond-export/b1-c38-m1-e.ly:284:55:56">
<g transform="translate(137.9867, 6.5000)">
<path transform="scale(0.0045, -0.0045)" d="M-50 0c0 28 22 50 50 50s50 -22 50 -50s-22 -50 -50 -50s-50 22 -50 50z" fill="currentColor"/>
</g>
</a>
<a style="color:inherit;" xlink:href="textedit:///home/johannes/common-lisp/setzkasten/lilypond-export/b1-c38-m1-e.ly:284:53:54">
<g transform="translate(137.0057, 7.5000)">
<path transform="scale(0.0040, -0.0040)" d="M213 112c-50 0 -69 -43 -69 -88c0 -77 57 -136 134 -136c50 0 69 43 69 88c0 77 -57 136 -134 136zM491 0c0 -43 -34 -75 -72 -96c-53 -29 -114 -40 -174 -40s-120 11 -173 40c-38 21 -72 53 -72 96s34 75 72 96c53 29 113 40 173 40s121 -11 174 -40
c38 -21 72 -53 72 -96z" fill="currentColor"/>
</g>
</a>
<a style="color:inherit;" xlink:href="textedit:///home/johannes/common-lisp/setzkasten/lilypond-export/b1-c38-m1-e.ly:282:16:17">
</a>
<g transform="translate(128.8437, 6.0000)">
<path transform="scale(0.0040, -0.0040)" d="M318 0c0 -33 7 -73 45 -73c29 0 57 31 88 31c123 0 229 -89 229 -208c0 -169 -93 -250 -265 -250c-83 0 -152 61 -152 142c0 42 34 77 76 77s76 -35 76 -77c0 -39 -49 -37 -49 -76c0 -23 24 -38 49 -38c116 0 140 90 140 222c0 106 -12 180 -104 180
c-72 0 -119 -71 -119 -149c0 -9 -7 -14 -14 -14s-13 5 -13 14c0 76 -31 147 -84 200v-471c0 -6 -4 -10 -10 -10h-21c-6 0 -10 4 -10 10v980c0 6 4 10 10 10h21c6 0 10 -4 10 -10v-471c53 53 84 124 84 200c0 9 6 14 13 14s14 -5 14 -14c0 -78 47 -149 119 -149
c92 0 104 74 104 180c0 132 -24 222 -140 222c-25 0 -49 -15 -49 -38c0 -39 49 -37 49 -76c0 -42 -34 -77 -76 -77s-76 35 -76 77c0 81 69 142 152 142c172 0 265 -81 265 -250c0 -119 -106 -208 -229 -208c-31 0 -59 31 -88 31c-38 0 -45 -40 -45 -73zM129 -500h-119
c-6 0 -10 4 -10 10v980c0 6 4 10 10 10h119c6 0 10 -4 10 -10v-980c0 -6 -4 -10 -10 -10z" fill="currentColor"/>
</g>
<a style="color:inherit;" xlink:href="textedit:///home/johannes/common-lisp/setzkasten/lilypond-export/b1-c38-m1-e.ly:284:43:44">
<g transform="translate(133.8437, 5.5000)">
<path transform="scale(0.0040, -0.0040)" d="M213 112c-50 0 -69 -43 -69 -88c0 -77 57 -136 134 -136c50 0 69 43 69 88c0 77 -57 136 -134 136zM491 0c0 -43 -34 -75 -72 -96c-53 -29 -114 -40 -174 -40s-120 11 -173 40c-38 21 -72 53 -72 96s34 75 72 96c53 29 113 40 173 40s121 -11 174 -40
c38 -21 72 -53 72 -96z" fill="currentColor"/>
</g>
</a>
<g transform="translate(127.2520, 12.0000)">
<text font-family="serif" font-size="2.2001" text-anchor="start" fill="currentColor">
<tspan>più di quinta</tspan>
</text>
</g>
<g transform="translate(128.5153, 15.0000)">
<text font-family="serif" font-size="2.2001" text-anchor="start" fill="currentColor">
<tspan>imperfetta</tspan>
</text>
</g>
<g transform="translate(128.1056, 18.0000)">
<text font-family="serif" font-size="2.2001" text-anchor="start" fill="currentColor">
<tspan>accidentale</tspan>
</text>
</g>
<g transform="translate(127.9519, 21.0000)">
<text font-family="serif" font-size="2.2001" text-anchor="start" fill="currentColor">
<tspan>incomposto</tspan>
</text>
</g>
</svg>
