<svg xmlns="http://www.w3.org/2000/svg" xmlns:xlink="http://www.w3.org/1999/xlink" version="1.2" width="210.00mm" height="297.00mm" viewBox="0 0 119.5016 169.0094">
<style type="text/css">
<![CDATA[
tspan { white-space: pre; }
]]>
</style>
<!-- Page: 1/1 -->
<g transform="translate(5.6906, 8.8453)">
<line stroke-linejoin="round" stroke-linecap="round" stroke-width="0.1000" stroke="currentColor" x1="0.0500" y1="0" x2="10.1500" y2="0"/>
</g>
<g transform="translate(5.6906, 7.8453)">
<line stroke-linejoin="round" stroke-linecap="round" stroke-width="0.1000" stroke="currentColor" x1="0.0500" y1="0" x2="10.1500" y2="0"/>
</g>
<g transform="translate(5.6906, 6.8453)">
<line stroke-linejoin="round" stroke-linecap="round" stroke-width="0.1000" stroke="currentColor" x1="0.0500" y1="0" x2="10.1500" y2="0"/>
</g>
<g transform="translate(5.6906, 5.8453)">
<line stroke-linejoin="round" stroke-linecap="round" stroke-width="0.1000" stroke="currentColor" x1="0.0500" y1="0" x2="10.1500" y2="0"/>
</g>
<g transform="translate(5.6906, 4.8453)">
<line stroke-linejoin="round" stroke-linecap="round" stroke-width="0.1000" stroke="currentColor" x1="0.0500" y1="0" x2="10.1500" y2="0"/>
</g>
<g transform="translate(6.4906, 5.8453)">
<path transform="scale(0.0040, -0.0040)" d="M318 0c0 -33 7 -73 45 -73c29 0 57 31 88 31c123 0 229 -89 229 -208c0 -169 -93 -250 -265 -250c-83 0 -152 61 -152 142c0 42 34 77 76 77s76 -35 76 -77c0 -39 -49 -37 -49 -76c0 -23 24 -38 49 -38c116 0 140 90 140 222c0 106 -12 180 -104 180
c-72 0 -119 -71 -119 -149c0 -9 -7 -14 -14 -14s-13 5 -13 14c0 76 -31 147 -84 200v-471c0 -6 -4 -10 -10 -10h-21c-6 0 -10 4 -10 10v980c0 6 4 10 10 10h21c6 0 10 -4 10 -10v-471c53 53 84 124 84 200c0 9 6 14 13 14s14 -5 14 -14c0 -78 47 -149 119 -149
c92 0 104 74 104 180c0 132 -24 222 -140 222c-25 0 -49 -15 -49 -38c0 -39 49 -37 49 -76c0 -42 -34 -77 -76 -77s-76 35 -76 77c0 81 69 142 152 142c172 0 265 -81 265 -250c0 -119 -106 -208 -229 -208c-31 0 -59 31 -88 31c-38 0 -45 -40 -45 -73zM129 -500h-119
c-6 0 -10 4 -10 10v980c0 6 4 10 10 10h119c6 0 10 -4 10 -10v-980c0 -6 -4 -10 -10 -10z" fill="currentColor"/>
</g>
<a style="color:inherit;" xlink:href="textedit:///home/johannes/common-lisp/setzkasten/lilypond-export/b1-c13-m1-c.ly:34:42:43">
<g transform="translate(12.4906, 6.3453)">
<path transform="scale(0.0045, -0.0045)" d="M-50 0c0 28 22 50 50 50s50 -22 50 -50s-22 -50 -50 -50s-50 22 -50 50z" fill="currentColor"/>
</g>
</a>
<a style="color:inherit;" xlink:href="textedit:///home/johannes/common-lisp/setzkasten/lilypond-export/b1-c13-m1-c.ly:34:35:36">
<g transform="translate(11.4906, 7.3453)">
<path transform="scale(0.0040, -0.0040)" d="M53 -31h394c11 0 20 9 20 20v22c0 11 -9 20 -20 20h-394c-11 0 -20 -9 -20 -20v-22c0 -11 9 -20 20 -20zM447 -138h-394c-17 0 -20 -21 -20 -41c0 -11 -9 -16 -17 -16s-16 5 -16 16v358c0 11 8 16 16 16s17 -5 17 -16c0 -20 3 -41 20 -41h394c17 0 20 21 20 41
c0 11 9 16 17 16s16 -5 16 -16v-358c0 -11 -8 -16 -16 -16s-17 5 -17 16c0 20 -3 41 -20 41z" fill="currentColor"/>
</g>
</a>
<g transform="translate(5.8489, 12.8453)">
<text font-family="serif" font-size="2.2001" text-anchor="start" fill="currentColor">
<tspan>per tutta</tspan>
</text>
</g>
<g transform="translate(19.4406, 9.8453)">
<text font-family="serif" font-size="2.2001" text-anchor="start" fill="currentColor">
<tspan>per la parte</tspan>
</text>
</g>
<g transform="translate(21.8989, 12.8453)">
<text font-family="serif" font-size="2.2001" text-anchor="start" fill="currentColor">
<tspan>dinanzi</tspan>
</text>
</g>
<g transform="translate(36.1174, 9.8453)">
<text font-family="serif" font-size="2.2001" text-anchor="start" fill="currentColor">
<tspan>per la parte</tspan>
</text>
</g>
<g transform="translate(39.2245, 12.8453)">
<text font-family="serif" font-size="2.2001" text-anchor="start" fill="currentColor">
<tspan>doppo</tspan>
</text>
</g>
<g transform="translate(52.7943, 8.8453)">
<line stroke-linejoin="round" stroke-linecap="round" stroke-width="0.1000" stroke="currentColor" x1="0.0500" y1="0" x2="10.1120" y2="0"/>
</g>
<g transform="translate(52.7943, 7.8453)">
<line stroke-linejoin="round" stroke-linecap="round" stroke-width="0.1000" stroke="currentColor" x1="0.0500" y1="0" x2="10.1120" y2="0"/>
</g>
<g transform="translate(52.7943, 6.8453)">
<line stroke-linejoin="round" stroke-linecap="round" stroke-width="0.1000" stroke="currentColor" x1="0.0500" y1="0" x2="10.1120" y2="0"/>
</g>
<g transform="translate(52.7943, 5.8453)">
<line stroke-linejoin="round" stroke-linecap="round" stroke-width="0.1000" stroke="currentColor" x1="0.0500" y1="0" x2="10.1120" y2="0"/>
</g>
<g transform="translate(52.7943, 4.8453)">
<line stroke-linejoin="round" stroke-linecap="round" stroke-width="0.1000" stroke="currentColor" x1="0.0500" y1="0" x2="10.1120" y2="0"/>
</g>
<g transform="translate(53.5943, 5.8453)">
<path transform="scale(0.0040, -0.0040)" d="M318 0c0 -33 7 -73 45 -73c29 0 57 31 88 31c123 0 229 -89 229 -208c0 -169 -93 -250 -265 -250c-83 0 -152 61 -152 142c0 42 34 77 76 77s76 -35 76 -77c0 -39 -49 -37 -49 -76c0 -23 24 -38 49 -38c116 0 140 90 140 222c0 106 -12 180 -104 180
c-72 0 -119 -71 -119 -149c0 -9 -7 -14 -14 -14s-13 5 -13 14c0 76 -31 147 -84 200v-471c0 -6 -4 -10 -10 -10h-21c-6 0 -10 4 -10 10v980c0 6 4 10 10 10h21c6 0 10 -4 10 -10v-471c53 53 84 124 84 200c0 9 6 14 13 14s14 -5 14 -14c0 -78 47 -149 119 -149
c92 0 104 74 104 180c0 132 -24 222 -140 222c-25 0 -49 -15 -49 -38c0 -39 49 -37 49 -76c0 -42 -34 -77 -76 -77s-76 35 -76 77c0 81 69 142 152 142c172 0 265 -81 265 -250c0 -119 -106 -208 -229 -208c-31 0 -59 31 -88 31c-38 0 -45 -40 -45 -73zM129 -500h-119
c-6 0 -10 4 -10 10v980c0 6 4 10 10 10h119c6 0 10 -4 10 -10v-980c0 -6 -4 -10 -10 -10z" fill="currentColor"/>
</g>
<a style="color:inherit;" xlink:href="textedit:///home/johannes/common-lisp/setzkasten/lilypond-export/b1-c13-m1-c.ly:125:37:38">
<g transform="translate(59.5753, 5.3453)">
<path transform="scale(0.0045, -0.0045)" d="M-50 0c0 28 22 50 50 50s50 -22 50 -50s-22 -50 -50 -50s-50 22 -50 50z" fill="currentColor"/>
</g>
</a>
<a style="color:inherit;" xlink:href="textedit:///home/johannes/common-lisp/setzkasten/lilypond-export/b1-c13-m1-c.ly:125:35:36">
<g transform="translate(58.5943, 6.8453)">
<path transform="scale(0.0040, -0.0040)" d="M213 112c-50 0 -69 -43 -69 -88c0 -77 57 -136 134 -136c50 0 69 43 69 88c0 77 -57 136 -134 136zM491 0c0 -43 -34 -75 -72 -96c-53 -29 -114 -40 -174 -40s-120 11 -173 40c-38 21 -72 53 -72 96s34 75 72 96c53 29 113 40 173 40s121 -11 174 -40
c38 -21 72 -53 72 -96z" fill="currentColor"/>
</g>
</a>
<g transform="translate(52.9337, 12.8453)">
<text font-family="serif" font-size="2.2001" text-anchor="start" fill="currentColor">
<tspan>per tutta</tspan>
</text>
</g>
<g transform="translate(66.5063, 9.8453)">
<text font-family="serif" font-size="2.2001" text-anchor="start" fill="currentColor">
<tspan>per la parte</tspan>
</text>
</g>
<g transform="translate(68.9646, 12.8453)">
<text font-family="serif" font-size="2.2001" text-anchor="start" fill="currentColor">
<tspan>dinanzi</tspan>
</text>
</g>
<g transform="translate(83.1832, 9.8453)">
<text font-family="serif" font-size="2.2001" text-anchor="start" fill="currentColor">
<tspan>per la parte</tspan>
</text>
</g>
<g transform="translate(86.2903, 12.8453)">
<text font-family="serif" font-size="2.2001" text-anchor="start" fill="currentColor">
<tspan>doppo</tspan>
</text>
</g>
<g transform="translate(101.1358, 8.8453)">
<line stroke-linejoin="round" stroke-linecap="round" stroke-width="0.1000" stroke="currentColor" x1="0.0500" y1="0" x2="10.1500" y2="0"/>
</g>
<g transform="translate(101.1358, 7.8453)">
<line stroke-linejoin="round" stroke-linecap="round" stroke-width="0.1000" stroke="currentColor" x1="0.0500" y1="0" x2="10.1500" y2="0"/>
</g>
<g transform="translate(101.1358, 6.8453)">
<line stroke-linejoin="round" stroke-linecap="round" stroke-width="0.1000" stroke="currentColor" x1="0.0500" y1="0" x2="10.1500" y2="0"/>
</g>
<g transform="translate(101.1358, 5.8453)">
<line stroke-linejoin="round" stroke-linecap="round" stroke-width="0.1000" stroke="currentColor" x1="0.0500" y1="0" x2="10.1500" y2="0"/>
</g>
<g transform="translate(101.1358, 4.8453)">
<line stroke-linejoin="round" stroke-linecap="round" stroke-width="0.1000" stroke="currentColor" x1="0.0500" y1="0" x2="10.1500" y2="0"/>
</g>
<g transform="translate(101.9358, 5.8453)">
<path transform="scale(0.0040, -0.0040)" d="M318 0c0 -33 7 -73 45 -73c29 0 57 31 88 31c123 0 229 -89 229 -208c0 -169 -93 -250 -265 -250c-83 0 -152 61 -152 142c0 42 34 77 76 77s76 -35 76 -77c0 -39 -49 -37 -49 -76c0 -23 24 -38 49 -38c116 0 140 90 140 222c0 106 -12 180 -104 180
c-72 0 -119 -71 -119 -149c0 -9 -7 -14 -14 -14s-13 5 -13 14c0 76 -31 147 -84 200v-471c0 -6 -4 -10 -10 -10h-21c-6 0 -10 4 -10 10v980c0 6 4 10 10 10h21c6 0 10 -4 10 -10v-471c53 53 84 124 84 200c0 9 6 14 13 14s14 -5 14 -14c0 -78 47 -149 119 -149
c92 0 104 74 104 180c0 132 -24 222 -140 222c-25 0 -49 -15 -49 -38c0 -39 49 -37 49 -76c0 -42 -34 -77 -76 -77s-76 35 -76 77c0 81 69 142 152 142c172 0 265 -81 265 -250c0 -119 -106 -208 -229 -208c-31 0 -59 31 -88 31c-38 0 -45 -40 -45 -73zM129 -500h-119
c-6 0 -10 4 -10 10v980c0 6 4 10 10 10h119c6 0 10 -4 10 -10v-980c0 -6 -4 -10 -10 -10z" fill="currentColor"/>
</g>
<a style="color:inherit;" xlink:href="textedit:///home/johannes/common-lisp/setzkasten/lilypond-export/b1-c13-m1-c.ly:216:42:43">
<g transform="translate(107.9358, 5.3453)">
<path transform="scale(0.0045, -0.0045)" d="M-50 0c0 28 22 50 50 50s50 -22 50 -50s-22 -50 -50 -50s-50 22 -50 50z" fill="currentColor"/>
</g>
</a>
<a style="color:inherit;" xlink:href="textedit:///home/johannes/common-lisp/setzkasten/lilypond-export/b1-c13-m1-c.ly:216:35:36">
<g transform="translate(106.9358, 6.8453)">
<path transform="scale(0.0040, -0.0040)" d="M53 -50h394c11 0 20 9 20 20v60c0 11 -9 20 -20 20h-394c-11 0 -20 -9 -20 -20v-60c0 -11 9 -20 20 -20zM447 -138h-394c-17 0 -20 -21 -20 -41c0 -11 -9 -16 -17 -16s-16 5 -16 16v358c0 11 8 16 16 16s17 -5 17 -16c0 -20 3 -41 20 -41h394c17 0 20 21 20 41
c0 11 9 16 17 16s16 -5 16 -16v-358c0 -11 -8 -16 -16 -16s-17 5 -17 16c0 20 -3 41 -20 41z" fill="currentColor"/>
</g>
</a>
<g transform="translate(99.8601, 12.8453)">
<text font-family="serif" font-size="2.2001" text-anchor="start" fill="currentColor">
<tspan>per la metà</tspan>
</text>
</g>
<g transform="translate(102.7794, 15.8453)">
<text font-family="serif" font-size="2.2001" text-anchor="start" fill="currentColor">
<tspan>doppo</tspan>
</text>
</g>
<g transform="translate(116.1614, 8.8453)">
<line stroke-linejoin="round" stroke-linecap="round" stroke-width="0.1000" stroke="currentColor" x1="0.0500" y1="0" x2="10.1500" y2="0"/>
</g>
<g transform="translate(116.1614, 7.8453)">
<line stroke-linejoin="round" stroke-linecap="round" stroke-width="0.1000" stroke="currentColor" x1="0.0500" y1="0" x2="10.1500" y2="0"/>
</g>
<g transform="translate(116.1614, 6.8453)">
<line stroke-linejoin="round" stroke-linecap="round" stroke-width="0.1000" stroke="currentColor" x1="0.0500" y1="0" x2="10.1500" y2="0"/>
</g>
<g transform="translate(116.1614, 5.8453)">
<line stroke-linejoin="round" stroke-linecap="round" stroke-width="0.1000" stroke="currentColor" x1="0.0500" y1="0" x2="10.1500" y2="0"/>
</g>
<g transform="translate(116.1614, 4.8453)">
<line stroke-linejoin="round" stroke-linecap="round" stroke-width="0.1000" stroke="currentColor" x1="0.0500" y1="0" x2="10.1500" y2="0"/>
</g>
<g transform="translate(120.8114, 7.3453)">
<path transform="scale(0.0040, -0.0040)" d="M27 41l-1 -66v-11c0 -22 1 -44 4 -66c45 38 93 80 93 139c0 33 -14 67 -43 67c-31 0 -52 -30 -53 -63zM-15 -138l-12 595c8 5 18 8 27 8s19 -3 27 -8l-7 -345c25 21 58 34 91 34c52 0 89 -48 89 -102c0 -80 -86 -117 -147 -169c-15 -13 -24 -38 -45 -38
c-13 0 -23 11 -23 25z" fill="currentColor"/>
</g>
<g transform="translate(116.9614, 5.8453)">
<path transform="scale(0.0040, -0.0040)" d="M318 0c0 -33 7 -73 45 -73c29 0 57 31 88 31c123 0 229 -89 229 -208c0 -169 -93 -250 -265 -250c-83 0 -152 61 -152 142c0 42 34 77 76 77s76 -35 76 -77c0 -39 -49 -37 -49 -76c0 -23 24 -38 49 -38c116 0 140 90 140 222c0 106 -12 180 -104 180
c-72 0 -119 -71 -119 -149c0 -9 -7 -14 -14 -14s-13 5 -13 14c0 76 -31 147 -84 200v-471c0 -6 -4 -10 -10 -10h-21c-6 0 -10 4 -10 10v980c0 6 4 10 10 10h21c6 0 10 -4 10 -10v-471c53 53 84 124 84 200c0 9 6 14 13 14s14 -5 14 -14c0 -78 47 -149 119 -149
c92 0 104 74 104 180c0 132 -24 222 -140 222c-25 0 -49 -15 -49 -38c0 -39 49 -37 49 -76c0 -42 -34 -77 -76 -77s-76 35 -76 77c0 81 69 142 152 142c172 0 265 -81 265 -250c0 -119 -106 -208 -229 -208c-31 0 -59 31 -88 31c-38 0 -45 -40 -45 -73zM129 -500h-119
c-6 0 -10 4 -10 10v980c0 6 4 10 10 10h119c6 0 10 -4 10 -10v-980c0 -6 -4 -10 -10 -10z" fill="currentColor"/>
</g>
<a style="color:inherit;" xlink:href="textedit:///home/johannes/common-lisp/setzkasten/lilypond-export/b1-c13-m1-c.ly:248:44:45">
<g transform="translate(122.9614, 6.3453)">
<path transform="scale(0.0045, -0.0045)" d="M-50 0c0 28 22 50 50 50s50 -22 50 -50s-22 -50 -50 -50s-50 22 -50 50z" fill="currentColor"/>
</g>
</a>
<a style="color:inherit;" xlink:href="textedit:///home/johannes/common-lisp/setzkasten/lilypond-export/b1-c13-m1-c.ly:248:35:36">
<g transform="translate(121.9614, 7.3453)">
<path transform="scale(0.0040, -0.0040)" d="M53 -31h394c11 0 20 9 20 20v22c0 11 -9 20 -20 20h-394c-11 0 -20 -9 -20 -20v-22c0 -11 9 -20 20 -20zM447 -138h-394c-17 0 -20 -21 -20 -41c0 -11 -9 -16 -17 -16s-16 5 -16 16v358c0 11 8 16 16 16s17 -5 17 -16c0 -20 3 -41 20 -41h394c17 0 20 21 20 41
c0 11 9 16 17 16s16 -5 16 -16v-358c0 -11 -8 -16 -16 -16s-17 5 -17 16c0 20 -3 41 -20 41z" fill="currentColor"/>
</g>
</a>
<g transform="translate(116.3198, 12.8453)">
<text font-family="serif" font-size="2.2001" text-anchor="start" fill="currentColor">
<tspan>per tutta</tspan>
</text>
</g>
<g transform="translate(135.6086, 8.8453)">
<line stroke-linejoin="round" stroke-linecap="round" stroke-width="0.1000" stroke="currentColor" x1="0.0500" y1="0" x2="10.1500" y2="0"/>
</g>
<g transform="translate(135.6086, 7.8453)">
<line stroke-linejoin="round" stroke-linecap="round" stroke-width="0.1000" stroke="currentColor" x1="0.0500" y1="0" x2="10.1500" y2="0"/>
</g>
<g transform="translate(135.6086, 6.8453)">
<line stroke-linejoin="round" stroke-linecap="round" stroke-width="0.1000" stroke="currentColor" x1="0.0500" y1="0" x2="10.1500" y2="0"/>
</g>
<g transform="translate(135.6086, 5.8453)">
<line stroke-linejoin="round" stroke-linecap="round" stroke-width="0.1000" stroke="currentColor" x1="0.0500" y1="0" x2="10.1500" y2="0"/>
</g>
<g transform="translate(135.6086, 4.8453)">
<line stroke-linejoin="round" stroke-linecap="round" stroke-width="0.1000" stroke="currentColor" x1="0.0500" y1="0" x2="10.1500" y2="0"/>
</g>
<g transform="translate(136.4086, 5.8453)">
<path transform="scale(0.0040, -0.0040)" d="M318 0c0 -33 7 -73 45 -73c29 0 57 31 88 31c123 0 229 -89 229 -208c0 -169 -93 -250 -265 -250c-83 0 -152 61 -152 142c0 42 34 77 76 77s76 -35 76 -77c0 -39 -49 -37 -49 -76c0 -23 24 -38 49 -38c116 0 140 90 140 222c0 106 -12 180 -104 180
c-72 0 -119 -71 -119 -149c0 -9 -7 -14 -14 -14s-13 5 -13 14c0 76 -31 147 -84 200v-471c0 -6 -4 -10 -10 -10h-21c-6 0 -10 4 -10 10v980c0 6 4 10 10 10h21c6 0 10 -4 10 -10v-471c53 53 84 124 84 200c0 9 6 14 13 14s14 -5 14 -14c0 -78 47 -149 119 -149
c92 0 104 74 104 180c0 132 -24 222 -140 222c-25 0 -49 -15 -49 -38c0 -39 49 -37 49 -76c0 -42 -34 -77 -76 -77s-76 35 -76 77c0 81 69 142 152 142c172 0 265 -81 265 -250c0 -119 -106 -208 -229 -208c-31 0 -59 31 -88 31c-38 0 -45 -40 -45 -73zM129 -500h-119
c-6 0 -10 4 -10 10v980c0 6 4 10 10 10h119c6 0 10 -4 10 -10v-980c0 -6 -4 -10 -10 -10z" fill="currentColor"/>
</g>
<a style="color:inherit;" xlink:href="textedit:///home/johannes/common-lisp/setzkasten/lilypond-export/b1-c13-m1-c.ly:277:42:43">
<g transform="translate(142.4086, 6.3453)">
<path transform="scale(0.0045, -0.0045)" d="M-50 0c0 28 22 50 50 50s50 -22 50 -50s-22 -50 -50 -50s-50 22 -50 50z" fill="currentColor"/>
</g>
</a>
<a style="color:inherit;" xlink:href="textedit:///home/johannes/common-lisp/setzkasten/lilypond-export/b1-c13-m1-c.ly:277:35:36">
<g transform="translate(141.4086, 7.3453)">
<path transform="scale(0.0040, -0.0040)" d="M53 -31h394c11 0 20 9 20 20v22c0 11 -9 20 -20 20h-394c-11 0 -20 -9 -20 -20v-22c0 -11 9 -20 20 -20zM447 -138h-394c-17 0 -20 -21 -20 -41c0 -11 -9 -16 -17 -16s-16 5 -16 16v358c0 11 8 16 16 16s17 -5 17 -16c0 -20 3 -41 20 -41h394c17 0 20 21 20 41
c0 11 9 16 17 16s16 -5 16 -16v-358c0 -11 -8 -16 -16 -16s-17 5 -17 16c0 20 -3 41 -20 41z" fill="currentColor"/>
</g>
</a>
<g transform="translate(129.9114, 12.8453)">
<text font-family="serif" font-size="2.2001" text-anchor="start" fill="currentColor">
<tspan>per la metà dinanzi</tspan>
</text>
</g>
<g transform="translate(157.7873, 9.8453)">
<text font-family="serif" font-size="2.2001" text-anchor="start" fill="currentColor">
<tspan>la prima metà</tspan>
</text>
</g>
<g transform="translate(156.5923, 12.8453)">
<text font-family="serif" font-size="2.2001" text-anchor="start" fill="currentColor">
<tspan>enarmonico e la</tspan>
</text>
</g>
<g transform="translate(155.0558, 15.8453)">
<text font-family="serif" font-size="2.2001" text-anchor="start" fill="currentColor">
<tspan>seconda cromatico</tspan>
</text>
</g>
<g transform="translate(183.5094, 8.8453)">
<line stroke-linejoin="round" stroke-linecap="round" stroke-width="0.1000" stroke="currentColor" x1="0.0500" y1="0" x2="10.1120" y2="0"/>
</g>
<g transform="translate(183.5094, 7.8453)">
<line stroke-linejoin="round" stroke-linecap="round" stroke-width="0.1000" stroke="currentColor" x1="0.0500" y1="0" x2="10.1120" y2="0"/>
</g>
<g transform="translate(183.5094, 6.8453)">
<line stroke-linejoin="round" stroke-linecap="round" stroke-width="0.1000" stroke="currentColor" x1="0.0500" y1="0" x2="10.1120" y2="0"/>
</g>
<g transform="translate(183.5094, 5.8453)">
<line stroke-linejoin="round" stroke-linecap="round" stroke-width="0.1000" stroke="currentColor" x1="0.0500" y1="0" x2="10.1120" y2="0"/>
</g>
<g transform="translate(183.5094, 4.8453)">
<line stroke-linejoin="round" stroke-linecap="round" stroke-width="0.1000" stroke="currentColor" x1="0.0500" y1="0" x2="10.1120" y2="0"/>
</g>
<g transform="translate(184.3094, 5.8453)">
<path transform="scale(0.0040, -0.0040)" d="M318 0c0 -33 7 -73 45 -73c29 0 57 31 88 31c123 0 229 -89 229 -208c0 -169 -93 -250 -265 -250c-83 0 -152 61 -152 142c0 42 34 77 76 77s76 -35 76 -77c0 -39 -49 -37 -49 -76c0 -23 24 -38 49 -38c116 0 140 90 140 222c0 106 -12 180 -104 180
c-72 0 -119 -71 -119 -149c0 -9 -7 -14 -14 -14s-13 5 -13 14c0 76 -31 147 -84 200v-471c0 -6 -4 -10 -10 -10h-21c-6 0 -10 4 -10 10v980c0 6 4 10 10 10h21c6 0 10 -4 10 -10v-471c53 53 84 124 84 200c0 9 6 14 13 14s14 -5 14 -14c0 -78 47 -149 119 -149
c92 0 104 74 104 180c0 132 -24 222 -140 222c-25 0 -49 -15 -49 -38c0 -39 49 -37 49 -76c0 -42 -34 -77 -76 -77s-76 35 -76 77c0 81 69 142 152 142c172 0 265 -81 265 -250c0 -119 -106 -208 -229 -208c-31 0 -59 31 -88 31c-38 0 -45 -40 -45 -73zM129 -500h-119
c-6 0 -10 4 -10 10v980c0 6 4 10 10 10h119c6 0 10 -4 10 -10v-980c0 -6 -4 -10 -10 -10z" fill="currentColor"/>
</g>
<a style="color:inherit;" xlink:href="textedit:///home/johannes/common-lisp/setzkasten/lilypond-export/b1-c13-m1-c.ly:340:37:38">
<g transform="translate(190.2904, 5.3453)">
<path transform="scale(0.0045, -0.0045)" d="M-50 0c0 28 22 50 50 50s50 -22 50 -50s-22 -50 -50 -50s-50 22 -50 50z" fill="currentColor"/>
</g>
</a>
<a style="color:inherit;" xlink:href="textedit:///home/johannes/common-lisp/setzkasten/lilypond-export/b1-c13-m1-c.ly:340:35:36">
<g transform="translate(189.3094, 6.8453)">
<path transform="scale(0.0040, -0.0040)" d="M213 112c-50 0 -69 -43 -69 -88c0 -77 57 -136 134 -136c50 0 69 43 69 88c0 77 -57 136 -134 136zM491 0c0 -43 -34 -75 -72 -96c-53 -29 -114 -40 -174 -40s-120 11 -173 40c-38 21 -72 53 -72 96s34 75 72 96c53 29 113 40 173 40s121 -11 174 -40
c38 -21 72 -53 72 -96z" fill="currentColor"/>
</g>
</a>
<g transform="translate(180.8148, 12.8453)">
<text font-family="serif" font-size="2.2001" text-anchor="start" fill="currentColor">
<tspan>la prima metà</tspan>
</text>
</g>
<g transform="translate(179.6198, 15.8453)">
<text font-family="serif" font-size="2.2001" text-anchor="start" fill="currentColor">
<tspan>enarmonico e la</tspan>
</text>
</g>
<g transform="translate(179.8930, 18.8453)">
<text font-family="serif" font-size="2.2001" text-anchor="start" fill="currentColor">
<tspan>metà seconda è</tspan>
</text>
</g>
<g transform="translate(181.9928, 21.8453)">
<text font-family="serif" font-size="2.2001" text-anchor="start" fill="currentColor">
<tspan>cromatico e</tspan>
</text>
</g>
<g transform="translate(181.9586, 24.8453)">
<text font-family="serif" font-size="2.2001" text-anchor="start" fill="currentColor">
<tspan>enarmonico</tspan>
</text>
</g>
<g transform="translate(201.8639, 8.8453)">
<line stroke-linejoin="round" stroke-linecap="round" stroke-width="0.1000" stroke="currentColor" x1="0.0500" y1="0" x2="8.3273" y2="0"/>
</g>
<g transform="translate(201.8639, 7.8453)">
<line stroke-linejoin="round" stroke-linecap="round" stroke-width="0.1000" stroke="currentColor" x1="0.0500" y1="0" x2="8.3273" y2="0"/>
</g>
<g transform="translate(201.8639, 6.8453)">
<line stroke-linejoin="round" stroke-linecap="round" stroke-width="0.1000" stroke="currentColor" x1="0.0500" y1="0" x2="8.3273" y2="0"/>
</g>
<g transform="translate(201.8639, 5.8453)">
<line stroke-linejoin="round" stroke-linecap="round" stroke-width="0.1000" stroke="currentColor" x1="0.0500" y1="0" x2="8.3273" y2="0"/>
</g>
<g transform="translate(201.8639, 4.8453)">
<line stroke-linejoin="round" stroke-linecap="round" stroke-width="0.1000" stroke="currentColor" x1="0.0500" y1="0" x2="8.3273" y2="0"/>
</g>
<g transform="translate(208.9762, 6.8453)">
<rect x="-0.0650" y="-3.0000" width="0.1300" height="3.2410" ry="0.0400" fill="currentColor"/>
</g>
<g transform="translate(206.5139, 7.3453)">
<path transform="scale(0.0040, -0.0040)" d="M27 41l-1 -66v-11c0 -22 1 -44 4 -66c45 38 93 80 93 139c0 33 -14 67 -43 67c-31 0 -52 -30 -53 -63zM-15 -138l-12 595c8 5 18 8 27 8s19 -3 27 -8l-7 -345c25 21 58 34 91 34c52 0 89 -48 89 -102c0 -80 -86 -117 -147 -169c-15 -13 -24 -38 -45 -38
c-13 0 -23 11 -23 25z" fill="currentColor"/>
</g>
<g transform="translate(202.6639, 5.8453)">
<path transform="scale(0.0040, -0.0040)" d="M318 0c0 -33 7 -73 45 -73c29 0 57 31 88 31c123 0 229 -89 229 -208c0 -169 -93 -250 -265 -250c-83 0 -152 61 -152 142c0 42 34 77 76 77s76 -35 76 -77c0 -39 -49 -37 -49 -76c0 -23 24 -38 49 -38c116 0 140 90 140 222c0 106 -12 180 -104 180
c-72 0 -119 -71 -119 -149c0 -9 -7 -14 -14 -14s-13 5 -13 14c0 76 -31 147 -84 200v-471c0 -6 -4 -10 -10 -10h-21c-6 0 -10 4 -10 10v980c0 6 4 10 10 10h21c6 0 10 -4 10 -10v-471c53 53 84 124 84 200c0 9 6 14 13 14s14 -5 14 -14c0 -78 47 -149 119 -149
c92 0 104 74 104 180c0 132 -24 222 -140 222c-25 0 -49 -15 -49 -38c0 -39 49 -37 49 -76c0 -42 -34 -77 -76 -77s-76 35 -76 77c0 81 69 142 152 142c172 0 265 -81 265 -250c0 -119 -106 -208 -229 -208c-31 0 -59 31 -88 31c-38 0 -45 -40 -45 -73zM129 -500h-119
c-6 0 -10 4 -10 10v980c0 6 4 10 10 10h119c6 0 10 -4 10 -10v-980c0 -6 -4 -10 -10 -10z" fill="currentColor"/>
</g>
<a style="color:inherit;" xlink:href="textedit:///home/johannes/common-lisp/setzkasten/lilypond-export/b1-c13-m1-c.ly:381:39:40">
<g transform="translate(208.3526, 6.3453)">
<path transform="scale(0.0045, -0.0045)" d="M-50 0c0 28 22 50 50 50s50 -22 50 -50s-22 -50 -50 -50s-50 22 -50 50z" fill="currentColor"/>
</g>
</a>
<a style="color:inherit;" xlink:href="textedit:///home/johannes/common-lisp/setzkasten/lilypond-export/b1-c13-m1-c.ly:381:35:36">
<g transform="translate(207.6639, 7.3453)">
<path transform="scale(0.0040, -0.0040)" d="M314 65c0 24 -21 41 -42 41c-4 0 -8 0 -12 -1c-31 -9 -78 -40 -115 -64s-84 -53 -104 -78c-7 -8 -10 -18 -10 -28c0 -24 21 -41 42 -41c4 0 8 0 12 1c31 9 77 40 114 64s84 53 104 78c7 8 11 18 11 28zM262 136c46 0 82 -21 82 -71c0 -19 -4 -39 -10 -57
c-12 -37 -32 -72 -64 -94c-53 -36 -113 -50 -187 -50c-46 0 -83 21 -83 71c0 19 5 39 11 57c12 37 31 72 63 94c53 36 114 50 188 50z" fill="currentColor"/>
</g>
</a>
<g transform="translate(201.1109, 12.8453)">
<text font-family="serif" font-size="2.2001" text-anchor="start" fill="currentColor">
<tspan>per tutta</tspan>
</text>
</g>
<g transform="translate(214.5442, 9.8453)">
<text font-family="serif" font-size="2.2001" text-anchor="start" fill="currentColor">
<tspan>per la metà</tspan>
</text>
</g>
<g transform="translate(216.8147, 12.8453)">
<text font-family="serif" font-size="2.2001" text-anchor="start" fill="currentColor">
<tspan>dinanzi</tspan>
</text>
</g>
<g transform="translate(230.8455, 9.8453)">
<text font-family="serif" font-size="2.2001" text-anchor="start" fill="currentColor">
<tspan>per la metà</tspan>
</text>
</g>
<g transform="translate(233.7648, 12.8453)">
<text font-family="serif" font-size="2.2001" text-anchor="start" fill="currentColor">
<tspan>doppo</tspan>
</text>
</g>
</svg>
