<svg xmlns="http://www.w3.org/2000/svg" xmlns:xlink="http://www.w3.org/1999/xlink" version="1.2" width="234.24mm" height="42.95mm" viewBox="0.0000 -2.4855 133.2965 24.4432">
<style type="text/css">
<![CDATA[
tspan { white-space: pre; }
]]>
</style>
<g transform="translate(8.6729, -0.0000)">
<text font-family="serif" font-size="3.1115" text-anchor="start" fill="currentColor">
<tspan>Essempio di più di quinta imperfetta accidentale, composto e incomposto</tspan>
</text>
</g>
<g transform="translate(0.0000, 8.0000)">
<line stroke-linejoin="round" stroke-linecap="round" stroke-width="0.1000" stroke="currentColor" x1="0.0500" y1="0" x2="17.2940" y2="0"/>
</g>
<g transform="translate(0.0000, 7.0000)">
<line stroke-linejoin="round" stroke-linecap="round" stroke-width="0.1000" stroke="currentColor" x1="0.0500" y1="0" x2="17.2940" y2="0"/>
</g>
<g transform="translate(0.0000, 6.0000)">
<line stroke-linejoin="round" stroke-linecap="round" stroke-width="0.1000" stroke="currentColor" x1="0.0500" y1="0" x2="17.2940" y2="0"/>
</g>
<g transform="translate(0.0000, 5.0000)">
<line stroke-linejoin="round" stroke-linecap="round" stroke-width="0.1000" stroke="currentColor" x1="0.0500" y1="0" x2="17.2940" y2="0"/>
</g>
<g transform="translate(0.0000, 4.0000)">
<line stroke-linejoin="round" stroke-linecap="round" stroke-width="0.1000" stroke="currentColor" x1="0.0500" y1="0" x2="17.2940" y2="0"/>
</g>
<a style="color:inherit;" xlink:href="textedit:///home/johannes/common-lisp/setzkasten/lilypond-export/b1-c38-m1-e-orig.ly:40:59:60">
<g transform="translate(12.7264, 5.5000)">
<path transform="scale(0.0040, -0.0040)" d="M73 54c-1 -2 -2 -4 -2 -6s1 -4 2 -6l91 -129c2 -3 5 -4 8 -4s7 1 9 4l23 33c1 2 2 4 2 6s-1 4 -2 6l-91 129c-2 3 -5 4 -8 4s-6 -1 -8 -4zM2 -6c-1 2 -2 4 -2 6s1 4 2 6l128 182c2 3 6 4 9 4s6 -1 8 -4l128 -182c1 -2 2 -4 2 -6s-1 -4 -2 -6l-128 -182c-2 -3 -5 -4 -8 -4
s-7 1 -9 4z" fill="currentColor"/>
</g>
</a>
<a style="color:inherit;" xlink:href="textedit:///home/johannes/common-lisp/setzkasten/lilypond-export/b1-c38-m1-e-orig.ly:40:49:50">
<g transform="translate(8.1088, 6.5000)">
<path transform="scale(0.0040, -0.0040)" d="M73 54c-1 -2 -2 -4 -2 -6s1 -4 2 -6l91 -129c2 -3 5 -4 8 -4s7 1 9 4l23 33c1 2 2 4 2 6s-1 4 -2 6l-91 129c-2 3 -5 4 -8 4s-6 -1 -8 -4zM2 -6c-1 2 -2 4 -2 6s1 4 2 6l128 182c2 3 6 4 9 4s6 -1 8 -4l128 -182c1 -2 2 -4 2 -6s-1 -4 -2 -6l-128 -182c-2 -3 -5 -4 -8 -4
s-7 1 -9 4z" fill="currentColor"/>
</g>
</a>
<a style="color:inherit;" xlink:href="textedit:///home/johannes/common-lisp/setzkasten/lilypond-export/b1-c38-m1-e-orig.ly:40:54:55">
<g transform="translate(10.4176, 6.0000)">
<path transform="scale(0.0040, -0.0040)" d="M73 54c-1 -2 -2 -4 -2 -6s1 -4 2 -6l91 -129c2 -3 5 -4 8 -4s7 1 9 4l23 33c1 2 2 4 2 6s-1 4 -2 6l-91 129c-2 3 -5 4 -8 4s-6 -1 -8 -4zM2 -6c-1 2 -2 4 -2 6s1 4 2 6l128 182c2 3 6 4 9 4s6 -1 8 -4l128 -182c1 -2 2 -4 2 -6s-1 -4 -2 -6l-128 -182c-2 -3 -5 -4 -8 -4
s-7 1 -9 4z" fill="currentColor"/>
</g>
</a>
<a style="color:inherit;" xlink:href="textedit:///home/johannes/common-lisp/setzkasten/lilypond-export/b1-c38-m1-e-orig.ly:40:69:70">
<g transform="translate(15.0352, 5.0000)">
<path transform="scale(0.0040, -0.0040)" d="M73 54c-1 -2 -2 -4 -2 -6s1 -4 2 -6l91 -129c2 -3 5 -4 8 -4s7 1 9 4l23 33c1 2 2 4 2 6s-1 4 -2 6l-91 129c-2 3 -5 4 -8 4s-6 -1 -8 -4zM2 -6c-1 2 -2 4 -2 6s1 4 2 6l128 182c2 3 6 4 9 4s6 -1 8 -4l128 -182c1 -2 2 -4 2 -6s-1 -4 -2 -6l-128 -182c-2 -3 -5 -4 -8 -4
s-7 1 -9 4z" fill="currentColor"/>
</g>
</a>
<a style="color:inherit;" xlink:href="textedit:///home/johannes/common-lisp/setzkasten/lilypond-export/b1-c38-m1-e-orig.ly:40:71:72">
<g transform="translate(15.5896, 3.5000)">
<path transform="scale(0.0045, -0.0045)" d="M-50 0c0 28 22 50 50 50s50 -22 50 -50s-22 -50 -50 -50s-50 22 -50 50z" fill="currentColor"/>
</g>
</a>
<a style="color:inherit;" xlink:href="textedit:///home/johannes/common-lisp/setzkasten/lilypond-export/b1-c38-m1-e-orig.ly:40:43:44">
<g transform="translate(5.8000, 7.0000)">
<path transform="scale(0.0040, -0.0040)" d="M73 54c-1 -2 -2 -4 -2 -6s1 -4 2 -6l91 -129c2 -3 5 -4 8 -4s7 1 9 4l23 33c1 2 2 4 2 6s-1 4 -2 6l-91 129c-2 3 -5 4 -8 4s-6 -1 -8 -4zM2 -6c-1 2 -2 4 -2 6s1 4 2 6l128 182c2 3 6 4 9 4s6 -1 8 -4l128 -182c1 -2 2 -4 2 -6s-1 -4 -2 -6l-128 -182c-2 -3 -5 -4 -8 -4
s-7 1 -9 4z" fill="currentColor"/>
</g>
</a>
<g transform="translate(0.8000, 5.0000)">
<path transform="scale(0.0040, -0.0040)" d="M272 -79l25 -25c16 -16 -26 -60 -43 -43l-25 25c-16 16 26 60 43 43zM272 147l25 -25c16 -16 -26 -60 -43 -43l-25 25c-16 16 26 60 43 43zM199 12c0 -99 -88 -187 -187 -187c-23 0 -8 29 0 37c7 7 15 13 25 13c64 0 113 49 113 113c0 75 -63 137 -138 137
c-23 0 -8 29 0 37c7 7 15 13 25 13c89 0 162 -74 162 -163z" fill="currentColor"/>
</g>
<a style="color:inherit;" xlink:href="textedit:///home/johannes/common-lisp/setzkasten/lilypond-export/b1-c38-m1-e-orig.ly:38:16:17">
</a>
<g transform="translate(1.5452, 12.0000)">
<text font-family="serif" font-size="2.2001" text-anchor="start" fill="currentColor">
<tspan>più di quinta</tspan>
</text>
</g>
<g transform="translate(2.7744, 15.0000)">
<text font-family="serif" font-size="2.2001" text-anchor="start" fill="currentColor">
<tspan>imperfetta</tspan>
</text>
</g>
<g transform="translate(3.9352, 18.0000)">
<text font-family="serif" font-size="2.2001" text-anchor="start" fill="currentColor">
<tspan>naturale</tspan>
</text>
</g>
<g transform="translate(3.2865, 21.0000)">
<text font-family="serif" font-size="2.2001" text-anchor="start" fill="currentColor">
<tspan>composto</tspan>
</text>
</g>
<g transform="translate(22.8120, 8.0000)">
<line stroke-linejoin="round" stroke-linecap="round" stroke-width="0.1000" stroke="currentColor" x1="0.0500" y1="0" x2="10.3676" y2="0"/>
</g>
<g transform="translate(22.8120, 7.0000)">
<line stroke-linejoin="round" stroke-linecap="round" stroke-width="0.1000" stroke="currentColor" x1="0.0500" y1="0" x2="10.3676" y2="0"/>
</g>
<g transform="translate(22.8120, 6.0000)">
<line stroke-linejoin="round" stroke-linecap="round" stroke-width="0.1000" stroke="currentColor" x1="0.0500" y1="0" x2="10.3676" y2="0"/>
</g>
<g transform="translate(22.8120, 5.0000)">
<line stroke-linejoin="round" stroke-linecap="round" stroke-width="0.1000" stroke="currentColor" x1="0.0500" y1="0" x2="10.3676" y2="0"/>
</g>
<g transform="translate(22.8120, 4.0000)">
<line stroke-linejoin="round" stroke-linecap="round" stroke-width="0.1000" stroke="currentColor" x1="0.0500" y1="0" x2="10.3676" y2="0"/>
</g>
<a style="color:inherit;" xlink:href="textedit:///home/johannes/common-lisp/setzkasten/lilypond-export/b1-c38-m1-e-orig.ly:83:56:57">
<g transform="translate(31.4752, 3.3055)">
<path transform="scale(0.0045, -0.0045)" d="M-50 0c0 28 22 50 50 50s50 -22 50 -50s-22 -50 -50 -50s-50 22 -50 50z" fill="currentColor"/>
</g>
</a>
<a style="color:inherit;" xlink:href="textedit:///home/johannes/common-lisp/setzkasten/lilypond-export/b1-c38-m1-e-orig.ly:83:53:54">
<g transform="translate(30.9208, 4.5000)">
<path transform="scale(0.0040, -0.0040)" d="M73 54c-1 -2 -2 -4 -2 -6s1 -4 2 -6l91 -129c2 -3 5 -4 8 -4s7 1 9 4l23 33c1 2 2 4 2 6s-1 4 -2 6l-91 129c-2 3 -5 4 -8 4s-6 -1 -8 -4zM2 -6c-1 2 -2 4 -2 6s1 4 2 6l128 182c2 3 6 4 9 4s6 -1 8 -4l128 -182c1 -2 2 -4 2 -6s-1 -4 -2 -6l-128 -182c-2 -3 -5 -4 -8 -4
s-7 1 -9 4z" fill="currentColor"/>
</g>
</a>
<a style="color:inherit;" xlink:href="textedit:///home/johannes/common-lisp/setzkasten/lilypond-export/b1-c38-m1-e-orig.ly:81:16:17">
</a>
<g transform="translate(23.6120, 6.0000)">
<path transform="scale(0.0040, -0.0040)" d="M35 -104v-42c0 -6 4 -10 10 -10h195c6 0 10 4 10 10v42c0 6 -4 10 -10 10h-195c-6 0 -10 -4 -10 -10zM35 146v-42c0 -6 4 -10 10 -10h195c6 0 10 4 10 10v42c0 6 -4 10 -10 10h-195c-6 0 -10 -4 -10 -10zM0 0v540c0 7 9 10 18 10s17 -3 17 -10v-311c0 -6 4 -10 10 -10
h195c6 0 10 4 10 10v83c0 7 9 10 18 10s17 -3 17 -10v-271c0 -6 -4 -10 -10 -10h-230c-6 0 -10 -4 -10 -10v-42c0 -6 4 -10 10 -10h230c6 0 10 -4 10 -10v-271c0 -7 -8 -10 -17 -10s-18 3 -18 10v83c0 6 -4 10 -10 10h-195c-6 0 -10 -4 -10 -10v-311c0 -7 -8 -10 -17 -10
s-18 3 -18 10v540z" fill="currentColor"/>
</g>
<a style="color:inherit;" xlink:href="textedit:///home/johannes/common-lisp/setzkasten/lilypond-export/b1-c38-m1-e-orig.ly:83:43:44">
<g transform="translate(28.6120, 6.5000)">
<path transform="scale(0.0040, -0.0040)" d="M73 54c-1 -2 -2 -4 -2 -6s1 -4 2 -6l91 -129c2 -3 5 -4 8 -4s7 1 9 4l23 33c1 2 2 4 2 6s-1 4 -2 6l-91 129c-2 3 -5 4 -8 4s-6 -1 -8 -4zM2 -6c-1 2 -2 4 -2 6s1 4 2 6l128 182c2 3 6 4 9 4s6 -1 8 -4l128 -182c1 -2 2 -4 2 -6s-1 -4 -2 -6l-128 -182c-2 -3 -5 -4 -8 -4
s-7 1 -9 4z" fill="currentColor"/>
</g>
</a>
<g transform="translate(20.8940, 12.0000)">
<text font-family="serif" font-size="2.2001" text-anchor="start" fill="currentColor">
<tspan>più di quinta</tspan>
</text>
</g>
<g transform="translate(22.1232, 15.0000)">
<text font-family="serif" font-size="2.2001" text-anchor="start" fill="currentColor">
<tspan>imperfetta</tspan>
</text>
</g>
<g transform="translate(23.2841, 18.0000)">
<text font-family="serif" font-size="2.2001" text-anchor="start" fill="currentColor">
<tspan>naturale</tspan>
</text>
</g>
<g transform="translate(21.5598, 21.0000)">
<text font-family="serif" font-size="2.2001" text-anchor="start" fill="currentColor">
<tspan>incomposto</tspan>
</text>
</g>
<g transform="translate(40.6156, 8.0000)">
<line stroke-linejoin="round" stroke-linecap="round" stroke-width="0.1000" stroke="currentColor" x1="0.0500" y1="0" x2="10.3676" y2="0"/>
</g>
<g transform="translate(40.6156, 7.0000)">
<line stroke-linejoin="round" stroke-linecap="round" stroke-width="0.1000" stroke="currentColor" x1="0.0500" y1="0" x2="10.3676" y2="0"/>
</g>
<g transform="translate(40.6156, 6.0000)">
<line stroke-linejoin="round" stroke-linecap="round" stroke-width="0.1000" stroke="currentColor" x1="0.0500" y1="0" x2="10.3676" y2="0"/>
</g>
<g transform="translate(40.6156, 5.0000)">
<line stroke-linejoin="round" stroke-linecap="round" stroke-width="0.1000" stroke="currentColor" x1="0.0500" y1="0" x2="10.3676" y2="0"/>
</g>
<g transform="translate(40.6156, 4.0000)">
<line stroke-linejoin="round" stroke-linecap="round" stroke-width="0.1000" stroke="currentColor" x1="0.0500" y1="0" x2="10.3676" y2="0"/>
</g>
<a style="color:inherit;" xlink:href="textedit:///home/johannes/common-lisp/setzkasten/lilypond-export/b1-c38-m1-e-orig.ly:126:58:59">
<g transform="translate(49.2788, 4.5000)">
<path transform="scale(0.0045, -0.0045)" d="M-50 0c0 28 22 50 50 50s50 -22 50 -50s-22 -50 -50 -50s-50 22 -50 50z" fill="currentColor"/>
</g>
</a>
<a style="color:inherit;" xlink:href="textedit:///home/johannes/common-lisp/setzkasten/lilypond-export/b1-c38-m1-e-orig.ly:126:55:56">
<g transform="translate(48.7244, 6.0000)">
<path transform="scale(0.0040, -0.0040)" d="M73 54c-1 -2 -2 -4 -2 -6s1 -4 2 -6l91 -129c2 -3 5 -4 8 -4s7 1 9 4l23 33c1 2 2 4 2 6s-1 4 -2 6l-91 129c-2 3 -5 4 -8 4s-6 -1 -8 -4zM2 -6c-1 2 -2 4 -2 6s1 4 2 6l128 182c2 3 6 4 9 4s6 -1 8 -4l128 -182c1 -2 2 -4 2 -6s-1 -4 -2 -6l-128 -182c-2 -3 -5 -4 -8 -4
s-7 1 -9 4z" fill="currentColor"/>
</g>
</a>
<g transform="translate(44.9656, 8.0000)">
<path transform="scale(0.0040, -0.0040)" d="M216 -312c0 -10 -8 -19 -18 -19s-19 9 -19 19v145l-83 -31v-158c0 -10 -9 -19 -19 -19s-18 9 -18 19v145l-32 -12c-2 -1 -5 -1 -7 -1c-11 0 -20 9 -20 20v60c0 8 5 16 13 19l46 16v160l-32 -11c-2 -1 -5 -1 -7 -1c-11 0 -20 9 -20 20v60c0 8 5 15 13 18l46 17v158
c0 10 8 19 18 19s19 -9 19 -19v-145l83 31v158c0 10 9 19 19 19s18 -9 18 -19v-145l32 12c2 1 5 1 7 1c11 0 20 -9 20 -20v-60c0 -8 -5 -16 -13 -19l-46 -16v-160l32 11c2 1 5 1 7 1c11 0 20 -9 20 -20v-60c0 -8 -5 -15 -13 -18l-46 -17v-158zM96 65v-160l83 30v160z" fill="currentColor"/>
</g>
<a style="color:inherit;" xlink:href="textedit:///home/johannes/common-lisp/setzkasten/lilypond-export/b1-c38-m1-e-orig.ly:124:16:17">
</a>
<g transform="translate(41.4156, 6.0000)">
<path transform="scale(0.0040, -0.0040)" d="M35 -104v-42c0 -6 4 -10 10 -10h195c6 0 10 4 10 10v42c0 6 -4 10 -10 10h-195c-6 0 -10 -4 -10 -10zM35 146v-42c0 -6 4 -10 10 -10h195c6 0 10 4 10 10v42c0 6 -4 10 -10 10h-195c-6 0 -10 -4 -10 -10zM0 0v540c0 7 9 10 18 10s17 -3 17 -10v-311c0 -6 4 -10 10 -10
h195c6 0 10 4 10 10v83c0 7 9 10 18 10s17 -3 17 -10v-271c0 -6 -4 -10 -10 -10h-230c-6 0 -10 -4 -10 -10v-42c0 -6 4 -10 10 -10h230c6 0 10 -4 10 -10v-271c0 -7 -8 -10 -17 -10s-18 3 -18 10v83c0 6 -4 10 -10 10h-195c-6 0 -10 -4 -10 -10v-311c0 -7 -8 -10 -17 -10
s-18 3 -18 10v540z" fill="currentColor"/>
</g>
<a style="color:inherit;" xlink:href="textedit:///home/johannes/common-lisp/setzkasten/lilypond-export/b1-c38-m1-e-orig.ly:126:43:44">
<g transform="translate(46.4156, 8.0000)">
<path transform="scale(0.0040, -0.0040)" d="M73 54c-1 -2 -2 -4 -2 -6s1 -4 2 -6l91 -129c2 -3 5 -4 8 -4s7 1 9 4l23 33c1 2 2 4 2 6s-1 4 -2 6l-91 129c-2 3 -5 4 -8 4s-6 -1 -8 -4zM2 -6c-1 2 -2 4 -2 6s1 4 2 6l128 182c2 3 6 4 9 4s6 -1 8 -4l128 -182c1 -2 2 -4 2 -6s-1 -4 -2 -6l-128 -182c-2 -3 -5 -4 -8 -4
s-7 1 -9 4z" fill="currentColor"/>
</g>
</a>
<g transform="translate(38.6976, 12.5000)">
<text font-family="serif" font-size="2.2001" text-anchor="start" fill="currentColor">
<tspan>più di quinta</tspan>
</text>
</g>
<g transform="translate(39.9268, 15.5000)">
<text font-family="serif" font-size="2.2001" text-anchor="start" fill="currentColor">
<tspan>imperfetta</tspan>
</text>
</g>
<g transform="translate(39.3976, 18.5000)">
<text font-family="serif" font-size="2.2001" text-anchor="start" fill="currentColor">
<tspan>accidentale</tspan>
</text>
</g>
<g transform="translate(39.3634, 21.5000)">
<text font-family="serif" font-size="2.2001" text-anchor="start" fill="currentColor">
<tspan>incomposto</tspan>
</text>
</g>
<g transform="translate(56.5013, 8.0000)">
<line stroke-linejoin="round" stroke-linecap="round" stroke-width="0.1000" stroke="currentColor" x1="0.0500" y1="0" x2="17.2940" y2="0"/>
</g>
<g transform="translate(56.5013, 7.0000)">
<line stroke-linejoin="round" stroke-linecap="round" stroke-width="0.1000" stroke="currentColor" x1="0.0500" y1="0" x2="17.2940" y2="0"/>
</g>
<g transform="translate(56.5013, 6.0000)">
<line stroke-linejoin="round" stroke-linecap="round" stroke-width="0.1000" stroke="currentColor" x1="0.0500" y1="0" x2="17.2940" y2="0"/>
</g>
<g transform="translate(56.5013, 5.0000)">
<line stroke-linejoin="round" stroke-linecap="round" stroke-width="0.1000" stroke="currentColor" x1="0.0500" y1="0" x2="17.2940" y2="0"/>
</g>
<g transform="translate(56.5013, 4.0000)">
<line stroke-linejoin="round" stroke-linecap="round" stroke-width="0.1000" stroke="currentColor" x1="0.0500" y1="0" x2="17.2940" y2="0"/>
</g>
<a style="color:inherit;" xlink:href="textedit:///home/johannes/common-lisp/setzkasten/lilypond-export/b1-c38-m1-e-orig.ly:169:71:72">
<g transform="translate(71.5365, 5.5000)">
<path transform="scale(0.0040, -0.0040)" d="M73 54c-1 -2 -2 -4 -2 -6s1 -4 2 -6l91 -129c2 -3 5 -4 8 -4s7 1 9 4l23 33c1 2 2 4 2 6s-1 4 -2 6l-91 129c-2 3 -5 4 -8 4s-6 -1 -8 -4zM2 -6c-1 2 -2 4 -2 6s1 4 2 6l128 182c2 3 6 4 9 4s6 -1 8 -4l128 -182c1 -2 2 -4 2 -6s-1 -4 -2 -6l-128 -182c-2 -3 -5 -4 -8 -4
s-7 1 -9 4z" fill="currentColor"/>
</g>
</a>
<a style="color:inherit;" xlink:href="textedit:///home/johannes/common-lisp/setzkasten/lilypond-export/b1-c38-m1-e-orig.ly:169:50:51">
<g transform="translate(64.6101, 7.0000)">
<path transform="scale(0.0040, -0.0040)" d="M73 54c-1 -2 -2 -4 -2 -6s1 -4 2 -6l91 -129c2 -3 5 -4 8 -4s7 1 9 4l23 33c1 2 2 4 2 6s-1 4 -2 6l-91 129c-2 3 -5 4 -8 4s-6 -1 -8 -4zM2 -6c-1 2 -2 4 -2 6s1 4 2 6l128 182c2 3 6 4 9 4s6 -1 8 -4l128 -182c1 -2 2 -4 2 -6s-1 -4 -2 -6l-128 -182c-2 -3 -5 -4 -8 -4
s-7 1 -9 4z" fill="currentColor"/>
</g>
</a>
<a style="color:inherit;" xlink:href="textedit:///home/johannes/common-lisp/setzkasten/lilypond-export/b1-c38-m1-e-orig.ly:169:55:56">
<g transform="translate(66.9189, 6.5000)">
<path transform="scale(0.0040, -0.0040)" d="M73 54c-1 -2 -2 -4 -2 -6s1 -4 2 -6l91 -129c2 -3 5 -4 8 -4s7 1 9 4l23 33c1 2 2 4 2 6s-1 4 -2 6l-91 129c-2 3 -5 4 -8 4s-6 -1 -8 -4zM2 -6c-1 2 -2 4 -2 6s1 4 2 6l128 182c2 3 6 4 9 4s6 -1 8 -4l128 -182c1 -2 2 -4 2 -6s-1 -4 -2 -6l-128 -182c-2 -3 -5 -4 -8 -4
s-7 1 -9 4z" fill="currentColor"/>
</g>
</a>
<a style="color:inherit;" xlink:href="textedit:///home/johannes/common-lisp/setzkasten/lilypond-export/b1-c38-m1-e-orig.ly:169:60:61">
<g transform="translate(69.2277, 6.0000)">
<path transform="scale(0.0040, -0.0040)" d="M73 54c-1 -2 -2 -4 -2 -6s1 -4 2 -6l91 -129c2 -3 5 -4 8 -4s7 1 9 4l23 33c1 2 2 4 2 6s-1 4 -2 6l-91 129c-2 3 -5 4 -8 4s-6 -1 -8 -4zM2 -6c-1 2 -2 4 -2 6s1 4 2 6l128 182c2 3 6 4 9 4s6 -1 8 -4l128 -182c1 -2 2 -4 2 -6s-1 -4 -2 -6l-128 -182c-2 -3 -5 -4 -8 -4
s-7 1 -9 4z" fill="currentColor"/>
</g>
</a>
<a style="color:inherit;" xlink:href="textedit:///home/johannes/common-lisp/setzkasten/lilypond-export/b1-c38-m1-e-orig.ly:169:74:75">
<g transform="translate(72.0909, 3.5000)">
<path transform="scale(0.0045, -0.0045)" d="M-50 0c0 28 22 50 50 50s50 -22 50 -50s-22 -50 -50 -50s-50 22 -50 50z" fill="currentColor"/>
</g>
</a>
<a style="color:inherit;" xlink:href="textedit:///home/johannes/common-lisp/setzkasten/lilypond-export/b1-c38-m1-e-orig.ly:169:43:44">
<g transform="translate(62.3013, 7.5000)">
<path transform="scale(0.0040, -0.0040)" d="M73 54c-1 -2 -2 -4 -2 -6s1 -4 2 -6l91 -129c2 -3 5 -4 8 -4s7 1 9 4l23 33c1 2 2 4 2 6s-1 4 -2 6l-91 129c-2 3 -5 4 -8 4s-6 -1 -8 -4zM2 -6c-1 2 -2 4 -2 6s1 4 2 6l128 182c2 3 6 4 9 4s6 -1 8 -4l128 -182c1 -2 2 -4 2 -6s-1 -4 -2 -6l-128 -182c-2 -3 -5 -4 -8 -4
s-7 1 -9 4z" fill="currentColor"/>
</g>
</a>
<g transform="translate(57.3013, 6.0000)">
<path transform="scale(0.0040, -0.0040)" d="M35 -104v-42c0 -6 4 -10 10 -10h195c6 0 10 4 10 10v42c0 6 -4 10 -10 10h-195c-6 0 -10 -4 -10 -10zM35 146v-42c0 -6 4 -10 10 -10h195c6 0 10 4 10 10v42c0 6 -4 10 -10 10h-195c-6 0 -10 -4 -10 -10zM0 0v540c0 7 9 10 18 10s17 -3 17 -10v-311c0 -6 4 -10 10 -10
h195c6 0 10 4 10 10v83c0 7 9 10 18 10s17 -3 17 -10v-271c0 -6 -4 -10 -10 -10h-230c-6 0 -10 -4 -10 -10v-42c0 -6 4 -10 10 -10h230c6 0 10 -4 10 -10v-271c0 -7 -8 -10 -17 -10s-18 3 -18 10v83c0 6 -4 10 -10 10h-195c-6 0 -10 -4 -10 -10v-311c0 -7 -8 -10 -17 -10
s-18 3 -18 10v540z" fill="currentColor"/>
</g>
<a style="color:inherit;" xlink:href="textedit:///home/johannes/common-lisp/setzkasten/lilypond-export/b1-c38-m1-e-orig.ly:167:16:17">
</a>
<g transform="translate(60.8513, 7.5000)">
<path transform="scale(0.0040, -0.0040)" d="M216 -312c0 -10 -8 -19 -18 -19s-19 9 -19 19v145l-83 -31v-158c0 -10 -9 -19 -19 -19s-18 9 -18 19v145l-32 -12c-2 -1 -5 -1 -7 -1c-11 0 -20 9 -20 20v60c0 8 5 16 13 19l46 16v160l-32 -11c-2 -1 -5 -1 -7 -1c-11 0 -20 9 -20 20v60c0 8 5 15 13 18l46 17v158
c0 10 8 19 18 19s19 -9 19 -19v-145l83 31v158c0 10 9 19 19 19s18 -9 18 -19v-145l32 12c2 1 5 1 7 1c11 0 20 -9 20 -20v-60c0 -8 -5 -16 -13 -19l-46 -16v-160l32 11c2 1 5 1 7 1c11 0 20 -9 20 -20v-60c0 -8 -5 -15 -13 -18l-46 -17v-158zM96 65v-160l83 30v160z" fill="currentColor"/>
</g>
<g transform="translate(58.0465, 12.0000)">
<text font-family="serif" font-size="2.2001" text-anchor="start" fill="currentColor">
<tspan>più di quinta</tspan>
</text>
</g>
<g transform="translate(59.2756, 15.0000)">
<text font-family="serif" font-size="2.2001" text-anchor="start" fill="currentColor">
<tspan>imperfetta</tspan>
</text>
</g>
<g transform="translate(58.7464, 18.0000)">
<text font-family="serif" font-size="2.2001" text-anchor="start" fill="currentColor">
<tspan>accidentale</tspan>
</text>
</g>
<g transform="translate(59.7878, 21.0000)">
<text font-family="serif" font-size="2.2001" text-anchor="start" fill="currentColor">
<tspan>composto</tspan>
</text>
</g>
<g transform="translate(78.9783, 8.0000)">
<line stroke-linejoin="round" stroke-linecap="round" stroke-width="0.1000" stroke="currentColor" x1="0.0500" y1="0" x2="11.0376" y2="0"/>
</g>
<g transform="translate(78.9783, 7.0000)">
<line stroke-linejoin="round" stroke-linecap="round" stroke-width="0.1000" stroke="currentColor" x1="0.0500" y1="0" x2="11.0376" y2="0"/>
</g>
<g transform="translate(78.9783, 6.0000)">
<line stroke-linejoin="round" stroke-linecap="round" stroke-width="0.1000" stroke="currentColor" x1="0.0500" y1="0" x2="11.0376" y2="0"/>
</g>
<g transform="translate(78.9783, 5.0000)">
<line stroke-linejoin="round" stroke-linecap="round" stroke-width="0.1000" stroke="currentColor" x1="0.0500" y1="0" x2="11.0376" y2="0"/>
</g>
<g transform="translate(78.9783, 4.0000)">
<line stroke-linejoin="round" stroke-linecap="round" stroke-width="0.1000" stroke="currentColor" x1="0.0500" y1="0" x2="11.0376" y2="0"/>
</g>
<g transform="translate(86.6071, 6.5000)">
<path transform="scale(0.0040, -0.0040)" d="M27 41l-1 -66v-11c0 -22 1 -44 4 -66c45 38 93 80 93 139c0 33 -14 67 -43 67c-31 0 -52 -30 -53 -63zM-15 -138l-12 595c8 5 18 8 27 8s19 -3 27 -8l-7 -345c25 21 58 34 91 34c52 0 89 -48 89 -102c0 -80 -86 -117 -147 -169c-15 -13 -24 -38 -45 -38
c-13 0 -23 11 -23 25z" fill="currentColor"/>
</g>
<a style="color:inherit;" xlink:href="textedit:///home/johannes/common-lisp/setzkasten/lilypond-export/b1-c38-m1-e-orig.ly:212:58:59">
<g transform="translate(88.3115, 4.5000)">
<path transform="scale(0.0045, -0.0045)" d="M-50 0c0 28 22 50 50 50s50 -22 50 -50s-22 -50 -50 -50s-50 22 -50 50z" fill="currentColor"/>
</g>
</a>
<a style="color:inherit;" xlink:href="textedit:///home/johannes/common-lisp/setzkasten/lilypond-export/b1-c38-m1-e-orig.ly:212:54:55">
<g transform="translate(87.7571, 6.5000)">
<path transform="scale(0.0040, -0.0040)" d="M73 54c-1 -2 -2 -4 -2 -6s1 -4 2 -6l91 -129c2 -3 5 -4 8 -4s7 1 9 4l23 33c1 2 2 4 2 6s-1 4 -2 6l-91 129c-2 3 -5 4 -8 4s-6 -1 -8 -4zM2 -6c-1 2 -2 4 -2 6s1 4 2 6l128 182c2 3 6 4 9 4s6 -1 8 -4l128 -182c1 -2 2 -4 2 -6s-1 -4 -2 -6l-128 -182c-2 -3 -5 -4 -8 -4
s-7 1 -9 4z" fill="currentColor"/>
</g>
</a>
<a style="color:inherit;" xlink:href="textedit:///home/johannes/common-lisp/setzkasten/lilypond-export/b1-c38-m1-e-orig.ly:212:43:44">
<g transform="translate(84.7783, 4.5000)">
<path transform="scale(0.0040, -0.0040)" d="M73 54c-1 -2 -2 -4 -2 -6s1 -4 2 -6l91 -129c2 -3 5 -4 8 -4s7 1 9 4l23 33c1 2 2 4 2 6s-1 4 -2 6l-91 129c-2 3 -5 4 -8 4s-6 -1 -8 -4zM2 -6c-1 2 -2 4 -2 6s1 4 2 6l128 182c2 3 6 4 9 4s6 -1 8 -4l128 -182c1 -2 2 -4 2 -6s-1 -4 -2 -6l-128 -182c-2 -3 -5 -4 -8 -4
s-7 1 -9 4z" fill="currentColor"/>
</g>
</a>
<g transform="translate(79.7783, 6.0000)">
<path transform="scale(0.0040, -0.0040)" d="M35 -104v-42c0 -6 4 -10 10 -10h195c6 0 10 4 10 10v42c0 6 -4 10 -10 10h-195c-6 0 -10 -4 -10 -10zM35 146v-42c0 -6 4 -10 10 -10h195c6 0 10 4 10 10v42c0 6 -4 10 -10 10h-195c-6 0 -10 -4 -10 -10zM0 0v540c0 7 9 10 18 10s17 -3 17 -10v-311c0 -6 4 -10 10 -10
h195c6 0 10 4 10 10v83c0 7 9 10 18 10s17 -3 17 -10v-271c0 -6 -4 -10 -10 -10h-230c-6 0 -10 -4 -10 -10v-42c0 -6 4 -10 10 -10h230c6 0 10 -4 10 -10v-271c0 -7 -8 -10 -17 -10s-18 3 -18 10v83c0 6 -4 10 -10 10h-195c-6 0 -10 -4 -10 -10v-311c0 -7 -8 -10 -17 -10
s-18 3 -18 10v540z" fill="currentColor"/>
</g>
<a style="color:inherit;" xlink:href="textedit:///home/johannes/common-lisp/setzkasten/lilypond-export/b1-c38-m1-e-orig.ly:210:16:17">
</a>
<g transform="translate(77.3953, 12.0000)">
<text font-family="serif" font-size="2.2001" text-anchor="start" fill="currentColor">
<tspan>più di quinta</tspan>
</text>
</g>
<g transform="translate(78.6244, 15.0000)">
<text font-family="serif" font-size="2.2001" text-anchor="start" fill="currentColor">
<tspan>imperfetta</tspan>
</text>
</g>
<g transform="translate(78.0952, 18.0000)">
<text font-family="serif" font-size="2.2001" text-anchor="start" fill="currentColor">
<tspan>accidentale</tspan>
</text>
</g>
<g transform="translate(78.0611, 21.0000)">
<text font-family="serif" font-size="2.2001" text-anchor="start" fill="currentColor">
<tspan>incomposto</tspan>
</text>
</g>
<g transform="translate(95.1989, 8.0000)">
<line stroke-linejoin="round" stroke-linecap="round" stroke-width="0.1000" stroke="currentColor" x1="0.0500" y1="0" x2="17.2940" y2="0"/>
</g>
<g transform="translate(95.1989, 7.0000)">
<line stroke-linejoin="round" stroke-linecap="round" stroke-width="0.1000" stroke="currentColor" x1="0.0500" y1="0" x2="17.2940" y2="0"/>
</g>
<g transform="translate(95.1989, 6.0000)">
<line stroke-linejoin="round" stroke-linecap="round" stroke-width="0.1000" stroke="currentColor" x1="0.0500" y1="0" x2="17.2940" y2="0"/>
</g>
<g transform="translate(95.1989, 5.0000)">
<line stroke-linejoin="round" stroke-linecap="round" stroke-width="0.1000" stroke="currentColor" x1="0.0500" y1="0" x2="17.2940" y2="0"/>
</g>
<g transform="translate(95.1989, 4.0000)">
<line stroke-linejoin="round" stroke-linecap="round" stroke-width="0.1000" stroke="currentColor" x1="0.0500" y1="0" x2="17.2940" y2="0"/>
</g>
<a style="color:inherit;" xlink:href="textedit:///home/johannes/common-lisp/setzkasten/lilypond-export/b1-c38-m1-e-orig.ly:255:61:62">
<g transform="translate(107.9253, 6.5000)">
<path transform="scale(0.0040, -0.0040)" d="M73 54c-1 -2 -2 -4 -2 -6s1 -4 2 -6l91 -129c2 -3 5 -4 8 -4s7 1 9 4l23 33c1 2 2 4 2 6s-1 4 -2 6l-91 129c-2 3 -5 4 -8 4s-6 -1 -8 -4zM2 -6c-1 2 -2 4 -2 6s1 4 2 6l128 182c2 3 6 4 9 4s6 -1 8 -4l128 -182c1 -2 2 -4 2 -6s-1 -4 -2 -6l-128 -182c-2 -3 -5 -4 -8 -4
s-7 1 -9 4z" fill="currentColor"/>
</g>
</a>
<a style="color:inherit;" xlink:href="textedit:///home/johannes/common-lisp/setzkasten/lilypond-export/b1-c38-m1-e-orig.ly:255:49:50">
<g transform="translate(103.3077, 5.5000)">
<path transform="scale(0.0040, -0.0040)" d="M73 54c-1 -2 -2 -4 -2 -6s1 -4 2 -6l91 -129c2 -3 5 -4 8 -4s7 1 9 4l23 33c1 2 2 4 2 6s-1 4 -2 6l-91 129c-2 3 -5 4 -8 4s-6 -1 -8 -4zM2 -6c-1 2 -2 4 -2 6s1 4 2 6l128 182c2 3 6 4 9 4s6 -1 8 -4l128 -182c1 -2 2 -4 2 -6s-1 -4 -2 -6l-128 -182c-2 -3 -5 -4 -8 -4
s-7 1 -9 4z" fill="currentColor"/>
</g>
</a>
<a style="color:inherit;" xlink:href="textedit:///home/johannes/common-lisp/setzkasten/lilypond-export/b1-c38-m1-e-orig.ly:255:55:56">
<g transform="translate(105.6165, 6.0000)">
<path transform="scale(0.0040, -0.0040)" d="M73 54c-1 -2 -2 -4 -2 -6s1 -4 2 -6l91 -129c2 -3 5 -4 8 -4s7 1 9 4l23 33c1 2 2 4 2 6s-1 4 -2 6l-91 129c-2 3 -5 4 -8 4s-6 -1 -8 -4zM2 -6c-1 2 -2 4 -2 6s1 4 2 6l128 182c2 3 6 4 9 4s6 -1 8 -4l128 -182c1 -2 2 -4 2 -6s-1 -4 -2 -6l-128 -182c-2 -3 -5 -4 -8 -4
s-7 1 -9 4z" fill="currentColor"/>
</g>
</a>
<a style="color:inherit;" xlink:href="textedit:///home/johannes/common-lisp/setzkasten/lilypond-export/b1-c38-m1-e-orig.ly:255:71:72">
<g transform="translate(110.2341, 7.0000)">
<path transform="scale(0.0040, -0.0040)" d="M73 54c-1 -2 -2 -4 -2 -6s1 -4 2 -6l91 -129c2 -3 5 -4 8 -4s7 1 9 4l23 33c1 2 2 4 2 6s-1 4 -2 6l-91 129c-2 3 -5 4 -8 4s-6 -1 -8 -4zM2 -6c-1 2 -2 4 -2 6s1 4 2 6l128 182c2 3 6 4 9 4s6 -1 8 -4l128 -182c1 -2 2 -4 2 -6s-1 -4 -2 -6l-128 -182c-2 -3 -5 -4 -8 -4
s-7 1 -9 4z" fill="currentColor"/>
</g>
</a>
<a style="color:inherit;" xlink:href="textedit:///home/johannes/common-lisp/setzkasten/lilypond-export/b1-c38-m1-e-orig.ly:255:73:74">
<g transform="translate(110.7885, 5.5000)">
<path transform="scale(0.0045, -0.0045)" d="M-50 0c0 28 22 50 50 50s50 -22 50 -50s-22 -50 -50 -50s-50 22 -50 50z" fill="currentColor"/>
</g>
</a>
<a style="color:inherit;" xlink:href="textedit:///home/johannes/common-lisp/setzkasten/lilypond-export/b1-c38-m1-e-orig.ly:255:43:44">
<g transform="translate(100.9989, 5.0000)">
<path transform="scale(0.0040, -0.0040)" d="M73 54c-1 -2 -2 -4 -2 -6s1 -4 2 -6l91 -129c2 -3 5 -4 8 -4s7 1 9 4l23 33c1 2 2 4 2 6s-1 4 -2 6l-91 129c-2 3 -5 4 -8 4s-6 -1 -8 -4zM2 -6c-1 2 -2 4 -2 6s1 4 2 6l128 182c2 3 6 4 9 4s6 -1 8 -4l128 -182c1 -2 2 -4 2 -6s-1 -4 -2 -6l-128 -182c-2 -3 -5 -4 -8 -4
s-7 1 -9 4z" fill="currentColor"/>
</g>
</a>
<g transform="translate(95.9989, 6.0000)">
<path transform="scale(0.0040, -0.0040)" d="M35 -104v-42c0 -6 4 -10 10 -10h195c6 0 10 4 10 10v42c0 6 -4 10 -10 10h-195c-6 0 -10 -4 -10 -10zM35 146v-42c0 -6 4 -10 10 -10h195c6 0 10 4 10 10v42c0 6 -4 10 -10 10h-195c-6 0 -10 -4 -10 -10zM0 0v540c0 7 9 10 18 10s17 -3 17 -10v-311c0 -6 4 -10 10 -10
h195c6 0 10 4 10 10v83c0 7 9 10 18 10s17 -3 17 -10v-271c0 -6 -4 -10 -10 -10h-230c-6 0 -10 -4 -10 -10v-42c0 -6 4 -10 10 -10h230c6 0 10 -4 10 -10v-271c0 -7 -8 -10 -17 -10s-18 3 -18 10v83c0 6 -4 10 -10 10h-195c-6 0 -10 -4 -10 -10v-311c0 -7 -8 -10 -17 -10
s-18 3 -18 10v540z" fill="currentColor"/>
</g>
<a style="color:inherit;" xlink:href="textedit:///home/johannes/common-lisp/setzkasten/lilypond-export/b1-c38-m1-e-orig.ly:253:16:17">
</a>
<g transform="translate(96.7441, 12.0000)">
<text font-family="serif" font-size="2.2001" text-anchor="start" fill="currentColor">
<tspan>più di quinta</tspan>
</text>
</g>
<g transform="translate(97.9732, 15.0000)">
<text font-family="serif" font-size="2.2001" text-anchor="start" fill="currentColor">
<tspan>imperfetta</tspan>
</text>
</g>
<g transform="translate(97.4440, 18.0000)">
<text font-family="serif" font-size="2.2001" text-anchor="start" fill="currentColor">
<tspan>accidentale</tspan>
</text>
</g>
<g transform="translate(98.4854, 21.0000)">
<text font-family="serif" font-size="2.2001" text-anchor="start" fill="currentColor">
<tspan>composto</tspan>
</text>
</g>
<g transform="translate(118.0109, 8.0000)">
<line stroke-linejoin="round" stroke-linecap="round" stroke-width="0.1000" stroke="currentColor" x1="0.0500" y1="0" x2="10.3676" y2="0"/>
</g>
<g transform="translate(118.0109, 7.0000)">
<line stroke-linejoin="round" stroke-linecap="round" stroke-width="0.1000" stroke="currentColor" x1="0.0500" y1="0" x2="10.3676" y2="0"/>
</g>
<g transform="translate(118.0109, 6.0000)">
<line stroke-linejoin="round" stroke-linecap="round" stroke-width="0.1000" stroke="currentColor" x1="0.0500" y1="0" x2="10.3676" y2="0"/>
</g>
<g transform="translate(118.0109, 5.0000)">
<line stroke-linejoin="round" stroke-linecap="round" stroke-width="0.1000" stroke="currentColor" x1="0.0500" y1="0" x2="10.3676" y2="0"/>
</g>
<g transform="translate(118.0109, 4.0000)">
<line stroke-linejoin="round" stroke-linecap="round" stroke-width="0.1000" stroke="currentColor" x1="0.0500" y1="0" x2="10.3676" y2="0"/>
</g>
<a style="color:inherit;" xlink:href="textedit:///home/johannes/common-lisp/setzkasten/lilypond-export/b1-c38-m1-e-orig.ly:298:56:57">
<g transform="translate(126.6741, 5.5000)">
<path transform="scale(0.0045, -0.0045)" d="M-50 0c0 28 22 50 50 50s50 -22 50 -50s-22 -50 -50 -50s-50 22 -50 50z" fill="currentColor"/>
</g>
</a>
<a style="color:inherit;" xlink:href="textedit:///home/johannes/common-lisp/setzkasten/lilypond-export/b1-c38-m1-e-orig.ly:298:54:55">
<g transform="translate(126.1197, 7.5000)">
<path transform="scale(0.0040, -0.0040)" d="M73 54c-1 -2 -2 -4 -2 -6s1 -4 2 -6l91 -129c2 -3 5 -4 8 -4s7 1 9 4l23 33c1 2 2 4 2 6s-1 4 -2 6l-91 129c-2 3 -5 4 -8 4s-6 -1 -8 -4zM2 -6c-1 2 -2 4 -2 6s1 4 2 6l128 182c2 3 6 4 9 4s6 -1 8 -4l128 -182c1 -2 2 -4 2 -6s-1 -4 -2 -6l-128 -182c-2 -3 -5 -4 -8 -4
s-7 1 -9 4z" fill="currentColor"/>
</g>
</a>
<a style="color:inherit;" xlink:href="textedit:///home/johannes/common-lisp/setzkasten/lilypond-export/b1-c38-m1-e-orig.ly:296:16:17">
</a>
<g transform="translate(118.8109, 6.0000)">
<path transform="scale(0.0040, -0.0040)" d="M35 -104v-42c0 -6 4 -10 10 -10h195c6 0 10 4 10 10v42c0 6 -4 10 -10 10h-195c-6 0 -10 -4 -10 -10zM35 146v-42c0 -6 4 -10 10 -10h195c6 0 10 4 10 10v42c0 6 -4 10 -10 10h-195c-6 0 -10 -4 -10 -10zM0 0v540c0 7 9 10 18 10s17 -3 17 -10v-311c0 -6 4 -10 10 -10
h195c6 0 10 4 10 10v83c0 7 9 10 18 10s17 -3 17 -10v-271c0 -6 -4 -10 -10 -10h-230c-6 0 -10 -4 -10 -10v-42c0 -6 4 -10 10 -10h230c6 0 10 -4 10 -10v-271c0 -7 -8 -10 -17 -10s-18 3 -18 10v83c0 6 -4 10 -10 10h-195c-6 0 -10 -4 -10 -10v-311c0 -7 -8 -10 -17 -10
s-18 3 -18 10v540z" fill="currentColor"/>
</g>
<a style="color:inherit;" xlink:href="textedit:///home/johannes/common-lisp/setzkasten/lilypond-export/b1-c38-m1-e-orig.ly:298:43:44">
<g transform="translate(123.8109, 5.5000)">
<path transform="scale(0.0040, -0.0040)" d="M73 54c-1 -2 -2 -4 -2 -6s1 -4 2 -6l91 -129c2 -3 5 -4 8 -4s7 1 9 4l23 33c1 2 2 4 2 6s-1 4 -2 6l-91 129c-2 3 -5 4 -8 4s-6 -1 -8 -4zM2 -6c-1 2 -2 4 -2 6s1 4 2 6l128 182c2 3 6 4 9 4s6 -1 8 -4l128 -182c1 -2 2 -4 2 -6s-1 -4 -2 -6l-128 -182c-2 -3 -5 -4 -8 -4
s-7 1 -9 4z" fill="currentColor"/>
</g>
</a>
<g transform="translate(116.0929, 12.0000)">
<text font-family="serif" font-size="2.2001" text-anchor="start" fill="currentColor">
<tspan>più di quinta</tspan>
</text>
</g>
<g transform="translate(117.3221, 15.0000)">
<text font-family="serif" font-size="2.2001" text-anchor="start" fill="currentColor">
<tspan>imperfetta</tspan>
</text>
</g>
<g transform="translate(116.7928, 18.0000)">
<text font-family="serif" font-size="2.2001" text-anchor="start" fill="currentColor">
<tspan>accidentale</tspan>
</text>
</g>
<g transform="translate(116.7587, 21.0000)">
<text font-family="serif" font-size="2.2001" text-anchor="start" fill="currentColor">
<tspan>incomposto</tspan>
</text>
</g>
</svg>
