<svg xmlns="http://www.w3.org/2000/svg" xmlns:xlink="http://www.w3.org/1999/xlink" version="1.2" width="201.84mm" height="57.40mm" viewBox="0.0000 -2.3640 114.8581 32.6637">
<style type="text/css">
<![CDATA[
tspan { white-space: pre; }
]]>
</style>
<g transform="translate(0.0000, -0.0000)">
<text font-family="serif" font-size="3.1115" text-anchor="start" fill="currentColor">
<tspan>Dimostratione della mano cromatica con li semitoni maggiori ascendenti</tspan>
</text>
</g>
<g transform="translate(2.0615, 6.0000)">
<text font-family="serif" font-size="2.2001" text-anchor="start" fill="currentColor">
<tspan>Alamire</tspan>
</text>
</g>
<g transform="translate(1.9929, 14.0000)">
<line stroke-linejoin="round" stroke-linecap="round" stroke-width="0.1000" stroke="currentColor" x1="0.0500" y1="0" x2="8.9120" y2="0"/>
</g>
<g transform="translate(1.9929, 13.0000)">
<line stroke-linejoin="round" stroke-linecap="round" stroke-width="0.1000" stroke="currentColor" x1="0.0500" y1="0" x2="8.9120" y2="0"/>
</g>
<g transform="translate(1.9929, 12.0000)">
<line stroke-linejoin="round" stroke-linecap="round" stroke-width="0.1000" stroke="currentColor" x1="0.0500" y1="0" x2="8.9120" y2="0"/>
</g>
<g transform="translate(1.9929, 11.0000)">
<line stroke-linejoin="round" stroke-linecap="round" stroke-width="0.1000" stroke="currentColor" x1="0.0500" y1="0" x2="8.9120" y2="0"/>
</g>
<g transform="translate(1.9929, 10.0000)">
<line stroke-linejoin="round" stroke-linecap="round" stroke-width="0.1000" stroke="currentColor" x1="0.0500" y1="0" x2="8.9120" y2="0"/>
</g>
<a style="color:inherit;" xlink:href="textedit:///home/johannes/common-lisp/setzkasten/lilypond-export/b1-c5-m3-d.ly:42:16:17">
</a>
<g transform="translate(2.7929, 11.0000)">
<path transform="scale(0.0040, -0.0040)" d="M557 -125c0 28 23 51 51 51s51 -23 51 -51s-23 -51 -51 -51s-51 23 -51 51zM557 125c0 28 23 51 51 51s51 -23 51 -51s-23 -51 -51 -51s-51 23 -51 51zM232 263c172 0 293 -88 293 -251c0 -263 -263 -414 -516 -521c-3 -3 -6 -4 -9 -4c-7 0 -13 6 -13 13c0 3 1 6 4 9
c202 118 412 265 412 493c0 120 -63 235 -171 235c-74 0 -129 -54 -154 -126c11 5 22 8 34 8c55 0 100 -45 100 -100c0 -58 -44 -106 -100 -106c-60 0 -112 47 -112 106c0 133 102 244 232 244z" fill="currentColor"/>
</g>
<a style="color:inherit;" xlink:href="textedit:///home/johannes/common-lisp/setzkasten/lilypond-export/b1-c5-m3-d.ly:44:43:44">
<g transform="translate(7.7929, 13.5000)">
<path transform="scale(0.0040, -0.0040)" d="M213 112c-50 0 -69 -43 -69 -88c0 -77 57 -136 134 -136c50 0 69 43 69 88c0 77 -57 136 -134 136zM491 0c0 -43 -34 -75 -72 -96c-53 -29 -114 -40 -174 -40s-120 11 -173 40c-38 21 -72 53 -72 96s34 75 72 96c53 29 113 40 173 40s121 -11 174 -40
c38 -21 72 -53 72 -96z" fill="currentColor"/>
</g>
</a>
<g transform="translate(0.1836, 18.0000)">
<text font-family="serif" font-size="2.2001" text-anchor="start" fill="currentColor">
<tspan>per natura,</tspan>
</text>
</g>
<g transform="translate(3.3760, 21.0000)">
<text font-family="serif" font-size="2.2001" text-anchor="start" fill="currentColor">
<tspan>per ♭,</tspan>
</text>
</g>
<g transform="translate(3.4614, 24.0000)">
<text font-family="serif" font-size="2.2001" text-anchor="start" fill="currentColor">
<tspan>per ♮:</tspan>
</text>
</g>
<g transform="translate(1.1567, 27.0000)">
<text font-family="serif" font-size="2.2001" text-anchor="start" fill="currentColor">
<tspan>la, mi, re,</tspan>
</text>
</g>
<g transform="translate(1.2762, 30.0000)">
<text font-family="serif" font-size="2.2001" text-anchor="start" fill="currentColor">
<tspan>ut, fa, sol</tspan>
</text>
</g>
<g transform="translate(19.5407, 6.0000)">
<text font-family="serif" font-size="2.2001" text-anchor="start" fill="currentColor">
<tspan>Bfa♭mi</tspan>
</text>
</g>
<g transform="translate(17.2766, 14.0000)">
<line stroke-linejoin="round" stroke-linecap="round" stroke-width="0.1000" stroke="currentColor" x1="0.0500" y1="0" x2="12.0740" y2="0"/>
</g>
<g transform="translate(17.2766, 13.0000)">
<line stroke-linejoin="round" stroke-linecap="round" stroke-width="0.1000" stroke="currentColor" x1="0.0500" y1="0" x2="12.0740" y2="0"/>
</g>
<g transform="translate(17.2766, 12.0000)">
<line stroke-linejoin="round" stroke-linecap="round" stroke-width="0.1000" stroke="currentColor" x1="0.0500" y1="0" x2="12.0740" y2="0"/>
</g>
<g transform="translate(17.2766, 11.0000)">
<line stroke-linejoin="round" stroke-linecap="round" stroke-width="0.1000" stroke="currentColor" x1="0.0500" y1="0" x2="12.0740" y2="0"/>
</g>
<g transform="translate(17.2766, 10.0000)">
<line stroke-linejoin="round" stroke-linecap="round" stroke-width="0.1000" stroke="currentColor" x1="0.0500" y1="0" x2="12.0740" y2="0"/>
</g>
<a style="color:inherit;" xlink:href="textedit:///home/johannes/common-lisp/setzkasten/lilypond-export/b1-c5-m3-d.ly:94:59:60">
<g transform="translate(27.2196, 11.5000)">
<path transform="scale(0.0045, -0.0045)" d="M-50 0c0 28 22 50 50 50s50 -22 50 -50s-22 -50 -50 -50s-50 22 -50 50z" fill="currentColor"/>
</g>
</a>
<a style="color:inherit;" xlink:href="textedit:///home/johannes/common-lisp/setzkasten/lilypond-export/b1-c5-m3-d.ly:94:56:57">
<g transform="translate(26.2386, 13.0000)">
<path transform="scale(0.0040, -0.0040)" d="M213 112c-50 0 -69 -43 -69 -88c0 -77 57 -136 134 -136c50 0 69 43 69 88c0 77 -57 136 -134 136zM491 0c0 -43 -34 -75 -72 -96c-53 -29 -114 -40 -174 -40s-120 11 -173 40c-38 21 -72 53 -72 96s34 75 72 96c53 29 113 40 173 40s121 -11 174 -40
c38 -21 72 -53 72 -96z" fill="currentColor"/>
</g>
</a>
<g transform="translate(21.9266, 13.0000)">
<path transform="scale(0.0040, -0.0040)" d="M27 41l-1 -66v-11c0 -22 1 -44 4 -66c45 38 93 80 93 139c0 33 -14 67 -43 67c-31 0 -52 -30 -53 -63zM-15 -138l-12 595c8 5 18 8 27 8s19 -3 27 -8l-7 -345c25 21 58 34 91 34c52 0 89 -48 89 -102c0 -80 -86 -117 -147 -169c-15 -13 -24 -38 -45 -38
c-13 0 -23 11 -23 25z" fill="currentColor"/>
</g>
<a style="color:inherit;" xlink:href="textedit:///home/johannes/common-lisp/setzkasten/lilypond-export/b1-c5-m3-d.ly:92:16:17">
</a>
<g transform="translate(18.0766, 11.0000)">
<path transform="scale(0.0040, -0.0040)" d="M557 -125c0 28 23 51 51 51s51 -23 51 -51s-23 -51 -51 -51s-51 23 -51 51zM557 125c0 28 23 51 51 51s51 -23 51 -51s-23 -51 -51 -51s-51 23 -51 51zM232 263c172 0 293 -88 293 -251c0 -263 -263 -414 -516 -521c-3 -3 -6 -4 -9 -4c-7 0 -13 6 -13 13c0 3 1 6 4 9
c202 118 412 265 412 493c0 120 -63 235 -171 235c-74 0 -129 -54 -154 -126c11 5 22 8 34 8c55 0 100 -45 100 -100c0 -58 -44 -106 -100 -106c-60 0 -112 47 -112 106c0 133 102 244 232 244z" fill="currentColor"/>
</g>
<a style="color:inherit;" xlink:href="textedit:///home/johannes/common-lisp/setzkasten/lilypond-export/b1-c5-m3-d.ly:94:43:44">
<g transform="translate(23.0766, 13.0000)">
<path transform="scale(0.0040, -0.0040)" d="M213 112c-50 0 -69 -43 -69 -88c0 -77 57 -136 134 -136c50 0 69 43 69 88c0 77 -57 136 -134 136zM491 0c0 -43 -34 -75 -72 -96c-53 -29 -114 -40 -174 -40s-120 11 -173 40c-38 21 -72 53 -72 96s34 75 72 96c53 29 113 40 173 40s121 -11 174 -40
c38 -21 72 -53 72 -96z" fill="currentColor"/>
</g>
</a>
<g transform="translate(20.2407, 18.0000)">
<text font-family="serif" font-size="2.2001" text-anchor="start" fill="currentColor">
<tspan>per ♭,</tspan>
</text>
</g>
<g transform="translate(20.3260, 21.0000)">
<text font-family="serif" font-size="2.2001" text-anchor="start" fill="currentColor">
<tspan>per ♮:</tspan>
</text>
</g>
<g transform="translate(19.8310, 24.0000)">
<text font-family="serif" font-size="2.2001" text-anchor="start" fill="currentColor">
<tspan>fa, mi,</tspan>
</text>
</g>
<g transform="translate(16.3142, 27.0000)">
<text font-family="serif" font-size="2.2001" text-anchor="start" fill="currentColor">
<tspan>lo, sol, re, ut</tspan>
</text>
</g>
<g transform="translate(36.7981, 6.0000)">
<text font-family="serif" font-size="2.2001" text-anchor="start" fill="currentColor">
<tspan>B et C</tspan>
</text>
</g>
<g transform="translate(34.1754, 14.0000)">
<line stroke-linejoin="round" stroke-linecap="round" stroke-width="0.1000" stroke="currentColor" x1="0.0500" y1="0" x2="12.0740" y2="0"/>
</g>
<g transform="translate(34.1754, 13.0000)">
<line stroke-linejoin="round" stroke-linecap="round" stroke-width="0.1000" stroke="currentColor" x1="0.0500" y1="0" x2="12.0740" y2="0"/>
</g>
<g transform="translate(34.1754, 12.0000)">
<line stroke-linejoin="round" stroke-linecap="round" stroke-width="0.1000" stroke="currentColor" x1="0.0500" y1="0" x2="12.0740" y2="0"/>
</g>
<g transform="translate(34.1754, 11.0000)">
<line stroke-linejoin="round" stroke-linecap="round" stroke-width="0.1000" stroke="currentColor" x1="0.0500" y1="0" x2="12.0740" y2="0"/>
</g>
<g transform="translate(34.1754, 10.0000)">
<line stroke-linejoin="round" stroke-linecap="round" stroke-width="0.1000" stroke="currentColor" x1="0.0500" y1="0" x2="12.0740" y2="0"/>
</g>
<a style="color:inherit;" xlink:href="textedit:///home/johannes/common-lisp/setzkasten/lilypond-export/b1-c5-m3-d.ly:141:49:50">
<g transform="translate(43.1374, 12.5000)">
<path transform="scale(0.0040, -0.0040)" d="M213 112c-50 0 -69 -43 -69 -88c0 -77 57 -136 134 -136c50 0 69 43 69 88c0 77 -57 136 -134 136zM491 0c0 -43 -34 -75 -72 -96c-53 -29 -114 -40 -174 -40s-120 11 -173 40c-38 21 -72 53 -72 96s34 75 72 96c53 29 113 40 173 40s121 -11 174 -40
c38 -21 72 -53 72 -96z" fill="currentColor"/>
</g>
</a>
<a style="color:inherit;" xlink:href="textedit:///home/johannes/common-lisp/setzkasten/lilypond-export/b1-c5-m3-d.ly:139:16:17">
</a>
<g transform="translate(34.9754, 11.0000)">
<path transform="scale(0.0040, -0.0040)" d="M557 -125c0 28 23 51 51 51s51 -23 51 -51s-23 -51 -51 -51s-51 23 -51 51zM557 125c0 28 23 51 51 51s51 -23 51 -51s-23 -51 -51 -51s-51 23 -51 51zM232 263c172 0 293 -88 293 -251c0 -263 -263 -414 -516 -521c-3 -3 -6 -4 -9 -4c-7 0 -13 6 -13 13c0 3 1 6 4 9
c202 118 412 265 412 493c0 120 -63 235 -171 235c-74 0 -129 -54 -154 -126c11 5 22 8 34 8c55 0 100 -45 100 -100c0 -58 -44 -106 -100 -106c-60 0 -112 47 -112 106c0 133 102 244 232 244z" fill="currentColor"/>
</g>
<a style="color:inherit;" xlink:href="textedit:///home/johannes/common-lisp/setzkasten/lilypond-export/b1-c5-m3-d.ly:141:43:44">
<g transform="translate(39.9754, 13.0000)">
<path transform="scale(0.0040, -0.0040)" d="M213 112c-50 0 -69 -43 -69 -88c0 -77 57 -136 134 -136c50 0 69 43 69 88c0 77 -57 136 -134 136zM491 0c0 -43 -34 -75 -72 -96c-53 -29 -114 -40 -174 -40s-120 11 -173 40c-38 21 -72 53 -72 96s34 75 72 96c53 29 113 40 173 40s121 -11 174 -40
c38 -21 72 -53 72 -96z" fill="currentColor"/>
</g>
</a>
<g transform="translate(37.2590, 18.0000)">
<text font-family="serif" font-size="2.2001" text-anchor="start" fill="currentColor">
<tspan>per ♮,</tspan>
</text>
</g>
<g transform="translate(33.9130, 21.0000)">
<text font-family="serif" font-size="2.2001" text-anchor="start" fill="currentColor">
<tspan>per natura:</tspan>
</text>
</g>
<g transform="translate(34.4593, 24.0000)">
<text font-family="serif" font-size="2.2001" text-anchor="start" fill="currentColor">
<tspan>mi, fa, sol,</tspan>
</text>
</g>
<g transform="translate(35.5006, 27.0000)">
<text font-family="serif" font-size="2.2001" text-anchor="start" fill="currentColor">
<tspan>la, re, ut</tspan>
</text>
</g>
<g transform="translate(51.8404, 6.0000)">
<text font-family="serif" font-size="2.2001" text-anchor="start" fill="currentColor">
<tspan>Csolfaut</tspan>
</text>
</g>
<g transform="translate(50.1118, 14.0000)">
<line stroke-linejoin="round" stroke-linecap="round" stroke-width="0.1000" stroke="currentColor" x1="0.0500" y1="0" x2="12.7440" y2="0"/>
</g>
<g transform="translate(50.1118, 13.0000)">
<line stroke-linejoin="round" stroke-linecap="round" stroke-width="0.1000" stroke="currentColor" x1="0.0500" y1="0" x2="12.7440" y2="0"/>
</g>
<g transform="translate(50.1118, 12.0000)">
<line stroke-linejoin="round" stroke-linecap="round" stroke-width="0.1000" stroke="currentColor" x1="0.0500" y1="0" x2="12.7440" y2="0"/>
</g>
<g transform="translate(50.1118, 11.0000)">
<line stroke-linejoin="round" stroke-linecap="round" stroke-width="0.1000" stroke="currentColor" x1="0.0500" y1="0" x2="12.7440" y2="0"/>
</g>
<g transform="translate(50.1118, 10.0000)">
<line stroke-linejoin="round" stroke-linecap="round" stroke-width="0.1000" stroke="currentColor" x1="0.0500" y1="0" x2="12.7440" y2="0"/>
</g>
<g transform="translate(58.5939, 12.0000)">
<path transform="scale(0.0040, -0.0040)" d="M27 41l-1 -66v-11c0 -22 1 -44 4 -66c45 38 93 80 93 139c0 33 -14 67 -43 67c-31 0 -52 -30 -53 -63zM-15 -138l-12 595c8 5 18 8 27 8s19 -3 27 -8l-7 -345c25 21 58 34 91 34c52 0 89 -48 89 -102c0 -80 -86 -117 -147 -169c-15 -13 -24 -38 -45 -38
c-13 0 -23 11 -23 25z" fill="currentColor"/>
</g>
<a style="color:inherit;" xlink:href="textedit:///home/johannes/common-lisp/setzkasten/lilypond-export/b1-c5-m3-d.ly:188:48:49">
<g transform="translate(59.7439, 12.0000)">
<path transform="scale(0.0040, -0.0040)" d="M213 112c-50 0 -69 -43 -69 -88c0 -77 57 -136 134 -136c50 0 69 43 69 88c0 77 -57 136 -134 136zM491 0c0 -43 -34 -75 -72 -96c-53 -29 -114 -40 -174 -40s-120 11 -173 40c-38 21 -72 53 -72 96s34 75 72 96c53 29 113 40 173 40s121 -11 174 -40
c38 -21 72 -53 72 -96z" fill="currentColor"/>
</g>
</a>
<a style="color:inherit;" xlink:href="textedit:///home/johannes/common-lisp/setzkasten/lilypond-export/b1-c5-m3-d.ly:186:16:17">
</a>
<g transform="translate(50.9118, 11.0000)">
<path transform="scale(0.0040, -0.0040)" d="M557 -125c0 28 23 51 51 51s51 -23 51 -51s-23 -51 -51 -51s-51 23 -51 51zM557 125c0 28 23 51 51 51s51 -23 51 -51s-23 -51 -51 -51s-51 23 -51 51zM232 263c172 0 293 -88 293 -251c0 -263 -263 -414 -516 -521c-3 -3 -6 -4 -9 -4c-7 0 -13 6 -13 13c0 3 1 6 4 9
c202 118 412 265 412 493c0 120 -63 235 -171 235c-74 0 -129 -54 -154 -126c11 5 22 8 34 8c55 0 100 -45 100 -100c0 -58 -44 -106 -100 -106c-60 0 -112 47 -112 106c0 133 102 244 232 244z" fill="currentColor"/>
</g>
<a style="color:inherit;" xlink:href="textedit:///home/johannes/common-lisp/setzkasten/lilypond-export/b1-c5-m3-d.ly:188:43:44">
<g transform="translate(55.9118, 12.5000)">
<path transform="scale(0.0040, -0.0040)" d="M213 112c-50 0 -69 -43 -69 -88c0 -77 57 -136 134 -136c50 0 69 43 69 88c0 77 -57 136 -134 136zM491 0c0 -43 -34 -75 -72 -96c-53 -29 -114 -40 -174 -40s-120 11 -173 40c-38 21 -72 53 -72 96s34 75 72 96c53 29 113 40 173 40s121 -11 174 -40
c38 -21 72 -53 72 -96z" fill="currentColor"/>
</g>
</a>
<g transform="translate(50.2185, 18.0000)">
<text font-family="serif" font-size="2.2001" text-anchor="start" fill="currentColor">
<tspan>per natura,</tspan>
</text>
</g>
<g transform="translate(53.3768, 21.0000)">
<text font-family="serif" font-size="2.2001" text-anchor="start" fill="currentColor">
<tspan>per ♭:</tspan>
</text>
</g>
<g transform="translate(50.9697, 24.0000)">
<text font-family="serif" font-size="2.2001" text-anchor="start" fill="currentColor">
<tspan>sol, fa, ut,</tspan>
</text>
</g>
<g transform="translate(51.5331, 27.0000)">
<text font-family="serif" font-size="2.2001" text-anchor="start" fill="currentColor">
<tspan>re, mi, la</tspan>
</text>
</g>
<g transform="translate(68.1673, 6.0000)">
<text font-family="serif" font-size="2.2001" text-anchor="start" fill="currentColor">
<tspan>Dlasolre</tspan>
</text>
</g>
<g transform="translate(66.4559, 14.0000)">
<line stroke-linejoin="round" stroke-linecap="round" stroke-width="0.1000" stroke="currentColor" x1="0.0500" y1="0" x2="12.7440" y2="0"/>
</g>
<g transform="translate(66.4559, 13.0000)">
<line stroke-linejoin="round" stroke-linecap="round" stroke-width="0.1000" stroke="currentColor" x1="0.0500" y1="0" x2="12.7440" y2="0"/>
</g>
<g transform="translate(66.4559, 12.0000)">
<line stroke-linejoin="round" stroke-linecap="round" stroke-width="0.1000" stroke="currentColor" x1="0.0500" y1="0" x2="12.7440" y2="0"/>
</g>
<g transform="translate(66.4559, 11.0000)">
<line stroke-linejoin="round" stroke-linecap="round" stroke-width="0.1000" stroke="currentColor" x1="0.0500" y1="0" x2="12.7440" y2="0"/>
</g>
<g transform="translate(66.4559, 10.0000)">
<line stroke-linejoin="round" stroke-linecap="round" stroke-width="0.1000" stroke="currentColor" x1="0.0500" y1="0" x2="12.7440" y2="0"/>
</g>
<g transform="translate(74.9379, 11.5000)">
<path transform="scale(0.0040, -0.0040)" d="M27 41l-1 -66v-11c0 -22 1 -44 4 -66c45 38 93 80 93 139c0 33 -14 67 -43 67c-31 0 -52 -30 -53 -63zM-15 -138l-12 595c8 5 18 8 27 8s19 -3 27 -8l-7 -345c25 21 58 34 91 34c52 0 89 -48 89 -102c0 -80 -86 -117 -147 -169c-15 -13 -24 -38 -45 -38
c-13 0 -23 11 -23 25z" fill="currentColor"/>
</g>
<a style="color:inherit;" xlink:href="textedit:///home/johannes/common-lisp/setzkasten/lilypond-export/b1-c5-m3-d.ly:235:48:49">
<g transform="translate(76.0879, 11.5000)">
<path transform="scale(0.0040, -0.0040)" d="M213 112c-50 0 -69 -43 -69 -88c0 -77 57 -136 134 -136c50 0 69 43 69 88c0 77 -57 136 -134 136zM491 0c0 -43 -34 -75 -72 -96c-53 -29 -114 -40 -174 -40s-120 11 -173 40c-38 21 -72 53 -72 96s34 75 72 96c53 29 113 40 173 40s121 -11 174 -40
c38 -21 72 -53 72 -96z" fill="currentColor"/>
</g>
</a>
<a style="color:inherit;" xlink:href="textedit:///home/johannes/common-lisp/setzkasten/lilypond-export/b1-c5-m3-d.ly:233:16:17">
</a>
<g transform="translate(67.2559, 11.0000)">
<path transform="scale(0.0040, -0.0040)" d="M557 -125c0 28 23 51 51 51s51 -23 51 -51s-23 -51 -51 -51s-51 23 -51 51zM557 125c0 28 23 51 51 51s51 -23 51 -51s-23 -51 -51 -51s-51 23 -51 51zM232 263c172 0 293 -88 293 -251c0 -263 -263 -414 -516 -521c-3 -3 -6 -4 -9 -4c-7 0 -13 6 -13 13c0 3 1 6 4 9
c202 118 412 265 412 493c0 120 -63 235 -171 235c-74 0 -129 -54 -154 -126c11 5 22 8 34 8c55 0 100 -45 100 -100c0 -58 -44 -106 -100 -106c-60 0 -112 47 -112 106c0 133 102 244 232 244z" fill="currentColor"/>
</g>
<a style="color:inherit;" xlink:href="textedit:///home/johannes/common-lisp/setzkasten/lilypond-export/b1-c5-m3-d.ly:235:43:44">
<g transform="translate(72.2559, 12.0000)">
<path transform="scale(0.0040, -0.0040)" d="M213 112c-50 0 -69 -43 -69 -88c0 -77 57 -136 134 -136c50 0 69 43 69 88c0 77 -57 136 -134 136zM491 0c0 -43 -34 -75 -72 -96c-53 -29 -114 -40 -174 -40s-120 11 -173 40c-38 21 -72 53 -72 96s34 75 72 96c53 29 113 40 173 40s121 -11 174 -40
c38 -21 72 -53 72 -96z" fill="currentColor"/>
</g>
</a>
<g transform="translate(66.5626, 18.0000)">
<text font-family="serif" font-size="2.2001" text-anchor="start" fill="currentColor">
<tspan>per natura,</tspan>
</text>
</g>
<g transform="translate(69.7208, 21.0000)">
<text font-family="serif" font-size="2.2001" text-anchor="start" fill="currentColor">
<tspan>per ♭:</tspan>
</text>
</g>
<g transform="translate(67.3479, 24.0000)">
<text font-family="serif" font-size="2.2001" text-anchor="start" fill="currentColor">
<tspan>la, sol, re,</tspan>
</text>
</g>
<g transform="translate(67.8429, 27.0000)">
<text font-family="serif" font-size="2.2001" text-anchor="start" fill="currentColor">
<tspan>fa, mi, ut</tspan>
</text>
</g>
<g transform="translate(85.8557, 6.0000)">
<text font-family="serif" font-size="2.2001" text-anchor="start" fill="currentColor">
<tspan>Elami</tspan>
</text>
</g>
<g transform="translate(83.0282, 14.0000)">
<line stroke-linejoin="round" stroke-linecap="round" stroke-width="0.1000" stroke="currentColor" x1="0.0500" y1="0" x2="12.0740" y2="0"/>
</g>
<g transform="translate(83.0282, 13.0000)">
<line stroke-linejoin="round" stroke-linecap="round" stroke-width="0.1000" stroke="currentColor" x1="0.0500" y1="0" x2="12.0740" y2="0"/>
</g>
<g transform="translate(83.0282, 12.0000)">
<line stroke-linejoin="round" stroke-linecap="round" stroke-width="0.1000" stroke="currentColor" x1="0.0500" y1="0" x2="12.0740" y2="0"/>
</g>
<g transform="translate(83.0282, 11.0000)">
<line stroke-linejoin="round" stroke-linecap="round" stroke-width="0.1000" stroke="currentColor" x1="0.0500" y1="0" x2="12.0740" y2="0"/>
</g>
<g transform="translate(83.0282, 10.0000)">
<line stroke-linejoin="round" stroke-linecap="round" stroke-width="0.1000" stroke="currentColor" x1="0.0500" y1="0" x2="12.0740" y2="0"/>
</g>
<a style="color:inherit;" xlink:href="textedit:///home/johannes/common-lisp/setzkasten/lilypond-export/b1-c5-m3-d.ly:282:48:49">
<g transform="translate(91.9902, 11.0000)">
<path transform="scale(0.0040, -0.0040)" d="M213 112c-50 0 -69 -43 -69 -88c0 -77 57 -136 134 -136c50 0 69 43 69 88c0 77 -57 136 -134 136zM491 0c0 -43 -34 -75 -72 -96c-53 -29 -114 -40 -174 -40s-120 11 -173 40c-38 21 -72 53 -72 96s34 75 72 96c53 29 113 40 173 40s121 -11 174 -40
c38 -21 72 -53 72 -96z" fill="currentColor"/>
</g>
</a>
<a style="color:inherit;" xlink:href="textedit:///home/johannes/common-lisp/setzkasten/lilypond-export/b1-c5-m3-d.ly:280:16:17">
</a>
<g transform="translate(83.8282, 11.0000)">
<path transform="scale(0.0040, -0.0040)" d="M557 -125c0 28 23 51 51 51s51 -23 51 -51s-23 -51 -51 -51s-51 23 -51 51zM557 125c0 28 23 51 51 51s51 -23 51 -51s-23 -51 -51 -51s-51 23 -51 51zM232 263c172 0 293 -88 293 -251c0 -263 -263 -414 -516 -521c-3 -3 -6 -4 -9 -4c-7 0 -13 6 -13 13c0 3 1 6 4 9
c202 118 412 265 412 493c0 120 -63 235 -171 235c-74 0 -129 -54 -154 -126c11 5 22 8 34 8c55 0 100 -45 100 -100c0 -58 -44 -106 -100 -106c-60 0 -112 47 -112 106c0 133 102 244 232 244z" fill="currentColor"/>
</g>
<a style="color:inherit;" xlink:href="textedit:///home/johannes/common-lisp/setzkasten/lilypond-export/b1-c5-m3-d.ly:282:43:44">
<g transform="translate(88.8282, 11.5000)">
<path transform="scale(0.0040, -0.0040)" d="M213 112c-50 0 -69 -43 -69 -88c0 -77 57 -136 134 -136c50 0 69 43 69 88c0 77 -57 136 -134 136zM491 0c0 -43 -34 -75 -72 -96c-53 -29 -114 -40 -174 -40s-120 11 -173 40c-38 21 -72 53 -72 96s34 75 72 96c53 29 113 40 173 40s121 -11 174 -40
c38 -21 72 -53 72 -96z" fill="currentColor"/>
</g>
</a>
<g transform="translate(82.7999, 18.0000)">
<text font-family="serif" font-size="2.2001" text-anchor="start" fill="currentColor">
<tspan>per natura,</tspan>
</text>
</g>
<g transform="translate(86.0776, 21.0000)">
<text font-family="serif" font-size="2.2001" text-anchor="start" fill="currentColor">
<tspan>per ♮:</tspan>
</text>
</g>
<g transform="translate(83.8925, 24.0000)">
<text font-family="serif" font-size="2.2001" text-anchor="start" fill="currentColor">
<tspan>la, mi, fa,</tspan>
</text>
</g>
<g transform="translate(83.7730, 27.0000)">
<text font-family="serif" font-size="2.2001" text-anchor="start" fill="currentColor">
<tspan>ut, re, sol</tspan>
</text>
</g>
<g transform="translate(102.3149, 6.0000)">
<text font-family="serif" font-size="2.2001" text-anchor="start" fill="currentColor">
<tspan>Ffaut</tspan>
</text>
</g>
<g transform="translate(98.9305, 14.4000)">
<line stroke-linejoin="round" stroke-linecap="round" stroke-width="0.1000" stroke="currentColor" x1="0.0500" y1="0" x2="12.7440" y2="0"/>
</g>
<g transform="translate(98.9305, 13.4000)">
<line stroke-linejoin="round" stroke-linecap="round" stroke-width="0.1000" stroke="currentColor" x1="0.0500" y1="0" x2="12.7440" y2="0"/>
</g>
<g transform="translate(98.9305, 12.4000)">
<line stroke-linejoin="round" stroke-linecap="round" stroke-width="0.1000" stroke="currentColor" x1="0.0500" y1="0" x2="12.7440" y2="0"/>
</g>
<g transform="translate(98.9305, 11.4000)">
<line stroke-linejoin="round" stroke-linecap="round" stroke-width="0.1000" stroke="currentColor" x1="0.0500" y1="0" x2="12.7440" y2="0"/>
</g>
<g transform="translate(98.9305, 10.4000)">
<line stroke-linejoin="round" stroke-linecap="round" stroke-width="0.1000" stroke="currentColor" x1="0.0500" y1="0" x2="12.7440" y2="0"/>
</g>
<g transform="translate(107.4125, 10.9000)">
<path transform="scale(0.0040, -0.0040)" d="M27 41l-1 -66v-11c0 -22 1 -44 4 -66c45 38 93 80 93 139c0 33 -14 67 -43 67c-31 0 -52 -30 -53 -63zM-15 -138l-12 595c8 5 18 8 27 8s19 -3 27 -8l-7 -345c25 21 58 34 91 34c52 0 89 -48 89 -102c0 -80 -86 -117 -147 -169c-15 -13 -24 -38 -45 -38
c-13 0 -23 11 -23 25z" fill="currentColor"/>
</g>
<a style="color:inherit;" xlink:href="textedit:///home/johannes/common-lisp/setzkasten/lilypond-export/b1-c5-m3-d.ly:329:48:49">
<g transform="translate(108.5625, 10.9000)">
<path transform="scale(0.0040, -0.0040)" d="M213 112c-50 0 -69 -43 -69 -88c0 -77 57 -136 134 -136c50 0 69 43 69 88c0 77 -57 136 -134 136zM491 0c0 -43 -34 -75 -72 -96c-53 -29 -114 -40 -174 -40s-120 11 -173 40c-38 21 -72 53 -72 96s34 75 72 96c53 29 113 40 173 40s121 -11 174 -40
c38 -21 72 -53 72 -96z" fill="currentColor"/>
</g>
</a>
<a style="color:inherit;" xlink:href="textedit:///home/johannes/common-lisp/setzkasten/lilypond-export/b1-c5-m3-d.ly:327:16:17">
</a>
<g transform="translate(99.7305, 11.4000)">
<path transform="scale(0.0040, -0.0040)" d="M557 -125c0 28 23 51 51 51s51 -23 51 -51s-23 -51 -51 -51s-51 23 -51 51zM557 125c0 28 23 51 51 51s51 -23 51 -51s-23 -51 -51 -51s-51 23 -51 51zM232 263c172 0 293 -88 293 -251c0 -263 -263 -414 -516 -521c-3 -3 -6 -4 -9 -4c-7 0 -13 6 -13 13c0 3 1 6 4 9
c202 118 412 265 412 493c0 120 -63 235 -171 235c-74 0 -129 -54 -154 -126c11 5 22 8 34 8c55 0 100 -45 100 -100c0 -58 -44 -106 -100 -106c-60 0 -112 47 -112 106c0 133 102 244 232 244z" fill="currentColor"/>
</g>
<a style="color:inherit;" xlink:href="textedit:///home/johannes/common-lisp/setzkasten/lilypond-export/b1-c5-m3-d.ly:329:43:44">
<g transform="translate(104.7305, 11.4000)">
<path transform="scale(0.0040, -0.0040)" d="M213 112c-50 0 -69 -43 -69 -88c0 -77 57 -136 134 -136c50 0 69 43 69 88c0 77 -57 136 -134 136zM491 0c0 -43 -34 -75 -72 -96c-53 -29 -114 -40 -174 -40s-120 11 -173 40c-38 21 -72 53 -72 96s34 75 72 96c53 29 113 40 173 40s121 -11 174 -40
c38 -21 72 -53 72 -96z" fill="currentColor"/>
</g>
</a>
<g transform="translate(99.0372, 18.4000)">
<text font-family="serif" font-size="2.2001" text-anchor="start" fill="currentColor">
<tspan>per natura,</tspan>
</text>
</g>
<g transform="translate(102.1954, 21.4000)">
<text font-family="serif" font-size="2.2001" text-anchor="start" fill="currentColor">
<tspan>per ♭:</tspan>
</text>
</g>
<g transform="translate(100.1980, 24.4000)">
<text font-family="serif" font-size="2.2001" text-anchor="start" fill="currentColor">
<tspan>fa, ut, re,</tspan>
</text>
</g>
<g transform="translate(99.9420, 27.4000)">
<text font-family="serif" font-size="2.2001" text-anchor="start" fill="currentColor">
<tspan>mi, sol, la</tspan>
</text>
</g>
</svg>
