<svg xmlns="http://www.w3.org/2000/svg" xmlns:xlink="http://www.w3.org/1999/xlink" version="1.2" width="299.15mm" height="35.57mm" viewBox="0.0000 -2.3647 170.2329 20.2406">
<style type="text/css">
<![CDATA[
tspan { white-space: pre; }
]]>
</style>
<g transform="translate(45.9711, -0.0000)">
<text font-family="serif" font-size="3.1115" text-anchor="start" fill="currentColor">
<tspan>Essempio del tono maggiore, composto e incomposto</tspan>
</text>
</g>
<g transform="translate(0.0000, 8.8000)">
<line stroke-linejoin="round" stroke-linecap="round" stroke-width="0.1000" stroke="currentColor" x1="0.0500" y1="0" x2="15.2360" y2="0"/>
</g>
<g transform="translate(0.0000, 7.8000)">
<line stroke-linejoin="round" stroke-linecap="round" stroke-width="0.1000" stroke="currentColor" x1="0.0500" y1="0" x2="15.2360" y2="0"/>
</g>
<g transform="translate(0.0000, 6.8000)">
<line stroke-linejoin="round" stroke-linecap="round" stroke-width="0.1000" stroke="currentColor" x1="0.0500" y1="0" x2="15.2360" y2="0"/>
</g>
<g transform="translate(0.0000, 5.8000)">
<line stroke-linejoin="round" stroke-linecap="round" stroke-width="0.1000" stroke="currentColor" x1="0.0500" y1="0" x2="15.2360" y2="0"/>
</g>
<g transform="translate(0.0000, 4.8000)">
<line stroke-linejoin="round" stroke-linecap="round" stroke-width="0.1000" stroke="currentColor" x1="0.0500" y1="0" x2="15.2360" y2="0"/>
</g>
<a style="color:inherit;" xlink:href="textedit:///home/johannes/common-lisp/setzkasten/lilypond-export/b1-c24-m1-c.ly:38:47:48">
<g transform="translate(8.9620, 8.8000)">
<path transform="scale(0.0040, -0.0040)" d="M213 112c-50 0 -69 -43 -69 -88c0 -77 57 -136 134 -136c50 0 69 43 69 88c0 77 -57 136 -134 136zM491 0c0 -43 -34 -75 -72 -96c-53 -29 -114 -40 -174 -40s-120 11 -173 40c-38 21 -72 53 -72 96s34 75 72 96c53 29 113 40 173 40s121 -11 174 -40
c38 -21 72 -53 72 -96z" fill="currentColor"/>
</g>
</a>
<a style="color:inherit;" xlink:href="textedit:///home/johannes/common-lisp/setzkasten/lilypond-export/b1-c24-m1-c.ly:38:56:57">
<g transform="translate(12.1240, 8.8000)">
<path transform="scale(0.0040, -0.0040)" d="M213 112c-50 0 -69 -43 -69 -88c0 -77 57 -136 134 -136c50 0 69 43 69 88c0 77 -57 136 -134 136zM491 0c0 -43 -34 -75 -72 -96c-53 -29 -114 -40 -174 -40s-120 11 -173 40c-38 21 -72 53 -72 96s34 75 72 96c53 29 113 40 173 40s121 -11 174 -40
c38 -21 72 -53 72 -96z" fill="currentColor"/>
</g>
</a>
<a style="color:inherit;" xlink:href="textedit:///home/johannes/common-lisp/setzkasten/lilypond-export/b1-c24-m1-c.ly:38:58:59">
<g transform="translate(13.1050, 7.3000)">
<path transform="scale(0.0045, -0.0045)" d="M-50 0c0 28 22 50 50 50s50 -22 50 -50s-22 -50 -50 -50s-50 22 -50 50z" fill="currentColor"/>
</g>
</a>
<a style="color:inherit;" xlink:href="textedit:///home/johannes/common-lisp/setzkasten/lilypond-export/b1-c24-m1-c.ly:38:43:44">
<g transform="translate(5.8000, 9.3000)">
<path transform="scale(0.0040, -0.0040)" d="M213 112c-50 0 -69 -43 -69 -88c0 -77 57 -136 134 -136c50 0 69 43 69 88c0 77 -57 136 -134 136zM491 0c0 -43 -34 -75 -72 -96c-53 -29 -114 -40 -174 -40s-120 11 -173 40c-38 21 -72 53 -72 96s34 75 72 96c53 29 113 40 173 40s121 -11 174 -40
c38 -21 72 -53 72 -96z" fill="currentColor"/>
</g>
</a>
<g transform="translate(0.8000, 7.8000)">
<path transform="scale(0.0040, -0.0040)" d="M266 -635h-6c-108 0 -195 88 -195 197c0 58 53 103 112 103c54 0 95 -47 95 -103c0 -52 -43 -95 -95 -95c-11 0 -21 2 -31 6c26 -39 68 -65 117 -65h4zM461 -203c68 24 113 95 113 164c0 90 -66 179 -173 190c24 -116 46 -231 60 -354zM74 28c0 -135 129 -247 264 -247
c28 0 55 2 82 6c-14 127 -37 245 -63 364c-79 -8 -124 -61 -124 -119c0 -44 25 -91 81 -123c5 -5 7 -10 7 -15c0 -11 -10 -22 -22 -22c-3 0 -6 1 -9 2c-80 43 -117 115 -117 185c0 88 58 174 160 197c-14 58 -29 117 -46 175c-107 -121 -213 -243 -213 -403zM335 -262
c-188 0 -333 172 -333 374c0 177 131 306 248 441c-19 62 -37 125 -45 190c-6 52 -7 104 -7 156c0 115 55 224 149 292c6 5 14 5 20 0c71 -84 133 -245 133 -358c0 -143 -86 -255 -180 -364c21 -68 39 -138 56 -207c4 0 9 1 13 1c155 0 256 -128 256 -261
c0 -76 -33 -154 -107 -210c-22 -17 -47 -28 -73 -36c3 -35 5 -70 5 -105c0 -19 -1 -39 -2 -58c-7 -119 -88 -225 -202 -228l1 43c93 2 153 92 159 191c1 18 2 37 2 55c0 31 -1 61 -4 92c-29 -5 -58 -8 -89 -8zM428 916c0 55 -4 79 -20 129c-99 -48 -162 -149 -162 -259
c0 -74 18 -133 36 -194c80 97 146 198 146 324z" fill="currentColor"/>
</g>
<g transform="translate(1.4334, 11.3340)">
<text font-family="serif" font-style="italic" font-size="1.3860" text-anchor="start" fill="currentColor">
<tspan>8</tspan>
</text>
</g>
<a style="color:inherit;" xlink:href="textedit:///home/johannes/common-lisp/setzkasten/lilypond-export/b1-c24-m1-c.ly:36:16:17">
</a>
<g transform="translate(0.0211, 14.3478)">
<text font-family="serif" font-size="2.2001" text-anchor="start" fill="currentColor">
<tspan>tono maggiore</tspan>
</text>
</g>
<g transform="translate(2.5648, 17.3478)">
<text font-family="serif" font-size="2.2001" text-anchor="start" fill="currentColor">
<tspan>composto</tspan>
</text>
</g>
<g transform="translate(20.3959, 8.8000)">
<line stroke-linejoin="round" stroke-linecap="round" stroke-width="0.1000" stroke="currentColor" x1="0.0500" y1="0" x2="12.0740" y2="0"/>
</g>
<g transform="translate(20.3959, 7.8000)">
<line stroke-linejoin="round" stroke-linecap="round" stroke-width="0.1000" stroke="currentColor" x1="0.0500" y1="0" x2="12.0740" y2="0"/>
</g>
<g transform="translate(20.3959, 6.8000)">
<line stroke-linejoin="round" stroke-linecap="round" stroke-width="0.1000" stroke="currentColor" x1="0.0500" y1="0" x2="12.0740" y2="0"/>
</g>
<g transform="translate(20.3959, 5.8000)">
<line stroke-linejoin="round" stroke-linecap="round" stroke-width="0.1000" stroke="currentColor" x1="0.0500" y1="0" x2="12.0740" y2="0"/>
</g>
<g transform="translate(20.3959, 4.8000)">
<line stroke-linejoin="round" stroke-linecap="round" stroke-width="0.1000" stroke="currentColor" x1="0.0500" y1="0" x2="12.0740" y2="0"/>
</g>
<a style="color:inherit;" xlink:href="textedit:///home/johannes/common-lisp/setzkasten/lilypond-export/b1-c24-m1-c.ly:73:55:56">
<g transform="translate(30.3389, 6.3000)">
<path transform="scale(0.0045, -0.0045)" d="M-50 0c0 28 22 50 50 50s50 -22 50 -50s-22 -50 -50 -50s-50 22 -50 50z" fill="currentColor"/>
</g>
</a>
<a style="color:inherit;" xlink:href="textedit:///home/johannes/common-lisp/setzkasten/lilypond-export/b1-c24-m1-c.ly:73:53:54">
<g transform="translate(29.3579, 7.8000)">
<path transform="scale(0.0040, -0.0040)" d="M213 112c-50 0 -69 -43 -69 -88c0 -77 57 -136 134 -136c50 0 69 43 69 88c0 77 -57 136 -134 136zM491 0c0 -43 -34 -75 -72 -96c-53 -29 -114 -40 -174 -40s-120 11 -173 40c-38 21 -72 53 -72 96s34 75 72 96c53 29 113 40 173 40s121 -11 174 -40
c38 -21 72 -53 72 -96z" fill="currentColor"/>
</g>
</a>
<g transform="translate(25.0459, 8.8000)">
<path transform="scale(0.0040, -0.0040)" d="M27 41l-1 -66v-11c0 -22 1 -44 4 -66c45 38 93 80 93 139c0 33 -14 67 -43 67c-31 0 -52 -30 -53 -63zM-15 -138l-12 595c8 5 18 8 27 8s19 -3 27 -8l-7 -345c25 21 58 34 91 34c52 0 89 -48 89 -102c0 -80 -86 -117 -147 -169c-15 -13 -24 -38 -45 -38
c-13 0 -23 11 -23 25z" fill="currentColor"/>
</g>
<a style="color:inherit;" xlink:href="textedit:///home/johannes/common-lisp/setzkasten/lilypond-export/b1-c24-m1-c.ly:71:16:17">
</a>
<g transform="translate(21.8292, 11.3340)">
<text font-family="serif" font-style="italic" font-size="1.3860" text-anchor="start" fill="currentColor">
<tspan>8</tspan>
</text>
</g>
<g transform="translate(21.1959, 7.8000)">
<path transform="scale(0.0040, -0.0040)" d="M266 -635h-6c-108 0 -195 88 -195 197c0 58 53 103 112 103c54 0 95 -47 95 -103c0 -52 -43 -95 -95 -95c-11 0 -21 2 -31 6c26 -39 68 -65 117 -65h4zM461 -203c68 24 113 95 113 164c0 90 -66 179 -173 190c24 -116 46 -231 60 -354zM74 28c0 -135 129 -247 264 -247
c28 0 55 2 82 6c-14 127 -37 245 -63 364c-79 -8 -124 -61 -124 -119c0 -44 25 -91 81 -123c5 -5 7 -10 7 -15c0 -11 -10 -22 -22 -22c-3 0 -6 1 -9 2c-80 43 -117 115 -117 185c0 88 58 174 160 197c-14 58 -29 117 -46 175c-107 -121 -213 -243 -213 -403zM335 -262
c-188 0 -333 172 -333 374c0 177 131 306 248 441c-19 62 -37 125 -45 190c-6 52 -7 104 -7 156c0 115 55 224 149 292c6 5 14 5 20 0c71 -84 133 -245 133 -358c0 -143 -86 -255 -180 -364c21 -68 39 -138 56 -207c4 0 9 1 13 1c155 0 256 -128 256 -261
c0 -76 -33 -154 -107 -210c-22 -17 -47 -28 -73 -36c3 -35 5 -70 5 -105c0 -19 -1 -39 -2 -58c-7 -119 -88 -225 -202 -228l1 43c93 2 153 92 159 191c1 18 2 37 2 55c0 31 -1 61 -4 92c-29 -5 -58 -8 -89 -8zM428 916c0 55 -4 79 -20 129c-99 -48 -162 -149 -162 -259
c0 -74 18 -133 36 -194c80 97 146 198 146 324z" fill="currentColor"/>
</g>
<a style="color:inherit;" xlink:href="textedit:///home/johannes/common-lisp/setzkasten/lilypond-export/b1-c24-m1-c.ly:73:43:44">
<g transform="translate(26.1959, 8.8000)">
<path transform="scale(0.0040, -0.0040)" d="M213 112c-50 0 -69 -43 -69 -88c0 -77 57 -136 134 -136c50 0 69 43 69 88c0 77 -57 136 -134 136zM491 0c0 -43 -34 -75 -72 -96c-53 -29 -114 -40 -174 -40s-120 11 -173 40c-38 21 -72 53 -72 96s34 75 72 96c53 29 113 40 173 40s121 -11 174 -40
c38 -21 72 -53 72 -96z" fill="currentColor"/>
</g>
</a>
<g transform="translate(18.8360, 14.3478)">
<text font-family="serif" font-size="2.2001" text-anchor="start" fill="currentColor">
<tspan>tono maggiore</tspan>
</text>
</g>
<g transform="translate(20.3042, 17.3478)">
<text font-family="serif" font-size="2.2001" text-anchor="start" fill="currentColor">
<tspan>incomposto</tspan>
</text>
</g>
<g transform="translate(37.6298, 8.8000)">
<line stroke-linejoin="round" stroke-linecap="round" stroke-width="0.1000" stroke="currentColor" x1="0.0500" y1="0" x2="15.9060" y2="0"/>
</g>
<g transform="translate(37.6298, 7.8000)">
<line stroke-linejoin="round" stroke-linecap="round" stroke-width="0.1000" stroke="currentColor" x1="0.0500" y1="0" x2="15.9060" y2="0"/>
</g>
<g transform="translate(37.6298, 6.8000)">
<line stroke-linejoin="round" stroke-linecap="round" stroke-width="0.1000" stroke="currentColor" x1="0.0500" y1="0" x2="15.9060" y2="0"/>
</g>
<g transform="translate(37.6298, 5.8000)">
<line stroke-linejoin="round" stroke-linecap="round" stroke-width="0.1000" stroke="currentColor" x1="0.0500" y1="0" x2="15.9060" y2="0"/>
</g>
<g transform="translate(37.6298, 4.8000)">
<line stroke-linejoin="round" stroke-linecap="round" stroke-width="0.1000" stroke="currentColor" x1="0.0500" y1="0" x2="15.9060" y2="0"/>
</g>
<a style="color:inherit;" xlink:href="textedit:///home/johannes/common-lisp/setzkasten/lilypond-export/b1-c24-m1-c.ly:108:49:50">
<g transform="translate(46.5918, 7.8000)">
<path transform="scale(0.0040, -0.0040)" d="M213 112c-50 0 -69 -43 -69 -88c0 -77 57 -136 134 -136c50 0 69 43 69 88c0 77 -57 136 -134 136zM491 0c0 -43 -34 -75 -72 -96c-53 -29 -114 -40 -174 -40s-120 11 -173 40c-38 21 -72 53 -72 96s34 75 72 96c53 29 113 40 173 40s121 -11 174 -40
c38 -21 72 -53 72 -96z" fill="currentColor"/>
</g>
</a>
<a style="color:inherit;" xlink:href="textedit:///home/johannes/common-lisp/setzkasten/lilypond-export/b1-c24-m1-c.ly:108:53:54">
<g transform="translate(50.4238, 7.3000)">
<path transform="scale(0.0040, -0.0040)" d="M213 112c-50 0 -69 -43 -69 -88c0 -77 57 -136 134 -136c50 0 69 43 69 88c0 77 -57 136 -134 136zM491 0c0 -43 -34 -75 -72 -96c-53 -29 -114 -40 -174 -40s-120 11 -173 40c-38 21 -72 53 -72 96s34 75 72 96c53 29 113 40 173 40s121 -11 174 -40
c38 -21 72 -53 72 -96z" fill="currentColor"/>
</g>
</a>
<g transform="translate(49.2738, 7.3000)">
<path transform="scale(0.0040, -0.0040)" d="M27 41l-1 -66v-11c0 -22 1 -44 4 -66c45 38 93 80 93 139c0 33 -14 67 -43 67c-31 0 -52 -30 -53 -63zM-15 -138l-12 595c8 5 18 8 27 8s19 -3 27 -8l-7 -345c25 21 58 34 91 34c52 0 89 -48 89 -102c0 -80 -86 -117 -147 -169c-15 -13 -24 -38 -45 -38
c-13 0 -23 11 -23 25z" fill="currentColor"/>
</g>
<g transform="translate(41.9798, 8.3000)">
<path transform="scale(0.0040, -0.0040)" d="M216 -312c0 -10 -8 -19 -18 -19s-19 9 -19 19v145l-83 -31v-158c0 -10 -9 -19 -19 -19s-18 9 -18 19v145l-32 -12c-2 -1 -5 -1 -7 -1c-11 0 -20 9 -20 20v60c0 8 5 16 13 19l46 16v160l-32 -11c-2 -1 -5 -1 -7 -1c-11 0 -20 9 -20 20v60c0 8 5 15 13 18l46 17v158
c0 10 8 19 18 19s19 -9 19 -19v-145l83 31v158c0 10 9 19 19 19s18 -9 18 -19v-145l32 12c2 1 5 1 7 1c11 0 20 -9 20 -20v-60c0 -8 -5 -16 -13 -19l-46 -16v-160l32 11c2 1 5 1 7 1c11 0 20 -9 20 -20v-60c0 -8 -5 -15 -13 -18l-46 -17v-158zM96 65v-160l83 30v160z" fill="currentColor"/>
</g>
<a style="color:inherit;" xlink:href="textedit:///home/johannes/common-lisp/setzkasten/lilypond-export/b1-c24-m1-c.ly:108:43:44">
<g transform="translate(43.4298, 8.3000)">
<path transform="scale(0.0040, -0.0040)" d="M213 112c-50 0 -69 -43 -69 -88c0 -77 57 -136 134 -136c50 0 69 43 69 88c0 77 -57 136 -134 136zM491 0c0 -43 -34 -75 -72 -96c-53 -29 -114 -40 -174 -40s-120 11 -173 40c-38 21 -72 53 -72 96s34 75 72 96c53 29 113 40 173 40s121 -11 174 -40
c38 -21 72 -53 72 -96z" fill="currentColor"/>
</g>
</a>
<g transform="translate(38.4298, 7.8000)">
<path transform="scale(0.0040, -0.0040)" d="M266 -635h-6c-108 0 -195 88 -195 197c0 58 53 103 112 103c54 0 95 -47 95 -103c0 -52 -43 -95 -95 -95c-11 0 -21 2 -31 6c26 -39 68 -65 117 -65h4zM461 -203c68 24 113 95 113 164c0 90 -66 179 -173 190c24 -116 46 -231 60 -354zM74 28c0 -135 129 -247 264 -247
c28 0 55 2 82 6c-14 127 -37 245 -63 364c-79 -8 -124 -61 -124 -119c0 -44 25 -91 81 -123c5 -5 7 -10 7 -15c0 -11 -10 -22 -22 -22c-3 0 -6 1 -9 2c-80 43 -117 115 -117 185c0 88 58 174 160 197c-14 58 -29 117 -46 175c-107 -121 -213 -243 -213 -403zM335 -262
c-188 0 -333 172 -333 374c0 177 131 306 248 441c-19 62 -37 125 -45 190c-6 52 -7 104 -7 156c0 115 55 224 149 292c6 5 14 5 20 0c71 -84 133 -245 133 -358c0 -143 -86 -255 -180 -364c21 -68 39 -138 56 -207c4 0 9 1 13 1c155 0 256 -128 256 -261
c0 -76 -33 -154 -107 -210c-22 -17 -47 -28 -73 -36c3 -35 5 -70 5 -105c0 -19 -1 -39 -2 -58c-7 -119 -88 -225 -202 -228l1 43c93 2 153 92 159 191c1 18 2 37 2 55c0 31 -1 61 -4 92c-29 -5 -58 -8 -89 -8zM428 916c0 55 -4 79 -20 129c-99 -48 -162 -149 -162 -259
c0 -74 18 -133 36 -194c80 97 146 198 146 324z" fill="currentColor"/>
</g>
<g transform="translate(39.0631, 11.3340)">
<text font-family="serif" font-style="italic" font-size="1.3860" text-anchor="start" fill="currentColor">
<tspan>8</tspan>
</text>
</g>
<a style="color:inherit;" xlink:href="textedit:///home/johannes/common-lisp/setzkasten/lilypond-export/b1-c24-m1-c.ly:106:16:17">
</a>
<g transform="translate(37.9859, 14.3478)">
<text font-family="serif" font-size="2.2001" text-anchor="start" fill="currentColor">
<tspan>tono maggiore</tspan>
</text>
</g>
<g transform="translate(40.5296, 17.3478)">
<text font-family="serif" font-size="2.2001" text-anchor="start" fill="currentColor">
<tspan>composto</tspan>
</text>
</g>
<g transform="translate(58.3607, 8.8000)">
<line stroke-linejoin="round" stroke-linecap="round" stroke-width="0.1000" stroke="currentColor" x1="0.0500" y1="0" x2="12.7440" y2="0"/>
</g>
<g transform="translate(58.3607, 7.8000)">
<line stroke-linejoin="round" stroke-linecap="round" stroke-width="0.1000" stroke="currentColor" x1="0.0500" y1="0" x2="12.7440" y2="0"/>
</g>
<g transform="translate(58.3607, 6.8000)">
<line stroke-linejoin="round" stroke-linecap="round" stroke-width="0.1000" stroke="currentColor" x1="0.0500" y1="0" x2="12.7440" y2="0"/>
</g>
<g transform="translate(58.3607, 5.8000)">
<line stroke-linejoin="round" stroke-linecap="round" stroke-width="0.1000" stroke="currentColor" x1="0.0500" y1="0" x2="12.7440" y2="0"/>
</g>
<g transform="translate(58.3607, 4.8000)">
<line stroke-linejoin="round" stroke-linecap="round" stroke-width="0.1000" stroke="currentColor" x1="0.0500" y1="0" x2="12.7440" y2="0"/>
</g>
<g transform="translate(66.8427, 6.8000)">
<path transform="scale(0.0040, -0.0040)" d="M27 41l-1 -66v-11c0 -22 1 -44 4 -66c45 38 93 80 93 139c0 33 -14 67 -43 67c-31 0 -52 -30 -53 -63zM-15 -138l-12 595c8 5 18 8 27 8s19 -3 27 -8l-7 -345c25 21 58 34 91 34c52 0 89 -48 89 -102c0 -80 -86 -117 -147 -169c-15 -13 -24 -38 -45 -38
c-13 0 -23 11 -23 25z" fill="currentColor"/>
</g>
<a style="color:inherit;" xlink:href="textedit:///home/johannes/common-lisp/setzkasten/lilypond-export/b1-c24-m1-c.ly:143:49:50">
<g transform="translate(67.9927, 6.8000)">
<path transform="scale(0.0040, -0.0040)" d="M213 112c-50 0 -69 -43 -69 -88c0 -77 57 -136 134 -136c50 0 69 43 69 88c0 77 -57 136 -134 136zM491 0c0 -43 -34 -75 -72 -96c-53 -29 -114 -40 -174 -40s-120 11 -173 40c-38 21 -72 53 -72 96s34 75 72 96c53 29 113 40 173 40s121 -11 174 -40
c38 -21 72 -53 72 -96z" fill="currentColor"/>
</g>
</a>
<g transform="translate(62.7107, 7.8000)">
<path transform="scale(0.0040, -0.0040)" d="M216 -312c0 -10 -8 -19 -18 -19s-19 9 -19 19v145l-83 -31v-158c0 -10 -9 -19 -19 -19s-18 9 -18 19v145l-32 -12c-2 -1 -5 -1 -7 -1c-11 0 -20 9 -20 20v60c0 8 5 16 13 19l46 16v160l-32 -11c-2 -1 -5 -1 -7 -1c-11 0 -20 9 -20 20v60c0 8 5 15 13 18l46 17v158
c0 10 8 19 18 19s19 -9 19 -19v-145l83 31v158c0 10 9 19 19 19s18 -9 18 -19v-145l32 12c2 1 5 1 7 1c11 0 20 -9 20 -20v-60c0 -8 -5 -16 -13 -19l-46 -16v-160l32 11c2 1 5 1 7 1c11 0 20 -9 20 -20v-60c0 -8 -5 -15 -13 -18l-46 -17v-158zM96 65v-160l83 30v160z" fill="currentColor"/>
</g>
<a style="color:inherit;" xlink:href="textedit:///home/johannes/common-lisp/setzkasten/lilypond-export/b1-c24-m1-c.ly:141:16:17">
</a>
<g transform="translate(59.7940, 11.3340)">
<text font-family="serif" font-style="italic" font-size="1.3860" text-anchor="start" fill="currentColor">
<tspan>8</tspan>
</text>
</g>
<g transform="translate(59.1607, 7.8000)">
<path transform="scale(0.0040, -0.0040)" d="M266 -635h-6c-108 0 -195 88 -195 197c0 58 53 103 112 103c54 0 95 -47 95 -103c0 -52 -43 -95 -95 -95c-11 0 -21 2 -31 6c26 -39 68 -65 117 -65h4zM461 -203c68 24 113 95 113 164c0 90 -66 179 -173 190c24 -116 46 -231 60 -354zM74 28c0 -135 129 -247 264 -247
c28 0 55 2 82 6c-14 127 -37 245 -63 364c-79 -8 -124 -61 -124 -119c0 -44 25 -91 81 -123c5 -5 7 -10 7 -15c0 -11 -10 -22 -22 -22c-3 0 -6 1 -9 2c-80 43 -117 115 -117 185c0 88 58 174 160 197c-14 58 -29 117 -46 175c-107 -121 -213 -243 -213 -403zM335 -262
c-188 0 -333 172 -333 374c0 177 131 306 248 441c-19 62 -37 125 -45 190c-6 52 -7 104 -7 156c0 115 55 224 149 292c6 5 14 5 20 0c71 -84 133 -245 133 -358c0 -143 -86 -255 -180 -364c21 -68 39 -138 56 -207c4 0 9 1 13 1c155 0 256 -128 256 -261
c0 -76 -33 -154 -107 -210c-22 -17 -47 -28 -73 -36c3 -35 5 -70 5 -105c0 -19 -1 -39 -2 -58c-7 -119 -88 -225 -202 -228l1 43c93 2 153 92 159 191c1 18 2 37 2 55c0 31 -1 61 -4 92c-29 -5 -58 -8 -89 -8zM428 916c0 55 -4 79 -20 129c-99 -48 -162 -149 -162 -259
c0 -74 18 -133 36 -194c80 97 146 198 146 324z" fill="currentColor"/>
</g>
<a style="color:inherit;" xlink:href="textedit:///home/johannes/common-lisp/setzkasten/lilypond-export/b1-c24-m1-c.ly:143:43:44">
<g transform="translate(64.1607, 7.8000)">
<path transform="scale(0.0040, -0.0040)" d="M213 112c-50 0 -69 -43 -69 -88c0 -77 57 -136 134 -136c50 0 69 43 69 88c0 77 -57 136 -134 136zM491 0c0 -43 -34 -75 -72 -96c-53 -29 -114 -40 -174 -40s-120 11 -173 40c-38 21 -72 53 -72 96s34 75 72 96c53 29 113 40 173 40s121 -11 174 -40
c38 -21 72 -53 72 -96z" fill="currentColor"/>
</g>
</a>
<g transform="translate(57.1358, 14.3478)">
<text font-family="serif" font-size="2.2001" text-anchor="start" fill="currentColor">
<tspan>tono maggiore</tspan>
</text>
</g>
<g transform="translate(58.6040, 17.3478)">
<text font-family="serif" font-size="2.2001" text-anchor="start" fill="currentColor">
<tspan>incomposto</tspan>
</text>
</g>
<g transform="translate(77.1544, 8.8000)">
<line stroke-linejoin="round" stroke-linecap="round" stroke-width="0.1000" stroke="currentColor" x1="0.0500" y1="0" x2="12.7440" y2="0"/>
</g>
<g transform="translate(77.1544, 7.8000)">
<line stroke-linejoin="round" stroke-linecap="round" stroke-width="0.1000" stroke="currentColor" x1="0.0500" y1="0" x2="12.7440" y2="0"/>
</g>
<g transform="translate(77.1544, 6.8000)">
<line stroke-linejoin="round" stroke-linecap="round" stroke-width="0.1000" stroke="currentColor" x1="0.0500" y1="0" x2="12.7440" y2="0"/>
</g>
<g transform="translate(77.1544, 5.8000)">
<line stroke-linejoin="round" stroke-linecap="round" stroke-width="0.1000" stroke="currentColor" x1="0.0500" y1="0" x2="12.7440" y2="0"/>
</g>
<g transform="translate(77.1544, 4.8000)">
<line stroke-linejoin="round" stroke-linecap="round" stroke-width="0.1000" stroke="currentColor" x1="0.0500" y1="0" x2="12.7440" y2="0"/>
</g>
<g transform="translate(85.6365, 5.8000)">
<path transform="scale(0.0040, -0.0040)" d="M27 41l-1 -66v-11c0 -22 1 -44 4 -66c45 38 93 80 93 139c0 33 -14 67 -43 67c-31 0 -52 -30 -53 -63zM-15 -138l-12 595c8 5 18 8 27 8s19 -3 27 -8l-7 -345c25 21 58 34 91 34c52 0 89 -48 89 -102c0 -80 -86 -117 -147 -169c-15 -13 -24 -38 -45 -38
c-13 0 -23 11 -23 25z" fill="currentColor"/>
</g>
<a style="color:inherit;" xlink:href="textedit:///home/johannes/common-lisp/setzkasten/lilypond-export/b1-c24-m1-c.ly:178:47:48">
<g transform="translate(86.7865, 5.8000)">
<path transform="scale(0.0040, -0.0040)" d="M213 112c-50 0 -69 -43 -69 -88c0 -77 57 -136 134 -136c50 0 69 43 69 88c0 77 -57 136 -134 136zM491 0c0 -43 -34 -75 -72 -96c-53 -29 -114 -40 -174 -40s-120 11 -173 40c-38 21 -72 53 -72 96s34 75 72 96c53 29 113 40 173 40s121 -11 174 -40
c38 -21 72 -53 72 -96z" fill="currentColor"/>
</g>
</a>
<a style="color:inherit;" xlink:href="textedit:///home/johannes/common-lisp/setzkasten/lilypond-export/b1-c24-m1-c.ly:176:16:17">
</a>
<g transform="translate(78.5878, 11.3340)">
<text font-family="serif" font-style="italic" font-size="1.3860" text-anchor="start" fill="currentColor">
<tspan>8</tspan>
</text>
</g>
<g transform="translate(77.9544, 7.8000)">
<path transform="scale(0.0040, -0.0040)" d="M266 -635h-6c-108 0 -195 88 -195 197c0 58 53 103 112 103c54 0 95 -47 95 -103c0 -52 -43 -95 -95 -95c-11 0 -21 2 -31 6c26 -39 68 -65 117 -65h4zM461 -203c68 24 113 95 113 164c0 90 -66 179 -173 190c24 -116 46 -231 60 -354zM74 28c0 -135 129 -247 264 -247
c28 0 55 2 82 6c-14 127 -37 245 -63 364c-79 -8 -124 -61 -124 -119c0 -44 25 -91 81 -123c5 -5 7 -10 7 -15c0 -11 -10 -22 -22 -22c-3 0 -6 1 -9 2c-80 43 -117 115 -117 185c0 88 58 174 160 197c-14 58 -29 117 -46 175c-107 -121 -213 -243 -213 -403zM335 -262
c-188 0 -333 172 -333 374c0 177 131 306 248 441c-19 62 -37 125 -45 190c-6 52 -7 104 -7 156c0 115 55 224 149 292c6 5 14 5 20 0c71 -84 133 -245 133 -358c0 -143 -86 -255 -180 -364c21 -68 39 -138 56 -207c4 0 9 1 13 1c155 0 256 -128 256 -261
c0 -76 -33 -154 -107 -210c-22 -17 -47 -28 -73 -36c3 -35 5 -70 5 -105c0 -19 -1 -39 -2 -58c-7 -119 -88 -225 -202 -228l1 43c93 2 153 92 159 191c1 18 2 37 2 55c0 31 -1 61 -4 92c-29 -5 -58 -8 -89 -8zM428 916c0 55 -4 79 -20 129c-99 -48 -162 -149 -162 -259
c0 -74 18 -133 36 -194c80 97 146 198 146 324z" fill="currentColor"/>
</g>
<a style="color:inherit;" xlink:href="textedit:///home/johannes/common-lisp/setzkasten/lilypond-export/b1-c24-m1-c.ly:178:43:44">
<g transform="translate(82.9544, 6.8000)">
<path transform="scale(0.0040, -0.0040)" d="M213 112c-50 0 -69 -43 -69 -88c0 -77 57 -136 134 -136c50 0 69 43 69 88c0 77 -57 136 -134 136zM491 0c0 -43 -34 -75 -72 -96c-53 -29 -114 -40 -174 -40s-120 11 -173 40c-38 21 -72 53 -72 96s34 75 72 96c53 29 113 40 173 40s121 -11 174 -40
c38 -21 72 -53 72 -96z" fill="currentColor"/>
</g>
</a>
<g transform="translate(75.9296, 14.3478)">
<text font-family="serif" font-size="2.2001" text-anchor="start" fill="currentColor">
<tspan>tono maggiore</tspan>
</text>
</g>
<g transform="translate(77.3977, 17.3478)">
<text font-family="serif" font-size="2.2001" text-anchor="start" fill="currentColor">
<tspan>incomposto</tspan>
</text>
</g>
<g transform="translate(94.7233, 8.8000)">
<line stroke-linejoin="round" stroke-linecap="round" stroke-width="0.1000" stroke="currentColor" x1="0.0500" y1="0" x2="15.2360" y2="0"/>
</g>
<g transform="translate(94.7233, 7.8000)">
<line stroke-linejoin="round" stroke-linecap="round" stroke-width="0.1000" stroke="currentColor" x1="0.0500" y1="0" x2="15.2360" y2="0"/>
</g>
<g transform="translate(94.7233, 6.8000)">
<line stroke-linejoin="round" stroke-linecap="round" stroke-width="0.1000" stroke="currentColor" x1="0.0500" y1="0" x2="15.2360" y2="0"/>
</g>
<g transform="translate(94.7233, 5.8000)">
<line stroke-linejoin="round" stroke-linecap="round" stroke-width="0.1000" stroke="currentColor" x1="0.0500" y1="0" x2="15.2360" y2="0"/>
</g>
<g transform="translate(94.7233, 4.8000)">
<line stroke-linejoin="round" stroke-linecap="round" stroke-width="0.1000" stroke="currentColor" x1="0.0500" y1="0" x2="15.2360" y2="0"/>
</g>
<a style="color:inherit;" xlink:href="textedit:///home/johannes/common-lisp/setzkasten/lilypond-export/b1-c24-m1-c.ly:213:55:56">
<g transform="translate(103.6853, 5.8000)">
<path transform="scale(0.0040, -0.0040)" d="M213 112c-50 0 -69 -43 -69 -88c0 -77 57 -136 134 -136c50 0 69 43 69 88c0 77 -57 136 -134 136zM491 0c0 -43 -34 -75 -72 -96c-53 -29 -114 -40 -174 -40s-120 11 -173 40c-38 21 -72 53 -72 96s34 75 72 96c53 29 113 40 173 40s121 -11 174 -40
c38 -21 72 -53 72 -96z" fill="currentColor"/>
</g>
</a>
<a style="color:inherit;" xlink:href="textedit:///home/johannes/common-lisp/setzkasten/lilypond-export/b1-c24-m1-c.ly:213:60:61">
<g transform="translate(106.8473, 6.3000)">
<path transform="scale(0.0040, -0.0040)" d="M213 112c-50 0 -69 -43 -69 -88c0 -77 57 -136 134 -136c50 0 69 43 69 88c0 77 -57 136 -134 136zM491 0c0 -43 -34 -75 -72 -96c-53 -29 -114 -40 -174 -40s-120 11 -173 40c-38 21 -72 53 -72 96s34 75 72 96c53 29 113 40 173 40s121 -11 174 -40
c38 -21 72 -53 72 -96z" fill="currentColor"/>
</g>
</a>
<a style="color:inherit;" xlink:href="textedit:///home/johannes/common-lisp/setzkasten/lilypond-export/b1-c24-m1-c.ly:213:48:49">
<g transform="translate(100.5233, 5.8000)">
<path transform="scale(0.0040, -0.0040)" d="M213 112c-50 0 -69 -43 -69 -88c0 -77 57 -136 134 -136c50 0 69 43 69 88c0 77 -57 136 -134 136zM491 0c0 -43 -34 -75 -72 -96c-53 -29 -114 -40 -174 -40s-120 11 -173 40c-38 21 -72 53 -72 96s34 75 72 96c53 29 113 40 173 40s121 -11 174 -40
c38 -21 72 -53 72 -96z" fill="currentColor"/>
</g>
</a>
<a style="color:inherit;" xlink:href="textedit:///home/johannes/common-lisp/setzkasten/lilypond-export/b1-c24-m1-c.ly:213:51:52">
<g transform="translate(101.5043, 4.3000)">
<path transform="scale(0.0045, -0.0045)" d="M-50 0c0 28 22 50 50 50s50 -22 50 -50s-22 -50 -50 -50s-50 22 -50 50z" fill="currentColor"/>
</g>
</a>
<g transform="translate(95.5233, 7.8000)">
<path transform="scale(0.0040, -0.0040)" d="M266 -635h-6c-108 0 -195 88 -195 197c0 58 53 103 112 103c54 0 95 -47 95 -103c0 -52 -43 -95 -95 -95c-11 0 -21 2 -31 6c26 -39 68 -65 117 -65h4zM461 -203c68 24 113 95 113 164c0 90 -66 179 -173 190c24 -116 46 -231 60 -354zM74 28c0 -135 129 -247 264 -247
c28 0 55 2 82 6c-14 127 -37 245 -63 364c-79 -8 -124 -61 -124 -119c0 -44 25 -91 81 -123c5 -5 7 -10 7 -15c0 -11 -10 -22 -22 -22c-3 0 -6 1 -9 2c-80 43 -117 115 -117 185c0 88 58 174 160 197c-14 58 -29 117 -46 175c-107 -121 -213 -243 -213 -403zM335 -262
c-188 0 -333 172 -333 374c0 177 131 306 248 441c-19 62 -37 125 -45 190c-6 52 -7 104 -7 156c0 115 55 224 149 292c6 5 14 5 20 0c71 -84 133 -245 133 -358c0 -143 -86 -255 -180 -364c21 -68 39 -138 56 -207c4 0 9 1 13 1c155 0 256 -128 256 -261
c0 -76 -33 -154 -107 -210c-22 -17 -47 -28 -73 -36c3 -35 5 -70 5 -105c0 -19 -1 -39 -2 -58c-7 -119 -88 -225 -202 -228l1 43c93 2 153 92 159 191c1 18 2 37 2 55c0 31 -1 61 -4 92c-29 -5 -58 -8 -89 -8zM428 916c0 55 -4 79 -20 129c-99 -48 -162 -149 -162 -259
c0 -74 18 -133 36 -194c80 97 146 198 146 324z" fill="currentColor"/>
</g>
<g transform="translate(96.1567, 11.3340)">
<text font-family="serif" font-style="italic" font-size="1.3860" text-anchor="start" fill="currentColor">
<tspan>8</tspan>
</text>
</g>
<a style="color:inherit;" xlink:href="textedit:///home/johannes/common-lisp/setzkasten/lilypond-export/b1-c24-m1-c.ly:211:16:17">
</a>
<g transform="translate(94.7445, 14.3478)">
<text font-family="serif" font-size="2.2001" text-anchor="start" fill="currentColor">
<tspan>tono maggiore</tspan>
</text>
</g>
<g transform="translate(97.2881, 17.3478)">
<text font-family="serif" font-size="2.2001" text-anchor="start" fill="currentColor">
<tspan>composto</tspan>
</text>
</g>
<g transform="translate(113.5593, 8.8000)">
<line stroke-linejoin="round" stroke-linecap="round" stroke-width="0.1000" stroke="currentColor" x1="0.0500" y1="0" x2="16.0860" y2="0"/>
</g>
<g transform="translate(113.5593, 7.8000)">
<line stroke-linejoin="round" stroke-linecap="round" stroke-width="0.1000" stroke="currentColor" x1="0.0500" y1="0" x2="16.0860" y2="0"/>
</g>
<g transform="translate(113.5593, 6.8000)">
<line stroke-linejoin="round" stroke-linecap="round" stroke-width="0.1000" stroke="currentColor" x1="0.0500" y1="0" x2="16.0860" y2="0"/>
</g>
<g transform="translate(113.5593, 5.8000)">
<line stroke-linejoin="round" stroke-linecap="round" stroke-width="0.1000" stroke="currentColor" x1="0.0500" y1="0" x2="16.0860" y2="0"/>
</g>
<g transform="translate(113.5593, 4.8000)">
<line stroke-linejoin="round" stroke-linecap="round" stroke-width="0.1000" stroke="currentColor" x1="0.0500" y1="0" x2="16.0860" y2="0"/>
</g>
<a style="color:inherit;" xlink:href="textedit:///home/johannes/common-lisp/setzkasten/lilypond-export/b1-c24-m1-c.ly:248:48:49">
<g transform="translate(122.5213, 6.8000)">
<path transform="scale(0.0040, -0.0040)" d="M213 112c-50 0 -69 -43 -69 -88c0 -77 57 -136 134 -136c50 0 69 43 69 88c0 77 -57 136 -134 136zM491 0c0 -43 -34 -75 -72 -96c-53 -29 -114 -40 -174 -40s-120 11 -173 40c-38 21 -72 53 -72 96s34 75 72 96c53 29 113 40 173 40s121 -11 174 -40
c38 -21 72 -53 72 -96z" fill="currentColor"/>
</g>
</a>
<a style="color:inherit;" xlink:href="textedit:///home/johannes/common-lisp/setzkasten/lilypond-export/b1-c24-m1-c.ly:248:52:53">
<g transform="translate(126.5333, 7.3000)">
<path transform="scale(0.0040, -0.0040)" d="M213 112c-50 0 -69 -43 -69 -88c0 -77 57 -136 134 -136c50 0 69 43 69 88c0 77 -57 136 -134 136zM491 0c0 -43 -34 -75 -72 -96c-53 -29 -114 -40 -174 -40s-120 11 -173 40c-38 21 -72 53 -72 96s34 75 72 96c53 29 113 40 173 40s121 -11 174 -40
c38 -21 72 -53 72 -96z" fill="currentColor"/>
</g>
</a>
<g transform="translate(125.0833, 7.3000)">
<path transform="scale(0.0040, -0.0040)" d="M216 -312c0 -10 -8 -19 -18 -19s-19 9 -19 19v145l-83 -31v-158c0 -10 -9 -19 -19 -19s-18 9 -18 19v145l-32 -12c-2 -1 -5 -1 -7 -1c-11 0 -20 9 -20 20v60c0 8 5 16 13 19l46 16v160l-32 -11c-2 -1 -5 -1 -7 -1c-11 0 -20 9 -20 20v60c0 8 5 15 13 18l46 17v158
c0 10 8 19 18 19s19 -9 19 -19v-145l83 31v158c0 10 9 19 19 19s18 -9 18 -19v-145l32 12c2 1 5 1 7 1c11 0 20 -9 20 -20v-60c0 -8 -5 -16 -13 -19l-46 -16v-160l32 11c2 1 5 1 7 1c11 0 20 -9 20 -20v-60c0 -8 -5 -15 -13 -18l-46 -17v-158zM96 65v-160l83 30v160z" fill="currentColor"/>
</g>
<a style="color:inherit;" xlink:href="textedit:///home/johannes/common-lisp/setzkasten/lilypond-export/b1-c24-m1-c.ly:248:43:44">
<g transform="translate(119.3593, 6.3000)">
<path transform="scale(0.0040, -0.0040)" d="M213 112c-50 0 -69 -43 -69 -88c0 -77 57 -136 134 -136c50 0 69 43 69 88c0 77 -57 136 -134 136zM491 0c0 -43 -34 -75 -72 -96c-53 -29 -114 -40 -174 -40s-120 11 -173 40c-38 21 -72 53 -72 96s34 75 72 96c53 29 113 40 173 40s121 -11 174 -40
c38 -21 72 -53 72 -96z" fill="currentColor"/>
</g>
</a>
<g transform="translate(114.3593, 7.8000)">
<path transform="scale(0.0040, -0.0040)" d="M266 -635h-6c-108 0 -195 88 -195 197c0 58 53 103 112 103c54 0 95 -47 95 -103c0 -52 -43 -95 -95 -95c-11 0 -21 2 -31 6c26 -39 68 -65 117 -65h4zM461 -203c68 24 113 95 113 164c0 90 -66 179 -173 190c24 -116 46 -231 60 -354zM74 28c0 -135 129 -247 264 -247
c28 0 55 2 82 6c-14 127 -37 245 -63 364c-79 -8 -124 -61 -124 -119c0 -44 25 -91 81 -123c5 -5 7 -10 7 -15c0 -11 -10 -22 -22 -22c-3 0 -6 1 -9 2c-80 43 -117 115 -117 185c0 88 58 174 160 197c-14 58 -29 117 -46 175c-107 -121 -213 -243 -213 -403zM335 -262
c-188 0 -333 172 -333 374c0 177 131 306 248 441c-19 62 -37 125 -45 190c-6 52 -7 104 -7 156c0 115 55 224 149 292c6 5 14 5 20 0c71 -84 133 -245 133 -358c0 -143 -86 -255 -180 -364c21 -68 39 -138 56 -207c4 0 9 1 13 1c155 0 256 -128 256 -261
c0 -76 -33 -154 -107 -210c-22 -17 -47 -28 -73 -36c3 -35 5 -70 5 -105c0 -19 -1 -39 -2 -58c-7 -119 -88 -225 -202 -228l1 43c93 2 153 92 159 191c1 18 2 37 2 55c0 31 -1 61 -4 92c-29 -5 -58 -8 -89 -8zM428 916c0 55 -4 79 -20 129c-99 -48 -162 -149 -162 -259
c0 -74 18 -133 36 -194c80 97 146 198 146 324z" fill="currentColor"/>
</g>
<g transform="translate(114.9927, 11.3340)">
<text font-family="serif" font-style="italic" font-size="1.3860" text-anchor="start" fill="currentColor">
<tspan>8</tspan>
</text>
</g>
<a style="color:inherit;" xlink:href="textedit:///home/johannes/common-lisp/setzkasten/lilypond-export/b1-c24-m1-c.ly:246:16:17">
</a>
<g transform="translate(114.0055, 14.3478)">
<text font-family="serif" font-size="2.2001" text-anchor="start" fill="currentColor">
<tspan>tono maggiore</tspan>
</text>
</g>
<g transform="translate(116.5491, 17.3478)">
<text font-family="serif" font-size="2.2001" text-anchor="start" fill="currentColor">
<tspan>composto</tspan>
</text>
</g>
<g transform="translate(134.3802, 8.8000)">
<line stroke-linejoin="round" stroke-linecap="round" stroke-width="0.1000" stroke="currentColor" x1="0.0500" y1="0" x2="12.9240" y2="0"/>
</g>
<g transform="translate(134.3802, 7.8000)">
<line stroke-linejoin="round" stroke-linecap="round" stroke-width="0.1000" stroke="currentColor" x1="0.0500" y1="0" x2="12.9240" y2="0"/>
</g>
<g transform="translate(134.3802, 6.8000)">
<line stroke-linejoin="round" stroke-linecap="round" stroke-width="0.1000" stroke="currentColor" x1="0.0500" y1="0" x2="12.9240" y2="0"/>
</g>
<g transform="translate(134.3802, 5.8000)">
<line stroke-linejoin="round" stroke-linecap="round" stroke-width="0.1000" stroke="currentColor" x1="0.0500" y1="0" x2="12.9240" y2="0"/>
</g>
<g transform="translate(134.3802, 4.8000)">
<line stroke-linejoin="round" stroke-linecap="round" stroke-width="0.1000" stroke="currentColor" x1="0.0500" y1="0" x2="12.9240" y2="0"/>
</g>
<g transform="translate(142.7422, 7.8000)">
<path transform="scale(0.0040, -0.0040)" d="M216 -312c0 -10 -8 -19 -18 -19s-19 9 -19 19v145l-83 -31v-158c0 -10 -9 -19 -19 -19s-18 9 -18 19v145l-32 -12c-2 -1 -5 -1 -7 -1c-11 0 -20 9 -20 20v60c0 8 5 16 13 19l46 16v160l-32 -11c-2 -1 -5 -1 -7 -1c-11 0 -20 9 -20 20v60c0 8 5 15 13 18l46 17v158
c0 10 8 19 18 19s19 -9 19 -19v-145l83 31v158c0 10 9 19 19 19s18 -9 18 -19v-145l32 12c2 1 5 1 7 1c11 0 20 -9 20 -20v-60c0 -8 -5 -16 -13 -19l-46 -16v-160l32 11c2 1 5 1 7 1c11 0 20 -9 20 -20v-60c0 -8 -5 -15 -13 -18l-46 -17v-158zM96 65v-160l83 30v160z" fill="currentColor"/>
</g>
<a style="color:inherit;" xlink:href="textedit:///home/johannes/common-lisp/setzkasten/lilypond-export/b1-c24-m1-c.ly:283:49:50">
<g transform="translate(144.1922, 7.8000)">
<path transform="scale(0.0040, -0.0040)" d="M213 112c-50 0 -69 -43 -69 -88c0 -77 57 -136 134 -136c50 0 69 43 69 88c0 77 -57 136 -134 136zM491 0c0 -43 -34 -75 -72 -96c-53 -29 -114 -40 -174 -40s-120 11 -173 40c-38 21 -72 53 -72 96s34 75 72 96c53 29 113 40 173 40s121 -11 174 -40
c38 -21 72 -53 72 -96z" fill="currentColor"/>
</g>
</a>
<g transform="translate(139.0302, 6.8000)">
<path transform="scale(0.0040, -0.0040)" d="M27 41l-1 -66v-11c0 -22 1 -44 4 -66c45 38 93 80 93 139c0 33 -14 67 -43 67c-31 0 -52 -30 -53 -63zM-15 -138l-12 595c8 5 18 8 27 8s19 -3 27 -8l-7 -345c25 21 58 34 91 34c52 0 89 -48 89 -102c0 -80 -86 -117 -147 -169c-15 -13 -24 -38 -45 -38
c-13 0 -23 11 -23 25z" fill="currentColor"/>
</g>
<a style="color:inherit;" xlink:href="textedit:///home/johannes/common-lisp/setzkasten/lilypond-export/b1-c24-m1-c.ly:281:16:17">
</a>
<g transform="translate(135.8136, 11.3340)">
<text font-family="serif" font-style="italic" font-size="1.3860" text-anchor="start" fill="currentColor">
<tspan>8</tspan>
</text>
</g>
<g transform="translate(135.1802, 7.8000)">
<path transform="scale(0.0040, -0.0040)" d="M266 -635h-6c-108 0 -195 88 -195 197c0 58 53 103 112 103c54 0 95 -47 95 -103c0 -52 -43 -95 -95 -95c-11 0 -21 2 -31 6c26 -39 68 -65 117 -65h4zM461 -203c68 24 113 95 113 164c0 90 -66 179 -173 190c24 -116 46 -231 60 -354zM74 28c0 -135 129 -247 264 -247
c28 0 55 2 82 6c-14 127 -37 245 -63 364c-79 -8 -124 -61 -124 -119c0 -44 25 -91 81 -123c5 -5 7 -10 7 -15c0 -11 -10 -22 -22 -22c-3 0 -6 1 -9 2c-80 43 -117 115 -117 185c0 88 58 174 160 197c-14 58 -29 117 -46 175c-107 -121 -213 -243 -213 -403zM335 -262
c-188 0 -333 172 -333 374c0 177 131 306 248 441c-19 62 -37 125 -45 190c-6 52 -7 104 -7 156c0 115 55 224 149 292c6 5 14 5 20 0c71 -84 133 -245 133 -358c0 -143 -86 -255 -180 -364c21 -68 39 -138 56 -207c4 0 9 1 13 1c155 0 256 -128 256 -261
c0 -76 -33 -154 -107 -210c-22 -17 -47 -28 -73 -36c3 -35 5 -70 5 -105c0 -19 -1 -39 -2 -58c-7 -119 -88 -225 -202 -228l1 43c93 2 153 92 159 191c1 18 2 37 2 55c0 31 -1 61 -4 92c-29 -5 -58 -8 -89 -8zM428 916c0 55 -4 79 -20 129c-99 -48 -162 -149 -162 -259
c0 -74 18 -133 36 -194c80 97 146 198 146 324z" fill="currentColor"/>
</g>
<a style="color:inherit;" xlink:href="textedit:///home/johannes/common-lisp/setzkasten/lilypond-export/b1-c24-m1-c.ly:283:43:44">
<g transform="translate(140.1802, 6.8000)">
<path transform="scale(0.0040, -0.0040)" d="M213 112c-50 0 -69 -43 -69 -88c0 -77 57 -136 134 -136c50 0 69 43 69 88c0 77 -57 136 -134 136zM491 0c0 -43 -34 -75 -72 -96c-53 -29 -114 -40 -174 -40s-120 11 -173 40c-38 21 -72 53 -72 96s34 75 72 96c53 29 113 40 173 40s121 -11 174 -40
c38 -21 72 -53 72 -96z" fill="currentColor"/>
</g>
</a>
<g transform="translate(133.2453, 14.3478)">
<text font-family="serif" font-size="2.2001" text-anchor="start" fill="currentColor">
<tspan>tono maggiore</tspan>
</text>
</g>
<g transform="translate(134.7135, 17.3478)">
<text font-family="serif" font-size="2.2001" text-anchor="start" fill="currentColor">
<tspan>incomposto</tspan>
</text>
</g>
<g transform="translate(153.1740, 8.8000)">
<line stroke-linejoin="round" stroke-linecap="round" stroke-width="0.1000" stroke="currentColor" x1="0.0500" y1="0" x2="12.9240" y2="0"/>
</g>
<g transform="translate(153.1740, 7.8000)">
<line stroke-linejoin="round" stroke-linecap="round" stroke-width="0.1000" stroke="currentColor" x1="0.0500" y1="0" x2="12.9240" y2="0"/>
</g>
<g transform="translate(153.1740, 6.8000)">
<line stroke-linejoin="round" stroke-linecap="round" stroke-width="0.1000" stroke="currentColor" x1="0.0500" y1="0" x2="12.9240" y2="0"/>
</g>
<g transform="translate(153.1740, 5.8000)">
<line stroke-linejoin="round" stroke-linecap="round" stroke-width="0.1000" stroke="currentColor" x1="0.0500" y1="0" x2="12.9240" y2="0"/>
</g>
<g transform="translate(153.1740, 4.8000)">
<line stroke-linejoin="round" stroke-linecap="round" stroke-width="0.1000" stroke="currentColor" x1="0.0500" y1="0" x2="12.9240" y2="0"/>
</g>
<g transform="translate(161.5360, 9.3000)">
<path transform="scale(0.0040, -0.0040)" d="M216 -312c0 -10 -8 -19 -18 -19s-19 9 -19 19v145l-83 -31v-158c0 -10 -9 -19 -19 -19s-18 9 -18 19v145l-32 -12c-2 -1 -5 -1 -7 -1c-11 0 -20 9 -20 20v60c0 8 5 16 13 19l46 16v160l-32 -11c-2 -1 -5 -1 -7 -1c-11 0 -20 9 -20 20v60c0 8 5 15 13 18l46 17v158
c0 10 8 19 18 19s19 -9 19 -19v-145l83 31v158c0 10 9 19 19 19s18 -9 18 -19v-145l32 12c2 1 5 1 7 1c11 0 20 -9 20 -20v-60c0 -8 -5 -16 -13 -19l-46 -16v-160l32 11c2 1 5 1 7 1c11 0 20 -9 20 -20v-60c0 -8 -5 -15 -13 -18l-46 -17v-158zM96 65v-160l83 30v160z" fill="currentColor"/>
</g>
<a style="color:inherit;" xlink:href="textedit:///home/johannes/common-lisp/setzkasten/lilypond-export/b1-c24-m1-c.ly:318:47:48">
<g transform="translate(162.9860, 9.3000)">
<path transform="scale(0.0040, -0.0040)" d="M213 112c-50 0 -69 -43 -69 -88c0 -77 57 -136 134 -136c50 0 69 43 69 88c0 77 -57 136 -134 136zM491 0c0 -43 -34 -75 -72 -96c-53 -29 -114 -40 -174 -40s-120 11 -173 40c-38 21 -72 53 -72 96s34 75 72 96c53 29 113 40 173 40s121 -11 174 -40
c38 -21 72 -53 72 -96z" fill="currentColor"/>
</g>
</a>
<a style="color:inherit;" xlink:href="textedit:///home/johannes/common-lisp/setzkasten/lilypond-export/b1-c24-m1-c.ly:316:16:17">
</a>
<g transform="translate(154.6074, 11.3340)">
<text font-family="serif" font-style="italic" font-size="1.3860" text-anchor="start" fill="currentColor">
<tspan>8</tspan>
</text>
</g>
<g transform="translate(153.9740, 7.8000)">
<path transform="scale(0.0040, -0.0040)" d="M266 -635h-6c-108 0 -195 88 -195 197c0 58 53 103 112 103c54 0 95 -47 95 -103c0 -52 -43 -95 -95 -95c-11 0 -21 2 -31 6c26 -39 68 -65 117 -65h4zM461 -203c68 24 113 95 113 164c0 90 -66 179 -173 190c24 -116 46 -231 60 -354zM74 28c0 -135 129 -247 264 -247
c28 0 55 2 82 6c-14 127 -37 245 -63 364c-79 -8 -124 -61 -124 -119c0 -44 25 -91 81 -123c5 -5 7 -10 7 -15c0 -11 -10 -22 -22 -22c-3 0 -6 1 -9 2c-80 43 -117 115 -117 185c0 88 58 174 160 197c-14 58 -29 117 -46 175c-107 -121 -213 -243 -213 -403zM335 -262
c-188 0 -333 172 -333 374c0 177 131 306 248 441c-19 62 -37 125 -45 190c-6 52 -7 104 -7 156c0 115 55 224 149 292c6 5 14 5 20 0c71 -84 133 -245 133 -358c0 -143 -86 -255 -180 -364c21 -68 39 -138 56 -207c4 0 9 1 13 1c155 0 256 -128 256 -261
c0 -76 -33 -154 -107 -210c-22 -17 -47 -28 -73 -36c3 -35 5 -70 5 -105c0 -19 -1 -39 -2 -58c-7 -119 -88 -225 -202 -228l1 43c93 2 153 92 159 191c1 18 2 37 2 55c0 31 -1 61 -4 92c-29 -5 -58 -8 -89 -8zM428 916c0 55 -4 79 -20 129c-99 -48 -162 -149 -162 -259
c0 -74 18 -133 36 -194c80 97 146 198 146 324z" fill="currentColor"/>
</g>
<a style="color:inherit;" xlink:href="textedit:///home/johannes/common-lisp/setzkasten/lilypond-export/b1-c24-m1-c.ly:318:43:44">
<g transform="translate(158.9740, 8.3000)">
<path transform="scale(0.0040, -0.0040)" d="M213 112c-50 0 -69 -43 -69 -88c0 -77 57 -136 134 -136c50 0 69 43 69 88c0 77 -57 136 -134 136zM491 0c0 -43 -34 -75 -72 -96c-53 -29 -114 -40 -174 -40s-120 11 -173 40c-38 21 -72 53 -72 96s34 75 72 96c53 29 113 40 173 40s121 -11 174 -40
c38 -21 72 -53 72 -96z" fill="currentColor"/>
</g>
</a>
<g transform="translate(152.0391, 14.3478)">
<text font-family="serif" font-size="2.2001" text-anchor="start" fill="currentColor">
<tspan>tono maggiore</tspan>
</text>
</g>
<g transform="translate(153.5073, 17.3478)">
<text font-family="serif" font-size="2.2001" text-anchor="start" fill="currentColor">
<tspan>incomposto</tspan>
</text>
</g>
</svg>
