<svg xmlns="http://www.w3.org/2000/svg" xmlns:xlink="http://www.w3.org/1999/xlink" version="1.2" width="209.53mm" height="69.47mm" viewBox="0.0000 -2.3640 119.2345 39.5340">
<style type="text/css">
<![CDATA[
tspan { white-space: pre; }
]]>
</style>
<g transform="translate(3.6905, -0.0000)">
<text font-family="serif" font-size="3.1115" text-anchor="start" fill="currentColor">
<tspan>Essempio dei gradi di terza minore accidentale, composti e incomposti</tspan>
</text>
</g>
<g transform="translate(5.3434, 6.0000)">
<text font-family="serif" font-size="2.2001" text-anchor="start" fill="currentColor">
<tspan>grado di 3 minore</tspan>
</text>
</g>
<g transform="translate(2.1510, 9.0000)">
<text font-family="serif" font-size="2.2001" text-anchor="start" fill="currentColor">
<tspan>accidentale incomposto</tspan>
</text>
</g>
<g transform="translate(9.8115, 17.2000)">
<line stroke-linejoin="round" stroke-linecap="round" stroke-width="0.1000" stroke="currentColor" x1="0.0500" y1="0" x2="11.0376" y2="0"/>
</g>
<g transform="translate(9.8115, 16.2000)">
<line stroke-linejoin="round" stroke-linecap="round" stroke-width="0.1000" stroke="currentColor" x1="0.0500" y1="0" x2="11.0376" y2="0"/>
</g>
<g transform="translate(9.8115, 15.2000)">
<line stroke-linejoin="round" stroke-linecap="round" stroke-width="0.1000" stroke="currentColor" x1="0.0500" y1="0" x2="11.0376" y2="0"/>
</g>
<g transform="translate(9.8115, 14.2000)">
<line stroke-linejoin="round" stroke-linecap="round" stroke-width="0.1000" stroke="currentColor" x1="0.0500" y1="0" x2="11.0376" y2="0"/>
</g>
<g transform="translate(9.8115, 13.2000)">
<line stroke-linejoin="round" stroke-linecap="round" stroke-width="0.1000" stroke="currentColor" x1="0.0500" y1="0" x2="11.0376" y2="0"/>
</g>
<g transform="translate(17.4403, 16.7000)">
<path transform="scale(0.0040, -0.0040)" d="M27 41l-1 -66v-11c0 -22 1 -44 4 -66c45 38 93 80 93 139c0 33 -14 67 -43 67c-31 0 -52 -30 -53 -63zM-15 -138l-12 595c8 5 18 8 27 8s19 -3 27 -8l-7 -345c25 21 58 34 91 34c52 0 89 -48 89 -102c0 -80 -86 -117 -147 -169c-15 -13 -24 -38 -45 -38
c-13 0 -23 11 -23 25z" fill="currentColor"/>
</g>
<a style="color:inherit;" xlink:href="textedit:///home/johannes/common-lisp/setzkasten/lilypond-export/b1-c27-m1-d-orig.ly:47:48:49">
<g transform="translate(18.5903, 16.7000)">
<path transform="scale(0.0040, -0.0040)" d="M73 54c-1 -2 -2 -4 -2 -6s1 -4 2 -6l91 -129c2 -3 5 -4 8 -4s7 1 9 4l23 33c1 2 2 4 2 6s-1 4 -2 6l-91 129c-2 3 -5 4 -8 4s-6 -1 -8 -4zM2 -6c-1 2 -2 4 -2 6s1 4 2 6l128 182c2 3 6 4 9 4s6 -1 8 -4l128 -182c1 -2 2 -4 2 -6s-1 -4 -2 -6l-128 -182c-2 -3 -5 -4 -8 -4
s-7 1 -9 4z" fill="currentColor"/>
</g>
</a>
<a style="color:inherit;" xlink:href="textedit:///home/johannes/common-lisp/setzkasten/lilypond-export/b1-c27-m1-d-orig.ly:45:16:17">
</a>
<g transform="translate(10.6115, 14.2000)">
<path transform="scale(0.0040, -0.0040)" d="M35 -104v-42c0 -6 4 -10 10 -10h195c6 0 10 4 10 10v42c0 6 -4 10 -10 10h-195c-6 0 -10 -4 -10 -10zM35 146v-42c0 -6 4 -10 10 -10h195c6 0 10 4 10 10v42c0 6 -4 10 -10 10h-195c-6 0 -10 -4 -10 -10zM0 0v540c0 7 9 10 18 10s17 -3 17 -10v-311c0 -6 4 -10 10 -10
h195c6 0 10 4 10 10v83c0 7 9 10 18 10s17 -3 17 -10v-271c0 -6 -4 -10 -10 -10h-230c-6 0 -10 -4 -10 -10v-42c0 -6 4 -10 10 -10h230c6 0 10 -4 10 -10v-271c0 -7 -8 -10 -17 -10s-18 3 -18 10v83c0 6 -4 10 -10 10h-195c-6 0 -10 -4 -10 -10v-311c0 -7 -8 -10 -17 -10
s-18 3 -18 10v540z" fill="currentColor"/>
</g>
<a style="color:inherit;" xlink:href="textedit:///home/johannes/common-lisp/setzkasten/lilypond-export/b1-c27-m1-d-orig.ly:47:43:44">
<g transform="translate(15.6115, 17.7000)">
<path transform="scale(0.0040, -0.0040)" d="M73 54c-1 -2 -2 -4 -2 -6s1 -4 2 -6l91 -129c2 -3 5 -4 8 -4s7 1 9 4l23 33c1 2 2 4 2 6s-1 4 -2 6l-91 129c-2 3 -5 4 -8 4s-6 -1 -8 -4zM2 -6c-1 2 -2 4 -2 6s1 4 2 6l128 182c2 3 6 4 9 4s6 -1 8 -4l128 -182c1 -2 2 -4 2 -6s-1 -4 -2 -6l-128 -182c-2 -3 -5 -4 -8 -4
s-7 1 -9 4z" fill="currentColor"/>
</g>
</a>
<g transform="translate(34.2265, 6.0000)">
<text font-family="serif" font-size="2.2001" text-anchor="start" fill="currentColor">
<tspan>grado di 3 minore</tspan>
</text>
</g>
<g transform="translate(32.1097, 9.0000)">
<text font-family="serif" font-size="2.2001" text-anchor="start" fill="currentColor">
<tspan>accidentale composto</tspan>
</text>
</g>
<g transform="translate(37.5403, 17.2000)">
<line stroke-linejoin="round" stroke-linecap="round" stroke-width="0.1000" stroke="currentColor" x1="0.0500" y1="0" x2="13.3464" y2="0"/>
</g>
<g transform="translate(37.5403, 16.2000)">
<line stroke-linejoin="round" stroke-linecap="round" stroke-width="0.1000" stroke="currentColor" x1="0.0500" y1="0" x2="13.3464" y2="0"/>
</g>
<g transform="translate(37.5403, 15.2000)">
<line stroke-linejoin="round" stroke-linecap="round" stroke-width="0.1000" stroke="currentColor" x1="0.0500" y1="0" x2="13.3464" y2="0"/>
</g>
<g transform="translate(37.5403, 14.2000)">
<line stroke-linejoin="round" stroke-linecap="round" stroke-width="0.1000" stroke="currentColor" x1="0.0500" y1="0" x2="13.3464" y2="0"/>
</g>
<g transform="translate(37.5403, 13.2000)">
<line stroke-linejoin="round" stroke-linecap="round" stroke-width="0.1000" stroke="currentColor" x1="0.0500" y1="0" x2="13.3464" y2="0"/>
</g>
<a style="color:inherit;" xlink:href="textedit:///home/johannes/common-lisp/setzkasten/lilypond-export/b1-c27-m1-d-orig.ly:84:49:50">
<g transform="translate(45.6491, 16.2000)">
<path transform="scale(0.0040, -0.0040)" d="M73 54c-1 -2 -2 -4 -2 -6s1 -4 2 -6l91 -129c2 -3 5 -4 8 -4s7 1 9 4l23 33c1 2 2 4 2 6s-1 4 -2 6l-91 129c-2 3 -5 4 -8 4s-6 -1 -8 -4zM2 -6c-1 2 -2 4 -2 6s1 4 2 6l128 182c2 3 6 4 9 4s6 -1 8 -4l128 -182c1 -2 2 -4 2 -6s-1 -4 -2 -6l-128 -182c-2 -3 -5 -4 -8 -4
s-7 1 -9 4z" fill="currentColor"/>
</g>
</a>
<a style="color:inherit;" xlink:href="textedit:///home/johannes/common-lisp/setzkasten/lilypond-export/b1-c27-m1-d-orig.ly:84:54:55">
<g transform="translate(48.6279, 15.7000)">
<path transform="scale(0.0040, -0.0040)" d="M73 54c-1 -2 -2 -4 -2 -6s1 -4 2 -6l91 -129c2 -3 5 -4 8 -4s7 1 9 4l23 33c1 2 2 4 2 6s-1 4 -2 6l-91 129c-2 3 -5 4 -8 4s-6 -1 -8 -4zM2 -6c-1 2 -2 4 -2 6s1 4 2 6l128 182c2 3 6 4 9 4s6 -1 8 -4l128 -182c1 -2 2 -4 2 -6s-1 -4 -2 -6l-128 -182c-2 -3 -5 -4 -8 -4
s-7 1 -9 4z" fill="currentColor"/>
</g>
</a>
<g transform="translate(47.4779, 15.7000)">
<path transform="scale(0.0040, -0.0040)" d="M27 41l-1 -66v-11c0 -22 1 -44 4 -66c45 38 93 80 93 139c0 33 -14 67 -43 67c-31 0 -52 -30 -53 -63zM-15 -138l-12 595c8 5 18 8 27 8s19 -3 27 -8l-7 -345c25 21 58 34 91 34c52 0 89 -48 89 -102c0 -80 -86 -117 -147 -169c-15 -13 -24 -38 -45 -38
c-13 0 -23 11 -23 25z" fill="currentColor"/>
</g>
<g transform="translate(42.1903, 16.7000)">
<path transform="scale(0.0040, -0.0040)" d="M27 41l-1 -66v-11c0 -22 1 -44 4 -66c45 38 93 80 93 139c0 33 -14 67 -43 67c-31 0 -52 -30 -53 -63zM-15 -138l-12 595c8 5 18 8 27 8s19 -3 27 -8l-7 -345c25 21 58 34 91 34c52 0 89 -48 89 -102c0 -80 -86 -117 -147 -169c-15 -13 -24 -38 -45 -38
c-13 0 -23 11 -23 25z" fill="currentColor"/>
</g>
<a style="color:inherit;" xlink:href="textedit:///home/johannes/common-lisp/setzkasten/lilypond-export/b1-c27-m1-d-orig.ly:84:43:44">
<g transform="translate(43.3403, 16.7000)">
<path transform="scale(0.0040, -0.0040)" d="M73 54c-1 -2 -2 -4 -2 -6s1 -4 2 -6l91 -129c2 -3 5 -4 8 -4s7 1 9 4l23 33c1 2 2 4 2 6s-1 4 -2 6l-91 129c-2 3 -5 4 -8 4s-6 -1 -8 -4zM2 -6c-1 2 -2 4 -2 6s1 4 2 6l128 182c2 3 6 4 9 4s6 -1 8 -4l128 -182c1 -2 2 -4 2 -6s-1 -4 -2 -6l-128 -182c-2 -3 -5 -4 -8 -4
s-7 1 -9 4z" fill="currentColor"/>
</g>
</a>
<g transform="translate(38.3403, 14.2000)">
<path transform="scale(0.0040, -0.0040)" d="M35 -104v-42c0 -6 4 -10 10 -10h195c6 0 10 4 10 10v42c0 6 -4 10 -10 10h-195c-6 0 -10 -4 -10 -10zM35 146v-42c0 -6 4 -10 10 -10h195c6 0 10 4 10 10v42c0 6 -4 10 -10 10h-195c-6 0 -10 -4 -10 -10zM0 0v540c0 7 9 10 18 10s17 -3 17 -10v-311c0 -6 4 -10 10 -10
h195c6 0 10 4 10 10v83c0 7 9 10 18 10s17 -3 17 -10v-271c0 -6 -4 -10 -10 -10h-230c-6 0 -10 -4 -10 -10v-42c0 -6 4 -10 10 -10h230c6 0 10 -4 10 -10v-271c0 -7 -8 -10 -17 -10s-18 3 -18 10v83c0 6 -4 10 -10 10h-195c-6 0 -10 -4 -10 -10v-311c0 -7 -8 -10 -17 -10
s-18 3 -18 10v540z" fill="currentColor"/>
</g>
<a style="color:inherit;" xlink:href="textedit:///home/johannes/common-lisp/setzkasten/lilypond-export/b1-c27-m1-d-orig.ly:82:16:17">
</a>
<g transform="translate(63.1097, 6.0000)">
<text font-family="serif" font-size="2.2001" text-anchor="start" fill="currentColor">
<tspan>grado di 3 minore</tspan>
</text>
</g>
<g transform="translate(59.9173, 9.0000)">
<text font-family="serif" font-size="2.2001" text-anchor="start" fill="currentColor">
<tspan>accidentale incomposto</tspan>
</text>
</g>
<g transform="translate(67.9128, 17.2000)">
<line stroke-linejoin="round" stroke-linecap="round" stroke-width="0.1000" stroke="currentColor" x1="0.0500" y1="0" x2="10.3676" y2="0"/>
</g>
<g transform="translate(67.9128, 16.2000)">
<line stroke-linejoin="round" stroke-linecap="round" stroke-width="0.1000" stroke="currentColor" x1="0.0500" y1="0" x2="10.3676" y2="0"/>
</g>
<g transform="translate(67.9128, 15.2000)">
<line stroke-linejoin="round" stroke-linecap="round" stroke-width="0.1000" stroke="currentColor" x1="0.0500" y1="0" x2="10.3676" y2="0"/>
</g>
<g transform="translate(67.9128, 14.2000)">
<line stroke-linejoin="round" stroke-linecap="round" stroke-width="0.1000" stroke="currentColor" x1="0.0500" y1="0" x2="10.3676" y2="0"/>
</g>
<g transform="translate(67.9128, 13.2000)">
<line stroke-linejoin="round" stroke-linecap="round" stroke-width="0.1000" stroke="currentColor" x1="0.0500" y1="0" x2="10.3676" y2="0"/>
</g>
<a style="color:inherit;" xlink:href="textedit:///home/johannes/common-lisp/setzkasten/lilypond-export/b1-c27-m1-d-orig.ly:121:56:57">
<g transform="translate(76.5760, 12.7000)">
<path transform="scale(0.0045, -0.0045)" d="M-50 0c0 28 22 50 50 50s50 -22 50 -50s-22 -50 -50 -50s-50 22 -50 50z" fill="currentColor"/>
</g>
</a>
<a style="color:inherit;" xlink:href="textedit:///home/johannes/common-lisp/setzkasten/lilypond-export/b1-c27-m1-d-orig.ly:121:54:55">
<g transform="translate(76.0216, 14.7000)">
<path transform="scale(0.0040, -0.0040)" d="M73 54c-1 -2 -2 -4 -2 -6s1 -4 2 -6l91 -129c2 -3 5 -4 8 -4s7 1 9 4l23 33c1 2 2 4 2 6s-1 4 -2 6l-91 129c-2 3 -5 4 -8 4s-6 -1 -8 -4zM2 -6c-1 2 -2 4 -2 6s1 4 2 6l128 182c2 3 6 4 9 4s6 -1 8 -4l128 -182c1 -2 2 -4 2 -6s-1 -4 -2 -6l-128 -182c-2 -3 -5 -4 -8 -4
s-7 1 -9 4z" fill="currentColor"/>
</g>
</a>
<g transform="translate(72.5628, 15.2000)">
<path transform="scale(0.0040, -0.0040)" d="M27 41l-1 -66v-11c0 -22 1 -44 4 -66c45 38 93 80 93 139c0 33 -14 67 -43 67c-31 0 -52 -30 -53 -63zM-15 -138l-12 595c8 5 18 8 27 8s19 -3 27 -8l-7 -345c25 21 58 34 91 34c52 0 89 -48 89 -102c0 -80 -86 -117 -147 -169c-15 -13 -24 -38 -45 -38
c-13 0 -23 11 -23 25z" fill="currentColor"/>
</g>
<a style="color:inherit;" xlink:href="textedit:///home/johannes/common-lisp/setzkasten/lilypond-export/b1-c27-m1-d-orig.ly:119:16:17">
</a>
<g transform="translate(68.7128, 14.2000)">
<path transform="scale(0.0040, -0.0040)" d="M35 -104v-42c0 -6 4 -10 10 -10h195c6 0 10 4 10 10v42c0 6 -4 10 -10 10h-195c-6 0 -10 -4 -10 -10zM35 146v-42c0 -6 4 -10 10 -10h195c6 0 10 4 10 10v42c0 6 -4 10 -10 10h-195c-6 0 -10 -4 -10 -10zM0 0v540c0 7 9 10 18 10s17 -3 17 -10v-311c0 -6 4 -10 10 -10
h195c6 0 10 4 10 10v83c0 7 9 10 18 10s17 -3 17 -10v-271c0 -6 -4 -10 -10 -10h-230c-6 0 -10 -4 -10 -10v-42c0 -6 4 -10 10 -10h230c6 0 10 -4 10 -10v-271c0 -7 -8 -10 -17 -10s-18 3 -18 10v83c0 6 -4 10 -10 10h-195c-6 0 -10 -4 -10 -10v-311c0 -7 -8 -10 -17 -10
s-18 3 -18 10v540z" fill="currentColor"/>
</g>
<a style="color:inherit;" xlink:href="textedit:///home/johannes/common-lisp/setzkasten/lilypond-export/b1-c27-m1-d-orig.ly:121:43:44">
<g transform="translate(73.7128, 15.2000)">
<path transform="scale(0.0040, -0.0040)" d="M73 54c-1 -2 -2 -4 -2 -6s1 -4 2 -6l91 -129c2 -3 5 -4 8 -4s7 1 9 4l23 33c1 2 2 4 2 6s-1 4 -2 6l-91 129c-2 3 -5 4 -8 4s-6 -1 -8 -4zM2 -6c-1 2 -2 4 -2 6s1 4 2 6l128 182c2 3 6 4 9 4s6 -1 8 -4l128 -182c1 -2 2 -4 2 -6s-1 -4 -2 -6l-128 -182c-2 -3 -5 -4 -8 -4
s-7 1 -9 4z" fill="currentColor"/>
</g>
</a>
<g transform="translate(91.9928, 6.0000)">
<text font-family="serif" font-size="2.2001" text-anchor="start" fill="currentColor">
<tspan>grado di 3 minore</tspan>
</text>
</g>
<g transform="translate(89.8759, 9.0000)">
<text font-family="serif" font-size="2.2001" text-anchor="start" fill="currentColor">
<tspan>accidentale composto</tspan>
</text>
</g>
<g transform="translate(94.7915, 17.2000)">
<line stroke-linejoin="round" stroke-linecap="round" stroke-width="0.1000" stroke="currentColor" x1="0.0500" y1="0" x2="14.3764" y2="0"/>
</g>
<g transform="translate(94.7915, 16.2000)">
<line stroke-linejoin="round" stroke-linecap="round" stroke-width="0.1000" stroke="currentColor" x1="0.0500" y1="0" x2="14.3764" y2="0"/>
</g>
<g transform="translate(94.7915, 15.2000)">
<line stroke-linejoin="round" stroke-linecap="round" stroke-width="0.1000" stroke="currentColor" x1="0.0500" y1="0" x2="14.3764" y2="0"/>
</g>
<g transform="translate(94.7915, 14.2000)">
<line stroke-linejoin="round" stroke-linecap="round" stroke-width="0.1000" stroke="currentColor" x1="0.0500" y1="0" x2="14.3764" y2="0"/>
</g>
<g transform="translate(94.7915, 13.2000)">
<line stroke-linejoin="round" stroke-linecap="round" stroke-width="0.1000" stroke="currentColor" x1="0.0500" y1="0" x2="14.3764" y2="0"/>
</g>
<a style="color:inherit;" xlink:href="textedit:///home/johannes/common-lisp/setzkasten/lilypond-export/b1-c27-m1-d-orig.ly:158:51:52">
<g transform="translate(103.7503, 14.2000)">
<path transform="scale(0.0040, -0.0040)" d="M73 54c-1 -2 -2 -4 -2 -6s1 -4 2 -6l91 -129c2 -3 5 -4 8 -4s7 1 9 4l23 33c1 2 2 4 2 6s-1 4 -2 6l-91 129c-2 3 -5 4 -8 4s-6 -1 -8 -4zM2 -6c-1 2 -2 4 -2 6s1 4 2 6l128 182c2 3 6 4 9 4s6 -1 8 -4l128 -182c1 -2 2 -4 2 -6s-1 -4 -2 -6l-128 -182c-2 -3 -5 -4 -8 -4
s-7 1 -9 4z" fill="currentColor"/>
</g>
</a>
<g transform="translate(102.3003, 14.2000)">
<path transform="scale(0.0040, -0.0040)" d="M216 -312c0 -10 -8 -19 -18 -19s-19 9 -19 19v145l-83 -31v-158c0 -10 -9 -19 -19 -19s-18 9 -18 19v145l-32 -12c-2 -1 -5 -1 -7 -1c-11 0 -20 9 -20 20v60c0 8 5 16 13 19l46 16v160l-32 -11c-2 -1 -5 -1 -7 -1c-11 0 -20 9 -20 20v60c0 8 5 15 13 18l46 17v158
c0 10 8 19 18 19s19 -9 19 -19v-145l83 31v158c0 10 9 19 19 19s18 -9 18 -19v-145l32 12c2 1 5 1 7 1c11 0 20 -9 20 -20v-60c0 -8 -5 -16 -13 -19l-46 -16v-160l32 11c2 1 5 1 7 1c11 0 20 -9 20 -20v-60c0 -8 -5 -15 -13 -18l-46 -17v-158zM96 65v-160l83 30v160z" fill="currentColor"/>
</g>
<a style="color:inherit;" xlink:href="textedit:///home/johannes/common-lisp/setzkasten/lilypond-export/b1-c27-m1-d-orig.ly:158:59:60">
<g transform="translate(106.9091, 14.7000)">
<path transform="scale(0.0040, -0.0040)" d="M73 54c-1 -2 -2 -4 -2 -6s1 -4 2 -6l91 -129c2 -3 5 -4 8 -4s7 1 9 4l23 33c1 2 2 4 2 6s-1 4 -2 6l-91 129c-2 3 -5 4 -8 4s-6 -1 -8 -4zM2 -6c-1 2 -2 4 -2 6s1 4 2 6l128 182c2 3 6 4 9 4s6 -1 8 -4l128 -182c1 -2 2 -4 2 -6s-1 -4 -2 -6l-128 -182c-2 -3 -5 -4 -8 -4
s-7 1 -9 4z" fill="currentColor"/>
</g>
</a>
<g transform="translate(105.4591, 14.7000)">
<path transform="scale(0.0040, -0.0040)" d="M216 -312c0 -10 -8 -19 -18 -19s-19 9 -19 19v145l-83 -31v-158c0 -10 -9 -19 -19 -19s-18 9 -18 19v145l-32 -12c-2 -1 -5 -1 -7 -1c-11 0 -20 9 -20 20v60c0 8 5 16 13 19l46 16v160l-32 -11c-2 -1 -5 -1 -7 -1c-11 0 -20 9 -20 20v60c0 8 5 15 13 18l46 17v158
c0 10 8 19 18 19s19 -9 19 -19v-145l83 31v158c0 10 9 19 19 19s18 -9 18 -19v-145l32 12c2 1 5 1 7 1c11 0 20 -9 20 -20v-60c0 -8 -5 -16 -13 -19l-46 -16v-160l32 11c2 1 5 1 7 1c11 0 20 -9 20 -20v-60c0 -8 -5 -15 -13 -18l-46 -17v-158zM96 65v-160l83 30v160z" fill="currentColor"/>
</g>
<a style="color:inherit;" xlink:href="textedit:///home/johannes/common-lisp/setzkasten/lilypond-export/b1-c27-m1-d-orig.ly:158:43:44">
<g transform="translate(100.5915, 13.7000)">
<path transform="scale(0.0040, -0.0040)" d="M73 54c-1 -2 -2 -4 -2 -6s1 -4 2 -6l91 -129c2 -3 5 -4 8 -4s7 1 9 4l23 33c1 2 2 4 2 6s-1 4 -2 6l-91 129c-2 3 -5 4 -8 4s-6 -1 -8 -4zM2 -6c-1 2 -2 4 -2 6s1 4 2 6l128 182c2 3 6 4 9 4s6 -1 8 -4l128 -182c1 -2 2 -4 2 -6s-1 -4 -2 -6l-128 -182c-2 -3 -5 -4 -8 -4
s-7 1 -9 4z" fill="currentColor"/>
</g>
</a>
<g transform="translate(95.5915, 14.2000)">
<path transform="scale(0.0040, -0.0040)" d="M35 -104v-42c0 -6 4 -10 10 -10h195c6 0 10 4 10 10v42c0 6 -4 10 -10 10h-195c-6 0 -10 -4 -10 -10zM35 146v-42c0 -6 4 -10 10 -10h195c6 0 10 4 10 10v42c0 6 -4 10 -10 10h-195c-6 0 -10 -4 -10 -10zM0 0v540c0 7 9 10 18 10s17 -3 17 -10v-311c0 -6 4 -10 10 -10
h195c6 0 10 4 10 10v83c0 7 9 10 18 10s17 -3 17 -10v-271c0 -6 -4 -10 -10 -10h-230c-6 0 -10 -4 -10 -10v-42c0 -6 4 -10 10 -10h230c6 0 10 -4 10 -10v-271c0 -7 -8 -10 -17 -10s-18 3 -18 10v83c0 6 -4 10 -10 10h-195c-6 0 -10 -4 -10 -10v-311c0 -7 -8 -10 -17 -10
s-18 3 -18 10v540z" fill="currentColor"/>
</g>
<a style="color:inherit;" xlink:href="textedit:///home/johannes/common-lisp/setzkasten/lilypond-export/b1-c27-m1-d-orig.ly:156:16:17">
</a>
<g transform="translate(99.1415, 13.7000)">
<path transform="scale(0.0040, -0.0040)" d="M216 -312c0 -10 -8 -19 -18 -19s-19 9 -19 19v145l-83 -31v-158c0 -10 -9 -19 -19 -19s-18 9 -18 19v145l-32 -12c-2 -1 -5 -1 -7 -1c-11 0 -20 9 -20 20v60c0 8 5 16 13 19l46 16v160l-32 -11c-2 -1 -5 -1 -7 -1c-11 0 -20 9 -20 20v60c0 8 5 15 13 18l46 17v158
c0 10 8 19 18 19s19 -9 19 -19v-145l83 31v158c0 10 9 19 19 19s18 -9 18 -19v-145l32 12c2 1 5 1 7 1c11 0 20 -9 20 -20v-60c0 -8 -5 -16 -13 -19l-46 -16v-160l32 11c2 1 5 1 7 1c11 0 20 -9 20 -20v-60c0 -8 -5 -15 -13 -18l-46 -17v-158zM96 65v-160l83 30v160z" fill="currentColor"/>
</g>
<g transform="translate(3.1924, 24.4700)">
<text font-family="serif" font-size="2.2001" text-anchor="start" fill="currentColor">
<tspan>grado di 3 minore</tspan>
</text>
</g>
<g transform="translate(0.0000, 27.4700)">
<text font-family="serif" font-size="2.2001" text-anchor="start" fill="currentColor">
<tspan>accidentale incomposto</tspan>
</text>
</g>
<g transform="translate(7.5705, 35.6700)">
<line stroke-linejoin="round" stroke-linecap="round" stroke-width="0.1000" stroke="currentColor" x1="0.0500" y1="0" x2="11.2176" y2="0"/>
</g>
<g transform="translate(7.5705, 34.6700)">
<line stroke-linejoin="round" stroke-linecap="round" stroke-width="0.1000" stroke="currentColor" x1="0.0500" y1="0" x2="11.2176" y2="0"/>
</g>
<g transform="translate(7.5705, 33.6700)">
<line stroke-linejoin="round" stroke-linecap="round" stroke-width="0.1000" stroke="currentColor" x1="0.0500" y1="0" x2="11.2176" y2="0"/>
</g>
<g transform="translate(7.5705, 32.6700)">
<line stroke-linejoin="round" stroke-linecap="round" stroke-width="0.1000" stroke="currentColor" x1="0.0500" y1="0" x2="11.2176" y2="0"/>
</g>
<g transform="translate(7.5705, 31.6700)">
<line stroke-linejoin="round" stroke-linecap="round" stroke-width="0.1000" stroke="currentColor" x1="0.0500" y1="0" x2="11.2176" y2="0"/>
</g>
<g transform="translate(15.0793, 34.6700)">
<path transform="scale(0.0040, -0.0040)" d="M216 -312c0 -10 -8 -19 -18 -19s-19 9 -19 19v145l-83 -31v-158c0 -10 -9 -19 -19 -19s-18 9 -18 19v145l-32 -12c-2 -1 -5 -1 -7 -1c-11 0 -20 9 -20 20v60c0 8 5 16 13 19l46 16v160l-32 -11c-2 -1 -5 -1 -7 -1c-11 0 -20 9 -20 20v60c0 8 5 15 13 18l46 17v158
c0 10 8 19 18 19s19 -9 19 -19v-145l83 31v158c0 10 9 19 19 19s18 -9 18 -19v-145l32 12c2 1 5 1 7 1c11 0 20 -9 20 -20v-60c0 -8 -5 -16 -13 -19l-46 -16v-160l32 11c2 1 5 1 7 1c11 0 20 -9 20 -20v-60c0 -8 -5 -15 -13 -18l-46 -17v-158zM96 65v-160l83 30v160z" fill="currentColor"/>
</g>
<a style="color:inherit;" xlink:href="textedit:///home/johannes/common-lisp/setzkasten/lilypond-export/b1-c27-m1-d-orig.ly:198:48:49">
<g transform="translate(16.5293, 34.6700)">
<path transform="scale(0.0040, -0.0040)" d="M73 54c-1 -2 -2 -4 -2 -6s1 -4 2 -6l91 -129c2 -3 5 -4 8 -4s7 1 9 4l23 33c1 2 2 4 2 6s-1 4 -2 6l-91 129c-2 3 -5 4 -8 4s-6 -1 -8 -4zM2 -6c-1 2 -2 4 -2 6s1 4 2 6l128 182c2 3 6 4 9 4s6 -1 8 -4l128 -182c1 -2 2 -4 2 -6s-1 -4 -2 -6l-128 -182c-2 -3 -5 -4 -8 -4
s-7 1 -9 4z" fill="currentColor"/>
</g>
</a>
<a style="color:inherit;" xlink:href="textedit:///home/johannes/common-lisp/setzkasten/lilypond-export/b1-c27-m1-d-orig.ly:196:16:17">
</a>
<g transform="translate(8.3705, 32.6700)">
<path transform="scale(0.0040, -0.0040)" d="M35 -104v-42c0 -6 4 -10 10 -10h195c6 0 10 4 10 10v42c0 6 -4 10 -10 10h-195c-6 0 -10 -4 -10 -10zM35 146v-42c0 -6 4 -10 10 -10h195c6 0 10 4 10 10v42c0 6 -4 10 -10 10h-195c-6 0 -10 -4 -10 -10zM0 0v540c0 7 9 10 18 10s17 -3 17 -10v-311c0 -6 4 -10 10 -10
h195c6 0 10 4 10 10v83c0 7 9 10 18 10s17 -3 17 -10v-271c0 -6 -4 -10 -10 -10h-230c-6 0 -10 -4 -10 -10v-42c0 -6 4 -10 10 -10h230c6 0 10 -4 10 -10v-271c0 -7 -8 -10 -17 -10s-18 3 -18 10v83c0 6 -4 10 -10 10h-195c-6 0 -10 -4 -10 -10v-311c0 -7 -8 -10 -17 -10
s-18 3 -18 10v540z" fill="currentColor"/>
</g>
<a style="color:inherit;" xlink:href="textedit:///home/johannes/common-lisp/setzkasten/lilypond-export/b1-c27-m1-d-orig.ly:198:43:44">
<g transform="translate(13.3705, 33.6700)">
<path transform="scale(0.0040, -0.0040)" d="M73 54c-1 -2 -2 -4 -2 -6s1 -4 2 -6l91 -129c2 -3 5 -4 8 -4s7 1 9 4l23 33c1 2 2 4 2 6s-1 4 -2 6l-91 129c-2 3 -5 4 -8 4s-6 -1 -8 -4zM2 -6c-1 2 -2 4 -2 6s1 4 2 6l128 182c2 3 6 4 9 4s6 -1 8 -4l128 -182c1 -2 2 -4 2 -6s-1 -4 -2 -6l-128 -182c-2 -3 -5 -4 -8 -4
s-7 1 -9 4z" fill="currentColor"/>
</g>
</a>
<g transform="translate(33.1510, 24.4700)">
<text font-family="serif" font-size="2.2001" text-anchor="start" fill="currentColor">
<tspan>grado di 3 minore</tspan>
</text>
</g>
<g transform="translate(29.9586, 27.4700)">
<text font-family="serif" font-size="2.2001" text-anchor="start" fill="currentColor">
<tspan>accidentale incomposto</tspan>
</text>
</g>
<g transform="translate(37.9541, 35.6700)">
<line stroke-linejoin="round" stroke-linecap="round" stroke-width="0.1000" stroke="currentColor" x1="0.0500" y1="0" x2="10.3676" y2="0"/>
</g>
<g transform="translate(37.9541, 34.6700)">
<line stroke-linejoin="round" stroke-linecap="round" stroke-width="0.1000" stroke="currentColor" x1="0.0500" y1="0" x2="10.3676" y2="0"/>
</g>
<g transform="translate(37.9541, 33.6700)">
<line stroke-linejoin="round" stroke-linecap="round" stroke-width="0.1000" stroke="currentColor" x1="0.0500" y1="0" x2="10.3676" y2="0"/>
</g>
<g transform="translate(37.9541, 32.6700)">
<line stroke-linejoin="round" stroke-linecap="round" stroke-width="0.1000" stroke="currentColor" x1="0.0500" y1="0" x2="10.3676" y2="0"/>
</g>
<g transform="translate(37.9541, 31.6700)">
<line stroke-linejoin="round" stroke-linecap="round" stroke-width="0.1000" stroke="currentColor" x1="0.0500" y1="0" x2="10.3676" y2="0"/>
</g>
<a style="color:inherit;" xlink:href="textedit:///home/johannes/common-lisp/setzkasten/lilypond-export/b1-c27-m1-d-orig.ly:235:57:58">
<g transform="translate(46.6174, 32.1700)">
<path transform="scale(0.0045, -0.0045)" d="M-50 0c0 28 22 50 50 50s50 -22 50 -50s-22 -50 -50 -50s-50 22 -50 50z" fill="currentColor"/>
</g>
</a>
<a style="color:inherit;" xlink:href="textedit:///home/johannes/common-lisp/setzkasten/lilypond-export/b1-c27-m1-d-orig.ly:235:55:56">
<g transform="translate(46.0629, 33.6700)">
<path transform="scale(0.0040, -0.0040)" d="M73 54c-1 -2 -2 -4 -2 -6s1 -4 2 -6l91 -129c2 -3 5 -4 8 -4s7 1 9 4l23 33c1 2 2 4 2 6s-1 4 -2 6l-91 129c-2 3 -5 4 -8 4s-6 -1 -8 -4zM2 -6c-1 2 -2 4 -2 6s1 4 2 6l128 182c2 3 6 4 9 4s6 -1 8 -4l128 -182c1 -2 2 -4 2 -6s-1 -4 -2 -6l-128 -182c-2 -3 -5 -4 -8 -4
s-7 1 -9 4z" fill="currentColor"/>
</g>
</a>
<g transform="translate(42.6041, 34.1700)">
<path transform="scale(0.0040, -0.0040)" d="M27 41l-1 -66v-11c0 -22 1 -44 4 -66c45 38 93 80 93 139c0 33 -14 67 -43 67c-31 0 -52 -30 -53 -63zM-15 -138l-12 595c8 5 18 8 27 8s19 -3 27 -8l-7 -345c25 21 58 34 91 34c52 0 89 -48 89 -102c0 -80 -86 -117 -147 -169c-15 -13 -24 -38 -45 -38
c-13 0 -23 11 -23 25z" fill="currentColor"/>
</g>
<a style="color:inherit;" xlink:href="textedit:///home/johannes/common-lisp/setzkasten/lilypond-export/b1-c27-m1-d-orig.ly:233:16:17">
</a>
<g transform="translate(38.7541, 32.6700)">
<path transform="scale(0.0040, -0.0040)" d="M35 -104v-42c0 -6 4 -10 10 -10h195c6 0 10 4 10 10v42c0 6 -4 10 -10 10h-195c-6 0 -10 -4 -10 -10zM35 146v-42c0 -6 4 -10 10 -10h195c6 0 10 4 10 10v42c0 6 -4 10 -10 10h-195c-6 0 -10 -4 -10 -10zM0 0v540c0 7 9 10 18 10s17 -3 17 -10v-311c0 -6 4 -10 10 -10
h195c6 0 10 4 10 10v83c0 7 9 10 18 10s17 -3 17 -10v-271c0 -6 -4 -10 -10 -10h-230c-6 0 -10 -4 -10 -10v-42c0 -6 4 -10 10 -10h230c6 0 10 -4 10 -10v-271c0 -7 -8 -10 -17 -10s-18 3 -18 10v83c0 6 -4 10 -10 10h-195c-6 0 -10 -4 -10 -10v-311c0 -7 -8 -10 -17 -10
s-18 3 -18 10v540z" fill="currentColor"/>
</g>
<a style="color:inherit;" xlink:href="textedit:///home/johannes/common-lisp/setzkasten/lilypond-export/b1-c27-m1-d-orig.ly:235:43:44">
<g transform="translate(43.7541, 34.1700)">
<path transform="scale(0.0040, -0.0040)" d="M73 54c-1 -2 -2 -4 -2 -6s1 -4 2 -6l91 -129c2 -3 5 -4 8 -4s7 1 9 4l23 33c1 2 2 4 2 6s-1 4 -2 6l-91 129c-2 3 -5 4 -8 4s-6 -1 -8 -4zM2 -6c-1 2 -2 4 -2 6s1 4 2 6l128 182c2 3 6 4 9 4s6 -1 8 -4l128 -182c1 -2 2 -4 2 -6s-1 -4 -2 -6l-128 -182c-2 -3 -5 -4 -8 -4
s-7 1 -9 4z" fill="currentColor"/>
</g>
</a>
<g transform="translate(63.1097, 24.4700)">
<text font-family="serif" font-size="2.2001" text-anchor="start" fill="currentColor">
<tspan>grado di 3 minore</tspan>
</text>
</g>
<g transform="translate(59.9173, 27.4700)">
<text font-family="serif" font-size="2.2001" text-anchor="start" fill="currentColor">
<tspan>accidentale incomposto</tspan>
</text>
</g>
<g transform="translate(67.5778, 35.6700)">
<line stroke-linejoin="round" stroke-linecap="round" stroke-width="0.1000" stroke="currentColor" x1="0.0500" y1="0" x2="11.0376" y2="0"/>
</g>
<g transform="translate(67.5778, 34.6700)">
<line stroke-linejoin="round" stroke-linecap="round" stroke-width="0.1000" stroke="currentColor" x1="0.0500" y1="0" x2="11.0376" y2="0"/>
</g>
<g transform="translate(67.5778, 33.6700)">
<line stroke-linejoin="round" stroke-linecap="round" stroke-width="0.1000" stroke="currentColor" x1="0.0500" y1="0" x2="11.0376" y2="0"/>
</g>
<g transform="translate(67.5778, 32.6700)">
<line stroke-linejoin="round" stroke-linecap="round" stroke-width="0.1000" stroke="currentColor" x1="0.0500" y1="0" x2="11.0376" y2="0"/>
</g>
<g transform="translate(67.5778, 31.6700)">
<line stroke-linejoin="round" stroke-linecap="round" stroke-width="0.1000" stroke="currentColor" x1="0.0500" y1="0" x2="11.0376" y2="0"/>
</g>
<g transform="translate(75.2066, 34.1700)">
<path transform="scale(0.0040, -0.0040)" d="M27 41l-1 -66v-11c0 -22 1 -44 4 -66c45 38 93 80 93 139c0 33 -14 67 -43 67c-31 0 -52 -30 -53 -63zM-15 -138l-12 595c8 5 18 8 27 8s19 -3 27 -8l-7 -345c25 21 58 34 91 34c52 0 89 -48 89 -102c0 -80 -86 -117 -147 -169c-15 -13 -24 -38 -45 -38
c-13 0 -23 11 -23 25z" fill="currentColor"/>
</g>
<a style="color:inherit;" xlink:href="textedit:///home/johannes/common-lisp/setzkasten/lilypond-export/b1-c27-m1-d-orig.ly:272:55:56">
<g transform="translate(76.3566, 34.1700)">
<path transform="scale(0.0040, -0.0040)" d="M73 54c-1 -2 -2 -4 -2 -6s1 -4 2 -6l91 -129c2 -3 5 -4 8 -4s7 1 9 4l23 33c1 2 2 4 2 6s-1 4 -2 6l-91 129c-2 3 -5 4 -8 4s-6 -1 -8 -4zM2 -6c-1 2 -2 4 -2 6s1 4 2 6l128 182c2 3 6 4 9 4s6 -1 8 -4l128 -182c1 -2 2 -4 2 -6s-1 -4 -2 -6l-128 -182c-2 -3 -5 -4 -8 -4
s-7 1 -9 4z" fill="currentColor"/>
</g>
</a>
<a style="color:inherit;" xlink:href="textedit:///home/johannes/common-lisp/setzkasten/lilypond-export/b1-c27-m1-d-orig.ly:270:16:17">
</a>
<g transform="translate(68.3778, 32.6700)">
<path transform="scale(0.0040, -0.0040)" d="M35 -104v-42c0 -6 4 -10 10 -10h195c6 0 10 4 10 10v42c0 6 -4 10 -10 10h-195c-6 0 -10 -4 -10 -10zM35 146v-42c0 -6 4 -10 10 -10h195c6 0 10 4 10 10v42c0 6 -4 10 -10 10h-195c-6 0 -10 -4 -10 -10zM0 0v540c0 7 9 10 18 10s17 -3 17 -10v-311c0 -6 4 -10 10 -10
h195c6 0 10 4 10 10v83c0 7 9 10 18 10s17 -3 17 -10v-271c0 -6 -4 -10 -10 -10h-230c-6 0 -10 -4 -10 -10v-42c0 -6 4 -10 10 -10h230c6 0 10 -4 10 -10v-271c0 -7 -8 -10 -17 -10s-18 3 -18 10v83c0 6 -4 10 -10 10h-195c-6 0 -10 -4 -10 -10v-311c0 -7 -8 -10 -17 -10
s-18 3 -18 10v540z" fill="currentColor"/>
</g>
<a style="color:inherit;" xlink:href="textedit:///home/johannes/common-lisp/setzkasten/lilypond-export/b1-c27-m1-d-orig.ly:272:50:51">
<g transform="translate(73.9322, 32.1700)">
<path transform="scale(0.0045, -0.0045)" d="M-50 0c0 28 22 50 50 50s50 -22 50 -50s-22 -50 -50 -50s-50 22 -50 50z" fill="currentColor"/>
</g>
</a>
<a style="color:inherit;" xlink:href="textedit:///home/johannes/common-lisp/setzkasten/lilypond-export/b1-c27-m1-d-orig.ly:272:48:49">
<g transform="translate(73.3778, 33.6700)">
<path transform="scale(0.0040, -0.0040)" d="M73 54c-1 -2 -2 -4 -2 -6s1 -4 2 -6l91 -129c2 -3 5 -4 8 -4s7 1 9 4l23 33c1 2 2 4 2 6s-1 4 -2 6l-91 129c-2 3 -5 4 -8 4s-6 -1 -8 -4zM2 -6c-1 2 -2 4 -2 6s1 4 2 6l128 182c2 3 6 4 9 4s6 -1 8 -4l128 -182c1 -2 2 -4 2 -6s-1 -4 -2 -6l-128 -182c-2 -3 -5 -4 -8 -4
s-7 1 -9 4z" fill="currentColor"/>
</g>
</a>
<g transform="translate(93.0683, 24.4700)">
<text font-family="serif" font-size="2.2001" text-anchor="start" fill="currentColor">
<tspan>grado di 3 minore</tspan>
</text>
</g>
<g transform="translate(89.8759, 27.4700)">
<text font-family="serif" font-size="2.2001" text-anchor="start" fill="currentColor">
<tspan>accidentale incomposto</tspan>
</text>
</g>
<g transform="translate(97.4464, 35.6700)">
<line stroke-linejoin="round" stroke-linecap="round" stroke-width="0.1000" stroke="currentColor" x1="0.0500" y1="0" x2="11.2176" y2="0"/>
</g>
<g transform="translate(97.4464, 34.6700)">
<line stroke-linejoin="round" stroke-linecap="round" stroke-width="0.1000" stroke="currentColor" x1="0.0500" y1="0" x2="11.2176" y2="0"/>
</g>
<g transform="translate(97.4464, 33.6700)">
<line stroke-linejoin="round" stroke-linecap="round" stroke-width="0.1000" stroke="currentColor" x1="0.0500" y1="0" x2="11.2176" y2="0"/>
</g>
<g transform="translate(97.4464, 32.6700)">
<line stroke-linejoin="round" stroke-linecap="round" stroke-width="0.1000" stroke="currentColor" x1="0.0500" y1="0" x2="11.2176" y2="0"/>
</g>
<g transform="translate(97.4464, 31.6700)">
<line stroke-linejoin="round" stroke-linecap="round" stroke-width="0.1000" stroke="currentColor" x1="0.0500" y1="0" x2="11.2176" y2="0"/>
</g>
<g transform="translate(104.9552, 35.6700)">
<path transform="scale(0.0040, -0.0040)" d="M216 -312c0 -10 -8 -19 -18 -19s-19 9 -19 19v145l-83 -31v-158c0 -10 -9 -19 -19 -19s-18 9 -18 19v145l-32 -12c-2 -1 -5 -1 -7 -1c-11 0 -20 9 -20 20v60c0 8 5 16 13 19l46 16v160l-32 -11c-2 -1 -5 -1 -7 -1c-11 0 -20 9 -20 20v60c0 8 5 15 13 18l46 17v158
c0 10 8 19 18 19s19 -9 19 -19v-145l83 31v158c0 10 9 19 19 19s18 -9 18 -19v-145l32 12c2 1 5 1 7 1c11 0 20 -9 20 -20v-60c0 -8 -5 -16 -13 -19l-46 -16v-160l32 11c2 1 5 1 7 1c11 0 20 -9 20 -20v-60c0 -8 -5 -15 -13 -18l-46 -17v-158zM96 65v-160l83 30v160z" fill="currentColor"/>
</g>
<a style="color:inherit;" xlink:href="textedit:///home/johannes/common-lisp/setzkasten/lilypond-export/b1-c27-m1-d-orig.ly:309:50:51">
<g transform="translate(106.4052, 35.6700)">
<path transform="scale(0.0040, -0.0040)" d="M73 54c-1 -2 -2 -4 -2 -6s1 -4 2 -6l91 -129c2 -3 5 -4 8 -4s7 1 9 4l23 33c1 2 2 4 2 6s-1 4 -2 6l-91 129c-2 3 -5 4 -8 4s-6 -1 -8 -4zM2 -6c-1 2 -2 4 -2 6s1 4 2 6l128 182c2 3 6 4 9 4s6 -1 8 -4l128 -182c1 -2 2 -4 2 -6s-1 -4 -2 -6l-128 -182c-2 -3 -5 -4 -8 -4
s-7 1 -9 4z" fill="currentColor"/>
</g>
</a>
<g transform="translate(101.7964, 34.6700)">
<path transform="scale(0.0040, -0.0040)" d="M216 -312c0 -10 -8 -19 -18 -19s-19 9 -19 19v145l-83 -31v-158c0 -10 -9 -19 -19 -19s-18 9 -18 19v145l-32 -12c-2 -1 -5 -1 -7 -1c-11 0 -20 9 -20 20v60c0 8 5 16 13 19l46 16v160l-32 -11c-2 -1 -5 -1 -7 -1c-11 0 -20 9 -20 20v60c0 8 5 15 13 18l46 17v158
c0 10 8 19 18 19s19 -9 19 -19v-145l83 31v158c0 10 9 19 19 19s18 -9 18 -19v-145l32 12c2 1 5 1 7 1c11 0 20 -9 20 -20v-60c0 -8 -5 -16 -13 -19l-46 -16v-160l32 11c2 1 5 1 7 1c11 0 20 -9 20 -20v-60c0 -8 -5 -15 -13 -18l-46 -17v-158zM96 65v-160l83 30v160z" fill="currentColor"/>
</g>
<a style="color:inherit;" xlink:href="textedit:///home/johannes/common-lisp/setzkasten/lilypond-export/b1-c27-m1-d-orig.ly:307:16:17">
</a>
<g transform="translate(98.2464, 32.6700)">
<path transform="scale(0.0040, -0.0040)" d="M35 -104v-42c0 -6 4 -10 10 -10h195c6 0 10 4 10 10v42c0 6 -4 10 -10 10h-195c-6 0 -10 -4 -10 -10zM35 146v-42c0 -6 4 -10 10 -10h195c6 0 10 4 10 10v42c0 6 -4 10 -10 10h-195c-6 0 -10 -4 -10 -10zM0 0v540c0 7 9 10 18 10s17 -3 17 -10v-311c0 -6 4 -10 10 -10
h195c6 0 10 4 10 10v83c0 7 9 10 18 10s17 -3 17 -10v-271c0 -6 -4 -10 -10 -10h-230c-6 0 -10 -4 -10 -10v-42c0 -6 4 -10 10 -10h230c6 0 10 -4 10 -10v-271c0 -7 -8 -10 -17 -10s-18 3 -18 10v83c0 6 -4 10 -10 10h-195c-6 0 -10 -4 -10 -10v-311c0 -7 -8 -10 -17 -10
s-18 3 -18 10v540z" fill="currentColor"/>
</g>
<a style="color:inherit;" xlink:href="textedit:///home/johannes/common-lisp/setzkasten/lilypond-export/b1-c27-m1-d-orig.ly:309:43:44">
<g transform="translate(103.2464, 34.6700)">
<path transform="scale(0.0040, -0.0040)" d="M73 54c-1 -2 -2 -4 -2 -6s1 -4 2 -6l91 -129c2 -3 5 -4 8 -4s7 1 9 4l23 33c1 2 2 4 2 6s-1 4 -2 6l-91 129c-2 3 -5 4 -8 4s-6 -1 -8 -4zM2 -6c-1 2 -2 4 -2 6s1 4 2 6l128 182c2 3 6 4 9 4s6 -1 8 -4l128 -182c1 -2 2 -4 2 -6s-1 -4 -2 -6l-128 -182c-2 -3 -5 -4 -8 -4
s-7 1 -9 4z" fill="currentColor"/>
</g>
</a>
</svg>
