<svg xmlns="http://www.w3.org/2000/svg" xmlns:xlink="http://www.w3.org/1999/xlink" version="1.2" width="278.11mm" height="37.59mm" viewBox="0.0000 -2.4855 158.2622 21.3882">
<style type="text/css">
<![CDATA[
tspan { white-space: pre; }
]]>
</style>
<g transform="translate(25.8505, -0.0000)">
<text font-family="serif" font-size="3.1115" text-anchor="start" fill="currentColor">
<tspan>Essempio dei gradi ti terza più di maggiore incomposto e composto</tspan>
</text>
</g>
<g transform="translate(2.7720, 8.4000)">
<line stroke-linejoin="round" stroke-linecap="round" stroke-width="0.1000" stroke="currentColor" x1="0.0500" y1="0" x2="12.0740" y2="0"/>
</g>
<g transform="translate(2.7720, 7.4000)">
<line stroke-linejoin="round" stroke-linecap="round" stroke-width="0.1000" stroke="currentColor" x1="0.0500" y1="0" x2="12.0740" y2="0"/>
</g>
<g transform="translate(2.7720, 6.4000)">
<line stroke-linejoin="round" stroke-linecap="round" stroke-width="0.1000" stroke="currentColor" x1="0.0500" y1="0" x2="12.0740" y2="0"/>
</g>
<g transform="translate(2.7720, 5.4000)">
<line stroke-linejoin="round" stroke-linecap="round" stroke-width="0.1000" stroke="currentColor" x1="0.0500" y1="0" x2="12.0740" y2="0"/>
</g>
<g transform="translate(2.7720, 4.4000)">
<line stroke-linejoin="round" stroke-linecap="round" stroke-width="0.1000" stroke="currentColor" x1="0.0500" y1="0" x2="12.0740" y2="0"/>
</g>
<a style="color:inherit;" xlink:href="textedit:///home/johannes/common-lisp/setzkasten/lilypond-export/b1-c31-m1-e.ly:38:54:55">
<g transform="translate(12.7150, 6.9000)">
<path transform="scale(0.0045, -0.0045)" d="M-50 0c0 28 22 50 50 50s50 -22 50 -50s-22 -50 -50 -50s-50 22 -50 50z" fill="currentColor"/>
</g>
</a>
<a style="color:inherit;" xlink:href="textedit:///home/johannes/common-lisp/setzkasten/lilypond-export/b1-c31-m1-e.ly:38:52:53">
<g transform="translate(11.7340, 7.9000)">
<path transform="scale(0.0040, -0.0040)" d="M213 112c-50 0 -69 -43 -69 -88c0 -77 57 -136 134 -136c50 0 69 43 69 88c0 77 -57 136 -134 136zM491 0c0 -43 -34 -75 -72 -96c-53 -29 -114 -40 -174 -40s-120 11 -173 40c-38 21 -72 53 -72 96s34 75 72 96c53 29 113 40 173 40s121 -11 174 -40
c38 -21 72 -53 72 -96z" fill="currentColor"/>
</g>
</a>
<a style="color:inherit;" xlink:href="textedit:///home/johannes/common-lisp/setzkasten/lilypond-export/b1-c31-m1-e.ly:36:16:17">
</a>
<g transform="translate(3.5720, 5.4000)">
<path transform="scale(0.0040, -0.0040)" d="M318 0c0 -33 7 -73 45 -73c29 0 57 31 88 31c123 0 229 -89 229 -208c0 -169 -93 -250 -265 -250c-83 0 -152 61 -152 142c0 42 34 77 76 77s76 -35 76 -77c0 -39 -49 -37 -49 -76c0 -23 24 -38 49 -38c116 0 140 90 140 222c0 106 -12 180 -104 180
c-72 0 -119 -71 -119 -149c0 -9 -7 -14 -14 -14s-13 5 -13 14c0 76 -31 147 -84 200v-471c0 -6 -4 -10 -10 -10h-21c-6 0 -10 4 -10 10v980c0 6 4 10 10 10h21c6 0 10 -4 10 -10v-471c53 53 84 124 84 200c0 9 6 14 13 14s14 -5 14 -14c0 -78 47 -149 119 -149
c92 0 104 74 104 180c0 132 -24 222 -140 222c-25 0 -49 -15 -49 -38c0 -39 49 -37 49 -76c0 -42 -34 -77 -76 -77s-76 35 -76 77c0 81 69 142 152 142c172 0 265 -81 265 -250c0 -119 -106 -208 -229 -208c-31 0 -59 31 -88 31c-38 0 -45 -40 -45 -73zM129 -500h-119
c-6 0 -10 4 -10 10v980c0 6 4 10 10 10h119c6 0 10 -4 10 -10v-980c0 -6 -4 -10 -10 -10z" fill="currentColor"/>
</g>
<a style="color:inherit;" xlink:href="textedit:///home/johannes/common-lisp/setzkasten/lilypond-export/b1-c31-m1-e.ly:38:43:44">
<g transform="translate(8.5720, 8.9000)">
<path transform="scale(0.0040, -0.0040)" d="M213 112c-50 0 -69 -43 -69 -88c0 -77 57 -136 134 -136c50 0 69 43 69 88c0 77 -57 136 -134 136zM491 0c0 -43 -34 -75 -72 -96c-53 -29 -114 -40 -174 -40s-120 11 -173 40c-38 21 -72 53 -72 96s34 75 72 96c53 29 113 40 173 40s121 -11 174 -40
c38 -21 72 -53 72 -96z" fill="currentColor"/>
</g>
</a>
<g transform="translate(0.9731, 12.4450)">
<text font-family="serif" font-size="2.2001" text-anchor="start" fill="currentColor">
<tspan>grado di terza</tspan>
</text>
</g>
<g transform="translate(0.0000, 15.4450)">
<text font-family="serif" font-size="2.2001" text-anchor="start" fill="currentColor">
<tspan>più di maggiore</tspan>
</text>
</g>
<g transform="translate(2.3730, 18.4450)">
<text font-family="serif" font-size="2.2001" text-anchor="start" fill="currentColor">
<tspan>incomposto</tspan>
</text>
</g>
<g transform="translate(22.4089, 8.4000)">
<line stroke-linejoin="round" stroke-linecap="round" stroke-width="0.1000" stroke="currentColor" x1="0.0500" y1="0" x2="15.2360" y2="0"/>
</g>
<g transform="translate(22.4089, 7.4000)">
<line stroke-linejoin="round" stroke-linecap="round" stroke-width="0.1000" stroke="currentColor" x1="0.0500" y1="0" x2="15.2360" y2="0"/>
</g>
<g transform="translate(22.4089, 6.4000)">
<line stroke-linejoin="round" stroke-linecap="round" stroke-width="0.1000" stroke="currentColor" x1="0.0500" y1="0" x2="15.2360" y2="0"/>
</g>
<g transform="translate(22.4089, 5.4000)">
<line stroke-linejoin="round" stroke-linecap="round" stroke-width="0.1000" stroke="currentColor" x1="0.0500" y1="0" x2="15.2360" y2="0"/>
</g>
<g transform="translate(22.4089, 4.4000)">
<line stroke-linejoin="round" stroke-linecap="round" stroke-width="0.1000" stroke="currentColor" x1="0.0500" y1="0" x2="15.2360" y2="0"/>
</g>
<a style="color:inherit;" xlink:href="textedit:///home/johannes/common-lisp/setzkasten/lilypond-export/b1-c31-m1-e.ly:76:58:59">
<g transform="translate(35.5139, 4.9000)">
<path transform="scale(0.0045, -0.0045)" d="M-50 0c0 28 22 50 50 50s50 -22 50 -50s-22 -50 -50 -50s-50 22 -50 50z" fill="currentColor"/>
</g>
</a>
<a style="color:inherit;" xlink:href="textedit:///home/johannes/common-lisp/setzkasten/lilypond-export/b1-c31-m1-e.ly:76:56:57">
<g transform="translate(34.5329, 6.4000)">
<path transform="scale(0.0040, -0.0040)" d="M213 112c-50 0 -69 -43 -69 -88c0 -77 57 -136 134 -136c50 0 69 43 69 88c0 77 -57 136 -134 136zM491 0c0 -43 -34 -75 -72 -96c-53 -29 -114 -40 -174 -40s-120 11 -173 40c-38 21 -72 53 -72 96s34 75 72 96c53 29 113 40 173 40s121 -11 174 -40
c38 -21 72 -53 72 -96z" fill="currentColor"/>
</g>
</a>
<a style="color:inherit;" xlink:href="textedit:///home/johannes/common-lisp/setzkasten/lilypond-export/b1-c31-m1-e.ly:76:47:48">
<g transform="translate(31.3709, 6.9000)">
<path transform="scale(0.0040, -0.0040)" d="M213 112c-50 0 -69 -43 -69 -88c0 -77 57 -136 134 -136c50 0 69 43 69 88c0 77 -57 136 -134 136zM491 0c0 -43 -34 -75 -72 -96c-53 -29 -114 -40 -174 -40s-120 11 -173 40c-38 21 -72 53 -72 96s34 75 72 96c53 29 113 40 173 40s121 -11 174 -40
c38 -21 72 -53 72 -96z" fill="currentColor"/>
</g>
</a>
<a style="color:inherit;" xlink:href="textedit:///home/johannes/common-lisp/setzkasten/lilypond-export/b1-c31-m1-e.ly:76:43:44">
<g transform="translate(28.2089, 7.4000)">
<path transform="scale(0.0040, -0.0040)" d="M213 112c-50 0 -69 -43 -69 -88c0 -77 57 -136 134 -136c50 0 69 43 69 88c0 77 -57 136 -134 136zM491 0c0 -43 -34 -75 -72 -96c-53 -29 -114 -40 -174 -40s-120 11 -173 40c-38 21 -72 53 -72 96s34 75 72 96c53 29 113 40 173 40s121 -11 174 -40
c38 -21 72 -53 72 -96z" fill="currentColor"/>
</g>
</a>
<g transform="translate(23.2089, 5.4000)">
<path transform="scale(0.0040, -0.0040)" d="M318 0c0 -33 7 -73 45 -73c29 0 57 31 88 31c123 0 229 -89 229 -208c0 -169 -93 -250 -265 -250c-83 0 -152 61 -152 142c0 42 34 77 76 77s76 -35 76 -77c0 -39 -49 -37 -49 -76c0 -23 24 -38 49 -38c116 0 140 90 140 222c0 106 -12 180 -104 180
c-72 0 -119 -71 -119 -149c0 -9 -7 -14 -14 -14s-13 5 -13 14c0 76 -31 147 -84 200v-471c0 -6 -4 -10 -10 -10h-21c-6 0 -10 4 -10 10v980c0 6 4 10 10 10h21c6 0 10 -4 10 -10v-471c53 53 84 124 84 200c0 9 6 14 13 14s14 -5 14 -14c0 -78 47 -149 119 -149
c92 0 104 74 104 180c0 132 -24 222 -140 222c-25 0 -49 -15 -49 -38c0 -39 49 -37 49 -76c0 -42 -34 -77 -76 -77s-76 35 -76 77c0 81 69 142 152 142c172 0 265 -81 265 -250c0 -119 -106 -208 -229 -208c-31 0 -59 31 -88 31c-38 0 -45 -40 -45 -73zM129 -500h-119
c-6 0 -10 4 -10 10v980c0 6 4 10 10 10h119c6 0 10 -4 10 -10v-980c0 -6 -4 -10 -10 -10z" fill="currentColor"/>
</g>
<a style="color:inherit;" xlink:href="textedit:///home/johannes/common-lisp/setzkasten/lilypond-export/b1-c31-m1-e.ly:74:16:17">
</a>
<g transform="translate(22.1910, 12.4000)">
<text font-family="serif" font-size="2.2001" text-anchor="start" fill="currentColor">
<tspan>grado di terza</tspan>
</text>
</g>
<g transform="translate(21.2179, 15.4000)">
<text font-family="serif" font-size="2.2001" text-anchor="start" fill="currentColor">
<tspan>più di maggiore</tspan>
</text>
</g>
<g transform="translate(24.6664, 18.4000)">
<text font-family="serif" font-size="2.2001" text-anchor="start" fill="currentColor">
<tspan>composto</tspan>
</text>
</g>
<g transform="translate(44.4831, 8.4000)">
<line stroke-linejoin="round" stroke-linecap="round" stroke-width="0.1000" stroke="currentColor" x1="0.0500" y1="0" x2="22.2300" y2="0"/>
</g>
<g transform="translate(44.4831, 7.4000)">
<line stroke-linejoin="round" stroke-linecap="round" stroke-width="0.1000" stroke="currentColor" x1="0.0500" y1="0" x2="22.2300" y2="0"/>
</g>
<g transform="translate(44.4831, 6.4000)">
<line stroke-linejoin="round" stroke-linecap="round" stroke-width="0.1000" stroke="currentColor" x1="0.0500" y1="0" x2="22.2300" y2="0"/>
</g>
<g transform="translate(44.4831, 5.4000)">
<line stroke-linejoin="round" stroke-linecap="round" stroke-width="0.1000" stroke="currentColor" x1="0.0500" y1="0" x2="22.2300" y2="0"/>
</g>
<g transform="translate(44.4831, 4.4000)">
<line stroke-linejoin="round" stroke-linecap="round" stroke-width="0.1000" stroke="currentColor" x1="0.0500" y1="0" x2="22.2300" y2="0"/>
</g>
<g transform="translate(56.1271, 6.4000)">
<path transform="scale(0.0040, -0.0040)" d="M27 41l-1 -66v-11c0 -22 1 -44 4 -66c45 38 93 80 93 139c0 33 -14 67 -43 67c-31 0 -52 -30 -53 -63zM-15 -138l-12 595c8 5 18 8 27 8s19 -3 27 -8l-7 -345c25 21 58 34 91 34c52 0 89 -48 89 -102c0 -80 -86 -117 -147 -169c-15 -13 -24 -38 -45 -38
c-13 0 -23 11 -23 25z" fill="currentColor"/>
</g>
<a style="color:inherit;" xlink:href="textedit:///home/johannes/common-lisp/setzkasten/lilypond-export/b1-c31-m1-e.ly:114:49:50">
<g transform="translate(53.4451, 4.9000)">
<path transform="scale(0.0040, -0.0040)" d="M213 112c-50 0 -69 -43 -69 -88c0 -77 57 -136 134 -136c50 0 69 43 69 88c0 77 -57 136 -134 136zM491 0c0 -43 -34 -75 -72 -96c-53 -29 -114 -40 -174 -40s-120 11 -173 40c-38 21 -72 53 -72 96s34 75 72 96c53 29 113 40 173 40s121 -11 174 -40
c38 -21 72 -53 72 -96z" fill="currentColor"/>
</g>
</a>
<a style="color:inherit;" xlink:href="textedit:///home/johannes/common-lisp/setzkasten/lilypond-export/b1-c31-m1-e.ly:114:52:53">
<g transform="translate(54.2451, 3.5903)">
<text font-family="serif" font-size="2.2001" text-anchor="start" fill="currentColor">
<tspan>,</tspan>
</text>
</g>
</a>
<a style="color:inherit;" xlink:href="textedit:///home/johannes/common-lisp/setzkasten/lilypond-export/b1-c31-m1-e.ly:114:78:79">
<g transform="translate(57.2771, 6.4000)">
<path transform="scale(0.0040, -0.0040)" d="M213 112c-50 0 -69 -43 -69 -88c0 -77 57 -136 134 -136c50 0 69 43 69 88c0 77 -57 136 -134 136zM491 0c0 -43 -34 -75 -72 -96c-53 -29 -114 -40 -174 -40s-120 11 -173 40c-38 21 -72 53 -72 96s34 75 72 96c53 29 113 40 173 40s121 -11 174 -40
c38 -21 72 -53 72 -96z" fill="currentColor"/>
</g>
</a>
<a style="color:inherit;" xlink:href="textedit:///home/johannes/common-lisp/setzkasten/lilypond-export/b1-c31-m1-e.ly:114:83:84">
<g transform="translate(60.4391, 5.9000)">
<path transform="scale(0.0040, -0.0040)" d="M213 112c-50 0 -69 -43 -69 -88c0 -77 57 -136 134 -136c50 0 69 43 69 88c0 77 -57 136 -134 136zM491 0c0 -43 -34 -75 -72 -96c-53 -29 -114 -40 -174 -40s-120 11 -173 40c-38 21 -72 53 -72 96s34 75 72 96c53 29 113 40 173 40s121 -11 174 -40
c38 -21 72 -53 72 -96z" fill="currentColor"/>
</g>
</a>
<a style="color:inherit;" xlink:href="textedit:///home/johannes/common-lisp/setzkasten/lilypond-export/b1-c31-m1-e.ly:114:87:88">
<g transform="translate(63.6011, 5.4000)">
<path transform="scale(0.0040, -0.0040)" d="M213 112c-50 0 -69 -43 -69 -88c0 -77 57 -136 134 -136c50 0 69 43 69 88c0 77 -57 136 -134 136zM491 0c0 -43 -34 -75 -72 -96c-53 -29 -114 -40 -174 -40s-120 11 -173 40c-38 21 -72 53 -72 96s34 75 72 96c53 29 113 40 173 40s121 -11 174 -40
c38 -21 72 -53 72 -96z" fill="currentColor"/>
</g>
</a>
<a style="color:inherit;" xlink:href="textedit:///home/johannes/common-lisp/setzkasten/lilypond-export/b1-c31-m1-e.ly:114:90:91">
<g transform="translate(64.4011, 3.5903)">
<text font-family="serif" font-size="2.2001" text-anchor="start" fill="currentColor">
<tspan>,</tspan>
</text>
</g>
</a>
<a style="color:inherit;" xlink:href="textedit:///home/johannes/common-lisp/setzkasten/lilypond-export/b1-c31-m1-e.ly:114:43:44">
<g transform="translate(50.2831, 5.9000)">
<path transform="scale(0.0040, -0.0040)" d="M213 112c-50 0 -69 -43 -69 -88c0 -77 57 -136 134 -136c50 0 69 43 69 88c0 77 -57 136 -134 136zM491 0c0 -43 -34 -75 -72 -96c-53 -29 -114 -40 -174 -40s-120 11 -173 40c-38 21 -72 53 -72 96s34 75 72 96c53 29 113 40 173 40s121 -11 174 -40
c38 -21 72 -53 72 -96z" fill="currentColor"/>
</g>
</a>
<g transform="translate(45.2831, 5.4000)">
<path transform="scale(0.0040, -0.0040)" d="M318 0c0 -33 7 -73 45 -73c29 0 57 31 88 31c123 0 229 -89 229 -208c0 -169 -93 -250 -265 -250c-83 0 -152 61 -152 142c0 42 34 77 76 77s76 -35 76 -77c0 -39 -49 -37 -49 -76c0 -23 24 -38 49 -38c116 0 140 90 140 222c0 106 -12 180 -104 180
c-72 0 -119 -71 -119 -149c0 -9 -7 -14 -14 -14s-13 5 -13 14c0 76 -31 147 -84 200v-471c0 -6 -4 -10 -10 -10h-21c-6 0 -10 4 -10 10v980c0 6 4 10 10 10h21c6 0 10 -4 10 -10v-471c53 53 84 124 84 200c0 9 6 14 13 14s14 -5 14 -14c0 -78 47 -149 119 -149
c92 0 104 74 104 180c0 132 -24 222 -140 222c-25 0 -49 -15 -49 -38c0 -39 49 -37 49 -76c0 -42 -34 -77 -76 -77s-76 35 -76 77c0 81 69 142 152 142c172 0 265 -81 265 -250c0 -119 -106 -208 -229 -208c-31 0 -59 31 -88 31c-38 0 -45 -40 -45 -73zM129 -500h-119
c-6 0 -10 4 -10 10v980c0 6 4 10 10 10h119c6 0 10 -4 10 -10v-980c0 -6 -4 -10 -10 -10z" fill="currentColor"/>
</g>
<a style="color:inherit;" xlink:href="textedit:///home/johannes/common-lisp/setzkasten/lilypond-export/b1-c31-m1-e.ly:112:16:17">
</a>
<g transform="translate(49.1331, 5.9000)">
<path transform="scale(0.0040, -0.0040)" d="M27 41l-1 -66v-11c0 -22 1 -44 4 -66c45 38 93 80 93 139c0 33 -14 67 -43 67c-31 0 -52 -30 -53 -63zM-15 -138l-12 595c8 5 18 8 27 8s19 -3 27 -8l-7 -345c25 21 58 34 91 34c52 0 89 -48 89 -102c0 -80 -86 -117 -147 -169c-15 -13 -24 -38 -45 -38
c-13 0 -23 11 -23 25z" fill="currentColor"/>
</g>
<g transform="translate(45.9868, 12.4000)">
<text font-family="serif" font-size="2.2001" text-anchor="start" fill="currentColor">
<tspan>grado di terza un</tspan>
</text>
</g>
<g transform="translate(42.4359, 15.4000)">
<text font-family="serif" font-size="2.2001" text-anchor="start" fill="currentColor">
<tspan>comma più di maggiore</tspan>
</text>
</g>
<g transform="translate(42.4700, 18.4000)">
<text font-family="serif" font-size="2.2001" text-anchor="start" fill="currentColor">
<tspan>incomposto e composto</tspan>
</text>
</g>
<g transform="translate(73.5514, 8.4000)">
<line stroke-linejoin="round" stroke-linecap="round" stroke-width="0.1000" stroke="currentColor" x1="0.0500" y1="0" x2="15.2360" y2="0"/>
</g>
<g transform="translate(73.5514, 7.4000)">
<line stroke-linejoin="round" stroke-linecap="round" stroke-width="0.1000" stroke="currentColor" x1="0.0500" y1="0" x2="15.2360" y2="0"/>
</g>
<g transform="translate(73.5514, 6.4000)">
<line stroke-linejoin="round" stroke-linecap="round" stroke-width="0.1000" stroke="currentColor" x1="0.0500" y1="0" x2="15.2360" y2="0"/>
</g>
<g transform="translate(73.5514, 5.4000)">
<line stroke-linejoin="round" stroke-linecap="round" stroke-width="0.1000" stroke="currentColor" x1="0.0500" y1="0" x2="15.2360" y2="0"/>
</g>
<g transform="translate(73.5514, 4.4000)">
<line stroke-linejoin="round" stroke-linecap="round" stroke-width="0.1000" stroke="currentColor" x1="0.0500" y1="0" x2="15.2360" y2="0"/>
</g>
<a style="color:inherit;" xlink:href="textedit:///home/johannes/common-lisp/setzkasten/lilypond-export/b1-c31-m1-e.ly:152:49:50">
<g transform="translate(82.5134, 5.4000)">
<path transform="scale(0.0040, -0.0040)" d="M213 112c-50 0 -69 -43 -69 -88c0 -77 57 -136 134 -136c50 0 69 43 69 88c0 77 -57 136 -134 136zM491 0c0 -43 -34 -75 -72 -96c-53 -29 -114 -40 -174 -40s-120 11 -173 40c-38 21 -72 53 -72 96s34 75 72 96c53 29 113 40 173 40s121 -11 174 -40
c38 -21 72 -53 72 -96z" fill="currentColor"/>
</g>
</a>
<a style="color:inherit;" xlink:href="textedit:///home/johannes/common-lisp/setzkasten/lilypond-export/b1-c31-m1-e.ly:152:54:55">
<g transform="translate(85.6754, 4.9000)">
<path transform="scale(0.0040, -0.0040)" d="M213 112c-50 0 -69 -43 -69 -88c0 -77 57 -136 134 -136c50 0 69 43 69 88c0 77 -57 136 -134 136zM491 0c0 -43 -34 -75 -72 -96c-53 -29 -114 -40 -174 -40s-120 11 -173 40c-38 21 -72 53 -72 96s34 75 72 96c53 29 113 40 173 40s121 -11 174 -40
c38 -21 72 -53 72 -96z" fill="currentColor"/>
</g>
</a>
<a style="color:inherit;" xlink:href="textedit:///home/johannes/common-lisp/setzkasten/lilypond-export/b1-c31-m1-e.ly:152:57:58">
<g transform="translate(86.4754, 3.5903)">
<text font-family="serif" font-size="2.2001" text-anchor="start" fill="currentColor">
<tspan>,</tspan>
</text>
</g>
</a>
<g transform="translate(78.2014, 5.9000)">
<path transform="scale(0.0040, -0.0040)" d="M27 41l-1 -66v-11c0 -22 1 -44 4 -66c45 38 93 80 93 139c0 33 -14 67 -43 67c-31 0 -52 -30 -53 -63zM-15 -138l-12 595c8 5 18 8 27 8s19 -3 27 -8l-7 -345c25 21 58 34 91 34c52 0 89 -48 89 -102c0 -80 -86 -117 -147 -169c-15 -13 -24 -38 -45 -38
c-13 0 -23 11 -23 25z" fill="currentColor"/>
</g>
<a style="color:inherit;" xlink:href="textedit:///home/johannes/common-lisp/setzkasten/lilypond-export/b1-c31-m1-e.ly:152:43:44">
<g transform="translate(79.3514, 5.9000)">
<path transform="scale(0.0040, -0.0040)" d="M213 112c-50 0 -69 -43 -69 -88c0 -77 57 -136 134 -136c50 0 69 43 69 88c0 77 -57 136 -134 136zM491 0c0 -43 -34 -75 -72 -96c-53 -29 -114 -40 -174 -40s-120 11 -173 40c-38 21 -72 53 -72 96s34 75 72 96c53 29 113 40 173 40s121 -11 174 -40
c38 -21 72 -53 72 -96z" fill="currentColor"/>
</g>
</a>
<g transform="translate(74.3514, 5.4000)">
<path transform="scale(0.0040, -0.0040)" d="M318 0c0 -33 7 -73 45 -73c29 0 57 31 88 31c123 0 229 -89 229 -208c0 -169 -93 -250 -265 -250c-83 0 -152 61 -152 142c0 42 34 77 76 77s76 -35 76 -77c0 -39 -49 -37 -49 -76c0 -23 24 -38 49 -38c116 0 140 90 140 222c0 106 -12 180 -104 180
c-72 0 -119 -71 -119 -149c0 -9 -7 -14 -14 -14s-13 5 -13 14c0 76 -31 147 -84 200v-471c0 -6 -4 -10 -10 -10h-21c-6 0 -10 4 -10 10v980c0 6 4 10 10 10h21c6 0 10 -4 10 -10v-471c53 53 84 124 84 200c0 9 6 14 13 14s14 -5 14 -14c0 -78 47 -149 119 -149
c92 0 104 74 104 180c0 132 -24 222 -140 222c-25 0 -49 -15 -49 -38c0 -39 49 -37 49 -76c0 -42 -34 -77 -76 -77s-76 35 -76 77c0 81 69 142 152 142c172 0 265 -81 265 -250c0 -119 -106 -208 -229 -208c-31 0 -59 31 -88 31c-38 0 -45 -40 -45 -73zM129 -500h-119
c-6 0 -10 4 -10 10v980c0 6 4 10 10 10h119c6 0 10 -4 10 -10v-980c0 -6 -4 -10 -10 -10z" fill="currentColor"/>
</g>
<a style="color:inherit;" xlink:href="textedit:///home/johannes/common-lisp/setzkasten/lilypond-export/b1-c31-m1-e.ly:150:16:17">
</a>
<g transform="translate(73.3335, 12.4000)">
<text font-family="serif" font-size="2.2001" text-anchor="start" fill="currentColor">
<tspan>grado di terza</tspan>
</text>
</g>
<g transform="translate(72.3604, 15.4000)">
<text font-family="serif" font-size="2.2001" text-anchor="start" fill="currentColor">
<tspan>più di maggiore</tspan>
</text>
</g>
<g transform="translate(75.8089, 18.4000)">
<text font-family="serif" font-size="2.2001" text-anchor="start" fill="currentColor">
<tspan>composto</tspan>
</text>
</g>
<g transform="translate(96.3503, 8.4000)">
<line stroke-linejoin="round" stroke-linecap="round" stroke-width="0.1000" stroke="currentColor" x1="0.0500" y1="0" x2="12.0740" y2="0"/>
</g>
<g transform="translate(96.3503, 7.4000)">
<line stroke-linejoin="round" stroke-linecap="round" stroke-width="0.1000" stroke="currentColor" x1="0.0500" y1="0" x2="12.0740" y2="0"/>
</g>
<g transform="translate(96.3503, 6.4000)">
<line stroke-linejoin="round" stroke-linecap="round" stroke-width="0.1000" stroke="currentColor" x1="0.0500" y1="0" x2="12.0740" y2="0"/>
</g>
<g transform="translate(96.3503, 5.4000)">
<line stroke-linejoin="round" stroke-linecap="round" stroke-width="0.1000" stroke="currentColor" x1="0.0500" y1="0" x2="12.0740" y2="0"/>
</g>
<g transform="translate(96.3503, 4.4000)">
<line stroke-linejoin="round" stroke-linecap="round" stroke-width="0.1000" stroke="currentColor" x1="0.0500" y1="0" x2="12.0740" y2="0"/>
</g>
<a style="color:inherit;" xlink:href="textedit:///home/johannes/common-lisp/setzkasten/lilypond-export/b1-c31-m1-e.ly:190:50:51">
<g transform="translate(105.3123, 5.9000)">
<path transform="scale(0.0040, -0.0040)" d="M213 112c-50 0 -69 -43 -69 -88c0 -77 57 -136 134 -136c50 0 69 43 69 88c0 77 -57 136 -134 136zM491 0c0 -43 -34 -75 -72 -96c-53 -29 -114 -40 -174 -40s-120 11 -173 40c-38 21 -72 53 -72 96s34 75 72 96c53 29 113 40 173 40s121 -11 174 -40
c38 -21 72 -53 72 -96z" fill="currentColor"/>
</g>
</a>
<g transform="translate(101.0003, 4.9000)">
<path transform="scale(0.0040, -0.0040)" d="M27 41l-1 -66v-11c0 -22 1 -44 4 -66c45 38 93 80 93 139c0 33 -14 67 -43 67c-31 0 -52 -30 -53 -63zM-15 -138l-12 595c8 5 18 8 27 8s19 -3 27 -8l-7 -345c25 21 58 34 91 34c52 0 89 -48 89 -102c0 -80 -86 -117 -147 -169c-15 -13 -24 -38 -45 -38
c-13 0 -23 11 -23 25z" fill="currentColor"/>
</g>
<a style="color:inherit;" xlink:href="textedit:///home/johannes/common-lisp/setzkasten/lilypond-export/b1-c31-m1-e.ly:188:16:17">
</a>
<g transform="translate(97.1503, 5.4000)">
<path transform="scale(0.0040, -0.0040)" d="M318 0c0 -33 7 -73 45 -73c29 0 57 31 88 31c123 0 229 -89 229 -208c0 -169 -93 -250 -265 -250c-83 0 -152 61 -152 142c0 42 34 77 76 77s76 -35 76 -77c0 -39 -49 -37 -49 -76c0 -23 24 -38 49 -38c116 0 140 90 140 222c0 106 -12 180 -104 180
c-72 0 -119 -71 -119 -149c0 -9 -7 -14 -14 -14s-13 5 -13 14c0 76 -31 147 -84 200v-471c0 -6 -4 -10 -10 -10h-21c-6 0 -10 4 -10 10v980c0 6 4 10 10 10h21c6 0 10 -4 10 -10v-471c53 53 84 124 84 200c0 9 6 14 13 14s14 -5 14 -14c0 -78 47 -149 119 -149
c92 0 104 74 104 180c0 132 -24 222 -140 222c-25 0 -49 -15 -49 -38c0 -39 49 -37 49 -76c0 -42 -34 -77 -76 -77s-76 35 -76 77c0 81 69 142 152 142c172 0 265 -81 265 -250c0 -119 -106 -208 -229 -208c-31 0 -59 31 -88 31c-38 0 -45 -40 -45 -73zM129 -500h-119
c-6 0 -10 4 -10 10v980c0 6 4 10 10 10h119c6 0 10 -4 10 -10v-980c0 -6 -4 -10 -10 -10z" fill="currentColor"/>
</g>
<a style="color:inherit;" xlink:href="textedit:///home/johannes/common-lisp/setzkasten/lilypond-export/b1-c31-m1-e.ly:190:43:44">
<g transform="translate(102.1503, 4.9000)">
<path transform="scale(0.0040, -0.0040)" d="M213 112c-50 0 -69 -43 -69 -88c0 -77 57 -136 134 -136c50 0 69 43 69 88c0 77 -57 136 -134 136zM491 0c0 -43 -34 -75 -72 -96c-53 -29 -114 -40 -174 -40s-120 11 -173 40c-38 21 -72 53 -72 96s34 75 72 96c53 29 113 40 173 40s121 -11 174 -40
c38 -21 72 -53 72 -96z" fill="currentColor"/>
</g>
</a>
<g transform="translate(94.5514, 12.4000)">
<text font-family="serif" font-size="2.2001" text-anchor="start" fill="currentColor">
<tspan>grado di terza</tspan>
</text>
</g>
<g transform="translate(93.5783, 15.4000)">
<text font-family="serif" font-size="2.2001" text-anchor="start" fill="currentColor">
<tspan>più di maggiore</tspan>
</text>
</g>
<g transform="translate(95.9513, 18.4000)">
<text font-family="serif" font-size="2.2001" text-anchor="start" fill="currentColor">
<tspan>incomposto</tspan>
</text>
</g>
<g transform="translate(114.7963, 8.4000)">
<line stroke-linejoin="round" stroke-linecap="round" stroke-width="0.1000" stroke="currentColor" x1="0.0500" y1="0" x2="19.2480" y2="0"/>
</g>
<g transform="translate(114.7963, 7.4000)">
<line stroke-linejoin="round" stroke-linecap="round" stroke-width="0.1000" stroke="currentColor" x1="0.0500" y1="0" x2="19.2480" y2="0"/>
</g>
<g transform="translate(114.7963, 6.4000)">
<line stroke-linejoin="round" stroke-linecap="round" stroke-width="0.1000" stroke="currentColor" x1="0.0500" y1="0" x2="19.2480" y2="0"/>
</g>
<g transform="translate(114.7963, 5.4000)">
<line stroke-linejoin="round" stroke-linecap="round" stroke-width="0.1000" stroke="currentColor" x1="0.0500" y1="0" x2="19.2480" y2="0"/>
</g>
<g transform="translate(114.7963, 4.4000)">
<line stroke-linejoin="round" stroke-linecap="round" stroke-width="0.1000" stroke="currentColor" x1="0.0500" y1="0" x2="19.2480" y2="0"/>
</g>
<a style="color:inherit;" xlink:href="textedit:///home/johannes/common-lisp/setzkasten/lilypond-export/b1-c31-m1-e.ly:228:49:50">
<g transform="translate(123.7583, 6.4000)">
<path transform="scale(0.0040, -0.0040)" d="M213 112c-50 0 -69 -43 -69 -88c0 -77 57 -136 134 -136c50 0 69 43 69 88c0 77 -57 136 -134 136zM491 0c0 -43 -34 -75 -72 -96c-53 -29 -114 -40 -174 -40s-120 11 -173 40c-38 21 -72 53 -72 96s34 75 72 96c53 29 113 40 173 40s121 -11 174 -40
c38 -21 72 -53 72 -96z" fill="currentColor"/>
</g>
</a>
<a style="color:inherit;" xlink:href="textedit:///home/johannes/common-lisp/setzkasten/lilypond-export/b1-c31-m1-e.ly:228:53:54">
<g transform="translate(126.9203, 6.9000)">
<path transform="scale(0.0040, -0.0040)" d="M213 112c-50 0 -69 -43 -69 -88c0 -77 57 -136 134 -136c50 0 69 43 69 88c0 77 -57 136 -134 136zM491 0c0 -43 -34 -75 -72 -96c-53 -29 -114 -40 -174 -40s-120 11 -173 40c-38 21 -72 53 -72 96s34 75 72 96c53 29 113 40 173 40s121 -11 174 -40
c38 -21 72 -53 72 -96z" fill="currentColor"/>
</g>
</a>
<a style="color:inherit;" xlink:href="textedit:///home/johannes/common-lisp/setzkasten/lilypond-export/b1-c31-m1-e.ly:228:57:58">
<g transform="translate(130.9323, 7.4000)">
<path transform="scale(0.0040, -0.0040)" d="M213 112c-50 0 -69 -43 -69 -88c0 -77 57 -136 134 -136c50 0 69 43 69 88c0 77 -57 136 -134 136zM491 0c0 -43 -34 -75 -72 -96c-53 -29 -114 -40 -174 -40s-120 11 -173 40c-38 21 -72 53 -72 96s34 75 72 96c53 29 113 40 173 40s121 -11 174 -40
c38 -21 72 -53 72 -96z" fill="currentColor"/>
</g>
</a>
<g transform="translate(129.4823, 7.4000)">
<path transform="scale(0.0040, -0.0040)" d="M216 -312c0 -10 -8 -19 -18 -19s-19 9 -19 19v145l-83 -31v-158c0 -10 -9 -19 -19 -19s-18 9 -18 19v145l-32 -12c-2 -1 -5 -1 -7 -1c-11 0 -20 9 -20 20v60c0 8 5 16 13 19l46 16v160l-32 -11c-2 -1 -5 -1 -7 -1c-11 0 -20 9 -20 20v60c0 8 5 15 13 18l46 17v158
c0 10 8 19 18 19s19 -9 19 -19v-145l83 31v158c0 10 9 19 19 19s18 -9 18 -19v-145l32 12c2 1 5 1 7 1c11 0 20 -9 20 -20v-60c0 -8 -5 -16 -13 -19l-46 -16v-160l32 11c2 1 5 1 7 1c11 0 20 -9 20 -20v-60c0 -8 -5 -15 -13 -18l-46 -17v-158zM96 65v-160l83 30v160z" fill="currentColor"/>
</g>
<a style="color:inherit;" xlink:href="textedit:///home/johannes/common-lisp/setzkasten/lilypond-export/b1-c31-m1-e.ly:228:43:44">
<g transform="translate(120.5963, 5.9000)">
<path transform="scale(0.0040, -0.0040)" d="M213 112c-50 0 -69 -43 -69 -88c0 -77 57 -136 134 -136c50 0 69 43 69 88c0 77 -57 136 -134 136zM491 0c0 -43 -34 -75 -72 -96c-53 -29 -114 -40 -174 -40s-120 11 -173 40c-38 21 -72 53 -72 96s34 75 72 96c53 29 113 40 173 40s121 -11 174 -40
c38 -21 72 -53 72 -96z" fill="currentColor"/>
</g>
</a>
<g transform="translate(115.5963, 5.4000)">
<path transform="scale(0.0040, -0.0040)" d="M318 0c0 -33 7 -73 45 -73c29 0 57 31 88 31c123 0 229 -89 229 -208c0 -169 -93 -250 -265 -250c-83 0 -152 61 -152 142c0 42 34 77 76 77s76 -35 76 -77c0 -39 -49 -37 -49 -76c0 -23 24 -38 49 -38c116 0 140 90 140 222c0 106 -12 180 -104 180
c-72 0 -119 -71 -119 -149c0 -9 -7 -14 -14 -14s-13 5 -13 14c0 76 -31 147 -84 200v-471c0 -6 -4 -10 -10 -10h-21c-6 0 -10 4 -10 10v980c0 6 4 10 10 10h21c6 0 10 -4 10 -10v-471c53 53 84 124 84 200c0 9 6 14 13 14s14 -5 14 -14c0 -78 47 -149 119 -149
c92 0 104 74 104 180c0 132 -24 222 -140 222c-25 0 -49 -15 -49 -38c0 -39 49 -37 49 -76c0 -42 -34 -77 -76 -77s-76 35 -76 77c0 81 69 142 152 142c172 0 265 -81 265 -250c0 -119 -106 -208 -229 -208c-31 0 -59 31 -88 31c-38 0 -45 -40 -45 -73zM129 -500h-119
c-6 0 -10 4 -10 10v980c0 6 4 10 10 10h119c6 0 10 -4 10 -10v-980c0 -6 -4 -10 -10 -10z" fill="currentColor"/>
</g>
<a style="color:inherit;" xlink:href="textedit:///home/johannes/common-lisp/setzkasten/lilypond-export/b1-c31-m1-e.ly:226:16:17">
</a>
<g transform="translate(119.4463, 5.9000)">
<path transform="scale(0.0040, -0.0040)" d="M27 41l-1 -66v-11c0 -22 1 -44 4 -66c45 38 93 80 93 139c0 33 -14 67 -43 67c-31 0 -52 -30 -53 -63zM-15 -138l-12 595c8 5 18 8 27 8s19 -3 27 -8l-7 -345c25 21 58 34 91 34c52 0 89 -48 89 -102c0 -80 -86 -117 -147 -169c-15 -13 -24 -38 -45 -38
c-13 0 -23 11 -23 25z" fill="currentColor"/>
</g>
<g transform="translate(116.5844, 12.4000)">
<text font-family="serif" font-size="2.2001" text-anchor="start" fill="currentColor">
<tspan>grado di terza</tspan>
</text>
</g>
<g transform="translate(115.6113, 15.4000)">
<text font-family="serif" font-size="2.2001" text-anchor="start" fill="currentColor">
<tspan>più di maggiore</tspan>
</text>
</g>
<g transform="translate(119.0598, 18.4000)">
<text font-family="serif" font-size="2.2001" text-anchor="start" fill="currentColor">
<tspan>composto</tspan>
</text>
</g>
<g transform="translate(140.0812, 8.4000)">
<line stroke-linejoin="round" stroke-linecap="round" stroke-width="0.1000" stroke="currentColor" x1="0.0500" y1="0" x2="12.7440" y2="0"/>
</g>
<g transform="translate(140.0812, 7.4000)">
<line stroke-linejoin="round" stroke-linecap="round" stroke-width="0.1000" stroke="currentColor" x1="0.0500" y1="0" x2="12.7440" y2="0"/>
</g>
<g transform="translate(140.0812, 6.4000)">
<line stroke-linejoin="round" stroke-linecap="round" stroke-width="0.1000" stroke="currentColor" x1="0.0500" y1="0" x2="12.7440" y2="0"/>
</g>
<g transform="translate(140.0812, 5.4000)">
<line stroke-linejoin="round" stroke-linecap="round" stroke-width="0.1000" stroke="currentColor" x1="0.0500" y1="0" x2="12.7440" y2="0"/>
</g>
<g transform="translate(140.0812, 4.4000)">
<line stroke-linejoin="round" stroke-linecap="round" stroke-width="0.1000" stroke="currentColor" x1="0.0500" y1="0" x2="12.7440" y2="0"/>
</g>
<g transform="translate(148.5633, 7.9000)">
<path transform="scale(0.0040, -0.0040)" d="M27 41l-1 -66v-11c0 -22 1 -44 4 -66c45 38 93 80 93 139c0 33 -14 67 -43 67c-31 0 -52 -30 -53 -63zM-15 -138l-12 595c8 5 18 8 27 8s19 -3 27 -8l-7 -345c25 21 58 34 91 34c52 0 89 -48 89 -102c0 -80 -86 -117 -147 -169c-15 -13 -24 -38 -45 -38
c-13 0 -23 11 -23 25z" fill="currentColor"/>
</g>
<a style="color:inherit;" xlink:href="textedit:///home/johannes/common-lisp/setzkasten/lilypond-export/b1-c31-m1-e.ly:266:54:55">
<g transform="translate(149.7133, 7.9000)">
<path transform="scale(0.0040, -0.0040)" d="M213 112c-50 0 -69 -43 -69 -88c0 -77 57 -136 134 -136c50 0 69 43 69 88c0 77 -57 136 -134 136zM491 0c0 -43 -34 -75 -72 -96c-53 -29 -114 -40 -174 -40s-120 11 -173 40c-38 21 -72 53 -72 96s34 75 72 96c53 29 113 40 173 40s121 -11 174 -40
c38 -21 72 -53 72 -96z" fill="currentColor"/>
</g>
</a>
<a style="color:inherit;" xlink:href="textedit:///home/johannes/common-lisp/setzkasten/lilypond-export/b1-c31-m1-e.ly:264:16:17">
</a>
<g transform="translate(140.8812, 5.4000)">
<path transform="scale(0.0040, -0.0040)" d="M318 0c0 -33 7 -73 45 -73c29 0 57 31 88 31c123 0 229 -89 229 -208c0 -169 -93 -250 -265 -250c-83 0 -152 61 -152 142c0 42 34 77 76 77s76 -35 76 -77c0 -39 -49 -37 -49 -76c0 -23 24 -38 49 -38c116 0 140 90 140 222c0 106 -12 180 -104 180
c-72 0 -119 -71 -119 -149c0 -9 -7 -14 -14 -14s-13 5 -13 14c0 76 -31 147 -84 200v-471c0 -6 -4 -10 -10 -10h-21c-6 0 -10 4 -10 10v980c0 6 4 10 10 10h21c6 0 10 -4 10 -10v-471c53 53 84 124 84 200c0 9 6 14 13 14s14 -5 14 -14c0 -78 47 -149 119 -149
c92 0 104 74 104 180c0 132 -24 222 -140 222c-25 0 -49 -15 -49 -38c0 -39 49 -37 49 -76c0 -42 -34 -77 -76 -77s-76 35 -76 77c0 81 69 142 152 142c172 0 265 -81 265 -250c0 -119 -106 -208 -229 -208c-31 0 -59 31 -88 31c-38 0 -45 -40 -45 -73zM129 -500h-119
c-6 0 -10 4 -10 10v980c0 6 4 10 10 10h119c6 0 10 -4 10 -10v-980c0 -6 -4 -10 -10 -10z" fill="currentColor"/>
</g>
<a style="color:inherit;" xlink:href="textedit:///home/johannes/common-lisp/setzkasten/lilypond-export/b1-c31-m1-e.ly:266:50:51">
<g transform="translate(146.8623, 5.9000)">
<path transform="scale(0.0045, -0.0045)" d="M-50 0c0 28 22 50 50 50s50 -22 50 -50s-22 -50 -50 -50s-50 22 -50 50z" fill="currentColor"/>
</g>
</a>
<a style="color:inherit;" xlink:href="textedit:///home/johannes/common-lisp/setzkasten/lilypond-export/b1-c31-m1-e.ly:266:48:49">
<g transform="translate(145.8812, 6.9000)">
<path transform="scale(0.0040, -0.0040)" d="M213 112c-50 0 -69 -43 -69 -88c0 -77 57 -136 134 -136c50 0 69 43 69 88c0 77 -57 136 -134 136zM491 0c0 -43 -34 -75 -72 -96c-53 -29 -114 -40 -174 -40s-120 11 -173 40c-38 21 -72 53 -72 96s34 75 72 96c53 29 113 40 173 40s121 -11 174 -40
c38 -21 72 -53 72 -96z" fill="currentColor"/>
</g>
</a>
<g transform="translate(138.6174, 12.4000)">
<text font-family="serif" font-size="2.2001" text-anchor="start" fill="currentColor">
<tspan>grado di terza</tspan>
</text>
</g>
<g transform="translate(137.6443, 15.4000)">
<text font-family="serif" font-size="2.2001" text-anchor="start" fill="currentColor">
<tspan>più di maggiore</tspan>
</text>
</g>
<g transform="translate(140.0172, 18.4000)">
<text font-family="serif" font-size="2.2001" text-anchor="start" fill="currentColor">
<tspan>incomposto</tspan>
</text>
</g>
</svg>
