<svg xmlns="http://www.w3.org/2000/svg" xmlns:xlink="http://www.w3.org/1999/xlink" version="1.2" width="178.27mm" height="55.38mm" viewBox="0.0000 -0.0000 101.4459 31.5153">
<style type="text/css">
<![CDATA[
tspan { white-space: pre; }
]]>
</style>
<g transform="translate(8.9303, 5.2000)">
<line stroke-linejoin="round" stroke-linecap="round" stroke-width="0.1000" stroke="currentColor" x1="0.0500" y1="0" x2="13.3464" y2="0"/>
</g>
<g transform="translate(8.9303, 4.2000)">
<line stroke-linejoin="round" stroke-linecap="round" stroke-width="0.1000" stroke="currentColor" x1="0.0500" y1="0" x2="13.3464" y2="0"/>
</g>
<g transform="translate(8.9303, 3.2000)">
<line stroke-linejoin="round" stroke-linecap="round" stroke-width="0.1000" stroke="currentColor" x1="0.0500" y1="0" x2="13.3464" y2="0"/>
</g>
<g transform="translate(8.9303, 2.2000)">
<line stroke-linejoin="round" stroke-linecap="round" stroke-width="0.1000" stroke="currentColor" x1="0.0500" y1="0" x2="13.3464" y2="0"/>
</g>
<g transform="translate(8.9303, 1.2000)">
<line stroke-linejoin="round" stroke-linecap="round" stroke-width="0.1000" stroke="currentColor" x1="0.0500" y1="0" x2="13.3464" y2="0"/>
</g>
<a style="color:inherit;" xlink:href="textedit:///home/johannes/common-lisp/setzkasten/lilypond-export/b1-c18-m1-d-orig.ly:40:55:56">
<g transform="translate(17.7091, 5.2000)">
<path transform="scale(0.0040, -0.0040)" d="M73 54c-1 -2 -2 -4 -2 -6s1 -4 2 -6l91 -129c2 -3 5 -4 8 -4s7 1 9 4l23 33c1 2 2 4 2 6s-1 4 -2 6l-91 129c-2 3 -5 4 -8 4s-6 -1 -8 -4zM2 -6c-1 2 -2 4 -2 6s1 4 2 6l128 182c2 3 6 4 9 4s6 -1 8 -4l128 -182c1 -2 2 -4 2 -6s-1 -4 -2 -6l-128 -182c-2 -3 -5 -4 -8 -4
s-7 1 -9 4z" fill="currentColor"/>
</g>
</a>
<a style="color:inherit;" xlink:href="textedit:///home/johannes/common-lisp/setzkasten/lilypond-export/b1-c18-m1-d-orig.ly:40:59:60">
<g transform="translate(18.2635, 3.7000)">
<path transform="scale(0.0045, -0.0045)" d="M-50 0c0 28 22 50 50 50s50 -22 50 -50s-22 -50 -50 -50s-50 22 -50 50z" fill="currentColor"/>
</g>
</a>
<g transform="translate(16.5591, 5.2000)">
<path transform="scale(0.0040, -0.0040)" d="M27 41l-1 -66v-11c0 -22 1 -44 4 -66c45 38 93 80 93 139c0 33 -14 67 -43 67c-31 0 -52 -30 -53 -63zM-15 -138l-12 595c8 5 18 8 27 8s19 -3 27 -8l-7 -345c25 21 58 34 91 34c52 0 89 -48 89 -102c0 -80 -86 -117 -147 -169c-15 -13 -24 -38 -45 -38
c-13 0 -23 11 -23 25z" fill="currentColor"/>
</g>
<a style="color:inherit;" xlink:href="textedit:///home/johannes/common-lisp/setzkasten/lilypond-export/b1-c18-m1-d-orig.ly:40:64:65">
<g transform="translate(20.0179, 5.2000)">
<path transform="scale(0.0040, -0.0040)" d="M73 54c-1 -2 -2 -4 -2 -6s1 -4 2 -6l91 -129c2 -3 5 -4 8 -4s7 1 9 4l23 33c1 2 2 4 2 6s-1 4 -2 6l-91 129c-2 3 -5 4 -8 4s-6 -1 -8 -4zM2 -6c-1 2 -2 4 -2 6s1 4 2 6l128 182c2 3 6 4 9 4s6 -1 8 -4l128 -182c1 -2 2 -4 2 -6s-1 -4 -2 -6l-128 -182c-2 -3 -5 -4 -8 -4
s-7 1 -9 4z" fill="currentColor"/>
</g>
</a>
<a style="color:inherit;" xlink:href="textedit:///home/johannes/common-lisp/setzkasten/lilypond-export/b1-c18-m1-d-orig.ly:40:43:44">
<g transform="translate(14.7303, 5.2000)">
<path transform="scale(0.0040, -0.0040)" d="M73 54c-1 -2 -2 -4 -2 -6s1 -4 2 -6l91 -129c2 -3 5 -4 8 -4s7 1 9 4l23 33c1 2 2 4 2 6s-1 4 -2 6l-91 129c-2 3 -5 4 -8 4s-6 -1 -8 -4zM2 -6c-1 2 -2 4 -2 6s1 4 2 6l128 182c2 3 6 4 9 4s6 -1 8 -4l128 -182c1 -2 2 -4 2 -6s-1 -4 -2 -6l-128 -182c-2 -3 -5 -4 -8 -4
s-7 1 -9 4z" fill="currentColor"/>
</g>
</a>
<g transform="translate(9.7303, 2.2000)">
<path transform="scale(0.0040, -0.0040)" d="M35 -104v-42c0 -6 4 -10 10 -10h195c6 0 10 4 10 10v42c0 6 -4 10 -10 10h-195c-6 0 -10 -4 -10 -10zM35 146v-42c0 -6 4 -10 10 -10h195c6 0 10 4 10 10v42c0 6 -4 10 -10 10h-195c-6 0 -10 -4 -10 -10zM0 0v540c0 7 9 10 18 10s17 -3 17 -10v-311c0 -6 4 -10 10 -10
h195c6 0 10 4 10 10v83c0 7 9 10 18 10s17 -3 17 -10v-271c0 -6 -4 -10 -10 -10h-230c-6 0 -10 -4 -10 -10v-42c0 -6 4 -10 10 -10h230c6 0 10 -4 10 -10v-271c0 -7 -8 -10 -17 -10s-18 3 -18 10v83c0 6 -4 10 -10 10h-195c-6 0 -10 -4 -10 -10v-311c0 -7 -8 -10 -17 -10
s-18 3 -18 10v540z" fill="currentColor"/>
</g>
<a style="color:inherit;" xlink:href="textedit:///home/johannes/common-lisp/setzkasten/lilypond-export/b1-c18-m1-d-orig.ly:38:16:17">
</a>
<g transform="translate(13.5803, 5.2000)">
<path transform="scale(0.0040, -0.0040)" d="M27 41l-1 -66v-11c0 -22 1 -44 4 -66c45 38 93 80 93 139c0 33 -14 67 -43 67c-31 0 -52 -30 -53 -63zM-15 -138l-12 595c8 5 18 8 27 8s19 -3 27 -8l-7 -345c25 21 58 34 91 34c52 0 89 -48 89 -102c0 -80 -86 -117 -147 -169c-15 -13 -24 -38 -45 -38
c-13 0 -23 11 -23 25z" fill="currentColor"/>
</g>
<g transform="translate(6.1970, 9.2000)">
<text font-family="serif" font-size="2.2001" text-anchor="start" fill="currentColor">
<tspan>semitono minore</tspan>
</text>
</g>
<g transform="translate(10.2430, 12.2000)">
<text font-family="serif" font-size="2.2001" text-anchor="start" fill="currentColor">
<tspan>composto</tspan>
</text>
</g>
<g transform="translate(31.3432, 5.2000)">
<line stroke-linejoin="round" stroke-linecap="round" stroke-width="0.1000" stroke="currentColor" x1="0.0500" y1="0" x2="13.3464" y2="0"/>
</g>
<g transform="translate(31.3432, 4.2000)">
<line stroke-linejoin="round" stroke-linecap="round" stroke-width="0.1000" stroke="currentColor" x1="0.0500" y1="0" x2="13.3464" y2="0"/>
</g>
<g transform="translate(31.3432, 3.2000)">
<line stroke-linejoin="round" stroke-linecap="round" stroke-width="0.1000" stroke="currentColor" x1="0.0500" y1="0" x2="13.3464" y2="0"/>
</g>
<g transform="translate(31.3432, 2.2000)">
<line stroke-linejoin="round" stroke-linecap="round" stroke-width="0.1000" stroke="currentColor" x1="0.0500" y1="0" x2="13.3464" y2="0"/>
</g>
<g transform="translate(31.3432, 1.2000)">
<line stroke-linejoin="round" stroke-linecap="round" stroke-width="0.1000" stroke="currentColor" x1="0.0500" y1="0" x2="13.3464" y2="0"/>
</g>
<a style="color:inherit;" xlink:href="textedit:///home/johannes/common-lisp/setzkasten/lilypond-export/b1-c18-m1-d-orig.ly:77:54:55">
<g transform="translate(40.1221, 4.7000)">
<path transform="scale(0.0040, -0.0040)" d="M73 54c-1 -2 -2 -4 -2 -6s1 -4 2 -6l91 -129c2 -3 5 -4 8 -4s7 1 9 4l23 33c1 2 2 4 2 6s-1 4 -2 6l-91 129c-2 3 -5 4 -8 4s-6 -1 -8 -4zM2 -6c-1 2 -2 4 -2 6s1 4 2 6l128 182c2 3 6 4 9 4s6 -1 8 -4l128 -182c1 -2 2 -4 2 -6s-1 -4 -2 -6l-128 -182c-2 -3 -5 -4 -8 -4
s-7 1 -9 4z" fill="currentColor"/>
</g>
</a>
<a style="color:inherit;" xlink:href="textedit:///home/johannes/common-lisp/setzkasten/lilypond-export/b1-c18-m1-d-orig.ly:77:57:58">
<g transform="translate(40.6765, 2.7000)">
<path transform="scale(0.0045, -0.0045)" d="M-50 0c0 28 22 50 50 50s50 -22 50 -50s-22 -50 -50 -50s-50 22 -50 50z" fill="currentColor"/>
</g>
</a>
<g transform="translate(38.9721, 4.7000)">
<path transform="scale(0.0040, -0.0040)" d="M27 41l-1 -66v-11c0 -22 1 -44 4 -66c45 38 93 80 93 139c0 33 -14 67 -43 67c-31 0 -52 -30 -53 -63zM-15 -138l-12 595c8 5 18 8 27 8s19 -3 27 -8l-7 -345c25 21 58 34 91 34c52 0 89 -48 89 -102c0 -80 -86 -117 -147 -169c-15 -13 -24 -38 -45 -38
c-13 0 -23 11 -23 25z" fill="currentColor"/>
</g>
<a style="color:inherit;" xlink:href="textedit:///home/johannes/common-lisp/setzkasten/lilypond-export/b1-c18-m1-d-orig.ly:77:62:63">
<g transform="translate(42.4309, 4.7000)">
<path transform="scale(0.0040, -0.0040)" d="M73 54c-1 -2 -2 -4 -2 -6s1 -4 2 -6l91 -129c2 -3 5 -4 8 -4s7 1 9 4l23 33c1 2 2 4 2 6s-1 4 -2 6l-91 129c-2 3 -5 4 -8 4s-6 -1 -8 -4zM2 -6c-1 2 -2 4 -2 6s1 4 2 6l128 182c2 3 6 4 9 4s6 -1 8 -4l128 -182c1 -2 2 -4 2 -6s-1 -4 -2 -6l-128 -182c-2 -3 -5 -4 -8 -4
s-7 1 -9 4z" fill="currentColor"/>
</g>
</a>
<a style="color:inherit;" xlink:href="textedit:///home/johannes/common-lisp/setzkasten/lilypond-export/b1-c18-m1-d-orig.ly:77:43:44">
<g transform="translate(37.1432, 4.7000)">
<path transform="scale(0.0040, -0.0040)" d="M73 54c-1 -2 -2 -4 -2 -6s1 -4 2 -6l91 -129c2 -3 5 -4 8 -4s7 1 9 4l23 33c1 2 2 4 2 6s-1 4 -2 6l-91 129c-2 3 -5 4 -8 4s-6 -1 -8 -4zM2 -6c-1 2 -2 4 -2 6s1 4 2 6l128 182c2 3 6 4 9 4s6 -1 8 -4l128 -182c1 -2 2 -4 2 -6s-1 -4 -2 -6l-128 -182c-2 -3 -5 -4 -8 -4
s-7 1 -9 4z" fill="currentColor"/>
</g>
</a>
<g transform="translate(32.1432, 2.2000)">
<path transform="scale(0.0040, -0.0040)" d="M35 -104v-42c0 -6 4 -10 10 -10h195c6 0 10 4 10 10v42c0 6 -4 10 -10 10h-195c-6 0 -10 -4 -10 -10zM35 146v-42c0 -6 4 -10 10 -10h195c6 0 10 4 10 10v42c0 6 -4 10 -10 10h-195c-6 0 -10 -4 -10 -10zM0 0v540c0 7 9 10 18 10s17 -3 17 -10v-311c0 -6 4 -10 10 -10
h195c6 0 10 4 10 10v83c0 7 9 10 18 10s17 -3 17 -10v-271c0 -6 -4 -10 -10 -10h-230c-6 0 -10 -4 -10 -10v-42c0 -6 4 -10 10 -10h230c6 0 10 -4 10 -10v-271c0 -7 -8 -10 -17 -10s-18 3 -18 10v83c0 6 -4 10 -10 10h-195c-6 0 -10 -4 -10 -10v-311c0 -7 -8 -10 -17 -10
s-18 3 -18 10v540z" fill="currentColor"/>
</g>
<a style="color:inherit;" xlink:href="textedit:///home/johannes/common-lisp/setzkasten/lilypond-export/b1-c18-m1-d-orig.ly:75:16:17">
</a>
<g transform="translate(35.9932, 4.7000)">
<path transform="scale(0.0040, -0.0040)" d="M27 41l-1 -66v-11c0 -22 1 -44 4 -66c45 38 93 80 93 139c0 33 -14 67 -43 67c-31 0 -52 -30 -53 -63zM-15 -138l-12 595c8 5 18 8 27 8s19 -3 27 -8l-7 -345c25 21 58 34 91 34c52 0 89 -48 89 -102c0 -80 -86 -117 -147 -169c-15 -13 -24 -38 -45 -38
c-13 0 -23 11 -23 25z" fill="currentColor"/>
</g>
<g transform="translate(28.6100, 9.2000)">
<text font-family="serif" font-size="2.2001" text-anchor="start" fill="currentColor">
<tspan>semitono minore</tspan>
</text>
</g>
<g transform="translate(32.6560, 12.2000)">
<text font-family="serif" font-size="2.2001" text-anchor="start" fill="currentColor">
<tspan>composto</tspan>
</text>
</g>
<g transform="translate(53.7562, 5.2000)">
<line stroke-linejoin="round" stroke-linecap="round" stroke-width="0.1000" stroke="currentColor" x1="0.0500" y1="0" x2="13.3464" y2="0"/>
</g>
<g transform="translate(53.7562, 4.2000)">
<line stroke-linejoin="round" stroke-linecap="round" stroke-width="0.1000" stroke="currentColor" x1="0.0500" y1="0" x2="13.3464" y2="0"/>
</g>
<g transform="translate(53.7562, 3.2000)">
<line stroke-linejoin="round" stroke-linecap="round" stroke-width="0.1000" stroke="currentColor" x1="0.0500" y1="0" x2="13.3464" y2="0"/>
</g>
<g transform="translate(53.7562, 2.2000)">
<line stroke-linejoin="round" stroke-linecap="round" stroke-width="0.1000" stroke="currentColor" x1="0.0500" y1="0" x2="13.3464" y2="0"/>
</g>
<g transform="translate(53.7562, 1.2000)">
<line stroke-linejoin="round" stroke-linecap="round" stroke-width="0.1000" stroke="currentColor" x1="0.0500" y1="0" x2="13.3464" y2="0"/>
</g>
<a style="color:inherit;" xlink:href="textedit:///home/johannes/common-lisp/setzkasten/lilypond-export/b1-c18-m1-d-orig.ly:114:55:56">
<g transform="translate(62.5350, 3.7000)">
<path transform="scale(0.0040, -0.0040)" d="M73 54c-1 -2 -2 -4 -2 -6s1 -4 2 -6l91 -129c2 -3 5 -4 8 -4s7 1 9 4l23 33c1 2 2 4 2 6s-1 4 -2 6l-91 129c-2 3 -5 4 -8 4s-6 -1 -8 -4zM2 -6c-1 2 -2 4 -2 6s1 4 2 6l128 182c2 3 6 4 9 4s6 -1 8 -4l128 -182c1 -2 2 -4 2 -6s-1 -4 -2 -6l-128 -182c-2 -3 -5 -4 -8 -4
s-7 1 -9 4z" fill="currentColor"/>
</g>
</a>
<a style="color:inherit;" xlink:href="textedit:///home/johannes/common-lisp/setzkasten/lilypond-export/b1-c18-m1-d-orig.ly:114:59:60">
<g transform="translate(63.0894, 1.7000)">
<path transform="scale(0.0045, -0.0045)" d="M-50 0c0 28 22 50 50 50s50 -22 50 -50s-22 -50 -50 -50s-50 22 -50 50z" fill="currentColor"/>
</g>
</a>
<g transform="translate(61.3850, 3.7000)">
<path transform="scale(0.0040, -0.0040)" d="M27 41l-1 -66v-11c0 -22 1 -44 4 -66c45 38 93 80 93 139c0 33 -14 67 -43 67c-31 0 -52 -30 -53 -63zM-15 -138l-12 595c8 5 18 8 27 8s19 -3 27 -8l-7 -345c25 21 58 34 91 34c52 0 89 -48 89 -102c0 -80 -86 -117 -147 -169c-15 -13 -24 -38 -45 -38
c-13 0 -23 11 -23 25z" fill="currentColor"/>
</g>
<a style="color:inherit;" xlink:href="textedit:///home/johannes/common-lisp/setzkasten/lilypond-export/b1-c18-m1-d-orig.ly:114:64:65">
<g transform="translate(64.8438, 3.7000)">
<path transform="scale(0.0040, -0.0040)" d="M73 54c-1 -2 -2 -4 -2 -6s1 -4 2 -6l91 -129c2 -3 5 -4 8 -4s7 1 9 4l23 33c1 2 2 4 2 6s-1 4 -2 6l-91 129c-2 3 -5 4 -8 4s-6 -1 -8 -4zM2 -6c-1 2 -2 4 -2 6s1 4 2 6l128 182c2 3 6 4 9 4s6 -1 8 -4l128 -182c1 -2 2 -4 2 -6s-1 -4 -2 -6l-128 -182c-2 -3 -5 -4 -8 -4
s-7 1 -9 4z" fill="currentColor"/>
</g>
</a>
<a style="color:inherit;" xlink:href="textedit:///home/johannes/common-lisp/setzkasten/lilypond-export/b1-c18-m1-d-orig.ly:114:43:44">
<g transform="translate(59.5562, 3.7000)">
<path transform="scale(0.0040, -0.0040)" d="M73 54c-1 -2 -2 -4 -2 -6s1 -4 2 -6l91 -129c2 -3 5 -4 8 -4s7 1 9 4l23 33c1 2 2 4 2 6s-1 4 -2 6l-91 129c-2 3 -5 4 -8 4s-6 -1 -8 -4zM2 -6c-1 2 -2 4 -2 6s1 4 2 6l128 182c2 3 6 4 9 4s6 -1 8 -4l128 -182c1 -2 2 -4 2 -6s-1 -4 -2 -6l-128 -182c-2 -3 -5 -4 -8 -4
s-7 1 -9 4z" fill="currentColor"/>
</g>
</a>
<g transform="translate(54.5562, 2.2000)">
<path transform="scale(0.0040, -0.0040)" d="M35 -104v-42c0 -6 4 -10 10 -10h195c6 0 10 4 10 10v42c0 6 -4 10 -10 10h-195c-6 0 -10 -4 -10 -10zM35 146v-42c0 -6 4 -10 10 -10h195c6 0 10 4 10 10v42c0 6 -4 10 -10 10h-195c-6 0 -10 -4 -10 -10zM0 0v540c0 7 9 10 18 10s17 -3 17 -10v-311c0 -6 4 -10 10 -10
h195c6 0 10 4 10 10v83c0 7 9 10 18 10s17 -3 17 -10v-271c0 -6 -4 -10 -10 -10h-230c-6 0 -10 -4 -10 -10v-42c0 -6 4 -10 10 -10h230c6 0 10 -4 10 -10v-271c0 -7 -8 -10 -17 -10s-18 3 -18 10v83c0 6 -4 10 -10 10h-195c-6 0 -10 -4 -10 -10v-311c0 -7 -8 -10 -17 -10
s-18 3 -18 10v540z" fill="currentColor"/>
</g>
<a style="color:inherit;" xlink:href="textedit:///home/johannes/common-lisp/setzkasten/lilypond-export/b1-c18-m1-d-orig.ly:112:16:17">
</a>
<g transform="translate(58.4062, 3.7000)">
<path transform="scale(0.0040, -0.0040)" d="M27 41l-1 -66v-11c0 -22 1 -44 4 -66c45 38 93 80 93 139c0 33 -14 67 -43 67c-31 0 -52 -30 -53 -63zM-15 -138l-12 595c8 5 18 8 27 8s19 -3 27 -8l-7 -345c25 21 58 34 91 34c52 0 89 -48 89 -102c0 -80 -86 -117 -147 -169c-15 -13 -24 -38 -45 -38
c-13 0 -23 11 -23 25z" fill="currentColor"/>
</g>
<g transform="translate(51.0229, 9.2000)">
<text font-family="serif" font-size="2.2001" text-anchor="start" fill="currentColor">
<tspan>semitono minore</tspan>
</text>
</g>
<g transform="translate(55.0689, 12.2000)">
<text font-family="serif" font-size="2.2001" text-anchor="start" fill="currentColor">
<tspan>composto</tspan>
</text>
</g>
<g transform="translate(77.2336, 5.2000)">
<line stroke-linejoin="round" stroke-linecap="round" stroke-width="0.1000" stroke="currentColor" x1="0.0500" y1="0" x2="11.2176" y2="0"/>
</g>
<g transform="translate(77.2336, 4.2000)">
<line stroke-linejoin="round" stroke-linecap="round" stroke-width="0.1000" stroke="currentColor" x1="0.0500" y1="0" x2="11.2176" y2="0"/>
</g>
<g transform="translate(77.2336, 3.2000)">
<line stroke-linejoin="round" stroke-linecap="round" stroke-width="0.1000" stroke="currentColor" x1="0.0500" y1="0" x2="11.2176" y2="0"/>
</g>
<g transform="translate(77.2336, 2.2000)">
<line stroke-linejoin="round" stroke-linecap="round" stroke-width="0.1000" stroke="currentColor" x1="0.0500" y1="0" x2="11.2176" y2="0"/>
</g>
<g transform="translate(77.2336, 1.2000)">
<line stroke-linejoin="round" stroke-linecap="round" stroke-width="0.1000" stroke="currentColor" x1="0.0500" y1="0" x2="11.2176" y2="0"/>
</g>
<g transform="translate(84.7424, 3.7000)">
<path transform="scale(0.0040, -0.0040)" d="M216 -312c0 -10 -8 -19 -18 -19s-19 9 -19 19v145l-83 -31v-158c0 -10 -9 -19 -19 -19s-18 9 -18 19v145l-32 -12c-2 -1 -5 -1 -7 -1c-11 0 -20 9 -20 20v60c0 8 5 16 13 19l46 16v160l-32 -11c-2 -1 -5 -1 -7 -1c-11 0 -20 9 -20 20v60c0 8 5 15 13 18l46 17v158
c0 10 8 19 18 19s19 -9 19 -19v-145l83 31v158c0 10 9 19 19 19s18 -9 18 -19v-145l32 12c2 1 5 1 7 1c11 0 20 -9 20 -20v-60c0 -8 -5 -16 -13 -19l-46 -16v-160l32 11c2 1 5 1 7 1c11 0 20 -9 20 -20v-60c0 -8 -5 -15 -13 -18l-46 -17v-158zM96 65v-160l83 30v160z" fill="currentColor"/>
</g>
<a style="color:inherit;" xlink:href="textedit:///home/johannes/common-lisp/setzkasten/lilypond-export/b1-c18-m1-d-orig.ly:151:48:49">
<g transform="translate(86.1924, 3.7000)">
<path transform="scale(0.0040, -0.0040)" d="M73 54c-1 -2 -2 -4 -2 -6s1 -4 2 -6l91 -129c2 -3 5 -4 8 -4s7 1 9 4l23 33c1 2 2 4 2 6s-1 4 -2 6l-91 129c-2 3 -5 4 -8 4s-6 -1 -8 -4zM2 -6c-1 2 -2 4 -2 6s1 4 2 6l128 182c2 3 6 4 9 4s6 -1 8 -4l128 -182c1 -2 2 -4 2 -6s-1 -4 -2 -6l-128 -182c-2 -3 -5 -4 -8 -4
s-7 1 -9 4z" fill="currentColor"/>
</g>
</a>
<a style="color:inherit;" xlink:href="textedit:///home/johannes/common-lisp/setzkasten/lilypond-export/b1-c18-m1-d-orig.ly:149:16:17">
</a>
<g transform="translate(78.0336, 2.2000)">
<path transform="scale(0.0040, -0.0040)" d="M35 -104v-42c0 -6 4 -10 10 -10h195c6 0 10 4 10 10v42c0 6 -4 10 -10 10h-195c-6 0 -10 -4 -10 -10zM35 146v-42c0 -6 4 -10 10 -10h195c6 0 10 4 10 10v42c0 6 -4 10 -10 10h-195c-6 0 -10 -4 -10 -10zM0 0v540c0 7 9 10 18 10s17 -3 17 -10v-311c0 -6 4 -10 10 -10
h195c6 0 10 4 10 10v83c0 7 9 10 18 10s17 -3 17 -10v-271c0 -6 -4 -10 -10 -10h-230c-6 0 -10 -4 -10 -10v-42c0 -6 4 -10 10 -10h230c6 0 10 -4 10 -10v-271c0 -7 -8 -10 -17 -10s-18 3 -18 10v83c0 6 -4 10 -10 10h-195c-6 0 -10 -4 -10 -10v-311c0 -7 -8 -10 -17 -10
s-18 3 -18 10v540z" fill="currentColor"/>
</g>
<a style="color:inherit;" xlink:href="textedit:///home/johannes/common-lisp/setzkasten/lilypond-export/b1-c18-m1-d-orig.ly:151:43:44">
<g transform="translate(83.0336, 3.7000)">
<path transform="scale(0.0040, -0.0040)" d="M73 54c-1 -2 -2 -4 -2 -6s1 -4 2 -6l91 -129c2 -3 5 -4 8 -4s7 1 9 4l23 33c1 2 2 4 2 6s-1 4 -2 6l-91 129c-2 3 -5 4 -8 4s-6 -1 -8 -4zM2 -6c-1 2 -2 4 -2 6s1 4 2 6l128 182c2 3 6 4 9 4s6 -1 8 -4l128 -182c1 -2 2 -4 2 -6s-1 -4 -2 -6l-128 -182c-2 -3 -5 -4 -8 -4
s-7 1 -9 4z" fill="currentColor"/>
</g>
</a>
<g transform="translate(73.4359, 9.2000)">
<text font-family="serif" font-size="2.2001" text-anchor="start" fill="currentColor">
<tspan>semitono minore</tspan>
</text>
</g>
<g transform="translate(76.4064, 12.2000)">
<text font-family="serif" font-size="2.2001" text-anchor="start" fill="currentColor">
<tspan>incomposto</tspan>
</text>
</g>
<g transform="translate(3.7977, 21.0576)">
<line stroke-linejoin="round" stroke-linecap="round" stroke-width="0.1000" stroke="currentColor" x1="0.0500" y1="0" x2="11.2176" y2="0"/>
</g>
<g transform="translate(3.7977, 20.0576)">
<line stroke-linejoin="round" stroke-linecap="round" stroke-width="0.1000" stroke="currentColor" x1="0.0500" y1="0" x2="11.2176" y2="0"/>
</g>
<g transform="translate(3.7977, 19.0576)">
<line stroke-linejoin="round" stroke-linecap="round" stroke-width="0.1000" stroke="currentColor" x1="0.0500" y1="0" x2="11.2176" y2="0"/>
</g>
<g transform="translate(3.7977, 18.0576)">
<line stroke-linejoin="round" stroke-linecap="round" stroke-width="0.1000" stroke="currentColor" x1="0.0500" y1="0" x2="11.2176" y2="0"/>
</g>
<g transform="translate(3.7977, 17.0576)">
<line stroke-linejoin="round" stroke-linecap="round" stroke-width="0.1000" stroke="currentColor" x1="0.0500" y1="0" x2="11.2176" y2="0"/>
</g>
<g transform="translate(11.3065, 19.0576)">
<path transform="scale(0.0040, -0.0040)" d="M216 -312c0 -10 -8 -19 -18 -19s-19 9 -19 19v145l-83 -31v-158c0 -10 -9 -19 -19 -19s-18 9 -18 19v145l-32 -12c-2 -1 -5 -1 -7 -1c-11 0 -20 9 -20 20v60c0 8 5 16 13 19l46 16v160l-32 -11c-2 -1 -5 -1 -7 -1c-11 0 -20 9 -20 20v60c0 8 5 15 13 18l46 17v158
c0 10 8 19 18 19s19 -9 19 -19v-145l83 31v158c0 10 9 19 19 19s18 -9 18 -19v-145l32 12c2 1 5 1 7 1c11 0 20 -9 20 -20v-60c0 -8 -5 -16 -13 -19l-46 -16v-160l32 11c2 1 5 1 7 1c11 0 20 -9 20 -20v-60c0 -8 -5 -15 -13 -18l-46 -17v-158zM96 65v-160l83 30v160z" fill="currentColor"/>
</g>
<a style="color:inherit;" xlink:href="textedit:///home/johannes/common-lisp/setzkasten/lilypond-export/b1-c18-m1-d-orig.ly:191:48:49">
<g transform="translate(12.7565, 19.0576)">
<path transform="scale(0.0040, -0.0040)" d="M73 54c-1 -2 -2 -4 -2 -6s1 -4 2 -6l91 -129c2 -3 5 -4 8 -4s7 1 9 4l23 33c1 2 2 4 2 6s-1 4 -2 6l-91 129c-2 3 -5 4 -8 4s-6 -1 -8 -4zM2 -6c-1 2 -2 4 -2 6s1 4 2 6l128 182c2 3 6 4 9 4s6 -1 8 -4l128 -182c1 -2 2 -4 2 -6s-1 -4 -2 -6l-128 -182c-2 -3 -5 -4 -8 -4
s-7 1 -9 4z" fill="currentColor"/>
</g>
</a>
<a style="color:inherit;" xlink:href="textedit:///home/johannes/common-lisp/setzkasten/lilypond-export/b1-c18-m1-d-orig.ly:189:16:17">
</a>
<g transform="translate(4.5977, 18.0576)">
<path transform="scale(0.0040, -0.0040)" d="M35 -104v-42c0 -6 4 -10 10 -10h195c6 0 10 4 10 10v42c0 6 -4 10 -10 10h-195c-6 0 -10 -4 -10 -10zM35 146v-42c0 -6 4 -10 10 -10h195c6 0 10 4 10 10v42c0 6 -4 10 -10 10h-195c-6 0 -10 -4 -10 -10zM0 0v540c0 7 9 10 18 10s17 -3 17 -10v-311c0 -6 4 -10 10 -10
h195c6 0 10 4 10 10v83c0 7 9 10 18 10s17 -3 17 -10v-271c0 -6 -4 -10 -10 -10h-230c-6 0 -10 -4 -10 -10v-42c0 -6 4 -10 10 -10h230c6 0 10 -4 10 -10v-271c0 -7 -8 -10 -17 -10s-18 3 -18 10v83c0 6 -4 10 -10 10h-195c-6 0 -10 -4 -10 -10v-311c0 -7 -8 -10 -17 -10
s-18 3 -18 10v540z" fill="currentColor"/>
</g>
<a style="color:inherit;" xlink:href="textedit:///home/johannes/common-lisp/setzkasten/lilypond-export/b1-c18-m1-d-orig.ly:191:43:44">
<g transform="translate(9.5977, 19.0576)">
<path transform="scale(0.0040, -0.0040)" d="M73 54c-1 -2 -2 -4 -2 -6s1 -4 2 -6l91 -129c2 -3 5 -4 8 -4s7 1 9 4l23 33c1 2 2 4 2 6s-1 4 -2 6l-91 129c-2 3 -5 4 -8 4s-6 -1 -8 -4zM2 -6c-1 2 -2 4 -2 6s1 4 2 6l128 182c2 3 6 4 9 4s6 -1 8 -4l128 -182c1 -2 2 -4 2 -6s-1 -4 -2 -6l-128 -182c-2 -3 -5 -4 -8 -4
s-7 1 -9 4z" fill="currentColor"/>
</g>
</a>
<g transform="translate(0.0000, 25.0576)">
<text font-family="serif" font-size="2.2001" text-anchor="start" fill="currentColor">
<tspan>semitono minore</tspan>
</text>
</g>
<g transform="translate(2.9705, 28.0576)">
<text font-family="serif" font-size="2.2001" text-anchor="start" fill="currentColor">
<tspan>incomposto</tspan>
</text>
</g>
<g transform="translate(26.3006, 21.0576)">
<line stroke-linejoin="round" stroke-linecap="round" stroke-width="0.1000" stroke="currentColor" x1="0.0500" y1="0" x2="11.0376" y2="0"/>
</g>
<g transform="translate(26.3006, 20.0576)">
<line stroke-linejoin="round" stroke-linecap="round" stroke-width="0.1000" stroke="currentColor" x1="0.0500" y1="0" x2="11.0376" y2="0"/>
</g>
<g transform="translate(26.3006, 19.0576)">
<line stroke-linejoin="round" stroke-linecap="round" stroke-width="0.1000" stroke="currentColor" x1="0.0500" y1="0" x2="11.0376" y2="0"/>
</g>
<g transform="translate(26.3006, 18.0576)">
<line stroke-linejoin="round" stroke-linecap="round" stroke-width="0.1000" stroke="currentColor" x1="0.0500" y1="0" x2="11.0376" y2="0"/>
</g>
<g transform="translate(26.3006, 17.0576)">
<line stroke-linejoin="round" stroke-linecap="round" stroke-width="0.1000" stroke="currentColor" x1="0.0500" y1="0" x2="11.0376" y2="0"/>
</g>
<g transform="translate(33.9294, 17.5576)">
<path transform="scale(0.0040, -0.0040)" d="M27 41l-1 -66v-11c0 -22 1 -44 4 -66c45 38 93 80 93 139c0 33 -14 67 -43 67c-31 0 -52 -30 -53 -63zM-15 -138l-12 595c8 5 18 8 27 8s19 -3 27 -8l-7 -345c25 21 58 34 91 34c52 0 89 -48 89 -102c0 -80 -86 -117 -147 -169c-15 -13 -24 -38 -45 -38
c-13 0 -23 11 -23 25z" fill="currentColor"/>
</g>
<a style="color:inherit;" xlink:href="textedit:///home/johannes/common-lisp/setzkasten/lilypond-export/b1-c18-m1-d-orig.ly:228:49:50">
<g transform="translate(35.0794, 17.5576)">
<path transform="scale(0.0040, -0.0040)" d="M73 54c-1 -2 -2 -4 -2 -6s1 -4 2 -6l91 -129c2 -3 5 -4 8 -4s7 1 9 4l23 33c1 2 2 4 2 6s-1 4 -2 6l-91 129c-2 3 -5 4 -8 4s-6 -1 -8 -4zM2 -6c-1 2 -2 4 -2 6s1 4 2 6l128 182c2 3 6 4 9 4s6 -1 8 -4l128 -182c1 -2 2 -4 2 -6s-1 -4 -2 -6l-128 -182c-2 -3 -5 -4 -8 -4
s-7 1 -9 4z" fill="currentColor"/>
</g>
</a>
<a style="color:inherit;" xlink:href="textedit:///home/johannes/common-lisp/setzkasten/lilypond-export/b1-c18-m1-d-orig.ly:226:16:17">
</a>
<g transform="translate(27.1006, 18.0576)">
<path transform="scale(0.0040, -0.0040)" d="M35 -104v-42c0 -6 4 -10 10 -10h195c6 0 10 4 10 10v42c0 6 -4 10 -10 10h-195c-6 0 -10 -4 -10 -10zM35 146v-42c0 -6 4 -10 10 -10h195c6 0 10 4 10 10v42c0 6 -4 10 -10 10h-195c-6 0 -10 -4 -10 -10zM0 0v540c0 7 9 10 18 10s17 -3 17 -10v-311c0 -6 4 -10 10 -10
h195c6 0 10 4 10 10v83c0 7 9 10 18 10s17 -3 17 -10v-271c0 -6 -4 -10 -10 -10h-230c-6 0 -10 -4 -10 -10v-42c0 -6 4 -10 10 -10h230c6 0 10 -4 10 -10v-271c0 -7 -8 -10 -17 -10s-18 3 -18 10v83c0 6 -4 10 -10 10h-195c-6 0 -10 -4 -10 -10v-311c0 -7 -8 -10 -17 -10
s-18 3 -18 10v540z" fill="currentColor"/>
</g>
<a style="color:inherit;" xlink:href="textedit:///home/johannes/common-lisp/setzkasten/lilypond-export/b1-c18-m1-d-orig.ly:228:43:44">
<g transform="translate(32.1006, 17.0576)">
<path transform="scale(0.0040, -0.0040)" d="M73 54c-1 -2 -2 -4 -2 -6s1 -4 2 -6l91 -129c2 -3 5 -4 8 -4s7 1 9 4l23 33c1 2 2 4 2 6s-1 4 -2 6l-91 129c-2 3 -5 4 -8 4s-6 -1 -8 -4zM2 -6c-1 2 -2 4 -2 6s1 4 2 6l128 182c2 3 6 4 9 4s6 -1 8 -4l128 -182c1 -2 2 -4 2 -6s-1 -4 -2 -6l-128 -182c-2 -3 -5 -4 -8 -4
s-7 1 -9 4z" fill="currentColor"/>
</g>
</a>
<g transform="translate(22.4130, 25.0576)">
<text font-family="serif" font-size="2.2001" text-anchor="start" fill="currentColor">
<tspan>semitono minore</tspan>
</text>
</g>
<g transform="translate(25.3834, 28.0576)">
<text font-family="serif" font-size="2.2001" text-anchor="start" fill="currentColor">
<tspan>incomposto</tspan>
</text>
</g>
<g transform="translate(51.2679, 21.0576)">
<line stroke-linejoin="round" stroke-linecap="round" stroke-width="0.1000" stroke="currentColor" x1="0.0500" y1="0" x2="10.3676" y2="0"/>
</g>
<g transform="translate(51.2679, 20.0576)">
<line stroke-linejoin="round" stroke-linecap="round" stroke-width="0.1000" stroke="currentColor" x1="0.0500" y1="0" x2="10.3676" y2="0"/>
</g>
<g transform="translate(51.2679, 19.0576)">
<line stroke-linejoin="round" stroke-linecap="round" stroke-width="0.1000" stroke="currentColor" x1="0.0500" y1="0" x2="10.3676" y2="0"/>
</g>
<g transform="translate(51.2679, 18.0576)">
<line stroke-linejoin="round" stroke-linecap="round" stroke-width="0.1000" stroke="currentColor" x1="0.0500" y1="0" x2="10.3676" y2="0"/>
</g>
<g transform="translate(51.2679, 17.0576)">
<line stroke-linejoin="round" stroke-linecap="round" stroke-width="0.1000" stroke="currentColor" x1="0.0500" y1="0" x2="10.3676" y2="0"/>
</g>
<a style="color:inherit;" xlink:href="textedit:///home/johannes/common-lisp/setzkasten/lilypond-export/b1-c18-m1-d-orig.ly:265:56:57">
<g transform="translate(59.9311, 16.5576)">
<path transform="scale(0.0045, -0.0045)" d="M-50 0c0 28 22 50 50 50s50 -22 50 -50s-22 -50 -50 -50s-50 22 -50 50z" fill="currentColor"/>
</g>
</a>
<a style="color:inherit;" xlink:href="textedit:///home/johannes/common-lisp/setzkasten/lilypond-export/b1-c18-m1-d-orig.ly:265:54:55">
<g transform="translate(59.3767, 18.5576)">
<path transform="scale(0.0040, -0.0040)" d="M73 54c-1 -2 -2 -4 -2 -6s1 -4 2 -6l91 -129c2 -3 5 -4 8 -4s7 1 9 4l23 33c1 2 2 4 2 6s-1 4 -2 6l-91 129c-2 3 -5 4 -8 4s-6 -1 -8 -4zM2 -6c-1 2 -2 4 -2 6s1 4 2 6l128 182c2 3 6 4 9 4s6 -1 8 -4l128 -182c1 -2 2 -4 2 -6s-1 -4 -2 -6l-128 -182c-2 -3 -5 -4 -8 -4
s-7 1 -9 4z" fill="currentColor"/>
</g>
</a>
<a style="color:inherit;" xlink:href="textedit:///home/johannes/common-lisp/setzkasten/lilypond-export/b1-c18-m1-d-orig.ly:263:16:17">
</a>
<g transform="translate(52.0679, 18.0576)">
<path transform="scale(0.0040, -0.0040)" d="M35 -104v-42c0 -6 4 -10 10 -10h195c6 0 10 4 10 10v42c0 6 -4 10 -10 10h-195c-6 0 -10 -4 -10 -10zM35 146v-42c0 -6 4 -10 10 -10h195c6 0 10 4 10 10v42c0 6 -4 10 -10 10h-195c-6 0 -10 -4 -10 -10zM0 0v540c0 7 9 10 18 10s17 -3 17 -10v-311c0 -6 4 -10 10 -10
h195c6 0 10 4 10 10v83c0 7 9 10 18 10s17 -3 17 -10v-271c0 -6 -4 -10 -10 -10h-230c-6 0 -10 -4 -10 -10v-42c0 -6 4 -10 10 -10h230c6 0 10 -4 10 -10v-271c0 -7 -8 -10 -17 -10s-18 3 -18 10v83c0 6 -4 10 -10 10h-195c-6 0 -10 -4 -10 -10v-311c0 -7 -8 -10 -17 -10
s-18 3 -18 10v540z" fill="currentColor"/>
</g>
<a style="color:inherit;" xlink:href="textedit:///home/johannes/common-lisp/setzkasten/lilypond-export/b1-c18-m1-d-orig.ly:265:43:44">
<g transform="translate(57.0679, 18.0576)">
<path transform="scale(0.0040, -0.0040)" d="M73 54c-1 -2 -2 -4 -2 -6s1 -4 2 -6l91 -129c2 -3 5 -4 8 -4s7 1 9 4l23 33c1 2 2 4 2 6s-1 4 -2 6l-91 129c-2 3 -5 4 -8 4s-6 -1 -8 -4zM2 -6c-1 2 -2 4 -2 6s1 4 2 6l128 182c2 3 6 4 9 4s6 -1 8 -4l128 -182c1 -2 2 -4 2 -6s-1 -4 -2 -6l-128 -182c-2 -3 -5 -4 -8 -4
s-7 1 -9 4z" fill="currentColor"/>
</g>
</a>
<g transform="translate(47.6257, 25.0576)">
<text font-family="serif" font-size="2.2001" text-anchor="start" fill="currentColor">
<tspan>diesis maggiore</tspan>
</text>
</g>
<g transform="translate(44.8259, 28.0576)">
<text font-family="serif" font-size="2.2001" text-anchor="start" fill="currentColor">
<tspan>per semitono minore</tspan>
</text>
</g>
<g transform="translate(50.0157, 31.0576)">
<text font-family="serif" font-size="2.2001" text-anchor="start" fill="currentColor">
<tspan>incomposto</tspan>
</text>
</g>
<g transform="translate(79.5429, 21.0576)">
<line stroke-linejoin="round" stroke-linecap="round" stroke-width="0.1000" stroke="currentColor" x1="0.0500" y1="0" x2="11.0376" y2="0"/>
</g>
<g transform="translate(79.5429, 20.0576)">
<line stroke-linejoin="round" stroke-linecap="round" stroke-width="0.1000" stroke="currentColor" x1="0.0500" y1="0" x2="11.0376" y2="0"/>
</g>
<g transform="translate(79.5429, 19.0576)">
<line stroke-linejoin="round" stroke-linecap="round" stroke-width="0.1000" stroke="currentColor" x1="0.0500" y1="0" x2="11.0376" y2="0"/>
</g>
<g transform="translate(79.5429, 18.0576)">
<line stroke-linejoin="round" stroke-linecap="round" stroke-width="0.1000" stroke="currentColor" x1="0.0500" y1="0" x2="11.0376" y2="0"/>
</g>
<g transform="translate(79.5429, 17.0576)">
<line stroke-linejoin="round" stroke-linecap="round" stroke-width="0.1000" stroke="currentColor" x1="0.0500" y1="0" x2="11.0376" y2="0"/>
</g>
<g transform="translate(87.1717, 18.5576)">
<path transform="scale(0.0040, -0.0040)" d="M27 41l-1 -66v-11c0 -22 1 -44 4 -66c45 38 93 80 93 139c0 33 -14 67 -43 67c-31 0 -52 -30 -53 -63zM-15 -138l-12 595c8 5 18 8 27 8s19 -3 27 -8l-7 -345c25 21 58 34 91 34c52 0 89 -48 89 -102c0 -80 -86 -117 -147 -169c-15 -13 -24 -38 -45 -38
c-13 0 -23 11 -23 25z" fill="currentColor"/>
</g>
<a style="color:inherit;" xlink:href="textedit:///home/johannes/common-lisp/setzkasten/lilypond-export/b1-c18-m1-d-orig.ly:305:48:49">
<g transform="translate(88.3217, 18.5576)">
<path transform="scale(0.0040, -0.0040)" d="M73 54c-1 -2 -2 -4 -2 -6s1 -4 2 -6l91 -129c2 -3 5 -4 8 -4s7 1 9 4l23 33c1 2 2 4 2 6s-1 4 -2 6l-91 129c-2 3 -5 4 -8 4s-6 -1 -8 -4zM2 -6c-1 2 -2 4 -2 6s1 4 2 6l128 182c2 3 6 4 9 4s6 -1 8 -4l128 -182c1 -2 2 -4 2 -6s-1 -4 -2 -6l-128 -182c-2 -3 -5 -4 -8 -4
s-7 1 -9 4z" fill="currentColor"/>
</g>
</a>
<a style="color:inherit;" xlink:href="textedit:///home/johannes/common-lisp/setzkasten/lilypond-export/b1-c18-m1-d-orig.ly:303:16:17">
</a>
<g transform="translate(80.3429, 18.0576)">
<path transform="scale(0.0040, -0.0040)" d="M35 -104v-42c0 -6 4 -10 10 -10h195c6 0 10 4 10 10v42c0 6 -4 10 -10 10h-195c-6 0 -10 -4 -10 -10zM35 146v-42c0 -6 4 -10 10 -10h195c6 0 10 4 10 10v42c0 6 -4 10 -10 10h-195c-6 0 -10 -4 -10 -10zM0 0v540c0 7 9 10 18 10s17 -3 17 -10v-311c0 -6 4 -10 10 -10
h195c6 0 10 4 10 10v83c0 7 9 10 18 10s17 -3 17 -10v-271c0 -6 -4 -10 -10 -10h-230c-6 0 -10 -4 -10 -10v-42c0 -6 4 -10 10 -10h230c6 0 10 -4 10 -10v-271c0 -7 -8 -10 -17 -10s-18 3 -18 10v83c0 6 -4 10 -10 10h-195c-6 0 -10 -4 -10 -10v-311c0 -7 -8 -10 -17 -10
s-18 3 -18 10v540z" fill="currentColor"/>
</g>
<a style="color:inherit;" xlink:href="textedit:///home/johannes/common-lisp/setzkasten/lilypond-export/b1-c18-m1-d-orig.ly:305:43:44">
<g transform="translate(85.3429, 18.5576)">
<path transform="scale(0.0040, -0.0040)" d="M73 54c-1 -2 -2 -4 -2 -6s1 -4 2 -6l91 -129c2 -3 5 -4 8 -4s7 1 9 4l23 33c1 2 2 4 2 6s-1 4 -2 6l-91 129c-2 3 -5 4 -8 4s-6 -1 -8 -4zM2 -6c-1 2 -2 4 -2 6s1 4 2 6l128 182c2 3 6 4 9 4s6 -1 8 -4l128 -182c1 -2 2 -4 2 -6s-1 -4 -2 -6l-128 -182c-2 -3 -5 -4 -8 -4
s-7 1 -9 4z" fill="currentColor"/>
</g>
</a>
<g transform="translate(75.6552, 25.0576)">
<text font-family="serif" font-size="2.2001" text-anchor="start" fill="currentColor">
<tspan>semitono minore</tspan>
</text>
</g>
<g transform="translate(71.6775, 28.0576)">
<text font-family="serif" font-size="2.2001" text-anchor="start" fill="currentColor">
<tspan>enarmonico incomposto</tspan>
</text>
</g>
</svg>
