<svg xmlns="http://www.w3.org/2000/svg" xmlns:xlink="http://www.w3.org/1999/xlink" version="1.2" width="76.64mm" height="9.23mm" viewBox="0.0000 -0.0000 43.6116 5.2500">
<style type="text/css">
<![CDATA[
tspan { white-space: pre; }
]]>
</style>
<g transform="translate(0.0000, 5.2000)">
<line stroke-linejoin="round" stroke-linecap="round" stroke-width="0.1000" stroke="currentColor" x1="0.0500" y1="0" x2="12.6764" y2="0"/>
</g>
<g transform="translate(0.0000, 4.2000)">
<line stroke-linejoin="round" stroke-linecap="round" stroke-width="0.1000" stroke="currentColor" x1="0.0500" y1="0" x2="12.6764" y2="0"/>
</g>
<g transform="translate(0.0000, 3.2000)">
<line stroke-linejoin="round" stroke-linecap="round" stroke-width="0.1000" stroke="currentColor" x1="0.0500" y1="0" x2="12.6764" y2="0"/>
</g>
<g transform="translate(0.0000, 2.2000)">
<line stroke-linejoin="round" stroke-linecap="round" stroke-width="0.1000" stroke="currentColor" x1="0.0500" y1="0" x2="12.6764" y2="0"/>
</g>
<g transform="translate(0.0000, 1.2000)">
<line stroke-linejoin="round" stroke-linecap="round" stroke-width="0.1000" stroke="currentColor" x1="0.0500" y1="0" x2="12.6764" y2="0"/>
</g>
<a style="color:inherit;" xlink:href="textedit:///home/johannes/common-lisp/setzkasten/lilypond-export/b2-c2-m2-e-original.ly:40:53:54">
<g transform="translate(10.4176, 2.7000)">
<path transform="scale(0.0040, -0.0040)" d="M73 54c-1 -2 -2 -4 -2 -6s1 -4 2 -6l91 -129c2 -3 5 -4 8 -4s7 1 9 4l23 33c1 2 2 4 2 6s-1 4 -2 6l-91 129c-2 3 -5 4 -8 4s-6 -1 -8 -4zM2 -6c-1 2 -2 4 -2 6s1 4 2 6l128 182c2 3 6 4 9 4s6 -1 8 -4l128 -182c1 -2 2 -4 2 -6s-1 -4 -2 -6l-128 -182c-2 -3 -5 -4 -8 -4
s-7 1 -9 4z" fill="currentColor"/>
</g>
</a>
<a style="color:inherit;" xlink:href="textedit:///home/johannes/common-lisp/setzkasten/lilypond-export/b2-c2-m2-e-original.ly:40:48:49">
<g transform="translate(8.1088, 3.2000)">
<path transform="scale(0.0040, -0.0040)" d="M73 54c-1 -2 -2 -4 -2 -6s1 -4 2 -6l91 -129c2 -3 5 -4 8 -4s7 1 9 4l23 33c1 2 2 4 2 6s-1 4 -2 6l-91 129c-2 3 -5 4 -8 4s-6 -1 -8 -4zM2 -6c-1 2 -2 4 -2 6s1 4 2 6l128 182c2 3 6 4 9 4s6 -1 8 -4l128 -182c1 -2 2 -4 2 -6s-1 -4 -2 -6l-128 -182c-2 -3 -5 -4 -8 -4
s-7 1 -9 4z" fill="currentColor"/>
</g>
</a>
<a style="color:inherit;" xlink:href="textedit:///home/johannes/common-lisp/setzkasten/lilypond-export/b2-c2-m2-e-original.ly:40:43:44">
<g transform="translate(5.8000, 3.7000)">
<path transform="scale(0.0040, -0.0040)" d="M73 54c-1 -2 -2 -4 -2 -6s1 -4 2 -6l91 -129c2 -3 5 -4 8 -4s7 1 9 4l23 33c1 2 2 4 2 6s-1 4 -2 6l-91 129c-2 3 -5 4 -8 4s-6 -1 -8 -4zM2 -6c-1 2 -2 4 -2 6s1 4 2 6l128 182c2 3 6 4 9 4s6 -1 8 -4l128 -182c1 -2 2 -4 2 -6s-1 -4 -2 -6l-128 -182c-2 -3 -5 -4 -8 -4
s-7 1 -9 4z" fill="currentColor"/>
</g>
</a>
<g transform="translate(0.8000, 2.2000)">
<path transform="scale(0.0040, -0.0040)" d="M35 -104v-42c0 -6 4 -10 10 -10h195c6 0 10 4 10 10v42c0 6 -4 10 -10 10h-195c-6 0 -10 -4 -10 -10zM35 146v-42c0 -6 4 -10 10 -10h195c6 0 10 4 10 10v42c0 6 -4 10 -10 10h-195c-6 0 -10 -4 -10 -10zM0 0v540c0 7 9 10 18 10s17 -3 17 -10v-311c0 -6 4 -10 10 -10
h195c6 0 10 4 10 10v83c0 7 9 10 18 10s17 -3 17 -10v-271c0 -6 -4 -10 -10 -10h-230c-6 0 -10 -4 -10 -10v-42c0 -6 4 -10 10 -10h230c6 0 10 -4 10 -10v-271c0 -7 -8 -10 -17 -10s-18 3 -18 10v83c0 6 -4 10 -10 10h-195c-6 0 -10 -4 -10 -10v-311c0 -7 -8 -10 -17 -10
s-18 3 -18 10v540z" fill="currentColor"/>
</g>
<a style="color:inherit;" xlink:href="textedit:///home/johannes/common-lisp/setzkasten/lilypond-export/b2-c2-m2-e-original.ly:38:16:17">
</a>
<g transform="translate(16.2764, 5.2000)">
<line stroke-linejoin="round" stroke-linecap="round" stroke-width="0.1000" stroke="currentColor" x1="0.0500" y1="0" x2="10.3676" y2="0"/>
</g>
<g transform="translate(16.2764, 4.2000)">
<line stroke-linejoin="round" stroke-linecap="round" stroke-width="0.1000" stroke="currentColor" x1="0.0500" y1="0" x2="10.3676" y2="0"/>
</g>
<g transform="translate(16.2764, 3.2000)">
<line stroke-linejoin="round" stroke-linecap="round" stroke-width="0.1000" stroke="currentColor" x1="0.0500" y1="0" x2="10.3676" y2="0"/>
</g>
<g transform="translate(16.2764, 2.2000)">
<line stroke-linejoin="round" stroke-linecap="round" stroke-width="0.1000" stroke="currentColor" x1="0.0500" y1="0" x2="10.3676" y2="0"/>
</g>
<g transform="translate(16.2764, 1.2000)">
<line stroke-linejoin="round" stroke-linecap="round" stroke-width="0.1000" stroke="currentColor" x1="0.0500" y1="0" x2="10.3676" y2="0"/>
</g>
<a style="color:inherit;" xlink:href="textedit:///home/johannes/common-lisp/setzkasten/lilypond-export/b2-c2-m2-e-original.ly:70:48:49">
<g transform="translate(24.3852, 2.7000)">
<path transform="scale(0.0040, -0.0040)" d="M73 54c-1 -2 -2 -4 -2 -6s1 -4 2 -6l91 -129c2 -3 5 -4 8 -4s7 1 9 4l23 33c1 2 2 4 2 6s-1 4 -2 6l-91 129c-2 3 -5 4 -8 4s-6 -1 -8 -4zM2 -6c-1 2 -2 4 -2 6s1 4 2 6l128 182c2 3 6 4 9 4s6 -1 8 -4l128 -182c1 -2 2 -4 2 -6s-1 -4 -2 -6l-128 -182c-2 -3 -5 -4 -8 -4
s-7 1 -9 4z" fill="currentColor"/>
</g>
</a>
<a style="color:inherit;" xlink:href="textedit:///home/johannes/common-lisp/setzkasten/lilypond-export/b2-c2-m2-e-original.ly:68:16:17">
</a>
<g transform="translate(17.0764, 2.2000)">
<path transform="scale(0.0040, -0.0040)" d="M35 -104v-42c0 -6 4 -10 10 -10h195c6 0 10 4 10 10v42c0 6 -4 10 -10 10h-195c-6 0 -10 -4 -10 -10zM35 146v-42c0 -6 4 -10 10 -10h195c6 0 10 4 10 10v42c0 6 -4 10 -10 10h-195c-6 0 -10 -4 -10 -10zM0 0v540c0 7 9 10 18 10s17 -3 17 -10v-311c0 -6 4 -10 10 -10
h195c6 0 10 4 10 10v83c0 7 9 10 18 10s17 -3 17 -10v-271c0 -6 -4 -10 -10 -10h-230c-6 0 -10 -4 -10 -10v-42c0 -6 4 -10 10 -10h230c6 0 10 -4 10 -10v-271c0 -7 -8 -10 -17 -10s-18 3 -18 10v83c0 6 -4 10 -10 10h-195c-6 0 -10 -4 -10 -10v-311c0 -7 -8 -10 -17 -10
s-18 3 -18 10v540z" fill="currentColor"/>
</g>
<a style="color:inherit;" xlink:href="textedit:///home/johannes/common-lisp/setzkasten/lilypond-export/b2-c2-m2-e-original.ly:70:43:44">
<g transform="translate(22.0764, 3.7000)">
<path transform="scale(0.0040, -0.0040)" d="M73 54c-1 -2 -2 -4 -2 -6s1 -4 2 -6l91 -129c2 -3 5 -4 8 -4s7 1 9 4l23 33c1 2 2 4 2 6s-1 4 -2 6l-91 129c-2 3 -5 4 -8 4s-6 -1 -8 -4zM2 -6c-1 2 -2 4 -2 6s1 4 2 6l128 182c2 3 6 4 9 4s6 -1 8 -4l128 -182c1 -2 2 -4 2 -6s-1 -4 -2 -6l-128 -182c-2 -3 -5 -4 -8 -4
s-7 1 -9 4z" fill="currentColor"/>
</g>
</a>
<g transform="translate(30.2440, 5.2000)">
<line stroke-linejoin="round" stroke-linecap="round" stroke-width="0.1000" stroke="currentColor" x1="0.0500" y1="0" x2="10.3676" y2="0"/>
</g>
<g transform="translate(30.2440, 4.2000)">
<line stroke-linejoin="round" stroke-linecap="round" stroke-width="0.1000" stroke="currentColor" x1="0.0500" y1="0" x2="10.3676" y2="0"/>
</g>
<g transform="translate(30.2440, 3.2000)">
<line stroke-linejoin="round" stroke-linecap="round" stroke-width="0.1000" stroke="currentColor" x1="0.0500" y1="0" x2="10.3676" y2="0"/>
</g>
<g transform="translate(30.2440, 2.2000)">
<line stroke-linejoin="round" stroke-linecap="round" stroke-width="0.1000" stroke="currentColor" x1="0.0500" y1="0" x2="10.3676" y2="0"/>
</g>
<g transform="translate(30.2440, 1.2000)">
<line stroke-linejoin="round" stroke-linecap="round" stroke-width="0.1000" stroke="currentColor" x1="0.0500" y1="0" x2="10.3676" y2="0"/>
</g>
<a style="color:inherit;" xlink:href="textedit:///home/johannes/common-lisp/setzkasten/lilypond-export/b2-c2-m2-e-original.ly:100:48:49">
<g transform="translate(38.3528, 2.2000)">
<path transform="scale(0.0040, -0.0040)" d="M73 54c-1 -2 -2 -4 -2 -6s1 -4 2 -6l91 -129c2 -3 5 -4 8 -4s7 1 9 4l23 33c1 2 2 4 2 6s-1 4 -2 6l-91 129c-2 3 -5 4 -8 4s-6 -1 -8 -4zM2 -6c-1 2 -2 4 -2 6s1 4 2 6l128 182c2 3 6 4 9 4s6 -1 8 -4l128 -182c1 -2 2 -4 2 -6s-1 -4 -2 -6l-128 -182c-2 -3 -5 -4 -8 -4
s-7 1 -9 4z" fill="currentColor"/>
</g>
</a>
<a style="color:inherit;" xlink:href="textedit:///home/johannes/common-lisp/setzkasten/lilypond-export/b2-c2-m2-e-original.ly:98:16:17">
</a>
<g transform="translate(31.0440, 2.2000)">
<path transform="scale(0.0040, -0.0040)" d="M35 -104v-42c0 -6 4 -10 10 -10h195c6 0 10 4 10 10v42c0 6 -4 10 -10 10h-195c-6 0 -10 -4 -10 -10zM35 146v-42c0 -6 4 -10 10 -10h195c6 0 10 4 10 10v42c0 6 -4 10 -10 10h-195c-6 0 -10 -4 -10 -10zM0 0v540c0 7 9 10 18 10s17 -3 17 -10v-311c0 -6 4 -10 10 -10
h195c6 0 10 4 10 10v83c0 7 9 10 18 10s17 -3 17 -10v-271c0 -6 -4 -10 -10 -10h-230c-6 0 -10 -4 -10 -10v-42c0 -6 4 -10 10 -10h230c6 0 10 -4 10 -10v-271c0 -7 -8 -10 -17 -10s-18 3 -18 10v83c0 6 -4 10 -10 10h-195c-6 0 -10 -4 -10 -10v-311c0 -7 -8 -10 -17 -10
s-18 3 -18 10v540z" fill="currentColor"/>
</g>
<a style="color:inherit;" xlink:href="textedit:///home/johannes/common-lisp/setzkasten/lilypond-export/b2-c2-m2-e-original.ly:100:43:44">
<g transform="translate(36.0440, 3.2000)">
<path transform="scale(0.0040, -0.0040)" d="M73 54c-1 -2 -2 -4 -2 -6s1 -4 2 -6l91 -129c2 -3 5 -4 8 -4s7 1 9 4l23 33c1 2 2 4 2 6s-1 4 -2 6l-91 129c-2 3 -5 4 -8 4s-6 -1 -8 -4zM2 -6c-1 2 -2 4 -2 6s1 4 2 6l128 182c2 3 6 4 9 4s6 -1 8 -4l128 -182c1 -2 2 -4 2 -6s-1 -4 -2 -6l-128 -182c-2 -3 -5 -4 -8 -4
s-7 1 -9 4z" fill="currentColor"/>
</g>
</a>
</svg>
