<svg xmlns="http://www.w3.org/2000/svg" xmlns:xlink="http://www.w3.org/1999/xlink" version="1.2" width="161.75mm" height="63.43mm" viewBox="0.0000 -2.3647 92.0419 36.0927">
<style type="text/css">
<![CDATA[
tspan { white-space: pre; }
]]>
</style>
<g transform="translate(6.4318, -0.0000)">
<text font-family="serif" font-size="3.1115" text-anchor="start" fill="currentColor">
<tspan>Del secondo Alamire: tutte le consonanze discendenti</tspan>
</text>
</g>
<g transform="translate(18.6380, 3.0000)">
<text font-family="serif" font-size="3.1115" text-anchor="start" fill="currentColor">
<tspan>con le propinque di Alamire secondo</tspan>
</text>
</g>
<g transform="translate(0.7853, 9.0000)">
<text font-family="serif" font-size="2.2001" text-anchor="start" fill="currentColor">
<tspan>Le quattro terze discendenti</tspan>
</text>
</g>
<g transform="translate(4.5752, 12.0000)">
<text font-family="serif" font-size="2.2001" text-anchor="start" fill="currentColor">
<tspan>con le sue propinque</tspan>
</text>
</g>
<g transform="translate(6.1538, 20.2000)">
<line stroke-linejoin="round" stroke-linecap="round" stroke-width="0.1000" stroke="currentColor" x1="0.0500" y1="0" x2="18.9252" y2="0"/>
</g>
<g transform="translate(6.1538, 19.2000)">
<line stroke-linejoin="round" stroke-linecap="round" stroke-width="0.1000" stroke="currentColor" x1="0.0500" y1="0" x2="18.9252" y2="0"/>
</g>
<g transform="translate(6.1538, 18.2000)">
<line stroke-linejoin="round" stroke-linecap="round" stroke-width="0.1000" stroke="currentColor" x1="0.0500" y1="0" x2="18.9252" y2="0"/>
</g>
<g transform="translate(6.1538, 17.2000)">
<line stroke-linejoin="round" stroke-linecap="round" stroke-width="0.1000" stroke="currentColor" x1="0.0500" y1="0" x2="18.9252" y2="0"/>
</g>
<g transform="translate(6.1538, 16.2000)">
<line stroke-linejoin="round" stroke-linecap="round" stroke-width="0.1000" stroke="currentColor" x1="0.0500" y1="0" x2="18.9252" y2="0"/>
</g>
<g transform="translate(17.4214, 18.2000)">
<rect x="0.0000" y="-2.0000" width="0.1900" height="4.0000" ry="0.0000" fill="currentColor"/>
</g>
<g transform="translate(17.4214, 27.2000)">
<rect x="0.0000" y="-2.0000" width="0.1900" height="4.0000" ry="0.0000" fill="currentColor"/>
</g>
<g transform="translate(6.1538, 29.2000)">
<line stroke-linejoin="round" stroke-linecap="round" stroke-width="0.1000" stroke="currentColor" x1="0.0500" y1="0" x2="18.9252" y2="0"/>
</g>
<g transform="translate(6.1538, 28.2000)">
<line stroke-linejoin="round" stroke-linecap="round" stroke-width="0.1000" stroke="currentColor" x1="0.0500" y1="0" x2="18.9252" y2="0"/>
</g>
<g transform="translate(6.1538, 27.2000)">
<line stroke-linejoin="round" stroke-linecap="round" stroke-width="0.1000" stroke="currentColor" x1="0.0500" y1="0" x2="18.9252" y2="0"/>
</g>
<g transform="translate(6.1538, 26.2000)">
<line stroke-linejoin="round" stroke-linecap="round" stroke-width="0.1000" stroke="currentColor" x1="0.0500" y1="0" x2="18.9252" y2="0"/>
</g>
<g transform="translate(6.1538, 25.2000)">
<line stroke-linejoin="round" stroke-linecap="round" stroke-width="0.1000" stroke="currentColor" x1="0.0500" y1="0" x2="18.9252" y2="0"/>
</g>
<g transform="translate(18.2114, 18.7000)">
<path transform="scale(0.0040, -0.0040)" d="M216 -312c0 -10 -8 -19 -18 -19s-19 9 -19 19v145l-83 -31v-158c0 -10 -9 -19 -19 -19s-18 9 -18 19v145l-32 -12c-2 -1 -5 -1 -7 -1c-11 0 -20 9 -20 20v60c0 8 5 16 13 19l46 16v160l-32 -11c-2 -1 -5 -1 -7 -1c-11 0 -20 9 -20 20v60c0 8 5 15 13 18l46 17v158
c0 10 8 19 18 19s19 -9 19 -19v-145l83 31v158c0 10 9 19 19 19s18 -9 18 -19v-145l32 12c2 1 5 1 7 1c11 0 20 -9 20 -20v-60c0 -8 -5 -16 -13 -19l-46 -16v-160l32 11c2 1 5 1 7 1c11 0 20 -9 20 -20v-60c0 -8 -5 -15 -13 -18l-46 -17v-158zM96 65v-160l83 30v160z" fill="currentColor"/>
</g>
<a style="color:inherit;" xlink:href="textedit:///home/johannes/common-lisp/setzkasten/lilypond-export/b5-c9-m1-d-original.ly:63:62:63">
<g transform="translate(19.6614, 26.7000)">
<path transform="scale(0.0040, -0.0040)" d="M73 54c-1 -2 -2 -4 -2 -6s1 -4 2 -6l91 -129c2 -3 5 -4 8 -4s7 1 9 4l23 33c1 2 2 4 2 6s-1 4 -2 6l-91 129c-2 3 -5 4 -8 4s-6 -1 -8 -4zM2 -6c-1 2 -2 4 -2 6s1 4 2 6l128 182c2 3 6 4 9 4s6 -1 8 -4l128 -182c1 -2 2 -4 2 -6s-1 -4 -2 -6l-128 -182c-2 -3 -5 -4 -8 -4
s-7 1 -9 4z" fill="currentColor"/>
</g>
</a>
<a style="color:inherit;" xlink:href="textedit:///home/johannes/common-lisp/setzkasten/lilypond-export/b5-c9-m1-d-original.ly:50:65:66">
<g transform="translate(19.6614, 18.7000)">
<path transform="scale(0.0040, -0.0040)" d="M73 54c-1 -2 -2 -4 -2 -6s1 -4 2 -6l91 -129c2 -3 5 -4 8 -4s7 1 9 4l23 33c1 2 2 4 2 6s-1 4 -2 6l-91 129c-2 3 -5 4 -8 4s-6 -1 -8 -4zM2 -6c-1 2 -2 4 -2 6s1 4 2 6l128 182c2 3 6 4 9 4s6 -1 8 -4l128 -182c1 -2 2 -4 2 -6s-1 -4 -2 -6l-128 -182c-2 -3 -5 -4 -8 -4
s-7 1 -9 4z" fill="currentColor"/>
</g>
</a>
<g transform="translate(21.6702, 26.7000)">
<path transform="scale(0.0040, -0.0040)" d="M27 41l-1 -66v-11c0 -22 1 -44 4 -66c45 38 93 80 93 139c0 33 -14 67 -43 67c-31 0 -52 -30 -53 -63zM-15 -138l-12 595c8 5 18 8 27 8s19 -3 27 -8l-7 -345c25 21 58 34 91 34c52 0 89 -48 89 -102c0 -80 -86 -117 -147 -169c-15 -13 -24 -38 -45 -38
c-13 0 -23 11 -23 25z" fill="currentColor"/>
</g>
<g transform="translate(21.3702, 18.7000)">
<path transform="scale(0.0040, -0.0040)" d="M216 -312c0 -10 -8 -19 -18 -19s-19 9 -19 19v145l-83 -31v-158c0 -10 -9 -19 -19 -19s-18 9 -18 19v145l-32 -12c-2 -1 -5 -1 -7 -1c-11 0 -20 9 -20 20v60c0 8 5 16 13 19l46 16v160l-32 -11c-2 -1 -5 -1 -7 -1c-11 0 -20 9 -20 20v60c0 8 5 15 13 18l46 17v158
c0 10 8 19 18 19s19 -9 19 -19v-145l83 31v158c0 10 9 19 19 19s18 -9 18 -19v-145l32 12c2 1 5 1 7 1c11 0 20 -9 20 -20v-60c0 -8 -5 -16 -13 -19l-46 -16v-160l32 11c2 1 5 1 7 1c11 0 20 -9 20 -20v-60c0 -8 -5 -15 -13 -18l-46 -17v-158zM96 65v-160l83 30v160z" fill="currentColor"/>
</g>
<a style="color:inherit;" xlink:href="textedit:///home/johannes/common-lisp/setzkasten/lilypond-export/b5-c9-m1-d-original.ly:63:75:76">
<g transform="translate(23.3746, 24.7000)">
<path transform="scale(0.0045, -0.0045)" d="M-50 0c0 28 22 50 50 50s50 -22 50 -50s-22 -50 -50 -50s-50 22 -50 50z" fill="currentColor"/>
</g>
</a>
<a style="color:inherit;" xlink:href="textedit:///home/johannes/common-lisp/setzkasten/lilypond-export/b5-c9-m1-d-original.ly:63:72:73">
<g transform="translate(22.8202, 26.7000)">
<path transform="scale(0.0040, -0.0040)" d="M73 54c-1 -2 -2 -4 -2 -6s1 -4 2 -6l91 -129c2 -3 5 -4 8 -4s7 1 9 4l23 33c1 2 2 4 2 6s-1 4 -2 6l-91 129c-2 3 -5 4 -8 4s-6 -1 -8 -4zM2 -6c-1 2 -2 4 -2 6s1 4 2 6l128 182c2 3 6 4 9 4s6 -1 8 -4l128 -182c1 -2 2 -4 2 -6s-1 -4 -2 -6l-128 -182c-2 -3 -5 -4 -8 -4
s-7 1 -9 4z" fill="currentColor"/>
</g>
</a>
<a style="color:inherit;" xlink:href="textedit:///home/johannes/common-lisp/setzkasten/lilypond-export/b5-c9-m1-d-original.ly:50:72:73">
<g transform="translate(22.8202, 18.7000)">
<path transform="scale(0.0040, -0.0040)" d="M73 54c-1 -2 -2 -4 -2 -6s1 -4 2 -6l91 -129c2 -3 5 -4 8 -4s7 1 9 4l23 33c1 2 2 4 2 6s-1 4 -2 6l-91 129c-2 3 -5 4 -8 4s-6 -1 -8 -4zM2 -6c-1 2 -2 4 -2 6s1 4 2 6l128 182c2 3 6 4 9 4s6 -1 8 -4l128 -182c1 -2 2 -4 2 -6s-1 -4 -2 -6l-128 -182c-2 -3 -5 -4 -8 -4
s-7 1 -9 4z" fill="currentColor"/>
</g>
</a>
<g transform="translate(10.5038, 18.7000)">
<path transform="scale(0.0040, -0.0040)" d="M216 -312c0 -10 -8 -19 -18 -19s-19 9 -19 19v145l-83 -31v-158c0 -10 -9 -19 -19 -19s-18 9 -18 19v145l-32 -12c-2 -1 -5 -1 -7 -1c-11 0 -20 9 -20 20v60c0 8 5 16 13 19l46 16v160l-32 -11c-2 -1 -5 -1 -7 -1c-11 0 -20 9 -20 20v60c0 8 5 15 13 18l46 17v158
c0 10 8 19 18 19s19 -9 19 -19v-145l83 31v158c0 10 9 19 19 19s18 -9 18 -19v-145l32 12c2 1 5 1 7 1c11 0 20 -9 20 -20v-60c0 -8 -5 -16 -13 -19l-46 -16v-160l32 11c2 1 5 1 7 1c11 0 20 -9 20 -20v-60c0 -8 -5 -15 -13 -18l-46 -17v-158zM96 65v-160l83 30v160z" fill="currentColor"/>
</g>
<a style="color:inherit;" xlink:href="textedit:///home/johannes/common-lisp/setzkasten/lilypond-export/b5-c9-m1-d-original.ly:61:16:17">
</a>
<g transform="translate(6.9538, 26.2000)">
<path transform="scale(0.0040, -0.0040)" d="M272 -79l25 -25c16 -16 -26 -60 -43 -43l-25 25c-16 16 26 60 43 43zM272 147l25 -25c16 -16 -26 -60 -43 -43l-25 25c-16 16 26 60 43 43zM199 12c0 -99 -88 -187 -187 -187c-23 0 -8 29 0 37c7 7 15 13 25 13c64 0 113 49 113 113c0 75 -63 137 -138 137
c-23 0 -8 29 0 37c7 7 15 13 25 13c89 0 162 -74 162 -163z" fill="currentColor"/>
</g>
<a style="color:inherit;" xlink:href="textedit:///home/johannes/common-lisp/setzkasten/lilypond-export/b5-c9-m1-d-original.ly:63:43:44">
<g transform="translate(11.9538, 26.7000)">
<path transform="scale(0.0040, -0.0040)" d="M73 54c-1 -2 -2 -4 -2 -6s1 -4 2 -6l91 -129c2 -3 5 -4 8 -4s7 1 9 4l23 33c1 2 2 4 2 6s-1 4 -2 6l-91 129c-2 3 -5 4 -8 4s-6 -1 -8 -4zM2 -6c-1 2 -2 4 -2 6s1 4 2 6l128 182c2 3 6 4 9 4s6 -1 8 -4l128 -182c1 -2 2 -4 2 -6s-1 -4 -2 -6l-128 -182c-2 -3 -5 -4 -8 -4
s-7 1 -9 4z" fill="currentColor"/>
</g>
</a>
<a style="color:inherit;" xlink:href="textedit:///home/johannes/common-lisp/setzkasten/lilypond-export/b5-c9-m1-d-original.ly:48:16:17">
</a>
<g transform="translate(6.9538, 17.2000)">
<path transform="scale(0.0040, -0.0040)" d="M35 -104v-42c0 -6 4 -10 10 -10h195c6 0 10 4 10 10v42c0 6 -4 10 -10 10h-195c-6 0 -10 -4 -10 -10zM35 146v-42c0 -6 4 -10 10 -10h195c6 0 10 4 10 10v42c0 6 -4 10 -10 10h-195c-6 0 -10 -4 -10 -10zM0 0v540c0 7 9 10 18 10s17 -3 17 -10v-311c0 -6 4 -10 10 -10
h195c6 0 10 4 10 10v83c0 7 9 10 18 10s17 -3 17 -10v-271c0 -6 -4 -10 -10 -10h-230c-6 0 -10 -4 -10 -10v-42c0 -6 4 -10 10 -10h230c6 0 10 -4 10 -10v-271c0 -7 -8 -10 -17 -10s-18 3 -18 10v83c0 6 -4 10 -10 10h-195c-6 0 -10 -4 -10 -10v-311c0 -7 -8 -10 -17 -10
s-18 3 -18 10v540z" fill="currentColor"/>
</g>
<a style="color:inherit;" xlink:href="textedit:///home/johannes/common-lisp/setzkasten/lilypond-export/b5-c9-m1-d-original.ly:50:43:44">
<g transform="translate(11.9538, 18.7000)">
<path transform="scale(0.0040, -0.0040)" d="M73 54c-1 -2 -2 -4 -2 -6s1 -4 2 -6l91 -129c2 -3 5 -4 8 -4s7 1 9 4l23 33c1 2 2 4 2 6s-1 4 -2 6l-91 129c-2 3 -5 4 -8 4s-6 -1 -8 -4zM2 -6c-1 2 -2 4 -2 6s1 4 2 6l128 182c2 3 6 4 9 4s6 -1 8 -4l128 -182c1 -2 2 -4 2 -6s-1 -4 -2 -6l-128 -182c-2 -3 -5 -4 -8 -4
s-7 1 -9 4z" fill="currentColor"/>
</g>
</a>
<g transform="translate(6.0938, 22.7000)">
<rect x="0.0000" y="-6.5500" width="0.1600" height="13.1000" ry="0.0500" fill="currentColor"/>
</g>
<g transform="translate(13.6626, 18.7000)">
<path transform="scale(0.0040, -0.0040)" d="M216 -312c0 -10 -8 -19 -18 -19s-19 9 -19 19v145l-83 -31v-158c0 -10 -9 -19 -19 -19s-18 9 -18 19v145l-32 -12c-2 -1 -5 -1 -7 -1c-11 0 -20 9 -20 20v60c0 8 5 16 13 19l46 16v160l-32 -11c-2 -1 -5 -1 -7 -1c-11 0 -20 9 -20 20v60c0 8 5 15 13 18l46 17v158
c0 10 8 19 18 19s19 -9 19 -19v-145l83 31v158c0 10 9 19 19 19s18 -9 18 -19v-145l32 12c2 1 5 1 7 1c11 0 20 -9 20 -20v-60c0 -8 -5 -16 -13 -19l-46 -16v-160l32 11c2 1 5 1 7 1c11 0 20 -9 20 -20v-60c0 -8 -5 -15 -13 -18l-46 -17v-158zM96 65v-160l83 30v160z" fill="currentColor"/>
</g>
<a style="color:inherit;" xlink:href="textedit:///home/johannes/common-lisp/setzkasten/lilypond-export/b5-c9-m1-d-original.ly:63:57:58">
<g transform="translate(15.6670, 24.7000)">
<path transform="scale(0.0045, -0.0045)" d="M-50 0c0 28 22 50 50 50s50 -22 50 -50s-22 -50 -50 -50s-50 22 -50 50z" fill="currentColor"/>
</g>
</a>
<a style="color:inherit;" xlink:href="textedit:///home/johannes/common-lisp/setzkasten/lilypond-export/b5-c9-m1-d-original.ly:63:55:56">
<g transform="translate(15.1126, 26.7000)">
<path transform="scale(0.0040, -0.0040)" d="M73 54c-1 -2 -2 -4 -2 -6s1 -4 2 -6l91 -129c2 -3 5 -4 8 -4s7 1 9 4l23 33c1 2 2 4 2 6s-1 4 -2 6l-91 129c-2 3 -5 4 -8 4s-6 -1 -8 -4zM2 -6c-1 2 -2 4 -2 6s1 4 2 6l128 182c2 3 6 4 9 4s6 -1 8 -4l128 -182c1 -2 2 -4 2 -6s-1 -4 -2 -6l-128 -182c-2 -3 -5 -4 -8 -4
s-7 1 -9 4z" fill="currentColor"/>
</g>
</a>
<a style="color:inherit;" xlink:href="textedit:///home/johannes/common-lisp/setzkasten/lilypond-export/b5-c9-m1-d-original.ly:50:50:51">
<g transform="translate(15.1126, 18.7000)">
<path transform="scale(0.0040, -0.0040)" d="M73 54c-1 -2 -2 -4 -2 -6s1 -4 2 -6l91 -129c2 -3 5 -4 8 -4s7 1 9 4l23 33c1 2 2 4 2 6s-1 4 -2 6l-91 129c-2 3 -5 4 -8 4s-6 -1 -8 -4zM2 -6c-1 2 -2 4 -2 6s1 4 2 6l128 182c2 3 6 4 9 4s6 -1 8 -4l128 -182c1 -2 2 -4 2 -6s-1 -4 -2 -6l-128 -182c-2 -3 -5 -4 -8 -4
s-7 1 -9 4z" fill="currentColor"/>
</g>
</a>
<g transform="translate(10.5038, 26.7000)">
<path transform="scale(0.0040, -0.0040)" d="M216 -312c0 -10 -8 -19 -18 -19s-19 9 -19 19v145l-83 -31v-158c0 -10 -9 -19 -19 -19s-18 9 -18 19v145l-32 -12c-2 -1 -5 -1 -7 -1c-11 0 -20 9 -20 20v60c0 8 5 16 13 19l46 16v160l-32 -11c-2 -1 -5 -1 -7 -1c-11 0 -20 9 -20 20v60c0 8 5 15 13 18l46 17v158
c0 10 8 19 18 19s19 -9 19 -19v-145l83 31v158c0 10 9 19 19 19s18 -9 18 -19v-145l32 12c2 1 5 1 7 1c11 0 20 -9 20 -20v-60c0 -8 -5 -16 -13 -19l-46 -16v-160l32 11c2 1 5 1 7 1c11 0 20 -9 20 -20v-60c0 -8 -5 -15 -13 -18l-46 -17v-158zM96 65v-160l83 30v160z" fill="currentColor"/>
</g>
<g transform="translate(0.0000, 33.2000)">
<text font-family="serif" font-size="2.2001" text-anchor="start" fill="currentColor">
<tspan>terza minore / terza maggiore</tspan>
</text>
</g>
<g transform="translate(35.2301, 9.0000)">
<text font-family="serif" font-size="2.2001" text-anchor="start" fill="currentColor">
<tspan>Quinta</tspan>
</text>
</g>
<g transform="translate(38.5420, 12.0000)">
<text font-family="serif" font-size="2.2001" text-anchor="start" fill="currentColor">
<tspan> </tspan>
</text>
</g>
<g transform="translate(34.8328, 20.2000)">
<line stroke-linejoin="round" stroke-linecap="round" stroke-width="0.1000" stroke="currentColor" x1="0.0500" y1="0" x2="8.0588" y2="0"/>
</g>
<g transform="translate(34.8328, 19.2000)">
<line stroke-linejoin="round" stroke-linecap="round" stroke-width="0.1000" stroke="currentColor" x1="0.0500" y1="0" x2="8.0588" y2="0"/>
</g>
<g transform="translate(34.8328, 18.2000)">
<line stroke-linejoin="round" stroke-linecap="round" stroke-width="0.1000" stroke="currentColor" x1="0.0500" y1="0" x2="8.0588" y2="0"/>
</g>
<g transform="translate(34.8328, 17.2000)">
<line stroke-linejoin="round" stroke-linecap="round" stroke-width="0.1000" stroke="currentColor" x1="0.0500" y1="0" x2="8.0588" y2="0"/>
</g>
<g transform="translate(34.8328, 16.2000)">
<line stroke-linejoin="round" stroke-linecap="round" stroke-width="0.1000" stroke="currentColor" x1="0.0500" y1="0" x2="8.0588" y2="0"/>
</g>
<g transform="translate(34.8328, 29.2000)">
<line stroke-linejoin="round" stroke-linecap="round" stroke-width="0.1000" stroke="currentColor" x1="0.0500" y1="0" x2="8.0588" y2="0"/>
</g>
<g transform="translate(34.8328, 28.2000)">
<line stroke-linejoin="round" stroke-linecap="round" stroke-width="0.1000" stroke="currentColor" x1="0.0500" y1="0" x2="8.0588" y2="0"/>
</g>
<g transform="translate(34.8328, 27.2000)">
<line stroke-linejoin="round" stroke-linecap="round" stroke-width="0.1000" stroke="currentColor" x1="0.0500" y1="0" x2="8.0588" y2="0"/>
</g>
<g transform="translate(34.8328, 26.2000)">
<line stroke-linejoin="round" stroke-linecap="round" stroke-width="0.1000" stroke="currentColor" x1="0.0500" y1="0" x2="8.0588" y2="0"/>
</g>
<g transform="translate(34.8328, 25.2000)">
<line stroke-linejoin="round" stroke-linecap="round" stroke-width="0.1000" stroke="currentColor" x1="0.0500" y1="0" x2="8.0588" y2="0"/>
</g>
<g transform="translate(39.1828, 18.7000)">
<path transform="scale(0.0040, -0.0040)" d="M216 -312c0 -10 -8 -19 -18 -19s-19 9 -19 19v145l-83 -31v-158c0 -10 -9 -19 -19 -19s-18 9 -18 19v145l-32 -12c-2 -1 -5 -1 -7 -1c-11 0 -20 9 -20 20v60c0 8 5 16 13 19l46 16v160l-32 -11c-2 -1 -5 -1 -7 -1c-11 0 -20 9 -20 20v60c0 8 5 15 13 18l46 17v158
c0 10 8 19 18 19s19 -9 19 -19v-145l83 31v158c0 10 9 19 19 19s18 -9 18 -19v-145l32 12c2 1 5 1 7 1c11 0 20 -9 20 -20v-60c0 -8 -5 -16 -13 -19l-46 -16v-160l32 11c2 1 5 1 7 1c11 0 20 -9 20 -20v-60c0 -8 -5 -15 -13 -18l-46 -17v-158zM96 65v-160l83 30v160z" fill="currentColor"/>
</g>
<g transform="translate(39.1828, 27.7000)">
<path transform="scale(0.0040, -0.0040)" d="M216 -312c0 -10 -8 -19 -18 -19s-19 9 -19 19v145l-83 -31v-158c0 -10 -9 -19 -19 -19s-18 9 -18 19v145l-32 -12c-2 -1 -5 -1 -7 -1c-11 0 -20 9 -20 20v60c0 8 5 16 13 19l46 16v160l-32 -11c-2 -1 -5 -1 -7 -1c-11 0 -20 9 -20 20v60c0 8 5 15 13 18l46 17v158
c0 10 8 19 18 19s19 -9 19 -19v-145l83 31v158c0 10 9 19 19 19s18 -9 18 -19v-145l32 12c2 1 5 1 7 1c11 0 20 -9 20 -20v-60c0 -8 -5 -16 -13 -19l-46 -16v-160l32 11c2 1 5 1 7 1c11 0 20 -9 20 -20v-60c0 -8 -5 -15 -13 -18l-46 -17v-158zM96 65v-160l83 30v160z" fill="currentColor"/>
</g>
<a style="color:inherit;" xlink:href="textedit:///home/johannes/common-lisp/setzkasten/lilypond-export/b5-c9-m1-d-original.ly:104:43:44">
<g transform="translate(40.6328, 18.7000)">
<path transform="scale(0.0040, -0.0040)" d="M73 54c-1 -2 -2 -4 -2 -6s1 -4 2 -6l91 -129c2 -3 5 -4 8 -4s7 1 9 4l23 33c1 2 2 4 2 6s-1 4 -2 6l-91 129c-2 3 -5 4 -8 4s-6 -1 -8 -4zM2 -6c-1 2 -2 4 -2 6s1 4 2 6l128 182c2 3 6 4 9 4s6 -1 8 -4l128 -182c1 -2 2 -4 2 -6s-1 -4 -2 -6l-128 -182c-2 -3 -5 -4 -8 -4
s-7 1 -9 4z" fill="currentColor"/>
</g>
</a>
<g transform="translate(34.7728, 22.7000)">
<rect x="0.0000" y="-6.5500" width="0.1600" height="13.1000" ry="0.0500" fill="currentColor"/>
</g>
<g transform="translate(35.6328, 17.2000)">
<path transform="scale(0.0040, -0.0040)" d="M35 -104v-42c0 -6 4 -10 10 -10h195c6 0 10 4 10 10v42c0 6 -4 10 -10 10h-195c-6 0 -10 -4 -10 -10zM35 146v-42c0 -6 4 -10 10 -10h195c6 0 10 4 10 10v42c0 6 -4 10 -10 10h-195c-6 0 -10 -4 -10 -10zM0 0v540c0 7 9 10 18 10s17 -3 17 -10v-311c0 -6 4 -10 10 -10
h195c6 0 10 4 10 10v83c0 7 9 10 18 10s17 -3 17 -10v-271c0 -6 -4 -10 -10 -10h-230c-6 0 -10 -4 -10 -10v-42c0 -6 4 -10 10 -10h230c6 0 10 -4 10 -10v-271c0 -7 -8 -10 -17 -10s-18 3 -18 10v83c0 6 -4 10 -10 10h-195c-6 0 -10 -4 -10 -10v-311c0 -7 -8 -10 -17 -10
s-18 3 -18 10v540z" fill="currentColor"/>
</g>
<a style="color:inherit;" xlink:href="textedit:///home/johannes/common-lisp/setzkasten/lilypond-export/b5-c9-m1-d-original.ly:102:16:17">
</a>
<a style="color:inherit;" xlink:href="textedit:///home/johannes/common-lisp/setzkasten/lilypond-export/b5-c9-m1-d-original.ly:117:43:44">
<g transform="translate(40.6328, 27.7000)">
<path transform="scale(0.0040, -0.0040)" d="M73 54c-1 -2 -2 -4 -2 -6s1 -4 2 -6l91 -129c2 -3 5 -4 8 -4s7 1 9 4l23 33c1 2 2 4 2 6s-1 4 -2 6l-91 129c-2 3 -5 4 -8 4s-6 -1 -8 -4zM2 -6c-1 2 -2 4 -2 6s1 4 2 6l128 182c2 3 6 4 9 4s6 -1 8 -4l128 -182c1 -2 2 -4 2 -6s-1 -4 -2 -6l-128 -182c-2 -3 -5 -4 -8 -4
s-7 1 -9 4z" fill="currentColor"/>
</g>
</a>
<g transform="translate(35.6328, 26.2000)">
<path transform="scale(0.0040, -0.0040)" d="M272 -79l25 -25c16 -16 -26 -60 -43 -43l-25 25c-16 16 26 60 43 43zM272 147l25 -25c16 -16 -26 -60 -43 -43l-25 25c-16 16 26 60 43 43zM199 12c0 -99 -88 -187 -187 -187c-23 0 -8 29 0 37c7 7 15 13 25 13c64 0 113 49 113 113c0 75 -63 137 -138 137
c-23 0 -8 29 0 37c7 7 15 13 25 13c89 0 162 -74 162 -163z" fill="currentColor"/>
</g>
<a style="color:inherit;" xlink:href="textedit:///home/johannes/common-lisp/setzkasten/lilypond-export/b5-c9-m1-d-original.ly:115:16:17">
</a>
<g transform="translate(53.5935, 9.0000)">
<text font-family="serif" font-size="2.2001" text-anchor="start" fill="currentColor">
<tspan>Le quattro seste</tspan>
</text>
</g>
<g transform="translate(50.8961, 12.0000)">
<text font-family="serif" font-size="2.2001" text-anchor="start" fill="currentColor">
<tspan>con le sue propinque</tspan>
</text>
</g>
<g transform="translate(52.4747, 20.2000)">
<line stroke-linejoin="round" stroke-linecap="round" stroke-width="0.1000" stroke="currentColor" x1="0.0500" y1="0" x2="18.9252" y2="0"/>
</g>
<g transform="translate(52.4747, 19.2000)">
<line stroke-linejoin="round" stroke-linecap="round" stroke-width="0.1000" stroke="currentColor" x1="0.0500" y1="0" x2="18.9252" y2="0"/>
</g>
<g transform="translate(52.4747, 18.2000)">
<line stroke-linejoin="round" stroke-linecap="round" stroke-width="0.1000" stroke="currentColor" x1="0.0500" y1="0" x2="18.9252" y2="0"/>
</g>
<g transform="translate(52.4747, 17.2000)">
<line stroke-linejoin="round" stroke-linecap="round" stroke-width="0.1000" stroke="currentColor" x1="0.0500" y1="0" x2="18.9252" y2="0"/>
</g>
<g transform="translate(52.4747, 16.2000)">
<line stroke-linejoin="round" stroke-linecap="round" stroke-width="0.1000" stroke="currentColor" x1="0.0500" y1="0" x2="18.9252" y2="0"/>
</g>
<g transform="translate(63.7423, 18.2000)">
<rect x="0.0000" y="-2.0000" width="0.1900" height="4.0000" ry="0.0000" fill="currentColor"/>
</g>
<g transform="translate(63.7423, 27.2000)">
<rect x="0.0000" y="-2.0000" width="0.1900" height="4.0000" ry="0.0000" fill="currentColor"/>
</g>
<g transform="translate(52.4747, 29.2000)">
<line stroke-linejoin="round" stroke-linecap="round" stroke-width="0.1000" stroke="currentColor" x1="0.0500" y1="0" x2="18.9252" y2="0"/>
</g>
<g transform="translate(52.4747, 28.2000)">
<line stroke-linejoin="round" stroke-linecap="round" stroke-width="0.1000" stroke="currentColor" x1="0.0500" y1="0" x2="18.9252" y2="0"/>
</g>
<g transform="translate(52.4747, 27.2000)">
<line stroke-linejoin="round" stroke-linecap="round" stroke-width="0.1000" stroke="currentColor" x1="0.0500" y1="0" x2="18.9252" y2="0"/>
</g>
<g transform="translate(52.4747, 26.2000)">
<line stroke-linejoin="round" stroke-linecap="round" stroke-width="0.1000" stroke="currentColor" x1="0.0500" y1="0" x2="18.9252" y2="0"/>
</g>
<g transform="translate(52.4747, 25.2000)">
<line stroke-linejoin="round" stroke-linecap="round" stroke-width="0.1000" stroke="currentColor" x1="0.0500" y1="0" x2="18.9252" y2="0"/>
</g>
<g transform="translate(64.5323, 18.7000)">
<path transform="scale(0.0040, -0.0040)" d="M216 -312c0 -10 -8 -19 -18 -19s-19 9 -19 19v145l-83 -31v-158c0 -10 -9 -19 -19 -19s-18 9 -18 19v145l-32 -12c-2 -1 -5 -1 -7 -1c-11 0 -20 9 -20 20v60c0 8 5 16 13 19l46 16v160l-32 -11c-2 -1 -5 -1 -7 -1c-11 0 -20 9 -20 20v60c0 8 5 15 13 18l46 17v158
c0 10 8 19 18 19s19 -9 19 -19v-145l83 31v158c0 10 9 19 19 19s18 -9 18 -19v-145l32 12c2 1 5 1 7 1c11 0 20 -9 20 -20v-60c0 -8 -5 -16 -13 -19l-46 -16v-160l32 11c2 1 5 1 7 1c11 0 20 -9 20 -20v-60c0 -8 -5 -15 -13 -18l-46 -17v-158zM96 65v-160l83 30v160z" fill="currentColor"/>
</g>
<a style="color:inherit;" xlink:href="textedit:///home/johannes/common-lisp/setzkasten/lilypond-export/b5-c9-m1-d-original.ly:167:64:65">
<g transform="translate(65.9823, 28.2000)">
<path transform="scale(0.0040, -0.0040)" d="M73 54c-1 -2 -2 -4 -2 -6s1 -4 2 -6l91 -129c2 -3 5 -4 8 -4s7 1 9 4l23 33c1 2 2 4 2 6s-1 4 -2 6l-91 129c-2 3 -5 4 -8 4s-6 -1 -8 -4zM2 -6c-1 2 -2 4 -2 6s1 4 2 6l128 182c2 3 6 4 9 4s6 -1 8 -4l128 -182c1 -2 2 -4 2 -6s-1 -4 -2 -6l-128 -182c-2 -3 -5 -4 -8 -4
s-7 1 -9 4z" fill="currentColor"/>
</g>
</a>
<a style="color:inherit;" xlink:href="textedit:///home/johannes/common-lisp/setzkasten/lilypond-export/b5-c9-m1-d-original.ly:154:65:66">
<g transform="translate(65.9823, 18.7000)">
<path transform="scale(0.0040, -0.0040)" d="M73 54c-1 -2 -2 -4 -2 -6s1 -4 2 -6l91 -129c2 -3 5 -4 8 -4s7 1 9 4l23 33c1 2 2 4 2 6s-1 4 -2 6l-91 129c-2 3 -5 4 -8 4s-6 -1 -8 -4zM2 -6c-1 2 -2 4 -2 6s1 4 2 6l128 182c2 3 6 4 9 4s6 -1 8 -4l128 -182c1 -2 2 -4 2 -6s-1 -4 -2 -6l-128 -182c-2 -3 -5 -4 -8 -4
s-7 1 -9 4z" fill="currentColor"/>
</g>
</a>
<g transform="translate(67.9912, 28.2000)">
<path transform="scale(0.0040, -0.0040)" d="M27 41l-1 -66v-11c0 -22 1 -44 4 -66c45 38 93 80 93 139c0 33 -14 67 -43 67c-31 0 -52 -30 -53 -63zM-15 -138l-12 595c8 5 18 8 27 8s19 -3 27 -8l-7 -345c25 21 58 34 91 34c52 0 89 -48 89 -102c0 -80 -86 -117 -147 -169c-15 -13 -24 -38 -45 -38
c-13 0 -23 11 -23 25z" fill="currentColor"/>
</g>
<g transform="translate(67.6912, 18.7000)">
<path transform="scale(0.0040, -0.0040)" d="M216 -312c0 -10 -8 -19 -18 -19s-19 9 -19 19v145l-83 -31v-158c0 -10 -9 -19 -19 -19s-18 9 -18 19v145l-32 -12c-2 -1 -5 -1 -7 -1c-11 0 -20 9 -20 20v60c0 8 5 16 13 19l46 16v160l-32 -11c-2 -1 -5 -1 -7 -1c-11 0 -20 9 -20 20v60c0 8 5 15 13 18l46 17v158
c0 10 8 19 18 19s19 -9 19 -19v-145l83 31v158c0 10 9 19 19 19s18 -9 18 -19v-145l32 12c2 1 5 1 7 1c11 0 20 -9 20 -20v-60c0 -8 -5 -16 -13 -19l-46 -16v-160l32 11c2 1 5 1 7 1c11 0 20 -9 20 -20v-60c0 -8 -5 -15 -13 -18l-46 -17v-158zM96 65v-160l83 30v160z" fill="currentColor"/>
</g>
<a style="color:inherit;" xlink:href="textedit:///home/johannes/common-lisp/setzkasten/lilypond-export/b5-c9-m1-d-original.ly:167:80:81">
<g transform="translate(69.6956, 26.7000)">
<path transform="scale(0.0045, -0.0045)" d="M-50 0c0 28 22 50 50 50s50 -22 50 -50s-22 -50 -50 -50s-50 22 -50 50z" fill="currentColor"/>
</g>
</a>
<a style="color:inherit;" xlink:href="textedit:///home/johannes/common-lisp/setzkasten/lilypond-export/b5-c9-m1-d-original.ly:167:75:76">
<g transform="translate(69.1412, 28.2000)">
<path transform="scale(0.0040, -0.0040)" d="M73 54c-1 -2 -2 -4 -2 -6s1 -4 2 -6l91 -129c2 -3 5 -4 8 -4s7 1 9 4l23 33c1 2 2 4 2 6s-1 4 -2 6l-91 129c-2 3 -5 4 -8 4s-6 -1 -8 -4zM2 -6c-1 2 -2 4 -2 6s1 4 2 6l128 182c2 3 6 4 9 4s6 -1 8 -4l128 -182c1 -2 2 -4 2 -6s-1 -4 -2 -6l-128 -182c-2 -3 -5 -4 -8 -4
s-7 1 -9 4z" fill="currentColor"/>
</g>
</a>
<a style="color:inherit;" xlink:href="textedit:///home/johannes/common-lisp/setzkasten/lilypond-export/b5-c9-m1-d-original.ly:154:72:73">
<g transform="translate(69.1412, 18.7000)">
<path transform="scale(0.0040, -0.0040)" d="M73 54c-1 -2 -2 -4 -2 -6s1 -4 2 -6l91 -129c2 -3 5 -4 8 -4s7 1 9 4l23 33c1 2 2 4 2 6s-1 4 -2 6l-91 129c-2 3 -5 4 -8 4s-6 -1 -8 -4zM2 -6c-1 2 -2 4 -2 6s1 4 2 6l128 182c2 3 6 4 9 4s6 -1 8 -4l128 -182c1 -2 2 -4 2 -6s-1 -4 -2 -6l-128 -182c-2 -3 -5 -4 -8 -4
s-7 1 -9 4z" fill="currentColor"/>
</g>
</a>
<g transform="translate(56.8247, 18.7000)">
<path transform="scale(0.0040, -0.0040)" d="M216 -312c0 -10 -8 -19 -18 -19s-19 9 -19 19v145l-83 -31v-158c0 -10 -9 -19 -19 -19s-18 9 -18 19v145l-32 -12c-2 -1 -5 -1 -7 -1c-11 0 -20 9 -20 20v60c0 8 5 16 13 19l46 16v160l-32 -11c-2 -1 -5 -1 -7 -1c-11 0 -20 9 -20 20v60c0 8 5 15 13 18l46 17v158
c0 10 8 19 18 19s19 -9 19 -19v-145l83 31v158c0 10 9 19 19 19s18 -9 18 -19v-145l32 12c2 1 5 1 7 1c11 0 20 -9 20 -20v-60c0 -8 -5 -16 -13 -19l-46 -16v-160l32 11c2 1 5 1 7 1c11 0 20 -9 20 -20v-60c0 -8 -5 -15 -13 -18l-46 -17v-158zM96 65v-160l83 30v160z" fill="currentColor"/>
</g>
<a style="color:inherit;" xlink:href="textedit:///home/johannes/common-lisp/setzkasten/lilypond-export/b5-c9-m1-d-original.ly:165:16:17">
</a>
<g transform="translate(53.2747, 26.2000)">
<path transform="scale(0.0040, -0.0040)" d="M272 -79l25 -25c16 -16 -26 -60 -43 -43l-25 25c-16 16 26 60 43 43zM272 147l25 -25c16 -16 -26 -60 -43 -43l-25 25c-16 16 26 60 43 43zM199 12c0 -99 -88 -187 -187 -187c-23 0 -8 29 0 37c7 7 15 13 25 13c64 0 113 49 113 113c0 75 -63 137 -138 137
c-23 0 -8 29 0 37c7 7 15 13 25 13c89 0 162 -74 162 -163z" fill="currentColor"/>
</g>
<a style="color:inherit;" xlink:href="textedit:///home/johannes/common-lisp/setzkasten/lilypond-export/b5-c9-m1-d-original.ly:167:43:44">
<g transform="translate(58.2747, 28.2000)">
<path transform="scale(0.0040, -0.0040)" d="M73 54c-1 -2 -2 -4 -2 -6s1 -4 2 -6l91 -129c2 -3 5 -4 8 -4s7 1 9 4l23 33c1 2 2 4 2 6s-1 4 -2 6l-91 129c-2 3 -5 4 -8 4s-6 -1 -8 -4zM2 -6c-1 2 -2 4 -2 6s1 4 2 6l128 182c2 3 6 4 9 4s6 -1 8 -4l128 -182c1 -2 2 -4 2 -6s-1 -4 -2 -6l-128 -182c-2 -3 -5 -4 -8 -4
s-7 1 -9 4z" fill="currentColor"/>
</g>
</a>
<a style="color:inherit;" xlink:href="textedit:///home/johannes/common-lisp/setzkasten/lilypond-export/b5-c9-m1-d-original.ly:152:16:17">
</a>
<g transform="translate(53.2747, 17.2000)">
<path transform="scale(0.0040, -0.0040)" d="M35 -104v-42c0 -6 4 -10 10 -10h195c6 0 10 4 10 10v42c0 6 -4 10 -10 10h-195c-6 0 -10 -4 -10 -10zM35 146v-42c0 -6 4 -10 10 -10h195c6 0 10 4 10 10v42c0 6 -4 10 -10 10h-195c-6 0 -10 -4 -10 -10zM0 0v540c0 7 9 10 18 10s17 -3 17 -10v-311c0 -6 4 -10 10 -10
h195c6 0 10 4 10 10v83c0 7 9 10 18 10s17 -3 17 -10v-271c0 -6 -4 -10 -10 -10h-230c-6 0 -10 -4 -10 -10v-42c0 -6 4 -10 10 -10h230c6 0 10 -4 10 -10v-271c0 -7 -8 -10 -17 -10s-18 3 -18 10v83c0 6 -4 10 -10 10h-195c-6 0 -10 -4 -10 -10v-311c0 -7 -8 -10 -17 -10
s-18 3 -18 10v540z" fill="currentColor"/>
</g>
<a style="color:inherit;" xlink:href="textedit:///home/johannes/common-lisp/setzkasten/lilypond-export/b5-c9-m1-d-original.ly:154:43:44">
<g transform="translate(58.2747, 18.7000)">
<path transform="scale(0.0040, -0.0040)" d="M73 54c-1 -2 -2 -4 -2 -6s1 -4 2 -6l91 -129c2 -3 5 -4 8 -4s7 1 9 4l23 33c1 2 2 4 2 6s-1 4 -2 6l-91 129c-2 3 -5 4 -8 4s-6 -1 -8 -4zM2 -6c-1 2 -2 4 -2 6s1 4 2 6l128 182c2 3 6 4 9 4s6 -1 8 -4l128 -182c1 -2 2 -4 2 -6s-1 -4 -2 -6l-128 -182c-2 -3 -5 -4 -8 -4
s-7 1 -9 4z" fill="currentColor"/>
</g>
</a>
<g transform="translate(52.4147, 22.7000)">
<rect x="0.0000" y="-6.5500" width="0.1600" height="13.1000" ry="0.0500" fill="currentColor"/>
</g>
<g transform="translate(59.9835, 18.7000)">
<path transform="scale(0.0040, -0.0040)" d="M216 -312c0 -10 -8 -19 -18 -19s-19 9 -19 19v145l-83 -31v-158c0 -10 -9 -19 -19 -19s-18 9 -18 19v145l-32 -12c-2 -1 -5 -1 -7 -1c-11 0 -20 9 -20 20v60c0 8 5 16 13 19l46 16v160l-32 -11c-2 -1 -5 -1 -7 -1c-11 0 -20 9 -20 20v60c0 8 5 15 13 18l46 17v158
c0 10 8 19 18 19s19 -9 19 -19v-145l83 31v158c0 10 9 19 19 19s18 -9 18 -19v-145l32 12c2 1 5 1 7 1c11 0 20 -9 20 -20v-60c0 -8 -5 -16 -13 -19l-46 -16v-160l32 11c2 1 5 1 7 1c11 0 20 -9 20 -20v-60c0 -8 -5 -15 -13 -18l-46 -17v-158zM96 65v-160l83 30v160z" fill="currentColor"/>
</g>
<a style="color:inherit;" xlink:href="textedit:///home/johannes/common-lisp/setzkasten/lilypond-export/b5-c9-m1-d-original.ly:167:59:60">
<g transform="translate(61.9879, 26.7000)">
<path transform="scale(0.0045, -0.0045)" d="M-50 0c0 28 22 50 50 50s50 -22 50 -50s-22 -50 -50 -50s-50 22 -50 50z" fill="currentColor"/>
</g>
</a>
<a style="color:inherit;" xlink:href="textedit:///home/johannes/common-lisp/setzkasten/lilypond-export/b5-c9-m1-d-original.ly:167:56:57">
<g transform="translate(61.4335, 28.2000)">
<path transform="scale(0.0040, -0.0040)" d="M73 54c-1 -2 -2 -4 -2 -6s1 -4 2 -6l91 -129c2 -3 5 -4 8 -4s7 1 9 4l23 33c1 2 2 4 2 6s-1 4 -2 6l-91 129c-2 3 -5 4 -8 4s-6 -1 -8 -4zM2 -6c-1 2 -2 4 -2 6s1 4 2 6l128 182c2 3 6 4 9 4s6 -1 8 -4l128 -182c1 -2 2 -4 2 -6s-1 -4 -2 -6l-128 -182c-2 -3 -5 -4 -8 -4
s-7 1 -9 4z" fill="currentColor"/>
</g>
</a>
<a style="color:inherit;" xlink:href="textedit:///home/johannes/common-lisp/setzkasten/lilypond-export/b5-c9-m1-d-original.ly:154:50:51">
<g transform="translate(61.4335, 18.7000)">
<path transform="scale(0.0040, -0.0040)" d="M73 54c-1 -2 -2 -4 -2 -6s1 -4 2 -6l91 -129c2 -3 5 -4 8 -4s7 1 9 4l23 33c1 2 2 4 2 6s-1 4 -2 6l-91 129c-2 3 -5 4 -8 4s-6 -1 -8 -4zM2 -6c-1 2 -2 4 -2 6s1 4 2 6l128 182c2 3 6 4 9 4s6 -1 8 -4l128 -182c1 -2 2 -4 2 -6s-1 -4 -2 -6l-128 -182c-2 -3 -5 -4 -8 -4
s-7 1 -9 4z" fill="currentColor"/>
</g>
</a>
<g transform="translate(56.8247, 28.2000)">
<path transform="scale(0.0040, -0.0040)" d="M216 -312c0 -10 -8 -19 -18 -19s-19 9 -19 19v145l-83 -31v-158c0 -10 -9 -19 -19 -19s-18 9 -18 19v145l-32 -12c-2 -1 -5 -1 -7 -1c-11 0 -20 9 -20 20v60c0 8 5 16 13 19l46 16v160l-32 -11c-2 -1 -5 -1 -7 -1c-11 0 -20 9 -20 20v60c0 8 5 15 13 18l46 17v158
c0 10 8 19 18 19s19 -9 19 -19v-145l83 31v158c0 10 9 19 19 19s18 -9 18 -19v-145l32 12c2 1 5 1 7 1c11 0 20 -9 20 -20v-60c0 -8 -5 -16 -13 -19l-46 -16v-160l32 11c2 1 5 1 7 1c11 0 20 -9 20 -20v-60c0 -8 -5 -15 -13 -18l-46 -17v-158zM96 65v-160l83 30v160z" fill="currentColor"/>
</g>
<g transform="translate(46.4916, 33.2000)">
<text font-family="serif" font-size="2.2001" text-anchor="start" fill="currentColor">
<tspan>sesta minore / sesta maggiore</tspan>
</text>
</g>
<g transform="translate(81.5169, 9.0000)">
<text font-family="serif" font-size="2.2001" text-anchor="start" fill="currentColor">
<tspan>Ottava</tspan>
</text>
</g>
<g transform="translate(84.6922, 12.0000)">
<text font-family="serif" font-size="2.2001" text-anchor="start" fill="currentColor">
<tspan> </tspan>
</text>
</g>
<g transform="translate(80.9830, 20.2000)">
<line stroke-linejoin="round" stroke-linecap="round" stroke-width="0.1000" stroke="currentColor" x1="0.0500" y1="0" x2="8.0588" y2="0"/>
</g>
<g transform="translate(80.9830, 19.2000)">
<line stroke-linejoin="round" stroke-linecap="round" stroke-width="0.1000" stroke="currentColor" x1="0.0500" y1="0" x2="8.0588" y2="0"/>
</g>
<g transform="translate(80.9830, 18.2000)">
<line stroke-linejoin="round" stroke-linecap="round" stroke-width="0.1000" stroke="currentColor" x1="0.0500" y1="0" x2="8.0588" y2="0"/>
</g>
<g transform="translate(80.9830, 17.2000)">
<line stroke-linejoin="round" stroke-linecap="round" stroke-width="0.1000" stroke="currentColor" x1="0.0500" y1="0" x2="8.0588" y2="0"/>
</g>
<g transform="translate(80.9830, 16.2000)">
<line stroke-linejoin="round" stroke-linecap="round" stroke-width="0.1000" stroke="currentColor" x1="0.0500" y1="0" x2="8.0588" y2="0"/>
</g>
<g transform="translate(80.9830, 29.2000)">
<line stroke-linejoin="round" stroke-linecap="round" stroke-width="0.1000" stroke="currentColor" x1="0.0500" y1="0" x2="8.0588" y2="0"/>
</g>
<g transform="translate(80.9830, 28.2000)">
<line stroke-linejoin="round" stroke-linecap="round" stroke-width="0.1000" stroke="currentColor" x1="0.0500" y1="0" x2="8.0588" y2="0"/>
</g>
<g transform="translate(80.9830, 27.2000)">
<line stroke-linejoin="round" stroke-linecap="round" stroke-width="0.1000" stroke="currentColor" x1="0.0500" y1="0" x2="8.0588" y2="0"/>
</g>
<g transform="translate(80.9830, 26.2000)">
<line stroke-linejoin="round" stroke-linecap="round" stroke-width="0.1000" stroke="currentColor" x1="0.0500" y1="0" x2="8.0588" y2="0"/>
</g>
<g transform="translate(80.9830, 25.2000)">
<line stroke-linejoin="round" stroke-linecap="round" stroke-width="0.1000" stroke="currentColor" x1="0.0500" y1="0" x2="8.0588" y2="0"/>
</g>
<g transform="translate(85.3330, 18.7000)">
<path transform="scale(0.0040, -0.0040)" d="M216 -312c0 -10 -8 -19 -18 -19s-19 9 -19 19v145l-83 -31v-158c0 -10 -9 -19 -19 -19s-18 9 -18 19v145l-32 -12c-2 -1 -5 -1 -7 -1c-11 0 -20 9 -20 20v60c0 8 5 16 13 19l46 16v160l-32 -11c-2 -1 -5 -1 -7 -1c-11 0 -20 9 -20 20v60c0 8 5 15 13 18l46 17v158
c0 10 8 19 18 19s19 -9 19 -19v-145l83 31v158c0 10 9 19 19 19s18 -9 18 -19v-145l32 12c2 1 5 1 7 1c11 0 20 -9 20 -20v-60c0 -8 -5 -16 -13 -19l-46 -16v-160l32 11c2 1 5 1 7 1c11 0 20 -9 20 -20v-60c0 -8 -5 -15 -13 -18l-46 -17v-158zM96 65v-160l83 30v160z" fill="currentColor"/>
</g>
<g transform="translate(85.3330, 29.2000)">
<path transform="scale(0.0040, -0.0040)" d="M216 -312c0 -10 -8 -19 -18 -19s-19 9 -19 19v145l-83 -31v-158c0 -10 -9 -19 -19 -19s-18 9 -18 19v145l-32 -12c-2 -1 -5 -1 -7 -1c-11 0 -20 9 -20 20v60c0 8 5 16 13 19l46 16v160l-32 -11c-2 -1 -5 -1 -7 -1c-11 0 -20 9 -20 20v60c0 8 5 15 13 18l46 17v158
c0 10 8 19 18 19s19 -9 19 -19v-145l83 31v158c0 10 9 19 19 19s18 -9 18 -19v-145l32 12c2 1 5 1 7 1c11 0 20 -9 20 -20v-60c0 -8 -5 -16 -13 -19l-46 -16v-160l32 11c2 1 5 1 7 1c11 0 20 -9 20 -20v-60c0 -8 -5 -15 -13 -18l-46 -17v-158zM96 65v-160l83 30v160z" fill="currentColor"/>
</g>
<a style="color:inherit;" xlink:href="textedit:///home/johannes/common-lisp/setzkasten/lilypond-export/b5-c9-m1-d-original.ly:208:43:44">
<g transform="translate(86.7830, 18.7000)">
<path transform="scale(0.0040, -0.0040)" d="M73 54c-1 -2 -2 -4 -2 -6s1 -4 2 -6l91 -129c2 -3 5 -4 8 -4s7 1 9 4l23 33c1 2 2 4 2 6s-1 4 -2 6l-91 129c-2 3 -5 4 -8 4s-6 -1 -8 -4zM2 -6c-1 2 -2 4 -2 6s1 4 2 6l128 182c2 3 6 4 9 4s6 -1 8 -4l128 -182c1 -2 2 -4 2 -6s-1 -4 -2 -6l-128 -182c-2 -3 -5 -4 -8 -4
s-7 1 -9 4z" fill="currentColor"/>
</g>
</a>
<g transform="translate(80.9230, 22.7000)">
<rect x="0.0000" y="-6.5500" width="0.1600" height="13.1000" ry="0.0500" fill="currentColor"/>
</g>
<g transform="translate(81.7830, 17.2000)">
<path transform="scale(0.0040, -0.0040)" d="M35 -104v-42c0 -6 4 -10 10 -10h195c6 0 10 4 10 10v42c0 6 -4 10 -10 10h-195c-6 0 -10 -4 -10 -10zM35 146v-42c0 -6 4 -10 10 -10h195c6 0 10 4 10 10v42c0 6 -4 10 -10 10h-195c-6 0 -10 -4 -10 -10zM0 0v540c0 7 9 10 18 10s17 -3 17 -10v-311c0 -6 4 -10 10 -10
h195c6 0 10 4 10 10v83c0 7 9 10 18 10s17 -3 17 -10v-271c0 -6 -4 -10 -10 -10h-230c-6 0 -10 -4 -10 -10v-42c0 -6 4 -10 10 -10h230c6 0 10 -4 10 -10v-271c0 -7 -8 -10 -17 -10s-18 3 -18 10v83c0 6 -4 10 -10 10h-195c-6 0 -10 -4 -10 -10v-311c0 -7 -8 -10 -17 -10
s-18 3 -18 10v540z" fill="currentColor"/>
</g>
<a style="color:inherit;" xlink:href="textedit:///home/johannes/common-lisp/setzkasten/lilypond-export/b5-c9-m1-d-original.ly:206:16:17">
</a>
<a style="color:inherit;" xlink:href="textedit:///home/johannes/common-lisp/setzkasten/lilypond-export/b5-c9-m1-d-original.ly:221:43:44">
<g transform="translate(86.7830, 29.2000)">
<path transform="scale(0.0040, -0.0040)" d="M73 54c-1 -2 -2 -4 -2 -6s1 -4 2 -6l91 -129c2 -3 5 -4 8 -4s7 1 9 4l23 33c1 2 2 4 2 6s-1 4 -2 6l-91 129c-2 3 -5 4 -8 4s-6 -1 -8 -4zM2 -6c-1 2 -2 4 -2 6s1 4 2 6l128 182c2 3 6 4 9 4s6 -1 8 -4l128 -182c1 -2 2 -4 2 -6s-1 -4 -2 -6l-128 -182c-2 -3 -5 -4 -8 -4
s-7 1 -9 4z" fill="currentColor"/>
</g>
</a>
<g transform="translate(81.7830, 26.2000)">
<path transform="scale(0.0040, -0.0040)" d="M272 -79l25 -25c16 -16 -26 -60 -43 -43l-25 25c-16 16 26 60 43 43zM272 147l25 -25c16 -16 -26 -60 -43 -43l-25 25c-16 16 26 60 43 43zM199 12c0 -99 -88 -187 -187 -187c-23 0 -8 29 0 37c7 7 15 13 25 13c64 0 113 49 113 113c0 75 -63 137 -138 137
c-23 0 -8 29 0 37c7 7 15 13 25 13c89 0 162 -74 162 -163z" fill="currentColor"/>
</g>
<a style="color:inherit;" xlink:href="textedit:///home/johannes/common-lisp/setzkasten/lilypond-export/b5-c9-m1-d-original.ly:219:16:17">
</a>
</svg>
