<?xml version="1.0" standalone="no"?>
<!DOCTYPE svg PUBLIC "-//W3C//DTD SVG 1.1//EN" "http://www.w3.org/Graphics/SVG/1.1/DTD/svg11.dtd">
<svg stroke="black" width="382.5" viewBox="0 0 765.0 250.0" id="special-early-music-performer" version="1.1"
    xmlns="http://www.w3.org/2000/svg"
    xmlns:xlink="http://www.w3.org/1999/xlink"><rect width="100%" height="100%" fill="white"/><defs><g id="semibrevis-dot-5"><line x1="2.5" y1="35.0" x2="48.5" y2="35.0" stroke-width="4.5" stroke-linecap="round"/><line x1="2.5" y1="75.0" x2="48.5" y2="75.0" stroke-width="4.5" stroke-linecap="round"/><line x1="2.5" y1="115.0" x2="48.5" y2="115.0" stroke-width="4.5" stroke-linecap="round"/><line x1="2.5" y1="155.0" x2="48.5" y2="155.0" stroke-width="4.5" stroke-linecap="round"/><line x1="2.5" y1="195.0" x2="48.5" y2="195.0" stroke-width="4.5" stroke-linecap="round"/><path fill-rule="evenodd" fill="black" d="M25.5 141.0 L2.1000004 115.0 L25.5 89.0 L48.9 115.0 zM32.022408 129.66476 L12.301713 107.752884 L18.977592 100.335236 L38.698288 122.247116 z" /><path fill="black" d="M25.5 61.0 L19.5 55.0 L25.5 49.0 L31.5 55.0 z" /></g><g id="semibrevis-5"><line x1="2.5" y1="35.0" x2="48.5" y2="35.0" stroke-width="4.5" stroke-linecap="round"/><line x1="2.5" y1="75.0" x2="48.5" y2="75.0" stroke-width="4.5" stroke-linecap="round"/><line x1="2.5" y1="115.0" x2="48.5" y2="115.0" stroke-width="4.5" stroke-linecap="round"/><line x1="2.5" y1="155.0" x2="48.5" y2="155.0" stroke-width="4.5" stroke-linecap="round"/><line x1="2.5" y1="195.0" x2="48.5" y2="195.0" stroke-width="4.5" stroke-linecap="round"/><path fill-rule="evenodd" fill="black" d="M25.5 141.0 L2.1000004 115.0 L25.5 89.0 L48.9 115.0 zM32.022408 129.66476 L12.301713 107.752884 L18.977592 100.335236 L38.698288 122.247116 z" /></g><g id="flat-5"><line x1="2.5" y1="35.0" x2="27.5" y2="35.0" stroke-width="4.5" stroke-linecap="round"/><line x1="2.5" y1="75.0" x2="27.5" y2="75.0" stroke-width="4.5" stroke-linecap="round"/><line x1="2.5" y1="115.0" x2="27.5" y2="115.0" stroke-width="4.5" stroke-linecap="round"/><line x1="2.5" y1="155.0" x2="27.5" y2="155.0" stroke-width="4.5" stroke-linecap="round"/><line x1="2.5" y1="195.0" x2="27.5" y2="195.0" stroke-width="4.5" stroke-linecap="round"/><path stroke="black" fill="none" stroke-width="3.25" stroke-linecap="round" d="M2.1999998 127.8 A15.360001 15.360001 0 1 0 2.1999998 102.200005 " /><path fill="black" d="M0.9499998 127.8 L3.4499998 127.8 L3.5749998 -0.19999695 L-0.5500002 -0.19999695 z" /></g><g id="semibrevis-dot-4"><line x1="2.5" y1="35.0" x2="48.5" y2="35.0" stroke-width="4.5" stroke-linecap="round"/><line x1="2.5" y1="75.0" x2="48.5" y2="75.0" stroke-width="4.5" stroke-linecap="round"/><line x1="2.5" y1="115.0" x2="48.5" y2="115.0" stroke-width="4.5" stroke-linecap="round"/><line x1="2.5" y1="155.0" x2="48.5" y2="155.0" stroke-width="4.5" stroke-linecap="round"/><line x1="2.5" y1="195.0" x2="48.5" y2="195.0" stroke-width="4.5" stroke-linecap="round"/><path fill-rule="evenodd" fill="black" d="M25.5 161.0 L2.1000004 135.0 L25.5 109.0 L48.9 135.0 zM32.022408 149.66476 L12.301713 127.752884 L18.977592 120.335236 L38.698288 142.24712 z" /><path fill="black" d="M25.5 101.0 L19.5 95.0 L25.5 89.0 L31.5 95.0 z" /></g><g id="semibrevis-4"><line x1="2.5" y1="35.0" x2="48.5" y2="35.0" stroke-width="4.5" stroke-linecap="round"/><line x1="2.5" y1="75.0" x2="48.5" y2="75.0" stroke-width="4.5" stroke-linecap="round"/><line x1="2.5" y1="115.0" x2="48.5" y2="115.0" stroke-width="4.5" stroke-linecap="round"/><line x1="2.5" y1="155.0" x2="48.5" y2="155.0" stroke-width="4.5" stroke-linecap="round"/><line x1="2.5" y1="195.0" x2="48.5" y2="195.0" stroke-width="4.5" stroke-linecap="round"/><path fill-rule="evenodd" fill="black" d="M25.5 161.0 L2.1000004 135.0 L25.5 109.0 L48.9 135.0 zM32.022408 149.66476 L12.301713 127.752884 L18.977592 120.335236 L38.698288 142.24712 z" /></g><g id="blank-38"><line x1="2.5" y1="35.0" x2="35.5" y2="35.0" stroke-width="4.5" stroke-linecap="round"/><line x1="2.5" y1="75.0" x2="35.5" y2="75.0" stroke-width="4.5" stroke-linecap="round"/><line x1="2.5" y1="115.0" x2="35.5" y2="115.0" stroke-width="4.5" stroke-linecap="round"/><line x1="2.5" y1="155.0" x2="35.5" y2="155.0" stroke-width="4.5" stroke-linecap="round"/><line x1="2.5" y1="195.0" x2="35.5" y2="195.0" stroke-width="4.5" stroke-linecap="round"/></g><g id="c-clef-7"><line x1="2.5" y1="35.0" x2="63.5" y2="35.0" stroke-width="4.5" stroke-linecap="round"/><line x1="2.5" y1="75.0" x2="63.5" y2="75.0" stroke-width="4.5" stroke-linecap="round"/><line x1="2.5" y1="115.0" x2="63.5" y2="115.0" stroke-width="4.5" stroke-linecap="round"/><line x1="2.5" y1="155.0" x2="63.5" y2="155.0" stroke-width="4.5" stroke-linecap="round"/><line x1="2.5" y1="195.0" x2="63.5" y2="195.0" stroke-width="4.5" stroke-linecap="round"/><path fill-rule="evenodd" color="black" d="M11.049999 -5.0 L11.049999 203.0 L16.55 203.0 L16.55 115.0 L51.45 115.0 L51.45 139.0 L54.95 139.0 L54.95 83.0 L16.55 83.0 L16.55 67.0 L54.95 67.0 L54.95 11.0 L51.45 11.0 L51.45 35.0 L16.55 35.0 L16.55 -5.0 zM16.55 104.5 L51.45 104.5 L51.45 93.5 L16.55 93.5 zM16.55 56.5 L51.45 56.5 L51.45 45.5 L16.55 45.5 z" /></g><g id="blank-22"><line x1="2.5" y1="35.0" x2="19.5" y2="35.0" stroke-width="4.5" stroke-linecap="round"/><line x1="2.5" y1="75.0" x2="19.5" y2="75.0" stroke-width="4.5" stroke-linecap="round"/><line x1="2.5" y1="115.0" x2="19.5" y2="115.0" stroke-width="4.5" stroke-linecap="round"/><line x1="2.5" y1="155.0" x2="19.5" y2="155.0" stroke-width="4.5" stroke-linecap="round"/><line x1="2.5" y1="195.0" x2="19.5" y2="195.0" stroke-width="4.5" stroke-linecap="round"/></g></defs><use xlink:href="#blank-38" x="717.0" y="10"/><use xlink:href="#blank-38" x="679.0" y="10"/><use xlink:href="#semibrevis-5" x="628.0" y="10"/><use xlink:href="#blank-38" x="590.0" y="10"/><use xlink:href="#semibrevis-dot-5" x="539.0" y="10"/><use xlink:href="#blank-38" x="501.0" y="10"/><use xlink:href="#flat-5" x="471.0" y="10"/><use xlink:href="#blank-38" x="433.0" y="10"/><use xlink:href="#semibrevis-5" x="382.0" y="10"/><use xlink:href="#blank-38" x="344.0" y="10"/><use xlink:href="#flat-5" x="314.0" y="10"/><use xlink:href="#blank-38" x="276.0" y="10"/><use xlink:href="#semibrevis-dot-4" x="225.0" y="10"/><use xlink:href="#blank-38" x="187.0" y="10"/><use xlink:href="#semibrevis-4" x="136.0" y="10"/><use xlink:href="#blank-38" x="98.0" y="10"/><use xlink:href="#c-clef-7" x="32.0" y="10"/><use xlink:href="#blank-22" x="10" y="10"/></svg>